<svg width="26" height="26" viewBox="0 0 26 26" fill="none" xmlns="http://www.w3.org/2000/svg">
<path d="M19.0231 2.64191L2.68031 18.9847C1.33716 20.3279 1.20897 22.3838 2.39337 23.5682C3.57825 24.7531 5.63367 24.6244 6.97681 23.2812L23.3196 6.93841C24.6622 5.59581 24.7914 3.53985 23.6066 2.35497C22.4222 1.17056 20.3657 1.2993 19.0231 2.64191Z" fill="white"/>
<path d="M23.32 18.985L6.97718 2.64222C5.63404 1.29908 3.57814 1.17088 2.39374 2.35528C1.20886 3.54016 1.33754 5.59558 2.68068 6.93872L19.0235 23.2815C20.3661 24.6241 22.4221 24.7534 23.6069 23.5685C24.7913 22.3841 24.6626 20.3276 23.32 18.985Z" fill="white"/>
</svg>
