<svg width="21" height="22" viewBox="0 0 21 22" fill="none" xmlns="http://www.w3.org/2000/svg">
<path fill-rule="evenodd" clip-rule="evenodd" d="M7.5111 0.967401C8.20131 0.344683 9.09791 0 10.0275 0C10.9571 0 11.8537 0.344683 12.5439 0.967401C13.2341 1.59012 13.6689 2.44664 13.7643 3.37135L13.7663 3.39146L13.7656 3.41168C13.7398 4.16136 13.4704 4.8822 12.9982 5.46507C12.7 5.83307 12.3313 6.13342 11.9168 6.35037H17.2441L20.1669 22H0L2.92402 6.35096H8.13984C7.72521 6.1342 7.35637 5.83403 7.05806 5.46618C6.58526 4.88316 6.3154 4.16191 6.28939 3.41173L6.28869 3.39149L6.29077 3.37135C6.38609 2.44664 6.82089 1.59012 7.5111 0.967401ZM10.0275 0.588708C9.24359 0.588708 8.48751 0.879374 7.90546 1.4045C7.32845 1.9251 6.96311 2.63946 6.87852 3.41153C6.90419 4.0265 7.12739 4.61703 7.51531 5.09537C7.90746 5.57894 8.44658 5.9215 9.05094 6.07112L9.27455 6.12648V6.93967H3.41292L0.708897 21.4113H19.458L16.7551 6.93908H10.7834V6.12608L11.0068 6.07059C11.6106 5.92058 12.1491 5.57792 12.5407 5.09449C12.9281 4.61628 13.151 4.0261 13.1765 3.41156C13.0919 2.63948 12.7266 1.9251 12.1496 1.4045C11.5675 0.879374 10.8114 0.588708 10.0275 0.588708ZM10.0275 2.28035C9.70997 2.28035 9.40371 2.39813 9.16799 2.61089C8.93963 2.81702 8.79319 3.0981 8.75479 3.40267C8.79215 3.70804 8.93814 3.99019 9.16662 4.19719C9.40245 4.41084 9.7093 4.52917 10.0275 4.52917C10.3457 4.52917 10.6526 4.41084 10.8884 4.19719C11.1169 3.99019 11.2629 3.70804 11.3002 3.40267C11.2618 3.0981 11.1154 2.81702 10.887 2.61089C10.6513 2.39813 10.3451 2.28035 10.0275 2.28035ZM8.4586 3.40212L8.16568 3.43109C8.21137 3.89315 8.42726 4.32172 8.77136 4.63347C9.11546 4.94522 9.56319 5.11788 10.0275 5.11788C10.4918 5.11788 10.9396 4.94522 11.2837 4.63347C11.6278 4.32172 11.8436 3.89315 11.8893 3.43109L11.8923 3.40157L11.8892 3.37207C11.8419 2.91121 11.6254 2.48429 11.2815 2.17388C10.9376 1.86347 10.4908 1.69164 10.0275 1.69164C9.56424 1.69164 9.11743 1.86347 8.77354 2.17388C8.42964 2.48429 8.21309 2.91121 8.16579 3.37207L8.4586 3.40212Z" fill="black"/>
</svg>
