<svg width="28" height="28" viewBox="0 0 28 28" fill="none" xmlns="http://www.w3.org/2000/svg">
<path fill-rule="evenodd" clip-rule="evenodd" d="M0 5.6C0 4.11479 0.589998 2.69041 1.6402 1.6402C2.69041 0.589998 4.11479 0 5.6 0H22.4C23.8852 0 25.3096 0.589998 26.3598 1.6402C27.41 2.69041 28 4.11479 28 5.6V22.4C28 23.8852 27.41 25.3096 26.3598 26.3598C25.3096 27.41 23.8852 28 22.4 28H5.6C4.11479 28 2.69041 27.41 1.6402 26.3598C0.589998 25.3096 0 23.8852 0 22.4V5.6ZM5.6 2.8C4.85739 2.8 4.1452 3.095 3.6201 3.6201C3.095 4.1452 2.8 4.85739 2.8 5.6V22.4C2.8 23.1426 3.095 23.8548 3.6201 24.3799C4.1452 24.905 4.85739 25.2 5.6 25.2H14V15.4H12.6C12.2287 15.4 11.8726 15.2525 11.6101 14.9899C11.3475 14.7274 11.2 14.3713 11.2 14C11.2 13.6287 11.3475 13.2726 11.6101 13.0101C11.8726 12.7475 12.2287 12.6 12.6 12.6H14V10.5C14 9.20044 14.5162 7.95411 15.4352 7.03518C16.3541 6.11625 17.6004 5.6 18.9 5.6H19.74C20.1113 5.6 20.4674 5.7475 20.7299 6.01005C20.9925 6.2726 21.14 6.6287 21.14 7C21.14 7.3713 20.9925 7.7274 20.7299 7.98995C20.4674 8.2525 20.1113 8.4 19.74 8.4H18.9C18.6242 8.4 18.3511 8.45432 18.0964 8.55985C17.8416 8.66539 17.6101 8.82007 17.4151 9.01507C17.2201 9.21008 17.0654 9.44158 16.9599 9.69636C16.8543 9.95115 16.8 10.2242 16.8 10.5V12.6H19.74C20.1113 12.6 20.4674 12.7475 20.7299 13.0101C20.9925 13.2726 21.14 13.6287 21.14 14C21.14 14.3713 20.9925 14.7274 20.7299 14.9899C20.4674 15.2525 20.1113 15.4 19.74 15.4H16.8V25.2H22.4C23.1426 25.2 23.8548 24.905 24.3799 24.3799C24.905 23.8548 25.2 23.1426 25.2 22.4V5.6C25.2 4.85739 24.905 4.1452 24.3799 3.6201C23.8548 3.095 23.1426 2.8 22.4 2.8H5.6Z" fill="white"/>
</svg>
