<svg width="29" height="28" viewBox="0 0 29 28" fill="none" xmlns="http://www.w3.org/2000/svg">
<g clip-path="url(#clip0)">
<path d="M14.9651 0.0576172C7.21335 0.0576172 0.929199 6.32565 0.929199 14.0575C0.929199 20.992 5.9894 26.735 12.6242 27.8471V16.9782H9.2383V13.067H12.6242V10.183C12.6242 6.83668 14.6732 5.01315 17.6665 5.01315C19.1 5.01315 20.332 5.1197 20.6896 5.16663V8.66438L18.6136 8.66539C16.9862 8.66539 16.6724 9.43661 16.6724 10.5687V13.065H20.5557L20.0492 16.9762H16.6724V27.9406C23.6169 27.0976 29.0008 21.2083 29.0008 14.0535C29.0008 6.32565 22.7166 0.0576172 14.9651 0.0576172Z" fill="white"/>
</g>
<defs>
<clipPath id="clip0">
<rect width="28.0716" height="27.9995" fill="white" transform="translate(0.928223)"/>
</clipPath>
</defs>
</svg>
