<svg width="28" height="28" viewBox="0 0 28 28" fill="none" xmlns="http://www.w3.org/2000/svg">
<path fill-rule="evenodd" clip-rule="evenodd" d="M0 5.6C0 4.11479 0.589998 2.69041 1.6402 1.6402C2.69041 0.589998 4.11479 0 5.6 0H22.4C23.8852 0 25.3096 0.589998 26.3598 1.6402C27.41 2.69041 28 4.11479 28 5.6V22.4C28 23.8852 27.41 25.3096 26.3598 26.3598C25.3096 27.41 23.8852 28 22.4 28H5.6C4.11479 28 2.69041 27.41 1.6402 26.3598C0.589998 25.3096 0 23.8852 0 22.4V5.6ZM5.6 2.8C4.85739 2.8 4.1452 3.095 3.6201 3.6201C3.095 4.1452 2.8 4.85739 2.8 5.6V22.4C2.8 23.1426 3.095 23.8548 3.6201 24.3799C4.1452 24.905 4.85739 25.2 5.6 25.2H22.4C23.1426 25.2 23.8548 24.905 24.3799 24.3799C24.905 23.8548 25.2 23.1426 25.2 22.4V5.6C25.2 4.85739 24.905 4.1452 24.3799 3.6201C23.8548 3.095 23.1426 2.8 22.4 2.8H5.6ZM14 9.8C12.8861 9.8 11.8178 10.2425 11.0302 11.0302C10.2425 11.8178 9.8 12.8861 9.8 14C9.8 15.1139 10.2425 16.1822 11.0302 16.9698C11.8178 17.7575 12.8861 18.2 14 18.2C15.1139 18.2 16.1822 17.7575 16.9698 16.9698C17.7575 16.1822 18.2 15.1139 18.2 14C18.2 12.8861 17.7575 11.8178 16.9698 11.0302C16.1822 10.2425 15.1139 9.8 14 9.8ZM7 14C7 12.1435 7.7375 10.363 9.05025 9.05025C10.363 7.7375 12.1435 7 14 7C15.8565 7 17.637 7.7375 18.9497 9.05025C20.2625 10.363 21 12.1435 21 14C21 15.8565 20.2625 17.637 18.9497 18.9497C17.637 20.2625 15.8565 21 14 21C12.1435 21 10.363 20.2625 9.05025 18.9497C7.7375 17.637 7 15.8565 7 14V14ZM21.7 8.4C22.257 8.4 22.7911 8.17875 23.1849 7.78492C23.5787 7.3911 23.8 6.85695 23.8 6.3C23.8 5.74305 23.5787 5.2089 23.1849 4.81508C22.7911 4.42125 22.257 4.2 21.7 4.2C21.143 4.2 20.6089 4.42125 20.2151 4.81508C19.8213 5.2089 19.6 5.74305 19.6 6.3C19.6 6.85695 19.8213 7.3911 20.2151 7.78492C20.6089 8.17875 21.143 8.4 21.7 8.4Z" fill="white"/>
</svg>
