<svg width="29" height="28" viewBox="0 0 29 28" fill="none" xmlns="http://www.w3.org/2000/svg">
<path d="M11.35 14C11.35 15.48 12.5528 16.6797 14.0366 16.6797C15.5204 16.6797 16.7231 15.48 16.7231 14C16.7231 12.52 15.5204 11.3203 14.0366 11.3203C12.5528 11.3203 11.35 12.52 11.35 14Z" fill="white"/>
<path d="M7.75441 9.25851C7.88355 8.90945 8.08959 8.59351 8.3573 8.33417C8.61731 8.06714 8.93385 7.86163 9.28403 7.73282C9.56802 7.6228 9.99465 7.49185 10.7804 7.45618C11.6305 7.41751 11.8854 7.40918 14.0374 7.40918C16.1896 7.40918 16.4445 7.4173 17.2943 7.45596C18.0801 7.49185 18.5069 7.6228 18.7907 7.73282C19.1409 7.86163 19.4576 8.06714 19.7174 8.33417C19.9852 8.59351 20.1912 8.90924 20.3205 9.25851C20.4308 9.54178 20.5621 9.96753 20.5979 10.7513C20.6367 11.599 20.645 11.8532 20.645 13.9999C20.645 16.1464 20.6367 16.4006 20.5979 17.2484C20.5621 18.0322 20.4308 18.4578 20.3205 18.741C20.1912 19.0903 19.9854 19.406 19.7177 19.6654C19.4576 19.9324 19.1411 20.1379 18.7909 20.2667C18.5069 20.3769 18.0801 20.5079 17.2943 20.5436C16.4445 20.5822 16.1898 20.5904 14.0376 20.5904C11.8852 20.5904 11.6303 20.5822 10.7807 20.5436C9.99486 20.5079 9.56802 20.3769 9.28403 20.2667C8.58111 19.9963 8.02555 19.4421 7.75441 18.741C7.64411 18.4578 7.51282 18.0322 7.47684 17.2484C7.43807 16.4006 7.42993 16.1464 7.42993 13.9999C7.42993 11.8532 7.43807 11.599 7.47684 10.7513C7.51261 9.96753 7.64389 9.54178 7.75441 9.25851V9.25851ZM14.0374 18.1277C16.3232 18.1277 18.1763 16.2797 18.1763 13.9997C18.1763 11.7197 16.3232 9.87161 14.0374 9.87161C11.7517 9.87161 9.8987 11.7197 9.8987 13.9997C9.8987 16.2797 11.7517 18.1277 14.0374 18.1277ZM9.73507 10.6731C10.2692 10.6731 10.7023 10.2412 10.7023 9.7084C10.7023 9.17563 10.2692 8.74368 9.73507 8.74368C9.20093 8.74368 8.76787 9.17563 8.76787 9.7084C8.76808 10.2412 9.20093 10.6731 9.73507 10.6731Z" fill="white"/>
<path d="M14.0363 0C21.7869 0 28.0723 6.2692 28.0723 14C28.0723 21.7308 21.7869 28 14.0363 28C6.28556 28 0.000241541 21.7308 0.000241541 14C0.000241541 6.2692 6.28556 0 14.0363 0ZM6.02513 17.3144C6.06411 18.1701 6.20054 18.7544 6.39972 19.2658C6.81843 20.3457 7.67426 21.1993 8.7569 21.6169C9.26941 21.8156 9.85539 21.9515 10.7132 21.9906C11.5726 22.0297 11.8472 22.0391 14.036 22.0391C16.2251 22.0391 16.4995 22.0297 17.3591 21.9906C18.2169 21.9515 18.8029 21.8156 19.3154 21.6169C19.8534 21.4151 20.3404 21.0987 20.7431 20.6896C21.153 20.2882 21.4702 19.8022 21.6726 19.2658C21.8718 18.7546 22.0082 18.1701 22.0472 17.3146C22.0868 16.4571 22.096 16.1832 22.096 14C22.096 11.8168 22.0868 11.5429 22.0474 10.6856C22.0084 9.82987 21.8722 9.24561 21.673 8.73419C21.4706 8.19778 21.1532 7.71179 20.7431 7.31039C20.3406 6.90131 19.8534 6.58493 19.3156 6.38306C18.8029 6.18439 18.2171 6.04852 17.3591 6.00943C16.4997 5.97034 16.2251 5.96094 14.0363 5.96094C11.8474 5.96094 11.5728 5.97034 10.7134 6.00964C9.85539 6.04852 9.26963 6.18439 8.7569 6.38284C8.21911 6.58472 7.73187 6.90131 7.32923 7.31039C6.9193 7.71201 6.6019 8.19778 6.39972 8.73419C6.20032 9.24561 6.06411 9.82987 6.02492 10.6856C5.98572 11.5429 5.97651 11.8168 5.97651 14C5.97651 16.1832 5.98572 16.4571 6.02513 17.3144V17.3144Z" fill="white"/>
</svg>
