<svg width="99" height="42" viewBox="0 0 99 42" fill="none" xmlns="http://www.w3.org/2000/svg">
<path fill-rule="evenodd" clip-rule="evenodd" d="M11.5 39C16.1944 39 20 35.1944 20 30.5C20 25.8056 16.1944 22 11.5 22C6.80558 22 3 25.8056 3 30.5C3 35.1944 6.80558 39 11.5 39ZM11.5 42C17.8513 42 23 36.8513 23 30.5C23 24.1487 17.8513 19 11.5 19C5.14873 19 0 24.1487 0 30.5C0 36.8513 5.14873 42 11.5 42Z" fill="#977541"/>
<path fill-rule="evenodd" clip-rule="evenodd" d="M33.1526 0.5H34.4376V1.5H33.673L33.2718 2.07261L32.4528 1.49882L33.1526 0.5ZM38.5368 1.5H36.4872V0.5H38.5368V1.5ZM42.636 1.5H40.5864V0.5H42.636V1.5ZM46.7352 1.5H44.6856V0.5H46.7352V1.5ZM50.8344 1.5H48.7848V0.5H50.8344V1.5ZM54.9335 1.5H52.8839V0.5H54.9335V1.5ZM59.0327 1.5H56.9831V0.5H59.0327V1.5ZM63.1319 1.5H61.0823V0.5H63.1319V1.5ZM67.2311 1.5H65.1815V0.5H67.2311V1.5ZM71.3303 1.5H69.2807V0.5H71.3303V1.5ZM75.4295 1.5H73.3799V0.5H75.4295V1.5ZM79.5287 1.5H77.4791V0.5H79.5287V1.5ZM83.6279 1.5H81.5783V0.5H83.6279V1.5ZM87.7271 1.5H85.6775V0.5H87.7271V1.5ZM91.8262 1.5H89.7766V0.5H91.8262V1.5ZM95.9254 1.5H93.8758V0.5H95.9254V1.5ZM98.9998 1.5H97.975V0.5H98.9998V1.5ZM32.1709 3.64404L31.07 5.21547L30.251 4.64168L31.3519 3.07025L32.1709 3.64404ZM29.9691 6.78689L28.8681 8.35832L28.0491 7.78454L29.15 6.21311L29.9691 6.78689ZM27.7672 9.92975L26.6663 11.5012L25.8473 10.9274L26.9482 9.35596L27.7672 9.92975ZM25.5654 13.0726L24.4644 14.644L23.6454 14.0702L24.7463 12.4988L25.5654 13.0726ZM23.3635 16.2155L22.2626 17.7869L21.4436 17.2131L22.5445 15.6417L23.3635 16.2155ZM21.1617 19.3583L20.0607 20.9298L19.2417 20.356L20.3426 18.7845L21.1617 19.3583ZM18.9598 22.5012L18.4093 23.2869L17.5903 22.7131L18.1408 21.9274L18.9598 22.5012Z" fill="#7B6744"/>
</svg>
