<svg width="34" height="28" viewBox="0 0 34 28" fill="none" xmlns="http://www.w3.org/2000/svg">
<path fill-rule="evenodd" clip-rule="evenodd" d="M21.3072 3.19985C20.5763 3.19954 19.8545 3.36151 19.1939 3.67406C18.5332 3.9866 17.9502 4.44193 17.4869 5.00717C17.0236 5.57241 16.6916 6.23347 16.5148 6.94262C16.338 7.65177 16.3209 8.39133 16.4646 9.10791C16.5141 9.3562 16.504 9.61268 16.435 9.85629C16.3661 10.0999 16.2403 10.3237 16.0681 10.5092C15.8958 10.6947 15.682 10.8367 15.4442 10.9235C15.2063 11.0103 14.9513 11.0394 14.7 11.0085C11.26 10.5859 8.01722 9.17183 5.36679 6.93858C5.41639 7.90166 5.75075 8.92553 6.47546 9.9974L7.56172 11.6036L5.77794 12.3635L5.43399 12.5107C5.68995 12.8034 5.99711 13.1026 6.34107 13.3986C6.80088 13.7921 7.28731 14.1535 7.79689 14.48L7.81449 14.4912H7.81609L10.2926 15.9935L7.7009 17.2893C7.57292 17.3533 7.44493 17.4109 7.31695 17.4621C7.87422 17.9251 8.48814 18.3154 9.14392 18.6235L11.3676 19.6746L9.50548 21.2808C8.4896 22.1575 7.46733 22.8118 6.1411 23.1574C8.17514 24.2408 10.4453 24.8052 12.7499 24.8004C20.4385 24.8004 26.6297 18.6651 26.6297 11.1477V10.3158L27.3097 9.83742C28.3719 9.09191 29.1222 8.08404 29.6598 6.93058H26.2042L25.769 6.0187C25.3684 5.17507 24.7366 4.46241 23.9471 3.96345C23.1576 3.46449 22.2428 3.19971 21.3088 3.19985H21.3072ZM3.26146 14.8784C3.11049 15.0513 2.9985 15.2546 2.93307 15.4746C2.86765 15.6946 2.85034 15.9261 2.8823 16.1534C3.06308 17.4349 3.82939 18.5387 4.67728 19.3818C4.90765 19.6106 5.15402 19.8298 5.41319 20.0393L5.2932 20.0713C4.5237 20.2633 3.48543 20.3033 1.75604 20.1353C1.42946 20.1033 1.10092 20.1724 0.814969 20.3334C0.529018 20.4944 0.29949 20.7394 0.157505 21.0353C0.0155199 21.3311 -0.0320528 21.6635 0.0212366 21.9873C0.0745261 22.3111 0.2261 22.6107 0.455407 22.8454C2.05644 24.4819 3.96904 25.7811 6.08034 26.6664C8.19164 27.5517 10.4589 28.0051 12.7483 28C21.8879 28 29.3846 20.9032 29.8085 11.9476C31.8723 10.215 32.9042 7.86807 33.4609 5.73553C33.5228 5.49884 33.5296 5.25111 33.4807 5.01139C33.4319 4.77166 33.3287 4.54634 33.1791 4.35273C33.0296 4.15913 32.8376 4.00241 32.618 3.89462C32.3983 3.78683 32.1569 3.73085 31.9123 3.73098H28.148C27.2272 2.30128 25.8816 1.196 24.3003 0.570469C22.7189 -0.0550646 20.9814 -0.169414 19.3317 0.243487C17.682 0.656389 16.2032 1.57579 15.103 2.87249C14.0028 4.1692 13.3365 5.77803 13.1978 7.47292C10.2488 6.70525 7.61025 5.04251 5.64516 2.71351C5.47113 2.50775 5.24794 2.34928 4.99631 2.25281C4.74468 2.15635 4.47275 2.12502 4.20577 2.16172C3.9388 2.19842 3.68542 2.30198 3.46915 2.46276C3.25288 2.62355 3.08074 2.83637 2.96869 3.08146C1.99921 5.1964 1.81364 7.63449 2.8951 10.1142L2.52075 10.2742C2.16251 10.4268 1.87225 10.7049 1.70438 11.0562C1.5365 11.4076 1.50254 11.8081 1.60886 12.1827C1.90643 13.2258 2.57514 14.1473 3.25986 14.8784H3.26146Z" fill="white"/>
</svg>
