<svg width="132" height="134" viewBox="0 0 132 134" fill="none" xmlns="http://www.w3.org/2000/svg">
<g filter="url(#filter0_f_1220:7641)">
<rect x="10.6541" y="29.3474" width="109.692" height="92.7246" rx="46.3623" stroke="url(#paint0_linear_1220:7641)" stroke-width="5.30814"/>
</g>
<g filter="url(#filter1_d_1220:7641)">
<circle cx="66.0369" cy="75.8328" r="49.4393" fill="url(#paint1_linear_1220:7641)"/>
</g>
<path d="M89.2568 74.9669C89.9235 75.3518 89.9235 76.314 89.2568 76.6989L55.1774 96.3747C54.5107 96.7596 53.6774 96.2785 53.6774 95.5087L53.6774 56.1571C53.6774 55.3873 54.5107 54.9062 55.1774 55.2911L89.2568 74.9669Z" fill="#12100B" fill-opacity="0.71"/>
<path d="M50.8828 7.96375H50.8789H50.875C50.8789 7.96375 50.8789 7.96375 50.8789 7.95996C50.8789 7.96755 50.8828 7.96755 50.8828 7.96375Z" fill="#F39322"/>
<path d="M54.1925 5.68359L54.1848 5.69118C54.1809 5.69498 54.1809 5.69877 54.177 5.70256C54.1576 5.74809 54.1382 5.79741 54.1188 5.84293C54.0994 5.88846 54.0839 5.93778 54.0645 5.9833C54.0877 5.93398 54.1071 5.88466 54.1265 5.83535C54.1537 5.78223 54.1731 5.73291 54.1925 5.68359Z" fill="#F39322"/>
<path d="M64.2521 1.70368C64.1862 1.61642 64.1202 1.52917 64.0503 1.44191C63.9805 1.35844 63.9106 1.27498 63.833 1.19531C63.9029 1.27878 63.9727 1.36603 64.0387 1.4495C64.1124 1.53675 64.1823 1.62022 64.2521 1.70368Z" fill="#F39322"/>
<path d="M49.3496 8.91984C49.3535 8.91984 49.3535 8.91984 49.3535 8.91984H49.3613C49.3574 8.91984 49.3574 8.91984 49.3535 8.91984C49.3535 8.91604 49.3496 8.91604 49.3496 8.91984C49.3496 8.91604 49.3496 8.91604 49.3496 8.91984Z" fill="#F39322"/>
<path d="M42.4142 5.87676C42.3832 5.82744 42.3521 5.78192 42.3211 5.7326C42.29 5.68328 42.2629 5.63396 42.2318 5.58464C42.1814 5.49739 42.1348 5.41392 42.0921 5.32287C42.0494 5.23561 42.0067 5.14456 41.9679 5.05351C41.9175 4.97384 41.867 4.89038 41.8205 4.80692C41.7778 4.72345 41.7351 4.63999 41.6924 4.55273C41.7622 4.72345 41.8399 4.89417 41.9252 5.05731C42.0106 5.22423 42.0999 5.38737 42.193 5.5467C42.2512 5.64534 42.3133 5.74019 42.3754 5.83503C42.4375 5.92988 42.5035 6.02472 42.5695 6.11577C42.5889 6.14233 42.6121 6.16509 42.6315 6.19165C42.651 6.2182 42.6742 6.24097 42.6936 6.26752C42.6432 6.20303 42.5966 6.13853 42.5501 6.07404C42.5035 6.00955 42.4569 5.94505 42.4142 5.87676Z" fill="#F39322"/>
<path d="M56.8594 2.68292C56.8671 2.67913 56.8749 2.67533 56.8827 2.67154C56.8904 2.66774 56.8982 2.66395 56.9059 2.66016C56.8982 2.66395 56.8904 2.66395 56.8827 2.66774C56.8749 2.67154 56.8671 2.67154 56.8594 2.67533C56.8594 2.67913 56.8594 2.67913 56.8594 2.68292Z" fill="#F39322"/>
<path d="M55.8496 3.33526C55.8535 3.33147 55.8574 3.32768 55.8651 3.32388C55.869 3.32009 55.8729 3.31629 55.8807 3.3125C55.8768 3.31629 55.8729 3.32009 55.8651 3.32388C55.8613 3.32768 55.8574 3.33147 55.8496 3.33526C55.8496 3.33147 55.8496 3.33147 55.8496 3.33526Z" fill="#F39322"/>
<path d="M60.457 7.57997L60.4531 7.58376C60.4492 7.58755 60.4492 7.58755 60.4492 7.58755C60.4647 7.57997 60.4725 7.57617 60.4725 7.57617C60.4725 7.57617 60.4686 7.57617 60.457 7.57997Z" fill="#F39322"/>
<path d="M66.1268 3.96062C65.8978 3.6685 65.6145 3.4257 65.3312 3.1829C65.0479 2.9401 64.7607 2.70109 64.5201 2.41655C64.4231 2.29895 64.3261 2.18134 64.2368 2.05994C64.1437 1.93854 64.0505 1.81334 63.9574 1.69194C63.8992 1.62365 63.841 1.55916 63.7866 1.49087C63.7284 1.42258 63.6741 1.3543 63.6159 1.28601C63.5887 1.25186 63.5615 1.21772 63.5305 1.18358C63.5033 1.14943 63.4723 1.11529 63.4451 1.08494C63.3908 1.02803 63.3326 0.974918 63.2744 0.921805C63.2161 0.868692 63.154 0.819373 63.0881 0.770054C62.8358 0.580365 62.5215 0.42482 62.1994 0.356532C61.8734 0.288244 61.5396 0.307213 61.2447 0.470345C61.0933 0.591746 60.9575 0.743498 60.8294 0.910424C60.7013 1.07735 60.581 1.25186 60.4491 1.41879C60.3986 1.50605 60.3443 1.58951 60.29 1.67297C60.2356 1.75644 60.1736 1.83231 60.1076 1.90819C60.0377 1.98786 59.9601 2.05615 59.8786 2.11305C59.7971 2.16996 59.7117 2.21928 59.6264 2.25722C59.6186 2.2648 59.6108 2.27618 59.5992 2.27998C59.5875 2.28757 59.5759 2.29136 59.5565 2.29515C59.5487 2.29515 59.541 2.29895 59.5332 2.29895C59.5255 2.29895 59.5177 2.29895 59.5099 2.30274C59.4517 2.3255 59.3896 2.34447 59.3236 2.35965C59.2577 2.37482 59.1956 2.39 59.1257 2.40138C58.9899 2.42414 58.8502 2.43932 58.7066 2.4469C58.5669 2.45449 58.4233 2.45829 58.2797 2.46208C58.2215 2.46208 58.1672 2.46587 58.1089 2.46967C58.0507 2.47346 57.9964 2.47726 57.9382 2.48105C57.88 2.48484 57.8256 2.49243 57.7674 2.49622C57.7092 2.50381 57.6549 2.50761 57.6006 2.51899C57.4686 2.55692 57.3367 2.60624 57.2086 2.65936C57.0805 2.71626 56.9563 2.77696 56.836 2.84905C56.8244 2.85663 56.8089 2.86422 56.7972 2.87181C56.7856 2.8794 56.7701 2.88698 56.7584 2.89457C56.5605 3.01597 56.3781 3.15255 56.2034 3.30051C56.0288 3.45226 55.8658 3.6116 55.7145 3.78232C55.7106 3.78611 55.7067 3.7937 55.7028 3.79749C55.6989 3.80128 55.6951 3.80887 55.6912 3.81267C55.5747 3.94165 55.47 4.07823 55.3652 4.21481C55.2604 4.35138 55.1634 4.49175 55.0664 4.63592C55.0004 4.73455 54.9344 4.83699 54.8684 4.93942C54.8025 5.04185 54.7404 5.14428 54.6783 5.24671C54.5269 5.49331 54.3756 5.7437 54.2203 5.9903C54.0651 6.23689 53.9021 6.47969 53.7275 6.71111C53.5955 6.88563 53.4558 7.05635 53.3045 7.21948C53.157 7.38261 52.9979 7.53816 52.8349 7.68991C52.7728 7.74682 52.7107 7.79993 52.6486 7.85304C52.5865 7.90616 52.5205 7.95927 52.4584 8.01238C51.8258 8.52075 51.104 8.92668 50.3395 9.20742C49.575 9.48816 48.76 9.63991 47.9411 9.63991C47.7859 9.63991 47.6268 9.63233 47.4715 9.62094C47.3163 9.60956 47.1611 9.59059 47.0058 9.56783C46.8196 9.53748 46.6372 9.49954 46.4548 9.45402C46.2724 9.40849 46.0938 9.35158 45.9192 9.2833C45.8649 9.26053 45.8105 9.24156 45.7562 9.2188C45.7019 9.19604 45.6475 9.17328 45.5932 9.15051C45.3254 9.03291 45.0693 8.89633 44.8132 8.75217C44.5609 8.608 44.3086 8.45625 44.0641 8.3045C44.0564 8.30071 44.0486 8.29691 44.0409 8.29312C44.0331 8.28933 44.0253 8.28553 44.0176 8.28553C44.0215 8.28933 44.0253 8.28933 44.0292 8.29312C44.0331 8.29691 44.037 8.30071 44.0409 8.3045C44.1534 8.4259 44.2698 8.53972 44.3901 8.65353C44.5104 8.76734 44.6346 8.87357 44.7627 8.976C44.8248 9.02532 44.8869 9.07843 44.9529 9.12396C45.0188 9.17328 45.0809 9.2226 45.1469 9.26812C45.1857 9.29468 45.2206 9.32123 45.2595 9.34779C45.2983 9.37435 45.3332 9.4009 45.372 9.42367C45.6475 9.60577 45.9386 9.77269 46.2374 9.91686C46.5362 10.061 46.8467 10.19 47.1611 10.2924C47.1727 10.2886 47.1882 10.2849 47.2038 10.2811C47.2193 10.2811 47.2348 10.2811 47.2503 10.2811C47.3862 10.3038 47.522 10.3228 47.6617 10.338C47.7975 10.3531 47.9372 10.3607 48.0769 10.3645C48.0847 10.3645 48.0886 10.3645 48.0964 10.3645C48.1041 10.3645 48.108 10.3645 48.1158 10.3645C48.2632 10.3683 48.4068 10.3683 48.5504 10.3607C48.694 10.3531 48.8376 10.3418 48.9812 10.3266C49.0549 10.319 49.1287 10.3076 49.2024 10.2962C49.2761 10.2849 49.3499 10.2735 49.4197 10.2583C49.738 10.1976 50.0523 10.1179 50.3589 10.0117C50.6655 9.90548 50.9604 9.78028 51.2515 9.63612C51.3524 9.5868 51.4494 9.53369 51.5464 9.48057C51.6434 9.42746 51.7366 9.37055 51.8336 9.30985C52.179 9.09361 52.505 8.85081 52.8155 8.58524C53.1221 8.31968 53.4092 8.02756 53.6731 7.72026C53.7003 7.68991 53.7275 7.65577 53.7507 7.62541C53.7779 7.59506 53.8012 7.56092 53.8284 7.52678C54.0146 7.29156 54.1854 7.04497 54.3562 6.79837C54.5269 6.55177 54.6977 6.30518 54.884 6.06996C55.0043 5.91821 55.1246 5.77405 55.2604 5.63368C55.3923 5.4971 55.5359 5.36432 55.6912 5.24671C55.7455 5.20498 55.796 5.16705 55.8542 5.12911C55.9085 5.09117 55.9667 5.05703 56.021 5.02288C56.1724 4.93183 56.3276 4.85596 56.4906 4.79905C56.6536 4.73835 56.8244 4.69662 57.0029 4.67765C57.1543 4.65868 57.3017 4.65868 57.4531 4.66627C57.6044 4.67385 57.7519 4.68524 57.9033 4.69282C58.0468 4.70041 58.1904 4.708 58.3379 4.7042C58.4815 4.70041 58.6251 4.68144 58.7687 4.6435C58.7726 4.6435 58.7764 4.63971 58.7803 4.63971C58.7842 4.63971 58.7881 4.63592 58.792 4.63592C58.9123 4.60177 59.0287 4.56383 59.1412 4.51451C59.2538 4.46899 59.3625 4.41208 59.4711 4.35518C59.5099 4.33241 59.5526 4.30965 59.5914 4.29068C59.6302 4.26792 59.669 4.24516 59.7117 4.22239C59.7932 4.17307 59.8747 4.12376 59.9562 4.07064C60.0377 4.01753 60.1192 3.96821 60.1968 3.9151C60.4258 3.76714 60.6548 3.62298 60.8954 3.50158C61.136 3.38017 61.3883 3.28154 61.6599 3.22842C61.691 3.22084 61.722 3.21704 61.7531 3.21325C61.7841 3.20945 61.8152 3.20566 61.8462 3.20187C62.1877 3.16772 62.537 3.22463 62.8319 3.365C63.1269 3.50537 63.3675 3.733 63.4956 4.04029C63.5188 4.09341 63.5383 4.15031 63.5499 4.21101C63.5654 4.27171 63.5771 4.33241 63.5809 4.39691C63.5965 4.53728 63.5926 4.67385 63.5809 4.81422C63.5732 4.95459 63.5577 5.09117 63.5538 5.23154C63.5538 5.24292 63.5538 5.2543 63.5538 5.26948C63.5538 5.28086 63.5538 5.29224 63.5538 5.30742C63.5538 5.4402 63.5693 5.56919 63.5926 5.69817C63.6159 5.82716 63.6469 5.95236 63.6818 6.08135C63.7478 6.33174 63.7944 6.58213 63.8138 6.83631C63.8332 7.09049 63.8332 7.34468 63.7983 7.59886C63.7827 7.70888 63.7672 7.8189 63.7439 7.92892C63.7207 8.03894 63.6935 8.14516 63.6663 8.25139C63.5848 8.54351 63.4684 8.82425 63.3326 9.09361C63.1967 9.36297 63.0337 9.62094 62.8475 9.86754C62.7931 9.93962 62.7388 10.0079 62.6806 10.08C62.6224 10.1483 62.5642 10.2166 62.5021 10.2849L62.4982 10.2886L62.4943 10.2924C62.3468 10.4518 62.1916 10.6035 62.0325 10.7477C61.8695 10.8919 61.7026 11.0284 61.528 11.1574C61.493 11.184 61.462 11.2067 61.4271 11.2295C61.3921 11.2523 61.3611 11.2788 61.3262 11.3016C61.1205 11.4458 60.907 11.5823 60.6897 11.7113C60.4724 11.8403 60.2473 11.9579 60.0261 12.0717C59.964 12.1021 59.9058 12.1324 59.8437 12.159C59.7816 12.1893 59.7195 12.2159 59.6574 12.2424C59.7777 12.2121 59.9019 12.178 60.0222 12.1438C60.1425 12.1097 60.2628 12.0755 60.3831 12.0414C60.4646 12.0186 60.5422 11.9921 60.6237 11.9693C60.7052 11.9465 60.7828 11.92 60.8643 11.8934C61.1671 11.7986 61.4736 11.6961 61.7725 11.5823C62.0713 11.4723 62.3662 11.3509 62.6573 11.2219C62.6651 11.2181 62.6767 11.2143 62.6845 11.2105C62.6922 11.2067 62.7039 11.2029 62.7116 11.1992C62.7582 11.1764 62.8087 11.1536 62.8552 11.1309C62.9018 11.1081 62.9484 11.0853 62.9949 11.0588C63.1657 10.9715 63.3287 10.8767 63.4839 10.7743C63.643 10.6718 63.7944 10.5656 63.9419 10.448C64.0583 10.3569 64.1708 10.2621 64.2795 10.1635C64.3882 10.0648 64.4929 9.96238 64.5977 9.85236C64.8151 9.62474 65.0246 9.38573 65.2264 9.13913C65.4243 8.89254 65.6145 8.63456 65.7853 8.37279C65.8241 8.31588 65.8629 8.25518 65.8978 8.19448C65.9366 8.13378 65.9715 8.07687 66.0065 8.01617C66.0569 7.93271 66.1035 7.84925 66.1462 7.76578C66.1928 7.67853 66.2354 7.59127 66.2743 7.50401C66.5343 6.93874 66.705 6.31277 66.705 5.69817C66.6973 5.07979 66.5343 4.47658 66.1268 3.96062Z" fill="#FF9E18"/>
<path d="M61.2752 9.2722C61.2829 9.25703 61.2907 9.24564 61.2985 9.23047C61.2907 9.24564 61.2791 9.25703 61.2713 9.2722C61.2635 9.28738 61.2519 9.29876 61.2441 9.31393H61.248H61.2519C61.2597 9.30255 61.2674 9.28738 61.2752 9.2722Z" fill="#F39322"/>
<path d="M47.1447 9.49272C47.102 9.48892 47.0593 9.48513 47.0166 9.47754V9.48133V9.48513C47.1059 9.49272 47.199 9.49651 47.2921 9.49651C47.3853 9.49651 47.4745 9.49651 47.5677 9.49272C47.5211 9.49272 47.4707 9.49651 47.4241 9.49651C47.3775 9.49651 47.3271 9.49651 47.2805 9.49651C47.2339 9.49651 47.1874 9.49272 47.1447 9.49272Z" fill="#F39322"/>
<path d="M45.9649 7.10201C46.322 7.33723 46.71 7.53071 47.1098 7.67487C47.5134 7.81904 47.9325 7.92147 48.3594 7.96699C48.0334 7.89491 47.7152 7.79248 47.4086 7.66349C47.102 7.5345 46.8032 7.37896 46.5199 7.20444C46.3026 7.06787 46.093 6.91991 45.8989 6.75678C45.701 6.59744 45.5147 6.42672 45.3401 6.24462C45.1344 6.05493 44.9443 5.85007 44.7657 5.63382C44.5872 5.41757 44.4242 5.18995 44.2729 4.95473C44.2263 4.88265 44.1836 4.81057 44.137 4.73469C44.0943 4.66261 44.0517 4.58674 44.009 4.51086C43.9081 4.33255 43.811 4.14666 43.7257 3.96076C43.6403 3.77487 43.5627 3.58138 43.4967 3.3879C43.4579 3.27029 43.4191 3.14889 43.388 3.03129C43.3609 2.90988 43.3298 2.78848 43.3065 2.66708C43.2832 2.56465 43.2677 2.45842 43.2561 2.3522C43.2406 2.24977 43.2289 2.14354 43.2173 2.03732C43.2095 1.96903 43.2056 1.90453 43.1979 1.83624C43.1901 1.76796 43.1823 1.69967 43.1785 1.63517C43.1785 1.63138 43.1785 1.63138 43.1785 1.62759C43.1785 1.62379 43.1785 1.62379 43.1785 1.62C43.1707 1.54412 43.1591 1.47204 43.1474 1.39617C43.1319 1.32408 43.1164 1.24821 43.1008 1.17613C43.0737 1.06611 43.0388 0.959881 42.9922 0.861243C42.9456 0.762605 42.8913 0.671554 42.8253 0.588091C42.8214 0.588091 42.8137 0.584297 42.8098 0.580503C42.8059 0.580503 42.802 0.576709 42.7981 0.572916C42.6584 0.455308 42.4954 0.383227 42.3208 0.352876C42.1462 0.322526 41.9676 0.333908 41.7969 0.379433C41.7736 0.38702 41.7503 0.394608 41.7309 0.402196C41.7076 0.409783 41.6882 0.417371 41.6649 0.424958C41.6611 0.424958 41.6611 0.424958 41.6572 0.428752C41.6533 0.428752 41.6533 0.428752 41.6494 0.432546C41.6494 0.43634 41.6494 0.43634 41.6494 0.440133C41.6494 0.443927 41.6494 0.443927 41.6494 0.447721C41.6494 0.455308 41.6455 0.459102 41.6416 0.46669C41.6416 0.470484 41.6378 0.474277 41.6339 0.481865C41.63 0.485659 41.6261 0.489453 41.6261 0.493246C41.6222 0.49704 41.6222 0.504628 41.6184 0.508421C41.436 0.823305 41.3195 1.16095 41.2536 1.50998C41.1876 1.85901 41.1759 2.21942 41.2031 2.57224C41.2031 2.48498 41.2109 2.39772 41.2186 2.30667C41.2303 2.21942 41.2419 2.13595 41.2613 2.0487C41.2807 1.95765 41.3079 1.86659 41.3467 1.77554C41.3816 1.68449 41.4243 1.59344 41.4787 1.50998C41.5291 1.43031 41.5834 1.35823 41.6494 1.28994C41.7154 1.22545 41.7852 1.16854 41.8667 1.12301C41.8745 1.11543 41.89 1.10784 41.9055 1.10025C41.9172 1.09646 41.9327 1.08887 41.9482 1.08128C41.9715 1.07369 41.9948 1.06231 42.0181 1.05473C42.0414 1.04714 42.0647 1.03955 42.0918 1.03576C42.1578 1.02058 42.2277 1.01679 42.2936 1.02058C42.3596 1.02438 42.4217 1.04334 42.4838 1.0699C42.4954 1.07749 42.511 1.08128 42.5226 1.08887C42.5342 1.09646 42.5498 1.10405 42.5614 1.11163C42.5769 1.12681 42.5963 1.13819 42.6119 1.15336C42.6274 1.16854 42.6429 1.18371 42.6584 1.19889C42.7089 1.2558 42.7516 1.32408 42.7826 1.39237C42.8175 1.46445 42.8447 1.53654 42.868 1.61241C42.8835 1.65794 42.8952 1.69967 42.9068 1.74519C42.9184 1.78693 42.934 1.83245 42.9456 1.87418C42.965 1.93109 42.9805 1.988 42.9999 2.0449C43.0193 2.10181 43.0349 2.15872 43.0543 2.21562C43.1319 2.45463 43.2056 2.69364 43.2832 2.92885C43.3609 3.16407 43.4385 3.40308 43.5239 3.6345C43.5937 3.83177 43.6675 4.02905 43.749 4.22253C43.8304 4.41602 43.9158 4.6095 44.009 4.79539C44.2341 5.25444 44.5057 5.68693 44.8317 6.07769C45.1538 6.46845 45.5303 6.81748 45.9649 7.10201Z" fill="#FF9E18"/>
<path d="M56.3817 12.7734C56.3546 12.7772 56.3274 12.7848 56.3002 12.7886C56.2731 12.7924 56.2459 12.8 56.2188 12.8038C56.2498 12.8 56.2808 12.8 56.3119 12.7962C56.3429 12.7924 56.374 12.7924 56.405 12.7886C56.4012 12.7848 56.4012 12.7848 56.3973 12.781C56.3856 12.7772 56.3817 12.7772 56.3817 12.7734Z" fill="#F39322"/>
<path d="M46.3918 9.12778C46.353 9.1164 46.3142 9.10123 46.2793 9.08984C46.3181 9.10502 46.3569 9.12019 46.3996 9.13537C46.4384 9.15054 46.4811 9.16572 46.5199 9.1771L46.5238 9.17331L46.5277 9.16951C46.5238 9.16951 46.5199 9.16951 46.516 9.16572C46.5121 9.16572 46.5083 9.16572 46.5044 9.16193C46.4695 9.15054 46.4306 9.13916 46.3918 9.12778Z" fill="#F39322"/>
<path d="M52.458 8.01259C52.586 7.91016 52.7141 7.80014 52.8344 7.69012C53.1604 7.39041 53.4592 7.06415 53.7231 6.71132C54.0724 6.24469 54.3712 5.74012 54.6739 5.24692C54.802 5.04206 54.9301 4.8372 55.062 4.63613C55.2522 4.35159 55.4579 4.07465 55.6868 3.81288C55.6946 3.80149 55.7062 3.79391 55.714 3.78253C56.0167 3.44488 56.3699 3.13379 56.7618 2.89478C56.789 2.87961 56.8123 2.86443 56.8394 2.84926C57.08 2.70889 57.3362 2.59507 57.604 2.5192C57.3672 2.55334 57.1344 2.60266 56.9054 2.66715C56.8899 2.67474 56.8744 2.67854 56.8627 2.68612C56.8627 2.68233 56.8627 2.68233 56.8588 2.67854C56.657 2.73924 56.463 2.81132 56.2689 2.89478C56.0904 2.97445 55.9197 3.0655 55.7528 3.16414C55.5782 3.26657 55.4074 3.38418 55.2483 3.50558C55.1474 3.58145 55.0504 3.66492 54.9572 3.74838C54.8835 3.81288 54.8136 3.88116 54.7438 3.94945C54.7166 3.9798 54.6856 4.00636 54.6584 4.03671C54.6429 4.05568 54.6235 4.07465 54.6079 4.09362L54.6041 4.09741C54.5536 4.1619 54.5032 4.2226 54.4527 4.29089C54.4372 4.31745 54.4178 4.34401 54.4023 4.37056C54.3596 4.44264 54.3169 4.51852 54.2742 4.59439C54.0801 4.96998 53.9094 5.3835 53.7115 5.77426C53.6921 5.83875 53.6688 5.90325 53.6455 5.96774C53.6377 5.99051 53.63 6.01327 53.6222 6.03603C53.5601 6.13846 53.5019 6.2371 53.4359 6.33574C53.1643 6.76823 52.8654 7.18555 52.5006 7.55354C51.9224 8.14158 51.2316 8.6158 50.4787 8.95724C50.0557 9.09382 49.6249 9.20004 49.1903 9.27971C49.1553 9.2873 49.1165 9.2911 49.0816 9.29868C49.0195 9.29868 48.9535 9.29868 48.8876 9.29868C48.1036 9.41629 47.3003 9.37835 46.5203 9.15831C46.5164 9.16211 46.5125 9.1659 46.5125 9.16969C46.431 9.14314 46.3495 9.11279 46.2719 9.07864C45.1542 8.63098 44.1917 7.80773 43.3535 6.98068C43.1206 6.74926 42.8955 6.51025 42.686 6.25986C42.6433 6.21055 42.6006 6.16123 42.5618 6.10811C42.4298 5.92222 42.3056 5.73253 42.1892 5.53905C42.0029 5.22796 41.8322 4.8941 41.6925 4.55266C41.6304 4.40091 41.5722 4.24916 41.5217 4.09362C41.4286 3.81667 41.351 3.53214 41.2966 3.24002C41.2733 3.12241 41.2539 3.0048 41.2384 2.8834C41.2229 2.78097 41.2112 2.67854 41.2035 2.57231C41.1492 1.85908 41.2539 1.13447 41.6187 0.508493C41.6226 0.500905 41.6304 0.489524 41.6343 0.481936C41.642 0.470555 41.6459 0.459174 41.6498 0.443999C41.6498 0.440205 41.6537 0.436411 41.6537 0.432617C41.6071 0.451586 41.5644 0.470555 41.5256 0.497111C41.3859 0.576781 41.2695 0.679213 41.1686 0.79682C40.9706 1.02824 40.8426 1.32036 40.7805 1.61628C40.5981 2.5154 40.9163 3.4904 41.2889 4.30227C41.6537 5.09897 42.1155 5.8729 42.6006 6.6051C42.6161 6.62786 42.6278 6.64683 42.6433 6.66959C42.6549 6.68477 42.6627 6.69994 42.6743 6.71512C43.0585 7.2766 43.5204 7.78496 43.9938 8.27816C44.0016 8.28195 44.0093 8.28195 44.0132 8.28954C44.0287 8.29333 44.0443 8.30092 44.0598 8.30851C44.5565 8.61201 45.0572 8.91551 45.5888 9.15073C45.6975 9.20005 45.8062 9.24178 45.9148 9.28351C46.268 9.41629 46.6289 9.50734 47.0015 9.56804C47.3119 9.61736 47.6224 9.64012 47.9368 9.64012C49.5784 9.64012 51.1889 9.02553 52.458 8.01259ZM55.877 3.3121C55.8692 3.31968 55.8576 3.32727 55.8498 3.33486V3.33107C55.8576 3.32348 55.8692 3.31589 55.877 3.3121ZM54.0685 5.98292C54.1034 5.88807 54.1422 5.79702 54.1811 5.70218C54.1849 5.69459 54.1888 5.6908 54.1927 5.68321C54.1539 5.78185 54.1112 5.88428 54.0685 5.98292ZM47.5642 9.49596C47.3779 9.50355 47.1955 9.49975 47.0131 9.48837C47.0131 9.48458 47.017 9.48078 47.017 9.47699C47.1024 9.49217 47.1878 9.49596 47.277 9.49975C47.374 9.49975 47.4672 9.49596 47.5642 9.49596Z" fill="#CBA25B"/>
<path d="M58.4775 9.64408C58.4814 9.64029 58.4814 9.63649 58.4814 9.62891L58.4775 9.6327C58.4775 9.64029 58.4775 9.64408 58.4775 9.64408Z" fill="#E1251B"/>
<path d="M61.2443 6.68151C61.0463 6.28316 60.6621 6.0176 60.177 6.00622C60.0063 6.00242 59.8433 6.02898 59.6803 6.0783C59.5444 6.12003 59.4125 6.17694 59.2883 6.24522C59.0787 6.30972 58.8808 6.40077 58.679 6.507C58.225 6.7498 57.767 6.87499 57.2547 6.92431C57.1383 6.93569 57.0219 6.94328 56.9055 6.95087C56.6649 6.89396 56.4281 6.84085 56.1836 6.8067C56.1797 6.8067 56.1797 6.8067 56.1759 6.8067C55.6287 6.73462 55.128 6.84844 54.674 7.09883C54.5343 7.1747 54.4023 7.26575 54.2704 7.36439C54.1384 7.46682 54.0142 7.57684 53.8978 7.69445C53.4476 8.13453 53.0828 8.65428 52.6326 9.09435C52.5706 9.15505 52.5046 9.21576 52.4347 9.27646C51.5848 9.88726 50.6146 10.3273 49.5901 10.5322C49.2097 10.6081 48.8217 10.6536 48.4297 10.665C48.6082 10.7029 48.7828 10.7371 48.9614 10.7674C49.3184 10.8243 49.6677 10.8357 50.017 10.8091C50.6146 10.7636 51.1967 10.6081 51.7672 10.3994C51.8332 10.3729 51.903 10.3501 51.969 10.3235C51.9923 10.3122 52.0156 10.3046 52.0428 10.2932C52.5511 10.0883 53.0479 9.84552 53.5291 9.60272C53.7038 9.51546 53.8823 9.42821 54.0647 9.34854C54.4993 9.15506 54.9534 8.99572 55.4307 8.95019C55.4618 8.9464 55.4967 8.9426 55.5278 8.9426C55.5666 8.93881 55.6054 8.93881 55.6481 8.93881C55.9624 8.93122 56.2806 8.97675 56.5717 9.07918C56.7231 9.03745 56.8667 8.96916 57.0102 8.90087C57.1189 8.84776 57.2237 8.79465 57.3246 8.74533C57.6389 8.60116 57.9688 8.49873 58.3181 8.56702C58.582 8.62013 58.8187 8.77568 58.9274 9.02227C58.9701 9.12091 58.9895 9.22714 58.9895 9.32957C58.9856 9.48891 58.939 9.64825 58.8614 9.79241C58.8537 9.80759 58.8459 9.81897 58.8381 9.83035C58.811 9.87967 58.776 9.92899 58.745 9.97072C58.7333 9.98969 58.7178 10.0049 58.7023 10.0238C58.6014 10.1414 58.4772 10.2401 58.3491 10.3311C58.1551 10.4715 57.9455 10.5929 57.7593 10.7409C57.6972 10.7978 57.6351 10.8547 57.573 10.9116C57.5574 10.9305 57.5419 10.9457 57.5264 10.9647C57.507 10.9875 57.4876 11.0102 57.4682 11.0368C57.278 11.2947 57.1965 11.6058 57.0529 11.8866C57.0491 11.898 57.0413 11.9055 57.0374 11.9169C56.9792 12.0269 56.9093 12.1294 56.8317 12.2242C56.8123 12.2508 56.789 12.2735 56.7696 12.3001C56.6881 12.3911 56.595 12.4784 56.498 12.5543C56.4204 12.615 56.3389 12.6719 56.2496 12.7212C56.1953 12.7554 56.1371 12.7857 56.0788 12.8123C56.1254 12.8085 56.1681 12.8047 56.2147 12.8009C56.269 12.7933 56.3272 12.7819 56.3815 12.7705C56.3699 12.7591 56.3583 12.744 56.3505 12.7288C57.1383 12.7781 57.8485 12.4784 58.4733 12.0345C58.8459 11.769 59.1874 11.4579 59.4979 11.1354C59.5444 11.0861 59.591 11.0368 59.6376 10.9875C59.8627 10.7522 60.0761 10.4981 60.2275 10.2097C60.3905 9.90622 60.4332 9.58755 60.4991 9.25749C60.503 9.24231 60.5069 9.22714 60.5108 9.21196C60.6466 9.03745 60.7863 8.86673 60.9105 8.68463C61.0347 8.50632 61.1434 8.31663 61.2249 8.11935C61.3723 7.77412 61.4383 7.40233 61.3607 7.01536C61.3374 6.90155 61.2986 6.78774 61.2443 6.68151ZM60.4564 7.58064C60.4797 7.57305 60.472 7.57684 60.4448 7.59202C60.4526 7.58822 60.4526 7.58443 60.4564 7.58064ZM55.489 8.91225C55.4967 8.90846 55.5045 8.90087 55.5122 8.89708C55.5122 8.90087 55.5161 8.90467 55.5161 8.90846C55.5045 8.91225 55.4967 8.91225 55.489 8.91225Z" fill="#E1251B"/>
<path d="M44.0913 6.24497C44.0641 6.19945 44.0408 6.15392 44.0175 6.1084C44.0136 6.1084 44.0136 6.11219 44.0098 6.11219C44.0369 6.15392 44.0641 6.19945 44.0913 6.24497Z" fill="#E1251B"/>
<path d="M50.8162 7.68627C50.789 7.67489 50.758 7.67489 50.7269 7.68627C50.6959 7.69765 50.6648 7.70903 50.6338 7.72421C50.6532 7.72421 50.6687 7.72421 50.6881 7.72041C50.7308 7.70903 50.7735 7.69765 50.8162 7.68627Z" fill="#E1251B"/>
<path d="M44.2148 5.81958C44.3933 6.12687 44.5874 6.42658 44.8241 6.70353C45.3946 7.37123 46.1514 7.86063 46.9974 8.13378C47.3311 8.24001 47.6688 8.31209 48.0103 8.35382C48.6429 8.4259 49.2793 8.38797 49.8964 8.25898C50.1913 8.19828 50.4824 8.11102 50.7657 8.00859C50.8006 7.99721 50.8355 7.98203 50.8705 7.97065V7.96686C50.8084 7.97824 50.7463 7.98962 50.6803 7.99721C50.5484 8.01618 50.4164 8.02756 50.2806 8.03515C49.7838 8.11481 49.2832 8.11481 48.7942 8.04653C48.4217 8.07308 48.0491 8.08067 47.6804 8.03135C46.6869 7.89478 45.7982 7.33709 45.1307 6.62007C44.4011 5.83475 43.9199 4.86354 43.5279 3.88475C43.3494 3.4257 43.167 2.96665 42.8526 2.57589C42.8449 2.56831 42.8371 2.55693 42.8294 2.54934C42.546 2.21548 42.0609 1.93095 41.6263 2.18134C41.5914 2.20031 41.5642 2.21928 41.537 2.24204C41.2654 2.46587 41.246 2.8756 41.2964 3.23981C41.3546 3.52813 41.4284 3.81646 41.5215 4.09341C41.6185 4.34759 41.7427 4.59419 41.8785 4.83319C41.8048 4.65868 41.7427 4.48417 41.6884 4.30586C41.6185 4.07823 41.603 3.80129 41.6729 3.56607C41.7466 3.31568 41.9174 3.11082 42.2201 3.0577C42.4995 3.00839 42.7362 3.09944 42.9303 3.25877C43.1398 3.4295 43.3028 3.67609 43.4231 3.91131C43.6987 4.45002 43.8694 5.03426 44.11 5.58816C44.145 5.66783 44.1799 5.7437 44.2148 5.81958ZM41.6651 2.55313C41.6651 2.55693 41.6612 2.56451 41.6612 2.5721C41.6457 2.59107 41.634 2.61763 41.6302 2.64039H41.6263C41.634 2.61004 41.6496 2.57969 41.6651 2.55313Z" fill="#E1251B"/>
<path d="M41.6658 2.55371C41.6502 2.58027 41.6347 2.61062 41.627 2.64097H41.6308C41.6347 2.61821 41.6464 2.59165 41.6619 2.57268C41.6619 2.56509 41.6658 2.5575 41.6658 2.55371Z" fill="#FF4713"/>
<path d="M45.1344 6.62025C45.8019 7.33728 46.6906 7.89497 47.6841 8.03154C48.0567 8.08086 48.4293 8.07327 48.7979 8.04672C48.6505 8.02775 48.503 8.00119 48.3594 7.96705C47.5056 7.8722 46.679 7.57249 45.9649 7.10206C45.0917 6.5292 44.4592 5.71354 44.0051 4.79545C43.8188 4.41986 43.6636 4.0291 43.52 3.63455C43.3531 3.16791 43.2056 2.6899 43.0543 2.21568C43.0194 2.10186 42.9806 1.98805 42.9456 1.87424C42.9185 1.79077 42.8952 1.70352 42.868 1.61626C42.8214 1.46451 42.7632 1.31655 42.6584 1.19894C42.6274 1.1648 42.5963 1.13824 42.5575 1.11169C42.5343 1.09651 42.5071 1.08133 42.4799 1.06995C42.3635 1.01684 42.2238 1.00167 42.0918 1.03581C42.0414 1.04719 41.9948 1.06237 41.9482 1.08133C41.9172 1.09651 41.89 1.10789 41.8629 1.12307C41.7038 1.21412 41.5757 1.35069 41.4787 1.51003C41.3739 1.67696 41.304 1.86665 41.2613 2.04875C41.2225 2.21947 41.2031 2.39778 41.2031 2.57229C41.2109 2.67852 41.2225 2.78095 41.2381 2.88338C41.2536 3.00099 41.273 3.12239 41.2963 3.24C41.2458 2.87579 41.2652 2.46606 41.5369 2.24223C41.564 2.21947 41.5912 2.2005 41.6223 2.18153C42.0569 1.93114 42.5459 2.21188 42.8253 2.54953C42.8331 2.56091 42.8408 2.5685 42.8486 2.57988C43.163 2.96684 43.3492 3.42969 43.5316 3.88494C43.9236 4.86373 44.4048 5.83494 45.1344 6.62025Z" fill="#FF4713"/>
<path d="M41.8785 4.83354C41.7427 4.59453 41.6224 4.34793 41.5215 4.09375C41.5719 4.2493 41.6301 4.40105 41.6922 4.5528C41.7737 4.72352 41.8669 4.89424 41.9717 5.05358C41.9523 5.01564 41.9367 4.97391 41.9212 4.93218C41.9057 4.90183 41.8902 4.86768 41.8785 4.83354Z" fill="#FF4713"/>
<path d="M63.5382 5.3004C63.5382 5.27764 63.5382 5.25108 63.5382 5.22832C63.5459 4.95137 63.5925 4.67443 63.5615 4.39748C63.5498 4.26849 63.5188 4.15089 63.4722 4.04466C63.2199 3.43007 62.5059 3.14174 61.8228 3.21003C61.7607 3.21762 61.6986 3.2252 61.6404 3.23659C61.0971 3.34281 60.6353 3.63114 60.1812 3.92705C60.0182 4.02949 59.8591 4.13571 59.6961 4.23435C59.6185 4.27988 59.537 4.3254 59.4594 4.37093C59.2459 4.48474 59.0209 4.58338 58.7802 4.65167C58.7725 4.65167 58.7686 4.65546 58.7608 4.65546C58.4737 4.73134 58.1865 4.72375 57.8954 4.70478C57.5966 4.68581 57.2978 4.65546 56.9951 4.6896C56.6419 4.73134 56.312 4.85653 56.0132 5.03863C55.9007 5.10692 55.7881 5.18279 55.6833 5.26246C55.3729 5.50147 55.1167 5.78221 54.88 6.08572C54.5113 6.55614 54.1931 7.0721 53.8244 7.54253C53.7739 7.60702 53.7196 7.67151 53.6692 7.73601C53.1414 8.35439 52.5204 8.89691 51.8296 9.3294C51.6395 9.447 51.4493 9.55702 51.2514 9.65566C50.677 9.94778 50.06 10.1602 49.4235 10.2778C49.2799 10.3044 49.1325 10.3272 48.985 10.3423C48.7017 10.3727 48.4145 10.3879 48.1195 10.3803C48.1079 10.3803 48.0924 10.3803 48.0769 10.3803C47.8013 10.3727 47.5258 10.3423 47.2541 10.293C47.2192 10.2854 47.1881 10.293 47.1649 10.3006C47.1571 10.3044 47.1455 10.3082 47.1377 10.3158C47.5646 10.4524 47.9992 10.5775 48.4378 10.6724C48.8297 10.661 49.214 10.6193 49.5982 10.5396C50.6188 10.331 51.5929 9.89467 52.4428 9.28387C52.5088 9.22696 52.5748 9.16626 52.6407 9.10177C53.0909 8.66169 53.4596 8.14194 53.9059 7.70186C54.0223 7.58805 54.1465 7.47424 54.2785 7.37181C54.4104 7.26937 54.5424 7.18212 54.6821 7.10624C55.1361 6.85585 55.6368 6.74204 56.184 6.81412C56.1878 6.81412 56.1878 6.81412 56.1917 6.81412C56.4362 6.84826 56.6729 6.90138 56.9136 6.95828C57.03 6.9507 57.1464 6.94311 57.2628 6.93173C57.7751 6.88241 58.2369 6.75342 58.6871 6.51441C58.8889 6.40819 59.0868 6.31714 59.2964 6.25264C59.4206 6.18435 59.5525 6.12745 59.6884 6.08572C59.8475 6.0364 60.0144 6.00984 60.1851 6.01363C60.6702 6.02501 61.0583 6.29058 61.2523 6.68893C61.3028 6.79515 61.3416 6.90897 61.3688 7.02657C61.4464 7.41354 61.3804 7.78533 61.2329 8.13056C61.1514 8.32784 61.0428 8.51373 60.9186 8.69584C60.7944 8.87794 60.6547 9.04866 60.5189 9.22317C60.515 9.23835 60.5111 9.25352 60.5072 9.2687C60.4412 9.59875 60.3947 9.91743 60.2356 10.2209C60.0842 10.5093 59.8708 10.7597 59.6457 10.9987C59.5991 11.048 59.5525 11.0973 59.506 11.1466C59.1955 11.4653 58.8501 11.7802 58.4814 12.0457C57.8566 12.4896 57.1503 12.7893 56.3586 12.74C56.3664 12.7552 56.378 12.7704 56.3896 12.7817C56.3935 12.7893 56.4013 12.7931 56.4052 12.7969C56.8903 12.7552 57.3754 12.6945 57.8566 12.6186C57.8954 12.611 57.9342 12.6072 57.973 12.5996C58.5358 12.5048 59.0946 12.3834 59.6496 12.243C59.7737 12.1861 59.894 12.1292 60.0182 12.0685C60.4684 11.8447 60.907 11.5905 61.3222 11.3022C61.3921 11.2566 61.458 11.2073 61.524 11.158C61.8733 10.8962 62.1993 10.6117 62.4903 10.293C62.4942 10.2892 62.4981 10.2854 62.4981 10.2816C62.6184 10.1489 62.7348 10.0085 62.8435 9.86811C63.2122 9.37872 63.4955 8.83621 63.6624 8.25196C63.7244 8.03951 63.7671 7.82327 63.7943 7.60323C63.8603 7.08727 63.8098 6.58649 63.6779 6.08572C63.6003 5.81636 63.542 5.56597 63.5382 5.3004ZM61.2446 9.31422C61.264 9.28766 61.2834 9.26111 61.2989 9.23455C61.2834 9.26111 61.2679 9.28766 61.2523 9.31802C61.2485 9.31422 61.2485 9.31422 61.2446 9.31422Z" fill="#FF4713"/>
<path d="M55.5086 8.90039C55.5009 8.90418 55.4931 8.91177 55.4854 8.91557C55.4931 8.91557 55.5009 8.91557 55.5125 8.91177C55.5125 8.90798 55.5125 8.90418 55.5086 8.90039Z" fill="black"/>
<path d="M46.0739 10.5393C46.1399 10.5848 46.2097 10.6342 46.2757 10.6797C47.0868 11.5029 48.2045 11.9506 49.2989 12.3034C50.6882 12.7473 52.1397 13.0963 53.6144 13.0774C53.7813 13.0736 53.9637 13.0736 54.1461 13.0622C54.2121 13.066 54.278 13.066 54.344 13.0698C54.5963 13.0963 54.8485 13.1077 55.1046 13.1077C55.1124 13.1115 55.1241 13.1115 55.1357 13.1153C56.5716 13.1988 57.992 12.937 59.3813 12.6031C60.6387 12.3034 61.9194 12.0227 63.0487 11.3815C64.05 10.8125 64.9154 10.0272 65.6179 9.12803C66.3358 8.20994 66.9529 7.12112 67.046 5.94885C67.0926 5.37599 66.9839 4.80312 66.7123 4.29096C66.4561 3.81674 66.0797 3.41839 65.6877 3.05419C65.2841 2.67861 64.8533 2.33337 64.4691 1.93882C64.3954 1.86294 64.3255 1.78707 64.2596 1.7074C64.1082 1.53668 63.9724 1.36596 63.8366 1.19903C63.6503 0.975199 63.4601 0.751366 63.2428 0.557883C62.8275 0.193681 62.2609 -0.075678 61.6905 0.0191666C61.4498 0.0571044 61.248 0.167124 61.0695 0.311288C61.0346 0.330257 61.0035 0.353019 60.9725 0.375782C60.728 0.557883 60.5572 0.812067 60.402 1.06625C60.3632 1.13074 60.3244 1.19524 60.2856 1.25973C60.076 1.53289 59.8393 1.77569 59.4939 1.90088C58.9467 2.09816 58.3296 2.05263 57.7591 2.1361C56.6803 2.29164 55.5975 2.71654 54.8175 3.47909C54.6273 3.66499 54.4643 3.86985 54.3207 4.0861C54.1034 4.34787 53.9093 4.62861 53.7502 4.92832C53.5601 5.27735 53.401 5.64534 53.1875 5.98299C53.009 6.26373 52.7917 6.51412 52.5433 6.73795C52.0504 7.18182 51.4566 7.5005 50.8163 7.6864C50.7736 7.69778 50.7309 7.70916 50.6882 7.72054C50.6688 7.72054 50.6533 7.72434 50.6339 7.72434C48.4839 7.83815 46.3068 7.02628 44.9058 5.39116C44.0753 4.26061 43.6367 2.9252 43.4116 1.55565C43.4 1.47977 43.3884 1.4001 43.369 1.31664C43.3146 0.948643 43.2137 0.595821 42.9382 0.33405C42.7403 0.140568 42.488 0.0495168 42.2202 0.0343417C41.7584 -0.0073899 41.2811 0.189887 40.9745 0.531327C40.6097 0.937262 40.4661 1.47977 40.4389 2.0109C40.3807 3.24767 40.9163 4.43892 41.51 5.50118C42.6238 7.48153 44.1956 9.21529 46.0739 10.5393ZM58.4771 9.6364L58.481 9.63261C58.481 9.6364 58.4771 9.64019 58.4771 9.64778C58.4771 9.64399 58.4771 9.64019 58.4771 9.6364ZM54.4061 4.37822C54.4216 4.35166 54.441 4.32511 54.4565 4.29855C54.5031 4.23406 54.5536 4.16956 54.6079 4.10507L54.6118 4.10127C54.6273 4.08231 54.6467 4.06334 54.6622 4.04437C54.6894 4.01402 54.7166 3.98367 54.7476 3.95711C54.8175 3.88882 54.8873 3.82053 54.9611 3.75604C55.0542 3.67258 55.1512 3.59291 55.2521 3.51324C55.4112 3.38804 55.582 3.27423 55.7566 3.1718C55.9235 3.07316 56.0943 2.98211 56.2728 2.90244C56.4629 2.81518 56.6609 2.7431 56.8588 2.6824C56.8743 2.67861 56.8898 2.67481 56.9054 2.66723C57.1343 2.60273 57.3672 2.55341 57.6039 2.51927C57.7165 2.50409 57.829 2.49271 57.9415 2.48133C58.0541 2.47374 58.1666 2.46616 58.2831 2.46236C58.5664 2.45477 58.8535 2.45098 59.1252 2.40166C59.2572 2.3789 59.3852 2.34855 59.5094 2.30302C59.5249 2.29923 59.5366 2.29923 59.5521 2.29923C59.587 2.29544 59.6064 2.28026 59.622 2.2575C59.7966 2.17783 59.9596 2.06401 60.1032 1.90847C60.2351 1.76431 60.3399 1.59359 60.4447 1.41907C60.7008 1.08901 60.9337 0.709635 61.2364 0.470627C61.8263 0.140568 62.5792 0.394751 63.0798 0.770335C63.2079 0.86518 63.3243 0.971406 63.4368 1.08522C63.495 1.14971 63.5533 1.218 63.6076 1.28629C63.7201 1.42287 63.8366 1.55944 63.9491 1.69222C64.1354 1.93503 64.3178 2.18542 64.5118 2.41684C64.9931 2.9859 65.6606 3.37666 66.1185 3.9609C66.9335 4.99661 66.7744 6.36616 66.2543 7.5005C66.1728 7.67881 66.0836 7.84953 65.9866 8.01266C65.9167 8.13406 65.843 8.25167 65.7653 8.36928C65.4199 8.89661 65.0125 9.3936 64.5778 9.84885C64.3721 10.0651 64.1548 10.2624 63.9219 10.4445C63.627 10.6759 63.3126 10.8808 62.9711 11.0553C62.878 11.1046 62.7849 11.1501 62.6878 11.1919C62.6684 11.1994 62.6529 11.207 62.6335 11.2184C62.0553 11.4802 61.4498 11.6964 60.8405 11.8899C60.6814 11.9392 60.5184 11.9885 60.3593 12.0379C60.1187 12.1099 59.8742 12.1744 59.6336 12.2389C59.0825 12.3793 58.5237 12.5007 57.9571 12.5956C57.9183 12.6031 57.8795 12.6069 57.8406 12.6145C57.3594 12.6942 56.8743 12.7511 56.3892 12.7928C56.3271 12.7966 56.2689 12.8042 56.2068 12.808C56.1602 12.8118 56.1176 12.8156 56.071 12.8194C56.1292 12.7928 56.1874 12.7625 56.2417 12.7283C56.3271 12.679 56.4086 12.6221 56.4901 12.5614C56.5871 12.4855 56.6803 12.3983 56.7618 12.3072C56.7851 12.2845 56.8045 12.2579 56.8239 12.2313C56.9015 12.1365 56.9713 12.0341 57.0295 11.9241C57.0334 11.9127 57.0412 11.9051 57.0451 11.8937C57.1887 11.613 57.2702 11.2981 57.4603 11.0439C57.4797 11.0173 57.4991 10.9946 57.5185 10.9718C57.5341 10.9528 57.5496 10.9339 57.5651 10.9187C57.6272 10.8618 57.6893 10.8049 57.7514 10.748C57.9377 10.6 58.1472 10.4786 58.3413 10.3383C58.4693 10.2472 58.5897 10.1486 58.6944 10.031C58.71 10.0158 58.7216 9.99681 58.7371 9.97784C58.7721 9.93232 58.8031 9.88679 58.8303 9.83747C58.838 9.82609 58.8458 9.81091 58.8535 9.79953C58.9273 9.65537 58.9777 9.49603 58.9816 9.33669C58.9816 9.23047 58.9661 9.12803 58.9195 9.0294C58.8109 8.78659 58.5741 8.62726 58.3102 8.57414C57.961 8.50585 57.6311 8.60829 57.3167 8.75245C57.212 8.80177 57.1072 8.85488 57.0024 8.90799C56.8588 8.98008 56.7152 9.04457 56.5638 9.0863C56.2689 8.98387 55.9507 8.93834 55.6402 8.94593C55.6014 8.94593 55.5626 8.94973 55.5199 8.94973C55.4889 8.95352 55.4539 8.95352 55.4229 8.95731C54.9494 9.00284 54.4954 9.16218 54.0568 9.35566C53.8744 9.43533 53.6959 9.52259 53.5213 9.60984C53.04 9.85265 52.5433 10.0954 52.0349 10.3003C52.0116 10.3117 51.9883 10.3193 51.9612 10.3307C51.8952 10.3572 51.8253 10.3838 51.7594 10.4065C51.1928 10.619 50.6106 10.7707 50.0091 10.8163C49.6637 10.8428 49.3105 10.8314 48.9535 10.7745C48.775 10.7442 48.6003 10.71 48.4218 10.6721C47.9833 10.5773 47.5486 10.4521 47.1217 10.3155C47.1295 10.3117 47.1411 10.3041 47.1489 10.3003C46.5163 10.0917 45.9109 9.79574 45.3598 9.43154C45.2822 9.38222 45.2085 9.3291 45.1347 9.27599C45.0028 9.18115 44.8747 9.0863 44.7505 8.98387C44.4944 8.77521 44.2538 8.55138 44.0287 8.31237C44.0209 8.30478 44.0132 8.2972 44.0054 8.2934C43.9977 8.28961 43.9899 8.28582 43.986 8.28202C43.5125 7.78883 43.0507 7.28046 42.6665 6.71898C42.6549 6.70381 42.6471 6.68863 42.6355 6.67346C42.62 6.6507 42.6083 6.63173 42.5928 6.60896C42.1077 5.87297 41.6459 5.10283 41.2811 4.30234C40.9163 3.49048 40.598 2.51547 40.7804 1.61635C40.8425 1.32043 40.9706 1.02831 41.1685 0.796892C41.2694 0.679284 41.3858 0.576852 41.5256 0.497183C41.5682 0.47442 41.6109 0.451658 41.6536 0.432689C41.6575 0.428895 41.6614 0.428895 41.6653 0.428895C41.708 0.409926 41.7506 0.394751 41.7972 0.379576C42.1387 0.280937 42.5229 0.33405 42.7985 0.569265C42.8062 0.576852 42.8179 0.580646 42.8256 0.58444C42.9576 0.751366 43.0507 0.95623 43.1012 1.17627C43.1361 1.32423 43.1594 1.47218 43.1788 1.62394C43.1788 1.62773 43.1788 1.63152 43.1788 1.63532C43.1904 1.7681 43.2021 1.90468 43.2176 2.03746C43.2409 2.24991 43.2642 2.45857 43.3069 2.66723C43.3573 2.91382 43.4233 3.15283 43.5048 3.38804C43.6367 3.7788 43.8075 4.15439 44.0132 4.511C44.0947 4.66275 44.1801 4.81071 44.2732 4.95488C44.5759 5.4291 44.9329 5.86159 45.3404 6.24476C45.6936 6.60517 46.0856 6.93144 46.5202 7.20459C47.0868 7.5612 47.7116 7.82297 48.3597 7.96714C48.5033 8.00128 48.6508 8.02784 48.7983 8.04681C49.2873 8.11509 49.7879 8.1151 50.2846 8.03543C50.4166 8.02784 50.5524 8.01266 50.6844 7.99749C50.7465 7.9899 50.8124 7.97852 50.8745 7.96714C50.8784 7.96714 50.8823 7.96714 50.8823 7.96714C50.8823 7.96714 50.8784 7.96714 50.8745 7.96714C50.8396 7.98231 50.8047 7.99369 50.7697 8.00508C50.4864 8.10751 50.1954 8.19097 49.9004 8.25546C49.2795 8.38825 48.643 8.42618 48.0143 8.3541C47.6728 8.31616 47.3352 8.24408 47.0014 8.13406C46.1554 7.86091 45.3986 7.37531 44.8282 6.70381C44.5914 6.42686 44.3974 6.12715 44.2189 5.81986C44.1801 5.74398 44.1451 5.66811 44.1141 5.58844C43.8773 5.03454 43.7066 4.4503 43.4272 3.91159C43.3069 3.67637 43.1439 3.42978 42.9343 3.25906C42.7364 3.10351 42.5035 3.01246 42.2202 3.05799C41.9175 3.1111 41.7468 3.31596 41.673 3.56635C41.6032 3.80157 41.6187 4.07851 41.6885 4.30614C41.7429 4.48445 41.805 4.65896 41.8787 4.83347C41.8942 4.86762 41.9098 4.90176 41.9214 4.93591C41.9369 4.97764 41.9524 5.01558 41.9719 5.05731C42.0495 5.23941 42.1348 5.41392 42.2357 5.58464C42.294 5.68328 42.3522 5.78192 42.4143 5.88056C42.5035 6.01334 42.5967 6.14612 42.6937 6.27132C42.9033 6.52171 43.1283 6.76072 43.3612 6.99214C44.1995 7.81918 45.1619 8.64243 46.2796 9.0901C46.3533 9.11665 46.4309 9.14321 46.5086 9.16597C46.5163 9.16977 46.5202 9.16977 46.528 9.16977C47.3041 9.3936 48.1114 9.42774 48.8953 9.31014C48.9613 9.31014 49.0234 9.31014 49.0855 9.31014C49.1204 9.30255 49.1592 9.29875 49.1941 9.29117C49.6288 9.2115 50.0634 9.10527 50.4826 8.96869C51.2354 8.62346 51.9262 8.14924 52.5045 7.565C52.8693 7.19321 53.1681 6.77968 53.4398 6.34719C53.5019 6.24855 53.564 6.14612 53.626 6.04748C53.6338 6.02472 53.6416 6.00196 53.6493 5.9792C53.6726 5.9147 53.692 5.85021 53.7153 5.78571C53.9132 5.39495 54.084 4.97764 54.278 4.60585C54.3168 4.52238 54.3595 4.4503 54.4061 4.37822ZM44.0093 6.11198C44.0132 6.11198 44.0132 6.10818 44.0171 6.10818C44.0403 6.15371 44.0636 6.19923 44.0908 6.24476C44.0636 6.19923 44.0365 6.15371 44.0093 6.11198ZM49.3493 8.91558C49.3532 8.91558 49.3571 8.91558 49.361 8.91558C49.3571 8.91558 49.3532 8.91558 49.3493 8.91558C49.3493 8.91938 49.3493 8.91558 49.3493 8.91558Z" fill="black"/>
<path d="M16.3424 120.476C16.3378 120.476 16.3288 120.476 16.3242 120.472C16.3288 120.476 16.3333 120.481 16.3378 120.485C16.3378 120.485 16.3424 120.481 16.3424 120.476Z" fill="#FF9E18"/>
<path d="M8.68339 119.197C8.6789 119.161 8.67441 119.121 8.66992 119.086C8.66992 119.104 8.66992 119.121 8.66992 119.139C8.68788 119.25 8.70584 119.356 8.72829 119.462C8.71482 119.387 8.70135 119.312 8.69237 119.236C8.68788 119.223 8.68788 119.21 8.68339 119.197Z" fill="#FF9E18"/>
<path d="M8.53144 117.874C8.53593 117.851 8.54042 117.834 8.54491 117.812C8.53593 117.834 8.53144 117.851 8.52246 117.874C8.52695 117.874 8.52695 117.874 8.53144 117.874Z" fill="#FF9E18"/>
<path d="M31.8691 121.415C31.8916 121.397 31.914 121.379 31.9365 121.366C31.9185 121.379 31.9006 121.388 31.8826 121.397C31.8781 121.406 31.8736 121.41 31.8691 121.415Z" fill="#FF9E18"/>
<path d="M26.9541 124.217C26.9721 124.209 26.9945 124.2 27.0125 124.191C27.017 124.186 27.0259 124.182 27.0349 124.178C27.0574 124.16 27.0798 124.142 27.1067 124.129C27.0663 124.151 27.0259 124.178 26.99 124.2C26.9721 124.204 26.9631 124.213 26.9541 124.217Z" fill="#FF9E18"/>
<path d="M28.0488 123.735L28.0892 123.712C28.0892 123.712 28.0892 123.712 28.0847 123.708C28.0758 123.721 28.0623 123.73 28.0488 123.735Z" fill="#FF9E18"/>
<path d="M10.0703 122.499C10.0658 122.491 10.0613 122.482 10.0568 122.473C10.0299 122.438 10.0074 122.407 9.98047 122.371C10.0119 122.415 10.0433 122.455 10.0703 122.499Z" fill="#FF9E18"/>
<path d="M29.6295 122.344C29.6699 122.304 29.7103 122.264 29.7552 122.225C29.7103 122.264 29.6699 122.304 29.625 122.34C29.625 122.34 29.6295 122.34 29.6295 122.344Z" fill="#FF9E18"/>
<path d="M28.9738 121.454C28.9468 121.481 28.9244 121.503 28.8975 121.53C28.9558 121.476 29.0187 121.423 29.077 121.37C29.0456 121.397 29.0097 121.428 28.9738 121.454Z" fill="#FF9E18"/>
<path d="M32.7051 115.296C32.6737 115.438 32.6377 115.575 32.6018 115.712C32.5839 115.77 32.5704 115.832 32.5525 115.889C32.53 115.973 32.5031 116.053 32.4806 116.137C32.3011 116.73 32.0811 117.31 31.8163 117.873C31.2372 119.108 30.4606 120.25 29.4954 121.207C28.8535 121.844 28.1263 122.398 27.3227 122.84C27.215 122.92 27.1028 122.995 26.995 123.07C26.9277 123.115 26.8604 123.163 26.7885 123.208C26.3486 123.495 25.8952 123.757 25.4284 124C25.1859 124.124 24.9435 124.239 24.6966 124.35C24.5889 124.399 24.4812 124.443 24.3734 124.492C24.2612 124.536 24.149 124.585 24.0368 124.629C22.9953 125.036 21.9134 125.324 20.8091 125.506C20.6026 125.559 20.3961 125.603 20.1852 125.638C20.0864 125.656 19.9832 125.674 19.8844 125.687C18.8295 125.851 17.7521 125.869 16.6837 125.762C15.9206 125.687 15.1619 125.55 14.4212 125.355C14.3404 125.333 14.2596 125.311 14.1833 125.289C14.1743 125.289 14.1699 125.284 14.1609 125.284C12.8007 125.023 11.454 124.531 10.3811 123.664C10.2464 123.557 10.1207 123.442 9.99505 123.323C9.96363 123.301 9.9367 123.274 9.90527 123.252C10.1252 123.491 10.3676 123.708 10.619 123.916C10.8839 124.129 11.1622 124.323 11.454 124.496C11.9927 124.819 12.5628 125.08 13.1553 125.293C14.4123 125.74 15.7635 125.962 17.1147 126.028C17.9272 126.068 18.7352 126.059 19.5253 126.01C19.7542 125.997 19.9787 125.979 20.2076 125.957C21.3388 125.851 22.4611 125.656 23.5609 125.377C24.1894 125.218 24.8089 125.032 25.4239 124.819C25.8189 124.682 26.2139 124.536 26.6 124.377C26.5955 124.363 26.591 124.35 26.5865 124.337C26.9322 124.129 27.2778 123.916 27.619 123.699C27.9647 123.478 28.3013 123.252 28.6335 123.013C29.2844 122.544 29.9039 122.021 30.4381 121.423C30.6626 121.171 30.8691 120.91 31.0621 120.631C31.2506 120.361 31.4212 120.078 31.5738 119.785C31.6277 119.684 31.6816 119.577 31.731 119.471C31.7354 119.458 31.7444 119.444 31.7489 119.431C31.924 119.059 32.0766 118.674 32.2113 118.284C32.346 117.895 32.4627 117.501 32.5704 117.102C32.5704 117.089 32.5749 117.076 32.5749 117.067C32.6333 116.549 32.6422 116.027 32.7051 115.513C32.7141 115.424 32.7275 115.327 32.7455 115.225C32.75 115.199 32.7545 115.172 32.7589 115.146C32.75 115.172 32.741 115.203 32.732 115.23L32.7051 115.296Z" fill="#FF9E18"/>
<path d="M34.3293 113.264C34.1048 113.189 33.8624 113.171 33.6335 113.233C33.5033 113.348 33.3865 113.49 33.2833 113.623C33.2384 113.698 33.1935 113.778 33.1531 113.857C33.1261 113.946 33.0992 114.039 33.0723 114.127C33.2923 113.689 33.629 113.352 34.1497 113.357C34.4505 113.357 34.7379 113.485 34.9579 113.68C34.7917 113.494 34.5852 113.348 34.3293 113.264Z" fill="#FF9E18"/>
<path d="M35.0293 115.881C35.0293 115.885 35.0338 115.889 35.0338 115.894V115.858C35.0338 115.863 35.0293 115.872 35.0293 115.881Z" fill="#FF9E18"/>
<path d="M35.4963 115.371C35.4963 115.211 35.4873 115.052 35.4693 114.893C35.4738 114.977 35.4693 115.056 35.4648 115.141C35.4783 115.22 35.4918 115.296 35.4963 115.371Z" fill="#FF9E18"/>
<path d="M10.9955 122.805C11.9427 123.694 13.1188 124.266 14.3623 124.651C13.7563 124.359 13.2086 123.956 12.7372 123.442C12.7193 123.424 12.7058 123.407 12.6879 123.389C11.9427 122.557 11.4354 121.521 11.2379 120.427C11.1481 119.936 11.1347 119.453 11.1616 118.957C11.1661 118.855 11.1751 118.753 11.184 118.652C11.1975 118.488 11.2065 118.328 11.202 118.169C11.202 118.138 11.202 118.112 11.1975 118.081C11.1526 117.872 11.1212 117.66 11.0943 117.452C11.0718 117.341 11.0449 117.23 11.0224 117.124C10.991 116.974 10.9641 116.819 10.9551 116.664C10.9416 116.482 10.9461 116.305 10.9731 116.128C10.9955 115.978 11.0359 115.831 11.0898 115.69C11.1706 115.486 11.2873 115.296 11.4444 115.132C11.4668 115.105 11.4938 115.083 11.5207 115.057C11.5836 114.999 11.6464 114.946 11.7137 114.897C11.8125 114.826 11.9202 114.76 12.0325 114.698C12.0774 114.676 12.1222 114.654 12.1671 114.632C12.4095 114.525 12.6699 114.455 12.9348 114.419C12.9976 114.41 13.0605 114.406 13.1233 114.401C13.4151 114.384 13.7159 114.41 14.0032 114.49C14.2815 114.565 14.5329 114.702 14.8112 114.782C14.8381 114.791 14.8695 114.8 14.8965 114.804C15.2017 114.875 15.5249 114.871 15.8347 114.924C16.1444 114.973 16.4452 115.052 16.737 115.154C16.7504 115.158 16.7639 115.163 16.7729 115.167C17.3205 115.362 17.8323 115.645 18.2947 116C18.7885 116.385 19.197 116.859 19.583 117.346C19.9646 117.833 20.3237 118.333 20.7412 118.789C20.7771 118.829 20.8175 118.873 20.8579 118.913C21.1991 119.271 21.5851 119.59 22.0026 119.86C22.9318 120.462 24.0047 120.839 25.1045 120.958C24.5973 120.865 24.1035 120.71 23.6411 120.489C21.1407 119.311 20.2205 116.535 18.4293 114.636C18.3171 114.517 18.2004 114.397 18.0792 114.286C17.729 113.959 17.3475 113.666 16.9255 113.436C16.6068 113.264 16.2701 113.144 15.9289 113.051C15.5833 112.958 15.2331 112.892 14.8785 112.816C14.6541 112.768 14.4386 112.71 14.2321 112.639C13.9987 112.56 13.7742 112.471 13.5453 112.369C13.3388 112.281 13.1323 112.183 12.9213 112.081C12.3153 111.807 11.6644 111.541 10.991 111.656C10.7082 111.701 10.4344 111.807 10.1875 111.953C10.0932 112.006 10.0034 112.068 9.91813 112.139C9.71612 112.294 9.53656 112.484 9.38842 112.692C9.40189 112.71 9.40638 112.732 9.3974 112.763C9.17744 113.343 9.2358 113.95 9.32558 114.548C9.36598 114.671 9.40638 114.795 9.44678 114.915C9.4782 115.012 9.50514 115.11 9.52758 115.203C9.59492 115.371 9.65776 115.535 9.69817 115.707L9.70266 115.721C9.75203 115.871 9.78795 116.026 9.78346 116.177C9.77897 116.23 9.76999 116.274 9.76101 116.323C9.75652 116.341 9.75203 116.354 9.74755 116.372C9.70266 116.681 9.59492 116.983 9.49167 117.284C9.46923 117.443 9.44678 117.602 9.41087 117.762C9.30313 118.231 9.20886 118.692 9.22682 119.174C9.24477 119.635 9.33455 120.086 9.48718 120.52C9.78795 121.388 10.3266 122.171 10.9955 122.805Z" fill="#FF9E18"/>
<path d="M12.257 115.566C12.2525 115.566 12.2525 115.566 12.257 115.566C12.2525 115.566 12.2525 115.571 12.248 115.571C12.248 115.571 12.2525 115.571 12.257 115.566Z" fill="#FF9E18"/>
<path d="M33.5121 113.286C33.337 113.387 33.1844 113.525 33.0542 113.689C33.0407 113.702 33.0317 113.715 33.0228 113.733C32.9464 113.83 32.8791 113.932 32.8118 114.038C32.6143 114.459 32.511 114.919 32.3943 115.366C32.2372 115.969 32.0486 116.562 31.8017 117.133C31.6895 117.39 31.5683 117.647 31.4291 117.89C30.9892 118.807 30.3967 119.648 29.6739 120.369C29.6335 120.418 29.5976 120.467 29.5572 120.515C29.1936 120.963 28.7806 121.401 28.2734 121.684C28.1836 121.755 28.0893 121.822 27.995 121.884C27.9277 121.928 27.8649 121.968 27.7975 122.003C26.6618 122.809 25.351 123.376 24.0357 123.84C23.5195 124.022 22.9987 124.195 22.478 124.354C21.9483 124.518 21.4096 124.659 20.853 124.699C20.8485 124.699 20.844 124.699 20.8395 124.699C20.6016 124.766 20.3637 124.832 20.1258 124.885C19.614 125 19.0888 125.093 18.5591 125.151C17.7241 125.239 16.8757 125.248 16.0497 125.142C16.0407 125.142 16.0273 125.138 16.0183 125.138C15.8836 125.12 15.7534 125.098 15.6233 125.071C15.2372 124.992 14.8646 124.876 14.5145 124.717C14.483 124.704 14.4516 124.69 14.4202 124.677C14.4022 124.668 14.3798 124.659 14.3618 124.651C13.1184 124.265 11.9422 123.694 10.9951 122.804C10.3262 122.176 9.78751 121.392 9.48674 120.524C9.33412 120.09 9.24434 119.639 9.22638 119.178C9.20842 118.691 9.30269 118.235 9.41043 117.766C9.44634 117.607 9.46879 117.447 9.49123 117.288C9.59448 116.982 9.70222 116.681 9.74262 116.372C9.74711 116.354 9.7516 116.341 9.75609 116.323C9.76955 116.274 9.77853 116.225 9.77853 116.177C9.78302 116.026 9.74711 115.871 9.69773 115.721C9.69773 115.716 9.69773 115.712 9.69324 115.707C9.65733 115.535 9.59448 115.371 9.52714 115.203C9.5047 115.11 9.47777 115.012 9.44634 114.915C9.40594 114.795 9.36554 114.671 9.32514 114.547C9.23536 113.945 9.177 113.343 9.39696 112.759C9.40594 112.732 9.40145 112.71 9.38798 112.692C9.28025 112.852 9.18598 113.024 9.11864 113.202C9.00642 113.494 8.95255 113.813 8.98397 114.131C9.01988 114.516 9.14558 114.884 9.20393 115.269C9.20842 115.322 9.2174 115.375 9.22189 115.428C9.24882 115.712 9.22638 115.995 9.15455 116.274C9.01539 116.81 8.74156 117.297 8.54405 117.81C8.53956 117.833 8.53507 117.85 8.53058 117.872C8.52609 117.872 8.52609 117.872 8.5216 117.872C8.48569 117.97 8.44978 118.072 8.42284 118.173C8.2747 118.705 8.2343 119.254 8.28368 119.798C8.29266 119.896 8.30164 119.989 8.31959 120.082C8.33306 120.175 8.35102 120.268 8.36897 120.356C8.40489 120.533 8.44978 120.71 8.50364 120.883C8.59343 121.175 8.71014 121.463 8.84481 121.737C8.93908 121.932 9.04682 122.118 9.16353 122.3C9.37901 122.641 9.6259 122.959 9.89973 123.252C9.93116 123.274 9.95809 123.3 9.98952 123.322C10.1152 123.442 10.2409 123.553 10.3756 123.663C11.4529 124.531 12.7952 125.023 14.1553 125.284C14.1643 125.284 14.1688 125.288 14.1778 125.288C14.2586 125.31 14.3394 125.332 14.4157 125.355C15.1564 125.545 15.915 125.682 16.6782 125.762C17.7421 125.868 18.8194 125.85 19.8789 125.687C19.9776 125.673 20.0809 125.656 20.1796 125.638C20.3906 125.598 20.5971 125.554 20.8036 125.505C21.9079 125.324 22.9898 125.031 24.0312 124.629C24.1434 124.584 24.2557 124.54 24.3679 124.491C24.4756 124.447 24.5834 124.398 24.6911 124.35C24.938 124.239 25.1849 124.124 25.4228 124C25.8897 123.761 26.3476 123.495 26.783 123.207C26.8503 123.163 26.9222 123.119 26.9895 123.07C27.1017 122.995 27.2095 122.92 27.3172 122.84C28.1207 122.397 28.8479 121.844 29.4899 121.206C30.455 120.25 31.2316 119.112 31.8107 117.872C32.0756 117.31 32.2955 116.73 32.4751 116.137C32.502 116.053 32.5245 115.973 32.5469 115.889C32.5649 115.831 32.5783 115.769 32.5963 115.712C32.6322 115.575 32.6681 115.433 32.6995 115.296L32.722 115.234C32.731 115.207 32.7399 115.181 32.7489 115.15C32.8611 114.809 32.9644 114.468 33.0721 114.122C33.0991 114.034 33.126 113.941 33.1529 113.852C33.1933 113.773 33.2382 113.697 33.2831 113.618C33.3864 113.48 33.4986 113.339 33.6333 113.228C33.6198 113.233 33.6018 113.237 33.5884 113.241C33.5614 113.255 33.5345 113.272 33.5121 113.286ZM8.66974 119.085C8.67423 119.121 8.67872 119.161 8.68321 119.196C8.68321 119.209 8.6877 119.223 8.6877 119.236C8.69667 119.311 8.71014 119.387 8.72361 119.462C8.70116 119.356 8.67872 119.245 8.66525 119.139C8.66974 119.121 8.66974 119.103 8.66974 119.085ZM10.0703 122.499C10.0389 122.459 10.012 122.415 9.98054 122.375C10.0075 122.41 10.0299 122.441 10.0569 122.477C10.0613 122.481 10.0658 122.49 10.0703 122.499ZM28.9018 121.525C28.9288 121.503 28.9512 121.476 28.9781 121.45C29.014 121.423 29.05 121.392 29.0814 121.366C29.023 121.423 28.9602 121.476 28.9018 121.525Z" fill="#CBA25B"/>
<path d="M34.4501 114.818C34.4232 114.805 34.3918 114.792 34.3604 114.787C34.3918 114.792 34.4187 114.805 34.4501 114.818Z" fill="#E1251B"/>
<path d="M21.6925 120.109C21.9708 120.228 22.2356 120.379 22.496 120.525C22.5499 120.556 22.6037 120.582 22.6531 120.613C22.8641 120.706 23.0751 120.799 23.2861 120.879C23.5958 120.999 23.928 121.105 24.2647 121.198C24.5251 121.269 24.7899 121.326 25.0592 121.37C25.4902 121.406 25.9301 121.397 26.3611 121.344C26.5631 121.317 26.7606 121.282 26.9581 121.233C27.3262 121.096 27.6943 120.941 28.0534 120.786C28.0938 120.768 28.1387 120.751 28.1791 120.733C28.2599 120.689 28.3362 120.64 28.4126 120.591C28.242 120.666 28.0624 120.733 27.8829 120.79C27.3442 121.021 26.7067 121.069 26.1411 121.091C25.2523 121.122 24.3545 121.007 23.5105 120.733C22.6666 120.458 21.9663 119.994 21.2436 119.493C20.9877 119.316 20.7228 119.143 20.4445 119.006C20.3951 118.98 20.3458 118.958 20.2964 118.935C19.9866 118.794 19.6589 118.701 19.3178 118.683C19.2549 118.679 19.1921 118.679 19.1292 118.683C19.1158 118.683 19.0978 118.683 19.0843 118.683C18.8689 118.696 18.6579 118.736 18.4424 118.78C18.2853 118.811 18.1282 118.847 17.9711 118.869C17.8813 118.882 17.7915 118.896 17.7017 118.9C17.603 118.909 17.5087 118.909 17.4099 118.904C17.1765 118.896 16.9431 118.865 16.7096 118.856C16.5705 118.851 16.4313 118.851 16.2877 118.869C16.1799 118.882 16.0722 118.909 15.969 118.94C15.6727 119.033 15.4033 119.197 15.1879 119.414C15.0487 119.551 14.9365 119.71 14.8512 119.887C14.7928 120.011 14.7479 120.14 14.721 120.277C14.6941 120.405 14.6851 120.538 14.6896 120.671C14.6986 120.914 14.7569 121.153 14.8691 121.37C14.923 121.472 14.9859 121.565 15.0577 121.649C15.1519 121.764 15.2552 121.875 15.3495 121.986C15.4572 122.11 15.5515 122.243 15.6188 122.398C15.7041 122.606 15.758 122.823 15.8163 123.035C15.8657 123.212 15.9241 123.385 16.0183 123.549C16.1934 123.859 16.4583 124.115 16.7545 124.31C17.2169 124.616 17.7466 124.762 18.2853 124.815C18.7118 124.859 19.1517 124.846 19.5736 124.815C19.9283 124.788 20.2829 124.753 20.6331 124.704C20.2784 124.709 19.9103 124.664 19.5736 124.554C19.2684 124.456 18.9811 124.31 18.7387 124.107C18.6354 124.022 18.5412 123.929 18.4559 123.828C18.1731 123.487 18.0743 123.11 18.0115 122.676C17.9935 122.544 17.9711 122.411 17.9307 122.282C17.9082 122.207 17.8768 122.132 17.8364 122.061C17.8184 122.03 17.8005 121.999 17.7825 121.973C17.6434 121.773 17.4638 121.614 17.3381 121.406C17.2528 121.264 17.2079 121.114 17.1945 120.968C17.1765 120.906 17.1765 120.839 17.1945 120.782C17.1989 120.737 17.2079 120.693 17.2169 120.649C17.2573 120.467 17.3471 120.299 17.4683 120.162C17.6523 119.949 17.9217 119.799 18.2314 119.777C18.3481 119.768 18.4604 119.777 18.5771 119.79C18.9542 119.839 19.3223 119.985 19.7038 119.985C19.9597 119.985 20.2066 119.905 20.4625 119.878C20.4759 119.878 20.4939 119.874 20.5074 119.874C20.7228 119.856 20.9383 119.878 21.1493 119.927C21.2077 119.94 21.2615 119.954 21.3154 119.971C21.4501 120.011 21.5713 120.06 21.6925 120.109ZM16.3371 120.485C16.3326 120.481 16.3281 120.476 16.3236 120.472C16.3281 120.472 16.3371 120.472 16.3415 120.476C16.3415 120.481 16.3371 120.481 16.3371 120.485ZM15.5515 119.453C15.5515 119.453 15.5515 119.458 15.5515 119.453C15.547 119.458 15.547 119.458 15.5425 119.458C15.547 119.458 15.5515 119.453 15.5515 119.453Z" fill="#E1251B"/>
<path d="M32.7087 118.599C32.758 118.431 32.8029 118.267 32.8478 118.099C32.9331 117.767 33.0139 117.43 33.0947 117.094C33.1037 117.058 33.1127 117.018 33.1217 116.983C33.1755 116.766 33.2294 116.549 33.2878 116.332C33.3506 116.04 33.4224 115.748 33.5212 115.46C33.611 115.19 33.7097 114.831 33.9746 114.672C34.1901 114.544 34.4684 114.597 34.6614 114.738C34.832 114.862 34.9307 115.035 34.9846 115.225C35.0205 115.358 35.034 115.5 35.034 115.646C35.034 115.925 34.9846 116.217 34.9487 116.452C34.8948 116.806 34.8185 117.156 34.7153 117.497C34.5986 117.886 34.4549 118.267 34.2843 118.634C34.4594 118.457 34.621 118.267 34.7646 118.063C35.0923 117.368 35.2809 116.607 35.3033 115.836C35.3168 115.349 35.3033 114.791 35.0519 114.358C34.8275 113.968 34.3876 113.724 33.9342 113.853C33.5212 113.968 33.2608 114.256 33.0947 114.619C32.8433 115.159 32.7985 115.858 32.767 116.381C32.767 116.407 32.7625 116.434 32.7625 116.461C32.6997 117.51 32.556 118.519 32.179 119.511C31.9814 120.033 31.7301 120.538 31.4248 121.012C31.7435 120.582 32.0263 120.122 32.2643 119.644C32.4303 119.303 32.5785 118.953 32.7087 118.599ZM35.034 115.889C35.034 115.885 35.0295 115.881 35.0295 115.876C35.0295 115.872 35.034 115.863 35.034 115.858V115.889Z" fill="#E1251B"/>
<path d="M26.5771 124.341C26.5816 124.354 26.5861 124.367 26.5906 124.381C26.9991 124.217 27.4031 124.04 27.7982 123.854C27.8835 123.814 27.9643 123.774 28.0496 123.734C28.063 123.725 28.0765 123.716 28.0855 123.712C28.0855 123.712 28.09 123.712 28.09 123.716C28.4042 123.566 28.7139 123.407 29.0192 123.238C29.1718 123.128 29.3199 123.017 29.4681 122.902C29.8901 122.579 30.2986 122.242 30.6846 121.879C30.9495 121.605 31.1919 121.312 31.4208 121.007C31.7216 120.533 31.973 120.033 32.175 119.506C32.5476 118.519 32.6957 117.505 32.7585 116.456C32.7585 116.429 32.763 116.403 32.763 116.376C32.7945 115.854 32.8394 115.154 33.0907 114.614C33.2613 114.251 33.5217 113.959 33.9302 113.848C34.3836 113.724 34.8235 113.963 35.048 114.353C35.2993 114.787 35.3128 115.344 35.2993 115.831C35.2769 116.602 35.0884 117.363 34.7607 118.058C34.81 117.987 34.8549 117.917 34.8998 117.846C34.9402 117.771 34.9761 117.695 35.012 117.62C35.3128 116.903 35.4969 116.137 35.4924 115.371C35.4834 115.291 35.4744 115.216 35.4609 115.141C35.4654 115.057 35.4654 114.977 35.4654 114.893C35.4565 114.826 35.4475 114.76 35.4385 114.694C35.425 114.601 35.4071 114.503 35.3801 114.406C35.2859 114.14 35.1467 113.883 34.9627 113.68C34.7382 113.485 34.4509 113.356 34.1546 113.356C33.6384 113.352 33.2972 113.689 33.0773 114.127C32.9695 114.468 32.8618 114.809 32.7496 115.15C32.7451 115.176 32.7406 115.203 32.7361 115.229C32.7181 115.331 32.7047 115.428 32.6957 115.517C32.6329 116.035 32.6239 116.557 32.5655 117.071C32.5655 117.084 32.561 117.098 32.561 117.106C32.4578 117.505 32.3411 117.899 32.2064 118.289C32.0717 118.678 31.9191 119.059 31.744 119.435C31.7395 119.449 31.7306 119.462 31.7261 119.475C31.6767 119.581 31.6228 119.688 31.569 119.789C31.4163 120.082 31.2457 120.365 31.0572 120.635C30.8687 120.91 30.6622 121.175 30.4332 121.428C29.899 122.025 29.2795 122.543 28.6286 123.017C28.2964 123.256 27.9598 123.482 27.6141 123.703C27.2685 123.925 26.9228 124.133 26.5771 124.341ZM26.9542 124.217C26.9632 124.212 26.9767 124.203 26.9857 124.199C27.0261 124.177 27.0665 124.15 27.1024 124.128C27.0799 124.146 27.0575 124.164 27.0305 124.177C27.0261 124.181 27.0171 124.186 27.0081 124.19C26.9946 124.199 26.9722 124.208 26.9542 124.217ZM29.7554 122.224C29.715 122.264 29.6746 122.304 29.6297 122.344C29.6252 122.344 29.6252 122.344 29.6207 122.344C29.6701 122.304 29.7105 122.264 29.7554 122.224Z" fill="#FF4713"/>
<path d="M33.5615 119.883C33.6064 119.829 33.6558 119.781 33.7007 119.728C33.6738 119.754 33.6468 119.776 33.6199 119.803C33.5974 119.829 33.5795 119.856 33.5615 119.883Z" fill="#FF4713"/>
<path d="M15.5519 119.453C15.5475 119.458 15.5475 119.458 15.543 119.458C15.5475 119.458 15.5519 119.458 15.5519 119.453C15.5519 119.458 15.5519 119.453 15.5519 119.453Z" fill="#FF4713"/>
<path d="M20.6474 124.705C20.2973 124.758 19.9426 124.793 19.588 124.815C19.166 124.846 18.7261 124.855 18.2997 124.815C17.7565 124.762 17.2313 124.616 16.7689 124.311C16.4726 124.111 16.2078 123.859 16.0327 123.549C15.9384 123.385 15.8801 123.213 15.8307 123.036C15.7678 122.823 15.7185 122.606 15.6332 122.398C15.5658 122.243 15.4716 122.11 15.3638 121.986C15.2696 121.871 15.1663 121.765 15.072 121.65C15.0002 121.561 14.9374 121.468 14.8835 121.371C14.7713 121.154 14.7129 120.915 14.7039 120.671C14.6995 120.539 14.7084 120.406 14.7354 120.277C14.7623 120.14 14.8072 120.007 14.8655 119.888C14.9508 119.711 15.0631 119.551 15.2022 119.414C15.4177 119.197 15.687 119.033 15.9833 118.94C16.0866 118.909 16.1943 118.883 16.302 118.87C16.4412 118.852 16.5804 118.852 16.724 118.856C16.9574 118.865 17.1909 118.896 17.4243 118.905C17.5231 118.909 17.6173 118.909 17.7161 118.9C17.8059 118.892 17.8956 118.883 17.9854 118.87C18.1425 118.843 18.2997 118.812 18.4568 118.781C18.6678 118.737 18.8787 118.697 19.0987 118.684C19.1122 118.684 19.1301 118.684 19.1436 118.684C19.2064 118.679 19.2693 118.679 19.3321 118.684C19.6778 118.701 20.001 118.799 20.3107 118.936C20.3601 118.958 20.4095 118.985 20.4589 119.007C20.7372 119.148 21.0021 119.321 21.2579 119.494C21.9807 119.994 22.681 120.459 23.5249 120.733C24.3733 121.008 25.2666 121.123 26.1555 121.092C26.7211 121.074 27.3585 121.021 27.8972 120.791C27.7581 120.835 27.6189 120.875 27.4752 120.911C26.6986 121.092 25.8861 121.105 25.1005 120.964C24.0007 120.844 22.9279 120.468 21.9986 119.866C21.5811 119.596 21.1996 119.277 20.8539 118.918C20.8135 118.878 20.7776 118.839 20.7372 118.794C20.3197 118.338 19.9606 117.834 19.579 117.347C19.193 116.859 18.789 116.386 18.2907 116.001C17.8328 115.646 17.321 115.363 16.7689 115.168C16.7554 115.164 16.7464 115.159 16.733 115.155C16.4412 115.053 16.1359 114.973 15.8307 114.925C15.5209 114.876 15.1977 114.88 14.8925 114.805C14.8611 114.796 14.8341 114.792 14.8027 114.783C14.5289 114.703 14.273 114.566 13.9947 114.491C13.7119 114.416 13.4111 114.385 13.1148 114.402C13.061 114.402 12.9981 114.411 12.9353 114.42C12.6704 114.455 12.41 114.526 12.1676 114.637C12.1227 114.659 12.0779 114.681 12.033 114.703C11.9207 114.761 11.813 114.827 11.7098 114.903C11.6424 114.951 11.5796 115.004 11.5167 115.062C11.4898 115.084 11.4673 115.111 11.4449 115.133C11.2878 115.297 11.1711 115.487 11.0903 115.686C11.0364 115.828 10.996 115.974 10.9736 116.125C10.9466 116.302 10.9421 116.479 10.9556 116.66C10.9646 116.815 10.9915 116.97 11.0229 117.121C11.0454 117.231 11.0723 117.338 11.0992 117.448C11.1262 117.661 11.1576 117.869 11.2025 118.077C11.2025 118.108 11.207 118.135 11.207 118.166C11.2115 118.325 11.2025 118.48 11.189 118.644C11.18 118.746 11.1711 118.847 11.1666 118.949C11.1396 119.441 11.1531 119.928 11.2429 120.415C11.4404 121.508 11.9477 122.544 12.6929 123.377C12.7108 123.394 12.7243 123.412 12.7422 123.43C13.2136 123.943 13.7612 124.351 14.3673 124.638C14.3852 124.647 14.4077 124.656 14.4256 124.665C14.457 124.678 14.4885 124.691 14.5199 124.705C14.8745 124.86 15.2426 124.979 15.6287 125.059C15.7589 125.086 15.889 125.108 16.0237 125.125C16.0327 125.125 16.0462 125.13 16.0551 125.13C16.8811 125.236 17.7251 125.227 18.5645 125.139C19.0942 125.081 19.6194 124.993 20.1312 124.873C20.3691 124.82 20.607 124.758 20.8449 124.687C20.7776 124.705 20.7103 124.705 20.6474 124.705ZM12.2484 115.576C12.2484 115.571 12.2529 115.567 12.2529 115.567C12.2529 115.567 12.2529 115.571 12.2574 115.571C12.2529 115.571 12.2484 115.571 12.2484 115.576Z" fill="#FF4713"/>
<path d="M30.5632 122.636C31.7752 121.87 32.9423 120.998 33.8806 119.914C34.7245 118.935 35.3799 117.766 35.6358 116.5C35.6717 116.345 35.6941 116.186 35.7121 116.026C35.757 115.743 35.7794 115.46 35.7749 115.176C35.7704 114.765 35.6851 114.331 35.5011 113.95C35.2856 113.445 34.9175 113.038 34.3115 112.892C34.123 112.848 33.9479 112.839 33.7863 112.861C33.683 112.865 33.5753 112.883 33.4765 112.914C33.1713 112.998 32.9423 113.184 32.7493 113.414C31.5956 114.61 31.4385 116.385 30.9627 117.926C30.442 118.895 29.616 119.697 28.6284 120.206C27.4029 120.839 25.9529 120.958 24.6287 120.587C23.2326 120.197 22.1687 119.263 21.3113 118.143C20.4943 117.071 19.8344 115.885 18.9635 114.853C18.5415 114.357 18.0747 113.892 17.536 113.521C16.9704 113.126 16.3464 112.87 15.673 112.724C15.2915 112.639 14.9054 112.577 14.5283 112.476C14.1782 112.383 13.8505 112.245 13.5228 112.09C12.9078 111.803 12.2973 111.471 11.6149 111.387C10.4298 111.245 9.28963 112.037 8.87215 113.113C8.7689 113.379 8.71054 113.667 8.71503 113.954C8.71503 114.317 8.81379 114.672 8.8901 115.021C8.97539 115.411 9.00682 115.787 8.91255 116.181C8.82277 116.544 8.66565 116.881 8.51302 117.217C8.24817 117.811 8.05514 118.404 8.01025 119.05C7.96985 119.661 8.05065 120.281 8.22124 120.865C8.56689 122.052 9.28963 123.146 10.2368 123.951C12.3736 125.771 15.3408 126.289 18.0836 126.311C21.024 126.338 23.9553 125.731 26.6667 124.633C28.0224 124.084 29.3287 123.416 30.5632 122.636ZM34.3609 114.782C34.3923 114.791 34.4192 114.8 34.4507 114.813C34.4192 114.804 34.3923 114.791 34.3609 114.782ZM31.8695 121.414C31.874 121.41 31.8784 121.401 31.8829 121.397C31.9009 121.388 31.9188 121.375 31.9368 121.366C31.9144 121.383 31.8919 121.401 31.8695 121.414ZM33.5618 119.883C33.5798 119.856 33.5977 119.829 33.6157 119.803C33.6426 119.776 33.6696 119.754 33.6965 119.728C33.6561 119.776 33.6067 119.829 33.5618 119.883ZM25.4142 124.824C24.8037 125.036 24.1798 125.222 23.5513 125.381C22.4515 125.66 21.3292 125.855 20.198 125.961C19.9735 125.983 19.7446 126.001 19.5156 126.014C18.7301 126.063 17.9176 126.076 17.105 126.032C15.7538 125.961 14.4026 125.744 13.1457 125.297C12.5532 125.085 11.983 124.824 11.4444 124.5C11.1526 124.323 10.8743 124.133 10.6094 123.92C10.3535 123.717 10.1156 123.495 9.89565 123.256C9.62181 122.964 9.37492 122.645 9.15944 122.304C9.04273 122.123 8.93948 121.937 8.84072 121.742C8.70605 121.468 8.58934 121.184 8.49956 120.888C8.44569 120.715 8.4008 120.538 8.36488 120.361C8.34693 120.268 8.32897 120.175 8.31551 120.086C8.30204 119.993 8.28857 119.896 8.27959 119.803C8.23021 119.258 8.27061 118.709 8.41875 118.178C8.44569 118.076 8.4816 117.974 8.51751 117.877C8.52649 117.855 8.53098 117.837 8.53996 117.815C8.73747 117.301 9.01131 116.814 9.15047 116.279C9.22229 116 9.24474 115.716 9.2178 115.433C9.2178 115.376 9.20882 115.322 9.20433 115.265C9.14598 114.884 9.01579 114.517 8.98437 114.131C8.95744 113.813 9.00682 113.494 9.11904 113.202C9.18638 113.025 9.28065 112.852 9.38838 112.693C9.53203 112.485 9.71159 112.294 9.9136 112.139C9.99889 112.073 10.0887 112.011 10.1874 111.953C10.4343 111.807 10.7082 111.705 10.991 111.657C11.6643 111.546 12.3152 111.807 12.9123 112.09C13.1233 112.188 13.3253 112.285 13.5363 112.378C13.7607 112.476 13.9896 112.569 14.2231 112.648C14.4341 112.719 14.645 112.781 14.8695 112.83C15.2241 112.905 15.5743 112.972 15.9199 113.064C16.2611 113.157 16.5978 113.273 16.9165 113.45C17.3385 113.68 17.72 113.972 18.0702 114.3C18.1914 114.415 18.3081 114.53 18.4203 114.649C20.2114 116.549 21.1317 119.325 23.6321 120.502C24.0989 120.719 24.5927 120.879 25.0955 120.972C25.8811 121.113 26.6936 121.1 27.4702 120.919C27.6139 120.883 27.753 120.848 27.8922 120.799C28.0717 120.742 28.2468 120.675 28.4219 120.6C28.3456 120.649 28.2648 120.697 28.1885 120.742C28.1481 120.759 28.1032 120.777 28.0628 120.795C27.6992 120.95 27.3355 121.1 26.9674 121.242C26.7699 121.286 26.5679 121.326 26.3704 121.352C25.9395 121.41 25.504 121.419 25.0686 121.379C24.7992 121.335 24.5344 121.277 24.274 121.206C23.9329 121.113 23.6052 121.007 23.2954 120.888C23.0844 120.808 22.8734 120.715 22.6625 120.622C22.6086 120.595 22.5547 120.564 22.5053 120.533C22.245 120.387 21.9756 120.237 21.7018 120.117C21.5806 120.064 21.4594 120.02 21.3382 119.984C21.2843 119.967 21.226 119.953 21.1721 119.94C20.9611 119.891 20.7456 119.869 20.5302 119.887C20.5167 119.887 20.4987 119.887 20.4853 119.891C20.2294 119.918 19.9825 119.998 19.7266 119.998C19.3451 119.998 18.977 119.852 18.5999 119.803C18.4877 119.79 18.3709 119.781 18.2542 119.79C17.9445 119.812 17.6796 119.962 17.4911 120.175C17.3699 120.316 17.2801 120.485 17.2397 120.662C17.2307 120.706 17.2217 120.75 17.2173 120.795C17.1993 120.852 17.1948 120.919 17.2173 120.981C17.2307 121.131 17.2756 121.277 17.3609 121.419C17.4866 121.627 17.6662 121.791 17.8053 121.986C17.8278 122.017 17.8457 122.043 17.8592 122.074C17.8996 122.145 17.9265 122.22 17.9535 122.296C17.9939 122.424 18.0163 122.557 18.0343 122.69C18.0926 123.119 18.1959 123.495 18.4787 123.841C18.564 123.942 18.6582 124.035 18.7615 124.12C19.0084 124.323 19.2912 124.469 19.5964 124.567C19.9376 124.677 20.3012 124.722 20.6559 124.717C20.7187 124.717 20.786 124.713 20.8489 124.708C20.8534 124.708 20.8579 124.708 20.8579 124.708C21.4145 124.669 21.9532 124.527 22.4829 124.363C23.0036 124.204 23.5244 124.031 24.0406 123.85C25.3514 123.385 26.6667 122.818 27.8024 122.012C27.8697 121.972 27.9371 121.932 27.9999 121.893C28.0942 121.831 28.1885 121.764 28.2782 121.693C28.7855 121.414 29.1985 120.972 29.5621 120.525C29.6025 120.476 29.6384 120.427 29.6788 120.378C30.4016 119.657 30.9986 118.82 31.434 117.899C31.5732 117.651 31.6944 117.399 31.8066 117.142C32.0535 116.571 32.2421 115.978 32.3992 115.376C32.5159 114.928 32.6191 114.468 32.8167 114.047C32.8795 113.941 32.9513 113.839 33.0276 113.742C33.0366 113.729 33.0501 113.715 33.0591 113.698C33.1937 113.534 33.3419 113.392 33.5169 113.295C33.5439 113.281 33.5663 113.268 33.5933 113.255C33.6067 113.25 33.6247 113.246 33.6381 113.242C33.8626 113.184 34.1095 113.202 34.3339 113.273C34.5898 113.357 34.7963 113.503 34.9669 113.684C35.1554 113.888 35.2901 114.145 35.3844 114.41C35.4113 114.508 35.4338 114.605 35.4472 114.703C35.4562 114.769 35.4652 114.835 35.4742 114.902C35.4921 115.061 35.5011 115.221 35.5011 115.38C35.5056 116.146 35.3215 116.916 35.0208 117.629C34.9849 117.704 34.9445 117.78 34.9085 117.855C34.8637 117.926 34.8188 117.997 34.7694 118.067C34.6257 118.271 34.4641 118.461 34.2891 118.634C34.4596 118.267 34.6033 117.886 34.72 117.496C34.8233 117.155 34.8996 116.806 34.9534 116.451C34.9893 116.217 35.0387 115.925 35.0387 115.646C35.0387 115.5 35.0253 115.358 34.9893 115.225C34.9355 115.03 34.8367 114.862 34.6661 114.738C34.4686 114.596 34.1948 114.539 33.9793 114.672C33.7145 114.831 33.6157 115.19 33.5259 115.46C33.4317 115.747 33.3598 116.04 33.2925 116.332C33.2341 116.549 33.1803 116.766 33.1264 116.983C33.1174 117.018 33.1084 117.058 33.0995 117.093C33.0187 117.43 32.9423 117.766 32.8526 118.098C32.8077 118.267 32.7628 118.435 32.7134 118.599C32.5832 118.953 32.4351 119.303 32.2645 119.639C32.0221 120.117 31.7438 120.578 31.4251 121.007C31.2006 121.313 30.9537 121.605 30.6889 121.879C30.3028 122.242 29.8898 122.583 29.4723 122.902C29.3242 123.017 29.1716 123.128 29.0234 123.239C28.7182 123.402 28.4084 123.562 28.0942 123.717L28.0538 123.739C27.9685 123.779 27.8877 123.819 27.8024 123.858C27.4029 124.044 27.0034 124.221 26.5949 124.385C26.2043 124.54 25.8093 124.686 25.4142 124.824Z" fill="black"/>
<path d="M99.7187 62.6171C99.9375 61.9915 100.179 61.4086 100.521 60.8166C100.852 60.2421 101.215 59.7528 101.724 59.316C101.794 59.2558 101.836 59.2225 101.891 59.1821C101.954 59.1337 102.02 59.0861 102.086 59.0417C102.224 58.9512 102.363 58.871 102.508 58.7955C102.66 58.7185 102.774 58.6692 102.951 58.6118C103.125 58.5536 103.306 58.5104 103.487 58.491C103.851 58.456 104.185 58.5143 104.483 58.6817C104.77 58.8429 105.007 59.0926 105.186 59.3687C105.588 59.9885 105.706 60.7372 105.811 61.459C105.814 61.4835 105.817 61.5111 105.821 61.5356C105.834 61.6296 105.877 61.714 105.948 61.7652C105.974 61.7848 106.005 61.7958 106.04 61.8044C106.054 61.8281 106.075 61.8501 106.109 61.865C106.263 61.9499 106.41 62.0467 106.544 62.1569C107.113 62.6293 107.451 63.3007 107.536 64.0313C107.628 64.8037 107.494 65.5744 107.297 66.3232C106.887 67.8737 106.2 69.5142 106.741 71.1165C106.818 71.3438 106.921 71.5608 107.048 71.7635C107.115 71.8708 107.187 71.9725 107.267 72.0694C107.354 72.1782 107.453 72.2799 107.553 72.3752C107.426 72.2633 107.308 72.1468 107.19 72.027C107.178 72.0175 107.171 72.0057 107.16 71.9963C107.059 71.8907 106.961 71.7859 106.864 71.6748C106.812 71.6149 106.763 71.5557 106.714 71.4966C106.662 71.4336 106.652 71.421 106.597 71.3468C106.443 71.1442 106.297 70.9337 106.16 70.7184C105.986 70.4368 105.824 70.145 105.685 69.8451C105.665 69.8033 105.645 69.7647 105.628 69.7236C105.624 69.7126 105.619 69.7047 105.616 69.6936C105.613 69.6897 105.611 69.6858 105.609 69.6786C105.608 69.6715 105.598 69.6558 105.599 69.6526C105.585 69.6155 105.57 69.5816 105.556 69.5445C105.527 69.4735 105.498 69.4024 105.473 69.329C105.457 69.2848 105.441 69.2406 105.426 69.1964C105.421 69.1885 105.42 69.1783 105.415 69.1704C105.379 69.0638 105.342 68.9573 105.308 68.8515C105.207 68.5239 105.123 68.1939 105.054 67.8575C104.986 67.518 104.944 67.2321 104.913 66.8814C104.881 66.5441 104.864 66.2068 104.86 65.8663C104.854 64.9198 104.953 63.996 105.136 63.0758C105.138 63.0695 105.14 63.0632 105.141 63.0568C105.202 62.7556 105.273 62.4536 105.351 62.1532C105.37 62.1176 105.387 62.078 105.394 62.0393C105.397 62.0266 105.397 62.0132 105.397 61.9998C105.399 61.9935 105.396 61.9895 105.398 61.9832C105.4 61.9737 105.404 61.9611 105.406 61.9516C105.418 61.9041 105.431 61.8535 105.448 61.8037C105.496 61.6305 105.351 61.4437 105.165 61.4553C105.1 61.4594 105.031 61.4628 104.966 61.4669C104.106 61.5215 103.244 61.5958 102.402 61.7926C102.319 61.8126 102.236 61.8325 102.152 61.8557C102.152 61.8557 102.153 61.8525 102.149 61.8518C102.149 61.8549 102.145 61.8573 102.145 61.8573C101.457 62.0418 100.787 62.321 100.219 62.75C100.039 62.884 99.8755 63.0322 99.7232 63.1899C99.6214 63.296 99.5251 63.4069 99.4335 63.5257C99.5182 63.2237 99.6141 62.9176 99.7187 62.6171Z" fill="#CBA25B"/>
<path d="M99.4363 63.5286C99.5272 63.4127 99.6236 63.3017 99.7265 63.1921C99.879 63.0342 100.043 62.8857 100.223 62.7514C100.792 62.3216 101.464 62.0419 102.152 61.8571C102.155 61.8579 102.156 61.8547 102.159 61.8555C102.243 61.8323 102.326 61.8123 102.409 61.7923C103.253 61.5983 104.117 61.5207 104.978 61.466C105.044 61.4619 105.112 61.4585 105.178 61.4544C105.361 61.442 105.508 61.6331 105.461 61.8034C105.448 61.8541 105.435 61.9016 105.419 61.9516C105.417 61.9611 105.413 61.9737 105.411 61.9832C105.412 61.9904 105.412 61.9935 105.41 61.9999C105.41 62.0133 105.407 62.026 105.407 62.0394C105.4 62.0782 105.386 62.1187 105.364 62.1535C105.286 62.4545 105.215 62.7571 105.154 63.0588C105.152 63.0652 105.151 63.0715 105.149 63.0778C104.965 63.9997 104.866 64.9252 104.872 65.8734C104.876 66.2146 104.89 66.5517 104.925 66.8904C104.957 67.2385 105.001 67.5289 105.066 67.8683C105.132 68.2045 105.218 68.539 105.321 68.8641C105.355 68.97 105.392 69.0768 105.428 69.1835C105.433 69.1914 105.434 69.2017 105.439 69.2096C105.454 69.2539 105.47 69.2982 105.486 69.3425C105.514 69.4168 105.54 69.4871 105.569 69.5583C105.583 69.5955 105.598 69.6295 105.612 69.6666C105.611 69.6698 105.621 69.6856 105.623 69.6927C105.625 69.6967 105.627 69.7006 105.629 69.7077C105.633 69.7188 105.637 69.7267 105.641 69.7378C105.661 69.7797 105.678 69.8176 105.698 69.8595C105.838 70.1599 105.996 70.4515 106.174 70.7344C106.312 70.95 106.454 71.1602 106.612 71.3639C106.667 71.4382 106.678 71.4508 106.729 71.514C106.778 71.5732 106.827 71.6324 106.88 71.6925C106.976 71.8038 107.075 71.9088 107.176 72.0145C107.187 72.024 107.194 72.0359 107.206 72.0453C107.324 72.1653 107.446 72.2829 107.57 72.3941C107.76 72.5757 107.968 72.7413 108.183 72.895C108.788 73.3366 109.467 73.6718 110.18 73.9041C111.118 74.2117 112.124 74.3307 113.111 74.2496C113.406 74.2377 113.699 74.2052 113.991 74.1521C114.258 74.1031 114.518 74.039 114.774 73.9536C114.725 74.0392 114.669 74.1233 114.607 74.2058C114.602 74.2145 114.587 74.2312 114.586 74.2343C114.576 74.2486 114.562 74.2621 114.552 74.2764C114.547 74.2819 114.541 74.2906 114.533 74.2954C114.496 74.3098 114.46 74.3312 114.426 74.3567C114.408 74.3725 114.392 74.3853 114.375 74.398C114.271 74.4837 114.187 74.5473 114.06 74.6339C113.561 74.9765 113.061 75.2074 112.499 75.376C112.484 75.3793 112.471 75.3793 112.456 75.3825C112.418 75.3866 112.383 75.3914 112.345 75.3955C112.271 75.4044 112.195 75.4094 112.123 75.4151C111.944 75.4251 111.764 75.4248 111.587 75.415C110.914 75.3813 110.217 75.1933 109.571 74.9506C108.978 74.7275 108.361 74.4277 107.797 74.104C107.474 73.9204 107.166 73.7234 106.865 73.5114C106.862 73.5074 106.863 73.5043 106.861 73.5003C106.835 73.4806 106.811 73.4577 106.786 73.4348C106.785 73.4412 106.783 73.4475 106.778 73.4531C106.062 72.9438 105.409 72.3591 104.82 71.6888C104.411 71.2245 104.048 70.7245 103.722 70.1762C103.566 69.9122 103.419 69.6404 103.288 69.3621C103.16 69.095 103.058 68.8475 102.948 68.551C102.524 67.3824 102.331 66.2099 102.394 64.9655C102.399 64.8554 102.314 64.7504 102.216 64.7127C102.105 64.6687 101.992 64.6983 101.908 64.7753C101.744 64.9238 101.58 65.0723 101.414 65.2199C100.752 65.8155 100.089 66.411 99.4275 67.0065C99.3705 67.0565 99.3127 67.1097 99.2581 67.1637C99.1722 67.247 99.0951 67.3359 99.0401 67.4437C99.0356 67.4089 99.0302 67.3772 99.0224 67.3416C98.9041 66.5647 98.9466 65.743 99.0877 64.959C99.1808 64.4799 99.301 64.0007 99.4363 63.5286Z" fill="#FF9E18"/>
<path d="M99.2732 67.1558C99.3279 67.1018 99.3849 67.0517 99.4427 66.9985C100.105 66.4024 100.767 65.8063 101.43 65.2102C101.594 65.0616 101.757 64.913 101.924 64.7651C102.012 64.6888 102.122 64.6584 102.232 64.7024C102.331 64.7402 102.416 64.8453 102.411 64.9555C102.345 66.2003 102.537 67.3771 102.965 68.5446C103.072 68.8406 103.177 69.0891 103.305 69.3565C103.437 69.635 103.584 69.9071 103.739 70.1713C104.066 70.7202 104.429 71.2176 104.838 71.6854C105.428 72.3564 106.084 72.9424 106.797 73.4514C106.826 73.472 106.855 73.4925 106.884 73.5098C107.186 73.7189 107.495 73.9161 107.816 74.103C108.384 74.4278 109.002 74.7279 109.592 74.9505C110.238 75.1935 110.936 75.3816 111.609 75.4154C111.786 75.4252 111.966 75.4255 112.145 75.4154C112.221 75.4105 112.294 75.4047 112.367 75.3958C112.405 75.3917 112.441 75.3869 112.479 75.3828C112.493 75.3796 112.507 75.3796 112.521 75.3763C113.084 75.2076 113.584 74.9764 114.083 74.6335C114.211 74.5436 114.296 74.48 114.398 74.3973C114.415 74.3846 114.433 74.3687 114.45 74.356C114.481 74.3266 114.519 74.309 114.557 74.2946C114.562 74.2891 114.568 74.2804 114.576 74.2756C114.586 74.2613 114.6 74.2478 114.61 74.2335C114.614 74.2311 114.626 74.2105 114.631 74.2049C114.692 74.1255 114.745 74.0406 114.798 73.9525C114.957 73.9005 115.112 73.8407 115.265 73.7737C115.27 73.7784 115.279 73.7839 115.284 73.7887C115.046 74.054 114.794 74.309 114.517 74.5412C114.003 74.9815 113.378 75.3573 112.735 75.5873C112.055 75.8285 111.381 75.9326 110.664 75.9521C109.203 75.9879 107.768 75.6592 106.367 75.2409C104.933 74.8147 103.482 74.2595 102.327 73.2946C102.254 73.0777 102.151 72.8062 102.038 72.4952C102.036 72.488 102.035 72.4809 102.029 72.4762C101.893 72.0955 101.751 71.649 101.632 71.1613C101.571 70.9135 101.519 70.6546 101.472 70.3869C101.429 70.12 101.394 69.8484 101.369 69.5759C101.351 69.3454 101.339 69.1133 101.334 68.8859C101.331 68.8415 101.333 68.798 101.33 68.7536C101.333 68.481 101.341 68.2132 101.361 67.9517C101.4 67.4319 101.484 66.9467 101.58 66.5353C101.664 66.1848 101.754 65.8867 101.832 65.663C101.846 65.6226 101.859 65.5853 101.871 65.5512C101.893 65.4925 101.91 65.4394 101.929 65.3934C101.947 65.3474 101.96 65.3101 101.972 65.2792C101.994 65.2173 102.01 65.184 102.01 65.184C102.01 65.184 101.992 65.2134 101.957 65.2721C101.939 65.3015 101.916 65.3364 101.892 65.3776C101.868 65.4189 101.838 65.4689 101.811 65.5229C101.773 65.5879 101.734 65.6625 101.693 65.7435C101.591 65.941 101.478 66.183 101.363 66.4685C101.248 66.7573 101.135 67.0903 101.041 67.4551C101.004 67.5978 100.97 67.7445 100.937 67.8983C100.881 68.1678 100.84 68.4476 100.807 68.7329C100.777 69.019 100.762 69.3122 100.758 69.6077C100.76 69.9017 100.772 70.1948 100.799 70.4847C100.822 70.6859 100.85 70.8815 100.884 71.0755C100.9 71.1602 100.915 71.2449 100.932 71.3265C100.974 71.5324 101.025 71.7271 101.085 71.9171C100.98 71.7701 100.88 71.6174 100.781 71.4648C100.369 70.8242 99.9907 70.1613 99.6787 69.4642C99.395 68.828 99.1683 68.1417 99.0527 67.4456C99.1069 67.3274 99.1873 67.2393 99.2732 67.1558Z" fill="#FF4713"/>
<path d="M109.002 72.6289C109.137 72.6285 109.275 72.6216 109.41 72.6109C109.73 72.5812 110.048 72.5309 110.367 72.4775C110.523 72.4516 110.675 72.4248 110.828 72.3981C111.294 72.3164 111.76 72.2315 112.225 72.1363C112.565 72.0677 112.907 71.9928 113.248 71.9178C114.339 72.1212 115.462 72.157 116.508 71.694C116.634 71.6404 116.755 71.5789 116.87 71.5127C116.831 71.5842 116.788 71.6582 116.746 71.7289C116.512 72.1375 116.263 72.5391 115.99 72.9248C115.96 72.9479 115.928 72.9671 115.896 72.9894C115.293 73.3921 114.608 73.6396 113.904 73.7809C113.646 73.8325 113.382 73.8691 113.119 73.8923C112.269 73.9269 111.419 73.8029 110.613 73.5477C109.932 73.3335 109.263 73.0239 108.673 72.6126C108.759 72.6234 108.846 72.6279 108.934 72.6291C108.961 72.6291 108.982 72.6274 109.002 72.6289Z" fill="#E1251B"/>
<path d="M107.29 68.3075C107.295 68.3123 107.304 68.3178 107.31 68.3225C107.36 68.3787 107.41 68.4317 107.462 68.4815C108.214 69.2335 109.197 69.7482 110.237 69.9898C111.274 70.2307 112.363 70.1905 113.395 69.91C113.629 69.8458 113.855 69.7696 114.077 69.6855C113.694 70.0003 113.297 70.2912 112.877 70.5497C112.58 70.6491 112.279 70.7406 111.979 70.8257C111.47 70.9679 110.96 71.0926 110.446 71.2165C110.095 71.3026 109.72 71.3896 109.343 71.4456C109.135 71.4757 108.929 71.4962 108.722 71.4993C108.607 71.495 108.494 71.4874 108.381 71.4799C108.294 71.4722 108.205 71.4638 108.116 71.4554C107.915 71.4196 107.719 71.3615 107.531 71.2749C107.517 71.2511 107.507 71.225 107.493 71.2012C107.501 71.2202 107.515 71.2472 107.528 71.2741C107.461 71.2442 107.396 71.2079 107.334 71.1724C107.317 71.1447 107.305 71.1146 107.291 71.0877C107.083 70.648 107.012 70.1579 107.035 69.6739C107.058 69.2065 107.157 68.7547 107.29 68.3075Z" fill="#E1251B"/>
<path d="M98.9511 63.1513C99.165 62.4507 99.4141 61.7588 99.7332 61.0976C100.34 59.8447 101.247 58.6927 102.576 58.1558C103.34 57.8465 104.237 57.8153 104.932 58.306C105.607 58.7817 105.987 59.5241 106.18 60.3048C106.27 60.6667 106.327 61.0373 106.381 61.4103C107.142 61.9847 107.701 62.7949 107.957 63.7122C108.088 64.1783 108.142 64.6691 108.106 65.1513C108.069 65.6801 107.946 66.198 107.792 66.7048C107.673 67.1026 107.53 67.5011 107.4 67.8997C107.415 67.9067 107.432 67.921 107.442 67.9336C108.117 68.7152 109.022 69.2712 110.021 69.5575C110.937 69.8203 111.906 69.8538 112.843 69.6675C112.914 69.6516 112.99 69.6365 113.062 69.6206C113.224 69.5832 113.385 69.5388 113.544 69.4872C114.083 69.3173 114.601 69.0819 115.086 68.7911C115.244 68.6384 115.4 68.4817 115.555 68.3281C116.146 67.7306 116.712 67.1133 117.297 66.5142C117.905 65.8873 118.533 65.2415 119.307 64.8168C119.493 64.7146 119.685 64.6274 119.889 64.5568C119.913 64.5425 119.941 64.5291 119.968 64.5156C120.05 64.4617 120.131 64.4079 120.215 64.358C120.525 64.1552 120.876 63.9927 121.247 63.9732C121.756 63.9473 122.264 64.2809 122.355 64.744C122.407 64.8206 122.421 64.9114 122.383 65.0063C122.375 65.0245 122.363 65.0451 122.351 65.0625C122.341 65.117 122.324 65.17 122.299 65.2278C122.15 65.5844 121.821 65.8196 121.543 66.0706C121.26 66.327 121.001 66.6095 120.761 66.9071C120.283 67.5021 119.878 68.1523 119.454 68.7876C119.206 69.1571 118.947 69.5305 118.665 69.8881C118.605 70.0044 118.545 70.1175 118.488 70.2345C118.456 70.2939 118.427 70.354 118.396 70.4101C118.348 70.5027 118.297 70.5944 118.25 70.687C117.837 71.4629 117.363 72.2239 116.719 72.8286C116.35 73.3935 115.944 73.9291 115.476 74.419C114.958 74.9572 114.363 75.4362 113.697 75.7833C113.012 76.1391 112.271 76.3535 111.51 76.4518C109.997 76.6506 108.45 76.384 106.992 75.9978C105.455 75.5889 103.888 75.0717 102.568 74.1748C101.872 73.7007 101.276 73.1301 100.773 72.4581C100.292 71.8114 99.8675 71.1117 99.4946 70.3977C99.1335 69.7034 98.8253 68.9751 98.6267 68.2166C98.4171 67.4083 98.3393 66.5753 98.4109 65.7421C98.4883 64.86 98.6926 63.9989 98.9511 63.1513ZM115.884 72.9894C115.916 72.9704 115.945 72.9475 115.978 72.9253C116.249 72.5447 116.498 72.1453 116.732 71.7355C116.774 71.6651 116.812 71.5939 116.855 71.5204C116.737 71.5853 116.616 71.6464 116.493 71.7003C115.449 72.1593 114.326 72.1213 113.235 71.9165C112.897 71.9912 112.556 72.0652 112.213 72.1321C111.748 72.226 111.285 72.3104 110.816 72.39C110.664 72.4163 110.508 72.4418 110.355 72.4681C110.036 72.5207 109.718 72.5702 109.399 72.599C109.263 72.6127 109.126 72.616 108.991 72.6162C108.971 72.6146 108.95 72.6162 108.93 72.6147C108.842 72.6132 108.756 72.6054 108.67 72.5976C109.26 73.0087 109.93 73.3184 110.611 73.5332C111.417 73.789 112.267 73.9143 113.117 73.8816C113.38 73.8591 113.644 73.8232 113.902 73.7722C114.598 73.6346 115.283 73.3862 115.884 72.9894ZM113.384 69.9221C112.353 70.1994 111.268 70.238 110.227 69.9951C109.187 69.7523 108.202 69.2407 107.45 68.4869C107.399 68.434 107.348 68.3811 107.297 68.3282C107.292 68.3203 107.283 68.3148 107.279 68.3069C107.278 68.31 107.277 68.3132 107.277 68.3132C107.149 68.7592 107.05 69.209 107.027 69.6675C107.005 70.1497 107.077 70.638 107.286 71.0764C107.299 71.1064 107.316 71.1341 107.329 71.1609C107.394 71.2004 107.46 71.2335 107.523 71.2626L107.527 71.2634C107.715 71.3501 107.91 71.4083 108.111 71.4444C108.201 71.453 108.287 71.4608 108.376 71.4694C108.49 71.4771 108.603 71.4849 108.717 71.4894C108.922 71.486 109.13 71.4668 109.338 71.4372C109.715 71.3822 110.09 71.2963 110.441 71.2113C110.951 71.0881 111.464 70.9657 111.972 70.8251C112.275 70.7417 112.573 70.6504 112.87 70.552C113.289 70.2953 113.688 70.0071 114.067 69.6936C113.844 69.7832 113.615 69.8578 113.384 69.9221ZM99.086 64.9635C98.9459 65.7462 98.9079 66.5674 99.0243 67.3427C99.0289 67.3774 99.0344 67.409 99.0422 67.4446C99.1589 68.1392 99.3866 68.8242 99.6713 69.4593C99.9812 70.1544 100.364 70.817 100.776 71.4567C100.876 71.6091 100.976 71.7615 101.081 71.9084C101.024 71.7196 100.973 71.522 100.927 71.319C100.911 71.2376 100.895 71.153 100.88 71.0685C100.844 70.8749 100.817 70.6797 100.793 70.4789C100.766 70.1897 100.75 69.8965 100.75 69.604C100.751 69.3116 100.769 69.0167 100.798 68.7314C100.83 68.4468 100.872 68.1646 100.927 67.8989C100.959 67.7487 100.994 67.5993 101.031 67.4569C101.126 67.0972 101.236 66.7643 101.351 66.4732C101.465 66.1885 101.578 65.9473 101.679 65.7504C101.72 65.6697 101.763 65.5961 101.797 65.5305C101.828 65.4743 101.854 65.4269 101.878 65.3857C101.902 65.3446 101.925 65.3098 101.943 65.2805C101.978 65.222 101.996 65.1927 101.996 65.1927C101.996 65.1927 101.984 65.2267 101.958 65.2876C101.946 65.3185 101.929 65.358 101.915 65.4015C101.896 65.4474 101.879 65.5003 101.857 65.5589C101.845 65.5929 101.832 65.63 101.819 65.6704C101.741 65.8934 101.651 66.1907 101.568 66.5401C101.473 66.9505 101.392 67.4351 101.351 67.9529C101.331 68.2137 101.324 68.4809 101.322 68.7528C101.321 68.7963 101.323 68.8405 101.325 68.8848C101.331 69.1148 101.343 69.3432 101.362 69.5732C101.387 69.845 101.422 70.1193 101.466 70.3824C101.514 70.6463 101.566 70.9047 101.627 71.1552C101.747 71.6419 101.893 72.0883 102.026 72.4675C102.028 72.4746 102.03 72.4817 102.035 72.4865C102.148 72.8001 102.252 73.0679 102.325 73.2844C103.479 74.2479 104.934 74.8047 106.368 75.232C107.77 75.6514 109.205 75.9814 110.666 75.9478C111.382 75.9326 112.056 75.8298 112.736 75.587C113.382 75.3593 114.004 74.9846 114.517 74.546C114.791 74.3109 115.045 74.0608 115.283 73.7965C115.297 73.783 115.307 73.7688 115.317 73.7545C115.298 73.7632 115.28 73.7688 115.261 73.7775C115.108 73.8441 114.953 73.9036 114.794 73.9552C114.538 74.0401 114.277 74.1069 114.011 74.1523C113.719 74.2048 113.427 74.2337 113.131 74.2483C112.141 74.3271 111.133 74.2067 110.198 73.899C109.484 73.666 108.804 73.3302 108.198 72.8884C107.987 72.7321 107.775 72.5688 107.584 72.3873C107.483 72.2918 107.384 72.1868 107.296 72.081C107.216 71.9839 107.144 71.882 107.076 71.7746C106.949 71.5717 106.845 71.3544 106.768 71.1269C106.223 69.5231 106.906 67.8821 107.318 66.3324C107.517 65.5844 107.65 64.8136 107.554 64.0399C107.464 63.3081 107.127 62.6399 106.557 62.1633C106.423 62.0497 106.274 61.9558 106.12 61.8706C106.09 61.8533 106.065 61.8336 106.051 61.8099C106.016 61.8012 105.984 61.7902 105.959 61.7705C105.887 61.7192 105.845 61.6347 105.831 61.5406C105.828 61.5161 105.824 61.4917 105.821 61.464C105.714 60.7449 105.595 59.9926 105.191 59.3719C105.011 59.0955 104.773 58.8484 104.486 58.6836C104.187 58.5125 103.852 58.4568 103.487 58.4913C103.306 58.5073 103.125 58.5534 102.95 58.6114C102.776 58.6693 102.659 58.7177 102.506 58.7945C102.362 58.8667 102.222 58.9498 102.088 59.0378C102.022 59.0821 101.956 59.1296 101.892 59.1779C101.838 59.2183 101.799 59.2524 101.726 59.3117C101.216 59.7511 100.849 60.2393 100.523 60.8112C100.181 61.4028 99.9393 61.9857 99.7209 62.6112C99.6165 62.9117 99.5178 63.2169 99.4286 63.5245C99.2923 64.0021 99.1728 64.4804 99.086 64.9635Z" fill="black"/>
<defs>
<filter id="filter0_f_1220:7641" x="0.416944" y="19.1103" width="130.166" height="113.199" filterUnits="userSpaceOnUse" color-interpolation-filters="sRGB">
<feFlood flood-opacity="0" result="BackgroundImageFix"/>
<feBlend mode="normal" in="SourceGraphic" in2="BackgroundImageFix" result="shape"/>
<feGaussianBlur stdDeviation="3.79153" result="effect1_foregroundBlur_1220:7641"/>
</filter>
<filter id="filter1_d_1220:7641" x="16.5977" y="18.3936" width="114.879" height="114.879" filterUnits="userSpaceOnUse" color-interpolation-filters="sRGB">
<feFlood flood-opacity="0" result="BackgroundImageFix"/>
<feColorMatrix in="SourceAlpha" type="matrix" values="0 0 0 0 0 0 0 0 0 0 0 0 0 0 0 0 0 0 127 0" result="hardAlpha"/>
<feOffset dx="8"/>
<feGaussianBlur stdDeviation="4"/>
<feComposite in2="hardAlpha" operator="out"/>
<feColorMatrix type="matrix" values="0 0 0 0 0.366667 0 0 0 0 0.212698 0 0 0 0 0 0 0 0 0.4 0"/>
<feBlend mode="normal" in2="BackgroundImageFix" result="effect1_dropShadow_1220:7641"/>
<feBlend mode="normal" in="SourceGraphic" in2="effect1_dropShadow_1220:7641" result="shape"/>
</filter>
<linearGradient id="paint0_linear_1220:7641" x1="65.5" y1="12.3534" x2="65.5" y2="113.977" gradientUnits="userSpaceOnUse">
<stop stop-color="#F5E5BF" stop-opacity="0.52"/>
<stop offset="0.0001" stop-color="#F5E5BF" stop-opacity="0.69"/>
<stop offset="0.693003" stop-color="#F5E5BF" stop-opacity="0"/>
</linearGradient>
<linearGradient id="paint1_linear_1220:7641" x1="66.0369" y1="26.3936" x2="66.0369" y2="125.272" gradientUnits="userSpaceOnUse">
<stop stop-color="#FF9E18"/>
<stop offset="1" stop-color="#FF5814"/>
</linearGradient>
</defs>
</svg>
