<svg width="122" height="41" viewBox="0 0 122 41" fill="none" xmlns="http://www.w3.org/2000/svg">
<path fill-rule="evenodd" clip-rule="evenodd" d="M110.5 38C115.194 38 119 34.1944 119 29.5C119 24.8056 115.194 21 110.5 21C105.806 21 102 24.8056 102 29.5C102 34.1944 105.806 38 110.5 38ZM110.5 41C116.851 41 122 35.8513 122 29.5C122 23.1487 116.851 18 110.5 18C104.149 18 99 23.1487 99 29.5C99 35.8513 104.149 41 110.5 41Z" fill="#977541"/>
<path fill-rule="evenodd" clip-rule="evenodd" d="M74.6696 0.499998L73.5199 0.499998L73.5199 1.5L74.3307 1.5L75.0354 2.03979L75.6435 1.24591L74.6696 0.499998ZM69.5988 1.5L71.5594 1.5L71.5594 0.499998L69.5988 0.499997L69.5988 1.5ZM65.6778 1.5L67.6383 1.5L67.6383 0.499997L65.6778 0.499997L65.6778 1.5ZM61.7567 1.5L63.7173 1.5L63.7173 0.499997L61.7567 0.499997L61.7567 1.5ZM57.8357 1.5L59.7962 1.5L59.7962 0.499997L57.8357 0.499996L57.8357 1.5ZM53.9146 1.5L55.8752 1.5L55.8752 0.499996L53.9146 0.499996L53.9146 1.5ZM49.9936 1.5L51.9541 1.5L51.9541 0.499996L49.9936 0.499996L49.9936 1.5ZM46.0725 1.5L48.0331 1.5L48.0331 0.499996L46.0725 0.499995L46.0725 1.5ZM42.1515 1.5L44.112 1.5L44.112 0.499995L42.1515 0.499995L42.1515 1.5ZM38.2304 1.49999L40.191 1.49999L40.191 0.499995L38.2304 0.499995L38.2304 1.49999ZM34.3094 1.49999L36.2699 1.49999L36.2699 0.499995L34.3094 0.499994L34.3094 1.49999ZM30.3883 1.49999L32.3489 1.49999L32.3489 0.499994L30.3883 0.499994L30.3883 1.49999ZM26.4673 1.49999L28.4278 1.49999L28.4278 0.499994L26.4673 0.499994L26.4673 1.49999ZM22.5462 1.49999L24.5068 1.49999L24.5068 0.499994L22.5462 0.499993L22.5462 1.49999ZM18.6252 1.49999L20.5857 1.49999L20.5857 0.499993L18.6252 0.499993L18.6252 1.49999ZM14.7041 1.49999L16.6646 1.49999L16.6646 0.499993L14.7041 0.499993L14.7041 1.49999ZM10.7831 1.49999L12.7436 1.49999L12.7436 0.499993L10.7831 0.499992L10.7831 1.49999ZM6.86202 1.49999L8.82255 1.49999L8.82255 0.499992L6.86202 0.499992L6.86202 1.49999ZM2.94097 1.49999L4.9015 1.49999L4.9015 0.499992L2.94097 0.499992L2.94097 1.49999ZM0.00016013 1.49999L0.980446 1.49999L0.980446 0.499991L0.000160217 0.499991L0.00016013 1.49999ZM76.714 3.32551L78.3925 4.61122L79.0006 3.81734L77.3221 2.53163L76.714 3.32551ZM80.0711 5.89694L81.7497 7.18265L82.3578 6.38877L80.6792 5.10306L80.0711 5.89694ZM83.4283 8.46837L85.1068 9.75408L85.7149 8.9602L84.0363 7.67449L83.4283 8.46837ZM86.7854 11.0398L88.464 12.3255L89.0721 11.5316L87.3935 10.2459L86.7854 11.0398ZM90.1425 13.6112L91.8211 14.8969L92.4292 14.1031L90.7506 12.8174L90.1425 13.6112ZM93.4997 16.1827L95.1783 17.4684L95.7863 16.6745L94.1078 15.3888L93.4997 16.1827ZM96.8568 18.7541L97.6961 19.3969L98.3042 18.6031L97.4649 17.9602L96.8568 18.7541Z" fill="#7B6744"/>
</svg>
