<svg width="119" height="43" viewBox="0 0 119 43" fill="none" xmlns="http://www.w3.org/2000/svg">
<path fill-rule="evenodd" clip-rule="evenodd" d="M107.5 3C102.806 3 99 6.80558 99 11.5C99 16.1944 102.806 20 107.5 20C112.194 20 116 16.1944 116 11.5C116 6.80558 112.194 3 107.5 3ZM107.5 -1.00536e-06C101.149 -1.56061e-06 96 5.14872 96 11.5C96 17.8513 101.149 23 107.5 23C113.851 23 119 17.8513 119 11.5C119 5.14873 113.851 -4.50116e-07 107.5 -1.00536e-06Z" fill="#977541"/>
<path fill-rule="evenodd" clip-rule="evenodd" d="M74.7007 43L73.5197 43L73.5197 42L74.2992 42L74.8885 41.4357L75.5801 42.158L74.7007 43ZM69.5986 42L71.5591 42L71.5591 43L69.5986 43L69.5986 42ZM65.6775 42L67.6381 42L67.6381 43L65.6775 43L65.6775 42ZM61.7565 42L63.717 42L63.717 43L61.7565 43L61.7565 42ZM57.8354 42L59.796 42L59.796 43L57.8354 43L57.8354 42ZM53.9144 42L55.8749 42L55.8749 43L53.9144 43L53.9144 42ZM49.9933 42L51.9539 42L51.9539 43L49.9933 43L49.9933 42ZM46.0723 42L48.0328 42L48.0328 43L46.0723 43L46.0723 42ZM42.1512 42L44.1118 42L44.1118 43L42.1512 43L42.1512 42ZM38.2302 42L40.1907 42L40.1907 43L38.2302 43L38.2302 42ZM34.3091 42L36.2697 42L36.2697 43L34.3091 43L34.3091 42ZM30.3881 42L32.3486 42L32.3486 43L30.3881 43L30.3881 42ZM26.467 42L28.4276 42L28.4276 43L26.467 43L26.467 42ZM22.546 42L24.5065 42L24.5065 43L22.546 43L22.546 42ZM18.6249 42L20.5855 42L20.5855 43L18.6249 43L18.6249 42ZM14.7039 42L16.6644 42L16.6644 43L14.7039 43L14.7039 42ZM10.7828 42L12.7434 42L12.7434 43L10.7828 43L10.7828 42ZM6.86178 42L8.8223 42L8.8223 43L6.86178 43L6.86178 42ZM2.94073 42L4.90125 42L4.90125 43L2.94073 43L2.94073 42ZM-8.38359e-05 42L0.980202 42L0.980202 43L-8.39233e-05 43L-8.38359e-05 42ZM76.3573 40.0295L77.826 38.6232L78.5176 39.3455L77.0488 40.7518L76.3573 40.0295ZM79.2948 37.217L80.7635 35.8107L81.4551 36.533L79.9863 37.9393L79.2948 37.217ZM82.2323 34.4045L83.701 32.9982L84.3926 33.7205L82.9238 35.1268L82.2323 34.4045ZM85.1698 31.592L86.6385 30.1857L87.3301 30.908L85.8613 32.3143L85.1698 31.592ZM88.1073 28.7795L89.576 27.3732L90.2676 28.0955L88.7988 29.5018L88.1073 28.7795ZM91.0448 25.967L92.5135 24.5607L93.2051 25.283L91.7363 26.6893L91.0448 25.967ZM93.9823 23.1545L95.451 21.7482L96.1426 22.4705L94.6738 23.8768L93.9823 23.1545ZM96.9198 20.342L97.6541 19.6388L98.3457 20.3612L97.6113 21.0643L96.9198 20.342Z" fill="#7B6744"/>
</svg>
