<svg width="22" height="22" viewBox="0 0 22 22" fill="none" xmlns="http://www.w3.org/2000/svg">
<path d="M21.995 4.17794C21.1858 4.5375 20.3168 4.78019 19.4031 4.88813C20.3347 4.32988 21.0504 3.44575 21.3879 2.3925C20.5155 2.90881 19.5502 3.28556 18.5224 3.487C17.6988 2.61044 16.5259 2.0625 15.2272 2.0625C12.7351 2.0625 10.7159 4.08237 10.7159 6.57456C10.7159 6.92794 10.755 7.27306 10.832 7.60306C7.08174 7.41469 3.75699 5.61825 1.53086 2.88819C1.14311 3.55506 0.920363 4.32987 0.920363 5.15694C0.920363 6.72306 1.71718 8.10356 2.92718 8.91344C2.18811 8.88938 1.49236 8.68725 0.883926 8.349C0.883238 8.36756 0.883238 8.3875 0.883238 8.40537C0.883238 10.5923 2.43836 12.4163 4.50293 12.8308C4.1248 12.9333 3.72605 12.9889 3.31424 12.9889C3.02274 12.9889 2.74086 12.9607 2.46586 12.9085C3.03924 14.7001 4.70643 16.005 6.68024 16.0421C5.1368 17.2521 3.19118 17.9747 1.07711 17.9747C0.712738 17.9747 0.353176 17.9534 0.000488281 17.9114C1.99699 19.1902 4.36886 19.9375 6.91743 19.9375C15.2169 19.9375 19.7565 13.0618 19.7565 7.09844C19.7565 6.90319 19.751 6.70794 19.7427 6.51406C20.6248 5.87813 21.3893 5.08406 21.995 4.17794Z" fill="black"/>
</svg>
