<svg width="21" height="22" viewBox="0 0 21 22" fill="none" xmlns="http://www.w3.org/2000/svg">
<path fill-rule="evenodd" clip-rule="evenodd" d="M10.2433 0L10.6613 0.333913C11.9709 1.44653 13.0246 2.82904 13.7502 4.38677C14.0464 4.1015 14.2475 3.93646 14.2819 3.90913L14.6978 3.57522L15.1132 3.90913C15.2667 4.02991 18.8485 6.9455 18.9305 11.1006V11.1552C19.4693 11.1552 19.8169 11.1874 19.8672 11.1924L20.4 11.247L20.4547 11.7744C20.4754 11.9673 20.9285 16.5361 18.0173 19.5347C16.4269 21.1742 14.165 22 11.2827 22C10.9461 22 10.5974 21.9885 10.2444 21.9656C9.88859 21.988 9.5432 22 9.20601 22C6.32485 22 4.06452 21.1748 2.47256 19.5347C-0.436475 16.5388 0.0165744 11.9706 0.0373414 11.7777L0.0919909 11.2514L0.624288 11.1967C0.946483 11.1659 1.27017 11.1535 1.59378 11.1596V11.1049C1.67521 6.94823 5.25535 4.03428 5.40946 3.9135L5.8248 3.57959L6.24069 3.9135C6.27293 3.9381 6.46804 4.09658 6.75167 4.36819C7.4757 2.8189 8.52557 1.44412 9.82957 0.337738L10.2433 0ZM10.2433 1.72968C9.15041 2.76991 8.29803 4.03636 7.74576 5.44043C8.36674 6.18662 8.88809 7.01036 9.29673 7.89095C9.59348 7.60567 9.79569 7.44063 9.83121 7.41276L10.2466 7.07994L10.6619 7.41276C10.6941 7.44063 10.9073 7.61332 11.2171 7.91171C11.6208 7.03308 12.1372 6.21078 12.7534 5.46557C12.2014 4.05107 11.3446 2.77554 10.2438 1.72968H10.2433ZM14.6973 5.30107C13.61 6.33555 12.7606 7.59406 12.2079 8.98942C13.0047 9.94826 13.6268 11.0396 14.0458 12.2138C15.1676 11.6842 16.3715 11.3497 17.6058 11.2246V11.1279C17.5571 8.36476 15.5804 6.15088 14.6973 5.29943V5.30107ZM5.82261 5.29943C4.94165 6.15088 2.96331 8.36476 2.91631 11.1279V11.2273C4.13921 11.3541 5.3317 11.6877 6.4429 12.2138C6.86645 11.0289 7.49625 9.92819 8.30319 8.96264C7.74871 7.57809 6.90248 6.32924 5.82207 5.30107L5.82261 5.29943ZM10.2422 8.80525C9.36012 9.6567 7.38288 11.8706 7.33369 14.6337C7.29872 16.635 8.27586 18.5773 10.2422 20.4168C12.2096 18.5773 13.1873 16.635 13.1507 14.6337C13.1026 11.8706 11.1242 9.6567 10.2422 8.80525V8.80525ZM19.1611 12.4635C17.5025 12.4258 15.8594 12.7894 14.3716 13.5232C14.4314 13.8789 14.4647 14.2386 14.471 14.5993C14.5136 16.7257 13.6316 18.7614 11.8505 20.6654C14.0819 20.5671 15.8296 19.8818 17.0587 18.6221C18.9961 16.6333 19.1791 13.6839 19.1611 12.4624V12.4635ZM1.32107 12.4624C1.30687 13.6839 1.48995 16.6333 3.42675 18.6221C4.6542 19.8839 6.40027 20.5671 8.63219 20.6654C6.85059 18.7598 5.96744 16.7246 6.00897 14.5993C6.01561 14.2385 6.0494 13.8788 6.11008 13.5232C4.62203 12.7893 2.97872 12.4258 1.31998 12.4635" fill="black"/>
</svg>
