<svg width="39" height="72" viewBox="0 0 39 72" fill="none" xmlns="http://www.w3.org/2000/svg">
<path fill-rule="evenodd" clip-rule="evenodd" d="M18.4469 54.0416C19.0285 54.6315 19.9715 54.6315 20.5531 54.0416L37.053 37.3048C37.6346 36.7149 37.6346 35.7584 37.053 35.1685C36.4714 34.5785 35.5284 34.5785 34.9468 35.1685L19.5 50.837L4.05315 35.1685C3.47155 34.5785 2.5286 34.5785 1.947 35.1685C1.3654 35.7584 1.3654 36.7149 1.947 37.3048L18.4469 54.0416Z" fill="white" fill-opacity="0.7"/>
<path fill-rule="evenodd" clip-rule="evenodd" d="M18.4469 37.5414C19.0285 38.1314 19.9715 38.1314 20.5531 37.5414L37.053 20.8047C37.6346 20.2148 37.6346 19.2583 37.053 18.6683C36.4714 18.0784 35.5284 18.0784 34.9469 18.6683L19.5 34.3369L4.05315 18.6683C3.47155 18.0784 2.52859 18.0784 1.947 18.6683C1.3654 19.2583 1.3654 20.2148 1.947 20.8047L18.4469 37.5414Z" fill="white" fill-opacity="0.46"/>
<path fill-rule="evenodd" clip-rule="evenodd" d="M18.4469 70.0682C19.0285 70.6581 19.9715 70.6581 20.5531 70.0682L37.053 53.3314C37.6346 52.7415 37.6346 51.785 37.053 51.1951C36.4714 50.6051 35.5284 50.6051 34.9469 51.1951L19.5 66.8636L4.05315 51.1951C3.47155 50.6051 2.52859 50.6051 1.947 51.1951C1.3654 51.785 1.3654 52.7415 1.947 53.3314L18.4469 70.0682Z" fill="white"/>
</svg>
