<svg width="42" height="42" viewBox="0 0 42 42" fill="none" xmlns="http://www.w3.org/2000/svg">
<path d="M42 21C42 32.598 32.598 42 21 42C9.40202 42 0 32.598 0 21C0 9.40202 9.40202 0 21 0C32.598 0 42 9.40202 42 21Z" fill="#FFC627"/>
<path d="M21.241 35.1918C29.0307 35.156 35.3391 28.7895 35.3034 20.9998C35.2676 13.2101 28.9011 6.90178 21.1114 6.93752C13.3217 6.97326 7.01336 13.3398 7.0491 21.1295C7.08484 28.9192 13.4513 35.2275 21.241 35.1918ZM21.1244 9.76294C27.3558 9.73436 32.4493 14.7813 32.4779 21.0128C32.5065 27.2443 27.4596 32.3378 21.2281 32.3663C14.9966 32.3949 9.90312 27.348 9.87453 21.1165C9.84594 14.885 14.8929 9.79153 21.1244 9.76294Z" fill="#505050"/>
<path d="M23.3771 15.3112L16.3126 21.0709L23.4297 26.7656L23.3771 15.3112Z" fill="#505050"/>
</svg>
