<svg width="42" height="42" viewBox="0 0 42 42" fill="none" xmlns="http://www.w3.org/2000/svg">
<path d="M1.83588e-06 21C2.84981e-06 9.40202 9.40202 -2.84981e-06 21 -1.83588e-06C32.598 -8.21951e-07 42 9.40202 42 21C42 32.598 32.598 42 21 42C9.40202 42 8.21951e-07 32.598 1.83588e-06 21Z" fill="#FFC627"/>
<path d="M20.759 6.80823C12.9693 6.84397 6.66091 13.2105 6.69665 21.0002C6.73239 28.7899 13.0989 35.0982 20.8886 35.0625C28.6783 35.0267 34.9866 28.6602 34.9509 20.8705C34.9152 13.0808 28.5487 6.7725 20.759 6.80823ZM20.8756 32.2371C14.6441 32.2656 9.55066 27.2187 9.52207 20.9872C9.49348 14.7557 14.5404 9.66225 20.7719 9.63366C27.0034 9.60507 32.0969 14.652 32.1255 20.8835C32.1541 27.115 27.1071 32.2085 20.8756 32.2371Z" fill="#505050"/>
<path d="M18.6229 26.6888L25.6874 20.9291L18.5703 15.2344L18.6229 26.6888Z" fill="#505050"/>
</svg>
