<svg width="29" height="29" viewBox="0 0 29 29" fill="none" xmlns="http://www.w3.org/2000/svg">
<g clip-path="url(#clip0)">
<path d="M26.4512 4.77246H9.3457C7.93988 4.77246 6.79688 5.91604 6.79688 7.32129C6.79688 8.72711 7.93988 9.87012 9.3457 9.87012H26.4512C27.8564 9.87012 29 8.72711 29 7.32129C29 5.91604 27.8564 4.77246 26.4512 4.77246Z" fill="black"/>
<path d="M26.4512 13.2686H9.3457C7.93988 13.2686 6.79688 14.4121 6.79688 15.8174C6.79688 17.2232 7.93988 18.3662 9.3457 18.3662H26.4512C27.8564 18.3662 29 17.2232 29 15.8174C29 14.4121 27.8564 13.2686 26.4512 13.2686Z" fill="black"/>
<path d="M26.4512 21.7646H9.3457C7.93988 21.7646 6.79688 22.9082 6.79688 24.3135C6.79688 25.7193 7.93988 26.8623 9.3457 26.8623H26.4512C27.8564 26.8623 29 25.7193 29 24.3135C29 22.9082 27.8564 21.7646 26.4512 21.7646Z" fill="black"/>
<path d="M2.54883 4.77246C1.14301 4.77246 0 5.91604 0 7.32129C0 8.72711 1.14301 9.87012 2.54883 9.87012C3.95408 9.87012 5.09766 8.72711 5.09766 7.32129C5.09766 5.91604 3.95408 4.77246 2.54883 4.77246Z" fill="black"/>
<path d="M2.54883 13.2686C1.14301 13.2686 0 14.4121 0 15.8174C0 17.2232 1.14301 18.3662 2.54883 18.3662C3.95408 18.3662 5.09766 17.2232 5.09766 15.8174C5.09766 14.4121 3.95408 13.2686 2.54883 13.2686Z" fill="black"/>
<path d="M2.54883 21.7646C1.14301 21.7646 0 22.9082 0 24.3135C0 25.7193 1.14301 26.8623 2.54883 26.8623C3.95408 26.8623 5.09766 25.7193 5.09766 24.3135C5.09766 22.9082 3.95408 21.7646 2.54883 21.7646Z" fill="black"/>
</g>
<defs>
<clipPath id="clip0">
<rect width="29" height="29" fill="white"/>
</clipPath>
</defs>
</svg>
