<svg width="34" height="34" viewBox="0 0 34 34" fill="none" xmlns="http://www.w3.org/2000/svg">
<path d="M12.9936 23.0097L17 19.0034L21.0063 23.0097L23.0095 21.0066L19.0031 17.0002L23.0095 12.9939L21.0063 10.9907L17 14.9971L12.9936 10.9907L10.9905 12.9939L14.9968 17.0002L10.9905 21.0066L12.9936 23.0097Z" fill="#FFC627"/>
<path d="M16.9999 31.1668C24.8114 31.1668 31.1666 24.8117 31.1666 17.0002C31.1666 9.18866 24.8114 2.8335 16.9999 2.8335C9.18842 2.8335 2.83325 9.18866 2.83325 17.0002C2.83325 24.8117 9.18842 31.1668 16.9999 31.1668ZM16.9999 5.66683C23.2488 5.66683 28.3333 10.7512 28.3333 17.0002C28.3333 23.2491 23.2488 28.3335 16.9999 28.3335C10.751 28.3335 5.66659 23.2491 5.66659 17.0002C5.66659 10.7512 10.751 5.66683 16.9999 5.66683Z" fill="#FFC627"/>
</svg>
