<svg width="23" height="21" viewBox="0 0 23 21" fill="none" xmlns="http://www.w3.org/2000/svg">
<path d="M11.5 20.4626C11.1725 20.4626 10.8569 20.344 10.6108 20.1285C9.6817 19.3161 8.78589 18.5526 7.99555 17.8791L7.99152 17.8756C5.67436 15.9009 3.67341 14.1957 2.28118 12.5158C0.72489 10.6379 0 8.85733 0 6.91218C0 5.0223 0.648032 3.27877 1.8246 2.00253C3.0152 0.711205 4.64888 0 6.42522 0C7.75287 0 8.96874 0.419739 10.039 1.24746C10.5791 1.66527 11.0687 2.17661 11.5 2.77305C11.9315 2.17661 12.4209 1.66527 12.9612 1.24746C14.0314 0.419739 15.2473 0 16.5749 0C18.3511 0 19.9849 0.711205 21.1755 2.00253C22.3521 3.27877 23 5.0223 23 6.91218C23 8.85733 22.2752 10.6379 20.7189 12.5157C19.3267 14.1957 17.3259 15.9008 15.0091 17.8752C14.2174 18.5498 13.3202 19.3145 12.3889 20.1289C12.1431 20.344 11.8272 20.4626 11.5 20.4626V20.4626ZM6.42522 1.34731C5.02966 1.34731 3.74764 1.90427 2.81498 2.91571C1.86847 3.94242 1.34713 5.36167 1.34713 6.91218C1.34713 8.54814 1.95515 10.0113 3.31842 11.6562C4.63607 13.2462 6.59596 14.9163 8.86521 16.8503L8.86942 16.8538C9.66275 17.5299 10.5621 18.2964 11.498 19.1148C12.4397 18.2948 13.3404 17.5271 14.1353 16.8499C16.4043 14.916 18.3641 13.2462 19.6817 11.6562C21.0448 10.0113 21.6528 8.54814 21.6528 6.91218C21.6528 5.36167 21.1315 3.94242 20.185 2.91571C19.2525 1.90427 17.9703 1.34731 16.5749 1.34731C15.5526 1.34731 14.614 1.67229 13.7852 2.31313C13.0466 2.88448 12.5321 3.60674 12.2305 4.11211C12.0754 4.37199 11.8023 4.52711 11.5 4.52711C11.1976 4.52711 10.9246 4.37199 10.7695 4.11211C10.468 3.60674 9.95351 2.88448 9.21476 2.31313C8.38599 1.67229 7.44737 1.34731 6.42522 1.34731V1.34731Z" fill="white"/>
</svg>
