<svg width="28" height="28" viewBox="0 0 28 28" fill="none" xmlns="http://www.w3.org/2000/svg">
<path fill-rule="evenodd" clip-rule="evenodd" d="M12.5998 2.79995C7.18747 2.79995 2.79995 7.18747 2.79995 12.5998C2.79995 18.012 7.18747 22.3996 12.5998 22.3996C18.012 22.3996 22.3996 18.012 22.3996 12.5998C22.3996 7.18747 18.012 2.79995 12.5998 2.79995ZM0 12.5998C0 5.6411 5.6411 0 12.5998 0C19.5584 0 25.1995 5.6411 25.1995 12.5998C25.1995 19.5584 19.5584 25.1995 12.5998 25.1995C5.6411 25.1995 0 19.5584 0 12.5998Z" fill="white"/>
<path fill-rule="evenodd" clip-rule="evenodd" d="M19.5194 19.5204C20.0661 18.9737 20.9526 18.9737 21.4993 19.5204L27.5892 25.6103C28.1359 26.157 28.1359 27.0434 27.5892 27.5901C27.0424 28.1369 26.156 28.1369 25.6093 27.5901L19.5194 21.5003C18.9727 20.9535 18.9727 20.0671 19.5194 19.5204Z" fill="white"/>
</svg>
