<svg width="23" height="22" viewBox="0 0 23 22" fill="none" xmlns="http://www.w3.org/2000/svg">
<path d="M11.0461 0C4.94555 0 0 4.94555 0 11.0461C0 16.5175 3.98232 21.0488 9.20379 21.9262V13.3506H6.53916V10.2645H9.20379V7.98902C9.20379 5.34876 10.8164 3.90998 13.172 3.90998C14.3002 3.90998 15.2698 3.99405 15.5512 4.03107V6.79084L13.9174 6.79163C12.6366 6.79163 12.3897 7.40014 12.3897 8.2934V10.263H15.4458L15.0472 13.349H12.3897V22C17.8549 21.3348 22.092 16.6881 22.092 11.0429C22.092 4.94555 17.1464 0 11.0461 0Z" fill="black"/>
</svg>
