<svg width="22" height="22" viewBox="0 0 22 22" fill="none" xmlns="http://www.w3.org/2000/svg">
<g clip-path="url(#clip0)">
<path d="M10.6071 0C4.74988 0 0 4.9258 0 11C0 17.0742 4.74988 22 10.6071 22C16.4644 22 21.2143 17.0742 21.2143 11C21.2143 4.9258 16.4644 0 10.6071 0ZM15.4502 8.57663C15.4549 8.68489 15.4572 8.79366 15.4572 8.90292C15.4572 12.2392 13.0084 16.0864 8.53009 16.0866H8.53026H8.53009C7.15516 16.0866 5.87572 15.6687 4.79827 14.9525C4.98877 14.9758 5.18267 14.9874 5.37899 14.9874C6.51973 14.9874 7.5695 14.5839 8.40288 13.9066C7.33708 13.8861 6.43848 13.1562 6.12837 12.1529C6.27679 12.1825 6.42941 12.1986 6.58593 12.1986C6.80815 12.1986 7.02341 12.1675 7.22799 12.1096C6.11396 11.8783 5.27476 10.8573 5.27476 9.63473C5.27476 9.62332 5.27476 9.61308 5.27509 9.60251C5.60316 9.79167 5.97833 9.90547 6.37778 9.91823C5.72406 9.46588 5.29435 8.69261 5.29435 7.81662C5.29435 7.35403 5.41493 6.92065 5.62404 6.54753C6.82466 8.07527 8.61895 9.08 10.6424 9.18558C10.6007 9.00061 10.5791 8.80792 10.5791 8.60986C10.5791 7.21607 11.6695 6.08528 13.014 6.08528C13.7144 6.08528 14.3469 6.39227 14.7912 6.88306C15.3459 6.76959 15.8667 6.55945 16.3372 6.27025C16.1551 6.85956 15.7693 7.35403 15.2665 7.66673C15.7591 7.60564 16.2284 7.47018 16.6646 7.2691C16.3388 7.7755 15.9256 8.22029 15.4502 8.57663V8.57663Z" fill="black"/>
</g>
<defs>
<clipPath id="clip0">
<rect width="21.2143" height="22" fill="white"/>
</clipPath>
</defs>
</svg>
