<svg width="400" height="151" viewBox="0 0 400 151" fill="none" xmlns="http://www.w3.org/2000/svg">
<path d="M73.9267 121.287H0V87.9133L73.9267 0.0273438H109.305V89.8085H127.638V121.287H109.305V148.598H73.9267V121.287ZM73.9267 89.8085V43.8367L34.8555 89.8085H73.9267Z" fill="#FFC627"/>
<path d="M140.285 74.9594C140.285 47.1867 145.282 27.7483 155.277 16.6441C165.271 5.53995 180.502 -0.00809048 200.969 8.85497e-06C210.794 8.85497e-06 218.865 1.21491 225.182 3.64471C230.921 5.71261 236.176 8.93342 240.624 13.1088C244.372 16.6878 247.548 20.8223 250.039 25.3671C252.504 30.1123 254.361 35.1493 255.567 40.359C258.314 51.4885 259.684 62.9129 259.649 74.3762C259.649 100.877 255.166 120.271 246.2 132.558C237.234 144.845 221.793 150.992 199.876 151C187.581 151 177.647 149.04 170.074 145.12C162.44 141.136 156.01 135.184 151.45 127.88C147.927 122.502 145.185 115.144 143.225 105.806C141.19 95.6516 140.205 85.3151 140.285 74.9594ZM180.547 75.0566C180.547 93.685 182.187 106.389 185.467 113.168C188.747 119.947 193.514 123.353 199.766 123.385C201.751 123.408 203.72 123.036 205.559 122.291C207.398 121.547 209.072 120.444 210.482 119.048C213.511 116.157 215.738 111.589 217.164 105.344C218.589 99.0994 219.302 89.3802 219.302 76.1864C219.302 56.7966 217.658 43.7607 214.369 37.0788C211.081 30.3968 206.149 27.0599 199.572 27.068C192.866 27.068 188.006 30.4738 184.993 37.2853C181.98 44.0969 180.498 56.6873 180.547 75.0566Z" fill="#FFC627"/>
<path d="M346.138 121.284H272.211V87.9104L346.138 0.0244141H381.516V89.8056H399.909V121.284H381.516V148.595H346.138V121.284ZM346.138 89.8056V43.8337L307.079 89.8056H346.138Z" fill="#FFC627"/>
</svg>
