<svg width="170" height="48" viewBox="0 0 170 48" fill="none" xmlns="http://www.w3.org/2000/svg">
<path d="M38.6123 0L0 23.8157L38.6123 47.6315L77.4653 23.8157L38.6123 0Z" fill="#EA0029"/>
<path d="M38.6123 0L0 23.8157L38.6123 47.6315L77.4653 23.8157L38.6123 0ZM2.69612 23.8157L38.6176 1.65833L74.7692 23.8211L38.6176 45.9785L2.69612 23.8157Z" fill="white"/>
<path d="M40.4899 14.6791H39.0509L38.5159 13.3311L37.9756 14.6791H36.5366L37.7081 15.7918L37.2106 17.2789L38.5159 16.3481L39.8158 17.2789L39.3183 15.7918L40.4899 14.6791Z" fill="white"/>
<path d="M25.7627 17.1774C25.9071 17.1774 25.9499 17.1346 25.9499 17.0383V15.8882C25.9499 15.7919 25.9125 15.7491 25.7627 15.7491V15.6475H26.5009C26.977 15.6475 27.1696 16.0968 27.1696 16.4606C27.1696 16.8243 26.977 17.2737 26.5009 17.2737H25.7627V17.1774ZM26.2869 17.033C26.2869 17.1346 26.3244 17.1774 26.4528 17.1774C26.6828 17.1774 26.7951 16.9474 26.7951 16.4606C26.7951 15.9791 26.6881 15.7438 26.4528 15.7438C26.3244 15.7438 26.2869 15.7919 26.2869 15.8882V17.033Z" fill="white"/>
<path d="M27.7417 17.279V17.1774C27.8915 17.1774 27.9289 17.1346 27.9289 17.0383V15.8882C27.9289 15.7919 27.8915 15.7491 27.7417 15.7491V15.6475H28.9667V16.2733H28.8865C28.849 16.0487 28.742 15.7491 28.4264 15.7491C28.3034 15.7491 28.2659 15.7919 28.2659 15.8882V16.3696C28.4853 16.3696 28.5495 16.3001 28.5869 16.0861H28.6725V16.7548H28.5869C28.5441 16.5515 28.4853 16.482 28.2659 16.482V17.0437C28.2659 17.14 28.3034 17.1828 28.4425 17.1828C28.7795 17.1828 28.8865 16.8083 28.9186 16.6318H29.0042V17.279H27.7417V17.279Z" fill="white"/>
<path d="M30.6518 16.2625H30.5663C30.5395 16.0164 30.4325 15.7115 30.1918 15.7115C30.0581 15.7115 29.9564 15.8185 29.9564 15.9629C29.9564 16.332 30.7535 16.2036 30.7535 16.76C30.7535 17.097 30.5556 17.3163 30.2185 17.3163C30.0206 17.3163 29.919 17.1826 29.8655 17.1826C29.8227 17.1826 29.8013 17.2414 29.7852 17.2842H29.6996V16.6423H29.7852C29.828 16.8028 29.9029 17.1986 30.2025 17.2147C30.3523 17.2254 30.4807 17.1184 30.4807 16.9098C30.4807 16.5299 29.6836 16.6316 29.6836 16.102C29.6836 15.9094 29.8066 15.6045 30.1597 15.6045C30.3683 15.6045 30.4807 15.7329 30.4967 15.7329C30.5181 15.7329 30.5342 15.7008 30.577 15.6419H30.6518V16.2625V16.2625Z" fill="white"/>
<path d="M31.3149 17.1774C31.4594 17.1774 31.4968 17.1346 31.4968 17.0383V15.8882C31.4968 15.7919 31.4594 15.7491 31.3149 15.7491V15.6475H32.0532C32.5293 15.6475 32.7218 16.0968 32.7218 16.4606C32.7218 16.8243 32.5293 17.2737 32.0532 17.2737H31.3149V17.1774ZM31.8392 17.033C31.8392 17.1346 31.8766 17.1774 32.005 17.1774C32.2404 17.1774 32.3474 16.9474 32.3474 16.4606C32.3474 15.9791 32.2404 15.7438 32.005 15.7438C31.8766 15.7438 31.8392 15.7919 31.8392 15.8882V17.033Z" fill="white"/>
<path d="M33.2949 17.279V17.1774C33.4394 17.1774 33.4822 17.1346 33.4822 17.0383V15.8882C33.4822 15.7919 33.4447 15.7491 33.2949 15.7491V15.6475H34.5199V16.2733H34.4344C34.3969 16.0487 34.2899 15.7491 33.9743 15.7491C33.8513 15.7491 33.8138 15.7919 33.8138 15.8882V16.3696C34.0331 16.3696 34.0973 16.3001 34.1348 16.0861H34.2204V16.7548H34.1348C34.092 16.5515 34.0331 16.482 33.8138 16.482V17.0437C33.8138 17.14 33.8513 17.1828 33.9903 17.1828C34.322 17.1828 34.4344 16.8083 34.4664 16.6318H34.552V17.279H33.2949V17.279Z" fill="white"/>
<path d="M43.0416 17.0222V15.6367H42.9507H42.9454C42.8277 15.7223 42.6939 15.7598 42.5174 15.7598H42.5121V15.8721H42.5174C42.7046 15.8774 42.7314 15.8935 42.7314 15.9951V17.0169C42.7314 17.1185 42.6618 17.1613 42.48 17.1613H42.4746V17.2736H43.2984V17.1613H43.2931C43.1379 17.1613 43.0416 17.1399 43.0416 17.0222Z" fill="white"/>
<path d="M48.2629 17.0222V15.6367H48.1666C48.0489 15.7223 47.9151 15.7598 47.7386 15.7598H47.7333V15.8721H47.7386C47.9258 15.8774 47.9526 15.8935 47.9526 15.9951V17.0169C47.9526 17.1185 47.8884 17.1613 47.7065 17.1613H47.7012V17.2736H48.525V17.1613H48.5196C48.3592 17.1613 48.2629 17.1399 48.2629 17.0222Z" fill="white"/>
<path d="M45.475 15.6094C45.1968 15.6094 44.9668 15.8608 44.9668 16.1657C44.9668 16.4225 45.1112 16.6953 45.3787 16.6953C45.4696 16.6953 45.5552 16.6579 45.6301 16.583C45.6355 16.6311 45.6355 16.6686 45.6355 16.6953C45.6355 17.0484 45.5445 17.2089 45.352 17.2142C45.3252 17.2142 45.245 17.2249 45.2182 17.1928C45.3038 17.1714 45.352 17.1072 45.352 17.0056C45.352 16.92 45.3038 16.829 45.1968 16.829C45.0791 16.829 45.0149 16.9039 45.0149 17.0377C45.0149 17.1928 45.1326 17.3212 45.3573 17.3212C45.796 17.3212 45.9992 16.8397 45.9992 16.3904C45.9939 16.032 45.8548 15.6094 45.475 15.6094ZM45.3252 16.1657C45.3252 15.8661 45.3734 15.7164 45.4803 15.7164C45.5766 15.7164 45.6248 15.8608 45.6248 16.1764C45.6248 16.4332 45.5659 16.5669 45.4589 16.5669C45.3627 16.5669 45.3252 16.4546 45.3252 16.1657Z" fill="white"/>
<path d="M51.1244 16.6423V16.653C51.0923 16.8082 51.0602 16.9686 50.8944 16.9686H50.4611C50.4985 16.867 50.5841 16.7868 50.8302 16.6049L50.8409 16.5995C51.0442 16.4497 51.2046 16.3374 51.2046 16.0806C51.2046 15.8025 51.0174 15.6152 50.7339 15.6152C50.4611 15.6152 50.2578 15.8025 50.2578 16.0592C50.2578 16.2144 50.3273 16.3053 50.445 16.3053C50.5413 16.3053 50.6055 16.2251 50.6055 16.1074C50.6055 16.0218 50.5467 15.9255 50.4557 15.9255C50.4343 15.9255 50.4129 15.9309 50.3969 15.9362C50.4183 15.8239 50.5199 15.7383 50.6376 15.7383C50.7927 15.7383 50.8462 15.9041 50.8462 16.0539C50.8462 16.2679 50.7232 16.423 50.5627 16.6156C50.4985 16.6958 50.429 16.7814 50.3594 16.8831C50.2578 17.0382 50.2524 17.0863 50.2524 17.2682V17.2736H51.1886L51.21 16.6477V16.6423H51.1244V16.6423Z" fill="white"/>
<path d="M20.686 20.2483C20.0922 19.7295 19.3166 19.478 18.3804 19.478H12.8384V19.7081V20.5051H13.919C14.0153 20.5051 14.0741 20.5319 14.1276 20.5854C14.1757 20.6335 14.1971 20.671 14.1971 20.7779V27.6413C14.1971 27.759 14.1757 27.8018 14.1329 27.8446C14.0955 27.882 14.0099 27.9248 13.8601 27.9248H12.8384V28.9519H18.1022V27.9248H16.8505C16.7381 27.9248 16.6739 27.8927 16.6204 27.8446C16.5776 27.7964 16.5562 27.7536 16.5509 27.6413V24.9345H18.0327C18.5783 24.9345 19.1293 24.8382 19.6857 24.6563C20.2474 24.4691 20.7128 24.1588 21.0605 23.7308C21.4135 23.2975 21.5954 22.7733 21.5901 22.1902C21.5954 21.4252 21.2798 20.7565 20.686 20.2483ZM19.0063 23.1745C18.9046 23.3617 18.7228 23.5383 18.4392 23.6934C18.1611 23.8432 17.8455 23.9234 17.4817 23.9234H16.5616V20.7191C16.5669 20.6121 16.5776 20.6068 16.6151 20.5747C16.6365 20.5479 16.8986 20.4944 17.2891 20.4998C17.9738 20.4998 18.4392 20.6121 18.6693 20.7833C18.9956 21.0294 19.1721 21.4466 19.1721 22.1367C19.1721 22.6502 19.0972 23.0033 19.0063 23.1745Z" fill="white"/>
<path d="M35.7495 28.9465V25.2394H34.7812C34.5619 26.2237 34.257 26.8817 33.8718 27.2936C33.4706 27.7215 33.0747 27.9141 32.6468 27.9141H31.7534C31.4485 27.9248 31.2666 27.8553 31.2666 27.8499C31.2666 27.8499 31.2559 27.8446 31.2399 27.7857C31.2238 27.7269 31.2185 27.6359 31.2185 27.5129V20.8154C31.2185 20.6603 31.2506 20.6068 31.2827 20.58C31.3041 20.5533 31.4218 20.5051 31.625 20.5051H32.62V19.478H27.5327V20.5051H27.7413H28.4635C28.6668 20.4998 28.7952 20.5479 28.8166 20.5747C28.8433 20.6014 28.8701 20.6228 28.8701 20.7512V27.6359C28.8701 27.7536 28.8433 27.7964 28.8059 27.8392C28.7684 27.8767 28.6882 27.9141 28.5438 27.9141H27.5381V28.9412H34.9684H35.7495V28.9465Z" fill="white"/>
<path d="M21.649 19.7081V20.5051H22.5637C22.7349 20.4998 22.8366 20.5479 22.8687 20.5747C22.9008 20.6068 22.9275 20.6442 22.9275 20.7726V27.668C22.9221 27.7697 22.9061 27.7964 22.8633 27.8392C22.8312 27.8713 22.6868 27.9195 22.4621 27.9195H21.542V28.9465H26.624V27.9195H25.6664C25.4845 27.9195 25.3668 27.8767 25.308 27.8285C25.2866 27.8125 25.2706 27.7911 25.2652 27.668V20.6977C25.2652 20.6068 25.2813 20.5907 25.308 20.564C25.3294 20.5426 25.4203 20.5051 25.5755 20.5051H26.624V19.478H21.649V19.7081Z" fill="white"/>
<path d="M60.4436 19.478V20.4944L60.6362 20.5051C61.0427 20.5318 61.3316 20.6602 61.5242 20.8635C61.7167 21.0668 61.813 21.3289 61.8184 21.6873V25.2822L57.1804 19.478H54.0563V19.708V20.5051H54.6662C55.0139 20.5104 55.2867 20.6335 55.5114 20.9063V26.6302C55.5114 27.0314 55.4044 27.3256 55.2011 27.5664C54.9925 27.8071 54.7464 27.9194 54.4361 27.9194H54.1847H53.9814V28.9465H58.0684V27.9194H57.71C57.3623 27.9194 57.1002 27.8124 56.8755 27.5931C56.6722 27.3952 56.5545 27.0582 56.5545 26.5339V22.2169L61.8665 28.9465H62.8776V21.6873C62.8776 21.2808 62.9685 21.0186 63.1183 20.8475C63.2681 20.6763 63.5516 20.5479 63.9903 20.4997L64.1775 20.4784V19.4727H60.4436V19.478Z" fill="white"/>
<path d="M52.5253 25.2554C52.413 26.1809 52.1348 26.8389 51.7069 27.2668C51.2682 27.7001 50.7172 27.9195 50.0004 27.9195H48.9038C48.6791 27.9195 48.524 27.8767 48.4437 27.8178C48.4277 27.8071 48.417 27.8071 48.4116 27.7055V24.6028L48.5989 24.5867C49.0964 24.5867 49.6046 24.6081 49.7704 24.7847C49.9309 24.9505 50.0486 25.2822 50.0753 25.7904L50.0807 25.9562H50.8135V22.3881H50.086L50.0753 22.5486C50.0379 22.9926 49.9255 23.2868 49.7597 23.458C49.5885 23.6345 49.1071 23.6185 48.6737 23.6185L48.4116 23.5917V20.7031C48.4116 20.6228 48.4223 20.6068 48.4598 20.5693C48.4812 20.5479 48.5828 20.5051 48.7486 20.5051H49.9951C50.4765 20.5051 50.8563 20.5854 51.1238 20.7244C51.402 20.8689 51.6159 21.0829 51.7925 21.3771C51.9583 21.6553 52.1188 22.1741 52.2418 22.9017L52.2739 23.0889H53.3438V19.478H44.6724V19.7081V20.5051H45.5978C45.8332 20.5051 45.9776 20.5479 46.0044 20.5747C46.0418 20.6068 46.0525 20.6121 46.0525 20.7031V27.6306C46.0525 27.7376 46.0311 27.7804 45.983 27.8339C45.9348 27.8767 45.8492 27.9195 45.6941 27.9195H44.6724V28.9465H53.3438V25.0575H52.5467L52.5253 25.2554Z" fill="white"/>
<path d="M43.9079 24.458C43.6136 24.03 43.175 23.6984 42.6186 23.4523C42.2495 23.2918 41.6397 23.1313 40.7517 22.9494C40.0028 22.7997 39.4785 22.6499 39.211 22.5161C38.9275 22.3824 38.7456 22.2273 38.6386 22.0721C38.5317 21.9063 38.4782 21.7351 38.4782 21.5425C38.4835 21.2055 38.6065 20.938 38.9115 20.6706C39.211 20.4138 39.6015 20.2801 40.1204 20.2747C40.1579 20.2747 40.1953 20.2801 40.2328 20.2801C42.9075 20.2801 42.961 22.2754 42.961 22.2754H43.8651V19.4883H42.9824L42.5491 20.1035C41.8109 19.5472 40.9978 19.2637 40.1204 19.2637C39.1522 19.2637 38.3498 19.5311 37.7506 20.0928C37.1515 20.6492 36.8359 21.3981 36.8412 22.2754C36.8412 22.7997 36.9482 23.2597 37.1782 23.6395C37.4083 24.0247 37.7506 24.3349 38.2053 24.581C38.6654 24.8324 39.3929 25.0571 40.404 25.2764C41.1475 25.4316 41.6183 25.5546 41.7788 25.6188C42.0997 25.7419 42.3191 25.9023 42.4475 26.0735C42.5758 26.2447 42.6454 26.4533 42.6454 26.7315C42.64 27.1167 42.5009 27.4162 42.1693 27.6944C41.843 27.9619 41.3669 28.1063 40.7249 28.1063C39.1522 28.0956 38.1786 27.245 37.6437 25.4102L37.6009 25.2497H36.7021V28.9569H37.5313L38.1144 28.2347C38.8901 28.8338 39.7513 29.1387 40.6821 29.1387H40.6928C41.752 29.1387 42.6614 28.8285 43.3997 28.1972C44.0255 27.6676 44.3519 26.9134 44.3465 26.02C44.3519 25.4155 44.2074 24.8859 43.9079 24.458Z" fill="white"/>
<path d="M85.0938 14.4175H88.7742C89.3786 14.4175 89.8815 14.5084 90.272 14.685C91.0209 15.022 91.39 15.6532 91.39 16.5626C91.39 17.0387 91.2937 17.4292 91.0958 17.7341C90.8979 18.0391 90.6251 18.2798 90.272 18.467C90.5823 18.5954 90.8177 18.7612 90.9728 18.9645C91.1279 19.1678 91.2189 19.5048 91.2349 19.9649L91.2724 21.0294C91.2831 21.3343 91.3098 21.559 91.3472 21.7088C91.4114 21.9602 91.5291 22.126 91.695 22.1956V22.3721H90.3736C90.3362 22.3026 90.3095 22.217 90.2881 22.1046C90.2667 21.9976 90.2506 21.789 90.2346 21.4787L90.1704 20.1521C90.1436 19.6332 89.951 19.2855 89.5926 19.1089C89.3893 19.0127 89.063 18.9645 88.6244 18.9645H86.169V22.3775H85.0938V14.4175ZM88.6618 18.0605C89.17 18.0605 89.5659 17.9588 89.8601 17.7555C90.1543 17.5523 90.2988 17.1885 90.2988 16.6642C90.2988 16.0972 90.0955 15.712 89.6836 15.5034C89.4642 15.3964 89.17 15.3429 88.8009 15.3429H86.169V18.0605H88.6618Z" fill="white"/>
<path d="M93.0752 14.4175H98.874V15.3911H94.1237V17.8037H98.5156V18.7238H94.1237V21.4199H98.9542V22.3668H93.0752V14.4175Z" fill="white"/>
<path d="M106.069 14.9943C106.625 15.5239 106.935 16.1284 106.994 16.8024H105.946C105.828 16.2889 105.587 15.8823 105.234 15.5827C104.881 15.2832 104.378 15.1334 103.736 15.1334C102.95 15.1334 102.319 15.4062 101.837 15.9572C101.356 16.5082 101.115 17.3534 101.115 18.4875C101.115 19.4183 101.334 20.1726 101.768 20.7556C102.201 21.3334 102.854 21.6223 103.715 21.6223C104.507 21.6223 105.111 21.3173 105.528 20.7075C105.748 20.3865 105.914 19.9639 106.021 19.4397H107.069C106.973 20.2795 106.663 20.9803 106.138 21.5474C105.507 22.2321 104.657 22.5691 103.581 22.5691C102.656 22.5691 101.88 22.2909 101.254 21.7292C100.425 20.991 100.013 19.8462 100.013 18.3002C100.013 17.1287 100.323 16.1658 100.944 15.4115C101.618 14.5984 102.543 14.1865 103.72 14.1865C104.731 14.2026 105.512 14.4647 106.069 14.9943Z" fill="white"/>
<path d="M108.62 14.4175H109.706V22.3721H108.62V14.4175Z" fill="white"/>
<path d="M111.562 14.4169H117.361V15.3905H112.611V17.8031H117.003V18.7232H112.611V21.4193H117.442V22.3662H111.562V14.4169ZM115.719 12.2236L114.275 13.791H113.526L114.515 12.2236H115.719Z" fill="white"/>
<path d="M118.859 14.4175H120.133L124.15 20.8636V14.4175H125.172V22.3721H123.963L119.886 15.9314V22.3721H118.859V14.4175V14.4175Z" fill="white"/>
<path d="M129.975 14.4175H131.061V17.702H135.196V14.4175H136.282V22.3721H135.196V18.6542H131.061V22.3721H129.975V14.4175Z" fill="white"/>
<path d="M138.059 14.4175H143.857V15.3911H139.107V17.8037H143.499V18.7238H139.107V21.4199H143.938V22.3668H138.059V14.4175V14.4175Z" fill="white"/>
<path d="M151.047 14.9943C151.604 15.5239 151.914 16.1284 151.973 16.8024H150.924C150.807 16.2889 150.566 15.8823 150.213 15.5827C149.86 15.2832 149.357 15.1334 148.715 15.1334C147.929 15.1334 147.297 15.4062 146.816 15.9572C146.334 16.5082 146.094 17.3534 146.094 18.4875C146.094 19.4183 146.313 20.1726 146.746 20.7556C147.18 21.3334 147.832 21.6223 148.694 21.6223C149.485 21.6223 150.09 21.3173 150.507 20.7075C150.726 20.3865 150.892 19.9639 150.999 19.4397H152.048C151.951 20.2795 151.641 20.9803 151.117 21.5474C150.486 22.2321 149.635 22.5691 148.56 22.5691C147.634 22.5691 146.859 22.2909 146.233 21.7292C145.404 20.991 144.992 19.8462 144.992 18.3002C144.992 17.1287 145.302 16.1658 145.922 15.4115C146.597 14.5984 147.522 14.1865 148.699 14.1865C149.71 14.2026 150.496 14.4647 151.047 14.9943Z" fill="white"/>
<path d="M153.39 14.4175H154.476V17.702H158.611V14.4175H159.697V22.3721H158.611V18.6542H154.476V22.3721H153.39V14.4175Z" fill="white"/>
<path d="M163.683 14.4175H164.902L167.791 22.3721H166.609L165.801 19.9916H162.656L161.794 22.3721H160.687L163.683 14.4175ZM165.453 19.1143L164.244 15.5997L162.961 19.1143H165.453Z" fill="white"/>
<path d="M168.871 21.1899H170.005V22.3722H168.871V21.1899Z" fill="white"/>
<path d="M89.6412 27.8709C90.2029 28.0528 90.6523 28.3951 91 28.8819C91.2781 29.2778 91.4654 29.7111 91.567 30.1712C91.6686 30.6312 91.7168 31.0752 91.7168 31.4925C91.7168 32.5517 91.5028 33.4504 91.0749 34.1886C90.4971 35.1836 89.6038 35.6757 88.4001 35.6757H84.9604V27.6997H88.4001C88.903 27.7051 89.3149 27.7639 89.6412 27.8709ZM86.5813 29.0852V34.2956H88.122C88.9083 34.2956 89.4593 33.9051 89.7696 33.1294C89.9408 32.7014 90.0264 32.1986 90.0264 31.6102C90.0264 30.797 89.898 30.1765 89.6466 29.7378C89.3898 29.3045 88.8869 29.0852 88.1273 29.0852H86.5813V29.0852Z" fill="white"/>
<path d="M98.7882 29.112H94.6531V30.8077H98.4458V32.1932H94.6531V34.2474H98.9861V35.6811H93.0269V27.6997H98.7936V29.112H98.7882Z" fill="white"/>
<path d="M101.57 33.215C101.623 33.5788 101.725 33.8516 101.875 34.0335C102.153 34.3598 102.624 34.5256 103.298 34.5256C103.699 34.5256 104.025 34.4829 104.277 34.3973C104.753 34.2314 104.988 33.9212 104.988 33.4718C104.988 33.2097 104.87 33.0064 104.64 32.862C104.405 32.7229 104.036 32.5945 103.533 32.4875L102.666 32.3003C101.816 32.113 101.233 31.9098 100.917 31.6904C100.377 31.3213 100.109 30.7489 100.109 29.9626C100.109 29.2457 100.371 28.652 100.901 28.1812C101.425 27.7105 102.201 27.4697 103.217 27.4697C104.068 27.4697 104.795 27.6944 105.395 28.1384C105.994 28.5824 106.309 29.2297 106.341 30.0803H104.737C104.71 29.5988 104.49 29.2618 104.095 29.0585C103.827 28.9248 103.495 28.8606 103.1 28.8606C102.661 28.8606 102.308 28.9462 102.046 29.1227C101.784 29.2992 101.65 29.54 101.65 29.8502C101.65 30.1338 101.778 30.3477 102.04 30.4868C102.206 30.5831 102.559 30.6901 103.1 30.8185L104.501 31.1501C105.116 31.2946 105.576 31.4872 105.881 31.7279C106.357 32.1023 106.593 32.648 106.593 33.3595C106.593 34.087 106.309 34.6915 105.748 35.1783C105.186 35.6597 104.389 35.9005 103.356 35.9005C102.308 35.9005 101.479 35.6651 100.874 35.189C100.27 34.7129 99.9702 34.0602 99.9702 33.2311H101.57V33.215Z" fill="white"/>
<path d="M112.445 27.8709C113.007 28.0528 113.456 28.3951 113.804 28.8819C114.082 29.2778 114.27 29.7111 114.371 30.1712C114.473 30.6312 114.521 31.0752 114.521 31.4925C114.521 32.5517 114.307 33.4504 113.879 34.1886C113.301 35.1836 112.408 35.6757 111.204 35.6757H107.765V27.6997H111.204C111.702 27.7051 112.114 27.7639 112.445 27.8709ZM109.386 29.0852V34.2956H110.926C111.713 34.2956 112.264 33.9051 112.574 33.1294C112.745 32.7014 112.831 32.1986 112.831 31.6102C112.831 30.797 112.702 30.1765 112.451 29.7378C112.194 29.3045 111.691 29.0852 110.932 29.0852H109.386V29.0852Z" fill="white"/>
<path d="M121.593 29.112H117.458V30.8077H121.251V32.1932H117.458V34.2474H121.791V35.6811H115.832V27.6997H121.599V29.112H121.593Z" fill="white"/>
<path d="M126.178 30.2675V29.219C126.665 29.1976 127.007 29.1655 127.199 29.1227C127.51 29.0532 127.761 28.9194 127.954 28.7108C128.087 28.5717 128.189 28.3845 128.253 28.1491C128.291 28.01 128.312 27.903 128.312 27.8335H129.601V35.6811H128.018V30.2675H126.178Z" fill="white"/>
<path d="M132.634 28.5452C133.121 28.0209 133.752 27.7642 134.527 27.7642C135.72 27.7642 136.544 28.2938 136.983 29.3529C137.234 29.9521 137.363 30.7438 137.363 31.7174C137.363 32.6696 137.24 33.4613 136.999 34.0926C136.539 35.3015 135.688 35.906 134.453 35.906C133.864 35.906 133.335 35.7295 132.864 35.3818C132.393 35.0341 132.126 34.5259 132.056 33.8572H133.591C133.629 34.0872 133.725 34.2744 133.886 34.4189C134.046 34.5633 134.255 34.6328 134.517 34.6328C135.025 34.6328 135.383 34.3493 135.587 33.7876C135.699 33.4774 135.769 33.0227 135.801 32.4289C135.662 32.6054 135.512 32.7391 135.351 32.8354C135.062 33.0066 134.709 33.0976 134.287 33.0976C133.661 33.0976 133.11 32.8836 132.623 32.4503C132.142 32.017 131.896 31.3964 131.896 30.5833C131.906 29.7488 132.147 29.0694 132.634 28.5452ZM135.234 31.6639C135.587 31.4392 135.758 31.0541 135.758 30.4977C135.758 30.0537 135.656 29.7007 135.448 29.4439C135.239 29.1818 134.955 29.0534 134.597 29.0534C134.335 29.0534 134.105 29.1283 133.918 29.2781C133.623 29.5081 133.474 29.8986 133.474 30.4549C133.474 30.9203 133.57 31.268 133.757 31.5034C133.944 31.7388 134.239 31.8511 134.629 31.8511C134.843 31.8458 135.046 31.7869 135.234 31.6639Z" fill="white"/>
<path d="M138.513 30.2675V29.219C138.999 29.1976 139.342 29.1655 139.534 29.1227C139.845 29.0532 140.096 28.9194 140.289 28.7108C140.422 28.5717 140.524 28.3845 140.588 28.1491C140.626 28.01 140.647 27.903 140.647 27.8335H141.936V35.6811H140.353V30.2675H138.513Z" fill="white"/>
<path d="M144.623 34.1354C144.842 33.6112 145.361 33.0602 146.185 32.4717C146.896 31.9635 147.356 31.5998 147.565 31.3804C147.886 31.0381 148.046 30.6636 148.046 30.2517C148.046 29.9201 147.955 29.6419 147.768 29.4226C147.586 29.2032 147.319 29.0909 146.976 29.0909C146.506 29.0909 146.19 29.2674 146.019 29.6151C145.923 29.8184 145.864 30.1394 145.848 30.578H144.35C144.377 29.9094 144.494 29.3691 144.714 28.9572C145.125 28.1761 145.858 27.7803 146.907 27.7803C147.736 27.7803 148.399 28.0103 148.891 28.4704C149.384 28.9304 149.63 29.5402 149.63 30.2999C149.63 30.883 149.458 31.3965 149.111 31.8512C148.881 32.1508 148.506 32.4824 147.987 32.8515L147.367 33.2902C146.982 33.563 146.714 33.761 146.575 33.884C146.431 34.007 146.313 34.1515 146.217 34.3119H149.646V35.6707H144.27C144.275 35.1144 144.393 34.6008 144.623 34.1354Z" fill="white"/>
<path d="M150.774 34.0605H152.416V35.6814H150.774V34.0605Z" fill="white"/>
</svg>
