<svg width="97" height="53" viewBox="0 0 97 53" fill="none" xmlns="http://www.w3.org/2000/svg">
<path d="M23.5401 26.0557C18.3812 26.0557 14.1992 29.9847 14.1992 34.8309C14.1992 39.6772 18.3812 43.6062 23.5401 43.6062C28.6989 43.6062 32.8809 39.6776 32.8809 34.8309C32.8809 29.9847 28.6989 26.0557 23.5401 26.0557ZM23.5401 39.3892C20.9615 39.3892 18.871 37.3485 18.871 34.8309C18.871 32.3134 20.9615 30.2726 23.5401 30.2726C26.1191 30.2726 28.2092 32.3134 28.2092 34.8309C28.2092 37.3485 26.1186 39.3892 23.5401 39.3892Z" fill="#005CB9"/>
<path d="M72.9991 26.0557C67.8402 26.0557 63.6582 29.9847 63.6582 34.8309C63.6582 39.6772 67.8402 43.6062 72.9991 43.6062C78.1579 43.6062 82.3399 39.6776 82.3399 34.8309C82.3395 29.9847 78.1575 26.0557 72.9991 26.0557ZM72.9991 39.3892C70.4205 39.3892 68.33 37.3485 68.33 34.8309C68.33 32.3134 70.4205 30.2726 72.9991 30.2726C75.5776 30.2726 77.6682 32.3134 77.6682 34.8309C77.6682 37.3485 75.5776 39.3892 72.9991 39.3892Z" fill="#005CB9"/>
<path d="M54.3929 25.7178C49.6538 25.7178 48.2894 28.7933 48.2894 28.7933C48.2894 28.7933 46.925 25.7178 42.186 25.7178C37.3222 25.7178 33.6924 29.1611 33.6924 32.9331V33.4166C33.6924 35.4314 33.6924 38.0399 33.6924 40.0785C33.6924 41.9533 33.6924 43.3459 33.6924 43.3459H33.7014H33.7547H38.3785H38.4287H38.4319V34.2975C38.4319 34.2975 38.4153 33.7413 38.601 33.043C38.6046 33.03 38.6082 33.0165 38.6117 33.0031C38.6391 32.9035 38.6714 32.8012 38.7077 32.6972C38.7149 32.6765 38.7221 32.6559 38.7297 32.6353C38.7656 32.5371 38.8073 32.4375 38.8526 32.3379C38.8643 32.3128 38.8746 32.2872 38.8867 32.2621C38.9306 32.1706 38.9818 32.0796 39.0342 31.989C39.0535 31.9558 39.0706 31.9221 39.0917 31.8894C39.1621 31.7768 39.2392 31.666 39.3253 31.5588C39.3401 31.54 39.3581 31.523 39.3733 31.5046C39.4505 31.4126 39.5326 31.3229 39.6227 31.2368C39.6451 31.2153 39.6693 31.1946 39.6927 31.1736C39.7864 31.0892 39.8869 31.009 39.995 30.9332C40.0156 30.9188 40.0349 30.9036 40.056 30.8896C40.3179 30.7152 40.6242 30.5703 40.9772 30.4636C41.0194 30.451 41.0633 30.4407 41.1069 30.429C41.2459 30.3922 41.393 30.3622 41.5469 30.3384C41.6002 30.3299 41.6523 30.3209 41.7074 30.3142C41.9119 30.2895 42.1254 30.2729 42.3564 30.2729C46.4088 30.2738 45.8988 34.3419 45.8988 34.3419V43.3455H45.9078H45.9213H45.9284H50.6572V43.3159C50.6608 43.3266 50.667 43.3343 50.6706 43.3455H50.6796V34.3419C50.6796 34.3419 50.1665 30.2729 54.2207 30.2729C58.2748 30.2729 58.1474 34.2975 58.1474 34.2975V43.3459H58.1506H58.2008H62.8775H62.8865C62.8865 43.3459 62.8865 41.9533 62.8865 40.0785C62.8865 37.8722 62.8865 34.9981 62.8865 32.9331C62.8865 29.1611 59.2566 25.7178 54.3929 25.7178Z" fill="#005CB9"/>
<path d="M6.42952 32.7225C4.15194 32.0851 4.60584 29.7838 6.86548 29.7838C8.69813 29.7838 8.93271 31.0132 8.95603 31.4792L8.95648 31.6523L13.7341 31.6492C13.7283 28.0933 10.276 26.489 10.276 26.489C4.89334 24.3002 0.459732 27.7816 0.195554 30.5575C-0.0713146 33.3365 1.60121 34.478 2.87635 35.3145C4.15149 36.151 6.83274 36.569 8.03074 36.9484C9.22873 37.331 9.09552 38.4519 9.09552 38.4519C9.09552 38.4519 9.17267 39.8665 6.83588 39.8665C5.02745 39.8665 4.76641 38.8111 4.7413 38.3303L4.74085 38.1554C4.7413 38.1478 4.74174 38.1375 4.74219 38.1312C4.74085 38.1316 4.73861 38.133 4.73726 38.1334L0 38.1011C0.00358815 39.2453 1.28815 43.8377 6.33758 43.8615C11.3942 43.8821 13.8557 41.4238 13.8557 37.5741C13.8557 33.9739 8.7071 33.3603 6.42952 32.7225Z" fill="#005CB9"/>
<path d="M88.9022 32.7224C86.6246 32.0851 87.0785 29.7837 89.3381 29.7837C91.1708 29.7837 91.4054 31.0127 91.4287 31.4791L91.4291 31.6523L96.2068 31.6491C96.2009 28.0933 92.7487 26.4889 92.7487 26.4889C87.366 24.3001 82.9324 27.782 82.6682 30.5579C82.4013 33.3369 84.0739 34.4784 85.349 35.3149C86.6241 36.1514 89.3049 36.5694 90.5034 36.9488C91.7014 37.3314 91.5682 38.4523 91.5682 38.4523C91.5682 38.4523 91.6453 39.8669 89.3085 39.8669C87.5006 39.8669 87.2391 38.812 87.214 38.3312L87.2135 38.1562C87.2139 38.1486 87.2144 38.1383 87.2148 38.132C87.2135 38.1325 87.2113 38.1338 87.2099 38.1343L82.4727 38.1015C82.4762 39.2457 83.7608 43.8381 88.8102 43.8619C93.8668 43.8825 96.3283 41.4242 96.3283 37.5745C96.3283 33.9738 91.1798 33.3602 88.9022 32.7224Z" fill="#005CB9"/>
<path d="M47.4261 21.3858C46.9686 21.3181 46.5322 21.1885 46.124 21.0037C45.5463 20.7476 45.0234 20.3865 44.5847 19.9501C43.9411 19.3083 43.4688 18.5009 43.2409 17.5958C43.1414 17.1948 43.0885 16.7773 43.0885 16.3462C43.0885 16 43.145 15.6443 43.2463 15.281C43.3988 14.741 43.6491 14.1875 43.9635 13.6363C44.1573 13.2918 44.3757 12.9478 44.6107 12.6087C45.0772 11.9297 45.6082 11.269 46.1236 10.6536C46.4174 10.3038 46.7071 9.96875 46.978 9.65255C47.0996 9.51037 47.2153 9.37626 47.3274 9.24529C48.551 7.58891 49.7638 5.82533 49.6678 5.4414C49.4973 4.75651 48.9461 4.59325 48.4716 4.96373C48.4644 4.96911 48.4554 4.96956 48.4492 4.97629L44.1851 9.5144C44.1505 9.54894 44.0954 9.50454 44.1223 9.46327L47.527 4.26583C47.527 4.26583 48.6671 2.64309 48.0684 2.00574C47.0605 0.933784 46.1254 2.32913 46.1254 2.32913L41.7478 7.54406C41.7232 7.57366 41.6761 7.54316 41.694 7.50863C42.2363 6.46492 44.2425 2.61483 44.5403 2.20668C44.8852 1.73394 45.1615 0.509933 44.5591 0.178029C43.6442 -0.325658 42.8175 1.11678 42.8175 1.11678L38.9912 6.4564C38.9616 6.49722 38.8979 6.46178 38.9181 6.41559C39.4308 5.25078 40.967 1.70255 41.123 1.03874C41.28 0.369547 40.2372 -0.143559 39.3814 0.964283C39.1034 1.324 38.2238 2.47265 37.4362 4.04785C37.3927 4.13487 37.0962 4.86147 37.0877 4.88703C36.6414 6.17697 36.4854 7.23907 36.4854 8.67926C36.4854 15.5968 41.4316 21.3194 48.3787 21.4585C48.3841 21.4517 48.3989 21.4437 48.4106 21.436C48.337 21.4392 48.2639 21.4441 48.1899 21.4441C47.9289 21.4441 47.6728 21.4253 47.4261 21.3858Z" fill="#005CB9"/>
<path d="M49.1855 21.1464C49.1948 21.1447 49.2018 21.1416 49.204 21.1372C49.2242 21.099 49.2163 21.1069 49.1855 21.1464Z" fill="#005CB9"/>
<path d="M59.3671 4.97214C59.3581 4.94657 59.0621 4.22042 59.0186 4.13296C58.231 2.55776 57.3514 1.40865 57.0738 1.04939C56.218 -0.0584532 55.1748 0.455101 55.3322 1.12384C55.4883 1.78765 57.0245 5.33634 57.5371 6.50069C57.5573 6.54689 57.4936 6.58232 57.464 6.54151L53.6373 1.20189C53.6373 1.20189 52.8106 -0.241 51.8957 0.263135C51.2933 0.595039 51.5696 1.81905 51.9145 2.29179C52.2123 2.69994 54.2185 6.55003 54.7608 7.59418C54.7787 7.62827 54.7321 7.65877 54.707 7.62917L50.3294 2.41423C50.3294 2.41423 49.3938 1.01844 48.3864 2.09085C47.7872 2.7282 48.9278 4.35094 48.9278 4.35094L52.3325 9.54838C52.3594 9.5892 52.3043 9.63405 52.2697 9.59951L48.0052 5.06139C47.9989 5.05467 47.99 5.05422 47.9828 5.04884C47.5082 4.67836 46.9575 4.84207 46.7866 5.52651C46.6897 5.91493 47.9307 7.71394 49.1682 9.38646C49.2431 9.47348 49.3189 9.56139 49.3974 9.65333C49.6683 9.96775 49.9581 10.3028 50.25 10.6508C50.429 10.8634 50.6093 11.0837 50.7901 11.3075C51.3431 11.9977 51.8813 12.7297 52.3159 13.4671C52.4971 13.7205 52.6644 14.0152 52.803 14.4C53.1026 15.0661 53.2874 15.7236 53.2874 16.347C53.2874 17.7545 52.7191 19.0247 51.7934 19.9504C51.4 20.3456 50.943 20.6712 50.4425 20.9197C50.3783 20.9497 50.3164 20.982 50.2505 21.0098C49.8441 21.1924 49.4073 21.3184 48.9561 21.3861C48.704 21.4256 48.4479 21.4445 48.19 21.4445C47.9285 21.4445 47.6724 21.4256 47.4262 21.3861C47.7765 21.4445 48.2528 21.4799 48.6013 21.4445C55.0492 20.7892 59.9703 15.3271 59.9703 8.76392C59.969 7.32417 59.8134 6.26208 59.3671 4.97214Z" fill="#00A0DF"/>
<path d="M9.13517 51.7672C9.13517 52.0287 8.93154 52.2395 8.6557 52.2395C8.4449 52.2395 8.28522 52.1162 8.19059 51.8905L7.98696 51.3963H5.9592L5.75558 51.8905C5.66856 52.1157 5.50844 52.2395 5.29764 52.2395C5.02135 52.2395 4.81055 52.0287 4.81055 51.7672C4.81055 51.6945 4.83252 51.6071 4.86841 51.5057L6.51133 47.6027C6.59834 47.3847 6.75847 47.2686 6.97645 47.2686C7.19443 47.2686 7.35455 47.3847 7.44156 47.6027L9.07686 51.5057C9.12082 51.6071 9.13517 51.6945 9.13517 51.7672ZM6.27855 50.5894H7.65954L6.97645 48.7141L6.27855 50.5894Z" fill="#00A0DF"/>
<path d="M11.0029 49.7523C11.0029 48.3493 12.122 47.2666 13.5685 47.2666C14.2228 47.2666 14.8768 47.5285 15.2692 47.9425C15.48 48.139 15.5671 48.2915 15.5671 48.4588C15.5671 48.6987 15.3634 48.9019 15.1163 48.9019C14.9638 48.9019 14.8472 48.8436 14.7019 48.6839C14.3749 48.335 14.0188 48.1753 13.5537 48.1753C12.645 48.1753 12.0125 48.8149 12.0125 49.7527C12.0125 50.7049 12.6669 51.3589 13.6115 51.3589C14.1421 51.3589 14.6001 51.1481 14.8763 50.7848V50.3704H13.9605C13.699 50.3704 13.5025 50.1887 13.5025 49.9487C13.5025 49.7016 13.6985 49.52 13.9605 49.52H15.3558C15.6464 49.52 15.8573 49.7308 15.8573 50.0214V50.639C15.8573 50.857 15.8137 51.0171 15.7048 51.184C15.2688 51.8236 14.4184 52.238 13.5676 52.238C12.122 52.238 11.0029 51.1548 11.0029 49.7523Z" fill="#00A0DF"/>
<path d="M18.1182 50.1667V47.768C18.1182 47.4846 18.329 47.2666 18.6124 47.2666C18.8887 47.2666 19.0995 47.4846 19.0995 47.768V50.2394C19.0995 50.9081 19.5068 51.3297 20.1535 51.3297C20.8003 51.3297 21.2076 50.9081 21.2076 50.2394V47.768C21.2076 47.4846 21.4184 47.2666 21.7018 47.2666C21.9781 47.2666 22.1889 47.4846 22.1889 47.768V50.1667C22.1889 51.4024 21.3677 52.238 20.154 52.238C18.9394 52.2384 18.1182 51.4024 18.1182 50.1667Z" fill="#00A0DF"/>
<path d="M28.5336 51.7662C28.5336 52.0277 28.33 52.2385 28.0541 52.2385C27.8433 52.2385 27.6837 52.1152 27.589 51.8896L27.3854 51.3953H25.3576L25.154 51.8896C25.067 52.1147 24.9069 52.2385 24.6961 52.2385C24.4198 52.2385 24.209 52.0277 24.209 51.7662C24.209 51.6936 24.231 51.6061 24.2673 51.5047L25.9098 47.6017C25.9968 47.3837 26.1569 47.2676 26.3749 47.2676C26.5929 47.2676 26.753 47.3837 26.84 47.6017L28.4753 51.5047C28.5193 51.6061 28.5336 51.6936 28.5336 51.7662ZM25.677 50.5884H27.058L26.3749 48.7132L25.677 50.5884Z" fill="#00A0DF"/>
<path d="M33.9053 51.7374V47.8559C33.9053 47.5653 34.1161 47.3545 34.4067 47.3545H35.715C36.7399 47.3545 37.4378 47.9797 37.4378 48.9028C37.4378 49.8187 36.7256 50.4582 35.715 50.4582H34.8862V51.7374C34.8862 52.0209 34.6754 52.2389 34.3991 52.2389C34.1161 52.2389 33.9053 52.0209 33.9053 51.7374ZM35.7079 49.6002C36.1586 49.6002 36.4349 49.3311 36.4349 48.9023C36.4349 48.4879 36.1586 48.2192 35.7079 48.2192H34.8866V49.6002H35.7079Z" fill="#00A0DF"/>
<path d="M43.1073 51.7662C43.1073 52.0277 42.9037 52.2385 42.6274 52.2385C42.4166 52.2385 42.2565 52.1152 42.1623 51.8896L41.9586 51.3953H39.9309L39.7273 51.8896C39.6402 52.1147 39.4801 52.2385 39.2693 52.2385C38.993 52.2385 38.7822 52.0277 38.7822 51.7662C38.7822 51.6936 38.8042 51.6061 38.8405 51.5047L40.483 47.6017C40.5705 47.3837 40.7301 47.2676 40.9481 47.2676C41.1661 47.2676 41.3262 47.3837 41.4132 47.6017L43.0485 51.5047C43.0925 51.6061 43.1073 51.6936 43.1073 51.7662ZM40.2507 50.5884H41.6317L40.9486 48.7132L40.2507 50.5884Z" fill="#00A0DF"/>
<path d="M49.1409 51.7881C49.1409 52.0352 48.9301 52.2389 48.683 52.2389C48.5085 52.2389 48.3632 52.1519 48.247 51.9846L47.1714 50.4582H47.1643H46.3359V51.7374C46.3359 52.0209 46.125 52.2389 45.8488 52.2389C45.5653 52.2389 45.3545 52.0209 45.3545 51.7374V47.8488C45.3545 47.5653 45.5653 47.3545 45.8559 47.3545H47.1643C48.1891 47.3545 48.8866 47.9797 48.8866 48.8952C48.8866 49.4769 48.6031 49.9492 48.138 50.2178L49.0027 51.4172C49.0902 51.5486 49.1409 51.6719 49.1409 51.7881ZM46.3354 49.5931H47.1566C47.6074 49.5931 47.8832 49.3239 47.8832 48.9023C47.8832 48.4879 47.5998 48.2192 47.1566 48.2192H46.3354V49.5931Z" fill="#00A0DF"/>
<path d="M55.4784 51.7662C55.4784 52.0277 55.2748 52.2385 54.9985 52.2385C54.7877 52.2385 54.628 52.1152 54.5334 51.8896L54.3297 51.3953H52.302L52.0983 51.8896C52.0113 52.1147 51.8512 52.2385 51.6404 52.2385C51.3641 52.2385 51.1533 52.0277 51.1533 51.7662C51.1533 51.6936 51.1753 51.6061 51.2116 51.5047L52.8541 47.6017C52.9411 47.3837 53.1012 47.2676 53.3192 47.2676C53.5372 47.2676 53.6973 47.3837 53.7843 47.6017L55.4196 51.5047C55.4636 51.6061 55.4784 51.6936 55.4784 51.7662ZM52.6218 50.5884H54.0028L53.3197 48.7132L52.6218 50.5884Z" fill="#00A0DF"/>
<path d="M61.5771 51.7374V48.2412H60.4361C60.1818 48.2412 59.9854 48.0448 59.9854 47.7976C59.9854 47.5433 60.1818 47.3545 60.4361 47.3545H63.6995C63.961 47.3545 64.1503 47.5433 64.1503 47.7976C64.1503 48.0448 63.9538 48.2412 63.6995 48.2412H62.5585V51.7374C62.5585 52.0209 62.3477 52.2389 62.0642 52.2389C61.7879 52.2389 61.5771 52.0209 61.5771 51.7374Z" fill="#00A0DF"/>
<path d="M70.9324 49.7523C70.9324 51.1405 69.8058 52.238 68.3741 52.238C66.9424 52.238 65.8301 51.1476 65.8301 49.7523C65.8301 48.357 66.9491 47.2666 68.3741 47.2666C69.8058 47.2662 70.9324 48.3637 70.9324 49.7523ZM66.8401 49.7523C66.8401 50.6753 67.4797 51.3297 68.3813 51.3297C69.2752 51.3297 69.9219 50.6682 69.9219 49.7523C69.9219 48.8364 69.2752 48.1749 68.3813 48.1749C67.4802 48.1749 66.8401 48.8292 66.8401 49.7523Z" fill="#00A0DF"/>
<path d="M77.3935 49.7384C77.3935 51.1629 76.318 52.1514 74.784 52.1514H73.7085C73.4178 52.1514 73.207 51.9406 73.207 51.65V47.8559C73.207 47.5653 73.4178 47.3545 73.7085 47.3545H74.784C76.3395 47.3545 77.3935 48.3139 77.3935 49.7384ZM74.1879 48.2412V51.2647H74.7768C75.7434 51.2647 76.3902 50.6614 76.3902 49.7384C76.3902 48.8153 75.7726 48.2412 74.7768 48.2412H74.1879Z" fill="#00A0DF"/>
<path d="M84.5096 49.7523C84.5096 51.1405 83.3829 52.238 81.9512 52.238C80.5196 52.238 79.4072 51.1476 79.4072 49.7523C79.4072 48.357 80.5267 47.2666 81.9512 47.2666C83.3833 47.2662 84.5096 48.3637 84.5096 49.7523ZM80.4177 49.7523C80.4177 50.6753 81.0573 51.3297 81.9589 51.3297C82.8527 51.3297 83.5 50.6682 83.5 49.7523C83.5 48.8364 82.8532 48.1749 81.9589 48.1749C81.0573 48.1749 80.4177 48.8292 80.4177 49.7523Z" fill="#00A0DF"/>
<path d="M86.7617 51.5917C86.6456 51.4755 86.5801 51.3517 86.5801 51.2136C86.5873 50.9521 86.7981 50.7776 87.0308 50.7776C87.1183 50.7776 87.2125 50.8068 87.2851 50.8722C87.4811 51.0759 87.8229 51.3665 88.31 51.3665C88.7388 51.3665 88.9931 51.1629 88.9931 50.8359C88.9931 50.5596 88.8258 50.4435 88.3827 50.2398L87.8664 50.0071C87.103 49.6581 86.7034 49.2437 86.7034 48.6261C86.7034 47.8192 87.3865 47.2666 88.2952 47.2666C89.0146 47.2666 89.4362 47.6007 89.6399 47.8335C89.7417 47.9425 89.7708 48.0515 89.7708 48.1461C89.7708 48.3933 89.5452 48.5821 89.3201 48.5821C89.2326 48.5821 89.1384 48.553 89.051 48.4803C88.8545 48.3058 88.6365 48.1385 88.2952 48.1385C87.9463 48.1385 87.6991 48.3058 87.6991 48.6036C87.6991 48.8436 87.8301 48.9598 88.2589 49.1562L88.8038 49.3962C89.6035 49.7523 89.9884 50.1447 89.9884 50.7991C89.9884 51.6859 89.269 52.2384 88.3096 52.2384C87.7431 52.2384 87.1183 51.9841 86.7617 51.5917Z" fill="#00A0DF"/>
</svg>
