<svg width="214" height="41" viewBox="0 0 214 41" fill="none" xmlns="http://www.w3.org/2000/svg">
<path d="M9.94077 18.333C8.57993 17.5455 6.75875 17.0852 5.58366 16.5643C4.68721 16.1443 4.29551 15.4296 4.67913 14.6543C5.08294 13.8345 6.49223 13.5115 8.3013 14.0445C9.45216 14.3877 10.4536 15.0863 11.2491 15.8334V12.2031C9.58138 11.5005 7.73193 11.1977 5.78557 11.2825C4.08957 11.3511 2.76911 11.8438 1.6869 12.7644C0.693533 13.6084 0.0474379 14.8279 0.00301892 16.3341C-0.0575525 18.4218 0.790447 19.6211 2.80949 20.6872C4.37627 21.5069 5.96324 21.8582 6.84759 22.3872C7.69559 22.9 7.78846 23.5906 7.54214 24.1882C7.08987 25.2987 5.33734 25.5894 3.43944 24.9433C2.05841 24.487 0.82679 23.4411 0.192809 22.6901V26.8453C1.97361 27.6246 3.93612 27.9921 5.96728 27.9598C9.97711 27.8952 12.2748 25.763 12.4161 22.9889C12.509 20.9093 11.8871 19.4636 9.94077 18.333Z" fill="#0D060E"/>
<path d="M76.9038 27.5881C76.3062 26.2192 76.4394 25.5973 76.7988 24.604C76.9321 24.2203 77.1825 23.5823 77.1825 23.5823H83.0538C83.0538 23.5823 83.3648 24.2648 83.4778 24.604C83.8413 25.6458 83.8897 26.2717 83.3244 27.5922H90.9039C89.5996 26.1667 89.3654 25.5246 88.9777 24.604C88.6143 23.7156 83.5869 11.6094 83.5869 11.6094H77.5903C78.0183 12.4735 78.2283 13.2004 77.9376 13.9959C77.9376 13.9959 74.1862 23.7883 73.8268 24.6282C73.1282 26.2677 72.9909 26.4332 71.9531 27.5922L76.9038 27.5881ZM78.1354 20.9131L78.7735 19.1525C79.3105 17.8038 79.783 16.4349 79.9486 15.5829C79.9526 15.5627 79.9687 15.5627 79.9728 15.5788C80.2353 16.6287 80.6471 17.8886 81.2407 19.2091L81.9676 20.901L78.1354 20.9131Z" fill="#0D060E"/>
<path d="M23.5978 27.5889C22.7902 26.0665 22.6327 25.5295 22.6327 23.4741C22.6327 23.4741 22.6206 14.6064 22.6246 14.2995C22.875 14.2995 23.7311 14.3036 23.9491 14.3157C25.4957 14.3884 26.0288 14.6831 27.2685 15.6079L26.9091 11.6465H13.2442L12.8848 15.6079C14.1245 14.6831 14.6535 14.3924 16.2041 14.3157C16.4262 14.3036 17.2822 14.2995 17.5286 14.2995C17.5366 14.6064 17.5245 23.4741 17.5245 23.4741C17.5245 25.5295 17.3509 26.0665 16.5473 27.5889H23.5978V27.5889Z" fill="#0D060E"/>
<path d="M39.0789 24.8628H34.5765V20.2836H36.5147C38.0008 20.2836 38.7518 20.6067 39.8987 21.3982L39.5352 17.6145H34.5765V14.3032H38.4369C39.9189 14.3032 40.674 14.6182 41.8248 15.4056L41.4614 11.626H28.4062C29.2139 13.1483 29.3835 13.6773 29.3835 15.7327V23.4737C29.3835 25.5291 29.2139 26.0662 28.4062 27.5886H42.1075L42.4709 23.7604C41.3241 24.5519 40.5649 24.8628 39.0789 24.8628Z" fill="#0D060E"/>
<path d="M49.8171 15.7327C49.8171 13.6773 49.9746 13.1483 50.7822 11.626H43.6348C44.4383 13.1483 44.616 13.6773 44.616 15.7327V23.4737C44.616 25.5291 44.4383 26.0662 43.6348 27.5886H56.8151L57.2108 23.5747C56.06 24.3621 55.2766 24.8628 53.7986 24.8628H49.8171V15.7327Z" fill="#0D060E"/>
<path d="M64.5241 15.7327C64.5241 13.6773 64.6856 13.1483 65.4933 11.626H58.3418C59.1454 13.1483 59.3271 13.6773 59.3271 15.7327V23.4737C59.3271 25.5291 59.1494 26.0662 58.3418 27.5886H71.5262L71.9219 23.5747C70.771 24.3621 69.9836 24.8628 68.4976 24.8628H64.5201L64.5241 15.7327Z" fill="#0D060E"/>
<path d="M211.514 18.478C210.149 17.6825 208.32 17.2222 207.145 16.6851C206.245 16.2853 205.857 15.5665 206.237 14.7912C206.64 13.9715 208.054 13.6323 209.867 14.1694C211.022 14.5247 212.023 15.2193 212.823 15.9582V12.3361C211.151 11.6294 209.297 11.3306 207.347 11.4154C205.643 11.48 204.322 11.9605 203.236 12.8974C202.243 13.7454 201.597 14.9568 201.548 16.4711C201.484 18.5709 202.336 19.7581 204.363 20.8322C205.93 21.656 207.525 22.0154 208.413 22.5403C209.261 23.033 209.354 23.7316 209.104 24.3413C208.651 25.4356 206.891 25.7506 204.989 25.1005C203.608 24.624 202.376 23.5943 201.738 22.8432V26.9822C203.523 27.7656 205.494 28.1573 207.525 28.125C211.543 28.0564 213.852 25.9162 213.99 23.1259C214.091 21.0624 213.465 19.6087 211.514 18.478Z" fill="#0D060E"/>
<path d="M125.693 27.7137C125.095 26.3488 125.224 25.7431 125.592 24.7335C125.725 24.362 125.976 23.7119 125.976 23.7119H131.851C131.851 23.7119 132.162 24.4065 132.275 24.7335C132.638 25.7915 132.691 26.4053 132.122 27.7137H139.697C138.393 26.2963 138.158 25.6663 137.775 24.7335C137.411 23.8371 132.38 11.743 132.38 11.743C132.38 11.743 128.386 11.739 126.379 11.743C126.807 12.6072 127.021 13.33 126.727 14.1295C126.727 14.1295 122.983 23.9138 122.624 24.7578C121.917 26.4013 121.784 26.579 120.742 27.7137H125.693ZM126.933 21.0508L127.571 19.2902C128.108 17.9455 128.58 16.5604 128.742 15.7124C128.746 15.6963 128.762 15.6963 128.77 15.7084C129.032 16.7543 129.448 18.0222 130.042 19.3508L130.765 21.0468L126.933 21.0508Z" fill="#0D060E"/>
<path d="M167.801 27.7137C166.989 26.1873 166.836 25.6705 166.836 23.6191C166.836 23.6191 166.824 14.7474 166.832 14.4365C167.078 14.4365 168.031 14.4405 168.253 14.4567C169.844 14.5334 170.385 14.8201 171.657 15.7368L171.29 11.7754H157.274L156.906 15.7368C158.178 14.8161 158.719 14.5334 160.31 14.4567C160.537 14.4405 161.485 14.4365 161.732 14.4365C161.74 14.7474 161.728 23.6191 161.728 23.6191C161.728 25.6745 161.554 26.1873 160.746 27.7137H167.801Z" fill="#0D060E"/>
<path d="M198.488 15.8741C198.488 13.8429 198.645 13.2978 199.449 11.7754H192.398C193.202 13.3018 193.376 13.8429 193.376 15.8741V23.6151C193.376 25.6705 193.206 26.1873 192.398 27.7097H199.449C198.645 26.1833 198.488 25.6664 198.488 23.6151V15.8741Z" fill="#0D060E"/>
<path d="M156.318 25.5848C155.514 24.4421 155.07 23.699 154.662 23.0933C153.471 21.3327 152.615 20.7876 151.581 20.3272C151.569 20.3192 151.573 20.307 151.589 20.303C153.814 20.1011 155.348 18.397 155.32 16.0024C155.308 14.7547 154.787 13.4261 153.58 12.6266C152.566 11.9563 151.387 11.7705 149.118 11.7705L140.129 11.7745C140.932 13.3009 141.11 13.8421 141.11 15.8732V23.6142C141.11 25.6696 140.937 26.1865 140.129 27.7089H146.965C146.158 26.1825 146.004 25.6656 145.948 23.5577V21.3691H146.142C146.864 21.3691 147.288 21.474 147.777 21.8577C148.197 22.1686 148.625 22.7178 149.283 23.7313C149.691 24.3734 150.055 24.967 150.584 25.811C151.565 27.3899 152.449 27.7089 153.842 27.7089H158.535C157.432 26.9335 156.782 26.239 156.318 25.5848ZM148.984 18.6151C148.173 19.0431 147.074 18.9624 145.952 18.9624V14.2539C147.741 14.2499 148.54 14.1813 149.247 14.7264C149.832 15.1585 150.071 15.7561 150.071 16.596C150.071 17.6419 149.59 18.2718 148.984 18.6151Z" fill="#0D060E"/>
<path d="M181.657 11.25C176.593 11.25 172.479 14.5976 172.479 19.7542C172.479 24.927 176.593 28.2706 181.657 28.2706C186.725 28.2706 190.836 24.927 190.836 19.7542C190.832 14.5976 186.721 11.25 181.657 11.25ZM181.657 25.6175C179.408 25.6175 177.579 23.5985 177.579 19.7542C177.579 15.91 179.408 13.9111 181.657 13.9111C183.91 13.9111 185.736 15.91 185.736 19.7542C185.736 23.5985 183.91 25.6175 181.657 25.6175Z" fill="#0D060E"/>
<path d="M109.254 21.0264L118.138 19.6009L109.254 18.1755L112.694 12.8573L107.425 16.2654L105.914 0L104.473 16.2654L99.2031 12.8573L102.64 18.1755L93.7598 19.6009L102.64 21.0264L99.2031 26.3486L104.473 22.9404L105.914 40.918L107.425 22.9404L112.694 26.3486L109.254 21.0264Z" fill="#ED1C25"/>
<path d="M9.94077 18.333C8.57993 17.5455 6.75875 17.0852 5.58366 16.5643C4.68721 16.1443 4.29551 15.4296 4.67913 14.6543C5.08294 13.8345 6.49223 13.5115 8.3013 14.0445C9.45216 14.3877 10.4536 15.0863 11.2491 15.8334V12.2031C9.58138 11.5005 7.73193 11.1977 5.78557 11.2825C4.08957 11.3511 2.76911 11.8438 1.6869 12.7644C0.693533 13.6084 0.0474379 14.8279 0.00301892 16.3341C-0.0575525 18.4218 0.790447 19.6211 2.80949 20.6872C4.37627 21.5069 5.96324 21.8582 6.84759 22.3872C7.69559 22.9 7.78846 23.5906 7.54214 24.1882C7.08987 25.2987 5.33734 25.5894 3.43944 24.9433C2.05841 24.487 0.82679 23.4411 0.192809 22.6901V26.8453C1.97361 27.6246 3.93612 27.9921 5.96728 27.9598C9.97711 27.8952 12.2748 25.763 12.4161 22.9889C12.509 20.9093 11.8871 19.4636 9.94077 18.333Z" fill="#0D060E"/>
<path d="M76.9038 27.5881C76.3062 26.2192 76.4394 25.5973 76.7988 24.604C76.9321 24.2203 77.1825 23.5823 77.1825 23.5823H83.0538C83.0538 23.5823 83.3648 24.2648 83.4778 24.604C83.8413 25.6458 83.8897 26.2717 83.3244 27.5922H90.9039C89.5996 26.1667 89.3654 25.5246 88.9777 24.604C88.6143 23.7156 83.5869 11.6094 83.5869 11.6094H77.5903C78.0183 12.4735 78.2283 13.2004 77.9376 13.9959C77.9376 13.9959 74.1862 23.7883 73.8268 24.6282C73.1282 26.2677 72.9909 26.4332 71.9531 27.5922L76.9038 27.5881ZM78.1354 20.9131L78.7735 19.1525C79.3105 17.8038 79.783 16.4349 79.9486 15.5829C79.9526 15.5627 79.9687 15.5627 79.9728 15.5788C80.2353 16.6287 80.6471 17.8886 81.2407 19.2091L81.9676 20.901L78.1354 20.9131Z" fill="#0D060E"/>
<path d="M23.5978 27.5889C22.7902 26.0665 22.6327 25.5295 22.6327 23.4741C22.6327 23.4741 22.6206 14.6064 22.6246 14.2995C22.875 14.2995 23.7311 14.3036 23.9491 14.3157C25.4957 14.3884 26.0288 14.6831 27.2685 15.6079L26.9091 11.6465H13.2442L12.8848 15.6079C14.1245 14.6831 14.6535 14.3924 16.2041 14.3157C16.4262 14.3036 17.2822 14.2995 17.5286 14.2995C17.5366 14.6064 17.5245 23.4741 17.5245 23.4741C17.5245 25.5295 17.3509 26.0665 16.5473 27.5889H23.5978V27.5889Z" fill="#0D060E"/>
<path d="M39.0789 24.8628H34.5765V20.2836H36.5147C38.0008 20.2836 38.7518 20.6067 39.8987 21.3982L39.5352 17.6145H34.5765V14.3032H38.4369C39.9189 14.3032 40.674 14.6182 41.8248 15.4056L41.4614 11.626H28.4062C29.2139 13.1483 29.3835 13.6773 29.3835 15.7327V23.4737C29.3835 25.5291 29.2139 26.0662 28.4062 27.5886H42.1075L42.4709 23.7604C41.3241 24.5519 40.5649 24.8628 39.0789 24.8628Z" fill="#0D060E"/>
<path d="M49.8171 15.7327C49.8171 13.6773 49.9746 13.1483 50.7822 11.626H43.6348C44.4383 13.1483 44.616 13.6773 44.616 15.7327V23.4737C44.616 25.5291 44.4383 26.0662 43.6348 27.5886H56.8151L57.2108 23.5747C56.06 24.3621 55.2766 24.8628 53.7986 24.8628H49.8171V15.7327Z" fill="#0D060E"/>
<path d="M64.5241 15.7327C64.5241 13.6773 64.6856 13.1483 65.4933 11.626H58.3418C59.1454 13.1483 59.3271 13.6773 59.3271 15.7327V23.4737C59.3271 25.5291 59.1494 26.0662 58.3418 27.5886H71.5262L71.9219 23.5747C70.771 24.3621 69.9836 24.8628 68.4976 24.8628H64.5201L64.5241 15.7327Z" fill="#0D060E"/>
<path d="M211.514 18.478C210.149 17.6825 208.32 17.2222 207.145 16.6851C206.245 16.2853 205.857 15.5665 206.237 14.7912C206.64 13.9715 208.054 13.6323 209.867 14.1694C211.022 14.5247 212.023 15.2193 212.823 15.9582V12.3361C211.151 11.6294 209.297 11.3306 207.347 11.4154C205.643 11.48 204.322 11.9605 203.236 12.8974C202.243 13.7454 201.597 14.9568 201.548 16.4711C201.484 18.5709 202.336 19.7581 204.363 20.8322C205.93 21.656 207.525 22.0154 208.413 22.5403C209.261 23.033 209.354 23.7316 209.104 24.3413C208.651 25.4356 206.891 25.7506 204.989 25.1005C203.608 24.624 202.376 23.5943 201.738 22.8432V26.9822C203.523 27.7656 205.494 28.1573 207.525 28.125C211.543 28.0564 213.852 25.9162 213.99 23.1259C214.091 21.0624 213.465 19.6087 211.514 18.478Z" fill="#0D060E"/>
<path d="M125.693 27.7137C125.095 26.3488 125.224 25.7431 125.592 24.7335C125.725 24.362 125.976 23.7119 125.976 23.7119H131.851C131.851 23.7119 132.162 24.4065 132.275 24.7335C132.638 25.7915 132.691 26.4053 132.122 27.7137H139.697C138.393 26.2963 138.158 25.6663 137.775 24.7335C137.411 23.8371 132.38 11.743 132.38 11.743C132.38 11.743 128.386 11.739 126.379 11.743C126.807 12.6072 127.021 13.33 126.727 14.1295C126.727 14.1295 122.983 23.9138 122.624 24.7578C121.917 26.4013 121.784 26.579 120.742 27.7137H125.693ZM126.933 21.0508L127.571 19.2902C128.108 17.9455 128.58 16.5604 128.742 15.7124C128.746 15.6963 128.762 15.6963 128.77 15.7084C129.032 16.7543 129.448 18.0222 130.042 19.3508L130.765 21.0468L126.933 21.0508Z" fill="#0D060E"/>
<path d="M167.801 27.7137C166.989 26.1873 166.836 25.6705 166.836 23.6191C166.836 23.6191 166.824 14.7474 166.832 14.4365C167.078 14.4365 168.031 14.4405 168.253 14.4567C169.844 14.5334 170.385 14.8201 171.657 15.7368L171.29 11.7754H157.274L156.906 15.7368C158.178 14.8161 158.719 14.5334 160.31 14.4567C160.537 14.4405 161.485 14.4365 161.732 14.4365C161.74 14.7474 161.728 23.6191 161.728 23.6191C161.728 25.6745 161.554 26.1873 160.746 27.7137H167.801Z" fill="#0D060E"/>
<path d="M198.488 15.8741C198.488 13.8429 198.645 13.2978 199.449 11.7754H192.398C193.202 13.3018 193.376 13.8429 193.376 15.8741V23.6151C193.376 25.6705 193.206 26.1873 192.398 27.7097H199.449C198.645 26.1833 198.488 25.6664 198.488 23.6151V15.8741Z" fill="#0D060E"/>
<path d="M156.318 25.5848C155.514 24.4421 155.07 23.699 154.662 23.0933C153.471 21.3327 152.615 20.7876 151.581 20.3272C151.569 20.3192 151.573 20.307 151.589 20.303C153.814 20.1011 155.348 18.397 155.32 16.0024C155.308 14.7547 154.787 13.4261 153.58 12.6266C152.566 11.9563 151.387 11.7705 149.118 11.7705L140.129 11.7745C140.932 13.3009 141.11 13.8421 141.11 15.8732V23.6142C141.11 25.6696 140.937 26.1865 140.129 27.7089H146.965C146.158 26.1825 146.004 25.6656 145.948 23.5577V21.3691H146.142C146.864 21.3691 147.288 21.474 147.777 21.8577C148.197 22.1686 148.625 22.7178 149.283 23.7313C149.691 24.3734 150.055 24.967 150.584 25.811C151.565 27.3899 152.449 27.7089 153.842 27.7089H158.535C157.432 26.9335 156.782 26.239 156.318 25.5848ZM148.984 18.6151C148.173 19.0431 147.074 18.9624 145.952 18.9624V14.2539C147.741 14.2499 148.54 14.1813 149.247 14.7264C149.832 15.1585 150.071 15.7561 150.071 16.596C150.071 17.6419 149.59 18.2718 148.984 18.6151Z" fill="#0D060E"/>
<path d="M181.657 11.25C176.593 11.25 172.479 14.5976 172.479 19.7542C172.479 24.927 176.593 28.2706 181.657 28.2706C186.725 28.2706 190.836 24.927 190.836 19.7542C190.832 14.5976 186.721 11.25 181.657 11.25ZM181.657 25.6175C179.408 25.6175 177.579 23.5985 177.579 19.7542C177.579 15.91 179.408 13.9111 181.657 13.9111C183.91 13.9111 185.736 15.91 185.736 19.7542C185.736 23.5985 183.91 25.6175 181.657 25.6175Z" fill="#0D060E"/>
<path d="M109.254 21.0264L118.138 19.6009L109.254 18.1755L112.694 12.8573L107.425 16.2654L105.914 0L104.473 16.2654L99.2031 12.8573L102.64 18.1755L93.7598 19.6009L102.64 21.0264L99.2031 26.3486L104.473 22.9404L105.914 40.918L107.425 22.9404L112.694 26.3486L109.254 21.0264Z" fill="#ED1C25"/>
</svg>
