<svg width="137" height="133" viewBox="0 0 137 133" fill="none" xmlns="http://www.w3.org/2000/svg">
<g clip-path="url(#clip0)">
<path d="M122.721 57.2698L102.886 62.1678L102.851 62.177C102.808 62.188 102.762 62.1935 102.718 62.1935H33.5304C33.486 62.1935 33.4417 62.188 33.3973 62.177L33.183 62.1238L13.4066 57.2405L0.996094 67.594H135.101L122.721 57.2698Z" fill="#F3EFE6"/>
<path d="M136.095 68.6868H0V132.383H136.095V68.6868Z" fill="#F3EFE6"/>
<path d="M102.649 61.0987L122.429 56.1787V21.4342C122.429 19.1677 120.725 17.3247 118.632 17.3247L17.6178 17.321C15.5241 17.321 13.8203 19.164 13.8203 21.4305V56.2117L33.5966 61.0987H102.649ZM34.5409 29.9979C34.5483 29.9979 34.5557 29.9979 34.5631 29.9979H101.685C101.692 29.9979 101.699 29.9979 101.707 29.9979C102.594 30.0328 103.292 30.7736 103.268 31.652C103.265 41.4535 95.7972 49.4286 86.6186 49.4286H49.6309C40.4487 49.4286 32.9794 41.4517 32.9794 31.6446C32.9536 30.7809 33.6539 30.0346 34.5409 29.9979Z" fill="#F3EFE6"/>
<rect x="1.2373" y="97.7407" width="133.62" height="33.4051" fill="#0D2240"/>
<path d="M68.7911 106.413C68.8606 106.413 68.9302 106.413 68.9997 106.413C69.0693 106.413 69.0836 106.437 69.0812 106.497C69.0788 106.558 69.0812 106.627 69.0812 106.692C69.0812 106.758 69.098 106.758 69.1412 106.755H69.3499C69.3978 106.755 69.4194 106.774 69.417 106.82V107.037C69.417 107.083 69.3978 107.099 69.3546 107.097H69.1412C69.098 107.097 69.0788 107.111 69.0812 107.155C69.0836 107.174 69.0836 107.193 69.0812 107.213C69.076 107.239 69.081 107.267 69.0952 107.29C69.1095 107.314 69.1319 107.33 69.158 107.338C69.2915 107.408 69.3997 107.518 69.4674 107.653C69.4913 107.694 69.5057 107.706 69.5513 107.68C69.6697 107.61 69.8021 107.567 69.9389 107.554C70.0758 107.542 70.2137 107.56 70.3427 107.608C70.3865 107.626 70.4357 107.626 70.4794 107.608C70.6131 107.565 70.7574 107.571 70.8872 107.624C70.9653 107.652 71.0401 107.689 71.1102 107.733C71.1513 107.757 71.1999 107.766 71.2469 107.757C71.3484 107.738 71.4528 107.743 71.5522 107.771C71.6516 107.798 71.7432 107.849 71.8201 107.918C71.8836 107.967 71.9635 107.99 72.0431 107.981C72.2115 107.986 72.3723 108.052 72.4964 108.166C72.5396 108.207 72.5899 108.193 72.6379 108.188C72.7487 108.176 72.8609 108.188 72.9665 108.224C73.081 108.261 73.1793 108.337 73.2447 108.438C73.2701 108.478 73.3058 108.511 73.348 108.532C73.3903 108.553 73.4374 108.562 73.4845 108.559C73.5801 108.56 73.6743 108.582 73.7604 108.624C73.8466 108.665 73.9227 108.725 73.9834 108.8C74.0082 108.831 74.0249 108.868 74.0318 108.907C74.0388 108.947 74.0358 108.988 74.0232 109.026C74.0105 109.064 73.9887 109.098 73.9595 109.125C73.9304 109.153 73.8949 109.172 73.8562 109.182C73.6248 109.229 73.4016 109.31 73.1943 109.423C73.1264 109.459 73.0472 109.467 72.9737 109.445C72.8742 109.428 72.7808 109.386 72.7027 109.322C72.16 108.886 71.5434 108.551 70.8824 108.335L70.7505 108.296C70.7354 108.289 70.7182 108.288 70.7022 108.293C70.6862 108.298 70.6727 108.308 70.6641 108.323C70.6541 108.339 70.6501 108.358 70.6527 108.377C70.6553 108.396 70.6645 108.413 70.6785 108.426L70.7529 108.489C70.997 108.704 71.182 108.978 71.2901 109.286C71.2989 109.306 71.303 109.327 71.302 109.348C71.3011 109.37 71.2951 109.391 71.2846 109.41C71.2741 109.428 71.2593 109.444 71.2416 109.456C71.2238 109.468 71.2034 109.476 71.1821 109.479C71.1294 109.492 71.0742 109.492 71.0215 109.479C70.933 109.453 70.8384 109.461 70.7553 109.5C70.7162 109.521 70.6708 109.525 70.6285 109.513C70.5861 109.501 70.55 109.473 70.5274 109.435C70.4945 109.391 70.4716 109.34 70.4603 109.286C70.4196 109.072 70.3314 108.87 70.2023 108.696C70.0731 108.521 69.9064 108.378 69.7144 108.277C69.6874 108.257 69.6566 108.243 69.624 108.236C69.5913 108.229 69.5576 108.229 69.5249 108.236C69.494 108.241 69.465 108.255 69.4408 108.275C69.4167 108.295 69.3984 108.321 69.3876 108.351C69.3769 108.38 69.3742 108.412 69.3798 108.443C69.3854 108.474 69.399 108.503 69.4194 108.527C69.5395 108.66 69.6331 108.815 69.6952 108.983C69.7097 109.017 69.7171 109.054 69.7168 109.091C69.716 109.12 69.7088 109.149 69.6958 109.175C69.6827 109.201 69.6641 109.224 69.6412 109.242C69.6183 109.26 69.5918 109.273 69.5634 109.28C69.535 109.287 69.5055 109.287 69.477 109.281C69.414 109.271 69.3553 109.244 69.308 109.201C69.2607 109.158 69.2269 109.102 69.2108 109.04C69.1724 108.947 69.1029 108.869 69.0141 108.821C68.9631 108.793 68.907 108.776 68.8493 108.771C68.7915 108.766 68.7333 108.773 68.6783 108.791C68.6232 108.809 68.5725 108.839 68.5292 108.877C68.4859 108.916 68.4509 108.963 68.4265 109.016C68.4097 109.052 68.3929 109.088 68.3737 109.122C68.3433 109.176 68.2975 109.219 68.2422 109.245C68.187 109.272 68.1249 109.281 68.0644 109.271C67.9612 109.271 67.8917 109.146 67.9157 109.031C67.9382 108.945 67.9738 108.864 68.0212 108.79C68.0708 108.704 68.1295 108.623 68.1963 108.549C68.226 108.517 68.2446 108.476 68.2493 108.433C68.2541 108.39 68.2447 108.346 68.2227 108.308C68.1925 108.276 68.1537 108.254 68.111 108.244C68.0684 108.235 68.0238 108.237 67.9828 108.253C67.7799 108.35 67.602 108.492 67.4631 108.669C67.3241 108.846 67.2278 109.053 67.1818 109.274C67.1684 109.347 67.1333 109.414 67.0811 109.467C67.056 109.494 67.0228 109.514 66.9861 109.521C66.9495 109.529 66.9114 109.525 66.8772 109.51C66.8017 109.477 66.7179 109.469 66.6374 109.486C66.5786 109.503 66.5163 109.503 66.4575 109.486C66.4372 109.482 66.4179 109.474 66.4013 109.462C66.3846 109.449 66.371 109.434 66.3615 109.415C66.352 109.397 66.3468 109.376 66.3464 109.356C66.346 109.335 66.3504 109.314 66.3592 109.296C66.4702 108.975 66.6668 108.691 66.9276 108.474L66.9659 108.438C66.9779 108.427 66.9861 108.413 66.9895 108.397C66.993 108.381 66.9914 108.364 66.9851 108.349C66.9783 108.336 66.9678 108.326 66.9549 108.32C66.942 108.313 66.9274 108.311 66.9132 108.313C66.8421 108.32 66.7724 108.337 66.7069 108.366C66.0681 108.585 65.4706 108.911 64.9394 109.329C64.8358 109.414 64.7059 109.459 64.5725 109.457C64.5266 109.457 64.4813 109.447 64.4405 109.426C64.2354 109.311 64.0137 109.23 63.7834 109.185C63.7456 109.173 63.7112 109.152 63.6834 109.124C63.6556 109.096 63.6351 109.061 63.624 109.023C63.6128 108.984 63.6112 108.944 63.6194 108.905C63.6275 108.866 63.6452 108.83 63.6707 108.8C63.7314 108.732 63.8053 108.677 63.8878 108.639C63.9702 108.601 64.0596 108.58 64.1504 108.578C64.1904 108.58 64.2303 108.571 64.2663 108.554C64.3023 108.536 64.3334 108.51 64.3566 108.477C64.4274 108.374 64.5266 108.294 64.642 108.246C64.7574 108.199 64.8841 108.186 65.0065 108.21C65.0304 108.215 65.0552 108.214 65.0784 108.206C65.1016 108.198 65.1223 108.185 65.1385 108.166C65.205 108.106 65.2828 108.061 65.3672 108.031C65.4516 108.002 65.541 107.99 65.6301 107.995C65.6877 107.999 65.7443 107.98 65.7884 107.942C65.8685 107.868 65.9652 107.814 66.0704 107.785C66.1756 107.756 66.2861 107.753 66.3928 107.776C66.4105 107.78 66.4288 107.78 66.4466 107.776C66.4644 107.773 66.4812 107.765 66.4959 107.754C66.6428 107.646 66.8225 107.593 67.0043 107.603C67.0298 107.599 67.0556 107.599 67.0811 107.603C67.1581 107.633 67.2439 107.633 67.3209 107.603C67.4395 107.564 67.5649 107.551 67.6888 107.565C67.8127 107.578 67.9325 107.617 68.0404 107.68C68.0907 107.709 68.1171 107.706 68.1435 107.648C68.2071 107.513 68.3169 107.406 68.4529 107.345C68.4775 107.337 68.4983 107.321 68.5116 107.299C68.5248 107.276 68.5295 107.25 68.5248 107.225C68.5248 107.066 68.5392 107.083 68.3857 107.083C68.2322 107.083 68.1963 107.083 68.1987 106.895C68.2011 106.707 68.1771 106.743 68.3498 106.741C68.5224 106.738 68.5248 106.741 68.5248 106.565C68.5248 106.389 68.5033 106.404 68.6879 106.401H68.8102L68.7911 106.413ZM68.827 107.499C68.7909 107.498 68.7549 107.504 68.7214 107.518C68.6879 107.532 68.6576 107.552 68.6328 107.579C68.5567 107.661 68.5118 107.767 68.5057 107.88C68.4995 107.992 68.5326 108.102 68.5992 108.193C68.6264 108.234 68.6642 108.267 68.7087 108.289C68.7532 108.31 68.8027 108.319 68.8519 108.315C68.9011 108.311 68.9482 108.293 68.9881 108.264C69.0281 108.234 69.0594 108.195 69.0788 108.149C69.1271 108.068 69.1503 107.974 69.1456 107.879C69.1409 107.785 69.1085 107.693 69.0525 107.617C69.0286 107.576 68.9931 107.543 68.9504 107.522C68.9077 107.501 68.8598 107.493 68.8126 107.499" fill="white"/>
<path d="M68.8106 111.472H64.2922C64.1675 111.472 64.1675 111.472 64.1435 111.352C64.0211 110.812 63.7683 110.311 63.4072 109.893C63.3065 109.772 63.1938 109.652 63.0835 109.556C63.0572 109.538 63.0386 109.51 63.0315 109.479C63.0244 109.448 63.0292 109.415 63.0451 109.387C63.059 109.357 63.0828 109.332 63.1124 109.318C63.142 109.303 63.1758 109.298 63.2082 109.305C63.2465 109.312 63.2827 109.327 63.3137 109.351C63.3903 109.407 63.4704 109.459 63.5535 109.505C63.6593 109.562 63.7748 109.599 63.8941 109.613C64.0155 109.628 64.1283 109.684 64.2131 109.772L64.3546 109.917C64.4084 109.961 64.4747 109.987 64.544 109.991C64.6022 109.999 64.6574 110.022 64.7047 110.057C64.7575 110.107 64.7599 110.136 64.7167 110.191C64.6735 110.247 64.6711 110.249 64.6495 110.28C64.5636 110.398 64.5229 110.543 64.5348 110.689C64.5466 110.834 64.6104 110.971 64.7143 111.073C64.7737 111.149 64.8593 111.199 64.9541 111.215C64.9819 111.22 65.0103 111.22 65.0381 111.215C65.1004 111.215 65.1676 111.193 65.1916 111.126C65.2026 111.093 65.2038 111.058 65.1948 111.025C65.1858 110.992 65.1671 110.963 65.1412 110.94C65.1049 110.909 65.0727 110.874 65.0453 110.834C65.0114 110.788 64.9931 110.733 64.9931 110.675C64.9931 110.618 65.0114 110.562 65.0453 110.516C65.0795 110.475 65.1249 110.445 65.176 110.429C65.2271 110.413 65.2817 110.413 65.3331 110.427C65.3897 110.441 65.4429 110.466 65.489 110.502C65.5167 110.519 65.5405 110.543 65.5591 110.57C65.5776 110.597 65.5904 110.627 65.5967 110.66C65.603 110.692 65.6026 110.725 65.5956 110.757C65.5887 110.789 65.5752 110.82 65.5561 110.846C65.5319 110.894 65.5228 110.949 65.5301 111.002C65.5374 111.055 65.5607 111.105 65.5969 111.145C65.6399 111.174 65.6913 111.189 65.7432 111.186C65.7951 111.183 65.8447 111.164 65.8847 111.13C65.9678 111.053 66.0233 110.951 66.0428 110.839C66.0623 110.728 66.0447 110.612 65.9926 110.512C65.9317 110.426 65.8635 110.345 65.7887 110.271C65.7528 110.24 65.7528 110.211 65.7887 110.17C65.8973 110.02 66.0312 109.89 66.1845 109.787C66.2007 109.775 66.2205 109.768 66.2408 109.768C66.2612 109.768 66.2809 109.775 66.2972 109.787C66.4554 109.88 66.5913 110.006 66.6953 110.158C66.7108 110.175 66.7194 110.198 66.7194 110.221C66.7194 110.245 66.7108 110.268 66.6953 110.285C66.6326 110.359 66.5787 110.44 66.5346 110.526C66.4958 110.622 66.4842 110.727 66.5012 110.83C66.5181 110.932 66.5629 111.028 66.6305 111.106C66.6715 111.152 66.7247 111.185 66.7838 111.201C66.8429 111.218 66.9055 111.216 66.9639 111.198C66.9831 111.194 67.0008 111.184 67.0151 111.171C67.0295 111.157 67.0399 111.14 67.0455 111.121C67.0636 111.074 67.0709 111.024 67.0668 110.974C67.0626 110.924 67.0471 110.875 67.0215 110.832C66.989 110.782 66.9742 110.723 66.9794 110.664C66.9846 110.605 67.0096 110.55 67.0502 110.507C67.0937 110.464 67.1498 110.436 67.2102 110.427C67.2707 110.419 67.3323 110.43 67.386 110.459C67.4138 110.472 67.4385 110.491 67.4586 110.514C67.4788 110.537 67.4938 110.564 67.5028 110.594C67.5119 110.623 67.5147 110.654 67.5111 110.685C67.5075 110.716 67.4976 110.745 67.4819 110.772C67.4478 110.832 67.4296 110.9 67.4292 110.969C67.4292 111.033 67.4544 111.094 67.4994 111.139C67.5444 111.185 67.6054 111.21 67.669 111.21C67.721 111.211 67.7725 111.201 67.8196 111.178C67.8666 111.156 67.9079 111.123 67.94 111.082C67.9888 111.033 68.0268 110.974 68.0517 110.908C68.0766 110.843 68.0879 110.774 68.0847 110.704C68.0816 110.634 68.0641 110.566 68.0334 110.504C68.0027 110.441 67.9595 110.386 67.9064 110.341L67.8057 110.24C67.7856 110.223 67.7708 110.2 67.7629 110.175C67.755 110.15 67.7544 110.124 67.7612 110.098C67.7681 110.073 67.782 110.05 67.8013 110.032C67.8207 110.015 67.8447 110.003 67.8705 109.999C68.0806 109.942 68.2756 109.839 68.4413 109.698C68.4954 109.653 68.5402 109.598 68.5732 109.536C68.5973 109.49 68.6289 109.447 68.6667 109.411C68.6848 109.388 68.7079 109.37 68.7343 109.358C68.7607 109.346 68.7895 109.34 68.8184 109.342C68.8474 109.343 68.8757 109.351 68.901 109.365C68.9263 109.379 68.9479 109.399 68.9641 109.423C68.9852 109.448 69.0037 109.474 69.0193 109.503C69.1264 109.698 69.3015 109.846 69.5109 109.919C69.5829 109.948 69.6572 109.97 69.7315 109.994C69.7604 109.998 69.7874 110.01 69.8091 110.03C69.8307 110.049 69.8459 110.075 69.8526 110.104C69.8594 110.132 69.8574 110.162 69.8469 110.189C69.8364 110.216 69.8179 110.24 69.7939 110.256C69.7555 110.295 69.7172 110.331 69.6788 110.372C69.6313 110.418 69.5935 110.473 69.5677 110.534C69.5419 110.595 69.5286 110.661 69.5286 110.727C69.5286 110.793 69.5419 110.859 69.5677 110.92C69.5935 110.981 69.6313 111.036 69.6788 111.082C69.7357 111.151 69.8144 111.199 69.9018 111.217C69.9316 111.226 69.9628 111.228 69.9936 111.224C70.0243 111.22 70.0539 111.21 70.0804 111.194C70.107 111.178 70.13 111.156 70.1479 111.131C70.1659 111.105 70.1785 111.077 70.1848 111.046C70.1965 111.012 70.2008 110.976 70.1975 110.939C70.1942 110.903 70.1833 110.868 70.1656 110.837C70.1543 110.819 70.1455 110.799 70.1393 110.779C70.1139 110.732 70.1063 110.678 70.1177 110.626C70.1292 110.574 70.159 110.529 70.2016 110.497C70.2482 110.463 70.3045 110.444 70.3623 110.444C70.4201 110.444 70.4764 110.463 70.523 110.497C70.5784 110.535 70.6184 110.592 70.6356 110.657C70.6528 110.722 70.646 110.791 70.6165 110.851C70.5891 110.901 70.569 110.955 70.5566 111.01C70.5471 111.043 70.5468 111.079 70.5555 111.112C70.5642 111.146 70.5817 111.177 70.6061 111.201C70.6306 111.226 70.6611 111.243 70.6945 111.252C70.728 111.261 70.7631 111.26 70.7964 111.251C70.8966 111.229 70.9858 111.172 71.0485 111.091C71.1113 111.009 71.1434 110.908 71.1393 110.805C71.1417 110.721 71.1267 110.638 71.0954 110.56C71.064 110.482 71.0169 110.411 70.9571 110.353C70.8875 110.266 70.8851 110.268 70.9571 110.177C71.053 110.037 71.1782 109.919 71.324 109.833C71.342 109.819 71.3639 109.811 71.3864 109.811C71.4089 109.811 71.4308 109.819 71.4487 109.833C71.6093 109.929 71.7462 110.061 71.8492 110.218C71.8551 110.224 71.8596 110.232 71.8622 110.24C71.8648 110.248 71.8656 110.257 71.8644 110.265C71.8633 110.274 71.8603 110.282 71.8555 110.289C71.8508 110.296 71.8446 110.302 71.8373 110.307C71.7717 110.37 71.7123 110.44 71.6598 110.514C71.5919 110.619 71.5655 110.746 71.5859 110.869C71.6063 110.993 71.672 111.104 71.7701 111.181C71.7969 111.203 71.8289 111.217 71.8628 111.223C71.8968 111.229 71.9317 111.226 71.9642 111.214C71.9967 111.203 72.0257 111.183 72.0484 111.157C72.0711 111.131 72.0868 111.099 72.0939 111.065C72.1058 111.031 72.1101 110.994 72.1064 110.957C72.1027 110.921 72.091 110.885 72.0723 110.854C72.0555 110.83 72.0435 110.803 72.0372 110.774C72.0308 110.746 72.0302 110.717 72.0353 110.688C72.0405 110.659 72.0513 110.632 72.0671 110.607C72.0829 110.583 72.1034 110.562 72.1275 110.545C72.1646 110.512 72.2082 110.486 72.2556 110.469C72.303 110.453 72.3532 110.446 72.4033 110.449C72.4413 110.45 72.4786 110.459 72.5122 110.477C72.5458 110.495 72.5747 110.521 72.5965 110.552C72.6182 110.583 72.6323 110.619 72.6375 110.657C72.6427 110.695 72.6388 110.733 72.6263 110.769C72.6072 110.837 72.5689 110.898 72.516 110.945C72.5012 110.954 72.4888 110.966 72.48 110.981C72.3937 111.116 72.4296 111.222 72.5831 111.241C72.6368 111.252 72.6923 111.248 72.744 111.23C72.7957 111.212 72.842 111.181 72.8781 111.14C72.9574 111.062 73.0167 110.966 73.051 110.86C73.0852 110.754 73.0934 110.641 73.0748 110.531C73.0462 110.424 72.9964 110.324 72.9285 110.237C72.8565 110.131 72.8829 110.035 73.0076 110.023C73.0899 110.012 73.1694 109.986 73.2415 109.945C73.3135 109.903 73.3767 109.848 73.4273 109.782C73.5082 109.692 73.621 109.638 73.7415 109.63C73.9384 109.598 74.1236 109.515 74.2787 109.389C74.302 109.368 74.3292 109.352 74.3589 109.341C74.3885 109.33 74.4199 109.325 74.4514 109.327C74.481 109.329 74.5093 109.34 74.5325 109.358C74.5556 109.377 74.5726 109.402 74.5809 109.43C74.6217 109.536 74.6121 109.56 74.5281 109.642C74.2464 109.902 74.0097 110.207 73.8278 110.545C73.6735 110.827 73.5642 111.131 73.5041 111.446C73.5039 111.455 73.5017 111.464 73.4977 111.472C73.4937 111.48 73.488 111.488 73.4809 111.493C73.4738 111.499 73.4655 111.503 73.4567 111.505C73.4479 111.508 73.4387 111.508 73.4297 111.506C73.4074 111.505 73.3849 111.505 73.3626 111.506L68.8106 111.472Z" fill="white"/>
<path d="M68.8059 112.084H73.3867C73.437 112.084 73.4562 112.103 73.4562 112.154C73.4562 112.33 73.4562 112.505 73.4562 112.684C73.4562 112.758 73.4562 112.835 73.4562 112.91C73.4562 112.985 73.437 112.975 73.3939 112.973H64.2803C64.1484 112.973 64.1484 112.973 64.1484 112.84V112.175C64.1484 112.086 64.1484 112.084 64.242 112.084H68.7987H68.8059ZM68.7987 112.792C68.8643 112.792 68.9271 112.766 68.9734 112.719C69.0197 112.673 69.0458 112.61 69.0458 112.544C69.0458 112.478 69.0197 112.415 68.9734 112.369C68.9271 112.322 68.8643 112.296 68.7987 112.296C68.7661 112.294 68.7333 112.299 68.7025 112.31C68.6717 112.321 68.6436 112.339 68.6198 112.361C68.596 112.384 68.577 112.411 68.564 112.441C68.5511 112.471 68.5445 112.504 68.5445 112.537C68.5445 112.569 68.5511 112.602 68.5638 112.632C68.5766 112.662 68.5954 112.689 68.6189 112.711C68.6425 112.734 68.6704 112.751 68.7009 112.763C68.7314 112.774 68.7638 112.779 68.7963 112.777L68.7987 112.792ZM65.1797 112.281C65.1329 112.284 65.0877 112.3 65.0499 112.328C65.0121 112.356 64.9832 112.394 64.9669 112.438C64.9505 112.482 64.9475 112.53 64.958 112.576C64.9686 112.622 64.9923 112.664 65.0263 112.696C65.0603 112.729 65.103 112.751 65.1491 112.759C65.1953 112.767 65.2429 112.762 65.286 112.743C65.3292 112.725 65.3659 112.694 65.3918 112.655C65.4177 112.615 65.4315 112.569 65.4315 112.522C65.4316 112.49 65.425 112.457 65.4122 112.427C65.3994 112.397 65.3807 112.37 65.3571 112.348C65.3335 112.325 65.3057 112.308 65.2752 112.296C65.2447 112.285 65.2122 112.28 65.1797 112.281ZM70.6166 112.777C70.6493 112.779 70.6821 112.775 70.7128 112.763C70.7436 112.752 70.7718 112.735 70.7956 112.712C70.8194 112.69 70.8384 112.663 70.8513 112.632C70.8643 112.602 70.8709 112.57 70.8709 112.537C70.8709 112.473 70.8456 112.412 70.8006 112.366C70.7556 112.321 70.6946 112.296 70.631 112.296C70.5655 112.296 70.5027 112.322 70.4564 112.369C70.41 112.415 70.384 112.478 70.384 112.544C70.384 112.61 70.41 112.673 70.4564 112.719C70.5027 112.766 70.5655 112.792 70.631 112.792L70.6166 112.777ZM67.2302 112.551C67.2302 112.487 67.205 112.426 67.16 112.381C67.115 112.336 67.054 112.31 66.9904 112.31C66.9268 112.31 66.8658 112.336 66.8208 112.381C66.7759 112.426 66.7506 112.487 66.7506 112.551C66.7505 112.584 66.7572 112.617 66.7701 112.647C66.7831 112.677 66.802 112.704 66.8258 112.727C66.8497 112.749 66.8778 112.767 66.9086 112.778C66.9394 112.789 66.9721 112.794 67.0048 112.792C67.0684 112.792 67.1294 112.767 67.1744 112.721C67.2194 112.676 67.2446 112.615 67.2446 112.551H67.2302ZM72.4274 112.792C72.4929 112.792 72.5557 112.766 72.602 112.719C72.6484 112.673 72.6744 112.61 72.6744 112.544C72.6744 112.478 72.6484 112.415 72.602 112.369C72.5557 112.322 72.4929 112.296 72.4274 112.296C72.3947 112.294 72.3619 112.299 72.3312 112.31C72.3004 112.321 72.2722 112.339 72.2484 112.361C72.2246 112.384 72.2056 112.411 72.1927 112.441C72.1797 112.471 72.1731 112.504 72.1731 112.537C72.1731 112.601 72.1984 112.662 72.2434 112.707C72.2884 112.752 72.3494 112.777 72.413 112.777" fill="white"/>
<path d="M68.7982 111.892H64.2582C64.1455 111.892 64.1455 111.892 64.1455 111.781C64.1455 111.67 64.1455 111.653 64.2726 111.653H73.331C73.4557 111.653 73.4557 111.653 73.4557 111.776C73.4569 111.798 73.4569 111.821 73.4557 111.843C73.4565 111.85 73.4558 111.856 73.4536 111.863C73.4515 111.869 73.448 111.874 73.4433 111.879C73.4387 111.884 73.4331 111.887 73.4269 111.889C73.4208 111.892 73.4142 111.892 73.4077 111.892H68.7982Z" fill="white"/>
<path d="M58.2721 114.463C59.3979 114.146 60.4199 113.536 61.234 112.693C61.589 113.416 62.1933 113.753 62.9728 113.856L62.9224 113.912C62.6985 114.134 62.4093 114.279 62.0974 114.324C61.8744 114.36 61.6465 114.372 61.4139 114.396V119.694L61.4739 119.672C61.5482 119.641 61.6226 119.609 61.6969 119.583C61.7088 119.576 61.7219 119.571 61.7356 119.569C61.7493 119.567 61.7632 119.569 61.7765 119.572C61.7898 119.576 61.8021 119.583 61.8128 119.592C61.8234 119.6 61.8321 119.611 61.8384 119.624C61.8528 119.648 61.8576 119.678 61.8519 119.706C61.8461 119.734 61.8302 119.758 61.8072 119.775C61.7369 119.84 61.6615 119.899 61.5818 119.951C61.5188 119.984 61.4679 120.037 61.4364 120.101C61.4049 120.165 61.3945 120.237 61.4067 120.308C61.4211 120.637 61.4067 120.97 61.4067 121.3C61.4174 121.42 61.3824 121.541 61.3086 121.637C61.2348 121.733 61.1277 121.797 61.0086 121.817C60.9068 121.847 60.799 121.85 60.6959 121.825C60.5928 121.8 60.498 121.749 60.421 121.675C60.3767 121.638 60.341 121.591 60.3165 121.539C60.292 121.486 60.2794 121.429 60.2794 121.371C60.2794 121.313 60.292 121.255 60.3165 121.203C60.341 121.15 60.3767 121.103 60.421 121.066C60.5343 120.963 60.6828 120.907 60.8359 120.91C60.9294 120.91 60.9318 120.91 60.9318 120.813V120.315C60.9121 120.322 60.8929 120.33 60.8743 120.339C60.4215 120.566 59.9359 120.719 59.4353 120.794C59.0743 120.857 58.7082 120.887 58.3417 120.883C57.5639 120.888 56.7984 120.689 56.1209 120.305C55.6971 120.066 55.3321 119.734 55.0528 119.334C54.7735 118.935 54.5869 118.477 54.5068 117.996C54.4048 117.483 54.4163 116.954 54.5407 116.446C54.665 115.939 54.8991 115.465 55.2263 115.058C55.9535 114.09 56.9926 113.405 58.1666 113.12C58.4567 113.046 58.7547 113.008 59.054 113.006H59.1211C59.1186 113.03 59.1186 113.055 59.1211 113.079C59.1211 113.129 59.1091 113.156 59.0588 113.175C58.707 113.3 58.3787 113.483 58.0875 113.717C57.5819 114.103 57.1621 114.591 56.8547 115.15C56.6154 115.643 56.5095 116.191 56.5477 116.739C56.5461 117.041 56.5931 117.342 56.6869 117.63C56.8623 118.088 57.1395 118.5 57.4975 118.834C57.6678 118.998 57.8524 119.144 58.0371 119.315C58.112 119.23 58.1921 119.15 58.2769 119.075C58.3189 119.04 58.3517 118.996 58.3722 118.945C58.3927 118.895 58.4004 118.84 58.3944 118.786C58.3944 117.501 58.3944 116.217 58.3944 114.933C58.3978 114.824 58.3773 114.715 58.3345 114.615C58.3129 114.564 58.2961 114.511 58.2721 114.454V114.463ZM58.6415 119.621C58.711 119.653 58.7686 119.684 58.8285 119.708C59.1016 119.801 59.3869 119.853 59.6751 119.862C60.0632 119.881 60.4522 119.869 60.8383 119.826C60.9486 119.826 60.9366 119.826 60.9366 119.718V114.393C60.9378 114.374 60.9378 114.355 60.9366 114.336C60.9336 114.319 60.9252 114.304 60.9127 114.292C60.7074 114.159 60.4867 114.05 60.2555 113.97C60.1524 113.938 60.1308 113.97 60.1308 114.068V118.266C60.1329 118.293 60.1283 118.32 60.1175 118.346C60.1066 118.371 60.0898 118.393 60.0685 118.41C59.7015 118.716 59.349 119.029 58.9772 119.337L58.6415 119.624" fill="white"/>
<path d="M74.8898 118.865H75.2208C75.0433 119 74.8611 119.13 74.6908 119.27C74.515 119.414 74.3685 119.59 74.2591 119.79C74.0114 119.403 73.6708 119.085 73.2686 118.865H73.6259V116.009C73.6313 115.874 73.5874 115.742 73.5026 115.638C73.4179 115.533 73.298 115.463 73.1655 115.441H73.1343L73.1703 115.412C73.4628 115.231 73.753 115.051 74.0456 114.875C74.0566 114.868 74.0688 114.863 74.0816 114.861C74.0944 114.859 74.1074 114.86 74.12 114.863L74.7268 115.277C74.7449 115.289 74.7611 115.304 74.7747 115.321C74.8251 115.41 74.8994 115.398 74.9786 115.374C75.1929 115.304 75.397 115.206 75.5853 115.082C75.7029 115.01 75.8252 114.933 75.9331 114.856C75.9469 114.844 75.9643 114.838 75.9823 114.838C76.0002 114.838 76.0176 114.844 76.0314 114.856C76.36 115.041 76.6886 115.227 77.0195 115.405C77.1682 115.482 77.173 115.479 77.1131 115.646V115.672C77.0417 115.799 77.0115 115.944 77.0267 116.089C77.0267 116.994 77.0267 117.9 77.0267 118.805V118.884H77.3649C76.9773 119.113 76.6486 119.43 76.4056 119.809C76.1838 119.418 75.8561 119.098 75.4606 118.887H75.8036C75.8036 118.858 75.8036 118.834 75.8036 118.812C75.8036 117.879 75.8036 116.948 75.8036 116.019C75.8051 116 75.8014 115.98 75.793 115.963C75.7846 115.946 75.7717 115.931 75.7556 115.92C75.6501 115.845 75.5494 115.768 75.4486 115.679C75.4356 115.668 75.419 115.662 75.4019 115.662C75.3847 115.662 75.3681 115.668 75.3551 115.679L74.9282 115.92C74.9135 115.926 74.9011 115.936 74.8929 115.95C74.8846 115.963 74.881 115.979 74.8826 115.995C74.8826 116.937 74.8826 117.877 74.8826 118.815C74.8826 118.831 74.8826 118.848 74.8826 118.875" fill="white"/>
<path d="M81.8597 118.86L80.9436 119.778L80.1761 119.055L79.4926 119.797C79.2324 119.575 78.9513 119.379 78.6532 119.212C78.3581 119.036 78.0326 118.919 77.6938 118.865C77.749 118.795 77.797 118.728 77.8497 118.665C77.8711 118.641 77.8875 118.613 77.8978 118.582C77.9081 118.552 77.9121 118.519 77.9097 118.487C77.9097 117.607 77.9097 116.728 77.9097 115.85C77.9074 115.808 77.8942 115.767 77.8713 115.732C77.802 115.649 77.7578 115.548 77.7442 115.441L78.0296 115.373C78.4919 115.259 78.9365 115.081 79.3511 114.846C79.3677 114.837 79.3862 114.833 79.4051 114.833C79.4239 114.833 79.4424 114.837 79.459 114.846L81.0371 115.39C81.0586 115.394 81.0778 115.406 81.0908 115.423C81.1037 115.441 81.1094 115.462 81.1067 115.484C81.1067 116.447 81.1067 117.411 81.1067 118.362C81.1072 118.47 81.1454 118.574 81.2146 118.657C81.2838 118.74 81.3797 118.795 81.4856 118.814L81.8645 118.882L81.8597 118.86ZM79.9075 118.73V116.122C79.9075 116.062 79.9243 115.987 79.9075 115.944C79.8907 115.901 79.802 115.896 79.7468 115.874L79.0561 115.609V118.157C79.0537 118.172 79.0537 118.188 79.0561 118.203C79.0617 118.223 79.0734 118.242 79.0897 118.256C79.3826 118.374 79.6611 118.526 79.9195 118.708" fill="white"/>
<path d="M63.7571 119.79C63.1914 119.249 62.4567 118.921 61.6777 118.863C61.7161 118.81 61.7473 118.759 61.7833 118.713C61.8192 118.668 61.9224 118.557 61.9895 118.473C62.007 118.452 62.0171 118.427 62.0183 118.4C62.0183 117.541 62.0183 116.682 62.0183 115.821C62.0157 115.792 62.0058 115.764 61.9895 115.739C61.9535 115.674 61.9128 115.614 61.8768 115.549C61.864 115.513 61.8536 115.476 61.8456 115.438C61.9559 115.422 62.0591 115.412 62.1598 115.395C62.6427 115.333 63.1031 115.153 63.5004 114.87C63.5234 114.849 63.5525 114.835 63.5836 114.832C63.6147 114.828 63.6461 114.835 63.6731 114.851C64.1375 115.062 64.6189 115.233 65.1121 115.361C65.232 115.39 65.3519 115.412 65.4838 115.436C65.4455 115.479 65.4095 115.52 65.3759 115.564C65.3163 115.64 65.2849 115.734 65.2872 115.831C65.2872 116.679 65.2872 117.517 65.2872 118.371C65.2801 118.47 65.2984 118.568 65.3404 118.657C65.3825 118.746 65.4467 118.823 65.527 118.879C64.8606 118.992 64.245 119.308 63.7642 119.785L63.7571 119.79ZM64.1024 118.704C64.1024 118.675 64.1024 118.656 64.1024 118.636C64.1024 117.757 64.1024 116.878 64.1024 115.999C64.1047 115.981 64.1004 115.963 64.0903 115.948C64.0801 115.933 64.0648 115.922 64.0472 115.918L63.4189 115.677C63.3302 115.643 63.239 115.619 63.1383 115.585V115.665C63.1383 116.546 63.1383 117.425 63.1383 118.314C63.1363 118.334 63.1405 118.354 63.1504 118.372C63.1602 118.389 63.1753 118.404 63.1935 118.412C63.3936 118.525 63.6095 118.606 63.8338 118.653C63.9201 118.675 64.0065 118.692 64.0976 118.711" fill="white"/>
<path d="M72.926 115.443C72.89 115.484 72.8516 115.528 72.818 115.571C72.7598 115.648 72.7294 115.742 72.7317 115.838V118.436C72.7279 118.52 72.7449 118.604 72.7814 118.68C72.8178 118.755 72.8724 118.821 72.9404 118.87C72.9404 118.87 72.9404 118.87 72.9548 118.887C72.2891 118.999 71.6743 119.315 71.1944 119.792C70.9238 119.512 70.5967 119.294 70.2351 119.152C69.8743 119.002 69.4938 118.905 69.1055 118.865C69.1462 118.807 69.175 118.757 69.2134 118.711C69.2518 118.665 69.3525 118.557 69.4196 118.47C69.4373 118.452 69.4476 118.428 69.4484 118.403C69.4484 117.538 69.4484 116.676 69.4484 115.812C69.4454 115.787 69.4363 115.763 69.422 115.742C69.3861 115.674 69.3429 115.612 69.3069 115.547C69.292 115.511 69.2815 115.474 69.2757 115.436C69.4125 115.417 69.5396 115.402 69.6667 115.378C70.1165 115.312 70.5445 115.14 70.9162 114.877C70.9436 114.852 70.9785 114.836 71.0157 114.832C71.0529 114.828 71.0904 114.836 71.1224 114.856C71.5639 115.054 72.0212 115.215 72.4895 115.337C72.631 115.373 72.7725 115.398 72.9164 115.429L72.926 115.443ZM71.523 118.697C71.523 118.668 71.523 118.651 71.523 118.634V116.009C71.5253 115.994 71.5221 115.978 71.5137 115.964C71.5053 115.951 71.4924 115.941 71.4774 115.937C71.2615 115.853 71.0457 115.766 70.8299 115.684C70.7459 115.653 70.6572 115.629 70.566 115.6C70.566 115.631 70.566 115.65 70.566 115.67V118.318C70.5647 118.336 70.5685 118.354 70.577 118.37C70.5855 118.386 70.5984 118.399 70.614 118.408C70.7843 118.508 70.9686 118.582 71.1608 118.627C71.2783 118.658 71.4006 118.682 71.523 118.713" fill="white"/>
<path d="M65.7307 115.431L66.6901 114.836C66.6989 114.832 66.7088 114.829 66.7188 114.829C66.7289 114.829 66.7387 114.832 66.7476 114.836C66.9563 114.979 67.1649 115.121 67.3712 115.265C67.4072 115.289 67.4383 115.323 67.4815 115.359L68.3017 114.822C68.5408 115.107 68.8442 115.331 69.1867 115.475C69.1646 115.587 69.1126 115.691 69.0361 115.776C68.9597 115.861 68.8616 115.923 68.7526 115.956C68.5504 116.006 68.3378 115.989 68.1458 115.908C68.0187 115.862 67.906 115.8 67.7717 115.747C67.7343 115.73 67.6947 115.72 67.6542 115.715C67.5295 115.715 67.4839 115.752 67.4839 115.877V118.87H67.7981C67.4182 119.099 67.0952 119.412 66.8531 119.785C66.6104 119.406 66.2817 119.09 65.8938 118.863H66.2344V118.769C66.2344 117.854 66.2344 116.936 66.2344 116.021C66.2346 115.883 66.1867 115.749 66.0992 115.643C66.0116 115.537 65.8898 115.464 65.7547 115.438H65.7188" fill="white"/>
<path d="M82.6173 119.759C82.6173 119.823 82.6045 119.887 82.5797 119.946C82.5548 120.005 82.5184 120.059 82.4726 120.103C82.4268 120.148 82.3725 120.184 82.3129 120.207C82.2533 120.231 82.1897 120.242 82.1257 120.24C81.9984 120.24 81.8764 120.189 81.7865 120.099C81.6965 120.009 81.646 119.886 81.646 119.759C81.646 119.631 81.6965 119.508 81.7865 119.418C81.8764 119.328 81.9984 119.277 82.1257 119.277C82.1897 119.275 82.2533 119.287 82.3129 119.31C82.3725 119.334 82.4268 119.369 82.4726 119.414C82.5184 119.459 82.5548 119.512 82.5797 119.571C82.6045 119.631 82.6173 119.694 82.6173 119.759ZM81.7539 119.759C81.7523 119.809 81.7609 119.859 81.7791 119.906C81.7974 119.953 81.8249 119.996 81.8601 120.032C81.8953 120.068 81.9374 120.097 81.9839 120.116C82.0304 120.135 82.0802 120.145 82.1305 120.144C82.1795 120.144 82.2279 120.133 82.273 120.114C82.318 120.095 82.3587 120.066 82.3927 120.031C82.4267 119.995 82.4532 119.953 82.4708 119.908C82.4884 119.862 82.4966 119.813 82.495 119.763C82.4991 119.712 82.4926 119.66 82.4758 119.612C82.4591 119.563 82.4325 119.518 82.3977 119.48C82.3629 119.442 82.3206 119.412 82.2736 119.392C82.2266 119.371 82.1758 119.36 82.1245 119.36C82.0731 119.36 82.0224 119.371 81.9753 119.392C81.9283 119.412 81.8861 119.442 81.8513 119.48C81.8164 119.518 81.7898 119.563 81.7731 119.612C81.7563 119.66 81.7498 119.712 81.7539 119.763V119.759ZM82.0513 120.011H81.9386V119.53C81.9996 119.52 82.0614 119.515 82.1233 119.515C82.1816 119.51 82.24 119.523 82.2911 119.552C82.3063 119.564 82.3184 119.581 82.3263 119.599C82.3342 119.618 82.3378 119.637 82.3367 119.657C82.335 119.684 82.3244 119.71 82.3066 119.73C82.2887 119.75 82.2647 119.763 82.2384 119.768C82.2618 119.778 82.2821 119.794 82.2973 119.814C82.3125 119.835 82.3219 119.859 82.3247 119.884C82.3289 119.926 82.3411 119.967 82.3607 120.004H82.2408C82.222 119.968 82.2091 119.929 82.2024 119.889C82.2016 119.877 82.1983 119.865 82.1928 119.855C82.1872 119.845 82.1796 119.835 82.1703 119.828C82.161 119.821 82.1504 119.816 82.139 119.813C82.1275 119.81 82.1157 119.81 82.1041 119.812H82.0513V120.011ZM82.0513 119.739H82.1041C82.164 119.739 82.2144 119.718 82.2144 119.67C82.2144 119.621 82.1832 119.595 82.1113 119.595C82.0914 119.591 82.0711 119.591 82.0513 119.595V119.739Z" fill="white"/>
</g>
<g clip-path="url(#clip1)">
<path d="M18.674 53.8279C17.6614 55.7336 17.0063 57.2626 16.6 58.8857C16.1939 60.5076 16.0423 62.1992 16.0092 64.4223C15.9835 66.1426 16.0289 68.2005 16.0863 70.8058C16.1029 71.5584 16.1205 72.3567 16.1377 73.2057C16.2145 77 16.2837 81.8269 16.2203 88.1649C16.093 100.855 16.0984 107.204 16.1358 110.382C16.1544 111.97 16.1811 112.772 16.2037 113.18C16.2149 113.381 16.2256 113.498 16.2358 113.57C16.2404 113.602 16.2477 113.647 16.2625 113.694C16.2631 113.696 16.2639 113.698 16.2648 113.701C16.2679 113.712 16.2716 113.725 16.276 113.739C16.2904 113.785 16.3118 113.843 16.3433 113.911C16.4065 114.048 16.5092 114.224 16.6746 114.424C17.0058 114.824 17.58 115.311 18.573 115.782C20.5495 116.721 24.2301 117.622 31.1226 117.64C38.0152 117.659 41.7006 116.779 43.6823 115.851C44.6778 115.385 45.2547 114.901 45.5881 114.503C45.7546 114.304 45.8583 114.129 45.9222 113.993C45.9541 113.925 45.9758 113.867 45.9905 113.821C45.9931 113.813 45.9954 113.805 45.9975 113.798C46.0155 113.751 46.0254 113.706 46.0314 113.676C46.0469 113.598 46.0627 113.476 46.0794 113.273C46.1134 112.862 46.1562 112.057 46.1951 110.469C46.2732 107.289 46.3368 100.939 46.28 88.2478L45.8755 88.2496L46.28 88.2478C46.2514 81.9092 46.3414 77.0823 46.4305 73.288C46.4473 72.5759 46.464 71.8996 46.4799 71.256C46.5486 68.4752 46.6023 66.3052 46.5761 64.5038C46.5438 62.2799 46.39 60.5877 45.9845 58.964C45.5789 57.3395 44.9273 55.8075 43.9263 53.8968C43.0808 52.283 42.4217 51.2178 41.9338 50.4292C41.7978 50.2094 41.6751 50.0111 41.5653 49.8284C41.069 49.0019 40.8484 48.5136 40.7809 47.7324L40.7809 47.7323C39.8456 36.9271 39.0455 27.0413 38.4792 19.8568C38.1961 16.2645 37.9714 13.3477 37.8176 11.3289C37.7406 10.3196 37.6814 9.53473 37.6414 9.00228L37.596 8.39637L37.5845 8.2419L37.5842 8.23863C37.8652 5.89972 37.6131 4.19097 37.2766 3.05033C37.1075 2.47688 36.9177 2.04963 36.766 1.76027C36.6902 1.61565 36.624 1.50562 36.5747 1.42912C36.55 1.39088 36.5296 1.36101 36.5143 1.3394C36.5067 1.3286 36.5003 1.31985 36.4954 1.31316L36.4891 1.30464L36.4867 1.30153L36.4857 1.30026L36.4853 1.2997C36.4851 1.29944 36.4849 1.29918 36.0885 1.60395L36.4849 1.29918L36.3353 1.10461L36.0899 1.10396L32.0437 1.09316L32.0437 1.09316L30.8486 1.08992L30.8485 1.08992L26.8024 1.07912L26.5953 1.07857L26.4485 1.22459L26.801 1.57912C26.4485 1.22459 26.4483 1.22478 26.4481 1.22498L26.4476 1.22542L26.4465 1.22651L26.4436 1.22945L26.4348 1.2384C26.4277 1.24572 26.4181 1.25574 26.4062 1.26843C26.3823 1.29379 26.3493 1.32981 26.3089 1.37611C26.2281 1.46863 26.1176 1.60257 25.992 1.77477C25.7413 2.11842 25.4274 2.61885 25.1715 3.25034C24.6663 4.4973 24.3911 6.25188 25.263 8.28277L25.2565 8.36371L25.2077 8.96936C25.1648 9.50158 25.1012 10.2861 25.0186 11.295C24.8535 13.3128 24.6127 16.2284 24.3097 19.819C23.7036 27.0002 22.8487 36.8814 21.8537 47.6812C21.7816 48.462 21.5582 48.9491 21.0573 49.7728C20.9466 49.9549 20.8228 50.1525 20.6856 50.3715C20.1934 51.1573 19.5285 52.2188 18.674 53.8279ZM18.674 53.8279L19.1156 54.0625M18.674 53.8279C18.674 53.8279 18.674 53.8279 18.674 53.828L19.1156 54.0625M19.1156 54.0625C16.3328 59.2994 16.3807 61.4716 16.5861 70.7879C16.6767 74.8987 16.798 80.4003 16.7203 88.1698L19.1156 54.0625Z" fill="#FFC627" stroke="#212A3F"/>
<path d="M36.7521 7.66091L25.8273 7.63044C25.3418 7.6288 24.9458 7.23068 24.9474 6.74514L24.9562 3.65073C24.9579 3.16519 25.356 2.76926 25.8416 2.77091L36.7664 2.80137C37.252 2.80302 37.648 3.20113 37.6463 3.68667L37.6375 6.78109C37.6358 7.26575 37.2376 7.66168 36.7521 7.66091Z" fill="#F3EFE6"/>
<path d="M37.5846 8.24507C37.5902 8.13451 37.5586 8.03582 37.5137 7.96027C37.4307 7.8206 37.306 7.76351 37.2799 7.75153L37.2782 7.75074C37.2008 7.7151 37.12 7.69948 37.0803 7.6922C36.9799 7.67378 36.8436 7.65957 36.6915 7.64757C36.3798 7.62299 35.93 7.60249 35.3944 7.58577C34.3203 7.55222 32.8725 7.533 31.4274 7.52904C29.9823 7.52507 28.5345 7.53633 27.4604 7.56404C26.9248 7.57785 26.4751 7.59593 26.1633 7.61888C26.0112 7.63008 25.8748 7.64359 25.7742 7.66156C25.7346 7.66864 25.6533 7.68394 25.5754 7.71956C25.5749 7.71979 25.5743 7.72005 25.5737 7.72034C25.5473 7.73233 25.4216 7.78946 25.3382 7.93018C25.2936 8.00554 25.2626 8.10315 25.2675 8.21205L25.2629 8.26986L25.2361 8.60416C25.2124 8.89885 25.1772 9.33532 25.1311 9.90233C25.039 11.0364 24.9036 12.6925 24.7304 14.781C24.3839 18.9578 23.886 24.8636 23.2805 31.779L23.2331 32.3212L23.7773 32.3226L38.9411 32.364L39.4853 32.3655L39.4408 31.8232C38.8735 24.9045 38.4084 18.9961 38.0852 14.8173C37.9235 12.7279 37.7974 11.071 37.7116 9.93646C37.6687 9.3692 37.636 8.93253 37.6139 8.63771L37.589 8.30327L37.5846 8.24507Z" fill="#F3EFE6" stroke="#0D2240"/>
<path d="M37.0007 4.08916L25.5976 4.05796C24.8897 4.05615 24.312 3.47527 24.3138 2.76749C24.3156 2.05971 24.8965 1.48197 25.6044 1.48378L37.0075 1.51498C37.7154 1.51679 38.2932 2.09767 38.2913 2.80545C38.2896 3.5141 37.7087 4.09184 37.0007 4.08916Z" fill="#F3EFE6"/>
<path d="M36.8052 8.41047L26.0458 8.38071C25.338 8.37891 24.7602 7.79802 24.762 7.09024C24.7638 6.38246 25.3448 5.80473 26.0526 5.80653L36.812 5.83629C37.5198 5.8381 38.0976 6.41898 38.0958 7.12676C38.0941 7.83542 37.5131 8.41315 36.8052 8.41047Z" fill="#F3EFE6"/>
<path d="M43.932 64.291L43.8774 83.7907L18.7381 83.7214L18.7918 64.2218L18.7918 64.2217C18.794 63.36 19.5031 62.6547 20.3655 62.6569C20.3655 62.6569 20.3655 62.6569 20.3656 62.6569L42.367 62.7175L42.3671 62.7175C43.229 62.7197 43.9342 63.4288 43.932 64.2909C43.932 64.2909 43.932 64.291 43.932 64.291Z" fill="#F3EFE6" stroke="#0D2240"/>
<path d="M54.5534 53.8279C53.5408 55.7336 52.8857 57.2626 52.4794 58.8857C52.0733 60.5076 51.9217 62.1992 51.8886 64.4223C51.8629 66.1426 51.9083 68.2005 51.9657 70.8058C51.9823 71.5584 51.9999 72.3567 52.0171 73.2057C52.0939 77 52.1631 81.8269 52.0997 88.1649C51.9724 100.855 51.9778 107.204 52.0152 110.382C52.0338 111.97 52.0605 112.772 52.0831 113.18C52.0943 113.381 52.105 113.498 52.1152 113.57C52.1198 113.602 52.1271 113.647 52.1419 113.694C52.1425 113.696 52.1433 113.698 52.1442 113.701C52.1473 113.712 52.151 113.725 52.1554 113.739C52.1698 113.785 52.1912 113.843 52.2227 113.911C52.2859 114.048 52.3886 114.224 52.554 114.424C52.8852 114.824 53.4594 115.311 54.4524 115.782C56.4289 116.721 60.1095 117.622 67.002 117.64C73.8945 117.659 77.58 116.779 79.5617 115.851C80.5572 115.385 81.1341 114.901 81.4675 114.503C81.634 114.304 81.7377 114.129 81.8016 113.993C81.8335 113.925 81.8552 113.867 81.8699 113.821C81.8724 113.813 81.8748 113.805 81.8769 113.798C81.8949 113.751 81.9048 113.706 81.9108 113.676C81.9263 113.598 81.9421 113.476 81.9588 113.273C81.9928 112.862 82.0355 112.057 82.0745 110.469C82.1526 107.289 82.2162 100.939 82.1594 88.2478L81.7549 88.2496L82.1594 88.2478C82.1308 81.9092 82.2208 77.0823 82.3099 73.288C82.3266 72.5759 82.3434 71.8996 82.3593 71.256C82.428 68.4752 82.4817 66.3052 82.4555 64.5038C82.4232 62.2799 82.2694 60.5877 81.8639 58.964C81.4583 57.3395 80.8067 55.8075 79.8057 53.8968C78.9602 52.283 78.3011 51.2178 77.8132 50.4292C77.6772 50.2094 77.5545 50.0111 77.4447 49.8284C76.9483 49.0019 76.7278 48.5136 76.6603 47.7324L76.6603 47.7323C75.725 36.9271 74.9249 27.0413 74.3586 19.8568C74.0755 16.2645 73.8508 13.3477 73.6969 11.3289C73.62 10.3196 73.5608 9.53473 73.5208 9.00228L73.4754 8.39637L73.4638 8.2419L73.4636 8.23863C73.7446 5.89972 73.4925 4.19097 73.156 3.05033C72.9869 2.47688 72.7971 2.04963 72.6454 1.76027C72.5696 1.61565 72.5034 1.50562 72.454 1.42912C72.4294 1.39088 72.409 1.36101 72.3937 1.3394C72.3861 1.3286 72.3797 1.31985 72.3748 1.31316L72.3685 1.30464L72.3661 1.30153L72.3651 1.30026L72.3647 1.2997C72.3645 1.29944 72.3643 1.29918 71.9679 1.60395L72.3643 1.29918L72.2147 1.10461L71.9693 1.10396L67.9231 1.09316L67.9231 1.09316L66.7279 1.08992L66.7279 1.08992L62.6818 1.07912L62.4747 1.07857L62.3278 1.22459L62.6804 1.57912C62.3278 1.22459 62.3277 1.22478 62.3275 1.22498L62.327 1.22542L62.3259 1.22651L62.323 1.22945L62.3142 1.2384C62.3071 1.24572 62.2975 1.25574 62.2855 1.26843C62.2617 1.29379 62.2287 1.32981 62.1883 1.37611C62.1075 1.46863 61.997 1.60257 61.8714 1.77477C61.6207 2.11842 61.3068 2.61885 61.0509 3.25034C60.5457 4.4973 60.2704 6.25188 61.1424 8.28277L61.1359 8.36372L61.0871 8.96936C61.0442 9.50158 60.9806 10.2861 60.898 11.295C60.7329 13.3128 60.4921 16.2284 60.189 19.819C59.5829 27.0002 58.7281 36.8814 57.7331 47.6813C57.661 48.462 57.4376 48.9491 56.9367 49.7728C56.8259 49.9549 56.7022 50.1525 56.565 50.3715C56.0728 51.1573 55.4079 52.2188 54.5534 53.8279ZM54.5534 53.8279L54.995 54.0625M54.5534 53.8279C54.5534 53.8279 54.5534 53.8279 54.5534 53.828L54.995 54.0625M54.995 54.0625C52.2122 59.2994 52.2601 61.4716 52.4655 70.7879C52.5561 74.8987 52.6774 80.4003 52.5997 88.1698C52.345 113.548 52.6216 113.549 52.6216 113.549L61.6508 8.19709C61.6508 8.19709 60.2213 26.1242 58.2309 47.7272C58.1306 48.8138 57.7549 49.4137 56.9853 50.6426C56.4932 51.4282 55.8401 52.471 54.995 54.0625Z" fill="#FFC627" stroke="#212A3F"/>
<path d="M72.6315 7.66091L61.7067 7.63044C61.2211 7.6288 60.8252 7.23068 60.8268 6.74514L60.8356 3.65073C60.8373 3.16519 61.2354 2.76926 61.721 2.77091L72.6458 2.80137C73.1314 2.80302 73.5274 3.20113 73.5257 3.68667L73.5169 6.78109C73.5152 7.26575 73.117 7.66168 72.6315 7.66091Z" fill="#F3EFE6"/>
<path d="M73.464 8.24507C73.4696 8.13451 73.438 8.03583 73.3931 7.96027C73.3101 7.8206 73.1854 7.76351 73.1593 7.75153L73.1576 7.75074C73.0802 7.7151 72.9994 7.69948 72.9597 7.6922C72.8593 7.67378 72.723 7.65957 72.5709 7.64757C72.2592 7.62299 71.8094 7.60249 71.2738 7.58577C70.1997 7.55222 68.7519 7.53301 67.3068 7.52904C65.8617 7.52507 64.4139 7.53633 63.3398 7.56404C62.8042 7.57785 62.3545 7.59593 62.0427 7.61888C61.8906 7.63008 61.7542 7.64359 61.6536 7.66156C61.614 7.66864 61.5327 7.68394 61.4548 7.71956C61.4543 7.71979 61.4537 7.72005 61.4531 7.72034C61.4267 7.73233 61.301 7.78946 61.2176 7.93018C61.173 8.00554 61.142 8.10315 61.1469 8.21205L61.1423 8.26986L61.1155 8.60416C61.0918 8.89885 61.0566 9.33532 61.0105 9.90233C60.9184 11.0364 60.783 12.6925 60.6098 14.781C60.2633 18.9578 59.7654 24.8636 59.1599 31.779L59.1125 32.3212L59.6567 32.3226L74.8205 32.364L75.3647 32.3655L75.3202 31.8232C74.7529 24.9045 74.2878 18.9961 73.9646 14.8173C73.8029 12.7279 73.6768 11.071 73.591 9.93646C73.5481 9.3692 73.5154 8.93253 73.4933 8.63771L73.4684 8.30328L73.464 8.24507Z" fill="#F3EFE6" stroke="#0D2240"/>
<path d="M72.8801 4.08916L61.477 4.05796C60.7691 4.05615 60.1914 3.47527 60.1932 2.76749C60.195 2.05971 60.7759 1.48197 61.4838 1.48378L72.8869 1.51498C73.5948 1.51679 74.1725 2.09767 74.1707 2.80545C74.169 3.5141 73.5881 4.09184 72.8801 4.08916Z" fill="#F3EFE6"/>
<path d="M72.6846 8.41047L61.9252 8.38071C61.2174 8.37891 60.6396 7.79803 60.6414 7.09024C60.6432 6.38246 61.2242 5.80473 61.932 5.80653L72.6914 5.83629C73.3992 5.8381 73.977 6.41898 73.9752 7.12676C73.9735 7.83542 73.3925 8.41315 72.6846 8.41047Z" fill="#F3EFE6"/>
<path d="M79.8114 64.291L79.7568 83.7907L54.6174 83.7215L54.6712 64.2218L54.6712 64.2217C54.6734 63.36 55.3825 62.6547 56.2449 62.6569C56.2449 62.6569 56.2449 62.6569 56.2449 62.6569L78.2464 62.7175L78.2465 62.7175C79.1084 62.7197 79.8136 63.4288 79.8114 64.2909C79.8114 64.2909 79.8114 64.291 79.8114 64.291Z" fill="#F3EFE6" stroke="#0D2240"/>
<path d="M90.4333 53.8279C89.4207 55.7336 88.7656 57.2626 88.3593 58.8857C87.9532 60.5076 87.8016 62.1992 87.7684 64.4223C87.7428 66.1426 87.7882 68.2005 87.8456 70.8059C87.8622 71.5584 87.8798 72.3567 87.897 73.2057C87.9738 77 88.043 81.8269 87.9796 88.1649C87.8522 100.855 87.8577 107.204 87.8951 110.382C87.9137 111.97 87.9404 112.772 87.963 113.18C87.9742 113.381 87.9849 113.498 87.9951 113.57C87.9996 113.602 88.007 113.647 88.0217 113.694C88.0224 113.696 88.0232 113.698 88.024 113.701C88.0272 113.712 88.0309 113.725 88.0352 113.739C88.0497 113.785 88.0711 113.843 88.1026 113.911C88.1658 114.048 88.2685 114.224 88.4339 114.424C88.7651 114.824 89.3393 115.311 90.3323 115.782C92.3088 116.721 95.9894 117.622 102.882 117.64C109.774 117.659 113.46 116.779 115.442 115.851C116.437 115.385 117.014 114.901 117.347 114.503C117.514 114.304 117.618 114.129 117.681 113.993C117.713 113.925 117.735 113.867 117.75 113.821C117.752 113.813 117.755 113.805 117.757 113.798C117.775 113.751 117.785 113.706 117.791 113.676C117.806 113.598 117.822 113.476 117.839 113.273C117.873 112.862 117.915 112.057 117.954 110.469C118.032 107.289 118.096 100.939 118.039 88.2478L117.539 88.25L118.039 88.2478C118.011 81.9092 118.101 77.0823 118.19 73.288C118.207 72.5759 118.223 71.8996 118.239 71.2559C118.308 68.4752 118.362 66.3052 118.335 64.5038C118.303 62.2799 118.149 60.5877 117.744 58.964C117.338 57.3395 116.687 55.8075 115.686 53.8968C114.84 52.283 114.181 51.2178 113.693 50.4292C113.557 50.2094 113.434 50.0111 113.325 49.8284C112.828 49.0019 112.608 48.5136 112.54 47.7324L112.54 47.7323C111.605 36.9271 110.805 27.0413 110.239 19.8568C109.955 16.2645 109.731 13.3477 109.577 11.3289C109.5 10.3196 109.441 9.53473 109.401 9.00228L109.355 8.39637L109.344 8.2419L109.343 8.23863C109.625 5.89972 109.372 4.19096 109.036 3.05033C108.867 2.47688 108.677 2.04963 108.525 1.76027C108.449 1.61565 108.383 1.50562 108.334 1.42912C108.309 1.39088 108.289 1.36101 108.274 1.3394C108.266 1.3286 108.26 1.31985 108.255 1.31316L108.248 1.30464L108.246 1.30153L108.245 1.30026L108.245 1.2997C108.244 1.29943 108.244 1.29918 107.848 1.60395L108.244 1.29918L108.095 1.10461L107.849 1.10396L103.803 1.09316L103.803 1.09316L102.608 1.08992L102.608 1.08992L98.5617 1.07912L98.3546 1.07857L98.2077 1.22459L98.5603 1.57912C98.2077 1.22459 98.2076 1.22478 98.2074 1.22498L98.2069 1.22542L98.2058 1.22651L98.2029 1.22945L98.1941 1.2384C98.187 1.24572 98.1774 1.25574 98.1654 1.26842C98.1416 1.29379 98.1085 1.32981 98.0681 1.37611C97.9874 1.46863 97.8769 1.60257 97.7512 1.77477C97.5006 2.11842 97.1866 2.61885 96.9308 3.25034C96.4256 4.4973 96.1503 6.25188 97.0223 8.28277L97.0158 8.36372L96.967 8.96936C96.9241 9.50158 96.8605 10.2861 96.7779 11.295C96.6128 13.3128 96.372 16.2284 96.0689 19.819C95.4628 27.0002 94.608 36.8814 93.613 47.6812C93.5409 48.462 93.3175 48.9491 92.8166 49.7728C92.7058 49.9549 92.5821 50.1525 92.4449 50.3715C91.9526 51.1573 91.2877 52.2188 90.4333 53.8279ZM90.4333 53.8279L90.8748 54.0625M90.4333 53.8279C90.4333 53.8279 90.4333 53.8279 90.4332 53.828L90.8748 54.0625M90.8748 54.0625C88.0921 59.2994 88.14 61.4716 88.3454 70.7879C88.436 74.8987 88.5572 80.4003 88.4796 88.1698C88.2249 113.548 88.5015 113.549 88.5015 113.549C88.5015 113.549 89.1618 117.103 102.883 117.14C116.605 117.178 117.285 113.628 117.285 113.628L90.8748 54.0625Z" fill="#FFC627" stroke="#212A3F"/>
<path d="M108.511 7.66091L97.5866 7.63044C97.101 7.6288 96.7051 7.23068 96.7067 6.74514L96.7155 3.65073C96.7172 3.16519 97.1153 2.76926 97.6009 2.77091L108.526 2.80137C109.011 2.80302 109.407 3.20113 109.406 3.68667L109.397 6.78109C109.395 7.26575 108.997 7.66168 108.511 7.66091Z" fill="#F3EFE6"/>
<path d="M109.344 8.24507C109.349 8.13451 109.318 8.03583 109.273 7.96027C109.19 7.8206 109.065 7.76351 109.039 7.75153L109.037 7.75074C108.96 7.7151 108.879 7.69948 108.84 7.6922C108.739 7.67378 108.603 7.65957 108.451 7.64757C108.139 7.62299 107.689 7.60249 107.154 7.58577C106.08 7.55222 104.632 7.53301 103.187 7.52904C101.742 7.52507 100.294 7.53633 99.2197 7.56404C98.6841 7.57785 98.2344 7.59593 97.9226 7.61888C97.7704 7.63008 97.6341 7.64359 97.5335 7.66156C97.4939 7.66864 97.4126 7.68394 97.3347 7.71956C97.3342 7.71979 97.3336 7.72005 97.333 7.72034C97.3066 7.73233 97.1809 7.78946 97.0975 7.93018C97.0528 8.00554 97.0219 8.10315 97.0268 8.21205L97.0222 8.26986L96.9954 8.60416C96.9717 8.89885 96.9364 9.33532 96.8904 9.90233C96.7983 11.0364 96.6629 12.6925 96.4897 14.781C96.1432 18.9578 95.6453 24.8636 95.0398 31.779L94.9924 32.3212L95.5365 32.3226L110.7 32.364L111.245 32.3655L111.2 31.8232C110.633 24.9045 110.168 18.9961 109.844 14.8173C109.683 12.7279 109.557 11.071 109.471 9.93646C109.428 9.3692 109.395 8.93253 109.373 8.63771L109.348 8.30328L109.344 8.24507Z" fill="#F3EFE6" stroke="#0D2240"/>
<path d="M108.76 4.08916L97.3569 4.05796C96.649 4.05615 96.0712 3.47527 96.0731 2.76749C96.0749 2.05971 96.6558 1.48197 97.3637 1.48378L108.767 1.51498C109.475 1.51679 110.052 2.09767 110.051 2.80545C110.049 3.5141 109.468 4.09184 108.76 4.08916Z" fill="#F3EFE6"/>
<path d="M108.564 8.41047L97.8051 8.38071C97.0973 8.37891 96.5195 7.79803 96.5213 7.09024C96.5231 6.38246 97.1041 5.80473 97.8119 5.80653L108.571 5.83629C109.279 5.8381 109.857 6.41898 109.855 7.12676C109.853 7.83542 109.272 8.41315 108.564 8.41047Z" fill="#F3EFE6"/>
<path d="M115.691 64.291L115.637 83.7907L90.4973 83.7215L90.5511 64.2218L90.5511 64.2217C90.5533 63.36 91.2624 62.6547 92.1247 62.6569C92.1248 62.6569 92.1248 62.6569 92.1248 62.6569L114.126 62.7175L114.126 62.7175C114.988 62.7197 115.694 63.4288 115.691 64.291Z" fill="#F3EFE6" stroke="#0D2240"/>
</g>
<defs>
<clipPath id="clip0">
<rect width="136.095" height="115.062" fill="white" transform="translate(0 17.321)"/>
</clipPath>
<clipPath id="clip1">
<rect width="120.011" height="68.0474" fill="white" transform="translate(3.71143)"/>
</clipPath>
</defs>
</svg>
