<svg width="241" height="206" viewBox="0 0 241 206" fill="none" xmlns="http://www.w3.org/2000/svg">
<path d="M183.452 62.4016C178.147 69.2917 178.317 79.2324 184.365 85.9021C190.414 92.5729 200.26 93.6833 207.639 89.0758L213.678 95.7359L193.049 114.442L156.809 74.4751L177.438 55.7695L183.452 62.4016Z" fill="#FDC13A" stroke="#0D2240"/>
<path d="M130.15 135.062C124.108 128.392 114.231 127.253 106.85 131.861M130.15 135.062L129.779 135.398M130.15 135.062C130.15 135.062 130.149 135.062 130.149 135.062L129.779 135.398M130.15 135.062C136.198 141.733 136.343 151.641 131.031 158.535M106.85 131.861L129.779 135.398M106.85 131.861L100.836 125.228L106.85 131.861ZM129.779 135.398C135.756 141.99 135.807 151.838 130.376 158.557M131.031 158.535L130.747 158.221L130.376 158.557M131.031 158.535C130.944 158.648 130.855 158.76 130.765 158.871L130.376 158.557M131.031 158.535L130.376 158.557M136.699 165.53L137.035 165.901L137.405 165.565L137.07 165.195L136.699 165.53ZM188.229 118.805L188.565 119.176L188.935 118.84L188.6 118.469L188.229 118.805ZM152.366 78.5032L152.031 78.1328L151.66 78.4686L151.996 78.8391L152.366 78.5032Z" fill="#FDC13A" stroke="#0D2240"/>
<path d="M90.7535 42.2978C90.3359 50.9836 96.1552 59.0449 104.929 61.0636C113.705 63.0827 122.42 58.3687 125.844 50.3714L134.606 52.3872L128.362 79.5253L75.7849 67.4285L82.0288 40.2904L90.7535 42.2978Z" fill="#FDC13A" stroke="#0D2240"/>
<path d="M88.5199 132.385C79.7508 130.363 70.9939 135.071 67.5683 143.069M88.5199 132.385L88.4076 132.872M88.5199 132.385C88.5198 132.385 88.5198 132.385 88.5197 132.385L88.4076 132.872M88.5199 132.385C97.2954 134.404 103.074 142.453 102.653 151.146M67.5683 143.069L88.4076 132.872M67.5683 143.069L58.8434 141.062L67.5683 143.069ZM88.4076 132.872C97.0794 134.868 102.747 142.921 102.129 151.538M102.653 151.146L102.241 151.051L102.129 151.538M102.653 151.146C102.646 151.289 102.638 151.431 102.628 151.574L102.129 151.538M102.653 151.146L102.129 151.538M111.302 153.649L111.79 153.761L111.902 153.274L111.415 153.162L111.302 153.649ZM126.899 85.8602L127.386 85.9724L127.499 85.4851L127.011 85.373L126.899 85.8602ZM74.4402 73.2727L73.9529 73.1606L73.8408 73.6479L74.3281 73.76L74.4402 73.2727Z" fill="#FDC13A" stroke="#0D2240"/>
<g clip-path="url(#clip0)">
<path d="M140.147 108.053C133.958 114.395 134.083 124.589 140.425 130.778C146.767 136.967 156.962 136.842 163.15 130.5C169.339 124.158 169.214 113.964 162.872 107.775C156.531 101.586 146.336 101.711 140.147 108.053ZM164.673 116.549L162.233 119.05C162.158 119.127 162.063 119.183 161.959 119.212C161.854 119.242 161.744 119.243 161.639 119.216L159.238 118.615C159.08 118.576 158.945 118.477 158.86 118.339L156.348 114.284C156.297 114.202 156.267 114.11 156.258 114.014C156.249 113.919 156.263 113.822 156.298 113.733L157.156 111.537C157.198 111.429 157.269 111.336 157.361 111.267C157.453 111.198 157.563 111.156 157.678 111.146L161.905 110.777C162.009 110.767 162.114 110.785 162.21 110.828C162.305 110.87 162.388 110.936 162.452 111.02C163.573 112.487 164.382 114.168 164.829 115.96C164.856 116.063 164.856 116.172 164.829 116.275C164.801 116.379 164.748 116.473 164.673 116.549ZM144.05 124.976L146.224 124.064C146.313 124.027 146.409 124.011 146.505 124.017C146.601 124.024 146.694 124.052 146.777 124.101L150.892 126.513C151.032 126.594 151.135 126.728 151.177 126.884L151.833 129.266C151.862 129.37 151.863 129.48 151.837 129.585C151.81 129.69 151.756 129.786 151.681 129.864L149.241 132.364C149.167 132.44 149.075 132.495 148.974 132.525C148.873 132.555 148.765 132.559 148.662 132.536C146.86 132.134 145.159 131.366 143.665 130.28C143.58 130.219 143.512 130.138 143.467 130.043C143.422 129.948 143.402 129.844 143.409 129.74L143.674 125.505C143.682 125.39 143.721 125.28 143.787 125.187C143.854 125.094 143.945 125.02 144.05 124.976ZM153.091 106.06L154.957 109.832C154.995 109.909 155.017 109.993 155.022 110.079C155.026 110.164 155.012 110.25 154.981 110.33L154.078 112.642C154.037 112.748 153.967 112.84 153.876 112.909C153.785 112.978 153.677 113.02 153.564 113.032L147.919 113.596C147.829 113.606 147.738 113.596 147.653 113.567C147.568 113.537 147.49 113.49 147.425 113.428L145.568 111.616C145.495 111.544 145.441 111.457 145.411 111.36C145.38 111.263 145.374 111.16 145.392 111.06L146.125 107.151C146.144 107.049 146.189 106.954 146.255 106.873C146.32 106.793 146.405 106.731 146.502 106.692C148.426 105.909 150.503 105.575 152.576 105.715C152.684 105.722 152.789 105.758 152.88 105.819C152.97 105.879 153.043 105.963 153.091 106.06ZM139.392 114.052L143.281 113.223C143.381 113.202 143.484 113.206 143.582 113.234C143.679 113.262 143.768 113.314 143.841 113.385L145.698 115.197C145.763 115.26 145.813 115.337 145.845 115.421C145.877 115.505 145.89 115.596 145.883 115.686L145.456 121.343C145.448 121.457 145.408 121.566 145.342 121.658C145.275 121.751 145.184 121.823 145.079 121.867L142.786 122.827C142.707 122.86 142.621 122.877 142.535 122.875C142.449 122.873 142.364 122.854 142.286 122.817L138.47 121.044C138.371 120.998 138.286 120.927 138.224 120.837C138.161 120.748 138.123 120.644 138.114 120.535C137.923 118.465 138.206 116.378 138.942 114.434C138.979 114.338 139.04 114.252 139.118 114.186C139.197 114.119 139.291 114.073 139.392 114.052ZM158.433 130.765L154.621 129.174C154.534 129.138 154.456 129.083 154.394 129.013C154.332 128.942 154.287 128.858 154.262 128.768L153.643 126.526C153.613 126.422 153.612 126.312 153.638 126.207C153.665 126.102 153.719 126.006 153.794 125.928L158.351 121.259C158.426 121.182 158.521 121.125 158.625 121.096C158.73 121.067 158.84 121.066 158.945 121.093L161.201 121.656C161.293 121.679 161.378 121.722 161.45 121.782C161.522 121.843 161.579 121.919 161.617 122.005L163.307 125.768C163.348 125.86 163.366 125.961 163.359 126.061C163.353 126.162 163.322 126.26 163.269 126.345C162.196 128.105 160.739 129.598 159.006 130.714C158.922 130.768 158.826 130.801 158.726 130.81C158.626 130.819 158.525 130.803 158.433 130.765Z" fill="white"/>
</g>
<path d="M81.2943 104.506C79.8383 113.247 85.7651 121.542 94.5059 122.998C103.247 124.454 111.542 118.528 112.998 109.787C114.454 101.046 108.528 92.7502 99.7868 91.2943C91.0461 89.8383 82.7502 95.7651 81.2943 104.506ZM106.278 97.4667L105.704 100.913C105.686 101.02 105.64 101.12 105.571 101.203C105.502 101.287 105.413 101.351 105.311 101.389L102.997 102.268C102.846 102.326 102.677 102.322 102.529 102.257L98.1508 100.364C98.0626 100.326 97.9844 100.268 97.9226 100.194C97.8607 100.121 97.8168 100.034 97.7945 99.9402L97.2443 97.6476C97.2173 97.5355 97.2222 97.4182 97.2584 97.3088C97.2947 97.1994 97.3607 97.1023 97.4492 97.0285L100.708 94.3105C100.788 94.2435 100.884 94.198 100.987 94.1783C101.09 94.1585 101.196 94.1652 101.295 94.1976C103.054 94.7607 104.679 95.6786 106.069 96.8945C106.15 96.9637 106.212 97.0528 106.249 97.153C106.285 97.2533 106.295 97.3614 106.278 97.4667ZM94.1661 116.165L95.4297 114.175C95.4812 114.093 95.5509 114.025 95.6332 113.976C95.7155 113.926 95.8083 113.897 95.9041 113.889L100.659 113.517C100.821 113.504 100.981 113.555 101.106 113.659L103.004 115.24C103.088 115.308 103.152 115.398 103.19 115.499C103.228 115.601 103.239 115.71 103.221 115.817L102.647 119.263C102.63 119.368 102.586 119.466 102.52 119.548C102.454 119.631 102.368 119.695 102.27 119.735C100.561 120.434 98.7268 120.776 96.8804 120.739C96.7758 120.737 96.6732 120.709 96.5824 120.657C96.4916 120.605 96.4155 120.531 96.3612 120.441L94.1598 116.814C94.1006 116.716 94.0698 116.603 94.0709 116.489C94.072 116.374 94.1049 116.262 94.1661 116.165ZM90.7791 95.4757L94.4655 97.5051C94.5409 97.5461 94.6069 97.6023 94.6594 97.6703C94.7119 97.7382 94.7496 97.8163 94.7702 97.8997L95.3497 100.313C95.3762 100.424 95.3716 100.54 95.3364 100.648C95.3013 100.756 95.2368 100.853 95.1503 100.927L90.8397 104.615C90.7716 104.675 90.6914 104.718 90.6047 104.743C90.518 104.768 90.427 104.773 90.338 104.759L87.7788 104.333C87.6785 104.316 87.5839 104.275 87.5034 104.213C87.4229 104.151 87.3589 104.07 87.3172 103.977L85.6858 100.351C85.6431 100.256 85.625 100.152 85.633 100.049C85.6411 99.945 85.6751 99.8452 85.732 99.7583C86.864 98.0165 88.3781 96.5557 90.1593 95.4868C90.2525 95.4305 90.3589 95.3998 90.4677 95.3979C90.5765 95.3959 90.684 95.4228 90.7791 95.4757ZM84.1016 109.861L86.8205 106.958C86.8901 106.884 86.9769 106.828 87.0731 106.796C87.1694 106.763 87.2723 106.755 87.3725 106.772L89.9317 107.198C90.0208 107.213 90.1055 107.247 90.18 107.298C90.2544 107.349 90.3168 107.416 90.3626 107.494L93.2448 112.38C93.3027 112.478 93.3324 112.591 93.3306 112.704C93.3287 112.818 93.2955 112.929 93.2345 113.026L91.9013 115.124C91.8551 115.196 91.7943 115.259 91.7226 115.306C91.651 115.354 91.5702 115.386 91.4853 115.401L87.3401 116.126C87.2327 116.145 87.1221 116.135 87.0197 116.097C86.9173 116.06 86.8267 115.996 86.7571 115.912C85.4172 114.322 84.4575 112.448 83.951 110.431C83.9266 110.331 83.9276 110.227 83.9539 110.127C83.9802 110.027 84.031 109.936 84.1016 109.861ZM109.278 112.699L105.24 113.572C105.148 113.592 105.053 113.591 104.962 113.568C104.871 113.546 104.786 113.503 104.713 113.443L102.924 111.957C102.841 111.888 102.777 111.799 102.739 111.697C102.701 111.596 102.69 111.486 102.707 111.38L103.779 104.944C103.797 104.837 103.843 104.737 103.912 104.654C103.981 104.57 104.07 104.506 104.172 104.468L106.346 103.642C106.434 103.608 106.528 103.595 106.622 103.603C106.715 103.612 106.806 103.641 106.886 103.69L110.423 105.814C110.509 105.865 110.582 105.938 110.634 106.024C110.686 106.111 110.716 106.208 110.722 106.309C110.847 108.366 110.504 110.424 109.719 112.33C109.681 112.422 109.621 112.504 109.544 112.569C109.467 112.633 109.376 112.678 109.278 112.699Z" fill="white"/>
<defs>
<clipPath id="clip0">
<rect width="39.5581" height="39.5581" fill="white" transform="translate(123.679 119.619) rotate(-45.7005)"/>
</clipPath>
</defs>
</svg>
