<svg width="28" height="28" viewBox="0 0 28 28" fill="none" xmlns="http://www.w3.org/2000/svg">
<path d="M0 14C0 6.26801 6.26801 0 14 0V0C21.732 0 28 6.26801 28 14V14C28 21.732 21.732 28 14 28V28C6.26801 28 0 21.732 0 14V14Z" fill="#1877F2"/>
<path d="M18 6H15.8182C14.8538 6 13.9288 6.44777 13.2469 7.2448C12.5649 8.04183 12.1818 9.12283 12.1818 10.25V12.8H10V16.2H12.1818V23H15.0909V16.2H17.2727L18 12.8H15.0909V10.25C15.0909 10.0246 15.1675 9.80837 15.3039 9.64896C15.4403 9.48955 15.6253 9.4 15.8182 9.4H18V6Z" fill="white"/>
</svg>
