<svg width="292" height="73" viewBox="0 0 292 73" fill="none" xmlns="http://www.w3.org/2000/svg">
<path d="M17.2664 47.4342C25.8174 41.5143 13.7035 27.9752 6.57769 21.9456C40.1239 18.6568 70.4361 37.5677 81.3989 47.4342L78.1101 71.2783C69.6139 72.3746 50.4838 73.2516 41.9328 67.9895C33.3818 62.7273 10.4147 60.3155 0 59.7673C2.19256 58.1229 8.71544 53.3541 17.2664 47.4342Z" fill="#FE9D15"/>
<path d="M274.734 47.4342C266.183 41.5143 278.296 27.9752 285.422 21.9456C251.876 18.6568 221.564 37.5677 210.601 47.4342L213.89 71.2783C222.386 72.3746 241.516 73.2516 250.067 67.9895C258.618 62.7273 281.585 60.3155 292 59.7673C289.807 58.1229 283.285 53.3541 274.734 47.4342Z" fill="#FE9D15"/>
<path d="M80.5767 53.1899L78.1101 71.2786C78.1101 71.2786 67.4214 65.5231 59.1993 57.301C50.9771 49.0789 46.0449 40.8604 46.0449 40.8604L50.877 28.3398L80.5767 53.1899Z" fill="#E8542E"/>
<path d="M211.424 53.1899L213.891 71.2786C213.891 71.2786 224.58 65.5231 232.802 57.301C241.024 49.0789 245.956 40.8604 245.956 40.8604L241.124 28.3398L211.424 53.1899Z" fill="#E8542E"/>
<path fill-rule="evenodd" clip-rule="evenodd" d="M148.247 70.471C148.247 70.4699 148.248 70.469 148.249 70.469C166.566 70.2902 216.803 64.9683 244.889 41.7546C245.533 41.2216 245.756 40.3401 245.466 39.5558C240.201 25.3452 234.643 9.85552 231.88 2.06344C231.486 0.953672 230.227 0.426416 229.149 0.899904C208.42 10.004 181.456 15.1669 149.753 15.3071C118.105 15.1671 82.9443 9.58856 62.8543 0.903279C61.7694 0.434261 60.5046 0.961334 60.1095 2.07529C57.3448 9.87121 51.7902 25.3524 46.5277 39.5558C46.2371 40.3401 46.4584 41.2205 47.104 41.7525C75.2788 64.968 129.106 70.2902 147.423 70.469C147.424 70.469 147.425 70.4699 147.425 70.471C147.425 70.4722 147.426 70.4731 147.427 70.4731C147.562 70.4731 147.698 70.4727 147.836 70.472C147.974 70.4727 148.11 70.4731 148.245 70.4731C148.247 70.4731 148.247 70.4722 148.247 70.471Z" fill="#FF9D16"/>
<path d="M102.626 29.2V37.768L100.586 39.808L102.626 41.848V50.96L100.586 53H93.038V27.16H100.586L102.626 29.2ZM99.362 37.836V30.56L98.682 29.88H96.302V38.516H98.682L99.362 37.836ZM96.302 41.236V50.212H98.682L99.362 49.532V41.916L98.682 41.236H96.302ZM104.692 53V27.16H107.956V50.212H112.274V53H104.692ZM121.071 53H115.597L113.557 50.96V27.16H116.821V49.532L117.501 50.212H119.167L119.847 49.532V27.16H123.111V50.96L121.071 53ZM125.311 27.16H133.369V29.948H128.575V38.516H132.757V41.304H128.575V50.212H133.437V53H125.311V27.16ZM150.308 29.2V50.96L148.268 53H140.618V27.16H148.268L150.308 29.2ZM147.044 49.532V30.628L146.364 29.948H143.882V50.212H146.364L147.044 49.532ZM152.438 27.16H160.496V29.948H155.702V38.516H159.884V41.304H155.702V50.212H160.564V53H152.438V27.16ZM167.808 53L165.258 32.736V53H162.3V27.16H167.026L169.44 48.036L171.854 27.16H176.682V53H173.588V32.736L171.038 53H167.808ZM188.591 50.96L186.55 53H180.873L178.833 50.96V29.2L180.873 27.16H186.55L188.591 29.2V50.96ZM182.777 29.948L182.097 30.628V49.532L182.777 50.212H184.647L185.327 49.532V30.628L184.647 29.948H182.777ZM190.722 27.16H194.258L197.998 45.078V27.16H200.956V53H197.42L193.68 35.354V53H190.722V27.16Z" fill="#942953"/>
</svg>
