<svg width="71" height="40" viewBox="0 0 71 40" fill="none" xmlns="http://www.w3.org/2000/svg">
<path d="M5.7998 37.1101C5.7998 37.1101 6.0298 37.0801 6.4598 37.0101C6.8898 36.9501 7.5098 36.8601 8.3098 36.7601C9.9098 36.5601 12.1998 36.2801 14.9598 36.0401C16.3398 35.9201 17.8398 35.8001 19.4198 35.7001C20.9998 35.5901 22.6798 35.5101 24.3998 35.4401C26.1298 35.3801 27.9198 35.3101 29.7398 35.2901C31.5598 35.2601 33.4098 35.2501 35.2498 35.2601C37.0998 35.2801 38.9398 35.3101 40.7598 35.3601C42.5798 35.4101 44.3598 35.4901 46.0898 35.5801C47.8198 35.6601 49.4898 35.7801 51.0698 35.8901C52.6498 36.0001 54.1498 36.1301 55.5298 36.2601C58.2898 36.5101 60.5798 36.7901 62.1798 36.9801C62.9798 37.0701 63.6098 37.1701 64.0398 37.2201C64.4698 37.2801 64.6998 37.3101 64.6998 37.3101C64.6998 37.3101 63.7798 37.2401 62.1698 37.1201C61.3698 37.0601 60.3898 36.9901 59.2698 36.9101C58.1498 36.8401 56.8798 36.7601 55.4998 36.6701C54.1198 36.5901 52.6198 36.5101 51.0398 36.4301C49.4598 36.3501 47.7898 36.2801 46.0598 36.2201C44.3298 36.1501 42.5498 36.1101 40.7398 36.0601C38.9298 36.0201 37.0798 35.9901 35.2398 35.9801C33.3898 35.9701 31.5598 35.9601 29.7398 35.9901C27.9298 36.0101 26.1398 36.0401 24.4198 36.0801C22.6898 36.1301 21.0198 36.1801 19.4398 36.2501C17.8598 36.3201 16.3598 36.3901 14.9798 36.4601C13.5998 36.5401 12.3398 36.6101 11.2198 36.6901C10.0998 36.7601 9.11981 36.8401 8.31981 36.9101C6.71981 37.0301 5.7998 37.1101 5.7998 37.1101Z" fill="#BB9B00"/>
<path d="M47.0798 15.47C46.9898 15.23 46.6498 14.96 46.5798 14.91L46.5498 14.89L44.6898 14.34L44.6298 14.35C44.4598 14.39 43.9698 14.48 43.7698 14.48C43.7598 14.48 43.7498 14.48 43.7398 14.48C43.6398 14.47 43.3998 14.42 43.1498 14.37C42.8798 14.31 42.5798 14.25 42.3198 14.21C42.1798 14.19 41.9398 14.15 41.6698 14.1L41.9198 13.82C41.9398 13.8 42.3398 13.35 42.5298 12.83C42.7198 12.32 42.7798 11.75 42.7798 11.73L42.7898 11.64L42.7198 11.57C42.7098 11.56 41.8898 10.73 41.5098 10.31C41.0698 9.82 40.5898 9.22 40.5398 9.12C40.4998 9 40.5098 8.32 40.5598 7.86C40.5998 7.5 40.7698 7.13 40.7698 7.13L40.9898 6.74H40.9798C41.0698 6.74 41.1698 6.75 41.2698 6.75C41.6698 6.75 42.0498 6.72 42.1698 6.7C42.3898 6.66 42.4798 6.43 42.4398 6.22C42.4298 6.15 42.3998 6.1 42.3798 6.05C42.3798 6.04 42.3698 6.03 42.3698 6.03C42.3798 6.02 42.3898 6.01 42.3998 5.99C42.4298 5.95 42.4598 5.9 42.4998 5.83C42.5698 5.69 42.4898 5.55 42.3898 5.46C42.3998 5.46 42.4398 5.44 42.4398 5.44L42.4698 5.41C42.5398 5.35 42.6198 5.23 42.5998 5.09C42.5998 5.06 42.5898 5.04 42.5798 5.02C42.7398 4.98 42.7998 4.96 42.8498 4.94C42.9298 4.9 42.9998 4.82 43.0298 4.72C43.0598 4.63 43.0498 4.54 43.0098 4.47C42.9598 4.39 42.8798 4.28 42.7998 4.15C42.6798 3.97 42.4698 3.67 42.4498 3.59C42.3998 3.44 42.3698 3.28 42.3598 3.16L42.5298 3.14V2.95C42.5298 2.93 42.5098 2.42 42.1598 1.97C41.7198 1.4 40.7298 1.02 39.5798 1C39.5498 1 39.5098 1 39.4798 1C38.4698 1 37.3498 1.32 37.0298 1.7C36.7498 2.03 35.7298 3.69 35.3198 5.05C34.5698 7.54 34.7198 8.64 34.7298 8.68L34.7398 8.75L34.7998 8.8C34.8098 8.81 34.9898 8.95 35.1698 9.1C34.7998 9.25 34.1798 9.5 33.7398 9.65C33.1998 9.84 32.6998 9.91 32.5498 9.93C32.2598 9.83 30.7598 9.33 29.5498 9.04C28.8098 8.86 28.1398 8.82 27.7198 8.82C27.2998 8.82 27.0498 8.85 27.0398 8.86H27.0198H26.9998C26.9698 8.87 26.1298 9.11 25.1698 9.86C24.4198 10.44 23.7498 11.12 23.2298 11.89C22.9798 12.25 22.5898 12.77 22.6398 13.23C22.6698 13.5 22.7898 13.78 22.9798 13.99C23.1398 14.16 22.8598 14.26 22.9498 14.36C22.7598 14.56 22.6498 14.82 22.6298 15.07C22.5598 15.79 23.0598 16.34 23.0598 16.34H31.2498L31.3998 16.55L31.4998 16.34H40.7998V16.55H46.8898V16.38L46.9798 16.24L47.0298 16.1C47.0598 16.04 47.1698 15.72 47.0798 15.47ZM40.3098 6.6C40.2698 6.59 40.2398 6.58 40.2098 6.56C40.2398 6.57 40.2698 6.59 40.3098 6.6Z" fill="#011E41"/>
<path d="M47.0798 15.47C46.9898 15.23 46.6498 14.96 46.5798 14.91L46.5498 14.89L44.6898 14.34L44.6298 14.35C44.4598 14.39 43.9698 14.48 43.7698 14.48C43.7598 14.48 43.7498 14.48 43.7398 14.48C43.6398 14.47 43.3998 14.42 43.1498 14.37C42.8798 14.31 42.5798 14.25 42.3198 14.21C42.1798 14.19 41.9398 14.15 41.6698 14.1L41.9198 13.82C41.9398 13.8 42.3398 13.35 42.5298 12.83C42.7198 12.32 42.7798 11.75 42.7798 11.73L42.7898 11.64L42.7198 11.57C42.7098 11.56 41.8898 10.73 41.5098 10.31C41.0698 9.82 40.5898 9.22 40.5398 9.12C40.4998 9 40.5098 8.32 40.5598 7.86C40.5998 7.5 40.7698 7.13 40.7698 7.13L40.9898 6.74H40.9798C41.0698 6.74 41.1698 6.75 41.2698 6.75C41.6698 6.75 42.0498 6.72 42.1698 6.7C42.3898 6.66 42.4798 6.43 42.4398 6.22C42.4298 6.15 42.3998 6.1 42.3798 6.05C42.3798 6.04 42.3698 6.03 42.3698 6.03C42.3798 6.02 42.3898 6.01 42.3998 5.99C42.4298 5.95 42.4598 5.9 42.4998 5.83C42.5698 5.69 42.4898 5.55 42.3898 5.46C42.3998 5.46 42.4398 5.44 42.4398 5.44L42.4698 5.41C42.5398 5.35 42.6198 5.23 42.5998 5.09C42.5998 5.06 42.5898 5.04 42.5798 5.02C42.7398 4.98 42.7998 4.96 42.8498 4.94C42.9298 4.9 42.9998 4.82 43.0298 4.72C43.0598 4.63 43.0498 4.54 43.0098 4.47C42.9598 4.39 42.8798 4.28 42.7998 4.15C42.6798 3.97 42.4698 3.67 42.4498 3.59C42.3998 3.44 42.3698 3.28 42.3598 3.16L42.5298 3.14V2.95C42.5298 2.93 42.5098 2.42 42.1598 1.97C41.7198 1.4 40.7298 1.02 39.5798 1C39.5498 1 39.5098 1 39.4798 1C38.4698 1 37.3498 1.32 37.0298 1.7C36.7498 2.03 35.7298 3.69 35.3198 5.05C34.5698 7.54 34.7198 8.64 34.7298 8.68L34.7398 8.75L34.7998 8.8C34.8098 8.81 34.9898 8.95 35.1698 9.1C34.7998 9.25 34.1798 9.5 33.7398 9.65C33.1998 9.84 32.6998 9.91 32.5498 9.93C32.2598 9.83 30.7598 9.33 29.5498 9.04C28.8098 8.86 28.1398 8.82 27.7198 8.82C27.2998 8.82 27.0498 8.85 27.0398 8.86H27.0198H26.9998C26.9698 8.87 26.1298 9.11 25.1698 9.86C24.4198 10.44 23.7498 11.12 23.2298 11.89C22.9798 12.25 22.5898 12.77 22.6398 13.23C22.6698 13.5 22.7898 13.78 22.9798 13.99C23.1398 14.16 22.8598 14.26 22.9498 14.36C22.7598 14.56 22.6498 14.82 22.6298 15.07C22.5598 15.79 23.0598 16.34 23.0598 16.34H31.2498L31.3998 16.55L31.4998 16.34H40.7998V16.55H46.8898V16.38L46.9798 16.24L47.0298 16.1C47.0598 16.04 47.1698 15.72 47.0798 15.47ZM40.3098 6.6C40.2698 6.59 40.2398 6.58 40.2098 6.56C40.2398 6.57 40.2698 6.59 40.3098 6.6Z" stroke="#011E41" stroke-width="0.4799" stroke-miterlimit="10"/>
<path d="M70.17 22.2699C69.66 20.5599 68.9 18.9299 67.92 17.4099L67.4 16.6099L66.44 16.7199C55.09 17.9999 45.02 18.5999 34.73 18.5999C24.89 18.5999 14.99 18.0299 4.46 16.8599L3.49 16.7499L2.97 17.5699C1.96 19.1699 1.19 20.8999 0.69 22.7099C0.23 24.3699 0 26.0699 0 27.7699C0 28.8699 0.1 29.9799 0.29 31.0699C0.75 33.6599 1.71 36.0799 3.16 38.2699L3.7 39.1199L4.67 39.0099C10.61 38.2999 20.43 37.4599 33.47 37.4599C44.19 37.4599 55.2 38.0499 66.19 39.2099L67.11 39.3099L67.68 38.4799C67.72 38.4299 67.76 38.3699 67.79 38.3199C69.08 36.3699 70 34.2299 70.51 31.9499C70.82 30.5799 70.97 29.1799 70.97 27.7799C70.99 25.8999 70.71 24.0499 70.17 22.2699Z" fill="#FF8300"/>
<path d="M4.60014 18.3802C3.68014 19.8502 2.98014 21.4402 2.52014 23.1102C2.10014 24.6302 1.89014 26.2002 1.89014 27.7702C1.89014 28.7802 1.98014 29.8002 2.15014 30.8102C2.56014 33.1902 3.45014 35.4202 4.77014 37.4502C4.78014 37.4602 4.79014 37.4802 4.80014 37.4902C10.4201 36.8102 20.3001 35.9202 33.5001 35.9202C44.2001 35.9202 55.1301 36.5102 66.0601 37.6802C66.1101 37.6102 66.1601 37.5402 66.2001 37.4702C67.3801 35.6702 68.2101 33.7002 68.6801 31.6102C68.9601 30.3502 69.1001 29.0602 69.1001 27.7702C69.1001 26.0602 68.8501 24.3602 68.3601 22.7102C67.8901 21.1402 67.2001 19.6302 66.3101 18.2402C55.0701 19.5302 44.9201 20.1302 34.7401 20.1302C24.9701 20.1302 15.0601 19.5502 4.60014 18.3802Z" fill="#011E41"/>
<path d="M6.63 36.1801C12.68 35.5201 21.8 34.8301 33.51 34.8301C44 34.8301 54.77 35.4001 65.52 36.5301C66.51 34.9401 67.22 33.2001 67.63 31.3701C67.89 30.1901 68.03 28.9701 68.03 27.7601C68.03 26.1501 67.8 24.5601 67.33 23.0101C66.95 21.7501 66.43 20.5301 65.76 19.3901C54.71 20.6301 44.84 21.2101 34.76 21.2101C25.14 21.2101 15.45 20.6601 5.19 19.5301C4.49 20.7501 3.96 22.0401 3.59 23.3901C3.2 24.8201 3 26.2901 3 27.7601C3 28.7101 3.08 29.6601 3.25 30.6101C3.6 32.6401 4.32 34.5601 5.38 36.3201C5.77 36.2801 6.19 36.2301 6.63 36.1801ZM67.02 31.2401C66.62 33.0001 65.93 34.6701 64.95 36.2101C54.4 35.1301 43.83 34.5801 33.54 34.5801C21.22 34.5801 11.82 35.3401 5.92 36.0201C4.88 34.3301 4.18 32.4801 3.83 30.5201C3.67 29.6101 3.59 28.6801 3.59 27.7701C3.59 26.3501 3.78 24.9401 4.17 23.5601C4.53 22.2701 5.06 21.0201 5.74 19.8401C15.82 20.9301 25.32 21.4601 34.76 21.4601C44.65 21.4601 54.34 20.9001 65.19 19.7101C65.85 20.8101 66.37 21.9801 66.73 23.2001C67.18 24.6901 67.41 26.2301 67.41 27.7701C67.41 28.9301 67.28 30.1001 67.02 31.2401Z" fill="#BB9B00"/>
<g opacity="0.5">
<g opacity="0.5">
<path opacity="0.5" d="M15.5201 33.35C14.9301 33.82 13.9601 34.33 12.5601 34.35C9.87008 34.39 8.33008 31.83 8.33008 28.16C8.33008 24.97 9.91008 21.78 12.6801 21.75C13.2501 21.74 13.7701 21.87 14.3001 22.1C14.4801 22.15 14.6701 22.1201 14.7401 21.8701L15.5201 21.85V25.41L14.7701 25.3801C14.5601 23.1501 13.7101 22.52 12.7201 22.52C11.6701 22.52 11.1501 23.5201 11.1501 25.6201V30.3001C11.1501 32.6101 11.6201 33.66 12.7701 33.66C13.8201 33.66 14.6801 32.56 14.8501 30.58L15.5201 30.59V33.35V33.35ZM25.4601 33.16V33.85L23.3901 33.84C22.1101 33.86 22.2301 32.58 22.2001 31.68C22.1701 30.98 22.1501 30.17 22.0001 29.66C21.7501 28.85 21.2501 28.79 20.3801 28.76V33.1701H21.1501V33.87H17.1701V33.1701H17.9401V23.8701H17.1701V23.17H20.6301C23.3301 23.17 25.0401 23.67 25.0401 25.59C25.0401 27.34 24.0101 28.2 22.2401 28.31C24.4601 28.66 24.4601 29.7001 24.5801 31.1901C24.6601 32.1101 24.4901 33.18 25.2101 33.18C25.2601 33.16 25.3801 33.18 25.4601 33.16ZM22.4701 25.76C22.4701 24.27 22.1301 23.8701 20.9501 23.8701H20.3801V28.0401H20.8601C22.0901 28.0401 22.4701 27.23 22.4701 25.76ZM30.0001 33.16V23.86H30.7601V23.16H26.7901V23.86H27.5501V33.16H26.7901V33.8601H30.7601V33.16H30.0001ZM32.2101 33.2201C32.2101 33.2201 33.6101 34.1701 35.3601 34.0801C37.3201 33.9701 38.5601 33.03 38.6101 30.9C38.6501 29.14 37.7101 28.3601 36.2601 27.4701C34.6501 26.4701 33.8601 26.22 33.8601 25C33.8601 24.49 34.2601 23.68 35.3501 23.68C36.5201 23.68 37.1401 24.26 37.6101 26.19H38.2401V23.7201V23.15L37.5101 23.14C37.3001 23.47 36.8301 23.23 36.6301 23.17C36.0301 22.98 35.8001 22.9701 35.3801 22.9701C33.0701 22.9501 32.2501 24.7 32.2501 26.07C32.2501 27.8 33.3301 28.64 35.0301 29.7C36.3101 30.49 37.0501 30.94 37.0501 31.98C37.0501 32.91 36.3801 33.41 35.3501 33.41C33.9801 33.41 33.0401 32.65 32.7901 30.76H32.2101V33.2201ZM41.3701 33.87H45.5001V33.1701H44.6901V23.8701C44.7401 23.9001 44.7901 23.8701 44.8201 23.8701C45.9501 23.8701 46.2801 24.11 46.5501 26.18H47.1701L47.1801 23.14H39.7601V26.18H40.3801C40.7601 24.09 41.2001 23.9701 42.1101 23.8701C42.1401 23.8701 42.1901 23.9001 42.2401 23.8701V33.1701H41.3701V33.87V33.87ZM54.8201 33.16V33.8601H50.8601V33.16H51.6301L51.1101 30.9401L48.9401 30.9601L48.4401 33.16H49.3601V33.8601H46.9501V33.16H47.6101L49.9301 23.1301H51.8101L54.1501 33.16H54.8201ZM50.9301 30.15L50.0401 26.36L49.1601 30.17L50.9301 30.15ZM55.9701 33.87H62.7601V30.8601H62.1501C61.8801 32.5001 61.4901 33.1701 59.9301 33.1701H59.1801V23.8701H59.9501V23.17H55.9701V23.8701H56.7401V33.1701H55.9701V33.87V33.87Z" fill="#011E41"/>
<path opacity="0.5" d="M15.5201 33.35C14.9301 33.82 13.9601 34.33 12.5601 34.35C9.87008 34.39 8.33008 31.83 8.33008 28.16C8.33008 24.97 9.91008 21.78 12.6801 21.75C13.2501 21.74 13.7701 21.87 14.3001 22.1C14.4801 22.15 14.6701 22.1201 14.7401 21.8701L15.5201 21.85V25.41L14.7701 25.3801C14.5601 23.1501 13.7101 22.52 12.7201 22.52C11.6701 22.52 11.1501 23.5201 11.1501 25.6201V30.3001C11.1501 32.6101 11.6201 33.66 12.7701 33.66C13.8201 33.66 14.6801 32.56 14.8501 30.58L15.5201 30.59V33.35V33.35ZM25.4601 33.16V33.85L23.3901 33.84C22.1101 33.86 22.2301 32.58 22.2001 31.68C22.1701 30.98 22.1501 30.17 22.0001 29.66C21.7501 28.85 21.2501 28.79 20.3801 28.76V33.1701H21.1501V33.87H17.1701V33.1701H17.9401V23.8701H17.1701V23.17H20.6301C23.3301 23.17 25.0401 23.67 25.0401 25.59C25.0401 27.34 24.0101 28.2 22.2401 28.31C24.4601 28.66 24.4601 29.7001 24.5801 31.1901C24.6601 32.1101 24.4901 33.18 25.2101 33.18C25.2601 33.16 25.3801 33.18 25.4601 33.16ZM22.4701 25.76C22.4701 24.27 22.1301 23.8701 20.9501 23.8701H20.3801V28.0401H20.8601C22.0901 28.0401 22.4701 27.23 22.4701 25.76ZM30.0001 33.16V23.86H30.7601V23.16H26.7901V23.86H27.5501V33.16H26.7901V33.8601H30.7601V33.16H30.0001ZM32.2101 33.2201C32.2101 33.2201 33.6101 34.1701 35.3601 34.0801C37.3201 33.9701 38.5601 33.03 38.6101 30.9C38.6501 29.14 37.7101 28.3601 36.2601 27.4701C34.6501 26.4701 33.8601 26.22 33.8601 25C33.8601 24.49 34.2601 23.68 35.3501 23.68C36.5201 23.68 37.1401 24.26 37.6101 26.19H38.2401V23.7201V23.15L37.5101 23.14C37.3001 23.47 36.8301 23.23 36.6301 23.17C36.0301 22.98 35.8001 22.9701 35.3801 22.9701C33.0701 22.9501 32.2501 24.7 32.2501 26.07C32.2501 27.8 33.3301 28.64 35.0301 29.7C36.3101 30.49 37.0501 30.94 37.0501 31.98C37.0501 32.91 36.3801 33.41 35.3501 33.41C33.9801 33.41 33.0401 32.65 32.7901 30.76H32.2101V33.2201ZM41.3701 33.87H45.5001V33.1701H44.6901V23.8701C44.7401 23.9001 44.7901 23.8701 44.8201 23.8701C45.9501 23.8701 46.2801 24.11 46.5501 26.18H47.1701L47.1801 23.14H39.7601V26.18H40.3801C40.7601 24.09 41.2001 23.9701 42.1101 23.8701C42.1401 23.8701 42.1901 23.9001 42.2401 23.8701V33.1701H41.3701V33.87V33.87ZM54.8201 33.16V33.8601H50.8601V33.16H51.6301L51.1101 30.9401L48.9401 30.9601L48.4401 33.16H49.3601V33.8601H46.9501V33.16H47.6101L49.9301 23.1301H51.8101L54.1501 33.16H54.8201ZM50.9301 30.15L50.0401 26.36L49.1601 30.17L50.9301 30.15ZM55.9701 33.87H62.7601V30.8601H62.1501C61.8801 32.5001 61.4901 33.1701 59.9301 33.1701H59.1801V23.8701H59.9501V23.17H55.9701V23.8701H56.7401V33.1701H55.9701V33.87V33.87Z" stroke="#011E41" stroke-width="0.1958"/>
</g>
</g>
<path d="M15.0201 32.8398C14.4301 33.3098 13.4601 33.8198 12.0601 33.8398C9.37008 33.8698 7.83008 31.3198 7.83008 27.6498C7.83008 24.4598 9.41008 21.2698 12.1801 21.2398C12.7401 21.2298 13.2701 21.3598 13.8001 21.5898C13.9801 21.6398 14.1701 21.6098 14.2401 21.3598L15.0201 21.3398V24.8998L14.2701 24.8698C14.0601 22.6398 13.2101 22.0098 12.2201 22.0098C11.1701 22.0098 10.6501 23.0098 10.6501 25.1098V29.7898C10.6501 32.0998 11.1201 33.1498 12.2701 33.1498C13.3201 33.1498 14.1801 32.0498 14.3501 30.0698L15.0201 30.0798V32.8398V32.8398ZM24.9501 32.6498V33.3398L22.8801 33.3298C21.6001 33.3498 21.7201 32.0698 21.6901 31.1698C21.6601 30.4698 21.6401 29.6598 21.4901 29.1498C21.2501 28.3398 20.7301 28.2798 19.8701 28.2498V32.6598H20.6401V33.3598H16.6601V32.6598H17.4301V23.3598H16.6601V22.6598H20.1201C22.8201 22.6598 24.5201 23.1598 24.5201 25.0798C24.5201 26.8298 23.4901 27.6898 21.7201 27.7998C23.9401 28.1498 23.9401 29.1898 24.0601 30.6798C24.1401 31.5998 23.9701 32.6598 24.6901 32.6598C24.7501 32.6498 24.8701 32.6698 24.9501 32.6498ZM21.9601 25.2498C21.9601 23.7598 21.6201 23.3598 20.4401 23.3598H19.8701V27.5298H20.3501C21.5801 27.5298 21.9601 26.7198 21.9601 25.2498ZM29.4901 32.6498V23.3498H30.2501V22.6498H26.2901V23.3498H27.0401V32.6498H26.2901V33.3498H30.2501V32.6498H29.4901ZM31.7001 32.7098C31.7001 32.7098 33.1001 33.6598 34.8501 33.5698C36.8101 33.4598 38.0501 32.5198 38.1001 30.3898C38.1401 28.6298 37.2001 27.8498 35.7501 26.9598C34.1401 25.9598 33.3501 25.7098 33.3501 24.4898C33.3501 23.9798 33.7501 23.1698 34.8401 23.1698C36.0001 23.1698 36.6301 23.7498 37.1001 25.6798H37.7301V23.2098L37.7401 22.6398L37.0101 22.6298C36.8001 22.9598 36.3301 22.7198 36.1301 22.6598C35.5301 22.4698 35.3001 22.4598 34.8801 22.4598C32.5701 22.4398 31.7501 24.1898 31.7501 25.5598C31.7501 27.2898 32.8301 28.1298 34.5301 29.1898C35.8101 29.9798 36.5501 30.4298 36.5501 31.4698C36.5501 32.3998 35.8801 32.8998 34.8501 32.8998C33.4801 32.8998 32.5401 32.1398 32.2901 30.2498H31.7001V32.7098V32.7098ZM40.8601 33.3598H44.9901V32.6598H44.1801V23.3598C44.2301 23.3898 44.2801 23.3598 44.3101 23.3598C45.4401 23.3598 45.7701 23.5998 46.0401 25.6698H46.6601L46.6701 22.6298H39.2501V25.6698H39.8701C40.2501 23.5798 40.6901 23.4598 41.6001 23.3598C41.6301 23.3598 41.6801 23.3898 41.7301 23.3598V32.6598H40.8601V33.3598V33.3598ZM54.3101 32.6498V33.3498H50.3501V32.6498H51.1201L50.6001 30.4298L48.4301 30.4498L47.9301 32.6498H48.8401V33.3498H46.4301V32.6498H47.0901L49.4101 22.6198H51.2901L53.6301 32.6498H54.3101ZM50.4201 29.6398L49.5301 25.8498L48.6501 29.6598L50.4201 29.6398ZM55.4601 33.3598H62.2501V30.3498H61.6401C61.3701 31.9898 60.9901 32.6598 59.4301 32.6598H58.6701V23.3598H59.4401V22.6598H55.4601V23.3598H56.2301V32.6598H55.4601V33.3598V33.3598Z" fill="#FF8300"/>
<path d="M56.9002 23.3601H57.5302V32.6601H56.9002V23.3601ZM51.8202 32.6501L51.0802 29.5201L50.1702 25.6301L49.6802 23.3501H50.3202L52.4802 32.6501H51.8202ZM42.3902 23.3601H43.0302V32.6601H42.3902V23.3601ZM27.7102 23.3601H28.3602V32.6601H27.7102V23.3601ZM18.0802 32.6501V23.3501H18.7102V28.2401V32.6501H18.0802ZM22.6102 32.4301C22.4502 32.4301 22.3802 32.4301 22.3602 31.4401C22.3602 31.3401 22.3602 31.2401 22.3502 31.1401L22.3402 30.8601C22.3102 30.1601 22.2802 29.4401 22.1102 28.8801C22.1102 28.8701 22.1102 28.8601 22.1002 28.8601C22.7802 29.1101 22.8102 29.5201 22.9002 30.5801L22.9102 30.7501C22.9202 30.9201 22.9302 31.1001 22.9302 31.2701C22.9402 31.5901 22.9502 32.0201 23.0602 32.4301H22.6102ZM9.72023 32.0001C8.93023 31.0901 8.49023 29.5301 8.49023 27.6401C8.49023 25.9601 8.90023 24.5101 9.64023 23.4901C9.55023 23.9701 9.51023 24.5101 9.51023 25.1101V29.7901C9.51023 30.3001 9.51023 31.1801 9.72023 32.0001ZM36.9702 30.3101C36.5702 29.5101 35.7302 28.9901 34.7902 28.4201C33.0402 27.3301 32.4202 26.7301 32.4202 25.5501C32.7602 26.3601 33.5302 26.8201 34.3902 27.3301C34.6002 27.4601 34.8202 27.5801 35.0502 27.7301C36.4902 28.6201 36.9802 29.1201 36.9702 30.3101ZM22.4502 26.6701C22.5602 26.2701 22.6202 25.7901 22.6202 25.2501C22.6202 24.6601 22.5702 24.2301 22.4502 23.8601C23.2902 24.1601 23.3602 24.6401 23.3602 25.0701C23.3702 25.6801 23.2502 26.3301 22.4502 26.6701Z" fill="white"/>
<path d="M61.31 23.6202L61.14 22.9302H60.79V24.1902H61.04V23.4802L61.21 24.1902H61.42L61.59 23.4802V24.1902H61.83V22.9302H61.48L61.31 23.6202Z" fill="#FF8300"/>
<path d="M62.26 23.8901H61.98V24.1901H62.26V23.8901Z" fill="#FF8300"/>
<path d="M63.53 23.8901H63.25V24.1901H63.53V23.8901Z" fill="#FF8300"/>
<path d="M63.1499 23.3202C63.1499 23.0702 63.0099 22.9302 62.7399 22.9302H62.3999V24.2002H62.6799V23.7102H62.7299L62.9199 24.2002H63.2199L62.9999 23.6502C63.0999 23.5902 63.1499 23.4802 63.1499 23.3202ZM62.8699 23.3202C62.8699 23.4102 62.8299 23.4502 62.7499 23.4502H62.6699V23.1802H62.7499C62.8399 23.1802 62.8699 23.2302 62.8699 23.3202Z" fill="#FF8300"/>
<path d="M70.2 22.3202C69.69 20.6102 68.93 18.9802 67.95 17.4602L67.43 16.6602L66.47 16.7702C55.12 18.0602 45.04 18.6502 34.75 18.6502C24.91 18.6502 15 18.0802 4.46 16.9102L3.49 16.8002L2.97 17.6202C1.96 19.2202 1.19 20.9502 0.69 22.7602C0.23 24.4202 0 26.1202 0 27.8302C0 28.9302 0.1 30.0402 0.29 31.1302C0.74 33.7202 1.71 36.1502 3.16 38.3302L3.71 39.1802L4.68 39.0602C10.62 38.3502 20.45 37.5102 33.49 37.5102C44.21 37.5102 55.23 38.1002 66.22 39.2602L67.14 39.3602L67.71 38.5302C67.75 38.4802 67.78 38.4202 67.82 38.3702C69.11 36.4202 70.03 34.2702 70.54 32.0002C70.85 30.6302 71 29.2202 71 27.8302C71.01 25.9602 70.74 24.1102 70.2 22.3202Z" fill="#FF8300"/>
<path d="M4.58988 18.4298C3.66988 19.8998 2.96988 21.4898 2.50988 23.1598C2.08988 24.6798 1.87988 26.2498 1.87988 27.8198C1.87988 28.8298 1.96988 29.8498 2.13988 30.8598C2.55988 33.2398 3.43988 35.4798 4.75988 37.4998C4.76988 37.5098 4.77988 37.5298 4.78988 37.5398C10.4299 36.8698 20.3099 35.9798 33.5099 35.9798C44.2099 35.9798 55.1399 36.5698 66.0799 37.7398C66.1299 37.6698 66.1799 37.5998 66.2199 37.5298C67.3999 35.7298 68.2299 33.7598 68.6999 31.6698C68.9799 30.4098 69.1199 29.1198 69.1199 27.8298C69.1199 26.1198 68.8699 24.4098 68.3799 22.7698C67.9099 21.1898 67.2199 19.6898 66.3299 18.2998C55.0899 19.5798 44.9299 20.1798 34.7499 20.1798C24.9799 20.1798 15.0599 19.6098 4.58988 18.4298Z" fill="#011E41"/>
<path d="M67.3502 23.0699C66.9702 21.8099 66.4502 20.5899 65.7702 19.4399C54.7102 20.6799 44.8402 21.2599 34.7502 21.2599C25.1202 21.2599 15.4402 20.7099 5.16021 19.5799C4.46021 20.7999 3.92022 22.0899 3.56021 23.4399C3.17022 24.8699 2.97021 26.3399 2.97021 27.8199C2.97021 28.7699 3.05021 29.7299 3.22021 30.6699C3.57021 32.6999 4.29022 34.6199 5.35021 36.3799C11.3602 35.6799 20.9502 34.8899 33.5102 34.8899C44.0102 34.8899 54.7802 35.4599 65.5402 36.5899C66.5302 34.9899 67.2402 33.2599 67.6502 31.4299C67.9102 30.2499 68.0502 29.0299 68.0502 27.8199C68.0502 26.2199 67.8102 24.6199 67.3502 23.0699ZM67.0502 31.2999C66.6502 33.0599 65.9502 34.7299 64.9802 36.2699C54.4202 35.1899 43.8502 34.6399 33.5502 34.6399C21.2302 34.6399 11.8202 35.3999 5.92021 36.0799C4.88021 34.3799 4.18021 32.5399 3.83021 30.5799C3.67021 29.6699 3.59021 28.7399 3.59021 27.8299C3.59021 26.4099 3.78021 24.9899 4.17021 23.6099C4.53021 22.3099 5.06021 21.0699 5.74021 19.8899C15.8202 20.9799 25.3302 21.5099 34.7802 21.5099C44.6802 21.5099 54.3702 20.9499 65.2202 19.7599C65.8802 20.8599 66.4002 22.0299 66.7702 23.2499C67.2202 24.7399 67.4502 26.2799 67.4502 27.8299C67.4402 28.9999 67.3102 30.1599 67.0502 31.2999Z" fill="#BB9B00"/>
<path d="M4.7998 37.54C4.7998 37.54 5.0398 37.5 5.4798 37.44C5.9298 37.38 6.5798 37.28 7.4198 37.18C9.0898 36.97 11.4698 36.68 14.3398 36.43C15.7798 36.31 17.3298 36.18 18.9798 36.08C20.6298 35.97 22.3698 35.88 24.1698 35.81C25.9698 35.75 27.8298 35.68 29.7198 35.65C31.6098 35.62 33.5398 35.61 35.4498 35.62C37.3698 35.64 39.2898 35.67 41.1798 35.73C43.0698 35.78 44.9298 35.87 46.7298 35.96C48.5298 36.05 50.2698 36.17 51.9098 36.28C53.5598 36.4 55.1098 36.53 56.5498 36.66C59.4198 36.92 61.7998 37.21 63.4698 37.41C64.2998 37.5 64.9598 37.6 65.3998 37.66C65.8498 37.72 66.0798 37.75 66.0798 37.75C66.0798 37.75 65.1198 37.68 63.4498 37.56C62.6098 37.5 61.5998 37.42 60.4298 37.34C59.2598 37.27 57.9498 37.18 56.5098 37.09C55.0698 37.01 53.5198 36.93 51.8698 36.84C50.2198 36.76 48.4898 36.69 46.6898 36.62C44.8898 36.55 43.0398 36.51 41.1498 36.46C39.2598 36.41 37.3498 36.39 35.4298 36.38C33.5098 36.37 31.5998 36.36 29.7098 36.39C27.8198 36.41 25.9698 36.44 24.1698 36.48C22.3698 36.54 20.6398 36.58 18.9898 36.65C17.3398 36.72 15.7898 36.79 14.3498 36.87C12.9098 36.96 11.5998 37.03 10.4298 37.11C9.2598 37.19 8.2498 37.27 7.4098 37.34C5.7598 37.46 4.7998 37.54 4.7998 37.54Z" fill="#BB9B00"/>
<g opacity="0.5">
<g opacity="0.5">
<path opacity="0.5" d="M15.5201 33.4199C14.9301 33.8899 13.9601 34.3999 12.5601 34.4199C9.87008 34.4599 8.33008 31.8999 8.33008 28.2299C8.33008 25.0399 9.91008 21.8499 12.6801 21.8199C13.2501 21.8099 13.7701 21.9399 14.3001 22.1699C14.4801 22.2199 14.6701 22.1899 14.7401 21.9399L15.5201 21.9199V25.4799L14.7701 25.4499C14.5601 23.2199 13.7101 22.5899 12.7201 22.5899C11.6701 22.5899 11.1501 23.5899 11.1501 25.6899V30.3799C11.1501 32.6899 11.6201 33.7499 12.7701 33.7499C13.8201 33.7499 14.6801 32.6499 14.8501 30.6699L15.5201 30.6799V33.4199V33.4199ZM25.4601 33.2299V33.9199L23.3901 33.9099C22.1101 33.9299 22.2301 32.6399 22.2001 31.7399C22.1701 31.0399 22.1501 30.2299 22.0001 29.7199C21.7501 28.8999 21.2401 28.8399 20.3801 28.8199V33.2299H21.1501V33.9299H17.1701V33.2299H17.9401V23.9299H17.1701V23.2299H20.6301C23.3301 23.2299 25.0401 23.7299 25.0401 25.6499C25.0401 27.3999 24.0101 28.2599 22.2401 28.3699C24.4601 28.7199 24.4601 29.7599 24.5801 31.2499C24.6601 32.1699 24.4901 33.2399 25.2101 33.2399C25.2601 33.2299 25.3801 33.2399 25.4601 33.2299ZM22.4701 25.8199C22.4701 24.3299 22.1301 23.9299 20.9501 23.9299H20.3801V28.1099H20.8601C22.1001 28.0999 22.4701 27.2899 22.4701 25.8199ZM30.0101 33.2299V23.9299H30.7601V23.2299H26.7901V23.9299H27.5501V33.2299H26.7901V33.9299H30.7601V33.2299H30.0101ZM32.2201 33.2799C32.2201 33.2799 33.6201 34.2299 35.3701 34.1399C37.3301 34.0299 38.5801 33.0899 38.6201 30.9599C38.6601 29.1999 37.7201 28.4199 36.2701 27.5199C34.6601 26.5199 33.8701 26.2699 33.8701 25.0499C33.8701 24.5399 34.2701 23.7299 35.3601 23.7299C36.5201 23.7299 37.1501 24.3099 37.6201 26.2399H38.2501V23.7699L38.2601 23.1999L37.5401 23.1799C37.3301 23.5099 36.8601 23.2699 36.6601 23.2099C36.0601 23.0199 35.8301 23.0099 35.4101 23.0099C33.0901 22.9899 32.2801 24.7399 32.2801 26.1099C32.2801 27.8399 33.3601 28.6799 35.0601 29.7399C36.3401 30.5299 37.0801 30.9799 37.0801 32.0199C37.0801 32.9499 36.4101 33.4499 35.3801 33.4499C34.0101 33.4499 33.0701 32.6899 32.8201 30.7999H32.2301V33.2799H32.2201ZM41.3801 33.9299H45.5101V33.2299H44.7001V23.9299C44.7501 23.9599 44.8001 23.9299 44.8301 23.9299C45.9601 23.9299 46.2901 24.1699 46.5601 26.2399H47.1801L47.1901 23.1999H39.7601V26.2399H40.3801C40.7601 24.1499 41.2001 24.0299 42.1101 23.9299C42.1401 23.9299 42.1901 23.9599 42.2401 23.9299V33.2299H41.3701V33.9299H41.3801ZM54.8401 33.2299V33.9299H50.8801V33.2299H51.6501L51.1301 31.0099L48.9601 31.0299L48.4601 33.2299H49.3801V33.9299H46.9701V33.2299H47.6301L49.9501 23.1899H51.8301L54.1701 33.2199H54.8401V33.2299ZM50.9401 30.2099L50.0501 26.4199L49.1701 30.2399L50.9401 30.2099ZM55.9901 33.9299H62.7901V30.9199H62.1801C61.9101 32.5699 61.5201 33.2299 59.9601 33.2299H59.2001V23.9299H59.9701V23.2299H55.9801V23.9299H56.7501V33.2299H55.9801V33.9299H55.9901Z" fill="#011E41"/>
<path opacity="0.5" d="M15.5201 33.4199C14.9301 33.8899 13.9601 34.3999 12.5601 34.4199C9.87008 34.4599 8.33008 31.8999 8.33008 28.2299C8.33008 25.0399 9.91008 21.8499 12.6801 21.8199C13.2501 21.8099 13.7701 21.9399 14.3001 22.1699C14.4801 22.2199 14.6701 22.1899 14.7401 21.9399L15.5201 21.9199V25.4799L14.7701 25.4499C14.5601 23.2199 13.7101 22.5899 12.7201 22.5899C11.6701 22.5899 11.1501 23.5899 11.1501 25.6899V30.3799C11.1501 32.6899 11.6201 33.7499 12.7701 33.7499C13.8201 33.7499 14.6801 32.6499 14.8501 30.6699L15.5201 30.6799V33.4199V33.4199ZM25.4601 33.2299V33.9199L23.3901 33.9099C22.1101 33.9299 22.2301 32.6399 22.2001 31.7399C22.1701 31.0399 22.1501 30.2299 22.0001 29.7199C21.7501 28.8999 21.2401 28.8399 20.3801 28.8199V33.2299H21.1501V33.9299H17.1701V33.2299H17.9401V23.9299H17.1701V23.2299H20.6301C23.3301 23.2299 25.0401 23.7299 25.0401 25.6499C25.0401 27.3999 24.0101 28.2599 22.2401 28.3699C24.4601 28.7199 24.4601 29.7599 24.5801 31.2499C24.6601 32.1699 24.4901 33.2399 25.2101 33.2399C25.2601 33.2299 25.3801 33.2399 25.4601 33.2299ZM22.4701 25.8199C22.4701 24.3299 22.1301 23.9299 20.9501 23.9299H20.3801V28.1099H20.8601C22.1001 28.0999 22.4701 27.2899 22.4701 25.8199ZM30.0101 33.2299V23.9299H30.7601V23.2299H26.7901V23.9299H27.5501V33.2299H26.7901V33.9299H30.7601V33.2299H30.0101ZM32.2201 33.2799C32.2201 33.2799 33.6201 34.2299 35.3701 34.1399C37.3301 34.0299 38.5801 33.0899 38.6201 30.9599C38.6601 29.1999 37.7201 28.4199 36.2701 27.5199C34.6601 26.5199 33.8701 26.2699 33.8701 25.0499C33.8701 24.5399 34.2701 23.7299 35.3601 23.7299C36.5201 23.7299 37.1501 24.3099 37.6201 26.2399H38.2501V23.7699L38.2601 23.1999L37.5401 23.1799C37.3301 23.5099 36.8601 23.2699 36.6601 23.2099C36.0601 23.0199 35.8301 23.0099 35.4101 23.0099C33.0901 22.9899 32.2801 24.7399 32.2801 26.1099C32.2801 27.8399 33.3601 28.6799 35.0601 29.7399C36.3401 30.5299 37.0801 30.9799 37.0801 32.0199C37.0801 32.9499 36.4101 33.4499 35.3801 33.4499C34.0101 33.4499 33.0701 32.6899 32.8201 30.7999H32.2301V33.2799H32.2201ZM41.3801 33.9299H45.5101V33.2299H44.7001V23.9299C44.7501 23.9599 44.8001 23.9299 44.8301 23.9299C45.9601 23.9299 46.2901 24.1699 46.5601 26.2399H47.1801L47.1901 23.1999H39.7601V26.2399H40.3801C40.7601 24.1499 41.2001 24.0299 42.1101 23.9299C42.1401 23.9299 42.1901 23.9599 42.2401 23.9299V33.2299H41.3701V33.9299H41.3801ZM54.8401 33.2299V33.9299H50.8801V33.2299H51.6501L51.1301 31.0099L48.9601 31.0299L48.4601 33.2299H49.3801V33.9299H46.9701V33.2299H47.6301L49.9501 23.1899H51.8301L54.1701 33.2199H54.8401V33.2299ZM50.9401 30.2099L50.0501 26.4199L49.1701 30.2399L50.9401 30.2099ZM55.9901 33.9299H62.7901V30.9199H62.1801C61.9101 32.5699 61.5201 33.2299 59.9601 33.2299H59.2001V23.9299H59.9701V23.2299H55.9801V23.9299H56.7501V33.2299H55.9801V33.9299H55.9901Z" stroke="#011E41" stroke-width="0.1963"/>
</g>
</g>
<path d="M15.0098 32.9101C14.4198 33.3801 13.4498 33.8901 12.0498 33.9101C9.35982 33.9401 7.81982 31.3901 7.81982 27.7201C7.81982 24.5301 9.39982 21.3401 12.1698 21.3101C12.7398 21.3001 13.2598 21.4301 13.7898 21.6601C13.9698 21.7101 14.1598 21.6801 14.2298 21.4301L15.0098 21.4101V24.9701L14.2598 24.9401C14.0498 22.7101 13.1998 22.0801 12.2098 22.0801C11.1598 22.0801 10.6398 23.0801 10.6398 25.1801V29.8701C10.6398 32.1801 11.1098 33.2401 12.2598 33.2401C13.3098 33.2401 14.1698 32.1401 14.3398 30.1601L15.0098 30.1701V32.9101V32.9101ZM24.9498 32.7201V33.4101L22.8798 33.4001C21.5998 33.4201 21.7198 32.1301 21.6898 31.2401C21.6598 30.5401 21.6398 29.7301 21.4898 29.2201C21.2398 28.4001 20.7298 28.3401 19.8698 28.3201V32.7301H20.6398V33.4301H16.6598V32.7301H17.4298V23.4301H16.6598V22.7301H20.1198C22.8198 22.7301 24.5298 23.2301 24.5298 25.1501C24.5298 26.9001 23.4998 27.7601 21.7298 27.8701C23.9498 28.2201 23.9498 29.2601 24.0698 30.7501C24.1498 31.6701 23.9798 32.7401 24.6998 32.7401C24.7498 32.7201 24.8698 32.7301 24.9498 32.7201ZM21.9598 25.3101C21.9598 23.8201 21.6198 23.4201 20.4398 23.4201H19.8698V27.5901H20.3498C21.5898 27.5901 21.9598 26.7801 21.9598 25.3101ZM29.4998 32.7201V23.4201H30.2598V22.7201H26.2898V23.4201H27.0498V32.7201H26.2898V33.4201H30.2598V32.7201H29.4998ZM31.7098 32.7701C31.7098 32.7701 33.1098 33.7201 34.8598 33.6301C36.8198 33.5201 38.0698 32.5801 38.1098 30.4501C38.1498 28.6901 37.2098 27.9101 35.7598 27.0101C34.1498 26.0101 33.3598 25.7601 33.3598 24.5401C33.3598 24.0301 33.7598 23.2201 34.8498 23.2201C36.0198 23.2201 36.6398 23.8001 37.1098 25.7301H37.7398V23.2601L37.7498 22.6801L37.0198 22.6701C36.8098 23.0001 36.3398 22.7601 36.1398 22.7001C35.5398 22.5101 35.3098 22.5001 34.8898 22.5001C32.5698 22.4801 31.7598 24.2301 31.7598 25.6001C31.7598 27.3301 32.8398 28.1701 34.5398 29.2301C35.8198 30.0201 36.5598 30.4701 36.5598 31.5101C36.5598 32.4401 35.8898 32.9401 34.8598 32.9401C33.4898 32.9401 32.5498 32.1801 32.2998 30.2901H31.7098V32.7701ZM40.8698 33.4201H44.9998V32.7201H44.1898V23.4201C44.2398 23.4501 44.2898 23.4201 44.3198 23.4201C45.4498 23.4201 45.7798 23.6601 46.0498 25.7301H46.6698L46.6798 22.6901H39.2498V25.7301H39.8798C40.2598 23.6401 40.6998 23.5201 41.6098 23.4201C41.6398 23.4201 41.6898 23.4501 41.7398 23.4201V32.7201H40.8698V33.4201ZM54.3298 32.7201V33.4201H50.3698V32.7201H51.1398L50.6198 30.5001L48.4498 30.5201L47.9498 32.7201H48.8698V33.4201H46.4598V32.7201H47.1198L49.4398 22.6801H51.3198L53.6598 32.7101H54.3298V32.7201ZM50.4298 29.7001L49.5398 25.9101L48.6598 29.7301L50.4298 29.7001ZM55.4798 33.4201H62.2798V30.4101H61.6698C61.3998 32.0601 61.0098 32.7201 59.4498 32.7201H58.6898V23.4201H59.4698V22.7201H55.4798V23.4201H56.2498V32.7201H55.4798V33.4201Z" fill="#FF8300"/>
<path d="M56.9202 23.4199H57.5502V32.7199H56.9202V23.4199ZM51.8302 32.7199L51.0902 29.5899L50.1802 25.6999L49.6902 23.4199H50.3302L52.5002 32.7199H51.8302ZM42.4002 23.4199H43.0402V32.7199H42.4002V23.4199ZM27.7102 23.4199H28.3602V32.7199H27.7102V23.4199ZM18.0802 32.7199V23.4199H18.7102V28.3099V32.7199H18.0802ZM22.6102 32.4899C22.4502 32.4899 22.3802 32.4899 22.3602 31.4999C22.3602 31.3999 22.3602 31.2999 22.3502 31.1999L22.3402 30.9199C22.3102 30.2199 22.2802 29.4999 22.1102 28.9399C22.1102 28.9299 22.1102 28.9199 22.1002 28.9199C22.7802 29.1699 22.8102 29.5799 22.9002 30.6399L22.9102 30.8099C22.9202 30.9799 22.9302 31.1599 22.9302 31.3399C22.9402 31.6499 22.9502 32.0899 23.0602 32.4999L22.6102 32.4899ZM9.72023 32.0699C8.93023 31.1599 8.49023 29.5999 8.49023 27.7099C8.49023 26.0299 8.90023 24.5799 9.64023 23.5599C9.55023 24.0299 9.51023 24.5699 9.51023 25.1699V29.8599C9.50023 30.3599 9.50023 31.2399 9.72023 32.0699ZM36.9802 30.3699C36.5802 29.5699 35.7402 29.0499 34.8002 28.4699C33.0502 27.3799 32.4302 26.7799 32.4302 25.5999C32.7802 26.4099 33.5402 26.8699 34.4002 27.3799C34.6102 27.5099 34.8302 27.6399 35.0602 27.7799C36.5002 28.6799 36.9902 29.1899 36.9802 30.3699ZM22.4502 26.7299C22.5602 26.3299 22.6202 25.8499 22.6202 25.3099C22.6202 24.7199 22.5702 24.2799 22.4502 23.9199C23.2902 24.2199 23.3602 24.6999 23.3602 25.1299C23.3702 25.7399 23.2602 26.3899 22.4502 26.7299Z" fill="white"/>
<path d="M61.3301 23.6802L61.1601 22.9902H60.8101V24.2502H61.0601V23.5402L61.2301 24.2502H61.4401L61.6101 23.5402V24.2502H61.8601V22.9902H61.5001L61.3301 23.6802Z" fill="#FF8300"/>
<path d="M62.28 23.9502H62V24.2502H62.28V23.9502Z" fill="#FF8300"/>
<path d="M63.55 23.9502H63.27V24.2502H63.55V23.9502Z" fill="#FF8300"/>
<path d="M63.1699 23.3802C63.1699 23.1302 63.0199 22.9902 62.7599 22.9902H62.4199V24.2602H62.6999V23.7702H62.7499L62.9399 24.2602H63.2399L63.0199 23.7102C63.1199 23.6502 63.1699 23.5402 63.1699 23.3802ZM62.8899 23.3802C62.8899 23.4702 62.8499 23.5102 62.7699 23.5102H62.6899V23.2402H62.7699C62.8599 23.2402 62.8899 23.2802 62.8899 23.3802Z" fill="#FF8300"/>
<path d="M36.02 16.23H21L21.03 17L21.12 17.02C21.13 17.02 21.7 17.19 21.92 17.56C22.16 17.96 22.2 18.58 22.2 18.59L22.22 19.61L22.54 19.62C22.56 19.61 22.86 19.95 22.9 18.06H22.67V16.75H47.44V18.06H47.16C47.33 18.54 47.41 19.64 47.42 19.65L47.8 19.57L47.85 18.6C47.85 18.59 47.89 17.98 48.13 17.57C48.35 17.2 48.92 17.03 48.93 17.03L49.02 17.01L49.06 16.24L36.02 16.23Z" fill="#011E41"/>
<path d="M36.02 16.23H21L21.03 17L21.12 17.02C21.13 17.02 21.7 17.19 21.92 17.56C22.16 17.96 22.2 18.58 22.2 18.59L22.22 19.61L22.54 19.62C22.56 19.61 22.86 19.95 22.9 18.06H22.67V16.75H47.44V18.06H47.16C47.33 18.54 47.41 19.64 47.42 19.65L47.8 19.57L47.85 18.6C47.85 18.59 47.89 17.98 48.13 17.57C48.35 17.2 48.92 17.03 48.93 17.03L49.02 17.01L49.06 16.24L36.02 16.23Z" stroke="#011E41" stroke-width="0.4799" stroke-miterlimit="10"/>
<path d="M63.4498 18.5199C62.6098 18.5799 61.5998 18.6599 60.4298 18.7399C59.2598 18.8099 57.9498 18.8999 56.5098 18.9899C55.0698 19.0699 53.5198 19.1499 51.8698 19.2399C50.6398 19.2999 49.3598 19.3499 48.0398 19.4099V19.3999C47.8598 19.4099 47.6798 19.4199 47.4998 19.4199V18.5699C47.5098 18.4499 47.5598 17.8999 47.7898 17.5099C48.0298 17.0899 48.6398 16.9099 48.6398 16.9099L48.6598 16.3599H35.9898H35.0198H34.0498H21.3798L21.3998 16.9099C21.3998 16.9099 22.0098 17.0899 22.2498 17.5099C22.4298 17.8199 22.4998 18.2399 22.5298 18.4599V19.5599C21.3198 19.5199 20.1298 19.4899 18.9998 19.4399C17.3498 19.3699 15.7998 19.2999 14.3598 19.2199C12.9198 19.1299 11.6098 19.0599 10.4398 18.9799C9.26979 18.8999 8.24979 18.7599 7.40979 18.6899C5.73979 18.5499 4.77979 18.4699 4.77979 18.4699C4.77979 18.4699 5.01978 18.5099 5.45978 18.5699C5.90978 18.6299 6.56979 18.7899 7.39979 18.8999C9.06978 19.1099 11.4498 19.3999 14.3198 19.6499C15.7598 19.7699 17.3098 19.8999 18.9598 19.9999C20.6098 20.1099 22.3498 20.1999 24.1498 20.2699C25.9498 20.3299 27.8098 20.3999 29.6998 20.4299C31.5898 20.4599 33.5198 20.4699 35.4298 20.4599C37.3498 20.4399 39.2698 20.4099 41.1598 20.3499C43.0498 20.2999 44.9098 20.2099 46.7098 20.1199C48.5098 20.0299 50.2498 19.9199 51.8898 19.7999C53.5398 19.6799 55.0898 19.5499 56.5298 19.4199C59.3998 19.1599 61.7798 18.8699 63.4498 18.6699C64.2798 18.5799 64.9398 18.4799 65.3798 18.4199C65.8298 18.3599 66.0598 18.3299 66.0598 18.3299C66.0598 18.3299 65.1298 18.3999 63.4498 18.5199Z" fill="#BB9B00"/>
<path d="M46.31 18.0298C46.26 17.7998 46.24 17.5698 46.24 17.5698H29.63H29.13H27.52H23.83C23.83 17.5698 23.81 17.7998 23.76 18.0298C23.71 18.2598 23.54 18.5098 23.54 18.5098C23.54 18.5098 23.81 18.4398 24 18.3298C24.2 18.2098 24.34 18.0498 24.34 18.0498H27.52H29.15H29.62H45.72C45.72 18.0498 45.87 18.2098 46.06 18.3298C46.25 18.4398 46.52 18.5098 46.52 18.5098C46.52 18.5098 46.36 18.2598 46.31 18.0298Z" fill="#011E41"/>
<path d="M46.8798 15.5299C46.8098 15.3399 46.4498 15.0699 46.4498 15.0699L44.6898 14.5399C44.6898 14.5399 43.9599 14.6899 43.7299 14.6699C43.4999 14.6499 42.8198 14.4799 42.2898 14.3899C41.7598 14.2999 39.8498 13.9599 39.8498 13.9599C39.8498 13.9599 39.5299 13.0099 39.3199 12.4099C39.1099 11.8099 38.7698 10.9499 38.7698 10.9499L38.8598 10.8899C38.8598 10.8899 39.5899 12.0299 40.3399 12.3699C41.0899 12.7099 41.6199 12.5799 41.6199 12.5799C41.6199 12.5799 41.6399 12.7299 41.7099 13.0299C41.7799 13.3299 41.7598 13.6499 41.7598 13.6499C41.7598 13.6499 42.1498 13.2199 42.3298 12.7299C42.5098 12.2399 42.5699 11.6799 42.5699 11.6799C42.5699 11.6799 41.7398 10.8399 41.3498 10.4099C40.9598 9.97987 40.4098 9.30987 40.3498 9.15987C40.2798 9.00987 40.3098 8.20988 40.3498 7.80988C40.3898 7.40988 40.5798 7.00988 40.5798 7.00988C40.5798 7.00988 40.0499 6.72988 39.8899 6.58988C39.3799 6.13988 39.3199 6.05988 39.3199 6.05988C39.3199 6.05988 39.2198 7.41988 39.2198 7.93988C39.2198 8.47988 39.6898 9.19988 39.6898 9.19988C39.6898 9.19988 39.0398 8.52988 38.7898 8.20988C38.5398 7.87988 38.3098 7.46988 38.3098 7.46988C38.3098 7.46988 38.3198 6.44988 38.4898 5.31988C38.7898 3.33988 39.0898 2.84988 39.4698 2.56988C39.6298 2.44988 39.8898 2.37988 40.3998 2.37988C40.6998 2.37988 41.6298 2.37988 41.6298 2.37988C41.6298 2.37988 40.6398 2.49988 40.3298 2.79988C40.2798 2.84988 40.2698 2.97988 40.2698 2.97988L41.9498 2.95988C41.9498 2.95988 40.3498 3.28988 40.3098 3.63988C40.2998 3.72988 40.3099 3.81988 40.3399 3.91988C40.4399 4.28988 40.6998 4.56988 40.6998 4.56988C40.6998 4.56988 39.9498 5.07988 39.8498 5.41988C39.7498 5.77988 39.8298 5.97988 39.8298 5.97988C39.8298 5.97988 40.1198 6.42988 40.6998 6.47988C41.2398 6.52988 41.9799 6.47988 42.1199 6.45988C42.1999 6.44988 42.2299 6.32988 42.2099 6.21988C42.1899 6.10988 42.1098 6.01988 42.1298 5.95988C42.1598 5.88988 42.2198 5.82988 42.2898 5.70988C42.3098 5.67988 42.2499 5.60988 42.2099 5.57988C42.1799 5.55988 42.1499 5.53988 42.1199 5.53988C42.0699 5.53988 41.6298 5.53988 41.6298 5.53988V5.49988C41.6298 5.49988 41.8298 5.39988 42.0198 5.33988C42.1798 5.28988 42.3199 5.24988 42.3199 5.24988C42.3199 5.24988 42.3898 5.18988 42.3798 5.10988C42.3698 5.00988 42.2798 4.88988 42.3298 4.86988C42.3798 4.84988 42.6998 4.77988 42.7598 4.74988C42.8198 4.71988 42.8598 4.60988 42.8298 4.56988C42.6998 4.35988 42.2999 3.80988 42.2499 3.65988C42.1299 3.32988 42.1399 2.97988 42.1399 2.97988L42.3199 2.95988C42.3199 2.95988 42.3098 2.49988 41.9898 2.09988C41.5598 1.53988 40.5898 1.23988 39.5798 1.20988C38.5798 1.18988 37.4798 1.50988 37.1998 1.82988C36.9298 2.14988 35.9198 3.79988 35.5299 5.10988C34.7799 7.58988 34.9398 8.65987 34.9398 8.65987C34.9398 8.65987 35.3798 9.01987 35.5798 9.15987C35.5798 9.15987 34.4899 9.61988 33.7999 9.85988C33.1099 10.0999 32.5098 10.1499 32.5098 10.1499C32.5098 10.1499 30.8298 9.56988 29.4798 9.24988C28.1298 8.92988 27.0499 9.06988 27.0499 9.06988C27.0499 9.06988 26.2299 9.29988 25.2899 10.0299C23.3599 11.5399 22.8298 13.0499 22.8298 13.0499C22.8298 13.0499 22.7999 13.5199 23.1199 13.8699C23.4399 14.2099 23.6398 14.4099 23.6398 14.4099C23.6398 14.4099 23.0698 14.9499 22.9998 15.2299C22.9298 15.5099 23.1299 15.9899 23.1299 15.9899C23.1299 15.9899 25.5998 16.0099 26.6698 16.0099C27.7398 16.0099 29.4499 15.9999 29.4499 15.9999C29.4499 15.9999 30.4398 15.6199 30.6398 15.6399C30.8498 15.6599 31.0498 15.8299 31.1398 15.9199C31.2298 16.0099 31.3198 16.1399 31.3198 16.1399C31.3198 16.1399 31.3898 15.9899 31.4298 15.7999C31.4798 15.6099 31.4798 15.3499 31.4798 15.3499C31.4798 15.3499 31.8199 15.6299 31.8899 15.7799C31.9599 15.9299 32.0299 16.1199 32.0299 16.1199L32.2999 16.0899C32.2999 16.0899 32.2799 15.7999 32.2099 15.5699C32.0499 15.0799 31.0598 14.4299 31.0598 14.4299C31.0598 14.4299 29.4498 14.9799 29.0698 15.0399C28.6798 15.0999 27.6299 15.1299 26.8799 15.0999C26.2299 15.0799 25.3298 14.9399 25.1498 14.9099C25.3098 14.9199 26.5399 14.6299 27.4499 14.2599C29.3199 13.4999 29.8598 12.5499 29.8598 12.5499C29.8598 12.5499 29.8398 12.2699 29.6698 11.8699C29.2798 10.9699 28.7799 10.4499 28.7799 10.4499C28.7799 10.4499 29.1599 10.5099 29.3699 10.6399C29.5999 10.7799 30.3698 11.6399 30.5898 12.0099C30.8198 12.3799 31.0998 13.1399 31.0998 13.1399C31.0998 13.1399 33.2299 14.7999 34.5299 15.0599C35.4599 15.2399 36.1298 14.9499 36.1298 14.9499C36.1298 14.9499 36.2998 14.4199 36.3298 14.0499C36.3498 13.6799 36.2898 12.6999 36.2898 12.6999C36.2898 12.6999 36.9799 14.0799 37.3899 14.6599C37.7999 15.2399 38.3298 15.8199 38.3298 15.8199C38.3298 15.8199 39.9999 15.8799 40.3399 15.8799C41.0399 15.8799 41.7498 15.8699 42.4698 15.7799C43.1798 15.6899 43.9099 15.5199 43.9099 15.5199C43.9099 15.5199 44.1499 15.5999 44.3199 15.7199C44.5099 15.8599 44.5699 16.0399 44.5699 16.0399L45.3399 16.0199C45.3399 16.0199 45.4498 15.7799 45.3798 15.5499C45.3098 15.3099 45.1698 15.1199 45.1698 15.1199L45.2799 15.0999C45.2799 15.0999 45.6499 15.3399 45.7999 15.4899C45.9999 15.6799 45.8899 16.0099 45.8899 16.0099L46.7799 16.0299C46.8299 16.0299 46.9498 15.7299 46.8798 15.5299ZM41.8298 3.57988C41.8298 3.63988 41.7899 3.77988 41.7799 3.82988C41.7599 3.93988 41.9998 3.96988 41.9498 4.06988C41.9098 4.13988 41.1999 4.09988 41.0499 4.06988C40.9499 4.05988 40.8899 4.04988 40.7999 4.02988C40.8599 3.94988 41.1298 3.63988 41.4498 3.55988C41.6098 3.51988 41.8298 3.47988 41.8298 3.57988ZM37.6498 8.77988C37.3298 8.74988 36.2099 9.03988 36.2099 9.03988C36.2099 9.03988 35.6699 8.41988 35.7499 6.90988C35.8099 5.88988 36.1798 4.74988 36.5798 3.85988C36.9898 2.97988 37.4398 2.34988 37.4398 2.34988H37.5499C37.5499 2.34988 36.9998 3.82988 36.9298 4.75988C36.8598 5.67988 36.7598 6.24988 37.0198 7.05988C37.1098 7.33988 37.9298 8.07988 38.5798 8.76988C38.9898 9.20988 39.5598 9.81988 39.5598 9.81988C39.5598 9.81988 38.1998 8.81988 37.6498 8.77988Z" fill="#BB9B00"/>
<path d="M34.61 12.7801C34.04 11.9901 33.02 11.8801 33.02 11.8801C33.02 11.8801 33.13 11.4201 32.75 11.1301C32.48 10.9201 31.78 10.7701 31.49 10.7401C31.2 10.7101 30.83 10.5501 30.83 10.5501C30.83 10.5501 30.95 10.9301 31.39 11.0701C31.68 11.1601 31.93 11.1101 32.31 11.3401C32.69 11.5801 32.62 11.8901 32.62 11.8901C32.62 11.8901 33.4 12.0101 34.03 12.5701C34.32 12.8201 34.95 13.8701 34.23 15.1601C33.52 16.4501 31.8 17.0201 31.08 17.1401C30.36 17.2601 29.14 17.2201 28.18 16.9401C26.91 16.5801 25.42 15.5901 24.33 15.0301C23.72 14.7201 23.23 14.5601 22.93 14.5601C22.71 14.5201 22.58 14.5201 22.53 14.3601C22.45 14.0901 22.64 13.8401 22.86 13.7301C22.91 13.7001 22.84 13.6401 22.89 13.6301C23.09 13.5901 23.36 13.6101 23.71 13.7001C24.38 13.8601 25.19 14.5501 26.13 15.1501C27.1 15.7601 27.85 16.4601 29.58 16.6101C31.3 16.7601 33.31 16.0801 33.91 14.8901C34.43 13.8601 33.88 12.8001 33.42 12.4001C33.03 12.0701 32.23 11.7901 32.23 11.7901C32.23 11.7901 31.73 12.1801 30.84 11.6701C30.13 11.2701 30.49 10.1001 30.49 10.1001L30.28 10.2001C30.28 10.2001 29.81 11.3701 30.68 12.0201C31.75 12.8201 32.66 12.3201 32.77 12.3501C33.92 12.6701 33.84 14.1001 33.46 14.7701C33.13 15.3501 32.38 16.1801 30.59 16.2901C28.8 16.4001 27.61 15.6701 26.99 15.2801C26.37 14.8901 25.72 14.3001 24.83 13.8501C24 13.4401 22.99 13.6001 22.87 13.6201C22.86 13.6201 22.86 13.6201 22.86 13.6201L22.92 13.3601C22.62 13.4101 22.16 13.8001 22.09 14.1801C22.03 14.4901 22.24 14.7301 22.47 14.8201C22.56 14.8501 22.68 14.8801 22.8 14.8901C22.8 14.8901 22.83 14.8401 22.84 14.8401C23.28 14.8601 23.55 14.9501 23.83 15.0501C24.78 15.3601 25.42 16.3801 27.26 17.1001C28.77 17.6901 30.32 17.6801 31.55 17.4001C32.85 17.1001 34.08 16.4101 34.69 15.4901C35.34 14.5301 35.02 13.3601 34.61 12.7801Z" fill="#011E41"/>
<path d="M22.5 14.4398C22.57 14.6798 22.99 14.6898 23.48 14.7998C23.97 14.9098 24.34 14.9598 25 15.3998C25.66 15.8398 26.57 16.4298 27.49 16.8098C28.41 17.1998 29.79 17.3998 30.81 17.2498C31.71 17.1198 32.94 16.5998 33.57 15.9898C34.04 15.5398 34.47 14.9598 34.51 14.2498C34.56 13.5398 34.35 12.7698 33.84 12.3198C33.48 11.9998 32.62 11.6898 32.62 11.6898C32.62 11.6898 32.59 11.3498 32.4 11.1798C32.2 11.0198 32.03 10.9598 31.71 10.9098C31.39 10.8598 31.06 10.7898 30.79 10.6198C30.52 10.4398 30.55 10.0498 30.55 10.0498C30.55 10.0498 30.4 10.3598 30.37 10.4698C30.29 10.7798 30.29 11.3398 30.8 11.6898C31.6 12.2398 32.27 11.8498 32.27 11.8498C32.27 11.8498 33.13 12.1998 33.51 12.5598C33.89 12.9198 34.23 13.6198 33.92 14.5398C33.55 15.6398 32.33 16.4898 30.55 16.6198C28.77 16.7498 27.63 16.1998 26.73 15.5198C25.83 14.8398 24.91 13.8998 24.12 13.6298C23.33 13.3598 22.91 13.3998 22.91 13.3998C22.91 13.3998 22.34 13.8698 22.5 14.4398Z" fill="#BB9B00"/>
<path d="M37.8298 8.02002C37.8298 8.02002 38.8598 9.01002 39.4098 9.61002C39.9598 10.21 40.7498 11.06 40.7498 11.06C40.7498 11.06 41.3298 11.17 41.3898 11.2C41.4298 11.22 41.4298 11.26 41.4298 11.26L40.5598 11.49C40.5598 11.49 39.6198 10.23 39.2798 9.86002C38.9298 9.50002 38.0998 8.81002 37.9498 8.71002C37.7998 8.62002 37.5298 8.55002 37.5298 8.55002L37.8298 8.02002Z" fill="#011E41"/>
</svg>
