<svg width="96" height="68" viewBox="0 0 96 68" fill="none" xmlns="http://www.w3.org/2000/svg">
<path d="M63.1632 67.6536C63.5138 67.5292 63.8869 67.5292 64.2431 67.4444C65.5039 67.1448 66.629 66.5964 67.6127 65.7483C67.6919 65.6748 67.7654 65.6352 67.8898 65.6409C69.7442 65.6635 71.4572 65.279 72.8311 63.9335C72.9216 63.8486 72.9951 63.8486 73.0912 63.8713C75.3809 64.431 77.3654 63.8713 79.0558 62.2543C79.1463 62.1695 79.2254 62.1525 79.3385 62.1638C81.1534 62.3561 82.8382 61.9603 84.376 60.9822C84.4721 60.92 84.5569 60.9031 84.6756 60.9144C86.6431 61.1857 88.5597 60.9709 90.4254 60.2868C91.9746 59.7158 93.3371 58.8451 94.5244 57.7031C94.8071 57.4317 94.7675 57.2281 94.6035 56.8776C94.3095 56.2331 93.7442 55.9956 93.1505 55.7638C90.4141 54.6783 87.576 53.932 84.6926 53.3441C81.9223 52.7843 79.1293 52.3547 76.3477 51.8515C72.9216 51.2352 69.518 50.5172 66.2445 49.2903C64.4523 48.6175 62.4283 47.6451 61.1958 46.8479C61.6594 46.4126 62.1173 45.9829 62.5696 45.5419C63.412 44.7221 64.2996 43.9476 65.0064 43.0034C65.2721 42.6472 65.5152 42.2741 65.6848 41.8614C65.764 41.6748 65.8827 41.5787 66.0693 41.5052C67.4883 40.985 68.5625 40.0578 69.2806 38.7292C69.3767 38.5539 69.4671 38.3617 69.518 38.1695C69.6707 37.6041 70.0042 37.2027 70.5357 36.9426C71.0841 36.6713 71.5986 36.332 72.0565 35.9193C73.0629 35.0147 73.7922 33.9292 74.2445 32.6628C74.3011 32.5045 74.3802 32.4253 74.5385 32.3688C76.7322 31.5264 78.2473 30.0112 79.0502 27.8062C79.1576 27.5122 79.2141 27.19 79.2707 26.879C79.3385 26.4889 79.5477 26.2232 79.9039 26.0536C81.9788 25.0472 83.1378 23.3511 83.5958 21.1405C83.6466 20.8804 83.6862 20.6147 83.6693 20.3433C83.6523 20.1115 83.7654 19.9702 83.9802 19.8741C86.4565 18.749 87.8813 16.7985 88.4353 14.1751C88.5088 13.8359 88.5484 13.491 88.5484 13.1462C88.5484 12.9709 88.6163 12.8748 88.7519 12.7787C89.6622 12.1115 90.4933 11.3653 91.1378 10.4324C91.7597 9.5391 92.1498 8.56101 92.1216 7.45288C92.1159 7.28327 92.2177 7.22108 92.3251 7.14193C93.3428 6.39564 94.2756 5.55889 94.9936 4.5073C95.5307 3.71013 95.8982 2.84511 95.9887 1.87267C95.9943 1.61825 95.9943 1.35818 96 1.09811C95.9774 0.922847 95.9774 0.747582 95.9943 0.566663C96.0226 0.153942 95.7739 -0.0552449 95.3724 0.0125996C88.8424 1.13769 82.6177 3.21825 76.6474 6.06772C71.6325 8.45924 66.906 11.3426 62.417 14.6161C58.7307 17.3073 55.2367 20.2246 51.8954 23.3342C49.8261 25.2564 47.8191 27.2409 45.8685 29.2819C45.7216 29.4345 45.6367 29.3667 45.518 29.2762C43.5958 27.8289 42.0806 26.0423 40.9894 23.8995C40.3675 22.6783 39.853 21.4006 39.1802 20.202C37.6763 17.5108 35.3583 15.9787 32.3618 15.3963C30.6035 15.0571 28.8396 15.1024 27.0756 15.3285C26.0636 15.4585 25.0629 15.6734 24.0565 15.8543C23.4912 15.9561 22.9032 15.9391 22.3265 15.9165C21.077 15.8656 19.8389 15.7299 18.6403 15.3737C16.8367 14.8423 15.0219 14.3561 13.1901 13.932C11.3018 13.5024 9.39647 13.1462 7.46855 12.9313C5.99859 12.7674 4.52296 12.6713 3.04169 12.6882C2.49894 12.6939 1.95053 12.6656 1.41908 12.7787C1.10248 12.8465 0.797173 12.9709 0.491875 13.0783C0.231804 13.1688 0.124374 13.4062 0 13.6267V13.8925C0.23745 14.373 0.684097 14.537 1.15336 14.6331C2.29541 14.8592 3.43745 15.0797 4.58516 15.2663C7.28763 15.7073 9.95053 16.3292 12.5852 17.0585C13.5689 17.3299 14.5357 17.6409 15.5194 17.9236C16.6502 18.2458 17.6 18.8621 18.5102 19.5631C19.5449 20.366 20.3986 21.3384 21.1788 22.3843C22.8636 24.6402 24.3053 27.0317 25.5887 29.5306C26.7307 31.7638 27.6466 34.0932 28.4325 36.4734C29.0714 38.4239 29.5689 40.414 30.2021 42.3645C31.3498 45.8755 33.0799 49.0529 35.7541 51.6649C38.3152 54.1638 41.3173 55.8486 44.8622 56.5101C46.5583 56.8267 48.2601 56.8437 49.9618 56.5441C50.1314 56.5158 50.2558 56.4762 50.3463 56.7306C51.1491 59.0147 52.1781 61.1857 53.6989 63.0967C55.135 64.8946 56.8707 66.2967 59.0643 67.0826C59.8219 67.3539 60.5965 67.5349 61.3993 67.5914C61.4445 67.5971 61.4898 67.5857 61.5124 67.6366H63.1632V67.6536ZM20.2799 19.4557C20.2346 19.4614 20.212 19.4331 20.1951 19.3992C20.1329 19.3483 20.065 19.3031 20.0085 19.2465C19.2792 18.5511 18.4311 18.0366 17.4869 17.6804C15.4855 16.9228 13.4332 16.3518 11.3696 15.8091C8.76324 15.1193 6.12862 14.5709 3.46572 14.1582C2.95123 14.079 2.4424 13.9716 1.92791 13.8812C1.92791 13.8585 1.93356 13.8303 1.93356 13.8077C2.55547 13.8077 3.17738 13.802 3.80494 13.8077C5.46148 13.8246 7.11237 13.9773 8.7576 14.2034C10.9173 14.5031 13.0544 14.9158 15.1689 15.4416C17.2269 15.9561 19.2848 16.4988 21.3428 17.0133C22.1173 17.2055 22.9032 17.2621 23.7004 17.1603C24.0057 17.1094 24.3166 17.0698 24.6219 17.0133C25.8092 16.7928 26.9738 16.4706 28.1894 16.3857C29.6254 16.284 31.0502 16.3009 32.4636 16.6232C34.7081 17.1377 36.5456 18.2628 37.7951 20.2416C38.4622 21.2988 38.9767 22.4296 39.4968 23.5603C40.7915 26.3985 42.6686 28.7504 45.2466 30.5426C45.6028 30.7914 46.1173 30.7575 46.4113 30.4522C47.7908 28.9992 49.1986 27.5744 50.6403 26.1836C52.8678 24.0296 55.1576 21.9433 57.5378 19.9589C60.1837 17.7483 62.9258 15.6621 65.7809 13.7285C70.3095 10.6585 75.0587 7.98998 80.0961 5.83592C84.6982 3.85712 89.4474 2.34193 94.383 1.40341C94.8466 1.31295 94.8466 1.31295 94.7788 1.78786C94.7562 1.90659 94.7449 2.03097 94.7223 2.1497C94.4961 3.23521 93.8968 4.10023 93.1392 4.87479C92.5682 5.45712 91.935 5.95465 91.2622 6.41825C91.0417 6.56525 90.8777 6.74617 90.906 7.02885C91.0191 8.14264 90.6403 9.10377 89.9788 9.98009C89.3965 10.749 88.6615 11.3483 87.8926 11.9193C87.559 12.1624 87.3611 12.4734 87.3498 12.9257C87.3216 14.6614 86.6601 16.1539 85.4671 17.4091C84.8792 18.031 84.1781 18.5059 83.3922 18.8395C82.7534 19.1108 82.4537 19.5631 82.4763 20.2472C82.482 20.4734 82.4537 20.7108 82.4028 20.937C82.0353 22.7518 81.0516 24.12 79.4007 24.985C79.1463 25.1151 78.9032 25.2621 78.6883 25.4486C78.2813 25.7992 78.1852 26.2967 78.0495 26.7716C77.9025 27.2918 77.7837 27.8232 77.518 28.3038C76.7435 29.7172 75.5901 30.7066 74.0749 31.2607C73.617 31.4303 73.2608 31.6677 73.1251 32.1992C72.9329 32.9172 72.5371 33.5448 72.0848 34.1384C71.4516 34.9638 70.6375 35.5744 69.7272 36.072C69.1449 36.3886 68.7265 36.8409 68.5004 37.4854C68.2742 38.1469 67.918 38.7405 67.4261 39.2494C66.8495 39.8486 66.1428 40.2274 65.3625 40.4875C65.0855 40.578 64.865 40.725 64.7576 41.0077C64.4806 41.7653 64 42.3928 63.4742 42.9865C62.5131 44.0663 61.4163 45.0105 60.3647 45.9886C60.0989 46.2373 59.788 46.4409 59.6297 46.7857C59.6184 46.9723 59.6523 47.1702 59.8049 47.272C60.0537 47.4416 60.2403 47.6903 60.5004 47.8486C61.7781 48.6345 63.1067 49.3073 64.4862 49.8896C67.1661 51.026 69.959 51.7893 72.7972 52.3942C75.9293 53.0614 79.0954 53.5306 82.2445 54.1017C84.5512 54.5257 86.8523 54.9949 89.1081 55.6508C90.2276 55.9787 91.3357 56.3292 92.4155 56.7702C92.5512 56.7645 92.6756 56.8267 92.7943 56.8776C92.9753 56.9455 93.2466 56.985 93.2749 57.1603C93.2975 57.313 93.0431 57.426 92.9018 57.5391C90.4933 59.3992 87.7908 60.1568 84.7604 59.7214C84.4099 59.6706 84.0989 59.7158 83.7767 59.9306C82.4481 60.8183 80.9724 61.1914 79.3837 60.9709C78.858 60.8974 78.5357 61.0388 78.1739 61.4119C77.1279 62.4918 75.8219 62.9667 74.3067 62.8706C73.8827 62.8423 73.4813 62.7518 73.0799 62.6331C72.9442 62.5935 72.8198 62.5653 72.718 62.7009C72 63.6282 71.0049 64.1313 69.9025 64.4366C69.1336 64.6515 68.3477 64.8098 67.5449 64.7815C67.4092 64.7759 67.3131 64.8324 67.2113 64.9059C65.8431 65.8783 64.3562 66.5907 62.6488 66.6925C60.2629 66.8395 58.1993 66.0988 56.4975 64.4027C55.5364 63.4416 54.7336 62.3561 53.9364 61.2649C52.8226 59.7441 51.8841 58.1271 51.3413 56.3066C51.2792 56.0974 51.2339 55.8769 51.1208 55.6847C50.9852 55.4585 50.8099 55.3568 50.5442 55.4133C49.73 55.5829 48.9046 55.6677 48.0792 55.6847C46.4396 55.7186 44.8283 55.5038 43.2565 55.0232C39.4403 53.8698 36.5117 51.5462 34.2954 48.2727C33.0346 46.4069 32.2601 44.3377 31.6777 42.1836C30.5413 37.9999 29.1788 33.8953 27.2848 29.9829C25.7244 26.7546 23.8473 23.7243 21.518 20.9766C21.0996 20.4734 20.6926 19.9589 20.2799 19.4557Z" fill="#12100B"/>
<path d="M92.4101 56.7643C91.3302 56.3233 90.2221 55.9672 89.1026 55.6449C86.8468 54.9891 84.5514 54.5141 82.239 54.0958C79.0899 53.5191 75.9238 53.0555 72.7917 52.3884C69.9535 51.7834 67.1606 51.0202 64.4807 49.8838C63.1012 49.3014 61.7726 48.623 60.4949 47.8428C60.2348 47.6845 60.0539 47.4414 59.7995 47.2661C59.6525 47.1643 59.6129 46.9664 59.6242 46.7799C59.0928 46.4406 58.5613 46.1071 58.0412 45.7509C57.1253 45.129 56.2207 44.4845 55.3839 43.7551C55.2087 43.6194 55.039 43.4781 54.8638 43.3424C54.3493 42.941 53.9026 42.4491 53.3599 42.0816C52.9698 42.2965 52.5853 42.517 52.1952 42.7375C52.1783 42.7431 52.1613 42.7544 52.1443 42.7601C52.1556 42.7431 52.1613 42.7318 52.1726 42.7149C52.2065 42.6753 52.2348 42.63 52.2744 42.6018C52.7606 42.1778 53.2525 41.7594 53.7443 41.3354C53.75 41.3071 53.75 41.2788 53.7896 41.2845L53.7839 41.2901C53.9196 40.917 54.0666 40.5495 54.191 40.1707C54.4228 39.4753 54.6433 38.7742 54.6998 38.0336C54.321 38.2371 54.027 38.5424 53.7048 38.8195C53.603 38.9043 53.5182 39.0117 53.3769 39.0626C53.3542 38.9608 53.4164 38.9212 53.4503 38.876C53.767 38.4576 54.1175 38.0675 54.4793 37.6887C55.22 36.9085 56.0397 36.2131 56.82 35.4725C57.2496 34.4265 57.4306 33.3467 57.2609 32.2216C57.244 32.1028 57.2836 32.0237 57.3627 31.9389C57.5323 31.7467 57.6906 31.5431 57.8489 31.3396C57.244 31.6449 56.7012 32.052 56.1585 32.4477C55.4913 32.9339 54.8468 33.4484 54.191 33.9516C54.1627 34.0025 54.1344 34.0534 54.0553 34.0364C54.0553 34.076 54.0327 34.0873 53.9988 34.0873C53.9988 34.1212 53.9818 34.1382 53.9479 34.1382C53.9422 34.1438 53.9366 34.1495 53.9309 34.1551C53.9366 34.1495 53.9422 34.1438 53.9535 34.1382C53.9705 34.1212 53.9875 34.1043 54.0101 34.0873C54.027 34.0703 54.044 34.0534 54.0609 34.0308C54.0949 33.9912 54.1231 33.9516 54.1571 33.9177C54.6998 33.1997 55.3387 32.5664 55.9776 31.9389C56.8652 31.0682 57.8376 30.2823 58.8383 29.5417C58.8383 29.5134 58.844 29.4908 58.8836 29.4908L58.8779 29.4965C58.9344 29.2308 58.9966 28.965 59.0532 28.6937C59.2228 27.8965 59.3246 27.0993 59.0079 26.3078C58.9853 26.2513 59.0023 26.206 59.0419 26.1608C58.9627 26.1947 58.8779 26.223 58.7988 26.2682C58.0977 26.6696 57.3966 27.071 56.6956 27.4725C56.6673 27.512 56.6334 27.529 56.5825 27.5177C56.5825 27.546 56.5712 27.5686 56.5373 27.5403C56.5486 27.529 56.5599 27.5233 56.5712 27.512C56.5995 27.4838 56.6277 27.4611 56.6617 27.4329C56.7182 27.3707 56.7747 27.2972 56.8426 27.2407C58.0807 26.1608 59.3867 25.1657 60.7832 24.2894C60.8906 24.2216 60.9924 24.1594 61.0659 24.0576L61.1281 24.0407H61.1224C61.1055 23.9276 61.1959 23.8654 61.2468 23.7919C61.9818 22.7233 62.485 21.5643 62.6602 20.2696C62.5811 20.3092 62.5019 20.3488 62.4228 20.3884C61.5973 20.8067 60.8171 21.3043 60.0143 21.7566C60.003 21.7679 59.9804 21.7905 59.9747 21.7848C59.9352 21.7566 59.9691 21.7452 59.986 21.7283C60.3366 21.3382 60.7606 21.0272 61.162 20.6937C62.3662 19.6873 63.7062 18.8732 65.0065 18.0138C65.0461 17.9799 65.0744 17.929 65.1422 17.9573H65.1366C65.1366 17.8329 65.2553 17.8103 65.3231 17.7537C69.015 14.8195 72.7804 11.9869 76.7776 9.47104C77.88 8.78129 78.9825 8.09719 80.1302 7.49224C80.1585 7.46963 80.1811 7.44701 80.215 7.43005C82.7705 6.00532 85.3995 4.74454 88.1415 3.72122C90.3012 2.91274 92.5062 2.25125 94.7733 1.78199C94.8412 1.31274 94.8412 1.31274 94.3776 1.39754C89.4475 2.34171 84.6927 3.85691 80.085 5.8244C75.0475 7.97846 70.2984 10.647 65.7698 13.717C62.9147 15.6505 60.1726 17.7368 57.5267 19.953C55.1465 21.9431 52.8567 24.0237 50.6291 26.1778C49.1875 27.5686 47.7797 28.999 46.4002 30.4463C46.1118 30.7516 45.5973 30.7912 45.2355 30.5368C42.6574 28.7502 40.786 26.3926 39.4913 23.5544C38.9769 22.4237 38.4567 21.2929 37.7896 20.2357C36.5401 18.2569 34.7026 17.1318 32.4581 16.6173C31.0504 16.2951 29.6256 16.2725 28.1839 16.3799C26.9684 16.4703 25.8037 16.7869 24.6164 17.0074C24.3111 17.064 24.0002 17.1092 23.6949 17.1544C24.4638 17.5163 25.1988 17.929 25.8602 18.4604C25.9677 18.5452 26.0468 18.5113 26.1429 18.4548C26.6178 18.1947 26.9966 17.8103 27.4263 17.4993C28.9528 16.4081 30.9034 16.8096 31.8701 18.3982C32.0454 18.6922 32.2546 18.9467 32.6277 19.0202C32.8087 19.0597 32.9839 19.1332 33.1592 19.2011C34.3691 19.6534 35.285 20.4788 36.0539 21.4852C36.6193 22.2315 37.1168 23.0173 37.5069 23.8654H37.5012C37.5578 23.8823 37.5578 23.9389 37.5804 23.9728C37.8348 24.2159 38.1005 24.4534 38.3493 24.7078C39.22 25.6067 39.9323 26.6187 40.5147 27.7212C40.786 28.2357 41.0857 28.7389 41.2496 29.3043C41.2836 29.3043 41.2949 29.3212 41.2666 29.3495C41.2553 29.3382 41.2496 29.3269 41.2383 29.3156C41.1931 29.276 41.1422 29.2421 41.097 29.1968C40.3677 28.4279 39.627 27.6703 38.8355 26.9693C37.6878 25.9573 36.4101 25.1375 35.0871 24.3742C34.8101 24.2159 34.5274 24.1198 34.2164 24.0689C33.668 23.9785 33.114 24.0576 32.5655 23.9785C31.4631 23.8202 30.4284 23.5092 29.5125 22.859C29.162 22.8703 28.8171 22.8195 28.4553 22.729C28.5627 23.0004 28.8228 23.1248 28.885 23.3792C28.9359 23.3622 28.9585 23.3792 28.9415 23.4357C28.9981 23.4187 29.0037 23.447 28.9981 23.4922C29.0489 23.4809 29.0659 23.4979 29.0546 23.5488C29.1055 23.5375 29.1224 23.5544 29.1111 23.6053C29.162 23.594 29.179 23.611 29.1677 23.6619C29.2186 23.6505 29.2355 23.6675 29.2242 23.7184C29.2751 23.7071 29.292 23.724 29.2807 23.7749C29.3316 23.7636 29.3486 23.7806 29.3373 23.8315H29.3316C29.3882 23.8089 29.4164 23.8484 29.4447 23.888C29.9083 24.2216 30.2814 24.6513 30.6885 25.047C31.5422 25.8725 32.5373 26.5113 33.5606 27.105C33.5776 27.1219 33.6002 27.1332 33.6171 27.1502L33.6115 27.1445C34.6292 27.6816 35.6638 28.1792 36.6645 28.7558C36.6814 28.7728 36.7041 28.7841 36.721 28.8011C36.8737 28.8293 36.9867 28.9368 37.1224 29.0046C38.2532 29.5869 39.056 30.4407 39.3726 31.7014C39.4009 31.8145 39.4744 31.8767 39.5705 31.9332C40.0567 32.2103 40.4581 32.5834 40.786 33.0357C41.5097 34.0477 41.7472 35.1785 41.6454 36.394C41.6341 36.5354 41.6511 36.6371 41.7754 36.7389C43.2624 37.9657 43.7825 39.5488 43.4885 41.4258C43.3302 42.4209 42.8836 43.2972 42.3012 44.1057C42.2334 44.2018 42.1373 44.2809 42.3069 44.3997C42.8666 44.7954 43.3641 45.2647 43.8334 45.7735C45.9818 48.1085 47.186 50.8449 47.4518 54.0053C47.4744 54.305 47.4235 54.6272 47.6101 54.9043C47.7797 54.9947 47.9606 54.9495 48.1359 54.9551C49.2044 54.9834 50.273 54.9325 51.3359 54.8421C51.562 54.8251 51.7712 54.859 51.8786 55.0852C52.167 55.6732 52.4666 56.2611 52.7323 56.8604C53.292 58.1099 53.8405 59.3594 54.6037 60.5071C55.4574 61.7905 56.4468 62.9495 57.7698 63.7806C58.3182 64.1255 58.8836 64.4477 59.5337 64.5834C60.8737 63.7919 61.8405 62.6668 62.5472 61.2986C62.5246 61.259 62.5076 61.2138 62.4793 61.1912C61.1055 60.0322 59.6581 58.9749 58.1034 58.0647C57.4984 57.7141 56.8822 57.3806 56.2715 57.0414C56.2489 57.0357 56.2207 57.03 56.1981 57.0244C56.2037 57.0131 56.2207 56.9961 56.2207 56.9961C56.2376 57.0074 56.2602 57.0244 56.2772 57.0357C56.379 57.0131 56.4694 57.0583 56.5599 57.0866C58.2673 57.618 59.873 58.3587 61.3995 59.2915C62.2249 59.8004 62.9995 60.3884 63.7571 60.982C64.673 61.0385 65.5662 60.9481 66.4426 60.671C67.1041 60.4618 67.7599 60.2244 68.2744 59.7325C68.4836 59.5346 68.6362 59.3141 68.5684 59.0032C68.4723 58.8279 68.3309 58.6922 68.167 58.5848C66.8666 57.7707 65.5267 57.0187 64.1246 56.3799C63.5761 56.1311 63.0277 55.8823 62.485 55.6392C62.4624 55.6336 62.4341 55.6336 62.4115 55.6279C62.4171 55.6166 62.4228 55.611 62.4284 55.5997C62.4454 55.611 62.4624 55.6279 62.4793 55.6392C62.5698 55.6449 62.6602 55.6449 62.745 55.6618C63.9267 55.9332 65.0744 56.3007 66.2108 56.7134C67.432 57.1601 68.5514 57.8385 69.7613 58.3134C71.2878 58.5057 72.7182 58.223 74.0412 57.4371C73.9959 57.3919 73.9564 57.3467 73.9111 57.3071C72.5034 56.2838 71.0164 55.4018 69.4108 54.7233C69.1959 54.6329 68.9811 54.5368 68.7719 54.4463C68.8397 54.4124 68.8906 54.4067 68.9415 54.418C70.4058 54.7516 71.8079 55.2435 73.1479 55.9163C73.7302 56.2103 74.2786 56.5551 74.844 56.8661C74.9571 56.8322 75.0532 56.9 75.1493 56.9339C76.1952 57.2845 77.2638 57.3862 78.3606 57.2449C79.3952 57.1092 80.3394 56.7417 81.2214 56.1933C81.1988 56.1198 81.1309 56.0859 81.0744 56.0463C80.1811 55.4074 79.2539 54.8308 78.2871 54.3163C78.0609 54.1975 77.8405 54.0788 77.6143 53.9544C78.1344 54.0392 78.615 54.2202 79.0956 54.4011C80.2942 54.8647 81.4136 55.4866 82.5048 56.1594C82.55 56.1594 82.5952 56.1707 82.6178 56.2103H82.6122C82.6461 56.2159 82.6857 56.2103 82.6687 56.2668C82.7931 56.2272 82.8949 56.3007 82.9966 56.3403C83.709 56.6173 84.4327 56.8491 85.162 57.0753C85.9422 57.3184 86.7394 57.4767 87.5196 57.7028C88.4977 57.6915 89.4701 57.6802 90.4313 57.4937C91.1154 57.3693 91.8108 57.1827 92.4101 56.7643ZM53.2581 39.1982C53.2525 39.2152 53.2581 39.2604 53.2185 39.2152C53.2299 39.2152 53.2468 39.2096 53.2581 39.1982L53.292 39.1304C53.309 39.1191 53.326 39.1078 53.3429 39.1021C53.3599 39.1361 53.3373 39.1474 53.3147 39.1587C53.2977 39.17 53.2751 39.1869 53.2581 39.1982ZM65.0348 52.4732C64.6447 52.541 64.3168 52.5184 63.9889 52.5071C62.7564 52.4732 61.5691 52.2357 60.4101 51.8399C60.1783 51.7608 60.02 51.8004 59.8786 51.9982C59.8108 52.1 59.7203 52.1905 59.6242 52.2753C58.6574 53.1177 57.5097 53.2364 56.362 52.6032C56.1189 52.4675 55.9606 52.5071 55.8362 52.7502C55.7514 52.9085 55.6383 53.0442 55.5083 53.1686C54.7337 53.8753 53.5352 53.5304 53.2807 52.7728C53.1564 52.411 52.9189 52.0831 52.7097 51.7495C51.5733 49.9686 50.0694 48.5382 48.379 47.2944C48.2602 47.2096 48.1867 47.1417 48.2433 46.9721C48.5033 46.1806 48.5995 45.3608 48.5542 44.5297C48.4807 43.2067 47.9776 42.0873 46.926 41.2449C46.3041 41.0979 46.485 40.6456 46.5302 40.2329C46.7394 38.1184 46.0892 36.3827 44.2574 35.1785C44.1048 35.0767 44.1217 35.0258 44.2235 34.9071C45.9761 32.8717 47.7344 30.8364 49.6737 28.9707C51.3472 27.3594 53.1337 25.9007 55.1012 24.6569C55.1521 24.623 55.1973 24.5778 55.2878 24.606C55.2313 25.2675 55.1295 25.9177 54.9373 26.5566C54.3097 28.705 53.1224 30.4802 51.3302 31.8371C51.1154 32.0011 51.0249 32.1933 51.0532 32.476C51.1662 33.7255 50.8214 34.8336 49.9224 35.7382C49.5549 36.1113 49.538 36.2922 49.798 36.7445C50.3521 37.717 50.55 38.7573 50.1203 39.8145C49.9168 40.3177 49.8998 40.7134 50.1486 41.2166C50.6065 42.1438 50.714 43.1502 50.6461 44.1792C50.6405 44.2922 50.6235 44.394 50.7705 44.4619C52.3026 45.146 53.6369 46.1523 55.0277 47.0626C56.2998 47.8937 57.5719 48.7361 58.8101 49.618C60.6758 50.941 62.7564 51.8569 65.0348 52.4732ZM68.591 54.3898C68.5966 54.3841 68.6079 54.3728 68.6136 54.3728C68.6306 54.3728 68.6419 54.3841 68.6588 54.3841C68.6532 54.3898 68.6475 54.4011 68.6419 54.4011C68.6193 54.4011 68.6023 54.3954 68.591 54.3898ZM52.0595 42.8166L52.0482 42.8053H52.0652L52.0595 42.8166ZM59.856 21.8301C59.8617 21.8244 59.8617 21.8187 59.8673 21.8187C59.873 21.8187 59.8786 21.8244 59.8843 21.8301C59.8786 21.8357 59.873 21.8414 59.8673 21.8414C59.8673 21.8414 59.8617 21.8301 59.856 21.8301Z" fill="#A01E53"/>
<path d="M56.6957 27.4727C57.3968 27.0713 58.0978 26.6642 58.7989 26.2628C58.878 26.2176 58.9572 26.1893 59.042 26.1554C59.3529 25.9292 59.7091 25.7766 60.0484 25.607C62.6943 24.2953 65.459 23.3002 68.3367 22.6161C68.6872 22.5313 69.0264 22.4183 69.4109 22.3957C69.3261 22.6953 69.2017 22.9497 69.066 23.1985C68.642 23.9561 68.1162 24.6289 67.5112 25.2508C67.3303 25.4373 67.1664 25.5787 66.9063 25.6465C64.7862 26.2176 62.7961 27.0882 60.9021 28.1907C60.2123 28.5921 59.5621 29.0614 58.878 29.4797L58.8837 29.4741C58.8667 29.4911 58.8554 29.508 58.8385 29.5193C57.8377 30.2656 56.871 31.0458 55.9833 31.9165C55.3445 32.5441 54.7056 33.1716 54.1628 33.8953C54.1741 33.9066 54.1911 33.9179 54.2024 33.9292C54.8582 33.426 55.5028 32.9116 56.1699 32.4253C56.7127 32.0296 57.2554 31.6225 57.8604 31.3172C57.9169 31.272 57.9678 31.2211 58.0243 31.1815C58.7537 30.7405 59.4999 30.3222 60.2632 29.9377C61.948 29.084 63.7063 28.3999 65.5098 27.8515C65.7303 27.7836 65.9508 27.6932 66.2052 27.6762C65.9395 28.7335 65.5381 29.7059 64.871 30.5426C64.4469 31.0741 64.0455 31.6508 63.2427 31.6225C63.237 31.6225 63.2257 31.6282 63.2201 31.6282C61.3883 32.0522 59.8448 33.0133 58.3918 34.1554C57.8604 34.5681 57.3515 35.0147 56.8314 35.4444C56.0512 36.185 55.2314 36.8805 54.4908 37.6607C54.1289 38.0395 53.7784 38.4296 53.4618 38.8479C53.4279 38.8932 53.3713 38.9328 53.3883 39.0345C53.5296 38.9836 53.6144 38.8819 53.7162 38.7914C54.0385 38.5144 54.3325 38.2091 54.7113 38.0055H54.7056C54.7508 37.9094 54.813 37.8529 54.9204 37.8416H54.9148C54.9317 37.785 54.9657 37.7624 55.0279 37.785H55.0222C55.0165 37.7398 55.0392 37.7285 55.0787 37.7285L55.0731 37.7342C55.0731 37.6833 55.107 37.6776 55.1466 37.6776C55.2597 37.5815 55.3671 37.4684 55.4915 37.3836C56.7409 36.496 58.0074 35.6423 59.319 34.8451C60.2293 34.2967 61.1734 33.8218 62.1798 33.4713C62.2703 33.4373 62.4455 33.3186 62.389 33.59C62.1063 35.0487 61.3826 36.2529 60.2802 37.2366C60.0766 37.4232 59.8787 37.6211 59.5791 37.7002C58.0809 38.113 56.7522 38.8536 55.548 39.826C54.96 40.301 54.372 40.7702 53.784 41.2395L53.7897 41.2338L53.7445 41.2847C53.2526 41.7031 52.7664 42.1271 52.2745 42.5455C52.2349 42.5794 52.2067 42.6246 52.1727 42.6642C52.1784 42.6699 52.1897 42.6812 52.1953 42.6868C52.5855 42.4663 52.9699 42.2515 53.36 42.031C54.0667 41.59 54.7678 41.1377 55.4802 40.7024C56.3565 40.1596 57.2441 39.6338 58.2165 39.2663C58.2787 39.2437 58.3522 39.1759 58.4144 39.2267C58.4879 39.2889 58.4314 39.3737 58.4144 39.4472C58.3296 39.8091 58.1996 40.1596 58.0469 40.4988C57.4476 41.7992 56.5204 42.8338 55.3953 43.7045C56.2378 44.4282 57.1367 45.0727 58.0582 45.7002C58.5784 46.0564 59.1155 46.3843 59.6413 46.7292C59.8052 46.3843 60.1162 46.1808 60.3819 45.932C61.4392 44.9483 62.5303 44.0041 63.4915 42.9299C64.0229 42.3363 64.4978 41.7087 64.7749 40.9511C64.8823 40.6684 65.1028 40.5271 65.3798 40.431C66.1544 40.1709 66.8667 39.7921 67.4434 39.1928C67.9353 38.684 68.2915 38.0903 68.5176 37.4289C68.7381 36.7843 69.1621 36.332 69.7445 36.0154C70.6547 35.5179 71.4632 34.9073 72.1021 34.0819C72.5544 33.4939 72.9501 32.8607 73.1423 32.1426C73.2837 31.6112 73.6342 31.3737 74.0922 31.2041C75.613 30.6444 76.7607 29.6607 77.5353 28.2472C77.7953 27.7667 77.9141 27.2352 78.0667 26.7151C78.2024 26.2402 78.3042 25.7426 78.7056 25.3921C78.9261 25.2055 79.1692 25.0642 79.418 24.9285C81.0745 24.0578 82.0526 22.6896 82.4201 20.8805C82.4653 20.6543 82.4992 20.4225 82.4879 20.1907C82.4653 19.501 82.765 19.0487 83.4038 18.7829C84.1897 18.4494 84.8908 17.9745 85.4787 17.3525C86.666 16.0918 87.3275 14.6048 87.3614 12.8692C87.3671 12.4169 87.5706 12.1116 87.9042 11.8628C88.6731 11.2918 89.4081 10.6925 89.9904 9.92357C90.6519 9.0529 91.0307 8.09177 90.9176 6.97233C90.8893 6.68965 91.0533 6.50873 91.2738 6.36173C91.9409 5.90378 92.5798 5.4006 93.1508 4.81827C93.9084 4.04371 94.5134 3.17869 94.7339 2.09318C94.7508 2.03099 94.7565 1.90661 94.7734 1.78223C92.512 2.24583 90.307 2.90731 88.1416 3.7158C85.3996 4.73912 82.7706 5.99989 80.2151 7.42463C80.1869 7.44159 80.1586 7.4642 80.1303 7.48682C80.1982 7.56032 80.1756 7.65643 80.1812 7.74124C80.2604 8.84371 79.9042 9.83876 79.4462 10.8112C78.8922 11.9759 78.0498 12.9257 77.0999 13.7851C76.9643 13.9094 76.8116 14.0112 76.6194 14.0564C74.2561 14.5483 71.9042 15.1024 69.6257 15.9222C68.184 16.4423 66.8045 17.0981 65.4476 17.8105C65.3459 17.8614 65.2611 17.9518 65.1367 17.9575H65.1423C65.1141 18.014 65.0632 18.014 65.0123 18.014C63.7063 18.8734 62.3664 19.6875 61.1678 20.6939C60.7664 21.0275 60.3423 21.3384 59.9918 21.7285C59.9975 21.7398 60.0088 21.7455 60.0201 21.7568C60.8229 21.3045 61.6031 20.807 62.4286 20.3886C62.5077 20.349 62.5869 20.3094 62.666 20.2699C66.0809 18.4776 69.7219 17.3808 73.5211 16.7306C73.5098 16.7815 73.5098 16.8098 73.4985 16.8324C72.9332 18.0762 72.0964 19.1108 71.0448 19.9759C70.9374 20.0663 70.8243 20.1511 70.6773 20.1794C69.9028 20.3377 69.1395 20.5469 68.3819 20.773C66.3466 21.3836 64.4074 22.2317 62.5416 23.2381C62.0667 23.4981 61.5975 23.7638 61.1282 24.0296H61.1339C61.1226 24.0691 61.0999 24.0691 61.0717 24.0465C60.9982 24.1483 60.8908 24.2161 60.789 24.2783C59.3925 25.1547 58.0922 26.1497 56.8484 27.2296C56.7805 27.2861 56.7296 27.3596 56.6674 27.4218C56.6731 27.4444 56.6844 27.4557 56.6957 27.4727Z" fill="#CBA25B"/>
<path d="M69.7449 58.319C68.5351 57.8498 67.4213 57.1657 66.1944 56.719C65.058 56.3006 63.9103 55.9332 62.7287 55.6674C62.6439 55.6505 62.5534 55.6505 62.463 55.6448L62.4686 55.6392C63.017 55.8879 63.5654 56.131 64.1082 56.3798C65.5103 57.0187 66.8446 57.765 68.1506 58.5847C68.3146 58.6865 68.4559 58.8222 68.552 58.9975C68.6199 58.9975 68.6707 59.0314 68.716 59.071C69.417 59.6476 70.1124 60.2243 70.8248 60.784C70.9831 60.9084 70.9548 60.9932 70.8531 61.1233C70.1859 61.96 69.304 62.3388 68.2524 62.3614C67.6191 62.3727 66.9972 62.2427 66.3697 62.1692C65.9061 62.1183 65.4481 61.96 64.9676 62.0674C64.8941 62.0844 64.8488 62.0448 64.8036 61.9996C64.4474 61.6547 64.0912 61.3042 63.7351 60.9593C62.9718 60.36 62.2029 59.772 61.3775 59.2688C59.8566 58.336 58.2453 57.5953 56.5435 57.0639C56.4531 57.0356 56.3626 56.9904 56.2608 57.013L56.2552 57.0187C56.8658 57.3579 57.482 57.6858 58.087 58.042C59.6418 58.9466 61.0835 60.0095 62.463 61.1685C62.4969 61.1968 62.5082 61.242 62.5308 61.2759C63.1075 61.666 63.5881 62.1692 64.1082 62.6215C64.2156 62.712 64.1534 62.7911 64.1025 62.8759C63.8481 63.3508 63.4863 63.7466 63.0905 64.1028C62.1181 64.9847 60.682 65.1657 59.5174 64.5494C58.8729 64.4137 58.3075 64.0915 57.7534 63.7466C56.4305 62.9155 55.4411 61.7621 54.5874 60.4731C53.8298 59.3254 53.2757 58.0759 52.716 56.8264C52.4502 56.2271 52.1506 55.6392 51.8623 55.0512C51.7492 54.825 51.54 54.7911 51.3139 54.8081C50.251 54.8985 49.1824 54.9494 48.1139 54.9211C47.9386 54.9155 47.7577 54.9607 47.5881 54.8703C46.9435 54.9042 46.3103 54.8024 45.6771 54.7176C44.111 54.5028 42.6015 54.0787 41.1711 53.4003C40.9902 53.3155 40.8771 53.2137 40.8771 53.0045C39.3845 52.3544 38.1124 51.3989 37.0269 50.1946C36.9478 50.1042 36.9252 50.0137 36.9478 49.878C37.1004 49.0356 37.14 48.1819 37.0156 47.3339C36.7499 45.519 36.0262 43.919 34.7146 42.6017C34.6071 42.4943 34.5732 42.4095 34.6298 42.2568C34.9124 41.4936 35.0029 40.7021 34.952 39.8823C34.8672 38.548 34.4206 37.3551 33.6517 36.2752C33.5612 36.1452 33.5669 36.0717 33.646 35.9529C34.6298 34.4943 34.6411 32.9847 33.8835 31.4413C33.8213 31.3112 33.8156 31.2321 33.8948 31.1077C34.6185 30.0165 34.6693 28.8915 34.0305 27.7438C33.9061 27.5176 33.6912 27.3593 33.6008 27.1105L33.6121 27.1388C33.5951 27.1218 33.5725 27.1105 33.5556 27.0936C32.5322 26.4999 31.5372 25.8667 30.6835 25.0356C30.2764 24.6399 29.9033 24.2102 29.4396 23.8766C29.3944 23.8766 29.3492 23.871 29.3266 23.8201H29.3322L29.2757 23.7635C29.2587 23.7466 29.2361 23.7296 29.2192 23.707C29.2022 23.69 29.1852 23.6731 29.1626 23.6505C29.1457 23.6335 29.123 23.6109 29.1061 23.5939L29.0495 23.5374L28.993 23.4809C28.9761 23.4639 28.9534 23.4413 28.9365 23.4243C28.9195 23.4074 28.8969 23.3904 28.8799 23.3678C28.7838 23.3734 28.7329 23.3056 28.6821 23.2491C28.0319 22.5141 27.1838 22.0052 26.5167 21.2816C26.0022 20.7275 25.3633 20.2809 24.7753 19.8003C24.2778 19.3932 23.7746 19.0088 23.2319 18.6582C23.1527 18.6074 23.0905 18.5339 22.9888 18.6582C22.4177 19.3706 21.6432 19.5572 20.7725 19.4837C20.5972 19.4667 20.422 19.4441 20.2467 19.4271C20.6651 19.936 21.0722 20.4448 21.4962 20.948C23.8255 23.69 25.6969 26.7261 27.2573 29.9544C29.1513 33.8667 30.5139 37.9713 31.6502 42.1551C32.2326 44.3035 33.0071 46.3784 34.2679 48.2441C36.4842 51.5176 39.4128 53.8413 43.229 54.9946C44.8008 55.4695 46.4121 55.69 48.0517 55.6561C48.8771 55.6392 49.7025 55.5487 50.5167 55.3791C50.7824 55.3226 50.9577 55.4243 51.0934 55.6505C51.2064 55.8427 51.2517 56.0632 51.3139 56.2724C51.8566 58.0929 52.7951 59.7042 53.9089 61.2307C54.7061 62.3218 55.5089 63.413 56.47 64.3685C58.1718 66.0646 60.2354 66.8052 62.6213 66.6582C64.3287 66.5508 65.81 65.8441 67.1838 64.8717C67.2912 64.7982 67.3817 64.7416 67.5174 64.7473C68.3259 64.7756 69.1117 64.6173 69.875 64.4024C70.9718 64.0971 71.9669 63.5939 72.6905 62.6667C72.7923 62.531 72.9223 62.565 73.0524 62.5989C73.4538 62.7176 73.8608 62.8081 74.2792 62.8363C75.7888 62.9268 77.0948 62.4519 78.1407 61.3777C78.5025 61.0045 78.8191 60.8632 79.3449 60.9367C80.9336 61.1572 82.4093 60.7784 83.7379 59.8964C84.0601 59.6816 84.3711 59.642 84.7216 59.6872C87.7464 60.1169 90.4545 59.365 92.863 57.5049C93.01 57.3918 93.2644 57.2787 93.2361 57.1261C93.2078 56.9508 92.9365 56.9169 92.7555 56.8434C92.6312 56.7925 92.5124 56.7303 92.3711 56.736C91.7718 57.1544 91.0764 57.3409 90.3697 57.4766C89.4085 57.6632 88.4305 57.6745 87.458 57.6858C87.1358 57.6915 86.8135 57.6802 86.4969 57.7141C85.9032 57.7706 85.3209 57.878 84.7216 57.8554C84.5633 57.8498 84.4502 57.8045 84.3485 57.6971C84.0884 57.4257 83.7888 57.2052 83.5117 56.9565C83.2234 56.7021 82.8729 56.5381 82.6128 56.2554C82.5958 56.2385 82.5732 56.2215 82.5563 56.1989L82.5619 56.2045C82.5167 56.2045 82.4714 56.1989 82.4488 56.1536C81.3577 55.4809 80.2382 54.859 79.0396 54.3953C78.5591 54.2088 78.0785 54.0279 77.5584 53.9487C77.7845 54.0674 78.005 54.1862 78.2312 54.3105C79.1979 54.825 80.1308 55.4017 81.0184 56.0406C81.075 56.0802 81.1428 56.1084 81.1654 56.1876C81.9909 56.6964 82.7089 57.3466 83.4439 57.9741C83.5739 58.0872 83.4835 58.1551 83.4043 58.2286C82.9237 58.6582 82.364 58.9409 81.7647 59.1501C80.651 59.5402 79.5032 59.5741 78.3442 59.4554C78.0163 59.4215 77.6941 59.4158 77.4396 59.1105C77.0326 58.6187 76.552 58.189 76.0375 57.8045C75.6248 57.4879 75.2008 57.177 74.7824 56.8604C74.2114 56.5494 73.663 56.2045 73.0863 55.9105C71.7464 55.2321 70.3386 54.7402 68.8799 54.4123C68.829 54.401 68.7782 54.4067 68.7103 54.4406C68.9252 54.531 69.1343 54.6271 69.3492 54.7176C70.9548 55.3961 72.4418 56.278 73.8495 57.3013C73.9004 57.3353 73.94 57.3862 73.9796 57.4314C73.9965 57.437 74.0135 57.437 74.0305 57.4483C74.9464 58.1155 75.7775 58.8731 76.6199 59.625C76.7273 59.7211 76.716 59.7833 76.5859 59.8286C76.5181 59.8512 76.4559 59.8794 76.3881 59.9077C75.1951 60.343 73.957 60.4844 72.6962 60.49C72.5661 60.49 72.4757 60.4448 72.3909 60.36C72.1082 60.0886 71.8029 59.8455 71.4919 59.6081C70.9435 59.1727 70.299 58.8052 69.7449 58.319Z" fill="#CBA25B"/>
<path d="M20.2738 19.4557C20.449 19.4726 20.6243 19.5009 20.7996 19.5122C21.6702 19.5857 22.4448 19.3991 23.0158 18.6868C23.1176 18.5624 23.1741 18.6359 23.2589 18.6868C23.796 19.0316 24.3049 19.4217 24.8024 19.8288C25.396 20.315 26.0349 20.756 26.5437 21.3101C27.2109 22.0338 28.0589 22.5426 28.7091 23.2776C28.76 23.3341 28.8165 23.402 28.907 23.3963C28.8448 23.1419 28.5847 23.0175 28.4773 22.7461C28.8448 22.8309 29.1897 22.8818 29.5345 22.8762C29.9699 22.8535 30.36 22.6783 30.7614 22.5313C31.355 22.3108 31.8299 21.9433 32.2314 21.4627C32.4971 21.1461 32.7628 20.8182 33.1303 20.6034C33.413 20.4394 33.6844 20.3998 33.9727 20.6147C34.6455 21.1122 35.2674 21.6719 35.878 22.2373C36.336 22.6557 36.7487 23.1249 37.1557 23.5942C37.2519 23.7073 37.331 23.8712 37.5176 23.8825C37.1218 23.0345 36.6299 22.2429 36.0646 21.5023C35.2957 20.4959 34.3798 19.6705 33.1699 19.2182C32.9946 19.1504 32.8193 19.0769 32.6384 19.0373C32.2709 18.9638 32.0617 18.7094 31.8808 18.4154C30.9084 16.8267 28.9635 16.4253 27.437 17.5164C27.0017 17.8274 26.6229 18.2119 26.1536 18.4719C26.0519 18.5285 25.9727 18.5624 25.8653 18.4776C25.1981 17.9461 24.4632 17.5391 23.6999 17.1716C22.9027 17.2733 22.1112 17.2168 21.3423 17.0246C19.2787 16.5101 17.2264 15.9673 15.1685 15.4528C13.054 14.927 10.9169 14.5143 8.75716 14.2147C7.11193 13.9885 5.4667 13.8359 3.81016 13.8189C3.18826 13.8133 2.5607 13.8189 1.93879 13.8189C1.93879 13.8415 1.93313 13.8698 1.93313 13.8924C2.44762 13.9885 2.95645 14.0903 3.47094 14.1694C6.13383 14.5822 8.76847 15.1306 11.3748 15.8203C13.4384 16.3687 15.4907 16.9398 17.4921 17.6917C18.4363 18.0479 19.2844 18.5624 20.0137 19.2578C20.0702 19.3143 20.1381 19.3596 20.2003 19.4104C20.2342 19.4048 20.2681 19.4161 20.2738 19.4557ZM27.1317 19.7327C27.1204 19.5235 27.1656 19.2974 27.2617 19.0882C27.8215 17.8726 29.4893 17.5221 30.5013 18.4097C31.1967 19.0203 31.3268 19.9871 30.8123 20.7108C30.3261 21.3892 29.3989 21.7228 28.5904 21.5023C27.6971 21.2705 27.1317 20.5864 27.1317 19.7327Z" fill="#FF9E18"/>
<path d="M20.2793 19.456C20.268 19.4164 20.2341 19.4051 20.2001 19.3994C20.2114 19.4333 20.2341 19.4616 20.2793 19.456Z" fill="#CBA25B"/>
<path d="M65.0352 52.4735C62.7511 51.8572 60.6705 50.9413 58.7991 49.607C57.561 48.7251 56.2889 47.8827 55.0168 47.0516C53.626 46.1413 52.286 45.1406 50.7595 44.4565C50.6125 44.3887 50.6239 44.2869 50.6352 44.1738C50.6973 43.1449 50.5956 42.1328 50.1376 41.2113C49.8889 40.7138 49.9058 40.318 50.1094 39.8092C50.539 38.7519 50.3412 37.7173 49.7871 36.7392C49.5327 36.2869 49.544 36.106 49.9171 35.7328C50.8161 34.8282 51.161 33.7201 51.0479 32.4707C51.0196 32.1823 51.1101 31.9957 51.3249 31.8318C53.1171 30.4749 54.3044 28.6996 54.9376 26.5512C55.1242 25.9123 55.2316 25.2565 55.2825 24.6007C55.192 24.5724 55.1468 24.6176 55.0959 24.6516C53.1341 25.8954 51.3419 27.354 49.6684 28.9653C47.7292 30.8311 45.9708 32.8664 44.2182 34.9017C44.1164 35.0205 44.0938 35.077 44.2521 35.1731C46.0896 36.3717 46.7341 38.1131 46.5249 40.2275C46.4853 40.6403 46.2988 41.0926 46.9207 41.2396C47.9666 42.0876 48.4754 43.2014 48.5489 44.5244C48.5942 45.3555 48.4981 46.1752 48.238 46.9668C48.1814 47.1364 48.2549 47.1986 48.3737 47.289C50.0641 48.5385 51.568 49.9632 52.7044 51.7441C52.9136 52.0721 53.1567 52.4 53.2754 52.7675C53.5299 53.5251 54.7284 53.8699 55.503 53.1632C55.633 53.0445 55.7461 52.9088 55.8309 52.7449C55.961 52.5017 56.1136 52.4678 56.3567 52.5979C57.5044 53.2254 58.6521 53.1123 59.6189 52.2699C59.715 52.1908 59.7998 52.0947 59.8677 51.9986C60.0034 51.8007 60.1617 51.7611 60.3991 51.8403C61.5581 52.236 62.7511 52.4678 63.9779 52.5074C64.3171 52.5187 64.6451 52.5413 65.0352 52.4735Z" fill="#12100B"/>
<path d="M40.8877 53.0275C40.8877 53.231 41.0008 53.3384 41.1817 53.4233C42.6121 54.1017 44.1216 54.5201 45.6877 54.7406C46.3209 54.8254 46.9541 54.9271 47.5986 54.8932C47.4121 54.6162 47.4686 54.2939 47.4403 53.9943C47.1746 50.8395 45.9704 48.0975 43.822 45.7625C43.3583 45.2593 42.8608 44.79 42.2955 44.3886C42.1258 44.2699 42.222 44.1907 42.2898 44.0946C42.8721 43.2862 43.3188 42.4098 43.4771 41.4148C43.7767 39.5434 43.2509 37.9547 41.764 36.7278C41.6396 36.6261 41.6227 36.5243 41.634 36.383C41.7357 35.1618 41.4983 34.031 40.7746 33.0247C40.4467 32.5724 40.0509 32.1992 39.5591 31.9222C39.4629 31.8657 39.3894 31.8035 39.3612 31.6904C39.0502 30.4296 38.2417 29.5816 37.111 28.9936C36.9753 28.9257 36.8622 28.8183 36.7096 28.79C36.7209 28.8522 36.7265 28.9144 36.7492 28.971C37.1562 29.8925 37.1167 30.7971 36.6135 31.6734C36.5456 31.7922 36.5796 31.86 36.6644 31.9222C37.1223 32.2727 37.3541 32.7703 37.5859 33.2678C37.8743 33.8784 38.0099 34.5342 37.9817 35.2013C37.9421 35.9307 37.7725 36.6374 37.3767 37.2706C37.3089 37.3837 37.3145 37.4628 37.3993 37.5759C37.8629 38.1922 38.2983 38.831 38.5866 39.5604C39.0163 40.6402 39.1181 41.7766 38.8071 42.8734C38.6318 43.501 38.9089 43.7837 39.2368 44.1455C39.2481 44.1568 39.2594 44.1681 39.2707 44.1851C40.0849 45.0953 40.6672 46.1243 40.9386 47.3173C41.2099 48.4989 41.3852 49.6805 41.2665 50.896C41.2043 51.6197 41.0969 52.3321 40.8877 53.0275Z" fill="#FF4713"/>
<path d="M40.8873 53.0276C41.0965 52.3322 41.2039 51.6142 41.2718 50.8905C41.3905 49.6749 41.2153 48.4933 40.9439 47.3117C40.6725 46.1131 40.0902 45.0841 39.276 44.1795C39.2647 44.1682 39.2534 44.1513 39.2421 44.1399C38.9142 43.7781 38.6372 43.4954 38.8124 42.8679C39.1234 41.771 39.0216 40.6346 38.5919 39.5548C38.3036 38.8311 37.8683 38.1922 37.4047 37.5703C37.3198 37.4573 37.3142 37.3781 37.382 37.265C37.7778 36.6318 37.9474 35.9251 37.987 35.1958C38.0209 34.523 37.8796 33.8728 37.5912 33.2622C37.3594 32.7647 37.1276 32.2615 36.6697 31.9166C36.5905 31.8544 36.5509 31.7922 36.6188 31.6679C37.122 30.7915 37.1559 29.8869 36.7545 28.9654C36.7319 28.9088 36.7262 28.8467 36.7149 28.7845C36.6979 28.7675 36.6753 28.7562 36.6584 28.7392C35.6633 28.1626 34.6287 27.6594 33.6054 27.1279C33.6958 27.371 33.9107 27.535 34.035 27.7611C34.6739 28.9145 34.6287 30.0339 33.8994 31.1251C33.8145 31.2495 33.8202 31.3286 33.888 31.4587C34.6456 33.0021 34.6343 34.5173 33.6506 35.9703C33.5658 36.0891 33.5658 36.1682 33.6562 36.2926C34.4251 37.3725 34.8718 38.5654 34.9566 39.8997C35.0075 40.7194 34.917 41.5053 34.6343 42.2742C34.5778 42.4269 34.6117 42.5117 34.7191 42.6191C36.0308 43.9308 36.7545 45.5364 37.0202 47.3513C37.1446 48.1993 37.105 49.053 36.9524 49.8954C36.9297 50.0255 36.9524 50.1216 37.0315 50.212C38.1227 51.4219 39.3948 52.3774 40.8873 53.0276Z" fill="#FF9E18"/>
<path d="M65.1367 17.9521C65.261 17.9465 65.3458 17.8617 65.4476 17.8051C66.8045 17.0928 68.184 16.4369 69.6257 15.9168C71.9042 15.097 74.2561 14.5429 76.6193 14.0511C76.8116 14.0115 76.9642 13.9041 77.0999 13.7797C78.0497 12.9203 78.8921 11.9761 79.4462 10.8058C79.9098 9.83904 80.2603 8.83834 80.1812 7.73586C80.1755 7.65106 80.1981 7.55494 80.1303 7.48145C78.9826 8.08639 77.8745 8.77049 76.7777 9.46024C72.7805 11.9705 69.0151 14.803 65.3232 17.7429C65.2554 17.8051 65.1423 17.8334 65.1367 17.9521Z" fill="#FF9E18"/>
<path d="M61.1227 24.0411C61.592 23.7754 62.0612 23.504 62.5361 23.2496C64.4018 22.2376 66.3411 21.3952 68.3764 20.7846C69.134 20.5584 69.8973 20.3493 70.6718 20.1909C70.8188 20.1627 70.9319 20.0722 71.0393 19.9874C72.0909 19.1167 72.922 18.0821 73.493 16.844C73.5043 16.8213 73.5043 16.7931 73.5156 16.7422C69.7163 17.3924 66.0753 18.4892 62.6605 20.2814C62.4909 21.5761 61.9877 22.7351 61.2471 23.8037C61.1962 23.8659 61.1057 23.9281 61.1227 24.0411Z" fill="#FF9E18"/>
<path d="M58.8722 29.4855C59.5507 29.0671 60.2008 28.5978 60.8962 28.1964C62.7902 27.0939 64.7803 26.2176 66.8948 25.6523C67.1549 25.5844 67.3245 25.4431 67.4998 25.2565C68.1047 24.6346 68.6362 23.9561 69.0545 23.2042C69.1959 22.9554 69.3146 22.701 69.3994 22.4014C69.0206 22.4296 68.6757 22.5427 68.3252 22.6219C65.4475 23.306 62.6828 24.301 60.0369 25.6127C59.6976 25.7823 59.3415 25.9349 59.0305 26.1611C58.9909 26.2007 58.974 26.2515 58.9966 26.3081C59.3188 27.0939 59.2114 27.8911 59.0418 28.6939C58.9966 28.9484 58.9344 29.2197 58.8722 29.4855Z" fill="#FF9E18"/>
<path d="M56.8254 35.4616C57.3455 35.0319 57.8543 34.5909 58.3858 34.1725C59.8388 33.0361 61.3823 32.0693 63.2141 31.6453C63.2197 31.6453 63.231 31.634 63.2367 31.6396C64.0395 31.6679 64.4409 31.0912 64.8649 30.5598C65.5377 29.7174 65.9335 28.7506 66.1992 27.6934C65.9505 27.7047 65.73 27.8008 65.5038 27.8686C63.6946 28.417 61.942 29.1011 60.2572 29.9548C59.4939 30.3393 58.7476 30.7577 58.0183 31.1987C57.9561 31.2326 57.9109 31.2891 57.8543 31.3343C57.696 31.5322 57.5377 31.7358 57.3681 31.9336C57.289 32.0184 57.2494 32.0976 57.2664 32.2163C57.436 33.3358 57.255 34.4156 56.8254 35.4616Z" fill="#FF9E18"/>
<path d="M37.5241 23.8767C37.3375 23.871 37.2583 23.7071 37.1622 23.5883C36.7551 23.1191 36.3424 22.6498 35.8845 22.2315C35.2739 21.6661 34.652 21.1064 33.9792 20.6088C33.6908 20.394 33.4138 20.4336 33.1368 20.5975C32.7693 20.8124 32.5036 21.1346 32.2378 21.4569C31.8364 21.9375 31.3615 22.305 30.7679 22.5254C30.3665 22.6724 29.9763 22.8421 29.541 22.8703C30.4569 23.5205 31.4915 23.8315 32.594 23.9898C33.1424 24.0689 33.6965 23.9898 34.2449 24.0802C34.5559 24.1311 34.8385 24.2272 35.1156 24.3855C36.4385 25.1488 37.7163 25.9629 38.864 26.9806C39.6555 27.6816 40.4018 28.4392 41.1255 29.2081C41.165 29.2534 41.2159 29.2873 41.2668 29.3269L41.2725 29.3212C41.1085 28.7558 40.8089 28.2527 40.5375 27.7382C39.9551 26.6357 39.2428 25.618 38.3721 24.7247C38.1233 24.4703 37.8576 24.2329 37.6032 23.9898C37.5467 23.9728 37.5127 23.9389 37.5241 23.8767Z" fill="#FF4713"/>
<path d="M53.789 41.2849C54.377 40.8156 54.9707 40.3464 55.553 39.8714C56.7572 38.899 58.0859 38.1584 59.5841 37.74C59.8837 37.6552 60.0816 37.4573 60.2852 37.2764C61.3876 36.2926 62.1113 35.0884 62.394 33.6297C62.4449 33.3584 62.2753 33.4828 62.1848 33.511C61.1784 33.8559 60.2343 34.3308 59.324 34.8849C58.0124 35.6764 56.7459 36.5358 55.4965 37.4234C55.3721 37.5082 55.2647 37.6213 55.1516 37.7174C55.129 37.7343 55.1007 37.757 55.0781 37.7739L55.0837 37.7683C55.0837 37.8022 55.0611 37.8191 55.0272 37.8248H55.0329C55.0102 37.8757 54.982 37.9096 54.9254 37.8813H54.9311C54.9141 38.0114 54.8463 38.0736 54.7163 38.0453H54.7219C54.6654 38.7859 54.4449 39.4813 54.2131 40.1824C54.0717 40.5386 53.9247 40.9117 53.789 41.2849Z" fill="#FF9E18"/>
<path d="M74.8267 56.8718C75.2451 57.1828 75.6634 57.4937 76.0818 57.8103C76.5907 58.2004 77.0712 58.6301 77.4839 59.1163C77.744 59.4273 78.0663 59.4273 78.3885 59.4612C79.5475 59.5799 80.6952 59.546 81.809 59.1559C82.4083 58.9467 82.968 58.664 83.4486 58.2343C83.5278 58.1609 83.6182 58.093 83.4882 57.9799C82.7532 57.358 82.0352 56.7022 81.2097 56.1934C80.3278 56.7361 79.3892 57.1093 78.3546 57.2449C77.2578 57.3863 76.1892 57.2845 75.1433 56.934C75.0302 56.9114 74.9398 56.8379 74.8267 56.8718Z" fill="#FF9E18"/>
<path d="M63.74 60.9768C64.0962 61.3217 64.4524 61.6722 64.8142 62.0171C64.8594 62.0623 64.899 62.1019 64.9782 62.0849C65.4531 61.9775 65.911 62.1302 66.3746 62.1867C67.0022 62.2602 67.6184 62.3902 68.2573 62.3733C69.3146 62.3507 70.1909 61.9719 70.858 61.1351C70.9598 61.0051 70.988 60.9203 70.8297 60.7959C70.1174 60.2305 69.422 59.6539 68.7209 59.0828C68.67 59.0433 68.6248 59.0037 68.557 59.0093C68.6248 59.3146 68.4665 59.5408 68.263 59.7387C67.7428 60.2305 67.0926 60.4623 66.4312 60.6772C65.5492 60.9429 64.6502 61.0334 63.74 60.9768Z" fill="#FF9E18"/>
<path d="M69.7441 58.3189C70.2981 58.8051 70.9427 59.1726 71.5306 59.6249C71.8416 59.8624 72.1525 60.1055 72.4296 60.3769C72.52 60.4617 72.6105 60.5069 72.7349 60.5069C73.9957 60.5012 75.2395 60.3599 76.4268 59.9246C76.4946 59.902 76.5568 59.8737 76.6246 59.8454C76.7547 59.7945 76.766 59.7323 76.6586 59.6419C75.8162 58.8899 74.9794 58.1323 74.0692 57.4652C74.0522 57.4539 74.0352 57.4539 74.0183 57.4482C72.701 58.2285 71.2706 58.5055 69.7441 58.3189Z" fill="#FF9E18"/>
<path d="M55.3897 43.755C56.5148 42.8843 57.442 41.8497 58.0469 40.5494C58.2052 40.2101 58.3352 39.8653 58.4144 39.4978C58.4314 39.4243 58.4879 39.3395 58.4144 39.2773C58.3522 39.2264 58.2787 39.2942 58.2165 39.3169C57.2441 39.6843 56.3621 40.2101 55.4858 40.7529C54.7734 41.1939 54.0724 41.6405 53.3656 42.0815C53.9084 42.449 54.355 42.9409 54.8695 43.3423C55.0391 43.478 55.2144 43.6193 55.3897 43.755Z" fill="#FF9E18"/>
<path d="M59.5163 64.5721C60.681 65.1884 62.117 65.0075 63.0894 64.1255C63.4852 63.7636 63.847 63.3735 64.1015 62.8986C64.1467 62.8138 64.2089 62.7347 64.1071 62.6386C63.587 62.1806 63.1064 61.6831 62.5297 61.293C61.823 62.6555 60.8562 63.7806 59.5163 64.5721Z" fill="#FF9E18"/>
<path d="M82.646 56.279C82.9117 56.5617 83.2566 56.7313 83.5449 56.98C83.8276 57.2288 84.1273 57.4493 84.3817 57.7207C84.4891 57.8281 84.6022 57.8733 84.7548 57.879C85.3541 57.9072 85.9421 57.7942 86.5301 57.7376C86.8467 57.7094 87.1689 57.7207 87.4912 57.7094C86.711 57.4832 85.9082 57.3249 85.128 57.0818C84.3986 56.8557 83.675 56.6182 82.9626 56.3468C82.8721 56.3129 82.7704 56.2394 82.646 56.279Z" fill="#FF9E18"/>
<path d="M54.1567 33.9062C54.1228 33.9458 54.0945 33.9854 54.0606 34.0193C54.1341 34.0419 54.168 33.9911 54.1963 33.9345C54.185 33.9289 54.168 33.9176 54.1567 33.9062Z" fill="#CBA25B"/>
<path d="M56.2549 57.0249C56.2379 57.0136 56.221 56.9967 56.1983 56.9854C56.1983 56.9854 56.1814 57.0023 56.1757 57.0136C56.204 57.0193 56.2266 57.0249 56.2549 57.0249Z" fill="#CBA25B"/>
<path d="M29.3254 23.8262C29.348 23.8771 29.3876 23.8827 29.4385 23.8827C29.4102 23.8432 29.3876 23.7979 29.3254 23.8262Z" fill="#FF9E18"/>
<path d="M37.5185 23.877C37.5129 23.9391 37.5411 23.9731 37.5977 23.9844C37.5807 23.9505 37.5807 23.8939 37.5185 23.877Z" fill="#FF9E18"/>
<path d="M65.0067 18.0079C65.0576 18.0079 65.1141 18.0079 65.1367 17.9514C65.0802 17.9288 65.0463 17.974 65.0067 18.0079Z" fill="#FF9E18"/>
<path d="M82.4817 56.1768C82.5099 56.222 82.5495 56.2276 82.5947 56.2276C82.5665 56.1881 82.5269 56.1768 82.4817 56.1768Z" fill="#FF9E18"/>
<path d="M56.6614 27.4326C56.6331 27.4609 56.6048 27.4835 56.5766 27.5118L56.5822 27.5174C56.6331 27.5287 56.667 27.5118 56.6953 27.4722C56.684 27.4552 56.6727 27.4439 56.6614 27.4326Z" fill="#CBA25B"/>
<path d="M62.4619 55.645C62.445 55.6337 62.428 55.6168 62.411 55.6055C62.4054 55.6168 62.3997 55.6224 62.3941 55.6337C62.4167 55.6337 62.445 55.6337 62.4619 55.645Z" fill="#CBA25B"/>
<path d="M68.5911 54.39C68.6081 54.3957 68.6251 54.4013 68.6364 54.4013C68.642 54.4013 68.6477 54.39 68.6533 54.3844C68.6364 54.3787 68.6251 54.373 68.6081 54.373C68.6024 54.373 68.5968 54.3844 68.5911 54.39Z" fill="#CBA25B"/>
<path d="M58.8327 29.5305C58.8497 29.5135 58.861 29.4966 58.8779 29.4852C58.8384 29.4796 58.8384 29.5022 58.8327 29.5305Z" fill="#FF9E18"/>
<path d="M28.9018 23.3969C28.9187 23.4139 28.9413 23.4365 28.9583 23.4534C28.9753 23.3969 28.9526 23.3799 28.9018 23.3969Z" fill="#FF9E18"/>
<path d="M54.004 34.0763C54.0379 34.0763 54.0605 34.065 54.0605 34.0254C54.0436 34.0424 54.0266 34.0593 54.004 34.0763Z" fill="#CBA25B"/>
<path d="M53.9532 34.1269C53.9871 34.1269 54.0041 34.1099 54.0041 34.0703L54.0098 34.076C53.9928 34.0929 53.9702 34.1155 53.9532 34.1269Z" fill="#CBA25B"/>
<path d="M28.9522 23.4528C28.9692 23.4698 28.9918 23.4924 29.0088 23.5094C29.0201 23.4585 29.0088 23.4359 28.9522 23.4528Z" fill="#FF9E18"/>
<path d="M41.2663 29.3267C41.2777 29.338 41.2833 29.3494 41.2946 29.3607C41.3172 29.3324 41.3059 29.3154 41.2776 29.3154L41.2663 29.3267Z" fill="#FF4713"/>
<path d="M53.3144 39.1532C53.3371 39.1419 53.3597 39.1306 53.3427 39.0967C53.3258 39.108 53.3088 39.1136 53.2918 39.1249C53.3031 39.1363 53.3088 39.1476 53.3144 39.1532Z" fill="#CBA25B"/>
<path d="M53.2581 39.1985C53.2807 39.1815 53.2977 39.1702 53.3203 39.1533C53.3147 39.142 53.3034 39.1363 53.2977 39.125C53.2807 39.1533 53.2694 39.1759 53.2581 39.1985Z" fill="#CBA25B"/>
<path d="M53.2578 39.2041C53.2463 39.2099 53.229 39.2156 53.2174 39.2214C53.252 39.2618 53.2463 39.2156 53.2578 39.2041Z" fill="#CBA25B"/>
<path d="M36.6583 28.7451C36.6753 28.7621 36.6979 28.7734 36.7148 28.7903C36.6979 28.779 36.6809 28.7621 36.6583 28.7451Z" fill="#FF4713"/>
<path d="M53.7438 41.3299L53.7891 41.279C53.7495 41.2734 53.7495 41.3017 53.7438 41.3299Z" fill="#FF9E18"/>
<path d="M52.1717 42.709C52.1604 42.7259 52.1548 42.7373 52.1435 42.7542C52.1604 42.7486 52.1774 42.7429 52.1943 42.7316C52.1887 42.7259 52.1774 42.7203 52.1717 42.709Z" fill="#CBA25B"/>
<path d="M52.0587 42.8171L52.0645 42.7998H52.0471L52.0587 42.8171Z" fill="#CBA25B"/>
<path d="M59.9805 21.7285C59.9636 21.7455 59.9296 21.7568 59.9692 21.7851C59.9749 21.7907 59.9918 21.7681 60.0088 21.7568C60.0031 21.7455 59.9918 21.7342 59.9805 21.7285Z" fill="#CBA25B"/>
<path d="M59.855 21.8305C59.8608 21.8363 59.8666 21.842 59.8723 21.842C59.8781 21.842 59.8839 21.8363 59.8896 21.8305C59.8839 21.8247 59.8781 21.819 59.8723 21.819C59.8666 21.8132 59.8608 21.8247 59.855 21.8305Z" fill="#CBA25B"/>
<path d="M56.5766 27.5068C56.5653 27.5181 56.554 27.5238 56.5427 27.5351C56.5766 27.5634 56.5822 27.5408 56.5879 27.5125L56.5766 27.5068Z" fill="#CBA25B"/>
<path d="M33.5548 27.0938C33.5718 27.1107 33.5944 27.122 33.6113 27.139C33.5944 27.122 33.5718 27.1051 33.5548 27.0938Z" fill="#FF9E18"/>
<path d="M82.5948 56.2275C82.6118 56.2445 82.6344 56.2615 82.6513 56.2841C82.6626 56.2275 82.6231 56.2332 82.5948 56.2275Z" fill="#FF9E18"/>
<path d="M61.0667 24.0521C61.095 24.0804 61.1176 24.0747 61.1289 24.0352L61.0667 24.0521Z" fill="#FF9E18"/>
<path d="M29.2751 23.7695L29.3316 23.826C29.3429 23.7808 29.326 23.7582 29.2751 23.7695Z" fill="#FF9E18"/>
<path d="M29.2237 23.7192C29.2406 23.7361 29.2632 23.7587 29.2802 23.7757C29.2859 23.7248 29.2689 23.7079 29.2237 23.7192Z" fill="#FF9E18"/>
<path d="M29.1677 23.6621C29.1846 23.679 29.2016 23.7016 29.2242 23.7186C29.2355 23.6734 29.2185 23.6508 29.1677 23.6621Z" fill="#FF9E18"/>
<path d="M29.1164 23.6108C29.1333 23.6277 29.1559 23.6503 29.1729 23.6673C29.1842 23.6164 29.1616 23.5995 29.1164 23.6108Z" fill="#FF9E18"/>
<path d="M29.0602 23.5546L29.1168 23.6112C29.1281 23.5659 29.1111 23.5433 29.0602 23.5546Z" fill="#FF9E18"/>
<path d="M29.0089 23.5033L29.0655 23.5599C29.0768 23.509 29.0542 23.492 29.0089 23.5033Z" fill="#FF9E18"/>
<path d="M53.9531 34.1328C53.9474 34.1386 53.9416 34.1444 53.93 34.1501C53.9416 34.1386 53.9474 34.1328 53.9531 34.1328Z" fill="#CBA25B"/>
<path d="M54.7051 38.0282C54.8408 38.0565 54.903 37.9943 54.9199 37.8643C54.8125 37.8756 54.7447 37.9378 54.7051 38.0282Z" fill="#9D1F60"/>
<path d="M54.9143 37.8699C54.9765 37.8982 55.0047 37.8642 55.0273 37.8134C54.9652 37.7907 54.9312 37.8134 54.9143 37.8699Z" fill="#9D1F60"/>
<path d="M55.0788 37.7626C55.1015 37.7456 55.1297 37.723 55.1523 37.7061C55.1128 37.7061 55.0788 37.7117 55.0788 37.7626Z" fill="#9D1F60"/>
<path d="M55.0216 37.8134C55.0555 37.8077 55.0781 37.7908 55.0781 37.7568C55.0385 37.7568 55.0159 37.7738 55.0216 37.8134Z" fill="#9D1F60"/>
<path d="M27.132 19.7329C27.132 20.5867 27.703 21.2651 28.585 21.5026C29.3934 21.7174 30.3263 21.3838 30.8069 20.711C31.3214 19.9874 31.1913 19.0149 30.4959 18.41C29.4839 17.528 27.8161 17.8785 27.2563 19.0884C27.1602 19.3033 27.1207 19.5238 27.132 19.7329ZM30.479 19.3372C30.4563 19.3428 30.4281 19.3541 30.4055 19.3541C30.1228 19.3428 29.891 19.4276 29.7949 19.716C29.6987 19.993 29.744 20.2474 29.9927 20.4284C30.1228 20.5245 30.0493 20.564 29.9701 20.6149C29.6479 20.8298 29.2973 20.9202 28.9072 20.8411C28.2571 20.711 27.7934 20.1344 27.833 19.4842C27.8726 18.8566 28.4323 18.3252 29.0825 18.2799C29.7609 18.2347 30.3602 18.687 30.479 19.3372Z" fill="#CBA25B"/>
<path d="M30.4795 19.337C30.3608 18.6868 29.7615 18.2401 29.083 18.2854C28.4272 18.3306 27.8731 18.8621 27.8336 19.4896C27.7883 20.1398 28.2576 20.7165 28.9078 20.8465C29.2979 20.92 29.6484 20.8352 29.9707 20.6204C30.0442 20.5695 30.1233 20.5299 29.9933 20.4338C29.7502 20.2529 29.7049 19.9928 29.7954 19.7214C29.8915 19.4331 30.1233 19.3483 30.406 19.3596C30.4286 19.3539 30.4512 19.3426 30.4795 19.337Z" fill="#12100B"/>
</svg>
