<svg width="61" height="23" viewBox="0 0 61 23" fill="none" xmlns="http://www.w3.org/2000/svg">
<path d="M30.4731 22.8695C30.7089 22.8296 30.9286 22.7448 31.1483 22.655C31.2501 22.6151 31.3573 22.63 31.4537 22.66C32.5737 22.9892 33.565 22.7298 34.4599 22.0713C35.135 21.5773 35.6012 20.9288 35.971 20.2203C36.3139 19.5618 36.5657 18.8733 36.8551 18.1948C37.0587 17.7159 37.2838 17.2469 37.5356 16.7879C37.6964 16.4936 37.9214 16.2341 38.1358 15.9747C38.9503 14.9669 39.8827 14.0789 41.0026 13.3605C42.1439 12.6271 43.3871 12.1482 44.7589 11.9686C45.4769 11.8738 46.195 11.8588 46.913 11.8738C47.4274 11.8838 47.9365 11.9087 48.4455 11.9486C48.9064 11.9835 49.3726 12.0185 49.828 12.0983C50.1602 12.1581 50.4818 12.2779 50.8033 12.3827C52.2876 12.8466 53.729 13.4204 55.1383 14.054C56.9012 14.8472 58.557 15.8051 60.1485 16.8628C60.3092 16.9725 60.47 17.0324 60.6575 16.9426C60.8612 16.8478 60.9791 16.6881 60.9951 16.4736C61.0326 16.0645 60.8504 15.7303 60.5557 15.4409C60.261 15.1515 59.8966 14.947 59.5323 14.7524C58.2569 14.0789 56.9655 13.4353 55.6259 12.8865C54.2166 12.3078 52.7698 11.8139 51.2963 11.3898C50.68 11.2102 50.0852 10.9857 49.4636 10.8261C48.9921 10.7064 48.5688 10.4968 48.1187 10.3272C47.0577 9.92807 45.9592 9.6437 44.8339 9.43417C44.4427 9.35933 44.0408 9.30944 43.6497 9.23461C43.3389 9.17474 43.0334 9.06498 42.7227 8.98017C41.3991 8.59602 40.0863 8.16696 38.8217 7.63314C37.6482 7.13923 36.5229 6.56051 35.4833 5.84709C35.2851 5.71239 35.1297 5.52779 34.9582 5.36316C34.2777 4.71459 33.6186 4.04606 32.8845 3.44739C32.7076 3.30271 32.5254 3.15803 32.3325 3.02831C31.9521 2.76889 31.6252 2.44959 31.2555 2.18019C31.1697 2.12032 31.0894 2.05047 31.0036 1.99559C30.5696 1.72619 30.2052 1.37197 29.7819 1.0876C29.3479 0.798237 28.887 0.568744 28.3619 0.463975C27.8153 0.354218 27.2848 0.434041 26.7758 0.628612C26.4918 0.738369 26.2078 0.858105 25.9291 0.977841C25.4254 1.19237 24.9432 1.15744 24.4716 0.903006C24.1447 0.728391 23.8179 0.548788 23.4857 0.379163C23.1106 0.184592 22.7087 0.0548788 22.2746 0.0149669C22.2639 0.0149669 22.2478 0.00997796 22.2478 0H21.7549C21.7495 0.0199559 21.7334 0.0149669 21.7174 0.0199559C20.7314 0.129714 19.9437 0.573733 19.365 1.31709C18.6576 2.22509 18.4862 3.25282 18.6898 4.34042C18.8666 5.27834 19.3382 6.08157 20.0026 6.79499C20.1848 6.98956 20.3884 7.16917 20.5814 7.35376C20.7207 7.34877 20.8653 7.33879 21.0047 7.33879C21.8031 7.32881 22.6015 7.3338 23.3999 7.37372C23.6143 7.38369 23.8286 7.39367 24.0429 7.41363C24.3805 7.43857 24.7181 7.4735 25.0557 7.49844C25.0503 7.48846 25.045 7.47848 25.0343 7.46851C24.7181 7.13424 24.4502 6.77005 24.2626 6.35596C24.0697 5.93689 23.9358 5.50784 23.9518 5.04386C23.9679 4.68465 24.0965 4.36037 24.3752 4.11092C24.8414 3.69185 25.4094 3.5771 26.0363 3.67189C26.465 3.73675 26.8615 3.90637 27.2527 4.08099C27.7885 4.31547 28.2976 4.56492 28.7959 4.8443C29.2728 5.11371 29.7497 5.38311 30.1891 5.69742C30.516 5.92691 30.8 6.20629 31.1001 6.46572C31.3359 6.67027 31.5716 6.87482 31.802 7.08436C31.8288 7.1093 31.8824 7.11429 31.8771 7.16917C31.9092 7.16418 31.9253 7.18413 31.936 7.20908C31.995 7.25398 32.0539 7.29389 32.1128 7.34378C32.8737 7.99235 33.6507 8.62096 34.4974 9.16975C35.2851 9.67863 36.1156 10.1127 37.0373 10.392C37.6857 10.5866 38.3501 10.6964 39.0307 10.7413C39.5397 10.7712 40.0488 10.7712 40.5578 10.7712C41.0026 10.7712 41.4473 10.7513 41.8921 10.8411C41.7688 10.8909 41.6456 10.9309 41.5331 10.9808C40.8258 11.2601 40.2095 11.6742 39.6094 12.1132C39.604 12.1432 39.5879 12.1582 39.5504 12.1582C39.5504 12.1731 39.5451 12.1781 39.529 12.1781C39.5344 12.213 39.5076 12.223 39.4861 12.243C39.17 12.4974 38.8913 12.7918 38.6127 13.0811C38.3823 13.3455 38.1572 13.6099 37.9482 13.8893C37.7875 14.1088 37.6428 14.3433 37.4606 14.5529C36.9516 15.1416 36.5282 15.7802 36.1639 16.4537C35.9174 16.9027 35.687 17.3567 35.4512 17.8107C34.9743 18.7137 34.492 19.6117 33.774 20.38C33.5703 20.5995 33.3346 20.7741 33.0345 20.8639C32.9756 20.8789 32.9273 20.9038 32.8791 20.9388C32.5683 21.1732 32.1986 21.2231 31.8235 21.1832C31.4645 21.1433 31.1751 20.9487 30.9447 20.6893C30.8857 20.6245 30.8429 20.5446 30.7732 20.4947C30.5589 20.3351 30.4249 20.1355 30.3392 19.8961C30.1731 19.4221 30.1999 18.9482 30.3177 18.4742C30.4356 17.9953 30.6714 17.5612 30.9608 17.1471C31.3412 16.6083 31.8074 16.1294 32.2789 15.6604C32.5897 15.3511 32.9166 15.0518 33.2328 14.7524C33.2596 14.7275 33.281 14.6975 33.3239 14.6876C33.3614 14.6526 33.3989 14.6177 33.431 14.5778C33.6989 14.2435 34.0205 13.9542 34.3473 13.6698C34.4277 13.6 34.4974 13.5002 34.6153 13.4752C34.6099 13.4453 34.626 13.4303 34.6581 13.4254H34.6528C34.6581 13.4104 34.6635 13.4054 34.6796 13.4054C34.8885 13.1759 35.1082 12.9564 35.3547 12.7618C35.419 12.7119 35.478 12.662 35.5262 12.5972C35.7513 12.3028 36.0138 12.0384 36.3085 11.8039C36.33 11.789 36.3621 11.779 36.3621 11.7491C36.1264 11.7191 35.8906 11.7241 35.6548 11.7141C35.4833 11.7091 35.3119 11.7191 35.1457 11.7241C34.9903 11.7291 34.8242 11.7191 34.6742 11.7491C32.8791 12.0833 31.159 12.6371 29.5193 13.3954C28.9728 13.6499 28.4423 13.9193 27.8957 14.1687C26.8883 14.6277 25.8863 15.1017 24.8842 15.5706C24.8789 15.5906 24.8628 15.6005 24.8467 15.5956C24.8414 15.6255 24.8146 15.6355 24.7931 15.6504C24.6002 15.7752 24.4073 15.8999 24.2198 16.0246C23.5553 16.4587 22.9123 16.9176 22.28 17.3866C21.637 17.8556 21.01 18.3445 20.367 18.8085C19.7722 19.2425 19.1453 19.6316 18.4272 19.8711C17.9289 20.0407 17.4145 20.1006 16.8947 20.0258C16.2303 19.926 15.6515 19.6516 15.2282 19.1477C14.762 18.5939 14.6173 17.9753 14.8478 17.3018C15.0299 16.758 15.4265 16.3589 15.882 16.0047C16.0052 15.9049 16.1606 15.84 16.2678 15.7203C16.466 15.4958 16.6857 15.2962 16.9269 15.1166C17.5431 14.6526 18.245 14.3533 19.0113 14.1637C19.7454 13.9791 20.501 13.9093 21.2565 13.8344C21.6155 13.7995 21.9799 13.7746 22.3389 13.7446C22.5961 13.5251 22.8855 13.3605 23.2017 13.2258C23.8393 12.9614 24.5091 12.8017 25.1897 12.662C25.838 12.5323 26.4971 12.4276 27.1402 12.2829C28.0082 12.0833 28.8602 11.8289 29.7122 11.5744C29.8569 11.5295 30.0123 11.5046 30.1463 11.4248C30.591 11.1703 31.0197 10.8959 31.4323 10.5966C31.4591 10.5766 31.4966 10.5667 31.4966 10.5268C31.4645 10.5168 31.4323 10.5118 31.4055 10.5068C29.9909 10.2274 28.5655 9.98794 27.1187 9.86322C26.4918 9.80834 25.8595 9.77342 25.2272 9.76843C24.477 9.75845 23.7268 9.78838 22.9766 9.84825C22.5211 9.88317 22.0657 9.93306 21.6102 9.98295C21.0797 10.0378 20.5492 10.1027 20.0187 10.1177C19.59 10.1276 19.1614 10.1476 18.7327 10.1626C18.3897 10.1725 18.0521 10.1975 17.7092 10.1825C17.1787 10.1576 16.6589 10.0777 16.1445 9.95302C15.823 9.8732 15.5069 9.76843 15.1961 9.65867C15.0889 9.66865 14.9871 9.6437 14.8853 9.63373C14.5959 9.60878 14.3173 9.53893 14.0333 9.48406C14.0226 9.48904 14.0118 9.49403 14.0011 9.49403C13.7975 9.47408 13.5939 9.44913 13.3902 9.43417C13.058 9.40922 12.7312 9.36432 12.4096 9.31942C11.9542 9.25456 11.4987 9.17474 11.0486 9.07995C10.1752 8.90533 9.32851 8.67085 8.51938 8.31663C7.65666 7.94246 6.8904 7.44356 6.25809 6.77504C5.97409 6.47071 5.73832 6.14144 5.5722 5.76726C5.42217 5.43799 5.39001 5.09375 5.5079 4.7545C5.67937 4.25061 6.05983 3.93631 6.5796 3.7567C7.05115 3.59207 7.53341 3.55714 8.03175 3.59706C8.40149 3.62699 8.77123 3.67189 9.13025 3.7567C9.89115 3.92633 10.6038 4.2107 11.3004 4.52501C11.847 4.76947 12.3829 5.03388 12.9241 5.29331C13.4706 5.55274 14.0172 5.81216 14.5745 6.04665C15.3997 6.39588 16.2624 6.6553 17.1358 6.87482C17.7092 7.01451 18.2879 7.12926 18.8666 7.22405C19.0917 7.26396 19.3114 7.30387 19.5364 7.31884C19.4721 7.28391 19.4025 7.24899 19.3382 7.21906C17.8485 6.50064 16.45 5.65252 15.1639 4.64973C14.3869 4.04108 13.6314 3.41246 12.8276 2.82875C12.1203 2.31489 11.3808 1.84093 10.5556 1.49669C9.40353 1.01276 8.20858 0.788259 6.94934 0.977841C6.22058 1.0876 5.56149 1.34204 4.98277 1.77109C4.82202 1.89082 4.66662 2.01555 4.48443 2.11034C4.37726 2.17021 4.26473 2.19016 4.14149 2.18019C4.05039 2.1752 3.9593 2.15524 3.87356 2.1303C3.0162 1.89082 2.23922 2.05047 1.53726 2.55935C0.979977 2.96844 0.594162 3.49728 0.310162 4.09595C0.0690308 4.60483 -0.0649338 5.13366 0.031517 5.69243C0.117256 6.21128 0.390537 6.62537 0.915672 6.85985C1.00677 6.89976 1.09786 6.94965 1.18896 6.99954C1.4033 7.1093 1.53726 7.27893 1.60692 7.49345C1.63907 7.59822 1.66586 7.70798 1.68194 7.82272C1.7248 8.15699 1.74088 8.49125 1.79446 8.82551C1.91235 9.58882 2.24458 10.2474 2.83401 10.7912C3.73424 11.6193 4.83809 12.0284 6.08126 12.1282C6.83681 12.1881 7.59236 12.1282 8.33719 12.0185C9.28028 11.8838 10.2127 11.6942 11.1504 11.5395C12.2542 11.3599 13.3581 11.2003 14.4673 11.0905C15.4104 10.9957 16.3589 10.9259 17.3127 10.881C18.2933 10.8311 19.2685 10.8061 20.2491 10.8061C21.3155 10.8011 22.3872 10.8011 23.4535 10.8211C23.9894 10.8311 24.5198 10.8411 25.0557 10.851C25.9398 10.866 26.8186 10.876 27.7028 10.8959C28.2601 10.9059 28.8174 10.881 29.3693 10.9458C29.5461 10.9658 29.7229 10.9808 29.8998 11.0007C29.8676 11.0257 29.8301 11.0406 29.7926 11.0506C28.6298 11.4148 27.4456 11.7191 26.2399 11.9536C25.9345 12.0135 25.6291 12.0933 25.3183 12.1083C24.9164 12.1332 24.5145 12.1332 24.1126 12.1282C23.2981 12.1132 22.489 12.0783 21.6798 12.0534C20.9886 12.0334 20.2974 12.0284 19.6061 12.0584C18.8023 12.0983 17.9986 12.1831 17.2216 12.3827C16.3374 12.6022 15.5015 12.9314 14.7727 13.4603C13.8725 14.1138 13.3259 14.942 13.3152 16.0346C13.3099 16.5235 13.133 16.9476 12.7526 17.2918C12.5865 17.4415 12.4257 17.6061 12.2971 17.7857C11.8845 18.3744 11.772 19.018 11.8952 19.7015C12.0989 20.8041 13.1759 21.6572 14.3762 21.6921C14.7031 21.7021 15.0192 21.6572 15.3354 21.6123C15.6247 21.5674 15.8873 21.6123 16.1177 21.7969C16.2195 21.8767 16.3213 21.9515 16.4232 22.0313C16.6643 22.2159 16.9054 22.3955 17.1841 22.5203C17.7842 22.7797 18.4058 22.7897 19.0381 22.655C19.7829 22.4903 20.3992 22.1211 20.9457 21.6372C21.4066 21.2331 21.8031 20.7741 22.1943 20.3101C23.4374 18.8384 24.761 17.4365 26.2399 16.1643C26.7436 15.7303 27.2473 15.3012 27.826 14.952C29.2246 14.1188 30.6982 13.4453 32.2736 12.9464C32.3057 12.9364 32.3325 12.9115 32.37 12.9314C32.3593 12.9664 32.3272 12.9763 32.3057 12.9963C32.0807 13.1709 31.8556 13.3505 31.6466 13.5451C30.5803 14.5179 29.7337 15.6454 29.0799 16.8877C28.5066 17.9853 28.1743 19.1427 28.2065 20.375C28.2226 20.9088 28.3351 21.4227 28.6137 21.8917C28.8924 22.3656 29.2943 22.7049 29.8623 22.8495C29.9534 22.8745 30.0498 22.8895 30.1463 22.9094H30.4731V22.8695ZM32.354 12.8766L32.3593 12.8716L32.3647 12.8766C32.3593 12.8766 32.3593 12.8816 32.354 12.8816C32.354 12.8816 32.354 12.8816 32.354 12.8766Z" fill="#FF9E18"/>
<path d="M24.8744 15.546C25.8765 15.0771 26.8785 14.6031 27.8859 14.1441C28.4325 13.8947 28.9683 13.6253 29.5095 13.3708C31.1492 12.6125 32.8693 12.0637 34.6644 11.7245C34.8198 11.6945 34.9805 11.7045 35.1359 11.6995C35.3074 11.6945 35.4789 11.6846 35.645 11.6895C35.8808 11.6995 36.1165 11.6945 36.3523 11.7245C36.347 11.7544 36.3148 11.7644 36.2987 11.7793C36.004 12.0138 35.7414 12.2782 35.5164 12.5726C35.4682 12.6375 35.4092 12.6873 35.3449 12.7372C35.0984 12.9318 34.8787 13.1513 34.6697 13.3808C34.6644 13.3908 34.659 13.4008 34.643 13.4008C34.643 13.4257 34.6269 13.4457 34.6001 13.4507C34.5036 13.6053 34.3804 13.75 34.2893 13.9096C34.0428 14.3387 33.8713 14.7877 33.9142 15.2866C33.9517 15.7107 34.2518 16.0599 34.6912 16.1597C35.002 16.2295 35.2913 16.1447 35.5646 16.015C35.7897 15.9052 35.9879 15.7556 36.1862 15.6159C36.3148 15.5011 36.4434 15.3914 36.5667 15.2766C36.99 14.8775 37.3544 14.4285 37.7187 13.9845C37.9491 13.7101 38.1688 13.4257 38.4207 13.1663C38.4314 13.1463 38.4421 13.1264 38.4636 13.1164C38.4689 13.1114 38.4743 13.1014 38.4796 13.0964C38.4904 13.0865 38.5011 13.0715 38.5118 13.0615C38.6833 12.857 38.8762 12.6724 39.0798 12.4928C39.2138 12.373 39.3477 12.2533 39.5031 12.1585C39.5031 12.1485 39.5085 12.1386 39.5245 12.1386C39.5353 12.1136 39.5621 12.1036 39.5835 12.0937C40.1836 11.6546 40.7999 11.2405 41.5072 10.9612C41.6251 10.9163 41.743 10.8714 41.8662 10.8215C41.4161 10.7317 40.9713 10.7516 40.5319 10.7516C40.0229 10.7516 39.5138 10.7566 39.0048 10.7217C38.3242 10.6818 37.6598 10.567 37.0114 10.3725C36.0951 10.0981 35.2592 9.65903 34.4715 9.15016C33.6248 8.60137 32.8479 7.97276 32.087 7.32419C32.0334 7.2743 31.9691 7.23439 31.9101 7.18949C31.8887 7.17951 31.8619 7.17452 31.8512 7.14958C31.7333 7.0947 31.6208 7.02485 31.5082 6.95501C31.4868 6.95002 31.4654 6.94004 31.4493 6.92008C31.4171 6.90512 31.3796 6.89015 31.3475 6.87019C31.1224 6.74547 30.892 6.63072 30.6509 6.53593C30.3133 6.39624 29.9703 6.28149 29.5845 6.31143C29.1505 6.35134 28.8022 6.61575 28.7004 7.00988C28.6307 7.28927 28.6843 7.55867 28.8129 7.81311C28.8558 7.89293 28.904 7.97276 28.9469 8.05757C28.8558 8.06755 28.7754 8.04759 28.695 8.04759C28.2663 8.05258 27.8377 8.02265 27.409 8.03761C26.9535 8.05258 26.4927 8.05258 26.0372 8.07753C25.5282 8.10247 25.0245 8.12741 24.5154 8.15236C23.8242 8.18229 23.1275 8.21722 22.4363 8.23717C21.8897 8.25214 21.3432 8.25214 20.7966 8.23218C20.1536 8.20724 19.5159 8.16234 18.8836 8.06755C18.0959 7.9528 17.3296 7.76322 16.5902 7.48883C16.2097 7.34913 15.8453 7.16953 15.4274 7.1396C14.9398 7.09969 14.5004 7.20445 14.1467 7.5437C13.7395 7.94282 13.6912 8.48163 14.0235 8.91068C14.1789 9.10525 14.3771 9.25492 14.6022 9.36967C14.779 9.45448 14.9558 9.53431 15.1327 9.61413C15.4435 9.72389 15.7596 9.82866 16.0811 9.90848C16.5955 10.0332 17.1207 10.118 17.6458 10.138C17.9834 10.1529 18.3263 10.128 18.6693 10.113C19.098 10.0981 19.5266 10.0831 19.9553 10.0681C20.4912 10.0532 21.0163 9.99329 21.5468 9.93342C22.0023 9.88353 22.4577 9.83863 22.9132 9.79872C23.6634 9.73885 24.4136 9.71391 25.1638 9.7189C25.7961 9.72389 26.423 9.75881 27.0553 9.81369C28.4968 9.93841 29.9221 10.1729 31.3421 10.4573C31.3743 10.4623 31.4011 10.4722 31.4332 10.4772C31.4279 10.5171 31.3903 10.5271 31.3689 10.5471C30.9563 10.8464 30.5276 11.1208 30.0829 11.3752C29.9489 11.4501 29.7935 11.48 29.6488 11.5249C28.7968 11.7793 27.9448 12.0388 27.0768 12.2333C26.4284 12.378 25.7746 12.4828 25.1263 12.6125C24.4457 12.7472 23.7759 12.9118 23.1436 13.1763C22.8275 13.306 22.5328 13.4756 22.2809 13.6951C22.2273 13.745 22.1791 13.7999 22.1255 13.8498C22.1148 13.8647 22.0987 13.8847 22.088 13.8997C21.7075 14.3736 21.7022 14.9473 22.0987 15.4063C22.4899 15.8553 23.015 15.99 23.6152 15.9252C23.7331 15.9102 23.8509 15.8853 23.9688 15.8653C24.1242 15.8104 24.2796 15.7506 24.435 15.6957C24.5583 15.6508 24.6762 15.5809 24.8048 15.541C24.8369 15.556 24.8583 15.556 24.8744 15.546Z" fill="#12100B"/>
<path d="M20.0352 7.37351C19.8637 7.34857 19.6976 7.32362 19.5261 7.30366C19.5154 7.29868 19.51 7.29868 19.4993 7.29369C19.2743 7.27872 19.0492 7.23881 18.8295 7.20388C18.2454 7.10909 17.6667 6.99435 17.0933 6.85466C16.2199 6.64013 15.3572 6.3807 14.532 6.02649C13.9747 5.792 13.4281 5.53258 12.8816 5.27315C12.3404 5.01372 11.8045 4.74931 11.2579 4.50485C10.556 4.19054 9.8433 3.90617 9.08775 3.73654C8.72873 3.65672 8.359 3.60683 7.98926 3.5769C7.49092 3.53698 7.00866 3.5769 6.53711 3.73654C6.01733 3.91615 5.63688 4.23045 5.46541 4.73434C5.34752 5.07858 5.38503 5.41783 5.52971 5.7471C5.69583 6.12128 5.9316 6.45055 6.2156 6.75488C6.8479 7.4234 7.61417 7.9223 8.47688 8.29647C9.28602 8.65069 10.138 8.88517 11.0061 9.05979C11.4562 9.14959 11.9117 9.2344 12.3672 9.29926C12.694 9.34416 13.0209 9.38906 13.3478 9.414C13.5514 9.42897 13.755 9.45392 13.9586 9.47387C13.9693 9.47387 13.9801 9.46888 13.9908 9.46389C13.9479 9.42897 13.8943 9.42398 13.8461 9.40902C13.3531 9.25935 12.903 9.03983 12.5547 8.66566C12.185 8.27153 11.9974 7.81753 12.0778 7.2887C12.1689 6.68503 12.7101 6.3358 13.3317 6.45055C13.6264 6.50543 13.8997 6.62516 14.1783 6.72494C14.5749 6.86463 14.9714 6.98936 15.3786 7.08914C15.7912 7.18892 16.2092 7.27872 16.6325 7.32861C17.0022 7.37351 17.3666 7.4234 17.7364 7.42839C18.2936 7.43338 18.8456 7.43837 19.4029 7.41342C19.5904 7.40344 19.778 7.38349 19.9709 7.39347C20.003 7.39347 20.0244 7.39347 20.0352 7.37351Z" fill="#FF4713"/>
<path d="M24.8369 15.5708C24.7083 15.6107 24.5904 15.6755 24.4672 15.7254C24.3117 15.7803 24.1563 15.8402 24.0009 15.8951C23.8777 15.9899 23.7276 16.0497 23.5883 16.1246C23.0095 16.4389 22.4254 16.7532 21.8467 17.0626C21.4394 17.2821 21.016 17.4667 20.5498 17.5615C20.2872 17.6114 20.0247 17.6264 19.7674 17.5615C19.2155 17.4268 18.8136 16.9528 18.7653 16.4339C18.7278 16.0497 18.8457 15.7005 19.0708 15.3812C19.3548 14.982 19.7406 14.6926 20.1908 14.4681C20.5713 14.2835 20.9678 14.1488 21.3805 14.039C21.6377 13.9742 21.8949 13.9093 22.1628 13.8744C22.2164 13.8245 22.2647 13.7696 22.3183 13.7197C21.9592 13.7497 21.5948 13.7696 21.2358 13.8095C20.4802 13.8844 19.7299 13.9592 18.9904 14.1388C18.2294 14.3284 17.5221 14.6278 16.9058 15.0918C16.6647 15.2714 16.4396 15.471 16.2467 15.6955C16.1448 15.8152 15.9894 15.8801 15.8608 15.9799C15.4053 16.3341 15.0088 16.7333 14.8266 17.2771C14.6015 17.9557 14.7462 18.5743 15.207 19.1232C15.6304 19.6271 16.2038 19.9015 16.8736 20.0013C17.3935 20.0811 17.9079 20.0162 18.4116 19.8466C19.1297 19.6021 19.7567 19.213 20.3516 18.7839C20.9946 18.3149 21.627 17.8309 22.2647 17.3619C22.9024 16.8929 23.5454 16.4339 24.2046 15.9998C24.3975 15.8751 24.585 15.7504 24.778 15.6256C24.8048 15.6107 24.8262 15.6007 24.8369 15.5708Z" fill="#FF4713"/>
<path d="M38.5324 13.0664C38.5217 13.0764 38.511 13.0914 38.5002 13.1013C38.4949 13.1063 38.4895 13.1163 38.4842 13.1213C38.4842 13.1462 38.4681 13.1662 38.4413 13.1712C38.1894 13.4306 37.9697 13.715 37.7393 13.9894C37.3695 14.4335 37.0105 14.8825 36.5871 15.2817C36.4639 15.3964 36.3299 15.5112 36.2067 15.6209C36.1799 15.7157 36.1048 15.7806 36.0405 15.8504C35.7779 16.1698 35.5046 16.4841 35.1778 16.7585C34.942 16.9531 34.6955 17.1277 34.4061 17.2425C34.1113 17.3572 33.8112 17.4171 33.4951 17.3572C33.1628 17.2924 32.9163 17.1227 32.7877 16.8234C32.6912 16.5939 32.6859 16.3594 32.7127 16.1149C32.7609 15.7257 32.9002 15.3665 33.0985 15.0272C33.1682 14.9075 33.2646 14.8027 33.3182 14.673C33.2754 14.678 33.2539 14.7129 33.2271 14.7328C32.9056 15.0372 32.5841 15.3316 32.2733 15.6409C31.8017 16.1099 31.3355 16.5839 30.955 17.1277C30.6656 17.5418 30.4352 17.9759 30.3119 18.4549C30.194 18.9289 30.1672 19.4078 30.3333 19.8768C30.4191 20.1113 30.5531 20.3159 30.7674 20.4755C30.8371 20.5254 30.8853 20.6053 30.9389 20.6701C31.1693 20.9296 31.4587 21.1242 31.8177 21.1641C32.1929 21.209 32.5626 21.1541 32.8734 20.9196C32.9217 20.8847 32.9699 20.8597 33.0288 20.8448C33.3289 20.755 33.5647 20.5753 33.7684 20.3608C34.4865 19.5924 34.9688 18.6944 35.4457 17.7913C35.6815 17.3373 35.9119 16.8832 36.1584 16.4342C36.5228 15.7606 36.9462 15.122 37.4553 14.5333C37.6321 14.3237 37.7768 14.0942 37.9429 13.8747C38.1519 13.5953 38.377 13.3308 38.6074 13.0664H38.5324Z" fill="#FF4713"/>
<path d="M20.0347 7.37362C20.0186 7.39357 19.9972 7.39856 19.9758 7.39357C19.7882 7.38359 19.5953 7.40355 19.4078 7.41353C18.8505 7.43847 18.2985 7.43348 17.7413 7.42849C17.3715 7.42351 17.0018 7.3786 16.6374 7.32871C16.2141 7.27384 15.7961 7.18902 15.3835 7.08924C14.9763 6.98946 14.5744 6.85975 14.1832 6.72505C13.9046 6.62527 13.6313 6.50553 13.3366 6.45065C12.715 6.33591 12.1738 6.68015 12.0827 7.2888C12.0023 7.81764 12.1952 8.26665 12.5596 8.66576C12.9079 9.03994 13.358 9.25945 13.851 9.40912C13.8992 9.42409 13.9582 9.42908 13.9957 9.464C14.2797 9.51888 14.5583 9.58374 14.8477 9.61367C14.9495 9.62365 15.0513 9.64859 15.1585 9.63862C14.9816 9.55879 14.7995 9.47897 14.628 9.39416C14.3976 9.2844 14.1993 9.13473 14.0493 8.93517C13.7117 8.50113 13.7599 7.96232 14.1672 7.56819C14.5155 7.22894 14.9548 7.12417 15.4478 7.16408C15.8658 7.19401 16.2302 7.37362 16.6106 7.51331C17.3501 7.7877 18.1164 7.97728 18.9041 8.09203C19.5364 8.18682 20.174 8.23172 20.817 8.25667C21.3636 8.27662 21.9102 8.27662 22.4567 8.26166C23.1533 8.2417 23.8446 8.20678 24.5358 8.17684C25.0449 8.15689 25.5486 8.12695 26.0576 8.10201C26.5131 8.08205 26.974 8.07706 27.4294 8.0621C27.8581 8.04713 28.2868 8.07706 28.7155 8.07207C28.7958 8.07207 28.8762 8.09203 28.9673 8.08205C28.9191 7.99724 28.8709 7.91742 28.8333 7.83759C28.7047 7.58315 28.6512 7.31375 28.7208 7.03436C28.8226 6.64023 29.1656 6.37582 29.605 6.33591C29.9908 6.30098 30.3337 6.42072 30.6713 6.56041C30.9124 6.66019 31.1429 6.77494 31.3679 6.89467C31.4001 6.91463 31.4376 6.92461 31.4697 6.93957C31.4697 6.9296 31.4697 6.91463 31.459 6.90964C31.2768 6.76496 31.0946 6.62028 30.9071 6.48059C30.4998 6.18624 30.0444 5.98169 29.546 5.842C29.2781 5.76716 29.0209 5.6574 28.7851 5.51272C28.6137 5.40296 28.4475 5.28822 28.26 5.19842C27.917 5.03378 27.5634 4.97391 27.1883 5.10363C26.7703 5.24332 26.5024 5.60252 26.497 6.01661C26.4917 6.37083 26.6256 6.69511 26.8239 6.99445C27.0168 7.2888 27.274 7.53326 27.542 7.77274C27.5687 7.79768 27.6063 7.81764 27.6223 7.86753C27.5152 7.84757 27.408 7.82761 27.3062 7.81265C26.9579 7.76276 26.6149 7.70788 26.2666 7.66298C26.0041 7.62805 25.7469 7.59812 25.4843 7.56819C25.3396 7.55322 25.2003 7.53326 25.0556 7.5183C24.718 7.48836 24.3804 7.45843 24.0429 7.43348C23.8285 7.41852 23.6142 7.40355 23.3998 7.39357C22.6014 7.35366 21.803 7.34867 21.0046 7.35865C20.8653 7.35865 20.7206 7.36863 20.5813 7.37362C20.4044 7.36863 20.2222 7.38858 20.0347 7.37362Z" fill="#E1251B"/>
<path d="M25.066 7.50377C25.2106 7.51874 25.35 7.5387 25.4947 7.55367C25.7573 7.5836 26.0198 7.61354 26.2771 7.64846C26.6254 7.69836 26.9737 7.74825 27.3167 7.79814C27.4185 7.81311 27.5257 7.83307 27.6329 7.85303C27.6168 7.80313 27.5793 7.78317 27.5525 7.75823C27.2845 7.51874 27.0273 7.27925 26.8344 6.9799C26.6361 6.68054 26.5021 6.35623 26.5075 6.00199C26.5129 5.59287 26.7808 5.23364 27.1988 5.09393C27.5739 4.9692 27.9276 5.02907 28.2706 5.18873C28.4581 5.27854 28.6189 5.39828 28.7957 5.50306C29.0315 5.64775 29.2887 5.75751 29.5567 5.83235C30.0497 5.97205 30.5106 6.17662 30.9178 6.47099C31.1054 6.6057 31.2876 6.75538 31.4698 6.90007C31.4752 6.90506 31.4752 6.92002 31.4805 6.93C31.5127 6.92501 31.5288 6.93998 31.5395 6.96493C31.652 7.03478 31.7592 7.10463 31.8824 7.15951C31.8878 7.10962 31.8342 7.09964 31.8074 7.07469C31.5716 6.87013 31.3412 6.66058 31.1054 6.45602C30.8053 6.19657 30.5159 5.91717 30.1944 5.68766C29.755 5.37334 29.278 5.10391 28.8011 4.83449C28.3081 4.55509 27.7936 4.30063 27.2738 4.07113C26.8826 3.90149 26.4914 3.73185 26.0573 3.662C25.4304 3.56721 24.8623 3.68196 24.3961 4.10106C24.1174 4.35053 23.9888 4.66984 23.9727 5.03406C23.9513 5.49807 24.0906 5.92715 24.2836 6.34625C24.4711 6.76037 24.7391 7.12459 25.0606 7.45887C25.0499 7.48382 25.0552 7.4938 25.066 7.50377Z" fill="#FF4713"/>
<path d="M33.3182 14.6722C33.2646 14.8019 33.1682 14.9067 33.0986 15.0264C32.895 15.3656 32.7557 15.7248 32.7128 16.1138C32.686 16.3583 32.686 16.5927 32.7878 16.8222C32.9164 17.1265 33.1629 17.2961 33.495 17.3559C33.8111 17.4158 34.1165 17.3559 34.4058 17.2412C34.6952 17.1265 34.9416 16.9519 35.1774 16.7573C35.5042 16.483 35.7774 16.1737 36.04 15.8495C36.0989 15.7746 36.1739 15.7098 36.2061 15.62C36.0025 15.7597 35.8096 15.9093 35.5846 16.0191C35.3113 16.1488 35.022 16.2336 34.7112 16.1637C34.2719 16.064 33.9665 15.7148 33.929 15.2908C33.8861 14.7919 34.0576 14.343 34.3041 13.914C34.3951 13.7544 34.5184 13.6097 34.6148 13.4551C34.4969 13.485 34.4273 13.5798 34.3469 13.6496C34.0201 13.934 33.6986 14.2233 33.4307 14.5575C33.3932 14.5974 33.3504 14.6323 33.3182 14.6722Z" fill="#E1251B"/>
<path d="M22.158 13.8789C21.8954 13.9138 21.6328 13.9787 21.3756 14.0436C20.963 14.1483 20.5664 14.288 20.1859 14.4726C19.7358 14.6922 19.35 14.9865 19.0659 15.3857C18.8409 15.705 18.7283 16.0542 18.7605 16.4384C18.8087 16.9573 19.2106 17.4313 19.7626 17.566C20.0252 17.6309 20.2878 17.6159 20.545 17.566C21.0112 17.4762 21.4346 17.2866 21.8418 17.0671C22.4259 16.7577 23.0047 16.4434 23.5835 16.1291C23.7228 16.0542 23.8675 15.9944 23.9961 15.8996C23.8782 15.9195 23.7603 15.9445 23.6424 15.9594C23.0422 16.0243 22.517 15.8896 22.1258 15.4406C21.7293 14.9815 21.7293 14.4078 22.1098 13.9338C22.1312 13.9138 22.1419 13.8939 22.158 13.8789Z" fill="#E1251B"/>
</svg>
