<svg width="122" height="87" viewBox="0 0 122 87" fill="none" xmlns="http://www.w3.org/2000/svg">
<path d="M70.0446 46.1801L70.0528 46.1885L70.0609 46.1968C70.0528 46.1885 70.0528 46.1885 70.0446 46.1967C70.0609 46.1802 70.0528 46.1719 70.0446 46.1801Z" fill="#F39322"/>
<path d="M58.0869 44.0889L58.1197 44.089C58.136 44.089 58.1443 44.0807 58.1607 44.0807C58.3002 44.0227 58.448 43.9564 58.5875 43.8983C58.727 43.8403 58.8666 43.7656 59.0062 43.7076C58.8502 43.7656 58.7025 43.8319 58.5547 43.8983C58.3824 43.9562 58.2346 44.0226 58.0869 44.0889Z" fill="#F39322"/>
<path d="M28.1799 31.2466C28.1296 31.5793 28.0793 31.912 28.0372 32.2531C28.0033 32.5859 27.9693 32.9186 27.96 33.2598C27.9939 32.927 28.036 32.5859 28.0781 32.2615C28.1121 31.9121 28.146 31.5793 28.1799 31.2466Z" fill="#F39322"/>
<path d="M75.3646 47.3687C75.3564 47.3603 75.3564 47.3603 75.3564 47.3603L75.3398 47.3435C75.3481 47.3519 75.3481 47.3519 75.3564 47.3603C75.3481 47.3687 75.3563 47.3771 75.3646 47.3687C75.3563 47.3771 75.3563 47.3771 75.3646 47.3687Z" fill="#F39322"/>
<path d="M83.3396 68.9751C83.2979 69.1507 83.2644 69.318 83.2226 69.4936C83.1808 69.6692 83.1309 69.8364 83.0891 70.012C83.0057 70.313 82.9224 70.5973 82.8144 70.8899C82.7147 71.1741 82.6066 71.4667 82.4904 71.7509C82.4236 72.0353 82.3485 72.3279 82.2652 72.6122C82.1737 72.8881 82.0822 73.164 81.9824 73.4482C82.2065 72.9216 82.4142 72.3782 82.5889 71.8348C82.7719 71.283 82.9385 70.7312 83.0885 70.1793C83.1803 69.8365 83.2555 69.4936 83.3308 69.1508C83.406 68.8079 83.4731 68.4567 83.5319 68.1138C83.5487 68.0134 83.5491 67.9131 83.5659 67.8127C83.5827 67.7123 83.583 67.612 83.5998 67.5116C83.566 67.7625 83.524 68.005 83.4821 68.2476C83.4401 68.4901 83.3981 68.7326 83.3396 68.9751Z" fill="#F39322"/>
<path d="M45.9095 44.9709C45.885 44.9625 45.8605 44.9541 45.836 44.9457C45.8115 44.9373 45.7869 44.9289 45.7624 44.9205C45.7869 44.9289 45.8033 44.9456 45.8278 44.954C45.8523 44.9624 45.8686 44.979 45.8931 44.9874C45.9013 44.9791 45.9013 44.9791 45.9095 44.9709Z" fill="#F39322"/>
<path d="M49.4626 45.702C49.4461 45.7019 49.4296 45.7019 49.405 45.6934C49.3885 45.6934 49.372 45.6933 49.3473 45.6849C49.3638 45.6849 49.3803 45.685 49.405 45.6934C49.4214 45.6935 49.4379 45.6935 49.4626 45.702C49.4543 45.7103 49.4543 45.7103 49.4626 45.702Z" fill="#F39322"/>
<path d="M49.0192 26.4477L49.0356 26.4478C49.0519 26.4479 49.0519 26.4479 49.0519 26.4479C49.0029 26.4311 48.9784 26.4227 48.9784 26.4227C48.9784 26.4227 48.9865 26.431 49.0192 26.4477Z" fill="#F39322"/>
<path d="M29.1662 22.1544C29.0144 23.2896 29.0845 24.4335 29.1546 25.5775C29.2247 26.7214 29.3112 27.8654 29.2005 29.009C29.1496 29.4765 29.0987 29.9439 29.0232 30.403C28.9559 30.8704 28.8803 31.3461 28.813 31.8135C28.7874 32.089 28.77 32.3561 28.7363 32.6233C28.7107 32.8987 28.6769 33.1658 28.6513 33.4413C28.6344 33.5748 28.6175 33.7084 28.6088 33.8503C28.5919 33.9839 28.5832 34.1258 28.5746 34.251C28.5656 34.4931 28.573 34.7352 28.5804 34.9774C28.5877 35.2195 28.6116 35.4617 28.6436 35.7122C28.7636 36.6726 29.0889 37.6918 29.6201 38.536C30.1596 39.3886 30.9051 40.0663 31.8821 40.3437C32.4654 40.4033 33.0818 40.3627 33.7149 40.272C34.348 40.1814 34.9811 40.0574 35.6224 39.9751C35.9185 39.8922 36.2146 39.8259 36.5106 39.7597C36.8067 39.6935 37.1026 39.6606 37.4068 39.6362C37.7274 39.6117 38.0396 39.629 38.3352 39.6797C38.6309 39.7303 38.9183 39.806 39.1809 39.9067C39.2138 39.9068 39.2549 39.8985 39.2877 39.9153C39.3287 39.9237 39.3616 39.9405 39.4108 39.9739C39.4271 39.9907 39.4518 39.9991 39.4681 40.0158C39.4845 40.0325 39.5009 40.0493 39.5255 40.0577C39.6978 40.1331 39.8701 40.2253 40.0423 40.3342C40.2145 40.443 40.3785 40.5435 40.5507 40.6691C40.8868 40.9118 41.2145 41.1796 41.534 41.4724C41.8454 41.7569 42.1566 42.0581 42.4679 42.3592C42.5907 42.4847 42.7136 42.5935 42.8447 42.7106C42.9758 42.8277 43.0987 42.9365 43.2297 43.0536C43.3608 43.1708 43.492 43.2712 43.6231 43.3883C43.7624 43.4971 43.8853 43.6059 44.0247 43.698C44.3856 43.8991 44.7712 44.0751 45.1569 44.2345C45.5508 44.3855 45.9448 44.5199 46.3554 44.6208C46.3964 44.6293 46.4457 44.6461 46.4867 44.6545C46.5278 44.6629 46.577 44.6797 46.6181 44.6881C47.2996 44.848 47.9814 44.9412 48.6715 44.9926C49.3699 45.0357 50.0601 45.037 50.7506 44.9882C50.767 44.9882 50.7917 44.9799 50.8081 44.9799C50.8246 44.98 50.8493 44.9717 50.8657 44.9717C51.3917 44.9393 51.9097 44.8652 52.4277 44.791C52.9456 44.7168 53.4555 44.6176 53.9735 44.5101C54.3272 44.4356 54.689 44.3528 55.0509 44.27C55.4127 44.1872 55.7664 44.096 56.1201 44.0049C56.9754 43.7894 57.8391 43.5656 58.7026 43.3585C59.5662 43.1515 60.4379 42.9694 61.3094 42.8375C61.9671 42.7386 62.633 42.6647 63.307 42.6326C63.9728 42.5921 64.6466 42.5934 65.3204 42.6114C65.5751 42.6202 65.8216 42.6374 66.0681 42.6545C66.3145 42.6717 66.5692 42.6972 66.8157 42.7144C69.2555 42.9611 71.661 43.6253 73.8845 44.6564C76.108 45.6876 78.1576 47.1108 79.8855 48.8757C80.2131 49.2103 80.5324 49.5699 80.8352 49.9295C81.138 50.2891 81.4244 50.6653 81.7025 51.0499C82.0296 51.5181 82.332 51.9945 82.618 52.4877C82.9039 52.9808 83.157 53.4906 83.377 54.017C83.4422 54.1841 83.5156 54.3429 83.5808 54.51C83.646 54.6771 83.7112 54.8442 83.7763 55.0113C84.0858 55.8468 84.3294 56.6988 84.5566 57.5676C84.7755 58.4279 84.978 59.3049 85.1641 60.1653C85.1722 60.1903 85.1804 60.2154 85.1885 60.2404C85.1966 60.2655 85.2048 60.2906 85.2211 60.3073C85.2212 60.2906 85.213 60.2822 85.2131 60.2655C85.2131 60.2488 85.2132 60.2321 85.2132 60.2154C85.2396 59.7062 85.2413 59.2053 85.2348 58.696C85.2283 58.1867 85.1972 57.6857 85.1495 57.1846C85.1257 56.9425 85.1101 56.692 85.0699 56.4498C85.0378 56.1992 85.014 55.9571 84.9737 55.7149C84.9496 55.5729 84.9336 55.4393 84.9094 55.2973C84.8852 55.1553 84.8693 55.0217 84.8368 54.8881C84.6512 53.8942 84.3998 52.9002 84.0826 51.9394C83.7654 50.9787 83.3906 50.0262 82.9499 49.1237C82.9171 49.1069 82.8761 49.0818 82.8351 49.0567C82.8023 49.0232 82.7696 48.9897 82.7368 48.9563C82.4996 48.6135 82.2543 48.2791 81.9924 47.9446C81.7388 47.6185 81.4605 47.3008 81.1739 46.9913C81.1575 46.9746 81.1493 46.9662 81.1329 46.9495C81.1166 46.9327 81.1084 46.9244 81.092 46.9077C80.789 46.5815 80.486 46.272 80.1665 45.9792C79.847 45.6863 79.5193 45.4018 79.1833 45.1257C79.0112 44.9834 78.8309 44.8495 78.6506 44.7156C78.4702 44.5817 78.2899 44.4477 78.1095 44.3305C77.306 43.7779 76.4695 43.2754 75.5917 42.8479C74.7139 42.4205 73.8193 42.0598 72.8918 41.7491C72.5717 41.6399 72.2515 41.5475 71.9313 41.4551C71.6112 41.3626 71.2909 41.2869 70.9543 41.2111C69.7554 40.9416 68.5397 40.7723 67.3074 40.6865C66.0832 40.609 64.8423 40.6317 63.6175 40.7379C63.4942 40.7461 63.3626 40.7625 63.2475 40.779C63.1242 40.7871 63.0009 40.8119 62.8693 40.8284C61.965 40.9435 61.0687 41.1172 60.1724 41.2908C59.2761 41.4644 58.3797 41.638 57.4754 41.7532C56.8917 41.8272 56.3245 41.8846 55.7328 41.9002C55.1575 41.9158 54.5659 41.898 53.9827 41.8217C53.7773 41.7963 53.5884 41.7709 53.3831 41.7287C53.186 41.695 52.9889 41.6445 52.8001 41.6024C52.2828 41.4762 51.7903 41.3083 51.3226 41.0819C50.8468 40.864 50.3957 40.5876 49.9778 40.2445C49.6172 39.9599 49.306 39.6421 49.0031 39.2992C48.7002 38.9563 48.4137 38.6135 48.1108 38.2706C47.8243 37.9444 47.5378 37.6183 47.2184 37.3087C46.9071 37.0076 46.5629 36.7398 46.1774 36.5136C46.1692 36.5053 46.1528 36.5052 46.1446 36.4969C46.1364 36.4885 46.12 36.4885 46.1118 36.4801C45.7837 36.2958 45.4556 36.1282 45.1109 35.994C44.7744 35.8514 44.4215 35.7422 44.0685 35.633C43.9371 35.5993 43.7975 35.5573 43.6744 35.5153C43.543 35.4817 43.4117 35.448 43.2721 35.406C42.9929 35.3387 42.7138 35.2714 42.4264 35.2124C42.1389 35.1534 41.8598 35.0861 41.5805 35.0355C40.7758 34.867 39.9793 34.6901 39.2076 34.4382C38.436 34.1862 37.6893 33.8592 37.0006 33.3904C36.9186 33.3401 36.8449 33.2815 36.7711 33.2229C36.6974 33.1644 36.6236 33.1058 36.5498 33.0472C35.755 32.3861 35.1416 31.5083 34.8243 30.5643C34.507 29.6202 34.4941 28.6016 34.8917 27.6506C34.958 27.4837 35.0408 27.3169 35.1481 27.1585C35.2473 26.9917 35.3547 26.8333 35.4867 26.6832C35.759 26.3414 36.0641 26.0498 36.3937 25.7666C36.7152 25.475 37.0448 25.2084 37.3581 24.9085C37.3829 24.8835 37.4076 24.8585 37.4406 24.8251C37.4653 24.8001 37.4901 24.7751 37.523 24.7418C37.8116 24.4501 38.0593 24.1333 38.2905 23.7998C38.5217 23.4663 38.7283 23.1244 38.935 22.7658C39.34 22.0736 39.7859 21.4232 40.2975 20.823C40.809 20.2229 41.3615 19.6645 41.9877 19.1815C42.2596 18.9733 42.5314 18.7651 42.8197 18.5736C43.108 18.3821 43.3962 18.2073 43.6844 18.0325C44.4913 17.5665 45.3472 17.2008 46.2193 16.9019C47.0914 16.603 47.9961 16.3876 48.9251 16.2475C49.1964 16.2062 49.4595 16.1733 49.739 16.1405C50.0103 16.1159 50.2816 16.0914 50.561 16.0752L50.5775 16.0753L50.5939 16.0753C51.2514 16.0432 51.9088 16.0444 52.5579 16.0707C53.2152 16.1053 53.8642 16.165 54.5131 16.2581C54.6445 16.275 54.7595 16.2919 54.8827 16.3172C55.0059 16.3425 55.1291 16.3511 55.2523 16.3764C55.9997 16.503 56.747 16.6631 57.4859 16.8482C58.2249 17.0332 58.9555 17.2601 59.6697 17.4868C59.8667 17.554 60.0555 17.6128 60.2442 17.6883C60.4412 17.7555 60.63 17.831 60.8187 17.9065C60.4989 17.7138 60.1626 17.5212 59.8345 17.3369C59.5064 17.1526 59.1784 16.9683 58.8503 16.784C58.6288 16.6583 58.4073 16.5493 58.1859 16.4237C57.9644 16.298 57.7429 16.1891 57.5132 16.0718C56.6683 15.6277 55.7987 15.1919 54.9207 14.7978C54.051 14.3954 53.1648 14.0263 52.2702 13.6823C52.2456 13.6739 52.2128 13.6572 52.1881 13.6488C52.1635 13.6404 52.1307 13.6236 52.1061 13.6152C51.9583 13.5649 51.8024 13.5061 51.6546 13.4557C51.5069 13.4054 51.3592 13.355 51.2032 13.3129C50.6532 13.1366 50.1031 12.9936 49.5529 12.884C48.9945 12.7661 48.4442 12.6732 47.8774 12.6137C47.4338 12.5627 46.9901 12.5285 46.5465 12.5109C46.1028 12.4934 45.659 12.4926 45.1988 12.5084C44.2454 12.54 43.2837 12.6133 42.3219 12.72C41.3682 12.8351 40.4062 12.9919 39.4769 13.1988C39.2713 13.2402 39.0575 13.2899 38.8519 13.3479C38.638 13.3976 38.4406 13.4473 38.235 13.5054C37.9471 13.58 37.6674 13.6629 37.396 13.7543C37.108 13.8456 36.8283 13.9452 36.5567 14.0532C34.7794 14.7345 33.0585 15.7414 31.7226 17.0914C30.3949 18.4665 29.4278 20.1428 29.1662 22.1544Z" fill="#FF9E18"/>
<path d="M50.986 20.9612C50.9369 20.9777 50.8959 20.986 50.8468 21.0025C50.8959 20.986 50.945 20.9861 50.9942 20.9695C51.0434 20.953 51.0925 20.9531 51.1416 20.9365L51.1335 20.9282L51.1253 20.9199C51.0844 20.9281 51.0352 20.9447 50.986 20.9612Z" fill="#F39322"/>
<path d="M81.263 50.8463C81.3444 50.9459 81.4258 51.0455 81.499 51.1533L81.5072 51.1451L81.5154 51.1368C81.3445 50.9294 81.1572 50.7218 80.9618 50.5226C80.7664 50.3233 80.5791 50.1324 80.3755 49.9414C80.4732 50.041 80.5872 50.1407 80.6849 50.2403C80.7826 50.3399 80.8885 50.4479 80.9862 50.5475C81.0839 50.6471 81.1735 50.755 81.263 50.8463Z" fill="#F39322"/>
<path d="M78.5059 58.649C78.2636 57.3612 77.8649 56.0982 77.3344 54.9186C76.7956 53.7306 76.1332 52.6009 75.3306 51.5796C75.8623 52.4416 76.3116 53.3535 76.6784 54.2988C77.0453 55.2441 77.338 56.231 77.5566 57.2262C77.7185 57.9956 77.8391 58.7732 77.894 59.5507C77.9653 60.3283 77.9873 61.1058 77.9599 61.8831C77.9815 62.7442 77.9374 63.6051 77.8439 64.466C77.7504 65.3268 77.5993 66.1792 77.4072 67.0232C77.3487 67.2822 77.282 67.5329 77.2153 67.8003C77.1486 68.051 77.0736 68.31 76.9987 68.569C76.8238 69.1789 76.6242 69.7971 76.4 70.3903C76.1759 70.9834 75.9188 71.5764 75.6371 72.1444C75.4631 72.4868 75.2809 72.8376 75.0906 73.1632C74.8838 73.4889 74.6852 73.8229 74.4702 74.1402C74.2965 74.4157 74.0981 74.6829 73.8916 74.9417C73.7015 75.2005 73.4949 75.4592 73.2884 75.718C73.1562 75.885 73.024 76.0352 72.8918 76.2021C72.7596 76.3691 72.6274 76.5361 72.4953 76.6863C72.487 76.6946 72.487 76.6946 72.4787 76.703C72.4705 76.7113 72.4705 76.7113 72.4622 76.7197C72.3135 76.9033 72.1813 77.087 72.0407 77.279C71.9167 77.471 71.7844 77.6714 71.6603 77.8635C71.4783 78.1641 71.3209 78.4731 71.2046 78.7906C71.0883 79.108 71.005 79.4255 70.9627 79.7515C70.9709 79.7598 70.979 79.7849 70.979 79.8016C70.9872 79.81 70.9871 79.8267 70.987 79.8435C71.0262 80.4036 71.2136 80.9139 71.5165 81.3575C71.8193 81.8011 72.2211 82.1612 72.6808 82.4296C72.7465 82.4631 72.8122 82.4967 72.8697 82.5218C72.9354 82.5554 72.9929 82.5806 73.0586 82.6141C73.0668 82.6225 73.0668 82.6225 73.0832 82.6225C73.0914 82.6309 73.0914 82.6309 73.1079 82.6309C73.1161 82.6226 73.1161 82.6226 73.1244 82.6143C73.1326 82.6059 73.1326 82.6059 73.1409 82.5976C73.1574 82.5809 73.1739 82.5809 73.1986 82.5726C73.2068 82.5642 73.2233 82.5643 73.248 82.556C73.2644 82.556 73.2809 82.556 73.2891 82.5477C73.3056 82.5477 73.3221 82.531 73.3386 82.531C74.409 82.232 75.3896 81.7406 76.2885 81.1152C77.1873 80.4899 77.9962 79.7223 78.7065 78.8876C78.5167 79.0795 78.3104 79.2547 78.0959 79.4382C77.8814 79.605 77.6752 79.7635 77.4443 79.9135C77.2052 80.0719 76.9497 80.2136 76.6696 80.3301C76.3977 80.455 76.1094 80.5632 75.8131 80.6295C75.5331 80.6959 75.2615 80.7372 74.9736 80.7451C74.6939 80.7446 74.4225 80.719 74.1513 80.6433C74.1184 80.6432 74.0691 80.6264 74.0198 80.6096C73.987 80.5928 73.9377 80.576 73.8884 80.5592C73.8227 80.5256 73.7487 80.5004 73.6831 80.4669C73.6174 80.4333 73.5517 80.3998 73.486 80.3495C73.3137 80.2405 73.1579 80.0981 73.0268 79.9474C72.8957 79.7967 72.8058 79.621 72.7324 79.4286C72.7244 79.3868 72.6998 79.345 72.6918 79.3031C72.6837 79.2613 72.6674 79.2111 72.6593 79.1693C72.6596 79.1025 72.6433 79.0356 72.6436 78.9687C72.6438 78.9018 72.644 78.8349 72.6443 78.7681C72.6615 78.534 72.72 78.2917 72.803 78.0745C72.8861 77.8406 72.9855 77.6234 73.1015 77.4063C73.1677 77.2726 73.234 77.1557 73.3084 77.0305C73.3747 76.9136 73.4409 76.7799 73.5072 76.663C73.59 76.496 73.681 76.3373 73.7639 76.1703C73.8467 76.0032 73.9378 75.8446 74.0206 75.6775C74.3768 74.9843 74.7411 74.2995 75.089 73.6147C75.4369 72.9298 75.7931 72.2366 76.1163 71.5433C76.398 70.9587 76.6716 70.3657 76.9205 69.7642C77.1694 69.1628 77.4101 68.553 77.6178 67.9431C78.1413 66.4477 78.5087 64.9102 78.6704 63.3473C78.8404 61.7928 78.8048 60.2128 78.5059 58.649Z" fill="#FF9E18"/>
<path d="M68.9542 23.7646C69.0194 23.8145 69.0927 23.856 69.1578 23.9059C69.2229 23.9557 69.2962 23.9973 69.3614 24.0472C69.2881 23.989 69.223 23.9226 69.1498 23.8645C69.0765 23.8063 69.0114 23.7399 68.9382 23.6818C68.9381 23.6983 68.9381 23.6983 68.9381 23.7149C68.9543 23.748 68.9624 23.7564 68.9542 23.7646Z" fill="#F39322"/>
<path d="M82.0559 53.2661C82.1127 53.374 82.1613 53.4902 82.21 53.5898C82.1614 53.4737 82.1127 53.3575 82.056 53.233C82.0074 53.1168 81.9507 52.9923 81.8939 52.8844L81.8775 52.8843L81.8612 52.8843C81.8693 52.8926 81.8775 52.9009 81.8774 52.9175C81.8856 52.9258 81.8937 52.9341 81.8936 52.9507C81.9423 53.0503 81.9991 53.1582 82.0559 53.2661Z" fill="#F39322"/>
<path d="M66.7935 42.6912C66.3006 42.6402 65.7912 42.6058 65.2981 42.5882C63.9587 42.5439 62.6189 42.6165 61.2951 42.8228C59.5437 43.095 57.8164 43.5593 56.1055 43.9903C55.39 44.1643 54.6744 44.3383 53.9589 44.4956C52.9391 44.7107 51.9031 44.8758 50.8509 44.9573C50.8098 44.9655 50.7687 44.9571 50.7276 44.9654C49.3549 45.0546 47.9334 44.9768 46.5867 44.657C46.4964 44.6318 46.4143 44.6149 46.324 44.5897C45.5111 44.3794 44.7232 44.0773 43.9932 43.6668C44.567 44.1021 45.1656 44.4957 45.7889 44.8475C45.8382 44.8643 45.8792 44.8894 45.9202 44.8979C45.912 44.9062 45.912 44.9062 45.9119 44.9229C46.4697 45.2245 47.0359 45.4844 47.6268 45.7193C48.1767 45.9291 48.735 46.0972 49.3015 46.2402C49.8927 46.3916 50.5087 46.5013 51.1084 46.5776C51.4862 46.6284 51.8724 46.6542 52.2504 46.6716C52.5461 46.6888 52.842 46.6894 53.1378 46.6899C53.2611 46.6818 53.3844 46.6904 53.5077 46.6823C53.5817 46.6741 53.6639 46.6742 53.7378 46.666L53.7543 46.6661C54.0009 46.6331 54.2393 46.6085 54.4942 46.5673C54.5847 46.5424 54.6834 46.5259 54.7739 46.501C55.0206 46.4347 55.2757 46.36 55.5307 46.2853C56.7566 45.8785 58.0158 45.3382 59.2828 44.9064C59.464 44.8065 59.6533 44.715 59.8426 44.6235C59.9085 44.5903 59.9743 44.557 60.0402 44.5237C60.3939 44.4325 60.7311 44.3413 61.0848 44.2669C62.5981 43.9023 64.1358 43.6297 65.7056 43.6076C68.204 43.5622 70.6926 44.0095 73.0235 44.8822C74.2131 45.494 75.353 46.1891 76.4434 46.951C76.5336 47.0096 76.6238 47.0849 76.714 47.1435C76.845 47.2774 76.9842 47.4196 77.1235 47.5618C79.0334 48.9932 80.6462 50.8081 81.814 52.9728C81.8304 52.9728 81.8469 52.9729 81.8551 52.9645C81.9694 53.1985 82.0754 53.4409 82.165 53.6832C83.5505 57.0757 83.792 60.9587 83.7633 64.5824C83.7516 65.5926 83.7071 66.6029 83.605 67.6046C83.5879 67.805 83.5708 68.0053 83.5373 68.2057C83.4116 68.8984 83.2614 69.5828 83.0865 70.2588C82.8034 71.3437 82.438 72.4452 81.9907 73.4964C81.7919 73.9636 81.5848 74.4224 81.3532 74.8728C80.9478 75.682 80.4931 76.4743 79.9727 77.2331C79.7662 77.5417 79.5515 77.8419 79.3204 78.142C79.1305 78.4005 78.9324 78.6506 78.7179 78.9007C77.2822 80.5846 75.486 81.9505 73.3556 82.5393C73.3309 82.5476 73.2898 82.5559 73.2651 82.5642C73.224 82.5725 73.191 82.5891 73.1498 82.6141C73.1416 82.6224 73.1252 82.6224 73.1169 82.6307C73.2564 82.6894 73.3877 82.7398 73.5274 82.7651C73.9954 82.8912 74.4637 82.9172 74.9323 82.8763C75.853 82.7945 76.7582 82.4289 77.5325 81.9126C79.8718 80.3306 81.3196 77.5029 82.2981 74.9164C83.2601 72.3799 83.9678 69.6843 84.5356 67.0302C84.5524 66.9468 84.569 66.88 84.5857 66.7966C84.5942 66.7381 84.6108 66.6881 84.6192 66.6296C85.0289 64.5681 85.1594 62.4559 85.2323 60.3519C85.2241 60.3269 85.2077 60.3101 85.2161 60.2851C85.1915 60.2433 85.1753 60.1932 85.159 60.143C84.7705 58.4056 84.3737 56.6598 83.763 54.9971C83.6409 54.6545 83.5023 54.3286 83.3637 54.0027C82.9071 52.9498 82.3434 51.9719 81.6891 51.0355C81.1411 50.2579 80.5355 49.5387 79.8721 48.8612C76.4079 45.3228 71.6733 43.2014 66.7935 42.6912ZM49.3611 45.6475C49.3939 45.6475 49.435 45.656 49.4679 45.656L49.4596 45.6644C49.4268 45.6643 49.3857 45.6559 49.3611 45.6475ZM58.9829 43.6784C58.7031 43.8115 58.4233 43.9279 58.1352 44.0526C58.1105 44.0609 58.0941 44.0608 58.0694 44.0691C58.3657 43.9361 58.6784 43.8031 58.9829 43.6784ZM80.3449 49.9809C80.7545 50.3657 81.1312 50.7672 81.4914 51.1854C81.4831 51.1937 81.4667 51.1937 81.4584 51.202C81.3112 50.9847 81.1393 50.7923 80.9592 50.5916C80.7545 50.3824 80.5497 50.19 80.3449 49.9809Z" fill="#CBA25B"/>
<path d="M57.6982 26.1551C57.6817 26.155 57.6734 26.1634 57.6568 26.1801L57.6733 26.1801C57.6899 26.1634 57.6982 26.1551 57.6982 26.1551Z" fill="#E1251B"/>
<path d="M45.4118 26.6784C44.9637 27.98 45.1972 29.3914 46.1961 30.462C46.5482 30.8384 46.9499 31.1314 47.401 31.3743C47.7783 31.5754 48.1805 31.7348 48.591 31.8525C49.1734 32.1625 49.7889 32.3891 50.4456 32.5907C51.9315 33.036 53.17 33.748 54.3582 34.7438C54.6286 34.9698 54.8908 35.204 55.1529 35.4383C55.537 36.0819 55.9211 36.7088 56.3628 37.3108C56.371 37.3191 56.371 37.3191 56.3792 37.3275C57.3772 38.6652 58.681 39.4943 60.1834 39.9229C60.6431 40.0574 61.1195 40.1418 61.6123 40.2095C62.1134 40.2689 62.6146 40.2949 63.1159 40.2875C65.0223 40.2911 66.9218 39.9357 68.8283 39.9393C69.0913 39.9398 69.3624 39.9487 69.6418 39.9659C72.7628 40.4561 75.7667 41.5806 78.374 43.3388C79.3414 43.9919 80.2593 44.7283 81.1112 45.5481C80.8169 45.08 80.5226 44.6286 80.2119 44.1772C79.5821 43.2827 78.8698 42.5049 78.0751 41.8104C76.715 40.6222 75.1485 39.7092 73.4911 38.938C73.2942 38.8541 73.0973 38.7535 72.9004 38.6697C72.8265 38.6445 72.7609 38.611 72.6788 38.5774C71.1607 37.9317 69.5848 37.3943 68.0416 36.8905C67.4834 36.7057 66.917 36.5126 66.359 36.2945C65.0212 35.7827 63.7167 35.154 62.6105 34.2252C62.5367 34.1666 62.4548 34.0996 62.3893 34.0327C62.2991 33.9574 62.2172 33.8738 62.1271 33.7818C61.4473 33.1209 60.8748 32.335 60.4832 31.4827C60.0731 31.2481 59.6217 31.0886 59.1702 30.9291C58.8255 30.8116 58.4889 30.7024 58.1688 30.5933C57.1921 30.2324 56.2734 29.7464 55.6848 28.8436C55.2434 28.1582 55.0819 27.3063 55.3886 26.5304C55.5129 26.2217 55.7028 25.9466 55.9255 25.7216C56.28 25.3799 56.7246 25.1303 57.2017 24.9809C57.2511 24.9643 57.2922 24.9561 57.3333 24.9478C57.4979 24.898 57.6788 24.865 57.835 24.8402C57.9008 24.8236 57.9665 24.8238 58.0405 24.8156C58.509 24.7747 58.9855 24.8257 59.4537 24.9017C60.1682 25.0116 60.8743 25.1966 61.589 25.2731C61.8437 25.282 62.0984 25.2908 62.3531 25.2996C62.4271 25.2914 62.4929 25.2916 62.5669 25.2833C62.6573 25.2752 62.7477 25.267 62.8464 25.2505C63.8084 25.0937 64.6565 24.586 65.5697 24.2788C65.6026 24.2622 65.6355 24.2622 65.6684 24.2456C66.0304 24.1294 66.4005 24.055 66.7704 24.0139C66.8691 23.9974 66.9677 23.9976 67.0663 23.9811C67.4362 23.9568 67.8224 23.9658 68.1921 24.0083C68.4878 24.0422 68.7835 24.0929 69.079 24.177C69.2679 24.2191 69.4567 24.2779 69.6372 24.345C69.5307 24.2529 69.4324 24.1693 69.3259 24.0772C69.1947 23.9768 69.0472 23.8763 68.9078 23.7842C68.9076 23.8343 68.8992 23.8927 68.8826 23.9428C67.3273 22.1365 65.1773 21.2641 62.894 20.8924C61.5306 20.6727 60.1338 20.62 58.7778 20.6592C58.5723 20.6671 58.3668 20.6751 58.1613 20.683C57.1751 20.7146 56.1722 20.8128 55.2262 21.12C54.2225 21.4353 53.4398 22.0433 52.5832 22.6261C52.542 22.6511 52.5008 22.676 52.4597 22.701C51.7937 22.7916 51.1278 22.8655 50.47 22.9978C49.8204 23.1218 49.1787 23.3042 48.578 23.5619C47.5164 24.0024 46.5691 24.6769 45.8918 25.6942C45.6935 25.9943 45.5281 26.328 45.4118 26.6784ZM49.0285 26.4014C48.9629 26.3679 48.9875 26.3763 49.0779 26.4015C49.0532 26.3931 49.045 26.4015 49.0285 26.4014ZM62.4052 34.183C62.3806 34.1746 62.3477 34.1746 62.3231 34.1662C62.3313 34.1579 62.3314 34.1412 62.3396 34.1328C62.3724 34.1496 62.3888 34.1663 62.4052 34.183Z" fill="#E1251B"/>
<path d="M80.6117 64.5663C80.5702 64.7242 80.5206 64.8738 80.471 65.0234C80.4792 65.0317 80.4874 65.0234 80.4955 65.0317C80.5288 64.8821 80.5702 64.7242 80.6117 64.5663Z" fill="#E1251B"/>
<path d="M69.5803 46.9348C69.6127 47.0177 69.6778 47.0842 69.7675 47.1258C69.8571 47.1675 69.9468 47.2091 70.0446 47.2425C70.004 47.2009 69.9714 47.1677 69.9225 47.1345C69.8085 47.0679 69.6944 47.0013 69.5803 46.9348Z" fill="#E1251B"/>
<path d="M79.4217 65.2481C79.7131 64.1879 79.9552 63.1109 80.0577 61.9918C80.3054 59.2945 79.7722 56.5873 78.5805 54.1629C78.107 53.2099 77.5511 52.3235 76.921 51.4954C75.7425 49.9731 74.3167 48.6843 72.7338 47.6373C71.9793 47.1348 71.1752 46.699 70.3545 46.3132C70.256 46.263 70.1493 46.221 70.0508 46.1707L70.0426 46.179C70.1984 46.2879 70.3542 46.3968 70.51 46.5223C70.8297 46.7652 71.133 47.0246 71.4361 47.3008C72.6579 48.1968 73.7145 49.2762 74.5982 50.4805C75.4423 51.2255 76.2451 52.0121 76.9161 52.9153C78.7161 55.3576 79.3793 58.4993 79.2291 61.5142C79.0615 64.8131 77.9655 67.985 76.6646 70.9812C76.0433 72.3749 75.4301 73.777 75.244 75.3135C75.2438 75.3469 75.2355 75.3886 75.2354 75.422C75.1074 76.7665 75.5127 78.4377 76.9745 78.8246C77.0895 78.8583 77.1881 78.8751 77.2949 78.8837C78.355 78.9775 79.2868 78.1189 79.9722 77.2098C80.4763 76.4506 80.9476 75.658 81.3532 74.8486C81.7011 74.0808 81.9751 73.2711 82.2081 72.453C81.9843 72.9955 81.7359 73.5129 81.4629 74.0219C81.1154 74.6727 80.546 75.3148 79.8871 75.6811C79.187 76.0724 78.3812 76.1544 77.6268 75.6185C76.9298 75.1244 76.6281 74.4139 76.565 73.6454C76.4938 72.8184 76.686 71.925 76.9435 71.1487C77.5333 69.3707 78.4432 67.7186 79.1397 65.9826C79.2392 65.7322 79.3305 65.4902 79.4217 65.2481ZM77.701 77.9239C77.7092 77.9156 77.7339 77.9073 77.7504 77.8906C77.8244 77.8824 77.9068 77.8491 77.9644 77.8075L77.9726 77.8158C77.8903 77.8658 77.7915 77.899 77.701 77.9239Z" fill="#E1251B"/>
<path d="M77.6684 77.9088C77.7585 77.884 77.8569 77.851 77.939 77.8012L77.9308 77.7929C77.8733 77.8343 77.7914 77.8675 77.7176 77.8756C77.7012 77.8922 77.6766 77.9005 77.6684 77.9088Z" fill="#FF4713"/>
<path d="M79.2145 61.4991C79.3648 58.4823 78.7014 55.3387 76.9006 52.8951C76.2212 51.9829 75.4179 51.1958 74.5816 50.4589C74.8518 50.8187 75.1054 51.1953 75.3344 51.5801C76.9309 53.6306 78.0245 56.0729 78.5089 58.6479C79.1065 61.7914 78.6678 64.9498 77.6293 67.9483C77.2055 69.1761 76.6832 70.3703 76.128 71.5477C75.4652 72.9339 74.7367 74.3032 74.0246 75.6726C73.8508 75.9982 73.6851 76.3322 73.5113 76.6578C73.387 76.9 73.2464 77.1421 73.1139 77.3926C72.8821 77.8268 72.6831 78.2777 72.6485 78.7624C72.6398 78.9044 72.6476 79.0298 72.6718 79.1719C72.6879 79.2555 72.7123 79.3475 72.7449 79.4312C72.8752 79.7991 73.1372 80.1339 73.4901 80.3435C73.6214 80.4273 73.7528 80.4944 73.8924 80.5531C73.991 80.5867 74.0731 80.6203 74.1635 80.6455C74.6976 80.7886 75.2651 80.7645 75.8167 80.6234C76.4011 80.4824 76.9613 80.2159 77.4476 79.9076C77.901 79.6159 78.3299 79.2656 78.7095 78.8819C78.9242 78.6315 79.1225 78.3812 79.3126 78.1224C79.5356 77.8303 79.7588 77.5215 79.9655 77.2126C79.2797 78.1224 78.3473 78.9815 77.2867 78.8877C77.1798 78.8791 77.0812 78.8622 76.9743 78.837C75.5117 78.4499 75.0899 76.7777 75.2344 75.4324C75.2428 75.3906 75.2429 75.3571 75.2513 75.3154C75.4294 73.7863 76.0429 72.3666 76.6482 70.972C77.9499 67.9739 79.0467 64.8 79.2145 61.4991Z" fill="#FF4713"/>
<path d="M82.1942 72.4252C81.9608 73.2448 81.6781 74.0476 81.3379 74.8252C81.57 74.3738 81.7774 73.9139 81.9766 73.4457C82.1761 72.8937 82.351 72.3167 82.4764 71.7395C82.4348 71.8649 82.3768 71.9904 82.3187 72.1158C82.2854 72.2161 82.2439 72.3248 82.1942 72.4252Z" fill="#FF4713"/>
<path d="M37.5559 24.7804C37.5064 24.8304 37.4487 24.8888 37.3992 24.9388C36.7808 25.5305 36.0805 26.0386 35.544 26.714C35.2881 27.0224 35.098 27.3478 34.9653 27.6815C34.1617 29.5756 35.0418 31.7483 36.6317 33.0706C36.7793 33.1878 36.9268 33.305 37.0744 33.4055C38.4519 34.3433 40.0533 34.7054 41.6549 35.034C42.2215 35.1603 42.7882 35.27 43.3466 35.4046C43.6094 35.4719 43.8804 35.5476 44.1431 35.6149C44.841 35.8249 45.5304 36.0934 46.1867 36.4621C46.2031 36.4788 46.2195 36.4788 46.2359 36.4956C47.0069 36.9479 47.5965 37.5836 48.1695 38.2528C48.7589 38.9386 49.3235 39.6494 50.0366 40.2269C50.8726 40.8965 51.8409 41.3326 52.8674 41.5766C53.2534 41.6692 53.6558 41.7451 54.0501 41.796C55.2249 41.9401 56.3758 41.8755 57.5351 41.719C59.3358 41.4802 61.129 41.0326 62.9297 40.7938C63.1764 40.7609 63.4313 40.7363 63.6779 40.7034C66.1361 40.4825 68.6258 40.6291 71.0239 41.168C71.6808 41.3196 72.3213 41.4878 72.9534 41.6977C74.8006 42.2941 76.5647 43.1574 78.1635 44.271C78.5242 44.5222 78.885 44.7901 79.2292 45.0747C79.893 45.6187 80.5321 46.2044 81.138 46.8569C81.1626 46.882 81.1953 46.9154 81.2281 46.9489C81.7931 47.5595 82.3086 48.2202 82.7747 48.9141C82.8319 49.0061 82.9139 49.0563 82.9796 49.0899C83.0042 49.0983 83.037 49.115 83.0699 49.1151C82.4659 47.8948 81.8208 46.6828 81.1015 45.5291C80.2495 44.7092 79.348 43.9726 78.364 43.3195C75.7564 41.5777 72.7523 40.4364 69.6309 39.9463C69.3679 39.9291 69.0967 39.9202 68.8173 39.9197C66.9106 39.9161 65.0027 40.2633 63.1041 40.2681C62.611 40.2672 62.1015 40.2495 61.6004 40.1901C61.0992 40.1307 60.6311 40.038 60.1713 39.9035C58.6688 39.4748 57.3648 38.6457 56.3667 37.3078C56.3585 37.2994 56.3585 37.2994 56.3503 37.2911C55.9086 36.689 55.5245 36.062 55.1404 35.4183C54.8782 35.184 54.616 34.9497 54.3455 34.7237C53.1572 33.7278 51.9022 33.0157 50.4326 32.5704C49.7758 32.3687 49.1602 32.1421 48.5777 31.8321C48.1672 31.7144 47.765 31.555 47.3876 31.3539C46.9446 31.1192 46.5347 30.8179 46.1826 30.4414C45.1836 29.3707 44.9419 27.9507 45.3983 26.6572C45.5228 26.3151 45.6883 25.9814 45.8866 25.6645C46.5641 24.647 47.5115 23.9724 48.5732 23.5318C49.1741 23.2741 49.8075 23.0999 50.4654 22.9675C51.1234 22.8351 51.7894 22.7612 52.4554 22.6706C52.4966 22.6456 52.5377 22.6207 52.5789 22.5957C53.4356 22.0128 54.2267 21.413 55.2223 21.0892C56.1685 20.782 57.1632 20.692 58.1578 20.6521C58.3633 20.6442 58.5688 20.6362 58.7743 20.6282C60.1223 20.5974 61.5357 20.6501 62.8911 20.8614C65.1746 21.2331 67.3167 22.0972 68.8803 23.9121C68.8969 23.8621 68.9053 23.8036 68.9055 23.7535C68.9138 23.7285 68.9056 23.7034 68.9057 23.6867C67.7912 22.7327 66.6355 21.8204 65.455 20.9497C65.3566 20.8827 65.2664 20.8074 65.168 20.7404C63.7743 19.7358 62.331 18.7978 60.8547 17.9099C60.4689 17.7672 60.0913 17.6329 59.6973 17.4986C58.2606 17.0199 56.7826 16.633 55.2795 16.3714C55.0331 16.3208 54.7867 16.2869 54.5402 16.2531C53.2341 16.0753 51.9275 15.9977 50.6205 16.0704C50.6041 16.0704 50.5877 16.0703 50.5794 16.0787C50.0369 16.111 49.486 16.1685 48.9516 16.2426C47.1096 16.5231 45.3324 17.1043 43.7102 18.0281C43.1173 18.3611 42.5571 18.7441 42.0214 19.169C40.7606 20.1603 39.7784 21.3693 38.9683 22.7539C38.5465 23.513 38.125 24.1886 37.5559 24.7804ZM51.1218 20.9062C51.0231 20.9227 50.9244 20.9392 50.8339 20.9641C50.9244 20.9392 51.0149 20.9143 51.1136 20.8811C51.1136 20.8978 51.1136 20.8978 51.1218 20.9062Z" fill="#FF4713"/>
<path d="M62.3358 34.1736C62.3603 34.182 62.393 34.1821 62.4175 34.1905C62.4012 34.1739 62.3849 34.1572 62.3522 34.1405C62.344 34.1487 62.3358 34.157 62.3358 34.1736Z" fill="black"/>
<path d="M85.7784 50.9122C85.7381 50.67 85.6979 50.4111 85.6576 50.169C85.7354 46.6129 84.3499 43.2209 82.8074 40.0874C80.8405 36.1183 78.5364 32.2237 75.3835 29.0872C75.0231 28.7359 74.6382 28.3428 74.2286 27.9747C74.0976 27.8242 73.9584 27.682 73.8275 27.5315C73.3529 26.9295 72.8454 26.3608 72.3049 25.8088C72.2968 25.7838 72.2722 25.7587 72.2559 25.7253C69.4074 22.4474 65.8414 19.9612 62.1842 17.7002C58.8797 15.6485 55.5672 13.5051 51.7909 12.4794C48.4414 11.5713 44.9085 11.431 41.4723 11.8919C37.962 12.361 34.2937 13.4225 31.5494 15.7964C30.2061 16.9542 29.1904 18.4465 28.6505 20.1568C28.1604 21.7503 28.089 23.4365 28.1245 25.0811C28.1599 26.7758 28.3185 28.4624 28.2717 30.157C28.2624 30.4825 28.2449 30.7997 28.211 31.1169C28.1593 31.818 28.0749 32.4857 27.9987 33.1451C27.9053 34.0381 27.8201 34.9395 27.8582 35.8328C27.9429 37.5277 28.553 39.3403 29.9629 40.3615C30.5531 40.7967 31.218 40.99 31.908 41.0581C32.0229 41.0918 32.1379 41.1087 32.2529 41.1256C33.1646 41.2526 34.0773 41.0623 34.9573 40.8386C35.1793 40.7806 35.4014 40.7226 35.6234 40.6646C36.6593 40.5163 37.6865 40.4932 38.6874 40.9626C40.2707 41.7087 41.4738 43.1385 42.859 44.1847C45.4735 46.1682 48.6816 47.5684 51.9849 47.5748C52.7901 47.5763 53.5793 47.4777 54.3522 47.3122C55.3797 47.2057 56.3993 47.0073 57.3864 46.6919C58.5462 46.3352 59.6817 45.8699 60.8659 45.5883C61.8527 45.3565 62.8555 45.2749 63.866 45.3186C65.8707 45.406 67.8162 45.9857 69.5713 46.9575C69.6861 47.0245 69.801 47.0915 69.9158 47.1585C69.9567 47.2003 69.9977 47.2254 70.0387 47.2672C74.8226 51.6508 77.6521 58.1259 77.0546 64.7364C76.35 69.0092 74.3731 72.8873 71.8716 76.3803C71.7312 76.572 71.5826 76.7721 71.4422 76.9972C70.7571 77.9225 70.2032 78.9149 70.2157 80.0836C70.2128 80.9351 70.5472 81.6787 71.0793 82.2891C71.963 83.3761 73.399 83.9715 74.788 83.8824C76.4399 83.777 77.922 82.895 79.1336 81.787C81.9443 79.1962 83.4032 75.4257 84.459 71.8131C86.4127 65.0633 86.8642 57.8682 85.7784 50.9122ZM57.6446 26.1647L57.6281 26.1646C57.6364 26.1563 57.6528 26.1563 57.6693 26.1397C57.6611 26.148 57.6528 26.1563 57.6446 26.1647ZM54.807 46.4866C54.7165 46.5115 54.6178 46.528 54.5274 46.5529C54.2889 46.5942 54.0423 46.6271 53.7875 46.6516L53.7711 46.6516C53.6971 46.6598 53.6149 46.6596 53.5409 46.6678C53.4176 46.676 53.2944 46.6841 53.1711 46.6755C52.8753 46.6749 52.5795 46.6743 52.2838 46.6571C51.9058 46.6397 51.528 46.6055 51.1419 46.5631C50.5341 46.4951 49.9264 46.3771 49.3353 46.2257C48.7688 46.0827 48.2106 45.9146 47.6608 45.7049C47.0699 45.4867 46.4956 45.2184 45.9461 44.9252C45.9051 44.9001 45.8641 44.875 45.8148 44.8582C45.1915 44.5064 44.593 44.1128 44.0193 43.6777C43.7488 43.4684 43.4866 43.2509 43.2244 43.0333C42.9704 42.8074 42.7165 42.5816 42.4625 42.339C41.8483 41.7451 41.2341 41.1345 40.5537 40.6574C40.2258 40.423 39.8896 40.2136 39.5286 40.046C39.4876 40.0209 39.463 39.9958 39.4303 39.9623C39.3483 39.8954 39.2744 39.8869 39.1922 39.9034C38.6505 39.702 38.0592 39.6007 37.4182 39.6329C36.8265 39.6651 36.2343 39.8143 35.634 39.9717C34.3762 40.1446 33.0603 40.476 31.9022 40.3486C29.9402 39.8022 28.9039 37.6213 28.6638 35.7175C28.5997 35.2332 28.5849 34.749 28.5948 34.2565C28.6122 33.9894 28.6377 33.714 28.6715 33.4469C28.7308 32.9044 28.782 32.3535 28.8331 31.8193C28.9677 30.8846 29.127 29.9416 29.2205 29.0151C29.4419 26.7282 28.8826 24.4314 29.1861 22.1614C29.7174 18.1303 33.0296 15.4653 36.5922 14.0947C37.1517 13.8787 37.711 13.6962 38.2703 13.547C38.6815 13.4309 39.0927 13.3315 39.5121 13.2405C41.387 12.8267 43.3269 12.6134 45.2334 12.5502C46.1374 12.5186 47.0247 12.5537 47.9118 12.6556C49.0371 12.783 50.1457 13.0105 51.2456 13.3632C51.5493 13.4556 51.8448 13.5564 52.1402 13.6738C52.1976 13.699 52.2468 13.7158 52.3125 13.7326C54.1016 14.4039 55.849 15.2337 57.5551 16.1218C57.9981 16.3564 58.4492 16.5994 58.8921 16.834C59.5565 17.1942 60.2125 17.5795 60.8604 17.9564C62.3283 18.8358 63.7713 19.7735 65.173 20.7863C65.2714 20.8533 65.3615 20.9286 65.4599 20.9956C66.6485 21.8577 67.7958 22.7782 68.9101 23.732C69.0493 23.8575 69.1887 23.9663 69.3279 24.0918C69.4344 24.1838 69.5328 24.2675 69.6393 24.3595C69.4587 24.2924 69.2699 24.2336 69.0811 24.1915C68.7937 24.1158 68.4981 24.0651 68.1942 24.0228C67.8246 23.9804 67.4384 23.9713 67.0686 23.9956C66.97 23.9954 66.8713 24.0119 66.7726 24.0284C66.4027 24.0695 66.0327 24.1439 65.6708 24.2601C65.6379 24.2767 65.605 24.2766 65.5721 24.2933C64.6589 24.6004 63.8026 25.1163 62.849 25.2647C62.7503 25.2812 62.6599 25.2894 62.5695 25.2976C62.4955 25.3058 62.4215 25.314 62.3558 25.3139C62.1011 25.305 61.8464 25.2962 61.5917 25.2874C60.8771 25.2109 60.171 25.0258 59.4565 24.916C58.9884 24.8399 58.5202 24.7973 58.0435 24.8298C57.9777 24.8296 57.9119 24.8462 57.838 24.8544C57.6653 24.8791 57.5009 24.9122 57.3364 24.962C57.2953 24.9702 57.2459 24.9868 57.2048 24.9951C56.7359 25.1528 56.2831 25.394 55.9287 25.7356C55.6978 25.9689 55.5079 26.2273 55.3918 26.5443C55.0934 27.3118 55.2466 28.1719 55.6881 28.8573C56.2766 29.76 57.1953 30.246 58.1719 30.6068C58.5002 30.7243 58.8367 30.8335 59.1733 30.9427C59.6329 31.0938 60.0761 31.2616 60.4861 31.4962C60.8859 32.3568 61.4584 33.1426 62.13 33.795C62.2119 33.8787 62.302 33.954 62.3921 34.046C62.4658 34.1045 62.5395 34.1798 62.6133 34.2384C63.7113 35.1588 65.0157 35.7874 66.3615 36.3076C66.9195 36.5257 67.4858 36.7188 68.044 36.9035C69.5871 37.4074 71.1629 37.9447 72.6809 38.5904C72.7548 38.6156 72.8204 38.6491 72.9025 38.6826C73.0994 38.7665 73.3045 38.8587 73.4932 38.9509C75.1505 39.7054 76.7086 40.6267 78.0768 41.8231C78.8633 42.5091 79.5838 43.2952 80.2135 44.1897C80.5242 44.6411 80.8185 45.0924 81.1127 45.5605C81.8319 46.7139 82.477 47.9256 83.0809 49.1456C83.0563 49.1372 83.0153 49.1287 82.9906 49.1203C83.8719 50.9419 84.5063 52.8966 84.8776 54.8841C84.9342 55.1597 84.9743 55.4352 85.0145 55.7108C85.0868 56.2035 85.1509 56.6878 85.1903 57.1804C85.2773 58.1907 85.2985 59.2008 85.254 60.2108C85.2539 60.2442 85.2538 60.2776 85.2619 60.3027C85.2701 60.3278 85.2782 60.3528 85.2782 60.3695C85.2053 62.4731 85.075 64.5849 84.6654 66.646C84.657 66.7045 84.6404 66.7545 84.6319 66.8129C84.6152 66.8964 84.5986 66.9631 84.5819 67.0466C84.0059 69.7085 83.3066 72.3952 82.3367 74.9395C81.342 77.5088 79.8945 80.336 77.5555 81.9176C76.7814 82.4337 75.8763 82.7992 74.9557 82.881C74.4872 82.9218 74.0189 82.8958 73.551 82.7697C73.4114 82.7277 73.2719 82.6857 73.1406 82.6354C73.1241 82.6353 73.1159 82.627 73.1077 82.6186C72.9764 82.5683 72.8534 82.5096 72.7221 82.4426C71.7872 81.9232 71.0919 80.9785 71.0217 79.8681C71.0218 79.8347 71.0055 79.8013 70.9973 79.7762C71.0817 79.1252 71.3304 78.4746 71.7022 77.8826C71.95 77.4824 72.2224 77.1072 72.5113 76.7321C72.5195 76.7238 72.5278 76.7155 72.536 76.7071C72.8001 76.3904 73.0723 76.0654 73.3281 75.7403C73.7407 75.2235 74.1451 74.715 74.5085 74.1648C74.9379 73.5144 75.3182 72.8473 75.6574 72.1551C76.2282 71.0125 76.6842 69.8196 77.0252 68.5931C77.1831 68.0842 77.3245 67.5752 77.4412 67.0579C77.8331 65.364 78.0197 63.6447 77.9926 61.9249C78.0307 60.3723 77.9127 58.811 77.5892 57.2743C77.1687 55.27 76.4192 53.3485 75.365 51.6351C75.1362 51.2507 74.8828 50.8745 74.6128 50.515C73.7294 49.3112 72.6731 48.2323 71.4518 47.3367C71.1568 47.069 70.8373 46.8096 70.5259 46.5586C70.3783 46.4414 70.2144 46.3242 70.0586 46.2154C70.0505 46.2071 70.0423 46.1987 70.0423 46.1987C70.0423 46.1987 70.0505 46.2071 70.0586 46.2154C70.1653 46.2574 70.2638 46.3076 70.3622 46.3579C71.1826 46.7435 71.9781 47.1875 72.7407 47.6815C74.3395 48.728 75.7649 50.0164 76.9348 51.5296C77.573 52.349 78.1287 53.2349 78.5939 54.1958C79.7854 56.619 80.3268 59.3165 80.0712 62.0208C79.9688 63.1392 79.7269 64.2156 79.4358 65.2753C79.3528 65.5255 79.2615 65.7675 79.1539 66.0093C78.4496 67.736 77.5402 69.3872 76.959 71.1725C76.7017 71.9484 76.5097 72.8413 76.5808 73.6679C76.6604 74.436 76.9539 75.1378 77.6506 75.6484C78.4047 76.1841 79.2103 76.1022 79.9101 75.7112C80.5686 75.3451 81.1378 74.7034 81.4851 74.053C81.758 73.5443 82.0062 73.0272 82.2299 72.485C82.2714 72.3765 82.3128 72.2681 82.3624 72.168C82.4204 72.0429 82.4701 71.9261 82.5198 71.7926C82.7518 71.2254 82.9509 70.6581 83.1091 70.0657C83.2006 69.7236 83.2921 69.3815 83.3755 69.0311C83.4757 68.5471 83.5678 68.0547 83.6351 67.5707C83.7371 66.5691 83.7816 65.5591 83.7932 64.549C83.8219 60.926 83.5802 57.0437 82.1948 53.6518C82.0969 53.4345 81.9908 53.2089 81.8765 52.9917C81.8684 52.9666 81.8602 52.9582 81.8438 52.9415C80.6925 50.7772 79.0634 48.9625 77.1537 47.5313C77.0145 47.3892 76.8835 47.2553 76.7525 47.1215C76.6623 47.0629 76.5721 46.9876 76.4819 46.929C75.3916 46.1672 74.2436 45.4638 73.0624 44.8605C70.7235 43.9961 68.2352 43.5489 65.7454 43.5858C64.1676 43.6162 62.6383 43.8804 61.1252 44.2448C60.7798 44.3276 60.4261 44.4188 60.0807 44.5016C60.0149 44.5349 59.9491 44.5681 59.8832 44.6014C59.6939 44.6928 59.5128 44.7927 59.3235 44.8841C58.0566 45.3158 56.7894 45.8643 55.5719 46.2627C55.3086 46.3624 55.0619 46.4287 54.807 46.4866ZM80.5128 65.0853C80.5046 65.077 80.4964 65.0853 80.4882 65.0769C80.538 64.9268 80.5878 64.7766 80.6294 64.6181C80.5878 64.7766 80.5462 64.9351 80.5128 65.0853ZM75.3381 47.4193C75.3299 47.411 75.3217 47.4026 75.3136 47.3942C75.3217 47.4026 75.3299 47.411 75.3381 47.4193C75.3464 47.411 75.3381 47.4193 75.3381 47.4193Z" fill="black"/>
</svg>
