<svg width="21" height="38" viewBox="0 0 21 38" fill="none" xmlns="http://www.w3.org/2000/svg">
<path fill-rule="evenodd" clip-rule="evenodd" d="M10.9928 8.00283C12.3021 9.34327 13.3294 10.9942 14 12.8357C13.2644 13.7947 12.645 14.8587 12.1579 16C11.7899 15.6129 11.5344 15.3896 11.4929 15.355L10.9965 14.9233L10.4976 15.355C10.4561 15.3903 10.2152 15.6044 9.85845 15.9732C9.36594 14.8284 8.74107 13.7616 8 12.8004C8.67101 10.9726 9.69289 9.33348 10.9928 8" fill="black"/>
<path fill-rule="evenodd" clip-rule="evenodd" d="M5.77759 13C7.18838 14.0471 8.28712 15.3109 9 16.7065C7.94724 17.6893 7.12909 18.8039 6.58246 20C5.14303 19.4681 3.59238 19.1303 2 19.0016V18.9014C2.06169 16.1032 4.63344 13.8615 5.77686 13.0022" fill="black"/>
<path fill-rule="evenodd" clip-rule="evenodd" d="M15.7679 13C16.7489 13.8612 18.9469 16.102 19 18.8968V18.9986C17.6318 19.1241 16.295 19.4625 15.044 20C14.5741 18.8059 13.8819 17.7004 13 16.7356C13.6213 15.3152 14.5662 14.041 15.7679 13.0033" fill="black"/>
<path fill-rule="evenodd" clip-rule="evenodd" d="M11 17C12.2121 17.9527 14.9334 20.4315 14.9986 23.5261C15.0497 25.7654 13.7013 27.9407 11 30C8.29569 27.9401 6.95171 25.7654 7.00132 23.5261C7.06871 20.4315 9.79 17.9527 11 17" fill="black"/>
<path fill-rule="evenodd" clip-rule="evenodd" d="M0 21.0033C2.04357 20.9571 4.06788 21.4002 5.89818 22.2943C5.82288 22.7278 5.78185 23.1663 5.77546 23.606C5.72286 26.198 6.80782 28.6769 9 31C6.25354 30.8794 4.10654 30.0481 2.59407 28.5086C0.20971 26.0854 -0.0155098 22.4898 0.00134788 21.0033" fill="black"/>
<path fill-rule="evenodd" clip-rule="evenodd" d="M20.9987 21.0032C21.0196 22.4904 20.8189 26.0854 18.6986 28.5086C17.3532 30.0448 15.4421 30.8794 13 31C14.9501 28.6775 15.9131 26.198 15.8676 23.6059C15.8611 23.1663 15.8247 22.7279 15.7585 22.2943C17.3846 21.4004 19.183 20.9573 20.9987 21.0032" fill="black"/>
<path d="M10.9997 33L8 38H14L10.9997 33Z" fill="black"/>
<path d="M10.9997 6L8 0H14L10.9997 6Z" fill="black"/>
</svg>
