<svg width="144" height="44" viewBox="0 0 144 44" fill="none" xmlns="http://www.w3.org/2000/svg">
<circle cx="11.5" cy="32.5" r="10" stroke="#977541" stroke-width="3"/>
<path fill-rule="evenodd" clip-rule="evenodd" d="M43.2993 0.5H44.5001V1.5H43.7008L43.1115 2.06428L42.4199 1.34197L43.2993 0.5ZM48.5001 1.5H46.5001V0.5H48.5001V1.5ZM52.5001 1.5H50.5001V0.5H52.5001V1.5ZM56.5001 1.5H54.5001V0.5H56.5001V1.5ZM60.5001 1.5H58.5001V0.5H60.5001V1.5ZM64.5001 1.5H62.5001V0.5H64.5001V1.5ZM68.5001 1.5H66.5001V0.5H68.5001V1.5ZM72.5001 1.5H70.5001V0.5H72.5001V1.5ZM76.5001 1.5H74.5001V0.5H76.5001V1.5ZM80.5001 1.5H78.5001V0.5H80.5001V1.5ZM84.5001 1.5H82.5001V0.5H84.5001V1.5ZM88.5001 1.5H86.5001V0.5H88.5001V1.5ZM92.5001 1.5H90.5001V0.5H92.5001V1.5ZM96.5001 1.5H94.5001V0.5H96.5001V1.5ZM100.5 1.5H98.5001V0.5H100.5V1.5ZM104.5 1.5H102.5V0.5H104.5V1.5ZM108.5 1.5H106.5V0.5H108.5V1.5ZM112.5 1.5H110.5V0.5H112.5V1.5ZM116.5 1.5H114.5V0.5H116.5V1.5ZM120.5 1.5H118.5V0.5H120.5V1.5ZM124.5 1.5H122.5V0.5H124.5V1.5ZM128.5 1.5H126.5V0.5H128.5V1.5ZM132.5 1.5H130.5V0.5H132.5V1.5ZM136.5 1.5H134.5V0.5H136.5V1.5ZM140.5 1.5H138.5V0.5H140.5V1.5ZM143.5 1.5H142.5V0.5H143.5V1.5ZM41.6427 3.47053L40.174 4.87678L39.4824 4.15447L40.9512 2.74822L41.6427 3.47053ZM38.7052 6.28303L37.2365 7.68928L36.5449 6.96697L38.0137 5.56072L38.7052 6.28303ZM35.7677 9.09553L34.299 10.5018L33.6074 9.77947L35.0762 8.37322L35.7677 9.09553ZM32.8302 11.908L31.3615 13.3143L30.6699 12.592L32.1387 11.1857L32.8302 11.908ZM29.8927 14.7205L28.424 16.1268L27.7324 15.4045L29.2012 13.9982L29.8927 14.7205ZM26.9552 17.533L25.4865 18.9393L24.7949 18.217L26.2637 16.8107L26.9552 17.533ZM24.0177 20.3455L22.549 21.7518L21.8574 21.0295L23.3262 19.6232L24.0177 20.3455ZM21.0802 23.158L20.3459 23.8612L19.6543 23.1388L20.3887 22.4357L21.0802 23.158Z" fill="#7B6744"/>
</svg>
