<svg width="22" height="22" viewBox="0 0 22 22" fill="none" xmlns="http://www.w3.org/2000/svg">
<path d="M8.89502 11C8.89502 12.1628 9.83765 13.1055 11.0005 13.1055C12.1633 13.1055 13.106 12.1628 13.106 11C13.106 9.83716 12.1633 8.89453 11.0005 8.89453C9.83765 8.89453 8.89502 9.83716 8.89502 11Z" fill="black"/>
<path d="M6.07635 7.27483C6.17757 7.00056 6.33904 6.75232 6.54884 6.54855C6.75261 6.33875 7.00069 6.17728 7.27512 6.07607C7.49768 5.98962 7.83203 5.88673 8.44786 5.8587C9.11404 5.82832 9.31378 5.82178 11.0003 5.82178C12.687 5.82178 12.8867 5.82816 13.5527 5.85854C14.1686 5.88673 14.5031 5.98962 14.7255 6.07607C14.9999 6.17728 15.2482 6.33875 15.4518 6.54855C15.6616 6.75232 15.823 7.0004 15.9244 7.27483C16.0109 7.49739 16.1138 7.83191 16.1418 8.44774C16.1722 9.11375 16.1787 9.31349 16.1787 11.0002C16.1787 12.6867 16.1722 12.8864 16.1418 13.5526C16.1138 14.1685 16.0109 14.5028 15.9244 14.7254C15.823 14.9998 15.6617 15.2479 15.4519 15.4516C15.2482 15.6615 15.0001 15.8229 14.7257 15.9241C14.5031 16.0107 14.1686 16.1136 13.5527 16.1417C12.8867 16.172 12.6872 16.1784 11.0005 16.1784C9.31361 16.1784 9.11388 16.172 8.44803 16.1417C7.8322 16.1136 7.49768 16.0107 7.27512 15.9241C6.72424 15.7116 6.28885 15.2762 6.07635 14.7254C5.98991 14.5028 5.88702 14.1685 5.85883 13.5526C5.82845 12.8864 5.82207 12.6867 5.82207 11.0002C5.82207 9.31349 5.82845 9.11375 5.85883 8.44774C5.88686 7.83191 5.98975 7.49739 6.07635 7.27483V7.27483ZM11.0003 14.2435C12.7917 14.2435 14.2439 12.7914 14.2439 11C14.2439 9.20859 12.7917 7.75655 11.0003 7.75655C9.20905 7.75655 7.75684 9.20859 7.75684 11C7.75684 12.7914 9.20905 14.2435 11.0003 14.2435ZM7.6286 8.38631C8.04721 8.38631 8.3866 8.04692 8.3866 7.62831C8.3866 7.2097 8.04721 6.87032 7.6286 6.87032C7.20999 6.87032 6.87061 7.2097 6.87061 7.62831C6.87077 8.04692 7.20999 8.38631 7.6286 8.38631Z" fill="black"/>
<path d="M11 0C17.0742 0 22 4.9258 22 11C22 17.0742 17.0742 22 11 22C4.9258 22 2.27907e-06 17.0742 2.27907e-06 11C2.27907e-06 4.9258 4.9258 0 11 0ZM4.7217 13.6041C4.75224 14.2765 4.85916 14.7356 5.01526 15.1374C5.3434 15.9859 6.01412 16.6566 6.86258 16.9847C7.26424 17.1408 7.72347 17.2476 8.39569 17.2783C9.06926 17.309 9.28444 17.3164 10.9998 17.3164C12.7154 17.3164 12.9304 17.309 13.6041 17.2783C14.2764 17.2476 14.7356 17.1408 15.1373 16.9847C15.5589 16.8261 15.9406 16.5775 16.2561 16.2561C16.5774 15.9407 16.826 15.5589 16.9846 15.1374C17.1407 14.7358 17.2476 14.2765 17.2781 13.6043C17.3092 12.9306 17.3164 12.7154 17.3164 11C17.3164 9.28461 17.3092 9.06943 17.2783 8.39586C17.2478 7.72346 17.141 7.2644 16.9849 6.86258C16.8263 6.44112 16.5775 6.05927 16.2561 5.74388C15.9407 5.42246 15.5589 5.17387 15.1374 5.01526C14.7356 4.85916 14.2765 4.75241 13.6041 4.7217C12.9306 4.69098 12.7154 4.68359 11 4.68359C9.28461 4.68359 9.06943 4.69098 8.39586 4.72186C7.72347 4.75241 7.26441 4.85916 6.86258 5.01509C6.44112 5.17371 6.05927 5.42246 5.74372 5.74388C5.42246 6.05943 5.17371 6.44112 5.01526 6.86258C4.859 7.2644 4.75224 7.72346 4.72153 8.39586C4.69081 9.06943 4.6836 9.28461 4.6836 11C4.6836 12.7154 4.69081 12.9306 4.7217 13.6041V13.6041Z" fill="black"/>
</svg>
