<svg width="97" height="53" viewBox="0 0 97 53" fill="none" xmlns="http://www.w3.org/2000/svg">
<path d="M23.5401 25.9844C18.3812 25.9844 14.1992 29.9134 14.1992 34.7597C14.1992 39.6059 18.3812 43.5349 23.5401 43.5349C28.6989 43.5349 32.8809 39.6064 32.8809 34.7597C32.8809 29.9134 28.6989 25.9844 23.5401 25.9844ZM23.5401 39.318C20.9615 39.318 18.871 37.2772 18.871 34.7597C18.871 32.2421 20.9615 30.2014 23.5401 30.2014C26.1191 30.2014 28.2092 32.2421 28.2092 34.7597C28.2092 37.2772 26.1186 39.318 23.5401 39.318Z" fill="#005CB9"/>
<path d="M72.9991 25.9844C67.8402 25.9844 63.6582 29.9134 63.6582 34.7597C63.6582 39.6059 67.8402 43.5349 72.9991 43.5349C78.1579 43.5349 82.3399 39.6064 82.3399 34.7597C82.3395 29.9134 78.1575 25.9844 72.9991 25.9844ZM72.9991 39.318C70.4205 39.318 68.33 37.2772 68.33 34.7597C68.33 32.2421 70.4205 30.2014 72.9991 30.2014C75.5776 30.2014 77.6682 32.2421 77.6682 34.7597C77.6682 37.2772 75.5776 39.318 72.9991 39.318Z" fill="#005CB9"/>
<path d="M54.3929 25.6465C49.6538 25.6465 48.2894 28.722 48.2894 28.722C48.2894 28.722 46.925 25.6465 42.186 25.6465C37.3222 25.6465 33.6924 29.0898 33.6924 32.8618V33.3453C33.6924 35.3601 33.6924 37.9687 33.6924 40.0072C33.6924 41.882 33.6924 43.2746 33.6924 43.2746H33.7014H33.7547H38.3785H38.4287H38.4319V34.2262C38.4319 34.2262 38.4153 33.67 38.601 32.9717C38.6046 32.9587 38.6082 32.9452 38.6117 32.9318C38.6391 32.8322 38.6714 32.7299 38.7077 32.6259C38.7149 32.6053 38.7221 32.5846 38.7297 32.564C38.7656 32.4658 38.8073 32.3662 38.8526 32.2666C38.8643 32.2415 38.8746 32.2159 38.8867 32.1908C38.9306 32.0993 38.9818 32.0083 39.0342 31.9177C39.0535 31.8845 39.0706 31.8509 39.0917 31.8181C39.1621 31.7055 39.2392 31.5947 39.3253 31.4876C39.3401 31.4687 39.3581 31.4517 39.3733 31.4333C39.4505 31.3413 39.5326 31.2516 39.6227 31.1655C39.6451 31.144 39.6693 31.1234 39.6927 31.1023C39.7864 31.018 39.8869 30.9377 39.995 30.8619C40.0156 30.8475 40.0349 30.8323 40.056 30.8184C40.3179 30.6439 40.6242 30.499 40.9772 30.3923C41.0194 30.3797 41.0633 30.3694 41.1069 30.3577C41.2459 30.321 41.393 30.2909 41.5469 30.2671C41.6002 30.2586 41.6523 30.2496 41.7074 30.2429C41.9119 30.2182 42.1254 30.2016 42.3564 30.2016C46.4088 30.2025 45.8988 34.2706 45.8988 34.2706V43.2742H45.9078H45.9213H45.9284H50.6572V43.2446C50.6608 43.2553 50.667 43.263 50.6706 43.2742H50.6796V34.2706C50.6796 34.2706 50.1665 30.2016 54.2207 30.2016C58.2748 30.2016 58.1474 34.2262 58.1474 34.2262V43.2746H58.1506H58.2008H62.8775H62.8865C62.8865 43.2746 62.8865 41.882 62.8865 40.0072C62.8865 37.8009 62.8865 34.9268 62.8865 32.8618C62.8865 29.0898 59.2566 25.6465 54.3929 25.6465Z" fill="#005CB9"/>
<path d="M6.42952 32.6512C4.15194 32.0139 4.60584 29.7125 6.86548 29.7125C8.69813 29.7125 8.93271 30.9419 8.95603 31.4079L8.95648 31.581L13.7341 31.5779C13.7283 28.022 10.276 26.4177 10.276 26.4177C4.89334 24.2289 0.459732 27.7103 0.195554 30.4862C-0.0713146 33.2652 1.60121 34.4067 2.87635 35.2432C4.15149 36.0797 6.83274 36.4977 8.03074 36.8772C9.22873 37.2597 9.09552 38.3806 9.09552 38.3806C9.09552 38.3806 9.17267 39.7952 6.83588 39.7952C5.02745 39.7952 4.76641 38.7399 4.7413 38.259L4.74085 38.0841C4.7413 38.0765 4.74174 38.0662 4.74219 38.0599C4.74085 38.0603 4.73861 38.0617 4.73726 38.0621L0 38.0298C0.00358815 39.174 1.28815 43.7664 6.33758 43.7902C11.3942 43.8108 13.8557 41.3525 13.8557 37.5028C13.8557 33.9026 8.7071 33.289 6.42952 32.6512Z" fill="#005CB9"/>
<path d="M88.9022 32.6511C86.6246 32.0138 87.0785 29.7125 89.3381 29.7125C91.1708 29.7125 91.4054 30.9414 91.4287 31.4079L91.4291 31.581L96.2068 31.5778C96.2009 28.022 92.7487 26.4176 92.7487 26.4176C87.366 24.2289 82.9324 27.7107 82.6682 30.4866C82.4013 33.2656 84.0739 34.4071 85.349 35.2436C86.6241 36.0801 89.3049 36.4981 90.5034 36.8775C91.7014 37.2601 91.5682 38.381 91.5682 38.381C91.5682 38.381 91.6453 39.7956 89.3085 39.7956C87.5006 39.7956 87.2391 38.7407 87.214 38.2599L87.2135 38.085C87.2139 38.0773 87.2144 38.067 87.2148 38.0607C87.2135 38.0612 87.2113 38.0625 87.2099 38.063L82.4727 38.0302C82.4762 39.1744 83.7608 43.7668 88.8102 43.7906C93.8668 43.8112 96.3283 41.3529 96.3283 37.5032C96.3283 33.9025 91.1798 33.2889 88.9022 32.6511Z" fill="#005CB9"/>
<path d="M47.4261 21.3145C46.9686 21.2468 46.5322 21.1172 46.124 20.9324C45.5463 20.6763 45.0234 20.3152 44.5847 19.8788C43.9411 19.237 43.4688 18.4296 43.2409 17.5245C43.1414 17.1236 43.0885 16.706 43.0885 16.275C43.0885 15.9287 43.145 15.573 43.2463 15.2097C43.3988 14.6697 43.6491 14.1162 43.9635 13.565C44.1573 13.2205 44.3757 12.8765 44.6107 12.5374C45.0772 11.8584 45.6082 11.1977 46.1236 10.5824C46.4174 10.2325 46.7071 9.89747 46.978 9.58126C47.0996 9.43908 47.2153 9.30497 47.3274 9.174C48.551 7.51762 49.7638 5.75405 49.6678 5.37011C49.4973 4.68522 48.9461 4.52196 48.4716 4.89244C48.4644 4.89782 48.4554 4.89827 48.4492 4.905L44.1851 9.44312C44.1505 9.47765 44.0954 9.43325 44.1223 9.39198L47.527 4.19454C47.527 4.19454 48.6671 2.5718 48.0684 1.93446C47.0605 0.862495 46.1254 2.25784 46.1254 2.25784L41.7478 7.47277C41.7232 7.50237 41.6761 7.47187 41.694 7.43734C42.2363 6.39363 44.2425 2.54354 44.5403 2.13539C44.8852 1.66265 45.1615 0.438644 44.5591 0.10674C43.6442 -0.396947 42.8175 1.04549 42.8175 1.04549L38.9912 6.38511C38.9616 6.42593 38.8979 6.39049 38.9181 6.3443C39.4308 5.17949 40.967 1.63126 41.123 0.967448C41.28 0.298258 40.2372 -0.214848 39.3814 0.892994C39.1034 1.25271 38.2238 2.40136 37.4362 3.97656C37.3927 4.06358 37.0962 4.79018 37.0877 4.81574C36.6414 6.10568 36.4854 7.16778 36.4854 8.60797C36.4854 15.5255 41.4316 21.2481 48.3787 21.3872C48.3841 21.3805 48.3989 21.3724 48.4106 21.3648C48.337 21.3679 48.2639 21.3728 48.1899 21.3728C47.9289 21.3728 47.6728 21.354 47.4261 21.3145Z" fill="#005CB9"/>
<path d="M49.1855 21.0751C49.1948 21.0734 49.2018 21.0703 49.204 21.0659C49.2242 21.0277 49.2163 21.0356 49.1855 21.0751Z" fill="#005CB9"/>
<path d="M59.3671 4.90085C59.3581 4.87528 59.0621 4.14913 59.0186 4.06167C58.231 2.48647 57.3514 1.33736 57.0738 0.9781C56.218 -0.129742 55.1748 0.383812 55.3322 1.05255C55.4883 1.71636 57.0245 5.26505 57.5371 6.4294C57.5573 6.4756 57.4936 6.51103 57.464 6.47022L53.6373 1.1306C53.6373 1.1306 52.8106 -0.31229 51.8957 0.191846C51.2933 0.52375 51.5696 1.74776 51.9145 2.2205C52.2123 2.62865 54.2185 6.47874 54.7608 7.52289C54.7787 7.55698 54.7321 7.58748 54.707 7.55788L50.3294 2.34294C50.3294 2.34294 49.3938 0.947152 48.3864 2.01956C47.7872 2.65691 48.9278 4.27965 48.9278 4.27965L52.3325 9.47709C52.3594 9.51791 52.3043 9.56276 52.2697 9.52822L48.0052 4.9901C47.9989 4.98338 47.99 4.98293 47.9828 4.97755C47.5082 4.60707 46.9575 4.77078 46.7866 5.45522C46.6897 5.84364 47.9307 7.64265 49.1682 9.31518C49.2431 9.40219 49.3189 9.4901 49.3974 9.58204C49.6683 9.89646 49.9581 10.2315 50.25 10.5796C50.429 10.7921 50.6093 11.0124 50.7901 11.2362C51.3431 11.9265 51.8813 12.6584 52.3159 13.3958C52.4971 13.6492 52.6644 13.9439 52.803 14.3287C53.1026 14.9948 53.2874 15.6523 53.2874 16.2757C53.2874 17.6832 52.7191 18.9534 51.7934 19.8791C51.4 20.2743 50.943 20.5999 50.4425 20.8484C50.3783 20.8784 50.3164 20.9107 50.2505 20.9386C49.8441 21.1211 49.4073 21.2471 48.9561 21.3149C48.704 21.3543 48.4479 21.3732 48.19 21.3732C47.9285 21.3732 47.6724 21.3543 47.4262 21.3149C47.7765 21.3732 48.2528 21.4086 48.6013 21.3732C55.0492 20.7179 59.9703 15.2558 59.9703 8.69263C59.969 7.25288 59.8134 6.19079 59.3671 4.90085Z" fill="#00A0DF"/>
<path d="M9.13517 51.6959C9.13517 51.9574 8.93154 52.1682 8.6557 52.1682C8.4449 52.1682 8.28522 52.0449 8.19059 51.8193L7.98696 51.325H5.9592L5.75558 51.8193C5.66856 52.0444 5.50844 52.1682 5.29764 52.1682C5.02135 52.1682 4.81055 51.9574 4.81055 51.6959C4.81055 51.6233 4.83252 51.5358 4.86841 51.4344L6.51133 47.5314C6.59834 47.3134 6.75847 47.1973 6.97645 47.1973C7.19443 47.1973 7.35455 47.3134 7.44156 47.5314L9.07686 51.4344C9.12082 51.5358 9.13517 51.6233 9.13517 51.6959ZM6.27855 50.5181H7.65954L6.97645 48.6428L6.27855 50.5181Z" fill="#00A0DF"/>
<path d="M11.0029 49.681C11.0029 48.278 12.122 47.1953 13.5685 47.1953C14.2228 47.1953 14.8768 47.4572 15.2692 47.8712C15.48 48.0677 15.5671 48.2202 15.5671 48.3875C15.5671 48.6274 15.3634 48.8306 15.1163 48.8306C14.9638 48.8306 14.8472 48.7723 14.7019 48.6126C14.3749 48.2637 14.0188 48.104 13.5537 48.104C12.645 48.104 12.0125 48.7436 12.0125 49.6815C12.0125 50.6337 12.6669 51.2876 13.6115 51.2876C14.1421 51.2876 14.6001 51.0768 14.8763 50.7135V50.2991H13.9605C13.699 50.2991 13.5025 50.1174 13.5025 49.8775C13.5025 49.6303 13.6985 49.4487 13.9605 49.4487H15.3558C15.6464 49.4487 15.8573 49.6595 15.8573 49.9501V50.5677C15.8573 50.7857 15.8137 50.9458 15.7048 51.1127C15.2688 51.7523 14.4184 52.1667 13.5676 52.1667C12.122 52.1667 11.0029 51.0835 11.0029 49.681Z" fill="#00A0DF"/>
<path d="M18.1182 50.0954V47.6968C18.1182 47.4133 18.329 47.1953 18.6124 47.1953C18.8887 47.1953 19.0995 47.4133 19.0995 47.6968V50.1681C19.0995 50.8368 19.5068 51.2584 20.1535 51.2584C20.8003 51.2584 21.2076 50.8368 21.2076 50.1681V47.6968C21.2076 47.4133 21.4184 47.1953 21.7018 47.1953C21.9781 47.1953 22.1889 47.4133 22.1889 47.6968V50.0954C22.1889 51.3311 21.3677 52.1667 20.154 52.1667C18.9394 52.1671 18.1182 51.3311 18.1182 50.0954Z" fill="#00A0DF"/>
<path d="M28.5336 51.6949C28.5336 51.9564 28.33 52.1672 28.0541 52.1672C27.8433 52.1672 27.6837 52.0439 27.589 51.8183L27.3854 51.324H25.3576L25.154 51.8183C25.067 52.0434 24.9069 52.1672 24.6961 52.1672C24.4198 52.1672 24.209 51.9564 24.209 51.6949C24.209 51.6223 24.231 51.5348 24.2673 51.4335L25.9098 47.5304C25.9968 47.3125 26.1569 47.1963 26.3749 47.1963C26.5929 47.1963 26.753 47.3125 26.84 47.5304L28.4753 51.4335C28.5193 51.5348 28.5336 51.6223 28.5336 51.6949ZM25.677 50.5171H27.058L26.3749 48.6419L25.677 50.5171Z" fill="#00A0DF"/>
<path d="M33.9053 51.6661V47.7846C33.9053 47.494 34.1161 47.2832 34.4067 47.2832H35.715C36.7399 47.2832 37.4378 47.9084 37.4378 48.8315C37.4378 49.7474 36.7256 50.387 35.715 50.387H34.8862V51.6661C34.8862 51.9496 34.6754 52.1676 34.3991 52.1676C34.1161 52.1676 33.9053 51.9496 33.9053 51.6661ZM35.7079 49.5289C36.1586 49.5289 36.4349 49.2598 36.4349 48.831C36.4349 48.4166 36.1586 48.1479 35.7079 48.1479H34.8866V49.5289H35.7079Z" fill="#00A0DF"/>
<path d="M43.1073 51.6949C43.1073 51.9564 42.9037 52.1672 42.6274 52.1672C42.4166 52.1672 42.2565 52.0439 42.1623 51.8183L41.9586 51.324H39.9309L39.7273 51.8183C39.6402 52.0434 39.4801 52.1672 39.2693 52.1672C38.993 52.1672 38.7822 51.9564 38.7822 51.6949C38.7822 51.6223 38.8042 51.5348 38.8405 51.4335L40.483 47.5304C40.5705 47.3125 40.7301 47.1963 40.9481 47.1963C41.1661 47.1963 41.3262 47.3125 41.4132 47.5304L43.0485 51.4335C43.0925 51.5348 43.1073 51.6223 43.1073 51.6949ZM40.2507 50.5171H41.6317L40.9486 48.6419L40.2507 50.5171Z" fill="#00A0DF"/>
<path d="M49.1409 51.7168C49.1409 51.964 48.9301 52.1676 48.683 52.1676C48.5085 52.1676 48.3632 52.0806 48.247 51.9133L47.1714 50.387H47.1643H46.3359V51.6661C46.3359 51.9496 46.125 52.1676 45.8488 52.1676C45.5653 52.1676 45.3545 51.9496 45.3545 51.6661V47.7775C45.3545 47.494 45.5653 47.2832 45.8559 47.2832H47.1643C48.1891 47.2832 48.8866 47.9084 48.8866 48.8239C48.8866 49.4056 48.6031 49.8779 48.138 50.1466L49.0027 51.3459C49.0902 51.4773 49.1409 51.6006 49.1409 51.7168ZM46.3354 49.5218H47.1566C47.6074 49.5218 47.8832 49.2527 47.8832 48.831C47.8832 48.4166 47.5998 48.1479 47.1566 48.1479H46.3354V49.5218Z" fill="#00A0DF"/>
<path d="M55.4784 51.6949C55.4784 51.9564 55.2748 52.1672 54.9985 52.1672C54.7877 52.1672 54.628 52.0439 54.5334 51.8183L54.3297 51.324H52.302L52.0983 51.8183C52.0113 52.0434 51.8512 52.1672 51.6404 52.1672C51.3641 52.1672 51.1533 51.9564 51.1533 51.6949C51.1533 51.6223 51.1753 51.5348 51.2116 51.4335L52.8541 47.5304C52.9411 47.3125 53.1012 47.1963 53.3192 47.1963C53.5372 47.1963 53.6973 47.3125 53.7843 47.5304L55.4196 51.4335C55.4636 51.5348 55.4784 51.6223 55.4784 51.6949ZM52.6218 50.5171H54.0028L53.3197 48.6419L52.6218 50.5171Z" fill="#00A0DF"/>
<path d="M61.5771 51.6661V48.1699H60.4361C60.1818 48.1699 59.9854 47.9735 59.9854 47.7263C59.9854 47.472 60.1818 47.2832 60.4361 47.2832H63.6995C63.961 47.2832 64.1503 47.472 64.1503 47.7263C64.1503 47.9735 63.9538 48.1699 63.6995 48.1699H62.5585V51.6661C62.5585 51.9496 62.3477 52.1676 62.0642 52.1676C61.7879 52.1676 61.5771 51.9496 61.5771 51.6661Z" fill="#00A0DF"/>
<path d="M70.9324 49.681C70.9324 51.0692 69.8058 52.1667 68.3741 52.1667C66.9424 52.1667 65.8301 51.0763 65.8301 49.681C65.8301 48.2857 66.9491 47.1953 68.3741 47.1953C69.8058 47.1949 70.9324 48.2924 70.9324 49.681ZM66.8401 49.681C66.8401 50.6041 67.4797 51.2585 68.3813 51.2585C69.2752 51.2585 69.9219 50.5969 69.9219 49.681C69.9219 48.7651 69.2752 48.1036 68.3813 48.1036C67.4802 48.1036 66.8401 48.758 66.8401 49.681Z" fill="#00A0DF"/>
<path d="M77.3935 49.6671C77.3935 51.0916 76.318 52.0801 74.784 52.0801H73.7085C73.4178 52.0801 73.207 51.8693 73.207 51.5787V47.7846C73.207 47.494 73.4178 47.2832 73.7085 47.2832H74.784C76.3395 47.2832 77.3935 48.2426 77.3935 49.6671ZM74.1879 48.1699V51.1934H74.7768C75.7434 51.1934 76.3902 50.5901 76.3902 49.6671C76.3902 48.744 75.7726 48.1699 74.7768 48.1699H74.1879Z" fill="#00A0DF"/>
<path d="M84.5096 49.681C84.5096 51.0692 83.3829 52.1667 81.9512 52.1667C80.5196 52.1667 79.4072 51.0763 79.4072 49.681C79.4072 48.2857 80.5267 47.1953 81.9512 47.1953C83.3833 47.1949 84.5096 48.2924 84.5096 49.681ZM80.4177 49.681C80.4177 50.6041 81.0573 51.2585 81.9589 51.2585C82.8527 51.2585 83.5 50.5969 83.5 49.681C83.5 48.7651 82.8532 48.1036 81.9589 48.1036C81.0573 48.1036 80.4177 48.758 80.4177 49.681Z" fill="#00A0DF"/>
<path d="M86.7617 51.5204C86.6456 51.4042 86.5801 51.2804 86.5801 51.1423C86.5873 50.8808 86.7981 50.7063 87.0308 50.7063C87.1183 50.7063 87.2125 50.7355 87.2851 50.801C87.4811 51.0046 87.8229 51.2952 88.31 51.2952C88.7388 51.2952 88.9931 51.0916 88.9931 50.7646C88.9931 50.4883 88.8258 50.3722 88.3827 50.1685L87.8664 49.9358C87.103 49.5868 86.7034 49.1724 86.7034 48.5548C86.7034 47.7479 87.3865 47.1953 88.2952 47.1953C89.0146 47.1953 89.4362 47.5295 89.6399 47.7622C89.7417 47.8712 89.7708 47.9802 89.7708 48.0749C89.7708 48.322 89.5452 48.5108 89.3201 48.5108C89.2326 48.5108 89.1384 48.4817 89.051 48.409C88.8545 48.2345 88.6365 48.0672 88.2952 48.0672C87.9463 48.0672 87.6991 48.2345 87.6991 48.5323C87.6991 48.7723 87.8301 48.8885 88.2589 49.0849L88.8038 49.3249C89.6035 49.681 89.9884 50.0735 89.9884 50.7278C89.9884 51.6146 89.269 52.1671 88.3096 52.1671C87.7431 52.1671 87.1183 51.9128 86.7617 51.5204Z" fill="#00A0DF"/>
</svg>
