<svg width="20" height="22" viewBox="0 0 20 22" fill="none" xmlns="http://www.w3.org/2000/svg">
<path d="M17.0937 6.53323H11.0111V6.23699C11.695 6.06728 12.305 5.67925 12.7486 5.13169C13.1922 4.58414 13.4452 3.90691 13.4693 3.20264C13.4219 2.31028 13.0232 1.47296 12.3604 0.873588C11.6976 0.274221 10.8245 -0.038462 9.93191 0.00385062C9.03918 -0.038777 8.1659 0.273896 7.5031 0.873472C6.8403 1.47305 6.44194 2.31072 6.39516 3.20325C6.41972 3.90757 6.67305 4.58472 7.1168 5.13222C7.56056 5.67971 8.17059 6.06775 8.85456 6.23759V6.53383H2.88986L0 22H19.9793L17.0937 6.53323ZM8.32133 3.20325C8.34339 2.79702 8.525 2.41595 8.82663 2.14296C9.12826 1.86998 9.52551 1.72717 9.93191 1.74562C10.3392 1.72569 10.7378 1.86785 11.0405 2.14101C11.3432 2.41417 11.5254 2.79609 11.5473 3.20325C11.5257 3.61018 11.344 3.99203 11.0417 4.26538C10.7395 4.53872 10.3414 4.68134 9.93433 4.66208C9.52777 4.68036 9.13044 4.53734 8.82881 4.26413C8.52718 3.99091 8.34566 3.60963 8.32375 3.20325" fill="black"/>
</svg>
