<svg width="99" height="70" viewBox="0 0 99 70" fill="none" xmlns="http://www.w3.org/2000/svg">
<path d="M33.8629 69.7678C33.5014 69.6395 33.1166 69.6395 32.7493 69.552C31.4491 69.243 30.2889 68.6775 29.2744 67.8029C29.1928 67.7271 29.117 67.6863 28.9887 67.6921C27.0763 67.7155 25.3097 67.319 23.8929 65.9314C23.7996 65.8439 23.7239 65.8439 23.6247 65.8672C21.2634 66.4444 19.217 65.8672 17.4737 64.1997C17.3804 64.1123 17.2988 64.0948 17.1822 64.1065C15.3106 64.3047 13.5731 63.8966 11.9873 62.8879C11.8882 62.8238 11.8007 62.8063 11.6783 62.8179C9.64929 63.0978 7.67279 62.8762 5.74876 62.1708C4.15124 61.5819 2.74611 60.684 1.52173 59.5063C1.23021 59.2264 1.27102 59.0165 1.44011 58.655C1.74329 57.9904 2.32633 57.7455 2.93852 57.5065C5.76042 56.387 8.68728 55.6174 11.6608 55.0111C14.5177 54.4338 17.3979 53.9907 20.2664 53.4718C23.7996 52.8363 27.3095 52.0959 30.6853 50.8307C32.5336 50.1368 34.6208 49.134 35.8919 48.3119C35.4138 47.863 34.9415 47.4199 34.4751 46.9651C33.6064 46.1197 32.691 45.3209 31.9622 44.3473C31.6882 43.98 31.4375 43.5951 31.2625 43.1695C31.1809 42.9771 31.0585 42.878 30.8661 42.8022C29.4026 42.2658 28.2949 41.3096 27.5544 39.9395C27.4553 39.7588 27.362 39.5605 27.3095 39.3623C27.1521 38.7793 26.8081 38.3653 26.2601 38.0971C25.6945 37.8172 25.164 37.4674 24.6917 37.0418C23.6539 36.1089 22.9018 34.9895 22.4353 33.6835C22.377 33.5202 22.2954 33.4386 22.1322 33.3803C19.87 32.5116 18.3074 30.949 17.4795 28.6752C17.3687 28.372 17.3104 28.0397 17.2521 27.719C17.1822 27.3167 16.9664 27.0427 16.5991 26.8678C14.4594 25.83 13.2641 24.0808 12.7919 21.8012C12.7394 21.533 12.6986 21.2589 12.7161 20.9791C12.7336 20.74 12.617 20.5943 12.3954 20.4951C9.8417 19.3349 8.37244 17.3234 7.80106 14.6181C7.72527 14.2683 7.68445 13.9126 7.68445 13.557C7.68445 13.3762 7.61449 13.2771 7.47456 13.178C6.53587 12.49 5.6788 11.7204 5.01413 10.7584C4.37279 9.8372 3.97049 8.82854 3.99965 7.68579C4.00548 7.51087 3.90053 7.44674 3.78975 7.36511C2.74028 6.5955 1.77827 5.7326 1.03781 4.64815C0.483922 3.82607 0.104947 2.93402 0.0116608 1.93119C0.00583039 1.66882 0.00583039 1.40063 0 1.13243C0.0233216 0.951686 0.0233216 0.770944 0.00583039 0.584371C-0.0233216 0.158753 0.233216 -0.0569713 0.647173 0.0129933C7.38127 1.17324 13.8005 3.31882 19.9574 6.25734C25.129 8.72359 30.0032 11.6971 34.6325 15.0729C38.4339 17.8482 42.0371 20.8566 45.4829 24.0633C47.6168 26.0457 49.6866 28.0921 51.6981 30.1969C51.8496 30.3543 51.9371 30.2844 52.0595 30.1911C54.0419 28.6985 55.6044 26.8561 56.7297 24.6464C57.371 23.387 57.9016 22.0694 58.5954 20.8333C60.1463 18.058 62.5367 16.478 65.6269 15.8775C67.4401 15.5277 69.2592 15.5743 71.0783 15.8075C72.1219 15.9416 73.1539 16.1632 74.1917 16.3497C74.7747 16.4547 75.3811 16.4372 75.9758 16.4139C77.2643 16.3614 78.5412 16.2215 79.7772 15.8542C81.6371 15.3061 83.5087 14.8047 85.3977 14.3674C87.3451 13.9243 89.3099 13.557 91.2981 13.3354C92.814 13.1664 94.3357 13.0672 95.8633 13.0847C96.423 13.0906 96.9885 13.0614 97.5366 13.178C97.8631 13.248 98.1779 13.3762 98.4928 13.487C98.7609 13.5803 98.8717 13.8252 99 14.0526V14.3266C98.7551 14.8222 98.2945 14.9913 97.8106 15.0904C96.6329 15.3236 95.4551 15.551 94.2716 15.7434C91.4846 16.1982 88.7385 16.8395 86.0216 17.5916C85.0071 17.8715 84.0101 18.1921 82.9956 18.4837C81.8295 18.816 80.85 19.4515 79.9113 20.1745C78.8443 21.0024 77.964 22.0052 77.1594 23.0838C75.4219 25.4102 73.9352 27.8764 72.6117 30.4535C71.4339 32.7565 70.4894 35.1586 69.679 37.6132C69.0201 39.6247 68.5071 41.677 67.8541 43.6884C66.6705 47.3091 64.8864 50.5858 62.1286 53.2794C59.4875 55.8565 56.3915 57.5939 52.7359 58.2761C50.9867 58.6026 49.2318 58.6201 47.4769 58.3111C47.3019 58.2819 47.1737 58.2411 47.0804 58.5035C46.2525 60.8589 45.1913 63.0978 43.623 65.0685C42.142 66.9225 40.3521 68.3685 38.0899 69.1789C37.3087 69.4588 36.5099 69.6453 35.682 69.7036C35.6353 69.7095 35.5887 69.6978 35.5654 69.7503H33.8629V69.7678ZM78.0864 20.0637C78.133 20.0695 78.1564 20.0404 78.1739 20.0054C78.238 19.9529 78.308 19.9063 78.3663 19.848C79.1184 19.1308 79.9929 18.6003 80.9666 18.233C83.0306 17.4517 85.147 16.8628 87.2751 16.3031C89.9629 15.5918 92.6799 15.0262 95.426 14.6006C95.9565 14.519 96.4813 14.4082 97.0118 14.3149C97.0118 14.2916 97.006 14.2625 97.006 14.2391C96.3647 14.2391 95.7233 14.2333 95.0761 14.2391C93.3679 14.2566 91.6654 14.4141 89.9687 14.6473C87.7415 14.9563 85.5376 15.3819 83.3571 15.9241C81.2348 16.4547 79.1125 17.0144 76.9903 17.545C76.1915 17.7432 75.3811 17.8015 74.559 17.6966C74.2442 17.6441 73.9235 17.6033 73.6087 17.545C72.3843 17.3176 71.1832 16.9853 69.9297 16.8978C68.4488 16.7929 66.9795 16.8103 65.5219 17.1427C63.2072 17.6732 61.3124 18.8335 60.0238 20.8741C59.3359 21.9644 58.8053 23.1305 58.2689 24.2966C56.9337 27.2234 54.9981 29.6489 52.3394 31.4971C51.9721 31.7536 51.4415 31.7186 51.1383 31.4038C49.7157 29.9054 48.264 28.4361 46.7772 27.0019C44.48 24.7805 42.1187 22.6291 39.6641 20.5826C36.9355 18.3029 34.1078 16.1515 31.1634 14.1575C26.4933 10.9916 21.5958 8.23967 16.4009 6.01829C11.6549 3.97766 6.75742 2.41511 1.66749 1.44727C1.1894 1.35398 1.1894 1.35398 1.25936 1.84374C1.28269 1.96617 1.29435 2.09444 1.31767 2.21688C1.55088 3.33631 2.1689 4.22836 2.95018 5.02713C3.53905 5.62766 4.19205 6.14073 4.88587 6.61882C5.11325 6.77041 5.28233 6.95699 5.25318 7.24851C5.13657 8.39709 5.52721 9.38826 6.20936 10.292C6.80989 11.0849 7.56784 11.7029 8.36078 12.2918C8.70477 12.5425 8.90883 12.8632 8.9205 13.3296C8.94965 15.1195 9.6318 16.6588 10.862 17.9531C11.4684 18.5944 12.1913 19.0842 13.0018 19.4282C13.6606 19.708 13.9696 20.1745 13.9463 20.88C13.9405 21.1132 13.9696 21.358 14.0221 21.5913C14.4011 23.4628 15.4155 24.8738 17.118 25.7658C17.3804 25.8999 17.6311 26.0515 17.8526 26.2439C18.2724 26.6054 18.3716 27.1185 18.5115 27.6082C18.6631 28.1446 18.7855 28.6927 19.0595 29.1883C19.8583 30.6459 21.0477 31.6662 22.6102 32.2376C23.0825 32.4125 23.4498 32.6573 23.5898 33.2054C23.788 33.9459 24.1961 34.593 24.6625 35.2052C25.3155 36.0565 26.1551 36.6861 27.0938 37.1992C27.6943 37.5257 28.1258 37.9921 28.359 38.6568C28.5922 39.339 28.9595 39.9512 29.4668 40.4759C30.0615 41.0939 30.7903 41.4846 31.5949 41.7527C31.8806 41.846 32.1079 41.9976 32.2187 42.2891C32.5044 43.0704 33 43.7176 33.5422 44.3298C34.5334 45.4434 35.6645 46.4171 36.7489 47.4257C37.023 47.6823 37.3436 47.8921 37.5069 48.2478C37.5186 48.4402 37.4836 48.6443 37.3261 48.7492C37.0696 48.9241 36.8772 49.1807 36.609 49.3439C35.2913 50.1543 33.9212 50.8482 32.4986 51.4487C29.735 52.6206 26.8548 53.4077 23.9279 54.0315C20.6979 54.7195 17.4329 55.2035 14.1853 55.7923C11.8065 56.2296 9.43357 56.7135 7.10724 57.3899C5.95283 57.728 4.81007 58.0895 3.69647 58.5443C3.55654 58.5384 3.42827 58.6026 3.30583 58.655C3.11926 58.725 2.8394 58.7658 2.81025 58.9466C2.78693 59.104 3.04929 59.2206 3.19505 59.3372C5.6788 61.2554 8.46572 62.0367 11.5908 61.5877C11.9523 61.5353 12.273 61.5819 12.6053 61.8035C13.9754 62.7188 15.4972 63.1036 17.1355 62.8762C17.6777 62.8004 18.0101 62.9462 18.3832 63.331C19.4618 64.4446 20.8087 64.9344 22.3712 64.8353C22.8085 64.8061 23.2224 64.7128 23.6364 64.5904C23.7763 64.5496 23.9046 64.5204 24.0095 64.6603C24.75 65.6165 25.7761 66.1354 26.9131 66.4503C27.706 66.6718 28.5164 66.8351 29.3443 66.8059C29.4843 66.8001 29.5834 66.8584 29.6883 66.9342C31.0993 67.937 32.6327 68.6717 34.3935 68.7766C36.8539 68.9282 38.982 68.1644 40.7369 66.4153C41.7281 65.4241 42.556 64.3047 43.3781 63.1794C44.5267 61.6111 45.4945 59.9436 46.0542 58.0662C46.1184 57.8504 46.165 57.6231 46.2816 57.4248C46.4216 57.1916 46.6023 57.0867 46.8763 57.145C47.7159 57.3199 48.5671 57.4073 49.4184 57.4248C51.1092 57.4598 52.7708 57.2383 54.3917 56.7427C58.3272 55.5533 61.3473 53.157 63.6329 49.7812C64.933 47.8572 65.7318 45.7232 66.3323 43.5019C67.5042 39.1874 68.9094 34.9545 70.8625 30.9199C72.4717 27.5907 74.4074 24.4656 76.8095 21.6321C77.241 21.1132 77.6608 20.5826 78.0864 20.0637Z" fill="#12100B"/>
<path d="M3.70191 58.5388C4.81551 58.0841 5.95827 57.7168 7.11269 57.3844C9.43901 56.7081 11.8061 56.2184 14.1908 55.7869C17.4383 55.1922 20.7033 54.7141 23.9334 54.0261C26.8602 53.4023 29.7404 52.6152 32.504 51.4433C33.9266 50.8427 35.2968 50.1431 36.6144 49.3385C36.8826 49.1752 37.0692 48.9245 37.3316 48.7438C37.4832 48.6388 37.524 48.4348 37.5123 48.2424C38.0604 47.8926 38.6084 47.5486 39.1448 47.1813C40.0894 46.5399 41.0222 45.8752 41.8851 45.1231C42.0659 44.9832 42.2408 44.8374 42.4215 44.6975C42.9521 44.2836 43.4127 43.7763 43.9724 43.3973C44.3747 43.6189 44.7712 43.8463 45.1735 44.0737C45.191 44.0795 45.2084 44.0911 45.2259 44.097C45.2143 44.0795 45.2084 44.0678 45.1968 44.0503C45.1618 44.0095 45.1326 43.9629 45.0918 43.9337C44.5904 43.4964 44.0832 43.065 43.5759 42.6277C43.5701 42.5986 43.5701 42.5694 43.5293 42.5752L43.5351 42.5811C43.3952 42.1963 43.2436 41.8173 43.1153 41.4267C42.8763 40.7095 42.6489 39.9865 42.5906 39.2228C42.9812 39.4327 43.2844 39.7475 43.6167 40.0332C43.7217 40.1207 43.8092 40.2314 43.9549 40.2839C43.9782 40.179 43.9141 40.1381 43.8791 40.0915C43.5526 39.6601 43.1911 39.2578 42.818 38.8671C42.0542 38.0625 41.2088 37.3454 40.4042 36.5816C39.9611 35.503 39.7745 34.3894 39.9494 33.2291C39.9669 33.1067 39.9261 33.0251 39.8445 32.9376C39.6696 32.7394 39.5063 32.5295 39.3431 32.3196C39.9669 32.6344 40.5266 33.0542 41.0864 33.4623C41.7743 33.9638 42.439 34.4943 43.1153 35.0132C43.1445 35.0657 43.1736 35.1182 43.2553 35.1007C43.2553 35.1415 43.2786 35.1532 43.3136 35.1532C43.3136 35.1881 43.3311 35.2056 43.366 35.2056C43.3719 35.2115 43.3777 35.2173 43.3835 35.2231C43.3777 35.2173 43.3719 35.2115 43.3602 35.2056C43.3427 35.1881 43.3252 35.1707 43.3019 35.1532C43.2844 35.1357 43.2669 35.1182 43.2494 35.0949C43.2145 35.054 43.1853 35.0132 43.1503 34.9783C42.5906 34.2378 41.9318 33.5848 41.2729 32.9376C40.3576 32.0397 39.3547 31.2293 38.3228 30.4655C38.3228 30.4364 38.3169 30.4131 38.2761 30.4131L38.2819 30.4189C38.2236 30.1449 38.1595 29.8708 38.1012 29.591C37.9263 28.7689 37.8213 27.9468 38.1478 27.1305C38.1712 27.0722 38.1537 27.0256 38.1129 26.979C38.1945 27.0139 38.2819 27.0431 38.3636 27.0897C39.0865 27.5037 39.8095 27.9177 40.5325 28.3316C40.5616 28.3724 40.5966 28.3899 40.6491 28.3783C40.6491 28.4074 40.6607 28.4307 40.6957 28.4016C40.6841 28.3899 40.6724 28.3841 40.6607 28.3724C40.6316 28.3433 40.6024 28.3199 40.5675 28.2908C40.5092 28.2267 40.4508 28.1509 40.3809 28.0926C39.104 26.979 37.7572 25.9528 36.3171 25.0491C36.2063 24.9791 36.1014 24.915 36.0256 24.8101L35.9614 24.7926H35.9673C35.9848 24.676 35.8915 24.6118 35.839 24.536C35.0811 23.4341 34.5622 22.2389 34.3814 20.9037C34.463 20.9445 34.5447 20.9853 34.6263 21.0261C35.4775 21.4576 36.2821 21.9707 37.11 22.4371C37.1217 22.4487 37.145 22.4721 37.1508 22.4662C37.1917 22.4371 37.1567 22.4254 37.1392 22.4079C36.7777 22.0056 36.3404 21.685 35.9265 21.341C34.6846 20.3032 33.3028 19.4636 31.9618 18.5774C31.921 18.5424 31.8918 18.4899 31.8219 18.5191H31.8277C31.8277 18.3908 31.7053 18.3675 31.6353 18.3092C27.8281 15.2832 23.945 12.3622 19.8229 9.76765C18.686 9.05634 17.5491 8.35087 16.3655 7.72701C16.3364 7.70369 16.313 7.68037 16.2781 7.66288C13.6427 6.19362 10.9316 4.89345 8.10385 3.83815C5.87664 3.0044 3.60279 2.32224 1.26481 1.83832C1.19484 1.3544 1.19484 1.3544 1.67293 1.44186C6.75703 2.41553 11.6604 3.97807 16.4122 6.00705C21.607 8.22843 26.5046 10.9804 31.1747 14.1463C34.119 16.1403 36.9468 18.2917 39.6754 20.5772C42.13 22.6295 44.4913 24.7751 46.7885 26.9964C48.2752 28.4307 49.727 29.9058 51.1496 31.3984C51.447 31.7132 51.9775 31.754 52.3507 31.4917C55.0093 29.6493 56.9392 27.218 58.2743 24.2911C58.8049 23.1251 59.3413 21.959 60.0293 20.8687C61.3178 18.8281 63.2127 17.6678 65.5273 17.1373C66.9791 16.8049 68.4484 16.7816 69.9351 16.8924C71.1887 16.9857 72.3897 17.3122 73.6141 17.5396C73.9289 17.5979 74.2496 17.6445 74.5644 17.6911C73.7715 18.0643 73.0136 18.4899 72.3314 19.038C72.2206 19.1254 72.139 19.0904 72.0399 19.0321C71.5501 18.7639 71.1595 18.3675 70.7164 18.0468C69.1422 16.9215 67.1307 17.3355 66.1337 18.9738C65.953 19.277 65.7372 19.5394 65.3524 19.6152C65.1659 19.656 64.9851 19.7318 64.8044 19.8017C63.5567 20.2682 62.6122 21.1194 61.8192 22.1572C61.2362 22.9268 60.7231 23.7373 60.3208 24.6118H60.3266C60.2683 24.6293 60.2683 24.6876 60.245 24.7226C59.9826 24.9733 59.7086 25.2182 59.4521 25.4805C58.5542 26.4076 57.8196 27.4512 57.219 28.5881C56.9392 29.1187 56.6302 29.6376 56.4611 30.2207C56.4261 30.2207 56.4144 30.2381 56.4436 30.2673C56.4553 30.2556 56.4611 30.244 56.4728 30.2323C56.5194 30.1915 56.5719 30.1565 56.6185 30.1099C57.3706 29.3169 58.1344 28.5357 58.9507 27.8127C60.1342 26.7691 61.4519 25.9237 62.8162 25.1366C63.1019 24.9733 63.3934 24.8742 63.7141 24.8217C64.2796 24.7284 64.851 24.8101 65.4166 24.7284C66.5535 24.5652 67.6205 24.2445 68.565 23.574C68.9265 23.5857 69.2821 23.5332 69.6553 23.4399C69.5445 23.7198 69.2763 23.848 69.2122 24.1104C69.1597 24.0929 69.1364 24.1104 69.1538 24.1687C69.0955 24.1512 69.0897 24.1804 69.0955 24.227C69.0431 24.2154 69.0256 24.2328 69.0372 24.2853C68.9848 24.2737 68.9673 24.2911 68.9789 24.3436C68.9265 24.332 68.909 24.3495 68.9206 24.4019C68.8682 24.3903 68.8507 24.4078 68.8623 24.4602C68.8099 24.4486 68.7924 24.4661 68.804 24.5185C68.7515 24.5069 68.7341 24.5244 68.7457 24.5768H68.7515C68.6932 24.5535 68.6641 24.5943 68.6349 24.6351C68.1569 24.9791 67.772 25.4222 67.3523 25.8304C66.4719 26.6816 65.4457 27.3404 64.3904 27.9526C64.3729 27.9701 64.3496 27.9818 64.3321 27.9993L64.3379 27.9934C63.2885 28.5473 62.2215 29.0604 61.1895 29.6551C61.172 29.6726 61.1487 29.6843 61.1312 29.7017C60.9738 29.7309 60.8572 29.8417 60.7173 29.9116C59.5512 30.5122 58.7233 31.3926 58.3968 32.6927C58.3676 32.8093 58.2918 32.8735 58.1927 32.9318C57.6913 33.2175 57.2773 33.6023 56.9392 34.0687C56.1929 35.1124 55.948 36.2784 56.053 37.532C56.0646 37.6777 56.0471 37.7827 55.9189 37.8876C54.3855 39.1528 53.8491 40.7853 54.1523 42.721C54.3155 43.7472 54.7761 44.6509 55.3766 45.4846C55.4466 45.5837 55.5457 45.6654 55.3708 45.7878C54.7936 46.1959 54.2805 46.6798 53.7966 47.2046C51.5811 49.6125 50.3392 52.4344 50.0652 55.6936C50.0418 56.0026 50.0943 56.335 49.9019 56.6207C49.727 56.7139 49.5404 56.6673 49.3597 56.6731C48.2577 56.7023 47.1558 56.6498 46.0597 56.5565C45.8265 56.539 45.6107 56.574 45.5 56.8072C45.2026 57.4136 44.8936 58.0199 44.6196 58.638C44.0424 59.9265 43.4768 61.215 42.6897 62.3986C41.8093 63.7221 40.789 64.9173 39.4247 65.7744C38.8592 66.13 38.2761 66.4623 37.6056 66.6023C36.2238 65.786 35.2268 64.6258 34.498 63.2148C34.5213 63.174 34.5388 63.1274 34.568 63.104C35.9848 61.9088 37.4773 60.8185 39.0807 59.8798C39.7046 59.5184 40.3401 59.1744 40.9697 58.8245C40.9931 58.8187 41.0222 58.8129 41.0455 58.807C41.0397 58.7954 41.0222 58.7779 41.0222 58.7779C41.0047 58.7896 40.9814 58.807 40.9639 58.8187C40.859 58.7954 40.7657 58.842 40.6724 58.8712C38.9116 59.4192 37.2558 60.183 35.6816 61.145C34.8303 61.6698 34.0316 62.2761 33.2503 62.8883C32.3058 62.9466 31.3846 62.8533 30.4809 62.5676C29.7987 62.3519 29.1224 62.107 28.5918 61.5998C28.3761 61.3957 28.2187 61.1684 28.2887 60.8477C28.3878 60.6669 28.5335 60.527 28.7026 60.4162C30.0436 59.5767 31.4254 58.8012 32.8713 58.1424C33.4369 57.8858 34.0024 57.6293 34.5622 57.3786C34.5855 57.3728 34.6146 57.3728 34.6379 57.3669C34.6321 57.3553 34.6263 57.3494 34.6205 57.3378C34.603 57.3494 34.5855 57.3669 34.568 57.3786C34.4747 57.3844 34.3814 57.3844 34.294 57.4019C33.0754 57.6818 31.8918 58.0608 30.7199 58.4864C29.4606 58.947 28.3061 59.6466 27.0584 60.1364C25.4842 60.3346 24.0091 60.0431 22.6448 59.2327C22.6915 59.186 22.7323 59.1394 22.7789 59.0986C24.2307 58.0433 25.7641 57.1337 27.4199 56.4341C27.6415 56.3408 27.863 56.2417 28.0788 56.1484C28.0088 56.1134 27.9563 56.1076 27.9038 56.1192C26.3938 56.4632 24.9478 56.9705 23.566 57.6643C22.9655 57.9675 22.4 58.3231 21.8169 58.6438C21.7003 58.6088 21.6012 58.6788 21.5021 58.7138C20.4235 59.0752 19.3215 59.1802 18.1904 59.0344C17.1235 58.8945 16.1498 58.5155 15.2402 57.95C15.2636 57.8742 15.3335 57.8392 15.3918 57.7984C16.313 57.1396 17.2692 56.5449 18.2662 56.0143C18.4994 55.8919 18.7268 55.7694 18.96 55.6411C18.4236 55.7286 17.9281 55.9152 17.4325 56.1017C16.1964 56.5798 15.042 57.2212 13.9167 57.915C13.8701 57.915 13.8235 57.9267 13.8001 57.9675H13.806C13.771 57.9733 13.7302 57.9675 13.7477 58.0258C13.6194 57.985 13.5145 58.0608 13.4095 58.1016C12.6749 58.3873 11.9286 58.6263 11.1765 58.8595C10.3719 59.1102 9.54979 59.2735 8.74519 59.5067C7.73654 59.495 6.73371 59.4834 5.74255 59.291C5.03707 59.1627 4.31993 58.9703 3.70191 58.5388ZM44.0773 40.4238C44.0832 40.4413 44.0773 40.488 44.1182 40.4413C44.1065 40.4413 44.089 40.4355 44.0773 40.4238L44.0424 40.3539C44.0249 40.3422 44.0074 40.3305 43.9899 40.3247C43.9724 40.3597 43.9957 40.3714 44.019 40.383C44.0365 40.3947 44.0599 40.4122 44.0773 40.4238ZM31.9326 54.1136C32.3349 54.1835 32.6731 54.1602 33.0113 54.1486C34.2823 54.1136 35.5067 53.8687 36.7019 53.4606C36.941 53.379 37.1042 53.4198 37.25 53.6238C37.3199 53.7288 37.4132 53.8221 37.5123 53.9095C38.5093 54.7782 39.6929 54.9007 40.8765 54.2477C41.1272 54.1078 41.2904 54.1486 41.4187 54.3993C41.5061 54.5625 41.6228 54.7025 41.7569 54.8307C42.5556 55.5595 43.7917 55.2039 44.054 54.4226C44.1823 54.0494 44.4272 53.7113 44.6429 53.3673C45.8148 51.5307 47.3657 50.0556 49.109 48.7729C49.2314 48.6855 49.3072 48.6155 49.2489 48.4406C48.9807 47.6244 48.8816 46.779 48.9282 45.9219C49.004 44.5576 49.5229 43.4032 50.6074 42.5344C51.2487 42.3828 51.0622 41.9164 51.0155 41.4908C50.7998 39.3102 51.4703 37.5203 53.3593 36.2784C53.5167 36.1735 53.4993 36.121 53.3943 35.9986C51.5869 33.8996 49.7736 31.8007 47.7738 29.8767C46.048 28.215 44.2056 26.7108 42.1766 25.4281C42.1242 25.3931 42.0775 25.3464 41.9842 25.3756C42.0425 26.0578 42.1475 26.7283 42.3457 27.3871C42.9929 29.6026 44.2173 31.4334 46.0655 32.8327C46.2871 33.0018 46.3804 33.2 46.3512 33.4915C46.2346 34.78 46.5902 35.9228 47.5173 36.8556C47.8963 37.2404 47.9137 37.427 47.6455 37.8934C47.0742 38.8963 46.8701 39.9691 47.3132 41.0593C47.5231 41.5782 47.5406 41.9864 47.2841 42.5053C46.8118 43.4615 46.701 44.4993 46.771 45.5604C46.7768 45.677 46.7943 45.782 46.6427 45.8519C45.0627 46.5574 43.6867 47.5952 42.2524 48.5339C40.9406 49.391 39.6288 50.2597 38.3519 51.1692C36.4279 52.5336 34.2823 53.4781 31.9326 54.1136ZM28.2653 56.0901C28.2595 56.0843 28.2478 56.0726 28.242 56.0726C28.2245 56.0726 28.2129 56.0843 28.1954 56.0843C28.2012 56.0901 28.207 56.1017 28.2129 56.1017C28.2362 56.1017 28.2537 56.0959 28.2653 56.0901ZM45.3134 44.1553L45.3251 44.1436H45.3076L45.3134 44.1553ZM37.2733 22.5129C37.2675 22.507 37.2675 22.5012 37.2616 22.5012C37.2558 22.5012 37.25 22.507 37.2441 22.5129C37.25 22.5187 37.2558 22.5245 37.2616 22.5245C37.2616 22.5245 37.2675 22.5129 37.2733 22.5129Z" fill="#A01E53"/>
<path d="M40.5333 28.3312C39.8103 27.9172 39.0874 27.4974 38.3644 27.0835C38.2828 27.0368 38.2011 27.0077 38.1137 26.9727C37.793 26.7395 37.4257 26.5821 37.0759 26.4071C34.3472 25.0545 31.4962 24.0283 28.5285 23.3229C28.167 23.2354 27.8172 23.1188 27.4207 23.0955C27.5082 23.4045 27.6365 23.6669 27.7764 23.9234C28.2137 24.7047 28.7559 25.3985 29.3798 26.0398C29.5663 26.2322 29.7354 26.378 30.0036 26.448C32.19 27.0368 34.2423 27.9347 36.1955 29.0716C36.9068 29.4856 37.5773 29.9695 38.2828 30.401L38.2769 30.3951C38.2944 30.4126 38.3061 30.4301 38.3236 30.4418C39.3556 31.2114 40.3526 32.016 41.2679 32.9139C41.9268 33.561 42.5856 34.2082 43.1453 34.9545C43.1336 34.9662 43.1162 34.9778 43.1045 34.9895C42.4282 34.4706 41.7635 33.94 41.0755 33.4386C40.5158 33.0305 39.9561 32.6107 39.3322 32.2958C39.2739 32.2492 39.2215 32.1967 39.1632 32.1559C38.411 31.7011 37.6414 31.2697 36.8543 30.8732C35.1169 29.9928 33.3036 29.2874 31.4437 28.7218C31.2163 28.6518 30.9889 28.5586 30.7266 28.5411C31.0006 29.6314 31.4146 30.6342 32.1026 31.4971C32.5398 32.0451 32.9538 32.6398 33.7817 32.6107C33.7875 32.6107 33.7992 32.6165 33.805 32.6165C35.6941 33.0538 37.2858 34.045 38.7842 35.2227C39.3322 35.6483 39.857 36.1089 40.3934 36.552C41.198 37.3158 42.0434 38.0329 42.8071 38.8375C43.1803 39.2282 43.5418 39.6305 43.8683 40.0619C43.9033 40.1086 43.9616 40.1494 43.9441 40.2543C43.7983 40.2018 43.7109 40.0969 43.6059 40.0036C43.2736 39.7179 42.9704 39.4031 42.5798 39.1932H42.5856C42.5389 39.0941 42.4748 39.0358 42.364 39.0241H42.3699C42.3524 38.9658 42.3174 38.9425 42.2533 38.9658H42.2591C42.2649 38.9192 42.2416 38.9075 42.2008 38.9075L42.2066 38.9133C42.2066 38.8609 42.1716 38.855 42.1308 38.855C42.0142 38.7559 41.9034 38.6393 41.7752 38.5518C40.4867 37.6365 39.1806 36.7561 37.828 35.934C36.8893 35.3685 35.9156 34.8787 34.8778 34.5172C34.7845 34.4822 34.6038 34.3598 34.6621 34.6397C34.9536 36.1439 35.6999 37.3858 36.8368 38.4003C37.0467 38.5927 37.2508 38.7967 37.5598 38.8783C39.1048 39.304 40.475 40.0677 41.7169 41.0706C42.3232 41.5603 42.9296 42.0443 43.5359 42.5282L43.5301 42.5223L43.5768 42.5748C44.084 43.0063 44.5854 43.4435 45.0927 43.875C45.1335 43.91 45.1626 43.9566 45.1976 43.9974C45.1918 44.0033 45.1801 44.0149 45.1743 44.0208C44.772 43.7934 44.3755 43.5718 43.9732 43.3444C43.2444 42.8897 42.5215 42.4232 41.7868 41.9743C40.8831 41.4146 39.9677 40.8723 38.9649 40.4934C38.9008 40.47 38.825 40.4001 38.7609 40.4526C38.6851 40.5167 38.7434 40.6041 38.7609 40.6799C38.8483 41.0531 38.9824 41.4146 39.1398 41.7644C39.7579 43.1054 40.714 44.1723 41.8743 45.0702C41.0056 45.8165 40.0785 46.4812 39.1282 47.1283C38.5918 47.4957 38.0379 47.8338 37.4957 48.1895C37.3266 47.8338 37.0059 47.6239 36.7319 47.3674C35.6416 46.3529 34.5163 45.3792 33.5252 44.2715C32.9771 43.6593 32.4874 43.0121 32.2017 42.2308C32.0909 41.9393 31.8635 41.7935 31.5778 41.6944C30.7791 41.4262 30.0444 41.0356 29.4497 40.4176C28.9425 39.8928 28.5752 39.2806 28.342 38.5985C28.1146 37.9338 27.6773 37.4674 27.0768 37.1409C26.1381 36.6278 25.3043 35.9981 24.6455 35.1469C24.1791 34.5405 23.7709 33.8875 23.5727 33.1471C23.4269 32.599 23.0654 32.3541 22.5932 32.1792C21.0248 31.602 19.8412 30.5875 19.0425 29.1299C18.7743 28.6344 18.6518 28.0863 18.4944 27.5499C18.3545 27.0602 18.2495 26.5471 17.8356 26.1856C17.6082 25.9932 17.3575 25.8474 17.101 25.7075C15.3927 24.8096 14.384 23.3987 14.005 21.5329C13.9584 21.2997 13.9234 21.0607 13.9351 20.8216C13.9584 20.1103 13.6494 19.6439 12.9905 19.3699C12.1801 19.0259 11.4571 18.5361 10.8508 17.8948C9.6264 16.5946 8.94425 15.0612 8.90926 13.2713C8.90343 12.8049 8.69354 12.49 8.34955 12.2335C7.55661 11.6446 6.79866 11.0266 6.19813 10.2337C5.51598 9.33577 5.12534 8.3446 5.24195 7.19019C5.2711 6.89867 5.10202 6.7121 4.87464 6.56051C4.18665 6.08824 3.52782 5.56934 2.93895 4.96881C2.15767 4.17005 1.53382 3.278 1.30644 2.15856C1.28895 2.09443 1.28312 1.96616 1.26562 1.83789C3.59778 2.31598 5.87163 2.99814 8.10467 3.83188C10.9324 4.88718 13.6435 6.18736 16.2789 7.65662C16.308 7.67411 16.3372 7.69743 16.3663 7.72075C16.2964 7.79655 16.3197 7.89566 16.3139 7.98312C16.2322 9.12005 16.5995 10.1462 17.0718 11.149C17.6432 12.3501 18.5119 13.3296 19.4914 14.2158C19.6313 14.3441 19.7888 14.449 19.987 14.4957C22.4241 15.0029 24.8495 15.5743 27.1992 16.4197C28.6859 16.9561 30.1086 17.6324 31.5079 18.367C31.6128 18.4195 31.7003 18.5128 31.8285 18.5186H31.8227C31.8518 18.5769 31.9043 18.5769 31.9568 18.5769C33.3036 19.4632 34.6854 20.3027 35.9215 21.3405C36.3354 21.6845 36.7727 22.0052 37.1342 22.4075C37.1283 22.4192 37.1167 22.425 37.105 22.4367C36.2771 21.9702 35.4725 21.4571 34.6213 21.0257C34.5397 20.9849 34.458 20.9441 34.3764 20.9033C30.8548 19.055 27.1001 17.9239 23.1821 17.2534C23.1937 17.3059 23.1937 17.3351 23.2054 17.3584C23.7884 18.6411 24.6513 19.708 25.7358 20.6001C25.8465 20.6934 25.9632 20.7808 26.1147 20.81C26.9135 20.9732 27.7006 21.189 28.4819 21.4222C30.5808 22.0518 32.5806 22.9264 34.5047 23.9642C34.9944 24.2324 35.4783 24.5064 35.9623 24.7805H35.9564C35.9681 24.8213 35.9914 24.8213 36.0206 24.798C36.0964 24.9029 36.2071 24.9729 36.3121 25.037C37.7522 25.9407 39.0932 26.9669 40.3759 28.0805C40.4458 28.1388 40.4983 28.2146 40.5624 28.2787C40.5566 28.302 40.545 28.3137 40.5333 28.3312Z" fill="#CBA25B"/>
<path d="M27.0761 60.1416C28.3238 59.6577 29.4724 58.9522 30.7376 58.4916C31.9095 58.0602 33.0931 57.6812 34.3116 57.4072C34.3991 57.3897 34.4924 57.3897 34.5857 57.3838L34.5798 57.378C34.0143 57.6345 33.4488 57.8853 32.889 58.1418C31.4431 58.8006 30.0671 59.5702 28.7203 60.4156C28.5512 60.5206 28.4055 60.6605 28.3063 60.8413C28.2364 60.8413 28.1839 60.8762 28.1373 60.9171C27.4143 61.5118 26.6972 62.1065 25.9625 62.6837C25.7993 62.8119 25.8284 62.8994 25.9334 63.0335C26.6214 63.8964 27.5309 64.287 28.6154 64.3103C29.2684 64.322 29.9097 64.1879 30.5569 64.1121C31.035 64.0596 31.5072 63.8964 32.0028 64.0072C32.0786 64.0247 32.1253 63.9838 32.1719 63.9372C32.5392 63.5815 32.9065 63.2201 33.2738 62.8644C34.0609 62.2464 34.8539 61.64 35.7051 61.1211C37.2735 60.1591 38.9351 59.3953 40.6901 58.8473C40.7834 58.8181 40.8767 58.7715 40.9816 58.7948L40.9874 58.8006C40.3578 59.1504 39.7222 59.4886 39.0984 59.8559C37.495 60.7888 36.0083 61.8849 34.5857 63.0801C34.5507 63.1093 34.539 63.1559 34.5157 63.1909C33.921 63.5932 33.4254 64.1121 32.889 64.5785C32.7783 64.6718 32.8424 64.7534 32.8949 64.8409C33.1572 65.3307 33.5304 65.7388 33.9385 66.1061C34.9413 67.0156 36.4222 67.2022 37.6233 66.5667C38.288 66.4268 38.871 66.0944 39.4424 65.7388C40.8067 64.8817 41.827 63.6923 42.7074 62.363C43.4887 61.1794 44.0601 59.8909 44.6373 58.6024C44.9113 57.9844 45.2203 57.378 45.5177 56.7716C45.6343 56.5384 45.85 56.5034 46.0832 56.5209C47.1793 56.6142 48.2813 56.6667 49.3832 56.6375C49.5639 56.6317 49.7505 56.6784 49.9254 56.5851C50.5901 56.6201 51.2431 56.5151 51.8961 56.4277C53.5111 56.2061 55.0678 55.7688 56.5429 55.0692C56.7295 54.9817 56.8461 54.8768 56.8461 54.661C58.3853 53.9906 59.6972 53.0052 60.8166 51.7633C60.8982 51.6701 60.9215 51.5768 60.8982 51.4368C60.7408 50.5681 60.7 49.6877 60.8283 48.8132C61.1023 46.9416 61.8486 45.2916 63.2012 43.9331C63.312 43.8224 63.347 43.7349 63.2887 43.5775C62.9972 42.7904 62.9039 41.9741 62.9563 41.1287C63.0438 39.7527 63.5044 38.5225 64.2973 37.4089C64.3906 37.2748 64.3848 37.199 64.3032 37.0766C63.2887 35.5724 63.277 34.0156 64.0583 32.4239C64.1224 32.2898 64.1283 32.2082 64.0466 32.08C63.3003 30.9547 63.2479 29.7944 63.9067 28.6109C64.035 28.3777 64.2565 28.2144 64.3498 27.9579L64.3382 27.987C64.3556 27.9695 64.379 27.9579 64.3965 27.9404C65.4518 27.3282 66.4779 26.6752 67.3583 25.8181C67.7781 25.41 68.1629 24.9669 68.641 24.6229C68.6876 24.6229 68.7343 24.6171 68.7576 24.5646H68.7518L68.8101 24.5063C68.8275 24.4888 68.8509 24.4713 68.8684 24.448C68.8859 24.4305 68.9033 24.413 68.9267 24.3897C68.9442 24.3722 68.9675 24.3489 68.985 24.3314L69.0433 24.2731L69.1016 24.2148C69.1191 24.1973 69.1424 24.1739 69.1599 24.1565C69.1774 24.139 69.2007 24.1215 69.2182 24.0982C69.3173 24.104 69.3698 24.034 69.4222 23.9757C70.0927 23.2178 70.9673 22.693 71.6553 21.9467C72.1859 21.3754 72.8447 20.9148 73.451 20.4192C73.9641 19.9994 74.483 19.6029 75.0427 19.2414C75.1244 19.189 75.1885 19.1132 75.2934 19.2414C75.8823 19.9761 76.6811 20.1685 77.579 20.0927C77.7597 20.0752 77.9405 20.0519 78.1212 20.0344C77.6898 20.5591 77.27 21.0838 76.8327 21.6027C74.4305 24.4305 72.5007 27.5614 70.8915 30.8906C68.9383 34.9252 67.5332 39.158 66.3613 43.4725C65.7608 45.6881 64.962 47.8278 63.6618 49.7519C61.3763 53.1277 58.3562 55.5239 54.4207 56.7133C52.7998 57.2031 51.1381 57.4305 49.4473 57.3955C48.5961 57.378 47.7449 57.2847 46.9053 57.1098C46.6313 57.0515 46.4505 57.1565 46.3106 57.3897C46.194 57.5879 46.1473 57.8153 46.0832 58.031C45.5235 59.9084 44.5556 61.5701 43.4071 63.1443C42.585 64.2695 41.7571 65.3948 40.7659 66.3801C39.0109 68.1292 36.8829 68.893 34.4224 68.7414C32.6616 68.6307 31.1341 67.9019 29.7173 66.899C29.6065 66.8232 29.5132 66.7649 29.3733 66.7708C28.5396 66.7999 27.7291 66.6367 26.942 66.4151C25.8109 66.1003 24.7848 65.5814 24.0385 64.6252C23.9336 64.4852 23.7995 64.5202 23.6654 64.5552C23.2514 64.6777 22.8316 64.7709 22.4002 64.8001C20.8435 64.8934 19.4966 64.4036 18.418 63.2958C18.0449 62.911 17.7184 62.7653 17.1761 62.8411C15.5378 63.0685 14.0161 62.6778 12.6459 61.7683C12.3136 61.5467 11.9929 61.5059 11.6314 61.5526C8.51218 61.9957 5.71942 61.2202 3.23568 59.302C3.08409 59.1854 2.82172 59.0688 2.85087 58.9114C2.88002 58.7307 3.15988 58.6957 3.34646 58.6199C3.47472 58.5674 3.59716 58.5033 3.74292 58.5091C4.36094 58.9405 5.07808 59.133 5.80688 59.2729C6.79805 59.4653 7.8067 59.4769 8.80953 59.4886C9.14186 59.4944 9.47419 59.4828 9.8007 59.5178C10.4129 59.5761 11.0134 59.6868 11.6314 59.6635C11.7947 59.6577 11.9113 59.611 12.0162 59.5003C12.2844 59.2204 12.5935 58.993 12.8791 58.7365C13.1765 58.4741 13.538 58.305 13.8062 58.0135C13.8237 57.996 13.847 57.9785 13.8645 57.9552L13.8586 57.961C13.9053 57.961 13.9519 57.9552 13.9753 57.9086C15.1005 57.2148 16.2549 56.5734 17.491 56.0953C17.9866 55.9029 18.4821 55.7163 19.0185 55.6347C18.7853 55.7572 18.5579 55.8796 18.3247 56.0079C17.3277 56.5384 16.3657 57.1331 15.4503 57.792C15.392 57.8328 15.3221 57.8619 15.2988 57.9436C14.4475 58.4683 13.7071 59.1388 12.9491 59.786C12.815 59.9026 12.9083 59.9725 12.9899 60.0483C13.4855 60.4914 14.0627 60.783 14.6807 60.9987C15.8293 61.401 17.0129 61.436 18.2081 61.3135C18.5463 61.2785 18.8786 61.2727 19.141 60.9579C19.5608 60.4506 20.0564 60.0075 20.5869 59.611C21.0125 59.2845 21.4498 58.9639 21.8813 58.6374C22.4701 58.3167 23.0357 57.961 23.6304 57.6579C25.0122 56.9582 26.4639 56.451 27.9682 56.1128C28.0207 56.1012 28.0731 56.107 28.1431 56.142C27.9215 56.2353 27.7058 56.3344 27.4843 56.4277C25.8284 57.1273 24.295 58.0368 22.8433 59.0921C22.7908 59.1271 22.75 59.1796 22.7092 59.2262C22.6917 59.2321 22.6742 59.2321 22.6567 59.2437C21.7122 59.9317 20.8551 60.713 19.9864 61.4884C19.8756 61.5875 19.8873 61.6517 20.0214 61.6983C20.0913 61.7216 20.1555 61.7508 20.2254 61.7799C21.4556 62.2289 22.7325 62.3746 24.0327 62.3805C24.1668 62.3805 24.2601 62.3338 24.3475 62.2464C24.639 61.9665 24.9539 61.7158 25.2745 61.4709C25.8401 61.022 26.5048 60.643 27.0761 60.1416Z" fill="#CBA25B"/>
<path d="M78.0923 20.0635C77.9115 20.081 77.7308 20.1102 77.55 20.1218C76.6521 20.1976 75.8534 20.0052 75.2645 19.2706C75.1596 19.1423 75.1013 19.2181 75.0138 19.2706C74.4599 19.6263 73.9352 20.0286 73.4221 20.4483C72.8099 20.9498 72.1511 21.4045 71.6264 21.9759C70.9384 22.7222 70.0638 23.2469 69.3933 24.0049C69.3408 24.0632 69.2825 24.1331 69.1892 24.1273C69.2534 23.8649 69.5216 23.7367 69.6324 23.4568C69.2534 23.5443 68.8977 23.5967 68.5421 23.5909C68.0931 23.5676 67.6908 23.3869 67.2769 23.2353C66.6647 23.0079 66.1749 22.6289 65.761 22.1333C65.487 21.8068 65.2129 21.4687 64.8339 21.2471C64.5424 21.078 64.2626 21.0372 63.9652 21.2588C63.2714 21.7718 62.6301 22.349 62.0004 22.9321C61.5281 23.3635 61.1025 23.8475 60.6827 24.3314C60.5836 24.448 60.502 24.6171 60.3096 24.6287C60.7177 23.7542 61.2249 22.9379 61.808 22.1741C62.6009 21.1363 63.5454 20.2851 64.7931 19.8187C64.9739 19.7487 65.1546 19.6729 65.3412 19.6321C65.7202 19.5563 65.9359 19.2939 66.1225 18.9907C67.1253 17.3524 69.1309 16.9384 70.7051 18.0637C71.1541 18.3844 71.5447 18.7808 72.0286 19.049C72.1336 19.1073 72.2152 19.1423 72.326 19.0549C73.014 18.5068 73.7719 18.087 74.559 17.7081C75.3811 17.813 76.1974 17.7547 76.9903 17.5565C79.1184 17.0259 81.2348 16.4662 83.3571 15.9356C85.5377 15.3934 87.7415 14.9678 89.9688 14.6588C91.6654 14.4255 93.362 14.2681 95.0703 14.2506C95.7117 14.2448 96.3589 14.2506 97.0002 14.2506C97.0002 14.274 97.006 14.3031 97.006 14.3264C96.4755 14.4255 95.9507 14.5305 95.4202 14.6121C92.6741 15.0377 89.9571 15.6033 87.2693 16.3146C85.1412 16.8801 83.0248 17.469 80.9608 18.2445C79.9871 18.6118 79.1126 19.1423 78.3604 19.8595C78.3021 19.9178 78.2322 19.9644 78.1681 20.0169C78.1331 20.0111 78.0981 20.0227 78.0923 20.0635ZM71.02 20.3492C71.0317 20.1335 70.985 19.9003 70.8859 19.6846C70.3087 18.431 68.5887 18.0695 67.5451 18.9849C66.8279 19.6146 66.6938 20.6116 67.2244 21.3579C67.7258 22.0575 68.682 22.4015 69.5158 22.1741C70.437 21.9351 71.02 21.2296 71.02 20.3492Z" fill="#FF9E18"/>
<path d="M78.0859 20.0642C78.0976 20.0233 78.1326 20.0117 78.1676 20.0059C78.1559 20.0408 78.1326 20.07 78.0859 20.0642Z" fill="#CBA25B"/>
<path d="M31.9326 54.1133C34.2881 53.4778 36.4337 52.5333 38.3635 51.1573C39.6404 50.2478 40.9522 49.3791 42.2641 48.522C43.6983 47.5833 45.0801 46.5513 46.6543 45.8458C46.8059 45.7759 46.7943 45.6709 46.7826 45.5543C46.7185 44.4932 46.8234 43.4496 47.2957 42.4992C47.5522 41.9861 47.5347 41.578 47.3248 41.0533C46.8817 39.963 47.0858 38.896 47.6572 37.8874C47.9195 37.4209 47.9079 37.2344 47.5231 36.8496C46.596 35.9167 46.2404 34.7739 46.357 33.4854C46.3862 33.1881 46.2929 32.9957 46.0713 32.8266C44.2231 31.4273 42.9987 29.5965 42.3457 27.381C42.1533 26.7222 42.0425 26.0458 41.99 25.3695C42.0833 25.3404 42.13 25.387 42.1824 25.422C44.2056 26.7047 46.0538 28.2089 47.7796 29.8706C49.7794 31.7946 51.5927 33.8935 53.4001 35.9925C53.5051 36.1149 53.5284 36.1732 53.3651 36.2723C51.4702 37.5084 50.8056 39.3041 51.0213 41.4847C51.0621 41.9103 51.2545 42.3768 50.6132 42.5284C49.5346 43.4029 49.0098 44.5515 48.934 45.9158C48.8874 46.7729 48.9865 47.6183 49.2547 48.4345C49.313 48.6094 49.2372 48.6736 49.1148 48.7669C47.3715 50.0554 45.8206 51.5246 44.6487 53.3612C44.433 53.6994 44.1823 54.0375 44.0598 54.4165C43.7975 55.1978 42.5614 55.5534 41.7626 54.8246C41.6286 54.7022 41.5119 54.5623 41.4245 54.3932C41.2904 54.1425 41.133 54.1075 40.8823 54.2416C39.6987 54.8888 38.5151 54.7722 37.5181 53.9034C37.419 53.8218 37.3316 53.7227 37.2616 53.6236C37.1217 53.4195 36.9584 53.3787 36.7135 53.4603C35.5183 53.8685 34.2881 54.1075 33.0229 54.1483C32.6731 54.16 32.3349 54.1833 31.9326 54.1133Z" fill="#12100B"/>
<path d="M56.8347 54.6843C56.8347 54.8942 56.7181 55.005 56.5316 55.0925C55.0565 55.7921 53.4997 56.2236 51.8847 56.4509C51.2317 56.5384 50.5787 56.6433 49.9141 56.6084C50.1065 56.3227 50.0482 55.9903 50.0773 55.6813C50.3513 52.428 51.5932 49.6002 53.8088 47.1923C54.2869 46.6734 54.7999 46.1895 55.383 45.7755C55.5579 45.6531 55.4588 45.5714 55.3888 45.4723C54.7883 44.6386 54.3277 43.7349 54.1644 42.7087C53.8554 40.7789 54.3976 39.1405 55.931 37.8753C56.0593 37.7704 56.0768 37.6654 56.0651 37.5197C55.9602 36.2603 56.2051 35.0942 56.9513 34.0564C57.2895 33.59 57.6976 33.2052 58.2049 32.9195C58.304 32.8612 58.3798 32.7971 58.4089 32.6804C58.7296 31.3803 59.5634 30.5057 60.7294 29.8993C60.8694 29.8294 60.986 29.7186 61.1434 29.6895C61.1317 29.7536 61.1259 29.8177 61.1026 29.876C60.6828 30.8264 60.7236 31.7592 61.2425 32.663C61.3125 32.7854 61.2775 32.8554 61.19 32.9195C60.7178 33.281 60.4787 33.794 60.2397 34.3071C59.9423 34.9368 59.8024 35.6131 59.8316 36.3011C59.8724 37.0532 60.0473 37.782 60.4554 38.435C60.5254 38.5516 60.5195 38.6333 60.4321 38.7499C59.954 39.3854 59.5051 40.0442 59.2077 40.7963C58.7646 41.9099 58.6596 43.0819 58.9803 44.213C59.1611 44.8601 58.8754 45.1516 58.5372 45.5248C58.5255 45.5365 58.5139 45.5481 58.5022 45.5656C57.6626 46.5043 57.0621 47.5654 56.7823 48.7956C56.5024 50.0142 56.3217 51.2327 56.4441 52.4863C56.5082 53.2326 56.619 53.9672 56.8347 54.6843Z" fill="#FF4713"/>
<path d="M56.8348 54.6846C56.6191 53.9675 56.5083 53.227 56.4384 52.4807C56.3159 51.2272 56.4967 50.0086 56.7765 48.7901C57.0564 47.554 57.6569 46.4929 58.4965 45.56C58.5082 45.5484 58.5198 45.5309 58.5315 45.5192C58.8696 45.1461 59.1553 44.8546 58.9746 44.2074C58.6539 43.0763 58.7589 41.9044 59.202 40.7908C59.4993 40.0445 59.9483 39.3857 60.4264 38.7443C60.5138 38.6277 60.5196 38.5461 60.4497 38.4295C60.0416 37.7765 59.8666 37.0477 59.8258 36.2956C59.7909 35.6017 59.9366 34.9312 60.234 34.3016C60.473 33.7885 60.7121 33.2696 61.1843 32.9139C61.2659 32.8498 61.3068 32.7857 61.2368 32.6574C60.7179 31.7537 60.6829 30.8208 61.0969 29.8705C61.1202 29.8122 61.126 29.748 61.1377 29.6839C61.1552 29.6664 61.1785 29.6547 61.196 29.6372C62.2221 29.0425 63.2891 28.5236 64.3444 27.9756C64.2511 28.2263 64.0295 28.3954 63.9013 28.6286C63.2424 29.818 63.2891 30.9724 64.0412 32.0977C64.1287 32.2259 64.1228 32.3076 64.0529 32.4417C63.2716 34.0334 63.2833 35.5959 64.2977 37.0943C64.3852 37.2168 64.3852 37.2984 64.2919 37.4266C63.499 38.5403 63.0384 39.7705 62.9509 41.1464C62.8984 41.9918 62.9917 42.8023 63.2833 43.5952C63.3416 43.7526 63.3066 43.8401 63.1958 43.9509C61.8431 45.3035 61.0969 46.9593 60.8228 48.8309C60.6946 49.7054 60.7354 50.5858 60.8928 51.4546C60.9161 51.5887 60.8928 51.6878 60.8112 51.7811C59.6859 53.0288 58.3741 54.0141 56.8348 54.6846Z" fill="#FF9E18"/>
<path d="M31.828 18.5127C31.6997 18.5069 31.6122 18.4194 31.5073 18.3611C30.108 17.6265 28.6854 16.9502 27.1986 16.4138C24.849 15.5684 22.4236 14.997 19.9864 14.4898C19.7882 14.4489 19.6308 14.3382 19.4909 14.2099C18.5114 13.3237 17.6426 12.35 17.0713 11.1431C16.5932 10.1461 16.2317 9.11414 16.3133 7.97721C16.3191 7.88976 16.2958 7.79064 16.3658 7.71484C17.5493 8.3387 18.6921 9.04417 19.8232 9.75548C23.9453 12.3442 27.8283 15.2652 31.6356 18.297C31.7055 18.3611 31.8221 18.3903 31.828 18.5127Z" fill="#FF9E18"/>
<path d="M35.9677 24.7917C35.4838 24.5177 34.9999 24.2378 34.5101 23.9754C32.5861 22.9318 30.5863 22.0631 28.4873 21.4334C27.7061 21.2002 26.9189 20.9844 26.1202 20.8212C25.9686 20.792 25.852 20.6987 25.7412 20.6113C24.6568 19.7134 23.7997 18.6465 23.2108 17.3696C23.1992 17.3463 23.1992 17.3171 23.1875 17.2646C27.1055 17.9351 30.8603 19.0662 34.3818 20.9145C34.5568 22.2496 35.0757 23.4449 35.8394 24.5468C35.8919 24.6109 35.9852 24.6751 35.9677 24.7917Z" fill="#FF9E18"/>
<path d="M38.2878 30.407C37.5882 29.9756 36.9177 29.4917 36.2005 29.0777C34.2474 27.9408 32.1951 27.0371 30.0145 26.454C29.7463 26.3841 29.5714 26.2383 29.3907 26.0459C28.7668 25.4046 28.2187 24.7049 27.7873 23.9295C27.6415 23.6729 27.5191 23.4106 27.4316 23.1016C27.8223 23.1307 28.1779 23.2473 28.5394 23.3289C31.5071 24.0344 34.3581 25.0606 37.0868 26.4132C37.4366 26.5881 37.8039 26.7456 38.1246 26.9788C38.1654 27.0196 38.1829 27.0721 38.1596 27.1304C37.8272 27.9408 37.938 28.7629 38.1129 29.5908C38.1596 29.8532 38.2237 30.133 38.2878 30.407Z" fill="#FF9E18"/>
<path d="M40.3992 36.5695C39.8628 36.1264 39.3381 35.6717 38.79 35.2402C37.2916 34.0683 35.6999 33.0713 33.8109 32.634C33.805 32.634 33.7934 32.6224 33.7875 32.6282C32.9596 32.6574 32.5457 32.0627 32.1084 31.5146C31.4146 30.6459 31.0065 29.6489 30.7324 28.5586C30.989 28.5703 31.2163 28.6694 31.4496 28.7393C33.3153 29.3049 35.1227 30.0104 36.8602 30.8907C37.6473 31.2872 38.4169 31.7187 39.169 32.1734C39.2331 32.2084 39.2798 32.2667 39.3381 32.3134C39.5013 32.5174 39.6646 32.7273 39.8395 32.9314C39.9211 33.0188 39.9619 33.1005 39.9444 33.2229C39.7695 34.3773 39.9561 35.4909 40.3992 36.5695Z" fill="#FF9E18"/>
<path d="M60.304 24.6231C60.4964 24.6172 60.5781 24.4482 60.6772 24.3257C61.097 23.8418 61.5226 23.3579 61.9948 22.9264C62.6245 22.3434 63.2659 21.7662 63.9597 21.2531C64.257 21.0316 64.5427 21.0724 64.8284 21.2414C65.2074 21.463 65.4814 21.7953 65.7554 22.1277C66.1694 22.6232 66.6591 23.0022 67.2713 23.2296C67.6853 23.3812 68.0876 23.5561 68.5365 23.5853C67.592 24.2558 66.525 24.5764 65.3881 24.7397C64.8226 24.8213 64.2512 24.7397 63.6856 24.833C63.365 24.8854 63.0735 24.9846 62.7878 25.1478C61.4235 25.9349 60.1058 26.7745 58.9222 27.824C58.106 28.5469 57.3364 29.3282 56.5901 30.1211C56.5493 30.1678 56.4968 30.2028 56.4443 30.2436L56.4385 30.2377C56.6076 29.6547 56.9166 29.1358 57.1964 28.6052C57.797 27.4683 58.5316 26.4188 59.4295 25.4976C59.686 25.2353 59.96 24.9904 60.2224 24.7397C60.2807 24.7222 60.3157 24.6872 60.304 24.6231Z" fill="#FF4713"/>
<path d="M43.53 42.5754C42.9236 42.0914 42.3114 41.6075 41.7109 41.1178C40.469 40.1149 39.0989 39.3512 37.5538 38.9197C37.2448 38.8323 37.0407 38.6282 36.8308 38.4416C35.6939 37.4271 34.9476 36.1853 34.6561 34.681C34.6036 34.4012 34.7785 34.5294 34.8718 34.5586C35.9096 34.9142 36.8833 35.404 37.822 35.9754C39.1747 36.7916 40.4807 37.6778 41.7692 38.5932C41.8974 38.6807 42.0082 38.7973 42.1248 38.8964C42.1482 38.9139 42.1773 38.9372 42.2006 38.9547L42.1948 38.9489C42.1948 38.9838 42.2181 39.0013 42.2531 39.0072H42.2473C42.2706 39.0596 42.2997 39.0946 42.3581 39.0655H42.3522C42.3697 39.1996 42.4397 39.2637 42.5738 39.2345H42.5679C42.6263 39.9983 42.8536 40.7155 43.0927 41.4384C43.2384 41.8057 43.39 42.1906 43.53 42.5754Z" fill="#FF9E18"/>
<path d="M21.8347 58.6489C21.4033 58.9695 20.9718 59.2902 20.5404 59.6167C20.0156 60.019 19.52 60.4621 19.0944 60.9635C18.8262 61.2842 18.4939 61.2842 18.1616 61.3192C16.9663 61.4416 15.7828 61.4066 14.6342 61.0043C14.0161 60.7886 13.4389 60.4971 12.9434 60.054C12.8617 59.9782 12.7684 59.9082 12.9025 59.7916C13.6605 59.1503 14.401 58.474 15.2522 57.9492C16.1617 58.5089 17.1296 58.8937 18.1965 59.0337C19.3276 59.1794 20.4296 59.0745 21.5082 58.713C21.6248 58.6897 21.7181 58.6139 21.8347 58.6489Z" fill="#FF9E18"/>
<path d="M33.2683 62.8821C32.9009 63.2377 32.5336 63.5992 32.1605 63.9549C32.1138 64.0015 32.073 64.0423 31.9914 64.0248C31.5016 63.914 31.0294 64.0715 30.5513 64.1298C29.9041 64.2056 29.2686 64.3397 28.6098 64.3222C27.5195 64.2989 26.6158 63.9082 25.9278 63.0453C25.8228 62.9112 25.7937 62.8238 25.9569 62.6955C26.6916 62.1125 27.4087 61.5178 28.1317 60.9289C28.1842 60.8881 28.2308 60.8473 28.3008 60.8531C28.2308 61.1679 28.394 61.4012 28.6039 61.6052C29.1403 62.1125 29.8108 62.3515 30.493 62.5731C31.4025 62.8471 32.3296 62.9404 33.2683 62.8821Z" fill="#FF9E18"/>
<path d="M27.0759 60.142C26.5045 60.6434 25.8398 61.0224 25.2334 61.4888C24.9128 61.7337 24.5921 61.9844 24.3064 62.2643C24.2131 62.3517 24.1198 62.3984 23.9916 62.3984C22.6914 62.3925 21.4087 62.2468 20.1843 61.7978C20.1144 61.7745 20.0502 61.7454 19.9803 61.7162C19.8462 61.6638 19.8345 61.5996 19.9453 61.5063C20.814 60.7309 21.6769 59.9496 22.6156 59.2616C22.6331 59.25 22.6506 59.25 22.6681 59.2441C24.0266 60.0487 25.5016 60.3344 27.0759 60.142Z" fill="#FF9E18"/>
<path d="M41.8798 45.1231C40.7196 44.2252 39.7634 43.1582 39.1395 41.8172C38.9763 41.4674 38.8422 41.1118 38.7606 40.7328C38.7431 40.657 38.6848 40.5695 38.7606 40.5054C38.8247 40.4529 38.9005 40.5229 38.9646 40.5462C39.9675 40.9252 40.877 41.4674 41.7807 42.0271C42.5153 42.4819 43.2383 42.9425 43.9671 43.3973C43.4074 43.7762 42.9468 44.2835 42.4162 44.6975C42.2413 44.8374 42.0606 44.9831 41.8798 45.1231Z" fill="#FF9E18"/>
<path d="M37.623 66.5906C36.422 67.2261 34.941 67.0395 33.9382 66.13C33.5301 65.7569 33.1569 65.3546 32.8946 64.8648C32.8479 64.7774 32.7838 64.6957 32.8888 64.5966C33.4251 64.1244 33.9207 63.6113 34.5154 63.209C35.2442 64.6141 36.2412 65.7744 37.623 66.5906Z" fill="#FF9E18"/>
<path d="M13.7711 58.0371C13.497 58.3287 13.1414 58.5036 12.844 58.7601C12.5525 59.0167 12.2435 59.244 11.9811 59.5239C11.8703 59.6347 11.7537 59.6813 11.5963 59.6871C10.9783 59.7163 10.3719 59.5997 9.76558 59.5414C9.43908 59.5122 9.10675 59.5239 8.77441 59.5122C9.57901 59.279 10.4069 59.1158 11.2115 58.8651C11.9636 58.6318 12.7099 58.387 13.4446 58.1071C13.5378 58.0721 13.6428 57.9963 13.7711 58.0371Z" fill="#FF9E18"/>
<path d="M43.1512 34.9668C43.1861 35.0076 43.2153 35.0484 43.2503 35.0834C43.1745 35.1067 43.1395 35.0543 43.1104 34.9959C43.122 34.9901 43.1395 34.9785 43.1512 34.9668Z" fill="#CBA25B"/>
<path d="M40.9873 58.8064C41.0048 58.7948 41.0223 58.7773 41.0456 58.7656C41.0456 58.7656 41.0631 58.7831 41.0689 58.7948C41.0398 58.8006 41.0165 58.8064 40.9873 58.8064Z" fill="#CBA25B"/>
<path d="M68.7582 24.5706C68.7349 24.6231 68.6941 24.6289 68.6416 24.6289C68.6708 24.5881 68.6941 24.5415 68.7582 24.5706Z" fill="#FF9E18"/>
<path d="M60.3092 24.623C60.315 24.6872 60.2858 24.7222 60.2275 24.7338C60.245 24.6988 60.245 24.6405 60.3092 24.623Z" fill="#FF9E18"/>
<path d="M31.9622 18.5714C31.9098 18.5714 31.8514 18.5714 31.8281 18.5131C31.8864 18.4898 31.9214 18.5364 31.9622 18.5714Z" fill="#FF9E18"/>
<path d="M13.9408 57.9316C13.9117 57.9783 13.8709 57.9841 13.8242 57.9841C13.8534 57.9433 13.8942 57.9316 13.9408 57.9316Z" fill="#FF9E18"/>
<path d="M40.5672 28.29C40.5964 28.3192 40.6255 28.3425 40.6547 28.3717L40.6488 28.3775C40.5964 28.3892 40.5614 28.3717 40.5322 28.3309C40.5439 28.3134 40.5556 28.3017 40.5672 28.29Z" fill="#CBA25B"/>
<path d="M34.5859 57.3846C34.6034 57.3729 34.6209 57.3554 34.6384 57.3438C34.6442 57.3554 34.6501 57.3612 34.6559 57.3729C34.6326 57.3729 34.6034 57.3729 34.5859 57.3846Z" fill="#CBA25B"/>
<path d="M28.2653 56.0898C28.2478 56.0956 28.2303 56.1014 28.2187 56.1014C28.2128 56.1014 28.207 56.0898 28.2012 56.0839C28.2187 56.0781 28.2303 56.0723 28.2478 56.0723C28.2536 56.0723 28.2595 56.0839 28.2653 56.0898Z" fill="#CBA25B"/>
<path d="M38.3289 30.4538C38.3114 30.4363 38.2997 30.4188 38.2822 30.4071C38.323 30.4013 38.323 30.4246 38.3289 30.4538Z" fill="#FF9E18"/>
<path d="M69.1949 24.1276C69.1774 24.1451 69.1541 24.1684 69.1366 24.1859C69.1191 24.1276 69.1424 24.1101 69.1949 24.1276Z" fill="#FF9E18"/>
<path d="M43.3083 35.1413C43.2733 35.1413 43.25 35.1297 43.25 35.0889C43.2675 35.1064 43.285 35.1238 43.3083 35.1413Z" fill="#CBA25B"/>
<path d="M43.3601 35.1931C43.3251 35.1931 43.3076 35.1756 43.3076 35.1348L43.3018 35.1406C43.3192 35.1581 43.3426 35.1814 43.3601 35.1931Z" fill="#CBA25B"/>
<path d="M69.1424 24.1854C69.125 24.2029 69.1016 24.2262 69.0841 24.2437C69.0725 24.1913 69.0841 24.1679 69.1424 24.1854Z" fill="#FF9E18"/>
<path d="M56.4439 30.2431C56.4322 30.2548 56.4264 30.2664 56.4148 30.2781C56.3914 30.2489 56.4031 30.2314 56.4322 30.2314L56.4439 30.2431Z" fill="#FF4713"/>
<path d="M44.0196 40.3767C43.9963 40.365 43.973 40.3533 43.9905 40.3184C44.008 40.33 44.0255 40.3358 44.043 40.3475C44.0313 40.3592 44.0255 40.3708 44.0196 40.3767Z" fill="#CBA25B"/>
<path d="M44.0778 40.4235C44.0545 40.406 44.037 40.3943 44.0137 40.3768C44.0195 40.3651 44.0312 40.3593 44.037 40.3477C44.0545 40.3768 44.0661 40.4001 44.0778 40.4235Z" fill="#CBA25B"/>
<path d="M44.0771 40.4297C44.0891 40.4356 44.1069 40.4416 44.1188 40.4475C44.0831 40.4892 44.0891 40.4416 44.0771 40.4297Z" fill="#CBA25B"/>
<path d="M61.196 29.6436C61.1785 29.661 61.1552 29.6727 61.1377 29.6902C61.1552 29.6785 61.1727 29.661 61.196 29.6436Z" fill="#FF4713"/>
<path d="M43.5759 42.6216L43.5293 42.5691C43.5701 42.5633 43.5701 42.5924 43.5759 42.6216Z" fill="#FF9E18"/>
<path d="M45.1971 44.0439C45.2088 44.0614 45.2146 44.0731 45.2263 44.0906C45.2088 44.0848 45.1913 44.0789 45.1738 44.0673C45.1797 44.0614 45.1913 44.0556 45.1971 44.0439Z" fill="#CBA25B"/>
<path d="M45.3136 44.1556L45.3076 44.1377H45.3255L45.3136 44.1556Z" fill="#CBA25B"/>
<path d="M37.1454 22.4072C37.1629 22.4247 37.1978 22.4364 37.157 22.4655C37.1512 22.4714 37.1337 22.448 37.1162 22.4364C37.122 22.4247 37.1337 22.4131 37.1454 22.4072Z" fill="#CBA25B"/>
<path d="M37.274 22.5126C37.268 22.5185 37.2621 22.5245 37.2561 22.5245C37.2502 22.5245 37.2442 22.5185 37.2383 22.5126C37.2442 22.5066 37.2502 22.5006 37.2561 22.5006C37.2621 22.4947 37.268 22.5066 37.274 22.5126Z" fill="#CBA25B"/>
<path d="M40.6552 28.3662C40.6669 28.3779 40.6785 28.3837 40.6902 28.3954C40.6552 28.4245 40.6494 28.4012 40.6436 28.372L40.6552 28.3662Z" fill="#CBA25B"/>
<path d="M64.3962 27.9404C64.3787 27.9579 64.3554 27.9696 64.3379 27.9871C64.3554 27.9696 64.3787 27.9521 64.3962 27.9404Z" fill="#FF9E18"/>
<path d="M13.824 57.9844C13.8065 58.0019 13.7832 58.0194 13.7657 58.0427C13.7541 57.9844 13.7949 57.9902 13.824 57.9844Z" fill="#FF9E18"/>
<path d="M36.026 24.8036C35.9969 24.8328 35.9736 24.8269 35.9619 24.7861L36.026 24.8036Z" fill="#FF9E18"/>
<path d="M68.8098 24.5118L68.7515 24.5701C68.7398 24.5234 68.7573 24.5001 68.8098 24.5118Z" fill="#FF9E18"/>
<path d="M68.8621 24.4595C68.8446 24.477 68.8213 24.5003 68.8038 24.5178C68.798 24.4653 68.8155 24.4478 68.8621 24.4595Z" fill="#FF9E18"/>
<path d="M68.9211 24.4014C68.9036 24.4189 68.8861 24.4422 68.8628 24.4597C68.8512 24.4131 68.8687 24.3897 68.9211 24.4014Z" fill="#FF9E18"/>
<path d="M68.9734 24.3492C68.9559 24.3666 68.9326 24.39 68.9151 24.4075C68.9034 24.355 68.9267 24.3375 68.9734 24.3492Z" fill="#FF9E18"/>
<path d="M69.0315 24.2911L68.9732 24.3494C68.9615 24.3027 68.979 24.2794 69.0315 24.2911Z" fill="#FF9E18"/>
<path d="M69.0837 24.2378L69.0254 24.2961C69.0138 24.2437 69.0371 24.2262 69.0837 24.2378Z" fill="#FF9E18"/>
<path d="M43.3604 35.1992C43.3663 35.2052 43.3723 35.2111 43.3842 35.2171C43.3723 35.2052 43.3663 35.1992 43.3604 35.1992Z" fill="#CBA25B"/>
<path d="M42.5848 39.2169C42.4449 39.2461 42.3808 39.182 42.3633 39.0479C42.4741 39.0595 42.544 39.1236 42.5848 39.2169Z" fill="#9D1F60"/>
<path d="M42.3695 39.0536C42.3054 39.0827 42.2763 39.0477 42.2529 38.9953C42.3171 38.9719 42.352 38.9953 42.3695 39.0536Z" fill="#9D1F60"/>
<path d="M42.2008 38.9421C42.1775 38.9246 42.1483 38.9013 42.125 38.8838C42.1658 38.8838 42.2008 38.8896 42.2008 38.9421Z" fill="#9D1F60"/>
<path d="M42.2585 38.9948C42.2235 38.989 42.2002 38.9715 42.2002 38.9365C42.241 38.9365 42.2643 38.954 42.2585 38.9948Z" fill="#9D1F60"/>
<path d="M71.02 20.3492C71.02 21.2296 70.4311 21.9293 69.5216 22.1741C68.6879 22.3957 67.7258 22.0517 67.2303 21.3579C66.6997 20.6116 66.8338 19.6088 67.5509 18.9849C68.5946 18.0754 70.3145 18.4369 70.8917 19.6846C70.9909 19.9061 71.0317 20.1335 71.02 20.3492ZM67.5684 19.9411C67.5917 19.9469 67.6209 19.9586 67.6442 19.9586C67.9357 19.9469 68.1748 20.0344 68.2739 20.3317C68.373 20.6174 68.3264 20.8798 68.0698 21.0664C67.9357 21.1655 68.0115 21.2063 68.0932 21.2588C68.4255 21.4803 68.787 21.5736 69.1893 21.492C69.8598 21.3579 70.3379 20.7632 70.297 20.0927C70.2562 19.4455 69.679 18.8975 69.0085 18.8508C68.3089 18.8042 67.6909 19.2706 67.5684 19.9411Z" fill="#CBA25B"/>
<path d="M67.5684 19.9412C67.6908 19.2707 68.3088 18.8101 69.0085 18.8568C69.6848 18.9034 70.2562 19.4515 70.297 20.0986C70.3436 20.7691 69.8597 21.3638 69.1892 21.4979C68.7869 21.5737 68.4254 21.4863 68.0931 21.2647C68.0173 21.2122 67.9357 21.1714 68.0698 21.0723C68.3205 20.8857 68.3671 20.6175 68.2738 20.3377C68.1747 20.0403 67.9357 19.9529 67.6442 19.9645C67.6208 19.9587 67.5975 19.947 67.5684 19.9412Z" fill="#12100B"/>
</svg>
