<svg width="69" height="26" viewBox="0 0 69 26" fill="none" xmlns="http://www.w3.org/2000/svg">
<path d="M34.5304 25.8687C34.2637 25.8236 34.0152 25.7277 33.7667 25.6261C33.6515 25.5809 33.5303 25.5979 33.4212 25.6317C32.1544 26.0042 31.033 25.7107 30.0208 24.9658C29.2571 24.4071 28.7298 23.6735 28.3115 22.8722C27.9236 22.1273 27.6387 21.3485 27.3114 20.581C27.0811 20.0393 26.8265 19.5088 26.5417 18.9896C26.3598 18.6567 26.1052 18.3632 25.8628 18.0698C24.9415 16.9298 23.8868 15.9253 22.62 15.1127C21.329 14.2831 19.9228 13.7414 18.3711 13.5382C17.5589 13.431 16.7467 13.4141 15.9345 13.431C15.3526 13.4423 14.7768 13.4705 14.201 13.5156C13.6797 13.5551 13.1524 13.5946 12.6372 13.6849C12.2614 13.7526 11.8977 13.8881 11.534 14.0066C9.85504 14.5314 8.22456 15.1804 6.63046 15.8971C4.63631 16.7944 2.76338 17.8779 0.963188 19.0743C0.781351 19.1984 0.599513 19.2661 0.38737 19.1645C0.157042 19.0573 0.0236946 18.8767 0.00551082 18.6341C-0.0369179 18.1713 0.169165 17.7932 0.502533 17.4659C0.835902 17.1386 1.24807 16.9072 1.66023 16.6871C3.10281 15.9253 4.56357 15.1973 6.07888 14.5766C7.67299 13.9219 9.30953 13.3633 10.9764 12.8836C11.6734 12.6804 12.3462 12.4265 13.0493 12.2459C13.5827 12.1105 14.0615 11.8734 14.5707 11.6816C15.7708 11.2301 17.0134 10.9084 18.2862 10.6714C18.7287 10.5868 19.1833 10.5303 19.6258 10.4457C19.9773 10.378 20.3228 10.2538 20.6744 10.1579C22.1715 9.72335 23.6565 9.23803 25.087 8.6342C26.4144 8.07552 27.6872 7.4209 28.8631 6.61391C29.0874 6.46154 29.2632 6.25274 29.4571 6.06652C30.2269 5.33289 30.9724 4.57669 31.8028 3.8995C32.0028 3.73584 32.2089 3.57219 32.4271 3.42547C32.8575 3.13201 33.2272 2.77085 33.6454 2.46611C33.7424 2.39839 33.8333 2.31938 33.9303 2.25731C34.4213 1.95257 34.8335 1.5519 35.3123 1.23023C35.8032 0.902923 36.3245 0.643333 36.9185 0.524824C37.5368 0.400672 38.1368 0.490965 38.7127 0.711052C39.0339 0.835204 39.3551 0.970642 39.6703 1.10608C40.2401 1.34874 40.7856 1.30924 41.319 1.02143C41.6887 0.823917 42.0585 0.62076 42.4343 0.428889C42.8585 0.208801 43.3131 0.062076 43.8041 0.0169298C43.8162 0.0169298 43.8344 0.0112865 43.8344 0H44.392C44.3981 0.0225731 44.4163 0.0169298 44.4345 0.0225731C45.5497 0.146725 46.4407 0.648976 47.0954 1.48982C47.8954 2.5169 48.0894 3.67941 47.8591 4.90965C47.6591 5.97058 47.1257 6.87915 46.3741 7.68613C46.168 7.90622 45.9377 8.10938 45.7195 8.31818C45.5619 8.31254 45.3982 8.30125 45.2406 8.30125C44.3375 8.28996 43.4344 8.29561 42.5312 8.34075C42.2888 8.35204 42.0463 8.36333 41.8039 8.3859C41.422 8.41412 41.0402 8.45362 40.6583 8.48184C40.6644 8.47055 40.6704 8.45926 40.6826 8.44798C41.0402 8.06988 41.3432 7.65792 41.5554 7.18953C41.7736 6.71549 41.9251 6.23017 41.9069 5.70535C41.8887 5.29903 41.7433 4.93222 41.4281 4.65005C40.9008 4.17602 40.2583 4.04622 39.5491 4.15345C39.0642 4.22681 38.6157 4.41868 38.1732 4.6162C37.5671 4.88143 36.9913 5.16359 36.4276 5.47962C35.8881 5.78435 35.3487 6.08909 34.8516 6.44461C34.4819 6.70421 34.1607 7.02023 33.8212 7.31368C33.5545 7.54505 33.2878 7.77643 33.0272 8.01344C32.9969 8.04166 32.9363 8.0473 32.9423 8.10938C32.906 8.10374 32.8878 8.12631 32.8757 8.15453C32.809 8.20531 32.7423 8.25046 32.6756 8.30689C31.8149 9.04052 30.9361 9.75157 29.9784 10.3723C29.0874 10.9479 28.1479 11.4389 27.1054 11.7549C26.3719 11.975 25.6203 12.0992 24.8506 12.15C24.2748 12.1838 23.6989 12.1838 23.1231 12.1838C22.62 12.1838 22.1169 12.1612 21.6139 12.2628C21.7533 12.3193 21.8927 12.3644 22.02 12.4208C22.8201 12.7369 23.5171 13.2053 24.196 13.7019C24.202 13.7357 24.2202 13.7526 24.2626 13.7526C24.2626 13.7696 24.2687 13.7752 24.2869 13.7752C24.2808 13.8147 24.3111 13.826 24.3354 13.8486C24.693 14.1364 25.0082 14.4693 25.3233 14.7967C25.584 15.0957 25.8386 15.3948 26.0749 15.7109C26.2568 15.9592 26.4204 16.2244 26.6265 16.4614C27.2023 17.1273 27.6812 17.8497 28.0933 18.6115C28.3722 19.1194 28.6328 19.6329 28.8995 20.1465C29.4389 21.1679 29.9845 22.1837 30.7967 23.0528C31.027 23.3011 31.2937 23.4986 31.6331 23.6002C31.6998 23.6171 31.7543 23.6453 31.8089 23.6848C32.1604 23.95 32.5787 24.0065 33.003 23.9613C33.4091 23.9162 33.7364 23.6961 33.997 23.4026C34.0637 23.3293 34.1122 23.239 34.191 23.1826C34.4334 23.002 34.5849 22.7762 34.6819 22.5054C34.8698 21.9693 34.8395 21.4331 34.7062 20.897C34.5728 20.3553 34.3061 19.8643 33.9788 19.3959C33.5485 18.7864 33.0211 18.2447 32.4877 17.7142C32.1362 17.3643 31.7665 17.0257 31.4088 16.6871C31.3785 16.6589 31.3543 16.6251 31.3058 16.6138C31.2634 16.5743 31.2209 16.5348 31.1846 16.4896C30.8815 16.1115 30.5178 15.7842 30.1481 15.4626C30.0572 15.3836 29.9784 15.2707 29.845 15.2425C29.8511 15.2086 29.8329 15.1917 29.7966 15.186H29.8026C29.7966 15.1691 29.7905 15.1635 29.7723 15.1635C29.5359 14.9039 29.2874 14.6556 29.0086 14.4355C28.9359 14.3791 28.8692 14.3226 28.8146 14.2493C28.5601 13.9163 28.2631 13.6172 27.9297 13.352C27.9054 13.335 27.8691 13.3238 27.8691 13.2899C28.1358 13.256 28.4025 13.2617 28.6692 13.2504C28.8631 13.2448 29.0571 13.256 29.245 13.2617C29.4208 13.2673 29.6087 13.256 29.7784 13.2899C31.8089 13.668 33.7545 14.2944 35.6093 15.1522C36.2275 15.44 36.8276 15.7447 37.4458 16.0269C38.5854 16.5461 39.7188 17.0822 40.8523 17.6126C40.8583 17.6352 40.8765 17.6465 40.8947 17.6409C40.9008 17.6747 40.9311 17.686 40.9553 17.7029C41.1735 17.844 41.3917 17.9851 41.6039 18.1262C42.3555 18.6171 43.0828 19.1363 43.798 19.6668C44.5254 20.1973 45.2346 20.7503 45.9619 21.2751C46.6347 21.7661 47.3439 22.2063 48.1561 22.4771C48.7198 22.669 49.3017 22.7367 49.8896 22.6521C50.6412 22.5392 51.2958 22.2288 51.7746 21.6589C52.302 21.0325 52.4656 20.3327 52.205 19.5709C51.9989 18.9557 51.5504 18.5043 51.0352 18.1036C50.8958 17.9907 50.72 17.9174 50.5988 17.7819C50.3745 17.528 50.126 17.3023 49.8532 17.0991C49.1562 16.5743 48.3622 16.2357 47.4954 16.0212C46.665 15.8124 45.8104 15.7334 44.9557 15.6488C44.5496 15.6093 44.1375 15.5811 43.7314 15.5472C43.4404 15.2989 43.1131 15.1127 42.7555 14.9603C42.0342 14.6612 41.2766 14.4806 40.5068 14.3226C39.7734 14.1759 39.0278 14.0574 38.3005 13.8937C37.3186 13.668 36.3548 13.3802 35.3911 13.0924C35.2274 13.0416 35.0517 13.0134 34.9001 12.9231C34.397 12.6353 33.9121 12.3249 33.4454 11.9863C33.4151 11.9637 33.3727 11.9524 33.3727 11.9073C33.4091 11.896 33.4454 11.8904 33.4757 11.8847C35.0759 11.5687 36.6882 11.2978 38.3247 11.1567C39.0339 11.0947 39.7491 11.0552 40.4644 11.0495C41.3129 11.0382 42.1615 11.0721 43.0101 11.1398C43.5253 11.1793 44.0405 11.2358 44.5557 11.2922C45.1558 11.3543 45.7558 11.4276 46.3559 11.4446C46.8408 11.4558 47.3257 11.4784 47.8106 11.4953C48.1985 11.5066 48.5804 11.5348 48.9683 11.5179C49.5683 11.4897 50.1563 11.3994 50.7382 11.2583C51.1018 11.168 51.4595 11.0495 51.811 10.9254C51.9322 10.9367 52.0474 10.9084 52.1626 10.8972C52.4899 10.8689 52.8051 10.7899 53.1263 10.7279C53.1384 10.7335 53.1506 10.7391 53.1627 10.7391C53.393 10.7166 53.6233 10.6884 53.8537 10.6714C54.2295 10.6432 54.5992 10.5924 54.9629 10.5416C55.4781 10.4683 55.9933 10.378 56.5024 10.2708C57.4904 10.0732 58.4481 9.808 59.3633 9.40733C60.3392 8.98409 61.2059 8.41976 61.9212 7.66356C62.2424 7.31932 62.5091 6.94687 62.697 6.52362C62.8667 6.15116 62.9031 5.76178 62.7698 5.37804C62.5758 4.80807 62.1454 4.45254 61.5575 4.24938C61.0241 4.06315 60.4786 4.02365 59.9149 4.0688C59.4967 4.10266 59.0784 4.15345 58.6723 4.24938C57.8116 4.44125 57.0055 4.76292 56.2175 5.11845C55.5993 5.39497 54.9932 5.69406 54.381 5.98751C53.7627 6.28096 53.1445 6.57441 52.5141 6.83964C51.5807 7.23467 50.6048 7.52812 49.6168 7.77643C48.9683 7.93444 48.3137 8.06423 47.6591 8.17146C47.4045 8.2166 47.156 8.26175 46.9014 8.27868C46.9741 8.23917 47.0529 8.19967 47.1257 8.16581C48.8107 7.35318 50.3927 6.39383 51.8474 5.25953C52.7263 4.57105 53.5809 3.86 54.4901 3.19973C55.2902 2.61848 56.1266 2.08237 57.0601 1.69298C58.3632 1.14558 59.7149 0.891637 61.1393 1.10608C61.9636 1.23023 62.7091 1.51804 63.3638 2.00336C63.5456 2.1388 63.7214 2.27988 63.9274 2.3871C64.0487 2.45482 64.176 2.4774 64.3154 2.46611C64.4184 2.46047 64.5214 2.43789 64.6184 2.40968C65.5882 2.1388 66.4671 2.31938 67.2611 2.895C67.8915 3.35775 68.3279 3.95593 68.6492 4.63312C68.9219 5.20874 69.0734 5.80693 68.9643 6.43897C68.8674 7.02587 68.5582 7.49426 67.9642 7.7595C67.8612 7.80464 67.7582 7.86108 67.6551 7.91751C67.4127 8.04166 67.2611 8.23353 67.1823 8.47619C67.146 8.5947 67.1157 8.71885 67.0975 8.84865C67.049 9.22675 67.0308 9.60485 66.9702 9.98294C66.8369 10.8464 66.4611 11.5913 65.7943 12.2064C64.776 13.1432 63.5274 13.6059 62.1212 13.7188C61.2666 13.7865 60.4119 13.7188 59.5694 13.5946C58.5026 13.4423 57.448 13.2278 56.3873 13.0529C55.1386 12.8497 53.89 12.6691 52.6353 12.545C51.5686 12.4378 50.4957 12.3588 49.4168 12.308C48.3076 12.2515 47.2045 12.2233 46.0953 12.2233C44.8891 12.2177 43.6768 12.2177 42.4706 12.2403C41.8645 12.2515 41.2644 12.2628 40.6583 12.2741C39.6582 12.291 38.6642 12.3023 37.6641 12.3249C37.0337 12.3362 36.4033 12.308 35.779 12.3813C35.579 12.4039 35.379 12.4208 35.1789 12.4434C35.2153 12.4716 35.2577 12.4886 35.3002 12.4998C36.6155 12.9118 37.955 13.256 39.3188 13.5213C39.6643 13.589 40.0098 13.6793 40.3613 13.6962C40.8159 13.7244 41.2705 13.7244 41.7251 13.7188C42.6464 13.7019 43.5617 13.6624 44.4769 13.6341C45.2588 13.6116 46.0407 13.6059 46.8226 13.6398C47.7318 13.6849 48.641 13.7809 49.5199 14.0066C50.52 14.2549 51.4655 14.6274 52.2899 15.2255C53.3081 15.9648 53.9264 16.9016 53.9385 18.1375C53.9446 18.6905 54.1446 19.1702 54.5749 19.5596C54.7628 19.7289 54.9447 19.9151 55.0901 20.1183C55.5569 20.7842 55.6842 21.5121 55.5447 22.2853C55.3144 23.5324 54.0961 24.4974 52.7384 24.5369C52.3686 24.5482 52.011 24.4974 51.6534 24.4466C51.3261 24.3959 51.0291 24.4466 50.7685 24.6554C50.6533 24.7457 50.5381 24.8304 50.423 24.9207C50.1502 25.1295 49.8775 25.3326 49.5623 25.4737C48.8834 25.7672 48.1803 25.7785 47.4651 25.6261C46.6226 25.4399 45.9255 25.0223 45.3073 24.4749C44.786 24.0178 44.3375 23.4986 43.895 22.9738C42.4888 21.309 40.9917 19.7232 39.3188 18.2842C38.749 17.7932 38.1793 17.3079 37.5246 16.9129C35.9427 15.9705 34.2758 15.2086 32.4938 14.6443C32.4574 14.633 32.4271 14.6048 32.3847 14.6274C32.3968 14.6669 32.4332 14.6781 32.4574 14.7007C32.712 14.8982 32.9666 15.1014 33.203 15.3215C34.4092 16.4219 35.3668 17.6973 36.1063 19.1025C36.7549 20.344 37.1307 21.6532 37.0943 23.0471C37.0761 23.6509 36.9488 24.2322 36.6336 24.7627C36.3185 25.2988 35.8639 25.6825 35.2214 25.8462C35.1183 25.8744 35.0092 25.8913 34.9001 25.9139H34.5304V25.8687ZM32.4029 14.5653L32.3968 14.5596L32.3908 14.5653C32.3968 14.5653 32.3968 14.5709 32.4029 14.5709C32.4029 14.5709 32.4029 14.5709 32.4029 14.5653Z" fill="#FF9E18"/>
<path d="M40.8647 17.5839C39.7313 17.0535 38.5978 16.5173 37.4583 15.9982C36.8401 15.716 36.2339 15.4113 35.6218 15.1235C33.767 14.2657 31.8214 13.6449 29.7908 13.2612C29.6151 13.2273 29.4332 13.2386 29.2575 13.233C29.0635 13.2273 28.8695 13.216 28.6816 13.2217C28.4149 13.233 28.1482 13.2273 27.8816 13.2612C27.8876 13.295 27.924 13.3063 27.9422 13.3233C28.2755 13.5885 28.5725 13.8876 28.8271 14.2205C28.8817 14.2939 28.9483 14.3503 29.0211 14.4068C29.2999 14.6268 29.5484 14.8751 29.7848 15.1347C29.7908 15.146 29.7969 15.1573 29.8151 15.1573C29.8151 15.1855 29.8333 15.2081 29.8636 15.2137C29.9727 15.3887 30.1121 15.5523 30.2151 15.7329C30.4939 16.2182 30.6879 16.7261 30.6394 17.2905C30.597 17.7701 30.2576 18.1652 29.7605 18.278C29.409 18.357 29.0817 18.2611 28.7726 18.1144C28.518 17.9902 28.2937 17.8209 28.0695 17.6629C27.924 17.5331 27.7785 17.409 27.6391 17.2792C27.1603 16.8277 26.7481 16.3198 26.3359 15.8176C26.0753 15.5072 25.8268 15.1855 25.5419 14.8921C25.5298 14.8695 25.5177 14.8469 25.4934 14.8356C25.4874 14.83 25.4813 14.8187 25.4752 14.8131C25.4631 14.8018 25.451 14.7849 25.4389 14.7736C25.2449 14.5422 25.0267 14.3334 24.7964 14.1302C24.6448 13.9948 24.4933 13.8594 24.3175 13.7521C24.3175 13.7409 24.3115 13.7296 24.2933 13.7296C24.2812 13.7013 24.2509 13.6901 24.2266 13.6788C23.5478 13.1822 22.8507 12.7138 22.0506 12.3978C21.9173 12.347 21.7839 12.2962 21.6445 12.2397C22.1537 12.1382 22.6568 12.1607 23.1538 12.1607C23.7296 12.1607 24.3054 12.1664 24.8812 12.1269C25.651 12.0817 26.4026 11.9519 27.136 11.7318C28.1725 11.4215 29.118 10.9249 30.009 10.3492C30.9667 9.72849 31.8456 9.01744 32.7063 8.28381C32.7669 8.22738 32.8396 8.18223 32.9063 8.13144C32.9306 8.12016 32.9609 8.11451 32.973 8.0863C33.1063 8.02422 33.2336 7.94521 33.3609 7.86621C33.3852 7.86057 33.4094 7.84928 33.4276 7.82671C33.464 7.80978 33.5064 7.79285 33.5428 7.77027C33.7973 7.62919 34.058 7.4994 34.3307 7.39217C34.7126 7.23416 35.1005 7.10437 35.5369 7.13823C36.0279 7.18337 36.4218 7.48247 36.537 7.92828C36.6158 8.24431 36.5552 8.54904 36.4097 8.83685C36.3612 8.92714 36.3067 9.01744 36.2582 9.11337C36.3612 9.12466 36.4522 9.10209 36.5431 9.10209C37.028 9.10773 37.5129 9.07387 37.9978 9.0908C38.513 9.10773 39.0342 9.10773 39.5494 9.13594C40.1253 9.16416 40.695 9.19238 41.2708 9.22059C42.0527 9.25445 42.8407 9.29396 43.6226 9.31653C44.2408 9.33346 44.8591 9.33346 45.4773 9.31089C46.2047 9.28267 46.926 9.23188 47.6412 9.12466C48.5322 8.99486 49.399 8.78042 50.2354 8.47004C50.6658 8.31203 51.0779 8.10887 51.5507 8.07501C52.1023 8.02986 52.5993 8.14837 52.9993 8.53211C53.46 8.98358 53.5146 9.59305 53.1388 10.0784C52.963 10.2985 52.7387 10.4678 52.4841 10.5976C52.2841 10.6935 52.0841 10.7838 51.8841 10.8741C51.5325 10.9982 51.1749 11.1167 50.8112 11.207C50.2294 11.3481 49.6354 11.444 49.0414 11.4666C48.6595 11.4835 48.2716 11.4553 47.8837 11.4384C47.3988 11.4215 46.9139 11.4045 46.429 11.3876C45.8228 11.3707 45.2288 11.303 44.6288 11.2352C44.1136 11.1788 43.5984 11.128 43.0831 11.0829C42.2346 11.0152 41.386 10.9869 40.5374 10.9926C39.8222 10.9982 39.113 11.0377 38.3978 11.0998C36.7673 11.2409 35.155 11.5061 33.5488 11.8278C33.5124 11.8334 33.4821 11.8447 33.4458 11.8504C33.4518 11.8955 33.4943 11.9068 33.5185 11.9294C33.9852 12.268 34.4701 12.5783 34.9732 12.8661C35.1247 12.9508 35.3005 12.9847 35.4642 13.0354C36.4279 13.3233 37.3916 13.6167 38.3736 13.8368C39.107 14.0004 39.8464 14.119 40.5799 14.2657C41.3496 14.418 42.1073 14.6043 42.8225 14.9034C43.1801 15.0501 43.5135 15.242 43.7984 15.4903C43.859 15.5467 43.9135 15.6088 43.9742 15.6652C43.9863 15.6821 44.0045 15.7047 44.0166 15.7216C44.4469 16.2578 44.453 16.9067 44.0045 17.4259C43.562 17.9338 42.968 18.0862 42.2891 18.0128C42.1558 17.9959 42.0224 17.9677 41.8891 17.9451C41.7133 17.883 41.5375 17.8153 41.3618 17.7532C41.2223 17.7024 41.089 17.6234 40.9435 17.5783C40.9072 17.5952 40.8829 17.5952 40.8647 17.5839Z" fill="#12100B"/>
<path d="M46.3379 8.34108C46.5319 8.31286 46.7197 8.28464 46.9137 8.26207C46.9258 8.25643 46.9319 8.25643 46.944 8.25078C47.1986 8.23385 47.4532 8.18871 47.7017 8.14921C48.3623 8.04198 49.017 7.91219 49.6655 7.75418C50.6535 7.51152 51.6294 7.21807 52.5628 6.8174C53.1932 6.55216 53.8114 6.25871 54.4297 5.96526C55.0418 5.67182 55.648 5.37272 56.2662 5.0962C57.0602 4.74068 57.8664 4.41901 58.721 4.22714C59.1271 4.13685 59.5453 4.08042 59.9636 4.04656C60.5273 4.00141 61.0728 4.04656 61.6062 4.22714C62.1941 4.4303 62.6245 4.78582 62.8184 5.35579C62.9518 5.74518 62.9093 6.12892 62.7457 6.50137C62.5578 6.92462 62.2911 7.29707 61.9698 7.64131C61.2546 8.39751 60.3879 8.96183 59.412 9.38508C58.4968 9.78575 57.533 10.051 56.5511 10.2485C56.0419 10.3501 55.5267 10.446 55.0115 10.5194C54.6418 10.5702 54.2721 10.621 53.9023 10.6492C53.672 10.6661 53.4417 10.6943 53.2113 10.7169C53.1992 10.7169 53.1871 10.7112 53.175 10.7056C53.2235 10.6661 53.2841 10.6605 53.3386 10.6435C53.8963 10.4742 54.4054 10.2259 54.7994 9.80268C55.2176 9.35686 55.4298 8.84333 55.3388 8.24514C55.2358 7.56231 54.6236 7.16728 53.9205 7.29707C53.5871 7.35915 53.278 7.49459 52.9628 7.60745C52.5143 7.76546 52.0658 7.90654 51.6051 8.01941C51.1384 8.13228 50.6656 8.23385 50.1868 8.29029C49.7686 8.34108 49.3564 8.39751 48.9382 8.40315C48.3078 8.40879 47.6835 8.41444 47.0531 8.38622C46.841 8.37494 46.6288 8.35236 46.4106 8.36365C46.3743 8.36365 46.35 8.36365 46.3379 8.34108Z" fill="#FF4713"/>
<path d="M40.9062 17.6133C41.0517 17.6585 41.1851 17.7318 41.3245 17.7883C41.5003 17.8504 41.6761 17.9181 41.8519 17.9802C41.9913 18.0874 42.161 18.1551 42.3186 18.2398C42.9733 18.5953 43.634 18.9509 44.2887 19.3008C44.7493 19.5491 45.2282 19.7579 45.7556 19.8652C46.0526 19.9216 46.3496 19.9385 46.6406 19.8652C47.2649 19.7128 47.7196 19.1766 47.7741 18.5897C47.8165 18.1551 47.6832 17.7601 47.4286 17.3989C47.1073 16.9474 46.6709 16.62 46.1617 16.3661C45.7313 16.1573 45.2828 16.0049 44.816 15.8807C44.5251 15.8074 44.2341 15.734 43.931 15.6945C43.8704 15.638 43.8158 15.576 43.7552 15.5195C44.1614 15.5534 44.5736 15.576 44.9797 15.6211C45.8344 15.7058 46.683 15.7904 47.5195 15.9936C48.3803 16.2081 49.1804 16.5467 49.8775 17.0715C50.1503 17.2747 50.4049 17.5005 50.6231 17.7544C50.7383 17.8899 50.9141 17.9632 51.0595 18.0761C51.5748 18.4768 52.0233 18.9283 52.2294 19.5435C52.484 20.311 52.3204 21.0108 51.7991 21.6316C51.3202 22.2016 50.6716 22.512 49.9139 22.6249C49.3259 22.7152 48.744 22.6418 48.1742 22.4499C47.3619 22.1734 46.6527 21.7332 45.9799 21.2478C45.2525 20.7173 44.5372 20.1699 43.8158 19.6394C43.0945 19.1089 42.3671 18.5897 41.6215 18.0987C41.4033 17.9576 41.1911 17.8165 40.9729 17.6754C40.9426 17.6585 40.9184 17.6472 40.9062 17.6133Z" fill="#FF4713"/>
<path d="M25.4149 14.7793C25.4271 14.7906 25.4392 14.8075 25.4513 14.8188C25.4574 14.8244 25.4634 14.8357 25.4695 14.8414C25.4695 14.8696 25.4877 14.8922 25.518 14.8978C25.8029 15.1913 26.0514 15.513 26.3121 15.8234C26.7303 16.3257 27.1365 16.8336 27.6153 17.2851C27.7548 17.4149 27.9063 17.5447 28.0457 17.6689C28.076 17.7761 28.1609 17.8494 28.2336 17.9285C28.5306 18.2897 28.8398 18.6452 29.2096 18.9556C29.4763 19.1757 29.7551 19.3732 30.0824 19.503C30.4158 19.6328 30.7553 19.7006 31.1129 19.6328C31.4887 19.5595 31.7676 19.3676 31.9131 19.029C32.0222 18.7694 32.0282 18.5041 31.9979 18.2276C31.9434 17.7874 31.7858 17.381 31.5615 16.9973C31.4827 16.8618 31.3736 16.7433 31.313 16.5966C31.3615 16.6022 31.3857 16.6417 31.416 16.6643C31.7797 17.0085 32.1434 17.3415 32.495 17.6914C33.0284 18.2219 33.5558 18.7581 33.9862 19.3732C34.3135 19.8417 34.5741 20.3327 34.7136 20.8744C34.8469 21.4106 34.8772 21.9524 34.6893 22.4829C34.5923 22.7481 34.4408 22.9795 34.1983 23.1601C34.1195 23.2166 34.065 23.3069 34.0043 23.3802C33.7437 23.6737 33.4164 23.8938 33.0102 23.939C32.5859 23.9897 32.1677 23.9277 31.8161 23.6624C31.7615 23.6229 31.707 23.5947 31.6403 23.5778C31.3008 23.4762 31.0341 23.273 30.8038 23.0303C29.9915 22.1612 29.446 21.1453 28.9065 20.1238C28.6398 19.6103 28.3791 19.0967 28.1003 18.5888C27.6881 17.8269 27.2092 17.1045 26.6333 16.4385C26.4333 16.2015 26.2696 15.9419 26.0817 15.6936C25.8453 15.3775 25.5907 15.0784 25.3301 14.7793H25.4149Z" fill="#FF4713"/>
<path d="M46.337 8.34071C46.3552 8.36328 46.3795 8.36893 46.4037 8.36328C46.6158 8.352 46.834 8.37457 47.0462 8.38586C47.6766 8.41407 48.3009 8.40843 48.9312 8.40279C49.3495 8.39714 49.7677 8.34635 50.1798 8.28992C50.6587 8.22785 51.1315 8.13191 51.5982 8.01904C52.0588 7.90618 52.5134 7.75945 52.9559 7.60708C53.2711 7.49422 53.5802 7.35878 53.9136 7.2967C54.6167 7.16691 55.2289 7.5563 55.3319 8.24478C55.4228 8.84296 55.2046 9.35086 54.7924 9.80232C54.3985 10.2256 53.8893 10.4739 53.3317 10.6432C53.2771 10.6601 53.2105 10.6657 53.168 10.7052C52.8468 10.7673 52.5316 10.8407 52.2043 10.8745C52.0891 10.8858 51.974 10.914 51.8527 10.9028C52.0528 10.8125 52.2588 10.7222 52.4528 10.6262C52.7134 10.5021 52.9377 10.3328 53.1074 10.1071C53.4893 9.61609 53.4347 9.00662 52.9741 8.5608C52.5801 8.17706 52.0831 8.05855 51.5254 8.10369C51.0527 8.13755 50.6405 8.34071 50.2102 8.49872C49.3737 8.8091 48.5069 9.02355 47.6159 9.15334C46.9007 9.26057 46.1794 9.31136 45.4521 9.33957C44.8338 9.36215 44.2156 9.36215 43.5973 9.34522C42.8094 9.32264 42.0275 9.28314 41.2456 9.24928C40.6698 9.22671 40.1 9.19285 39.5242 9.16463C39.009 9.14206 38.4877 9.13641 37.9725 9.11948C37.4876 9.10255 37.0027 9.13641 36.5178 9.13077C36.4269 9.13077 36.336 9.15334 36.2329 9.14206C36.2875 9.04612 36.342 8.95583 36.3845 8.86554C36.5299 8.57773 36.5906 8.27299 36.5118 7.95697C36.3966 7.51115 36.0087 7.21205 35.5117 7.16691C35.0752 7.12741 34.6873 7.26284 34.3055 7.42086C34.0327 7.53372 33.7721 7.66352 33.5175 7.79896C33.4811 7.82153 33.4387 7.83282 33.4023 7.84975C33.4023 7.83846 33.4023 7.82153 33.4145 7.81589C33.6205 7.65223 33.8266 7.48858 34.0388 7.33056C34.4994 6.99761 35.0146 6.76623 35.5783 6.60822C35.8814 6.52357 36.1723 6.39942 36.439 6.23577C36.633 6.11161 36.8209 5.98182 37.033 5.88024C37.4209 5.69401 37.821 5.62629 38.2453 5.77302C38.718 5.93103 39.0211 6.33735 39.0272 6.80574C39.0332 7.20641 38.8817 7.57322 38.6574 7.91182C38.4392 8.24478 38.1483 8.5213 37.8452 8.79217C37.8149 8.82039 37.7725 8.84296 37.7543 8.8994C37.8755 8.87682 37.9968 8.85425 38.1119 8.83732C38.5059 8.78089 38.8938 8.71881 39.2878 8.66802C39.5848 8.62852 39.8757 8.59466 40.1727 8.5608C40.3364 8.54387 40.494 8.5213 40.6576 8.50437C41.0395 8.47051 41.4214 8.43665 41.8032 8.40843C42.0457 8.3915 42.2881 8.37457 42.5306 8.36328C43.4337 8.31814 44.3368 8.31249 45.2399 8.32378C45.3975 8.32378 45.5612 8.33507 45.7188 8.34071C45.9188 8.33507 46.1249 8.35764 46.337 8.34071Z" fill="#E1251B"/>
<path d="M40.6464 8.48826C40.4828 8.50519 40.3251 8.52776 40.1615 8.5447C39.8645 8.57856 39.5674 8.61242 39.2765 8.65193C38.8825 8.70836 38.4885 8.7648 38.1005 8.82123C37.9853 8.83816 37.8641 8.86074 37.7429 8.88331C37.7611 8.82688 37.8035 8.8043 37.8338 8.77608C38.1369 8.50519 38.4278 8.23429 38.6461 7.89568C38.8703 7.55706 39.0219 7.19022 39.0158 6.78952C39.0098 6.32674 38.7067 5.9204 38.2339 5.76238C37.8096 5.62128 37.4095 5.68901 37.0215 5.86961C36.8094 5.97119 36.6275 6.10664 36.4275 6.22516C36.1608 6.38882 35.8698 6.51298 35.5667 6.59764C35.0091 6.75566 34.4878 6.98705 34.0271 7.32002C33.8149 7.4724 33.6088 7.64171 33.4027 7.80538C33.3967 7.81102 33.3967 7.82795 33.3906 7.83924C33.3542 7.8336 33.336 7.85053 33.3239 7.87874C33.1966 7.95776 33.0754 8.03677 32.936 8.09885C32.9299 8.04241 32.9905 8.03112 33.0208 8.00291C33.2875 7.77152 33.5482 7.53448 33.8149 7.30309C34.1544 7.00962 34.4817 6.69358 34.8454 6.43397C35.3425 6.07842 35.8819 5.77366 36.4214 5.46891C36.9791 5.15286 37.561 4.86504 38.149 4.60543C38.5915 4.41354 39.034 4.22166 39.525 4.14265C40.2342 4.03542 40.8768 4.16522 41.4041 4.63929C41.7193 4.92147 41.8648 5.28267 41.883 5.69465C41.9072 6.21951 41.7496 6.70487 41.5314 7.17893C41.3193 7.64736 41.0162 8.05934 40.6525 8.43747C40.6646 8.46568 40.6585 8.47697 40.6464 8.48826Z" fill="#FF4713"/>
<path d="M31.3112 16.5968C31.3718 16.7435 31.4809 16.862 31.5597 16.9975C31.7901 17.3813 31.9477 17.7876 31.9962 18.2278C32.0265 18.5043 32.0265 18.7696 31.9113 19.0292C31.7658 19.3735 31.487 19.5654 31.1112 19.6331C30.7535 19.7008 30.408 19.6331 30.0807 19.5033C29.7534 19.3735 29.4745 19.1759 29.2078 18.9558C28.838 18.6454 28.5289 18.2955 28.2319 17.9287C28.1652 17.844 28.0803 17.7707 28.0439 17.6691C28.2743 17.8271 28.4925 17.9964 28.7471 18.1206C29.0563 18.2673 29.3836 18.3633 29.7352 18.2842C30.2322 18.1714 30.5777 17.7763 30.6202 17.2966C30.6687 16.7322 30.4747 16.2243 30.1959 15.7389C30.0928 15.5583 29.9534 15.3947 29.8443 15.2197C29.9776 15.2536 30.0564 15.3608 30.1474 15.4398C30.5171 15.7615 30.8808 16.0889 31.1839 16.467C31.2263 16.5121 31.2748 16.5516 31.3112 16.5968Z" fill="#E1251B"/>
<path d="M43.9376 15.6992C44.2346 15.7387 44.5316 15.8121 44.8226 15.8855C45.2893 16.004 45.7379 16.162 46.1683 16.3708C46.6775 16.6191 47.1139 16.9521 47.4352 17.4036C47.6898 17.7648 47.8171 18.1598 47.7807 18.5944C47.7261 19.1813 47.2715 19.7175 46.6472 19.8699C46.3501 19.9432 46.0531 19.9263 45.7621 19.8699C45.2348 19.7683 44.7559 19.5538 44.2952 19.3055C43.6345 18.9556 42.9798 18.6 42.3251 18.2445C42.1675 18.1598 42.0039 18.0921 41.8584 17.9849C41.9918 18.0075 42.1251 18.0357 42.2585 18.0526C42.9374 18.126 43.5314 17.9736 43.9739 17.4657C44.4225 16.9465 44.4225 16.2974 43.9921 15.7613C43.9679 15.7387 43.9558 15.7161 43.9376 15.6992Z" fill="#E1251B"/>
</svg>
