<svg width="90" height="69" viewBox="0 0 90 69" fill="none" xmlns="http://www.w3.org/2000/svg">
<path d="M13.1256 25.8753C12.2441 25.3421 11.4615 24.6517 10.9114 23.7115C10.3623 22.7496 10.2074 21.544 11.1812 21.0986C11.7338 20.8514 12.4227 20.8849 13.0479 20.9479C13.7311 21.0152 14.4196 21.1452 15.1061 21.3185C15.2828 21.3629 15.4512 21.4099 15.6279 21.4544C16.4696 21.6892 17.2959 21.9819 18.1213 22.2963C18.5678 22.5292 19.0096 22.7741 19.4598 23.0165C20.0315 23.3303 20.6078 23.6321 21.1842 23.9338C20.9251 23.8707 20.6782 23.8146 20.4434 23.7657C20.1179 23.7006 19.8045 23.6427 19.5032 23.5918C18.7809 23.4718 18.123 23.397 17.5539 23.3819C17.3545 23.3761 17.1635 23.3678 16.9884 23.3763C16.905 23.3793 16.818 23.3727 16.7299 23.3878C16.6466 23.3908 16.5669 23.4034 16.492 23.404C16.3122 23.4245 16.1444 23.4522 15.9973 23.4846C15.8876 23.5167 15.7864 23.5463 15.6936 23.5735C15.2659 23.7307 15.0383 23.9684 15.0266 24.3033C15.0226 24.561 15.1395 24.8155 15.3724 25.0788C15.4395 25.1554 15.5271 25.2366 15.6148 25.3179C15.8059 25.4971 16.0477 25.6616 16.3343 25.845C16.4072 25.8878 16.48 25.9307 16.5529 25.9735C16.6257 26.0163 16.7107 26.0663 16.792 26.1067C16.9582 26.197 17.1282 26.2969 17.315 26.3919C17.8391 26.6555 18.4493 26.9474 19.1295 27.2508C19.3903 27.3669 19.6715 27.4877 19.9528 27.6086C20.2014 27.7176 20.4706 27.8312 20.7397 27.9449C20.7397 27.9449 20.7482 27.9424 20.7519 27.9521C20.7761 27.9663 20.7883 27.9735 20.8126 27.9877C18.7644 27.6677 16.7178 27.2296 14.7014 26.5047C14.1779 26.3157 13.647 26.1076 13.1256 25.8753Z" fill="#E1251B"/>
<path d="M66.2816 51.6238C64.7559 51.299 63.2407 50.801 61.7207 50.3575C60.28 49.9347 58.8415 49.6497 57.4058 49.4384C56.507 49.3027 55.6038 49.2002 54.6932 49.0571C54.9704 48.9064 55.2319 48.7386 55.5052 48.5783C55.662 48.4819 55.8147 48.3974 55.9715 48.301C56.0438 48.2598 56.1161 48.2187 56.1885 48.1775C56.2966 48.1371 56.4128 48.0944 56.521 48.054C56.6734 47.9908 56.8337 47.9254 56.9861 47.8622C57.3029 47.7218 57.6159 47.5718 57.929 47.4218C58.3505 47.2101 58.7563 46.9813 59.1544 46.7334C59.1704 46.729 59.1826 46.7151 59.1986 46.7106C59.4277 46.5731 59.661 46.4238 59.8863 46.2767C60.0146 46.2201 60.1311 46.1561 60.2595 46.0995C61.4591 45.5459 62.6859 45.038 63.9284 44.5471C65.385 43.859 66.8611 43.1973 68.3565 42.5836C68.617 42.48 68.8817 42.3646 69.1422 42.261C69.1663 42.2544 69.1903 42.2478 69.2024 42.2338C69.3968 42.2973 69.5633 42.3579 69.7061 42.4037C70.1067 42.5382 70.3129 42.6091 70.3129 42.6091C70.3129 42.6091 70.0004 42.4504 69.4309 42.139C69.5593 42.0824 69.6995 42.0331 69.8317 41.9861C68.7967 40.5154 67.7656 39.0543 66.7226 37.5858C65.7383 36.1969 64.7501 34.7985 63.7738 33.4074L63.6684 33.2556C62.8404 32.079 62.0044 30.9046 61.1764 29.7281C60.4539 28.7034 59.7313 27.6787 58.9969 26.6466C58.7041 26.2272 58.407 25.8195 58.1142 25.4C56.3057 22.8442 54.5014 20.2765 52.6929 17.7207C54.003 17.7964 55.327 18.0172 56.66 18.4376C57.6511 18.8032 58.6252 19.2373 59.5739 19.7849C59.8506 19.9428 60.1231 20.1125 60.3915 20.294C62.0179 21.3785 63.4399 22.8171 64.6917 24.4516C65.3136 25.2699 65.8913 26.111 66.4607 26.9757C67.4968 28.6483 68.392 30.4128 69.18 32.1536C69.2496 32.3047 69.3476 32.416 69.4581 32.492C69.6532 32.7788 69.8727 33.0376 70.1082 33.2919C71.2624 34.5064 72.6999 35.1428 74.023 35.9809C75.1602 36.7106 76.1584 37.6914 76.9624 38.8745C77.6375 39.8697 78.1399 40.9657 78.4389 42.0644C78.5451 42.4394 78.6235 42.8116 78.6739 43.1807C78.8379 44.2527 78.7988 45.3062 78.5455 46.2909C78.3686 46.9567 78.1125 47.5804 77.7895 48.1481C77.3808 48.8564 76.8657 49.4769 76.2763 50.0009C75.7314 50.4807 75.1278 50.8809 74.4698 51.1897C73.8719 51.4712 73.2353 51.6784 72.5717 51.8185C70.5969 52.2343 68.3993 52.073 66.2816 51.6238Z" fill="#CBA25B"/>
<path d="M67.9068 41.9C66.7508 41.2721 65.1929 40.429 63.3442 39.4137C62.9691 39.2016 62.5787 38.9937 62.1844 38.7763C62.1615 38.7616 62.1423 38.7564 62.1194 38.7417C61.1701 38.2251 60.1597 37.6623 59.1033 37.0702C56.3099 33.1104 53.5705 29.1152 50.8926 25.0823C50.5879 24.6211 50.2832 24.1598 49.9784 23.6986C48.9532 22.2717 47.9356 20.8427 46.918 19.4138C46.8418 19.309 46.7618 19.1947 46.6855 19.0898C47.3925 18.94 48.1186 18.8163 48.8445 18.7136C49.4245 18.6296 50.0236 18.5718 50.6148 18.537C51.2061 18.5022 51.7896 18.4904 52.3844 18.5069C52.5725 18.5082 52.7566 18.521 52.9408 18.5338C54.7051 21.0573 56.4656 23.5922 58.2299 26.1156C58.5157 26.5297 58.8053 26.9323 59.0911 27.3464C59.796 28.3581 60.501 29.3697 61.2174 30.3887C62.0252 31.5503 62.8408 32.7098 63.6486 33.8714L63.7515 34.0213C64.7117 35.3926 65.6758 36.7733 66.6284 38.1466C67.6344 39.5892 68.6442 41.0412 69.6617 42.4911C69.5348 42.5359 69.404 42.5923 69.2771 42.6372C68.9288 42.4492 68.481 42.2046 67.9374 41.9126C67.9374 41.9126 67.9259 41.9053 67.9068 41.9ZM63.8627 39.3463C63.8781 39.3421 63.8973 39.3264 63.9127 39.3223C63.9089 39.3128 63.9051 39.3034 63.9013 39.294C63.8898 39.3076 63.882 39.3306 63.8627 39.3463Z" fill="#FF9E18"/>
<path d="M49.3608 49.1409C48.7206 48.9113 48.0934 48.642 47.4707 48.3112C47.3044 48.2255 47.1338 48.129 46.9718 48.03C46.4431 47.7211 45.9358 47.3941 45.4416 47.0273C45.1518 46.8198 44.8663 46.5991 44.5895 46.3759C44.6323 46.364 44.6708 46.3411 44.7009 46.3207C44.8766 46.2113 45.048 46.1152 45.2238 46.0058C45.9867 45.5515 46.741 45.0996 47.504 44.6453C48.7097 43.622 49.9367 42.6287 51.1849 41.6656C52.7204 40.4897 54.29 39.3524 55.8936 38.2777C56.1122 38.1323 56.3223 37.9892 56.541 37.8438C57.4115 38.2013 58.2478 38.5444 59.0586 38.8705C59.272 38.9551 59.4853 39.0397 59.6987 39.1242C60.0486 39.2668 60.3943 39.3985 60.7314 39.5326C61.2264 39.7307 61.7044 39.9095 62.1653 40.0932C62.5238 40.2333 62.8695 40.365 63.2151 40.4967C64.8112 41.1081 66.1812 41.6264 67.2525 42.0119C67.2866 42.0264 67.3165 42.0301 67.3421 42.047C67.85 42.2294 68.2853 42.3962 68.6481 42.5231C68.6224 42.5303 68.5967 42.5375 68.5838 42.5531C68.3055 42.6672 68.0228 42.7945 67.7444 42.9085C66.1511 43.5954 64.5706 44.3149 63.0154 45.0753C61.6964 45.6132 60.3859 46.1727 59.0964 46.7865C58.9594 46.849 58.8309 46.9091 58.698 46.9824C58.4579 47.1458 58.2178 47.3093 57.9649 47.4644C57.9478 47.4692 57.9349 47.4848 57.9178 47.4896C57.4933 47.7649 57.0519 48.0208 56.6106 48.2527C56.2806 48.4293 55.9465 48.5951 55.6039 48.7392C55.4411 48.8089 55.2784 48.8785 55.107 48.9506C54.9914 48.995 54.8673 49.0418 54.7516 49.0862C54.6745 49.1319 54.5973 49.1775 54.5202 49.2232C54.353 49.3302 54.1902 49.4239 54.023 49.5309C53.7401 49.7064 53.4528 49.8951 53.1571 50.0621C52.7086 49.9833 52.2473 49.896 51.8031 49.8039C50.9873 49.6596 50.1675 49.4322 49.3608 49.1409Z" fill="#FF9E18"/>
<path d="M37.4625 39.1C37.9759 39.2608 38.4225 39.2308 38.8485 39.102C39.0677 39.0417 39.2745 38.9499 39.477 38.8477C40.0172 38.583 40.5321 38.3019 41.0721 38.0604C42.3843 37.4787 43.7466 36.9993 45.1508 36.6246C45.8555 36.2565 46.5561 35.8779 47.2568 35.4993C48.0055 35.8276 48.7542 36.1559 49.4904 36.4761C50.2812 36.816 51.072 37.156 51.8376 37.4796C51.9848 37.5437 52.1194 37.5996 52.2667 37.6636C52.7252 37.851 53.1753 38.0408 53.6254 38.2306C54.6351 38.6497 55.6194 39.0526 56.5786 39.4391C56.6249 39.4613 56.667 39.4729 56.7217 39.4927C56.5063 39.6333 56.2994 39.7715 56.0841 39.912C54.505 40.9505 52.9594 42.0495 51.4473 43.1856C50.2182 44.1162 49.0101 45.0758 47.8229 46.0645C47.0716 46.5035 46.3286 46.9402 45.5773 47.3793C45.4042 47.485 45.2354 47.5779 45.0623 47.6836C45.0243 47.7056 44.9947 47.7254 44.9526 47.737C41.9444 45.3588 39.4154 42.0705 36.9619 38.8777C37.1133 38.9754 37.2815 39.0453 37.4625 39.1Z" fill="#FF4713"/>
<path d="M56.6149 37.1999C56.5026 37.1355 56.3942 37.0805 56.2819 37.016C55.093 36.3574 53.8655 35.6672 52.5954 34.9568C52.3708 34.8279 52.15 34.7084 51.9255 34.5795C51.879 34.5499 51.8364 34.5298 51.7899 34.5002C51.4879 34.329 51.1781 34.1598 50.8645 33.9812C49.9932 33.4896 49.1025 32.9928 48.2158 32.4844C48.1503 32.3862 48.0925 32.2859 48.0269 32.1877C46.5581 29.9396 44.8322 27.8875 43.2075 25.7659C42.2929 24.5694 41.4172 23.3413 40.6429 22.0436C40.5696 21.9264 40.5197 21.8029 40.4854 21.6752C40.439 21.6245 40.3849 21.5759 40.3308 21.5273C40.2883 21.4861 40.2496 21.4544 40.2031 21.4248C40.2809 21.4038 40.3625 21.3922 40.4324 21.3733C40.8832 21.2724 41.3302 21.162 41.7694 21.0538C41.9716 20.9991 42.1698 20.956 42.3719 20.9013C43.4991 20.6175 44.6496 20.3273 45.8309 20.092C45.9081 20.1976 45.9891 20.3127 46.0663 20.4183C47.0962 21.8576 48.1262 23.297 49.1639 24.7342C49.4724 25.1988 49.7808 25.6634 50.0893 26.1281C52.8037 30.1998 55.5765 34.2241 58.4001 38.2031C58.2646 38.1238 58.1213 38.0467 57.9858 37.9674C57.5482 37.7169 57.0835 37.4632 56.6149 37.1999Z" fill="#FF4713"/>
<path d="M37.6097 40.6275C36.9121 39.7248 36.2186 38.8324 35.5167 37.9651C33.9593 36.0332 32.3518 34.1377 30.7109 32.2969C30.9275 32.2607 31.1441 32.2244 31.3607 32.1882C32.127 32.0478 32.881 31.8766 33.6142 31.6541C34.0516 31.5464 34.4849 31.4056 34.9057 31.2569C35.4464 31.5193 35.9913 31.7921 36.5445 32.0625C38.2623 32.9036 40.0093 33.7481 41.7688 34.5778C43.2413 35.2694 44.7055 35.9405 46.1614 36.5911C46.7022 36.8308 47.2471 37.0808 47.7921 37.308C47.1002 37.6785 46.4083 38.0491 45.7123 38.4094C44.3251 38.7758 42.9793 39.2448 41.6833 39.814C41.1499 40.0503 40.6414 40.3254 40.1079 40.5845C39.9079 40.6845 39.7037 40.7743 39.4871 40.8333C39.0663 40.9592 38.6249 40.9884 38.1173 40.8307C37.9425 40.7873 37.7761 40.7188 37.6097 40.6275Z" fill="#E1251B"/>
<path d="M43.4154 31.1614C41.7936 30.2397 40.1718 29.318 38.5698 28.423C37.7056 27.9391 36.8572 27.4723 36.0087 27.0055C35.6592 26.1903 35.3335 25.3472 34.9247 24.5587C34.8421 24.3991 34.7516 24.2416 34.6532 24.1076C34.606 24.0347 34.5508 23.964 34.4996 23.9029C34.3975 23.6737 34.3072 23.4519 34.2051 23.2227C36.051 23.1211 37.8303 22.7914 39.5821 22.3941C39.6216 22.4263 39.6689 22.4564 39.7122 22.4982C39.7674 22.5475 39.8108 22.5893 39.8699 22.6483C39.9051 22.7779 39.9562 22.9032 40.0309 23.0221C40.8217 24.339 41.7154 25.5853 42.6487 26.7995C44.3106 28.9622 46.0676 31.0351 47.5671 33.3165C47.634 33.4161 47.7009 33.5158 47.7599 33.6176C47.0536 33.2195 46.3354 32.8139 45.6172 32.4083C44.8872 31.9951 44.1454 31.5745 43.4154 31.1614ZM38.1282 25.1397C38.1953 25.1752 38.2073 25.1184 38.1203 25.1419C38.1834 25.1677 38.2229 25.1784 38.1282 25.1397ZM38.8313 23.8055C38.8313 23.8055 38.8353 23.8151 38.8313 23.8055C38.8353 23.8151 38.8432 23.813 38.8471 23.8226C38.8471 23.8226 38.8589 23.8301 38.8629 23.8398C38.855 23.8205 38.8392 23.8033 38.8313 23.8055ZM39.0247 23.8924C39.0247 23.8924 39.0089 23.8967 38.9931 23.901C39.0049 23.9085 39.0208 23.9042 39.0247 23.8924ZM38.9377 23.9159C38.9417 23.9255 38.9574 23.9427 38.9613 23.9523C38.9535 23.933 38.9417 23.9255 38.9377 23.9159Z" fill="#E1251B"/>
<path d="M65.7109 54.8626C63.5177 54.3691 61.3021 53.6465 59.1602 53.213C56.8244 52.7398 54.5527 52.8479 52.2309 52.6063C50.224 52.4011 48.2536 51.7781 46.3621 50.7249C42.7127 48.6971 39.6389 45.4294 37.0008 42.0234C35.0929 39.5607 33.3497 36.9641 31.4935 34.4648C31.066 33.99 30.6423 33.5248 30.2186 33.0596C29.0295 31.7792 27.8235 30.5039 26.5599 29.2989C25.5915 28.3718 24.5396 27.4477 23.3603 26.9251C22.9829 26.7999 22.6093 26.6844 22.2224 26.5833C22.0116 26.5487 21.8081 26.5332 21.6 26.5299C21.4124 26.5312 21.258 26.4479 21.1469 26.3304C18.2969 25.7185 15.3427 25.5443 12.7558 23.9554C12.1765 23.6965 11.6113 23.4013 11.0472 23.0843C9.6975 22.2903 8.27875 21.195 7.71747 19.5916C7.18586 18.0651 7.58154 16.5779 8.83146 15.9655C9.96204 15.4094 11.3607 15.5249 12.6612 15.7762C14.626 16.1651 16.5238 17.088 18.3725 18.0788C19.1215 18.363 19.8694 18.669 20.6174 18.975C22.0562 19.5608 23.495 20.1466 24.9495 20.5778C26.5022 21.0446 28.0792 21.3542 29.6353 21.4879C32.3201 21.7196 34.8732 21.3898 37.3785 20.8384C39.5603 20.0817 41.679 19.1613 43.9545 18.6236C45.9015 18.1606 47.9523 17.9673 50.0309 18.0658C52.0712 17.9183 54.162 18.024 56.3108 18.5733C59.0891 19.2919 61.7288 20.8224 63.9097 23.0659C66.1466 25.3573 67.8345 28.1522 69.2521 31.0264C69.3998 31.3367 69.5476 31.647 69.6953 31.9573C69.7709 32.0315 69.8371 32.13 69.8731 32.248C69.9648 32.5105 70.0866 32.7534 70.2179 32.9721C70.5517 33.3993 70.912 33.7974 71.2986 34.1663C71.8761 34.64 72.5375 35.0142 73.1671 35.3549C74.5115 36.0862 75.8126 36.8516 76.9055 38.053C78.9129 40.2615 80.1003 43.2459 79.9623 46.0612C79.9451 46.3341 79.9158 46.5998 79.8828 46.8559C79.8185 47.4211 79.6886 47.9627 79.4979 48.4686C78.9175 50.1599 77.8497 51.5868 76.5416 52.6341C76.4202 52.7339 76.2866 52.8266 76.1652 52.9265C75.2162 53.7829 74.1487 54.5026 72.9334 54.912C71.2016 55.4941 69.373 55.4831 67.5034 55.1949C66.8952 55.1051 66.3049 54.9887 65.7109 54.8626ZM78.4703 47.5588C78.7719 46.5598 78.8442 45.4779 78.7083 44.3928C78.6677 44.0189 78.5944 43.6333 78.4994 43.2647C78.2192 42.1467 77.7335 41.0568 77.0598 40.0649C76.266 38.883 75.2537 37.9152 74.0789 37.2092C72.7181 36.3863 71.2381 35.7911 70.0701 34.5903C69.8358 34.3482 69.611 34.0819 69.4162 33.7961C69.3031 33.7221 69.2042 33.6117 69.1364 33.4602C68.3694 31.7134 67.4788 29.9385 66.462 28.2756C65.9068 27.4203 65.3179 26.5749 64.6941 25.7612C63.4343 24.1265 61.9972 22.7152 60.3307 21.6604C60.0558 21.4838 59.7761 21.3192 59.4917 21.1668C58.5205 20.6476 57.5115 20.2252 56.4861 19.8826C55.1046 19.4943 53.7175 19.3112 52.3569 19.2703C52.1572 19.2645 51.949 19.2612 51.753 19.265C51.1069 19.2721 50.4597 19.3009 49.8273 19.3682C49.1828 19.4283 48.5325 19.5223 47.8944 19.6235C47.1004 19.7595 46.3139 19.9148 45.5301 20.1015C44.2534 20.4003 43.0037 20.7448 41.7757 21.0722C41.5559 21.1366 41.341 21.1888 41.1212 21.2531C40.6358 21.3846 40.1504 21.516 39.6698 21.6353C39.5853 21.66 39.497 21.6752 39.421 21.6974C37.5527 22.1695 35.6585 22.5741 33.7044 22.7499C33.8019 22.9785 33.8872 23.1999 33.9846 23.4285C34.0397 23.4981 34.091 23.5581 34.1375 23.6302C34.2391 23.7718 34.3238 23.9185 34.4038 24.0772C34.7999 24.8612 35.1056 25.7038 35.4378 26.5172C36.309 26.9478 37.196 27.3952 38.0784 27.8547C39.7298 28.6996 41.4009 29.571 43.0719 30.4424C43.8242 30.8328 44.5886 31.2304 45.3409 31.6208C46.081 32.0041 46.8089 32.3802 47.549 32.7635C48.4884 33.2491 49.4157 33.7276 50.3308 34.1989C50.6564 34.3607 50.9773 34.5346 51.3029 34.6964C51.3516 34.725 51.3965 34.744 51.4452 34.7726C51.6809 34.8964 51.913 35.0106 52.1488 35.1344C53.4746 35.8176 54.7724 36.4768 56.0216 37.1075C56.1395 37.1694 56.2537 37.2216 56.3716 37.2835C56.8637 37.5359 57.3522 37.7785 57.8322 38.0237C57.9828 38.0974 58.1251 38.1736 58.2673 38.2499C59.3901 38.8211 60.469 39.3515 61.474 39.8608C61.4983 39.8751 61.5189 39.8798 61.5432 39.8941C61.9709 40.101 62.3816 40.3129 62.7765 40.508C64.7425 41.4858 66.3998 42.297 67.6293 42.9012C67.6415 42.9083 67.6537 42.9155 67.6658 42.9227C68.2357 43.2058 68.7204 43.4388 69.091 43.6196C69.6815 43.9074 69.9987 44.0717 69.9987 44.0717C69.9987 44.0717 69.7767 44.0081 69.3703 43.8807C69.2223 43.8383 69.0415 43.7841 68.8486 43.7227C68.4993 43.6214 68.0807 43.4869 67.5918 43.3407C67.559 43.3289 67.53 43.3267 67.5056 43.3124C66.4708 42.994 65.1569 42.5859 63.622 42.0925C63.298 41.9838 62.9571 41.88 62.6125 41.7667C62.1696 41.6178 61.7098 41.4739 61.2341 41.3132C60.9101 41.2045 60.5777 41.0982 60.2415 40.9824C60.0364 40.9139 59.8314 40.8454 59.6263 40.7768C58.8472 40.5121 58.0438 40.2331 57.2077 39.9422C57.1627 39.9232 57.1215 39.9139 57.0681 39.8974C56.1421 39.5685 55.1749 39.2303 54.1918 38.8754C53.7536 38.7144 53.3154 38.5534 52.8688 38.3949C52.7256 38.3404 52.5945 38.2931 52.4512 38.2386C51.6975 37.9665 50.9364 37.6751 50.1668 37.3861C49.4506 37.1137 48.7222 36.8341 47.9939 36.5546C47.4621 36.346 46.9304 36.1374 46.3986 35.9288C44.9672 35.3623 43.52 34.7789 42.0822 34.1714C40.3543 33.4452 38.6311 32.707 36.9538 31.966C36.4194 31.7261 35.8765 31.4886 35.3458 31.2583C34.9175 31.4159 34.4733 31.5566 34.0339 31.6853C33.2855 31.9152 32.5259 32.1161 31.7515 32.2786C31.5329 32.3212 31.3142 32.3638 31.0955 32.4064C32.6607 34.1016 34.1901 35.8502 35.6677 37.6353C36.3338 38.4367 36.9819 39.2647 37.6507 40.0974C39.9543 43.0014 42.3335 45.9796 45.2042 48.0854C45.4659 48.2766 45.7361 48.4653 46.0111 48.642C46.488 48.9523 46.9622 49.2313 47.4665 49.4908C47.6209 49.5741 47.78 49.6454 47.9428 49.7263C48.538 50.002 49.1522 50.2293 49.7563 50.406C50.5412 50.6369 51.3291 50.8026 52.1144 50.9369C52.5567 51.0109 52.9916 51.0657 53.4264 51.1205C54.375 51.2392 55.3208 51.3266 56.2534 51.4285C57.7494 51.6011 59.2459 51.8486 60.74 52.2361C62.3165 52.6423 63.8862 53.1041 65.4726 53.3896C67.6831 53.7816 69.9698 53.8834 72.0557 53.3905C72.7551 53.2286 73.4285 52.9992 74.0637 52.6954C74.7544 52.3646 75.4081 51.9375 75.9945 51.4336C76.629 50.8836 77.1888 50.2375 77.6403 49.5053C77.974 48.8826 78.2629 48.2409 78.4703 47.5588ZM14.7244 23.4754C16.744 24.2019 18.7902 24.6313 20.8369 24.9641C20.849 24.9713 20.8575 24.9688 20.8781 24.9735C20.8453 24.9616 20.8126 24.9498 20.7761 24.9283C20.7761 24.9283 20.7676 24.9308 20.7639 24.9212C20.4943 24.8073 20.2332 24.6909 19.9758 24.5841C19.6941 24.463 19.4123 24.342 19.1512 24.2256C18.4698 23.9215 17.8624 23.6387 17.3338 23.3649C17.1467 23.2697 16.9801 23.1792 16.8099 23.079C16.7248 23.029 16.6518 22.9861 16.5704 22.9456C16.5059 22.9002 16.4329 22.8573 16.36 22.8144C16.0729 22.6306 15.8307 22.4658 15.6393 22.2861C15.5515 22.2047 15.4637 22.1233 15.3965 22.0465C15.1632 21.7827 15.034 21.5205 15.0501 21.2694C15.0619 20.9338 15.2899 20.6956 15.7182 20.5381C15.8074 20.5012 15.9125 20.4812 16.014 20.4515C16.1613 20.419 16.3293 20.3913 16.5095 20.3707C16.5929 20.3677 16.6727 20.355 16.7562 20.352C16.8444 20.3369 16.9316 20.3435 17.015 20.3405C17.1942 20.3416 17.3817 20.3403 17.5814 20.3461C18.1515 20.3613 18.802 20.4386 19.5339 20.5565C19.8356 20.6074 20.1495 20.6655 20.4756 20.7307C20.7192 20.7772 20.9703 20.843 21.2176 20.8992C20.644 20.6064 20.063 20.2944 19.4905 19.9799C19.0395 19.737 18.6007 19.5012 18.1498 19.2582C17.3231 18.9432 16.487 18.6523 15.6524 18.4145C15.4838 18.3675 15.3068 18.3229 15.1298 18.2783C14.4459 18.1143 13.7563 17.9841 13.0683 17.9069C12.4421 17.8439 11.7521 17.8102 11.1986 18.058C10.2233 18.5043 10.3783 19.7124 10.9368 20.6739C11.4841 21.6064 12.2716 22.308 13.1545 22.8423C13.6683 23.0775 14.2001 23.2861 14.7244 23.4754Z" fill="black"/>
</svg>
