<svg width="22" height="22" viewBox="0 0 22 22" fill="none" xmlns="http://www.w3.org/2000/svg">
<path fill-rule="evenodd" clip-rule="evenodd" d="M11 20.35C16.1639 20.35 20.35 16.1639 20.35 11C20.35 5.83614 16.1639 1.65 11 1.65C5.83614 1.65 1.65 5.83614 1.65 11C1.65 16.1639 5.83614 20.35 11 20.35ZM11 22C17.0751 22 22 17.0751 22 11C22 4.92487 17.0751 0 11 0C4.92487 0 0 4.92487 0 11C0 17.0751 4.92487 22 11 22Z" fill="black"/>
<path fill-rule="evenodd" clip-rule="evenodd" d="M12.8667 6.1626L13.5333 7.03757L8.31531 11.0132L13.546 15.2476L12.8539 16.1026L6.53467 10.987L12.8667 6.1626Z" fill="black"/>
</svg>
