<svg width="56" height="56" viewBox="0 0 56 56" fill="none" xmlns="http://www.w3.org/2000/svg">
<path d="M27.7636 38.3038C24.7951 38.3038 21.8934 37.4235 19.4252 35.7743C16.957 34.1252 15.0333 31.7811 13.8973 29.0386C12.7614 26.2962 12.4642 23.2784 13.0433 20.367C13.6224 17.4556 15.0518 14.7813 17.1508 12.6823C19.2498 10.5833 21.9241 9.15389 24.8355 8.57477C27.7469 7.99566 30.7647 8.29288 33.5072 9.42885C36.2496 10.5648 38.5937 12.4885 40.2428 14.9567C41.892 17.4249 42.7722 20.3266 42.7722 23.2951C42.7722 27.2756 41.191 31.0931 38.3763 33.9078C35.5616 36.7225 31.7441 38.3038 27.7636 38.3038Z" fill="#FFC627"/>
<g filter="url(#filter0_d)">
<path d="M27.3256 6.26753C27.2376 6.38605 26.6788 7.28345 25.971 7.42229L25.8187 7.43922H25.7882C25.3378 7.4934 24.8942 7.56451 24.4573 7.65595C23.7462 7.72706 22.9538 7.05994 22.8319 6.97867C22.7691 6.9146 22.6898 6.86935 22.6027 6.84802C22.5156 6.82669 22.4243 6.83013 22.3391 6.85796C22.2538 6.88578 22.1781 6.93688 22.1203 7.00548C22.0626 7.07408 22.0252 7.15746 22.0124 7.2462C21.965 7.38165 21.7177 8.38402 21.1048 8.74636C20.6307 8.96084 20.1679 9.19676 19.7164 9.45412C19.0628 9.74535 18.0977 9.35253 17.9589 9.30851C17.8794 9.26669 17.7897 9.24798 17.7001 9.2545C17.6105 9.26101 17.5246 9.29249 17.4519 9.34537C17.3793 9.39824 17.323 9.4704 17.2893 9.55367C17.2556 9.63693 17.2459 9.72797 17.2613 9.81647C17.2613 9.96547 17.3358 11.022 16.8413 11.5503L16.7601 11.6248L16.7093 11.6688C16.4316 11.9296 16.1607 12.2005 15.8999 12.4782L15.8559 12.529L15.7814 12.6102C15.2531 13.1047 14.1966 13.0268 14.0476 13.0302C13.9596 13.0206 13.8706 13.033 13.7885 13.066C13.7064 13.0991 13.6337 13.1519 13.5769 13.2198C13.53 13.2951 13.5022 13.3807 13.4957 13.4692C13.4892 13.5577 13.5043 13.6464 13.5396 13.7278C13.5836 13.8666 13.9765 14.8317 13.6852 15.4853C13.4279 15.9368 13.1919 16.3996 12.9775 16.8737C12.6151 17.4866 11.6229 17.7339 11.4773 17.7813C11.3886 17.7941 11.3052 17.8315 11.2366 17.8892C11.168 17.947 11.1169 18.0227 11.0891 18.1079C11.0612 18.1932 11.0578 18.2845 11.0791 18.3716C11.1004 18.4587 11.1457 18.538 11.2098 18.6008C11.2944 18.7227 11.9615 19.5151 11.887 20.2262C11.7956 20.6631 11.7245 21.1067 11.6703 21.5571V21.5842C11.6703 21.635 11.6703 21.6858 11.6703 21.7366C11.5315 22.4443 10.6307 23.0031 10.5155 23.0911C10.4389 23.1351 10.3744 23.1975 10.3277 23.2725C10.281 23.3475 10.2536 23.433 10.248 23.5212C10.2537 23.6098 10.2811 23.6957 10.3277 23.7713C10.3744 23.8469 10.4388 23.9099 10.5155 23.9547C10.6307 24.0427 11.5315 24.5981 11.6703 25.3092C11.6703 25.36 11.6703 25.4108 11.6703 25.4616V25.4887C11.7245 25.9391 11.7956 26.3861 11.887 26.8229C11.9582 27.5341 11.291 28.3265 11.2098 28.445C11.146 28.5081 11.101 28.5878 11.0798 28.675C11.0586 28.7622 11.0621 28.8536 11.0899 28.9389C11.1176 29.0243 11.1686 29.1002 11.237 29.1583C11.3054 29.2164 11.3886 29.2544 11.4773 29.2679C11.6128 29.3153 12.6151 29.5625 12.9775 30.1721C13.1896 30.6466 13.4258 31.11 13.6852 31.5605C13.9765 32.2175 13.5836 33.1792 13.5396 33.318C13.5043 33.3994 13.4892 33.4881 13.4957 33.5766C13.5022 33.6651 13.53 33.7506 13.5769 33.826C13.6331 33.8947 13.7056 33.9483 13.7878 33.982C13.87 34.0157 13.9593 34.0284 14.0476 34.019C14.1966 34.019 15.2531 33.9445 15.7814 34.4389L15.8559 34.5202C15.8723 34.5355 15.8871 34.5525 15.8999 34.571C16.1607 34.8487 16.4316 35.1196 16.7093 35.377L16.7601 35.4176L16.8413 35.4955C17.3358 36.0204 17.2579 37.0803 17.2613 37.2259C17.2514 37.314 17.2636 37.403 17.2967 37.4852C17.3298 37.5673 17.3828 37.64 17.4509 37.6966C17.5256 37.7451 17.6113 37.774 17.7001 37.7805C17.7889 37.787 17.8779 37.771 17.9589 37.7339C18.0977 37.6933 19.0628 37.3004 19.7164 37.5883C20.1668 37.849 20.6307 38.0827 21.1048 38.2994C21.7177 38.6618 21.965 39.654 22.0124 39.7996C22.0314 39.8878 22.0724 39.9697 22.1316 40.0378C22.1908 40.1059 22.2663 40.1579 22.351 40.189C22.4366 40.2099 22.526 40.2097 22.6115 40.1885C22.697 40.1672 22.7761 40.1256 22.842 40.0671C22.9639 39.9825 23.7564 39.3153 24.4675 39.3898C24.9044 39.4779 25.3479 39.5524 25.7983 39.6066H25.8288H25.9812C26.689 39.7454 27.2477 40.6428 27.3358 40.7613C27.3798 40.838 27.4421 40.9025 27.5172 40.9492C27.5922 40.9959 27.6776 41.0232 27.7659 41.0288C27.8545 41.0232 27.9404 40.9958 28.016 40.9492C28.0916 40.9025 28.1545 40.838 28.1993 40.7613C28.2874 40.6428 28.8427 39.7454 29.5539 39.6066H29.7062H29.7333C30.1837 39.5524 30.6274 39.4779 31.0676 39.3898C31.7787 39.3187 32.5712 39.9858 32.6897 40.0671C32.7562 40.1256 32.8359 40.1673 32.922 40.1885C33.008 40.2097 33.0979 40.2099 33.1841 40.189C33.2685 40.1574 33.3436 40.1052 33.4028 40.0372C33.4619 39.9692 33.5031 39.8875 33.5227 39.7996C33.5701 39.6607 33.8173 38.6618 34.4269 38.2994C34.9015 38.0861 35.3649 37.8488 35.8153 37.5883C36.4723 37.3004 37.434 37.6933 37.5728 37.7339C37.6538 37.771 37.7428 37.787 37.8316 37.7805C37.9204 37.774 38.0061 37.7451 38.0808 37.6966C38.1501 37.641 38.204 37.5685 38.2372 37.4861C38.2704 37.4037 38.2819 37.3141 38.2704 37.2259C38.2704 37.0803 38.1993 36.0204 38.6937 35.4955L38.775 35.4176C38.7904 35.4022 38.8075 35.3886 38.8258 35.377C39.1035 35.1196 39.3744 34.8487 39.6318 34.571C39.6434 34.5526 39.6571 34.5356 39.6724 34.5202L39.7503 34.4389C40.2752 33.9445 41.3351 34.019 41.4807 34.019C41.5694 34.0335 41.6603 34.0231 41.7434 33.9888C41.8264 33.9546 41.8983 33.898 41.951 33.8253C42.0037 33.7525 42.0352 33.6666 42.0418 33.577C42.0485 33.4874 42.0301 33.3978 41.9887 33.318C41.9481 33.1792 41.5552 32.2175 41.8431 31.5605C42.1036 31.1101 42.341 30.6467 42.5542 30.1721C42.9166 29.5625 43.9088 29.3153 44.0544 29.2679C44.1435 29.255 44.2273 29.2173 44.2961 29.1592C44.3649 29.101 44.4159 29.0247 44.4435 28.9389C44.471 28.8532 44.4739 28.7614 44.4518 28.6741C44.4297 28.5867 44.3835 28.5074 44.3185 28.445C44.2373 28.3265 43.5668 27.5341 43.6413 26.8229C43.7293 26.3861 43.8038 25.9391 43.858 25.4887C43.858 25.4887 43.858 25.4718 43.858 25.4616C43.858 25.4514 43.858 25.36 43.858 25.3092C43.9968 24.5981 44.8942 24.0427 45.0127 23.9547C45.0894 23.9099 45.154 23.8469 45.2006 23.7713C45.2473 23.6957 45.2746 23.6098 45.2803 23.5212C45.2747 23.433 45.2473 23.3475 45.2006 23.2725C45.1539 23.1975 45.0894 23.1351 45.0127 23.0911C44.8942 23.0031 43.9968 22.4443 43.858 21.7366C43.858 21.6858 43.858 21.635 43.858 21.5842C43.858 21.5334 43.858 21.5639 43.858 21.5571C43.8038 21.1067 43.7293 20.6631 43.6413 20.2262C43.5668 19.5151 44.2373 18.7227 44.3185 18.6008C44.3838 18.5388 44.4303 18.4597 44.4526 18.3725C44.4748 18.2853 44.472 18.1936 44.4444 18.1079C44.4168 18.0222 44.3655 17.9461 44.2965 17.8883C44.2275 17.8305 44.1436 17.7934 44.0544 17.7813C43.9155 17.7339 42.9166 17.4866 42.5542 16.8737C42.3375 16.3996 42.1038 15.9357 41.8431 15.4853C41.5552 14.8317 41.9481 13.8666 41.9887 13.7278C42.0258 13.6468 42.0418 13.5578 42.0353 13.469C42.0288 13.3802 42 13.2945 41.9515 13.2198C41.8948 13.1517 41.8222 13.0987 41.74 13.0656C41.6579 13.0325 41.5688 13.0203 41.4807 13.0302C41.3351 13.0302 40.2752 13.1047 39.7503 12.6102L39.6724 12.529C39.6579 12.5129 39.6443 12.4959 39.6318 12.4782C39.3744 12.2005 39.1035 11.9296 38.8258 11.6688C38.8074 11.656 38.7903 11.6412 38.775 11.6248L38.6937 11.5503C38.1993 11.022 38.2738 9.96547 38.2704 9.81647C38.2812 9.72837 38.2695 9.63899 38.2363 9.55667C38.2031 9.47435 38.1496 9.40179 38.0808 9.34576C38.0054 9.29894 37.9199 9.2711 37.8314 9.26461C37.7429 9.25812 37.6542 9.27319 37.5728 9.30851C37.434 9.35253 36.4723 9.74535 35.8153 9.45412C35.3649 9.19472 34.9015 8.95849 34.4269 8.74636C33.8173 8.38402 33.5701 7.39181 33.5227 7.2462C33.5092 7.15748 33.4712 7.07427 33.4131 7.00586C33.355 6.93745 33.2791 6.88652 33.1937 6.85878C33.1084 6.83103 33.017 6.82755 32.9298 6.84872C32.8426 6.86989 32.7629 6.91488 32.6998 6.97867C32.5813 7.06333 31.7889 7.73045 31.0778 7.65595C30.6375 7.56451 30.1939 7.4934 29.7435 7.43922H29.7164L29.564 7.42229C28.8529 7.28345 28.2975 6.38605 28.2094 6.26753C28.1647 6.19082 28.1017 6.1263 28.0261 6.07965C27.9505 6.033 27.8647 6.00565 27.776 6C27.6878 6.0056 27.6023 6.03297 27.5273 6.07965C27.4522 6.12634 27.39 6.19088 27.3459 6.26753H27.3256ZM32.7201 9.69794C35.4553 10.6756 37.8392 12.4423 39.5703 14.7748C41.3014 17.1072 42.302 19.9006 42.4456 22.8017C42.5893 25.7028 41.8694 28.5813 40.3771 31.0733C38.8848 33.5653 36.6871 35.5588 34.0619 36.8018C31.4366 38.0448 28.5018 38.4815 25.6284 38.0566C22.755 37.6317 20.0721 36.3643 17.9189 34.4147C15.7658 32.4651 14.2391 29.9208 13.532 27.1035C12.8248 24.2863 12.9688 21.3226 13.946 18.5872C14.5949 16.7707 15.5952 15.0998 16.89 13.6699C18.1847 12.2401 19.7484 11.0793 21.4918 10.2538C23.2352 9.42831 25.1241 8.95436 27.0507 8.85899C28.9772 8.76362 30.9037 9.04869 32.7201 9.69794Z" fill="#FFC627"/>
</g>
<defs>
<filter id="filter0_d" x="0.248047" y="0" width="55.0322" height="55.0288" filterUnits="userSpaceOnUse" color-interpolation-filters="sRGB">
<feFlood flood-opacity="0" result="BackgroundImageFix"/>
<feColorMatrix in="SourceAlpha" type="matrix" values="0 0 0 0 0 0 0 0 0 0 0 0 0 0 0 0 0 0 127 0"/>
<feOffset dy="4"/>
<feGaussianBlur stdDeviation="5"/>
<feColorMatrix type="matrix" values="0 0 0 0 0.705882 0 0 0 0 0.12549 0 0 0 0 0.286275 0 0 0 1 0"/>
<feBlend mode="normal" in2="BackgroundImageFix" result="effect1_dropShadow"/>
<feBlend mode="normal" in="SourceGraphic" in2="effect1_dropShadow" result="shape"/>
</filter>
</defs>
</svg>
