<svg width="56" height="56" viewBox="0 0 56 56" fill="none" xmlns="http://www.w3.org/2000/svg">
<path d="M27.7636 38.9139C24.7951 38.9139 21.8934 38.0336 19.4252 36.3844C16.957 34.7353 15.0333 32.3912 13.8973 29.6487C12.7614 26.9063 12.4642 23.8885 13.0433 20.9771C13.6224 18.0657 15.0518 15.3914 17.1508 13.2924C19.2498 11.1934 21.9241 9.76399 24.8355 9.18488C27.7469 8.60577 30.7647 8.90299 33.5072 10.039C36.2496 11.1749 38.5937 13.0986 40.2428 15.5668C41.892 18.035 42.7722 20.9367 42.7722 23.9052C42.7722 27.8857 41.191 31.7032 38.3763 34.5179C35.5616 37.3326 31.7441 38.9139 27.7636 38.9139" fill="#111E47"/>
<g filter="url(#filter0_d)">
<path d="M27.3256 6.87764C27.2376 6.99616 26.6788 7.89355 25.971 8.0324L25.8187 8.04932H25.7882C25.3378 8.10351 24.8942 8.17462 24.4573 8.26605C23.7462 8.33717 22.9538 7.67005 22.8319 7.58877C22.7691 7.52471 22.6898 7.47946 22.6027 7.45813C22.5156 7.4368 22.4243 7.44024 22.3391 7.46806C22.2538 7.49589 22.1781 7.54698 22.1203 7.61559C22.0626 7.68419 22.0252 7.76757 22.0124 7.8563C21.965 7.99176 21.7177 8.99413 21.1048 9.35647C20.6307 9.57094 20.1679 9.80687 19.7164 10.0642C19.0628 10.3555 18.0977 9.96264 17.9589 9.91861C17.8794 9.8768 17.7897 9.85809 17.7001 9.86461C17.6105 9.87112 17.5246 9.9026 17.4519 9.95548C17.3793 10.0084 17.323 10.0805 17.2893 10.1638C17.2556 10.247 17.2459 10.3381 17.2613 10.4266C17.2613 10.5756 17.3358 11.6321 16.8413 12.1604L16.7601 12.2349L16.7093 12.2789C16.4316 12.5397 16.1607 12.8106 15.8999 13.0883L15.8559 13.1391L15.7814 13.2203C15.2531 13.7148 14.1966 13.6369 14.0476 13.6403C13.9596 13.6307 13.8706 13.6431 13.7885 13.6761C13.7064 13.7092 13.6337 13.762 13.5769 13.8299C13.53 13.9052 13.5022 13.9908 13.4957 14.0793C13.4892 14.1678 13.5043 14.2565 13.5396 14.3379C13.5836 14.4767 13.9765 15.4418 13.6852 16.0954C13.4279 16.5469 13.1919 17.0097 12.9775 17.4838C12.6151 18.0968 11.6229 18.344 11.4773 18.3914C11.3886 18.4042 11.3052 18.4416 11.2366 18.4993C11.168 18.5571 11.1169 18.6328 11.0891 18.718C11.0612 18.8033 11.0578 18.8946 11.0791 18.9817C11.1004 19.0688 11.1457 19.1482 11.2098 19.2109C11.2944 19.3328 11.9616 20.1252 11.887 20.8363C11.7956 21.2732 11.7245 21.7168 11.6703 22.1672V22.1943C11.6703 22.2451 11.6703 22.2959 11.6703 22.3467C11.5315 23.0544 10.6307 23.6132 10.5155 23.7012C10.4389 23.7452 10.3744 23.8076 10.3277 23.8826C10.281 23.9577 10.2536 24.0431 10.248 24.1313C10.2537 24.2199 10.2811 24.3058 10.3277 24.3814C10.3744 24.457 10.4388 24.52 10.5155 24.5648C10.6307 24.6528 11.5315 25.2082 11.6703 25.9193C11.6703 25.9701 11.6703 26.0209 11.6703 26.0717V26.0988C11.7245 26.5492 11.7956 26.9962 11.887 27.433C11.9582 28.1442 11.291 28.9366 11.2098 29.0551C11.146 29.1182 11.101 29.1979 11.0798 29.2851C11.0586 29.3723 11.0621 29.4637 11.0899 29.549C11.1176 29.6344 11.1686 29.7103 11.237 29.7684C11.3054 29.8265 11.3886 29.8645 11.4773 29.878C11.6128 29.9254 12.6151 30.1726 12.9775 30.7822C13.1896 31.2567 13.4258 31.7201 13.6852 32.1706C13.9765 32.8276 13.5836 33.7893 13.5396 33.9281C13.5043 34.0095 13.4892 34.0982 13.4957 34.1867C13.5022 34.2752 13.53 34.3607 13.5769 34.4361C13.6331 34.5048 13.7056 34.5584 13.7878 34.5921C13.87 34.6258 13.9593 34.6385 14.0476 34.6291C14.1966 34.6291 15.2531 34.5546 15.7814 35.049L15.8559 35.1303C15.8723 35.1456 15.8871 35.1626 15.8999 35.1811C16.1607 35.4588 16.4316 35.7297 16.7093 35.9871L16.7601 36.0277L16.8413 36.1056C17.3358 36.6305 17.2579 37.6904 17.2613 37.836C17.2514 37.9241 17.2636 38.0131 17.2967 38.0953C17.3298 38.1775 17.3828 38.2501 17.4509 38.3067C17.5256 38.3553 17.6113 38.3841 17.7001 38.3906C17.7889 38.3971 17.8779 38.3811 17.9589 38.344C18.0977 38.3034 19.0628 37.9105 19.7164 38.1984C20.1668 38.4591 20.6307 38.6928 21.1048 38.9095C21.7177 39.2719 21.965 40.2641 22.0124 40.4097C22.0314 40.4979 22.0724 40.5799 22.1316 40.6479C22.1908 40.716 22.2663 40.768 22.351 40.7991C22.4366 40.82 22.526 40.8198 22.6115 40.7986C22.697 40.7773 22.7761 40.7357 22.842 40.6772C22.9639 40.5926 23.7564 39.9254 24.4675 39.9999C24.9044 40.088 25.3479 40.1625 25.7983 40.2167H25.8288H25.9812C26.689 40.3555 27.2477 41.2529 27.3358 41.3714C27.3798 41.4481 27.4421 41.5126 27.5172 41.5593C27.5922 41.606 27.6776 41.6334 27.7658 41.639C27.8545 41.6333 27.9404 41.606 28.016 41.5593C28.0916 41.5127 28.1545 41.4481 28.1993 41.3714C28.2874 41.2529 28.8427 40.3555 29.5539 40.2167H29.7062H29.7333C30.1837 40.1625 30.6274 40.088 31.0676 39.9999C31.7787 39.9288 32.5712 40.5959 32.6897 40.6772C32.7562 40.7357 32.8359 40.7774 32.922 40.7986C33.008 40.8198 33.0979 40.82 33.1841 40.7991C33.2685 40.7675 33.3436 40.7153 33.4028 40.6473C33.4619 40.5793 33.5031 40.4976 33.5227 40.4097C33.5701 40.2708 33.8173 39.2719 34.4269 38.9095C34.9015 38.6962 35.3649 38.4589 35.8153 38.1984C36.4723 37.9105 37.434 38.3034 37.5728 38.344C37.6538 38.3811 37.7428 38.3971 37.8316 38.3906C37.9204 38.3841 38.0061 38.3553 38.0808 38.3067C38.1501 38.2511 38.204 38.1786 38.2372 38.0962C38.2704 38.0138 38.2819 37.9242 38.2704 37.836C38.2704 37.6904 38.1993 36.6305 38.6937 36.1056L38.775 36.0277C38.7904 36.0123 38.8075 35.9987 38.8258 35.9871C39.1035 35.7297 39.3744 35.4588 39.6318 35.1811C39.6434 35.1627 39.6571 35.1457 39.6724 35.1303L39.7503 35.049C40.2752 34.5546 41.3351 34.6291 41.4807 34.6291C41.5694 34.6436 41.6603 34.6332 41.7434 34.599C41.8264 34.5647 41.8983 34.5081 41.951 34.4354C42.0037 34.3626 42.0352 34.2767 42.0418 34.1871C42.0485 34.0975 42.0301 34.0079 41.9887 33.9281C41.9481 33.7893 41.5552 32.8276 41.8431 32.1706C42.1036 31.7202 42.341 31.2568 42.5542 30.7822C42.9166 30.1726 43.9088 29.9254 44.0544 29.878C44.1435 29.8651 44.2273 29.8275 44.2961 29.7693C44.3649 29.7111 44.4159 29.6348 44.4435 29.5491C44.471 29.4633 44.4739 29.3715 44.4518 29.2842C44.4297 29.1969 44.3835 29.1175 44.3185 29.0551C44.2373 28.9366 43.5668 28.1442 43.6413 27.433C43.7293 26.9962 43.8038 26.5492 43.858 26.0988C43.858 26.0988 43.858 26.0819 43.858 26.0717C43.858 26.0615 43.858 25.9701 43.858 25.9193C43.9968 25.2082 44.8942 24.6528 45.0127 24.5648C45.0894 24.52 45.154 24.457 45.2006 24.3814C45.2473 24.3058 45.2746 24.2199 45.2803 24.1313C45.2747 24.0431 45.2473 23.9577 45.2006 23.8826C45.1539 23.8076 45.0894 23.7452 45.0127 23.7012C44.8942 23.6132 43.9968 23.0544 43.858 22.3467C43.858 22.2959 43.858 22.2451 43.858 22.1943C43.858 22.1435 43.858 22.174 43.858 22.1672C43.8038 21.7168 43.7293 21.2732 43.6413 20.8363C43.5668 20.1252 44.2373 19.3328 44.3185 19.2109C44.3838 19.1489 44.4303 19.0698 44.4526 18.9826C44.4748 18.8954 44.472 18.8037 44.4444 18.718C44.4168 18.6323 44.3655 18.5562 44.2965 18.4984C44.2275 18.4406 44.1436 18.4035 44.0544 18.3914C43.9155 18.344 42.9166 18.0968 42.5542 17.4838C42.3375 17.0097 42.1038 16.5458 41.8431 16.0954C41.5552 15.4418 41.9481 14.4767 41.9887 14.3379C42.0258 14.2569 42.0418 14.1679 42.0353 14.0791C42.0288 13.9903 42 13.9046 41.9515 13.8299C41.8948 13.7618 41.8222 13.7088 41.74 13.6757C41.6579 13.6426 41.5688 13.6304 41.4807 13.6403C41.3351 13.6403 40.2752 13.7148 39.7503 13.2203L39.6724 13.1391C39.6579 13.123 39.6443 13.106 39.6318 13.0883C39.3744 12.8106 39.1035 12.5397 38.8258 12.2789C38.8074 12.2661 38.7903 12.2513 38.775 12.2349L38.6937 12.1604C38.1993 11.6321 38.2738 10.5756 38.2704 10.4266C38.2812 10.3385 38.2695 10.2491 38.2363 10.1668C38.2031 10.0845 38.1496 10.0119 38.0808 9.95586C38.0054 9.90905 37.9199 9.88121 37.8314 9.87472C37.7429 9.86823 37.6542 9.88329 37.5728 9.91861C37.434 9.96264 36.4723 10.3555 35.8153 10.0642C35.3649 9.80483 34.9015 9.5686 34.4269 9.35647C33.8173 8.99413 33.5701 8.00192 33.5227 7.8563C33.5092 7.76758 33.4712 7.68437 33.4131 7.61596C33.355 7.54755 33.2791 7.49663 33.1937 7.46888C33.1084 7.44114 33.017 7.43765 32.9298 7.45882C32.8426 7.47999 32.7629 7.52499 32.6998 7.58877C32.5813 7.67343 31.7889 8.34055 31.0778 8.26605C30.6375 8.17462 30.1939 8.10351 29.7435 8.04932H29.7164L29.564 8.0324C28.8529 7.89355 28.2975 6.99616 28.2094 6.87764C28.1647 6.80093 28.1017 6.73641 28.0261 6.68976C27.9505 6.64311 27.8647 6.61575 27.776 6.61011C27.6878 6.61571 27.6023 6.64308 27.5273 6.68976C27.4522 6.73644 27.39 6.80099 27.3459 6.87764H27.3256ZM32.7201 10.308C35.4553 11.2857 37.8392 13.0524 39.5703 15.3849C41.3014 17.7173 42.302 20.5107 42.4456 23.4118C42.5893 26.3129 41.8694 29.1914 40.3771 31.6834C38.8848 34.1754 36.6871 36.1689 34.0619 37.4119C31.4366 38.655 28.5018 39.0916 25.6284 38.6667C22.755 38.2418 20.0721 36.9744 17.9189 35.0248C15.7658 33.0752 14.2391 30.5309 13.532 27.7136C12.8248 24.8964 12.9688 21.9327 13.946 19.1973C14.5949 17.3808 15.5952 15.7099 16.89 14.28C18.1847 12.8502 19.7484 11.6894 21.4918 10.8639C23.2352 10.0384 25.1241 9.56447 27.0507 9.4691C28.9772 9.37372 30.9038 9.6588 32.7201 10.308Z" fill="#FFC627"/>
</g>
<defs>
<filter id="filter0_d" x="0.248047" y="0.610107" width="55.0322" height="55.0288" filterUnits="userSpaceOnUse" color-interpolation-filters="sRGB">
<feFlood flood-opacity="0" result="BackgroundImageFix"/>
<feColorMatrix in="SourceAlpha" type="matrix" values="0 0 0 0 0 0 0 0 0 0 0 0 0 0 0 0 0 0 127 0"/>
<feOffset dy="4"/>
<feGaussianBlur stdDeviation="5"/>
<feColorMatrix type="matrix" values="0 0 0 0 0.705882 0 0 0 0 0.12549 0 0 0 0 0.286275 0 0 0 1 0"/>
<feBlend mode="normal" in2="BackgroundImageFix" result="effect1_dropShadow"/>
<feBlend mode="normal" in="SourceGraphic" in2="effect1_dropShadow" result="shape"/>
</filter>
</defs>
</svg>
