<svg width="28" height="28" viewBox="0 0 28 28" fill="none" xmlns="http://www.w3.org/2000/svg">
<path d="M13.5345 0C6.06074 0 0 6.26909 0 13.9998C0 21.7305 6.06074 27.9995 13.5345 27.9995C21.0082 27.9995 27.069 21.7305 27.069 13.9998C27.069 6.26909 21.0082 0 13.5345 0ZM19.7142 10.9155C19.7202 11.0533 19.7231 11.1917 19.7231 11.3308C19.7231 15.5769 16.5984 20.4733 10.8842 20.4735H10.8844H10.8842C9.12983 20.4735 7.49729 19.9416 6.12249 19.0301C6.36556 19.0598 6.61298 19.0745 6.86348 19.0745C8.31904 19.0745 9.65853 18.561 10.7219 17.699C9.36196 17.673 8.21536 16.7439 7.81967 15.4671C8.00905 15.5047 8.2038 15.5252 8.4035 15.5252C8.68706 15.5252 8.96173 15.4857 9.22277 15.412C7.80129 15.1176 6.73049 13.8182 6.73049 12.2622C6.73049 12.2477 6.73049 12.2346 6.7309 12.2212C7.14951 12.4619 7.62823 12.6068 8.13792 12.623C7.30379 12.0473 6.75547 11.0631 6.75547 9.94826C6.75547 9.35953 6.90933 8.80796 7.17616 8.33309C8.70812 10.2775 10.9976 11.5562 13.5795 11.6905C13.5262 11.4551 13.4988 11.2099 13.4988 10.9578C13.4988 9.18393 14.8901 7.74478 16.6057 7.74478C17.4993 7.74478 18.3063 8.13549 18.8732 8.76011C19.581 8.6157 20.2456 8.34825 20.8459 7.98019C20.6136 8.7302 20.1212 9.35953 19.4798 9.7575C20.1082 9.67974 20.7071 9.50735 21.2637 9.25144C20.848 9.89593 20.3207 10.462 19.7142 10.9155V10.9155Z" fill="white"/>
</svg>
