<svg width="28" height="28" viewBox="0 0 28 28" fill="none" xmlns="http://www.w3.org/2000/svg">
<path d="M14.2073 7.58213C16.2022 7.58213 17.5478 8.43092 18.3151 9.14015L21.3132 6.25674C19.4718 4.57085 17.0756 3.53613 14.2073 3.53613C10.0525 3.53613 6.4642 5.88467 4.71729 9.30284L8.15208 11.9305C9.01379 9.40748 11.3981 7.58213 14.2073 7.58213Z" fill="#EA4335"/>
<path d="M24.4064 14.233C24.4064 13.3727 24.3356 12.7448 24.182 12.0938H14.208V15.977H20.0627C19.9446 16.942 19.3072 18.3953 17.8907 19.3719L21.243 21.9298C23.2496 20.1044 24.4064 17.4187 24.4064 14.233Z" fill="#4285F4"/>
<path d="M8.16384 16.0695C7.93953 15.4184 7.8097 14.7207 7.8097 13.9999C7.8097 13.279 7.93953 12.5815 8.15199 11.9304L4.7171 9.30273C3.99717 10.7212 3.58398 12.314 3.58398 13.9999C3.58398 15.6857 3.99717 17.2786 4.7171 18.697L8.16384 16.0695Z" fill="#FBBC05"/>
<path d="M14.2083 24.4637C17.0766 24.4637 19.4845 23.5336 21.2432 21.9291L17.891 19.3713C16.9939 19.9875 15.7899 20.4177 14.2083 20.4177C11.399 20.4177 9.01473 18.5922 8.16487 16.0693L4.72998 18.6969C6.4769 22.1151 10.0534 24.4637 14.2083 24.4637Z" fill="#34A853"/>
</svg>
