<svg width="23" height="20" viewBox="0 0 23 20" fill="none" xmlns="http://www.w3.org/2000/svg">
<path d="M22.7617 2.36631C21.9239 2.76787 21.025 3.0402 20.0805 3.16178C21.0449 2.5371 21.7831 1.54627 22.133 0.369248C21.2284 0.947741 20.2299 1.3678 19.1659 1.59551C18.314 0.612369 17.1021 0 15.758 0C13.1793 0 11.0885 2.26171 11.0885 5.04962C11.0885 5.44501 11.1297 5.8312 11.2094 6.20049C7.32926 5.98967 3.88864 3.97877 1.58588 0.923119C1.18335 1.66781 0.954354 2.53553 0.954354 3.46179C0.954354 5.21424 1.77932 6.76051 3.03099 7.66517C2.26575 7.63749 1.54605 7.40978 0.915972 7.03127V7.09436C0.915972 9.54069 2.52606 11.5824 4.66098 12.0471C4.26982 12.1609 3.85736 12.224 3.43066 12.224C3.12914 12.224 2.83755 12.1917 2.55165 12.1301C3.14617 14.138 4.87007 15.5981 6.91256 15.6381C5.31526 16.9921 3.30123 17.7967 1.11369 17.7967C0.73678 17.7967 0.365526 17.7721 0 17.7275C2.06666 19.163 4.5202 20 7.15721 20C15.7467 20 20.4419 12.304 20.4419 5.62968L20.4262 4.97579C21.3436 4.26799 22.1372 3.37871 22.7617 2.36631Z" fill="black"/>
</svg>
