<svg width="20" height="20" viewBox="0 0 20 20" fill="none" xmlns="http://www.w3.org/2000/svg">
<path fill-rule="evenodd" clip-rule="evenodd" d="M0 4C0 2.93913 0.421151 1.92172 1.17081 1.17157C1.92046 0.421427 2.93721 0 3.99738 0H15.9895C17.0497 0 18.0664 0.421427 18.8161 1.17157C19.5657 1.92172 19.9869 2.93913 19.9869 4V16C19.9869 17.0609 19.5657 18.0783 18.8161 18.8284C18.0664 19.5786 17.0497 20 15.9895 20H3.99738C2.93721 20 1.92046 19.5786 1.17081 18.8284C0.421151 18.0783 0 17.0609 0 16V4ZM3.99738 2C3.46729 2 2.95892 2.21071 2.58409 2.58579C2.20927 2.96086 1.99869 3.46957 1.99869 4V16C1.99869 16.5304 2.20927 17.0391 2.58409 17.4142C2.95892 17.7893 3.46729 18 3.99738 18H15.9895C16.5196 18 17.028 17.7893 17.4028 17.4142C17.7776 17.0391 17.9882 16.5304 17.9882 16V4C17.9882 3.46957 17.7776 2.96086 17.4028 2.58579C17.028 2.21071 16.5196 2 15.9895 2H3.99738ZM9.99345 7C9.19832 7 8.43576 7.31607 7.87352 7.87868C7.31128 8.44129 6.99541 9.20435 6.99541 10C6.99541 10.7956 7.31128 11.5587 7.87352 12.1213C8.43576 12.6839 9.19832 13 9.99345 13C10.7886 13 11.5511 12.6839 12.1134 12.1213C12.6756 11.5587 12.9915 10.7956 12.9915 10C12.9915 9.20435 12.6756 8.44129 12.1134 7.87868C11.5511 7.31607 10.7886 7 9.99345 7ZM4.99672 10C4.99672 8.67392 5.52316 7.40215 6.46023 6.46447C7.3973 5.52678 8.66823 5 9.99345 5C11.3187 5 12.5896 5.52678 13.5267 6.46447C14.4637 7.40215 14.9902 8.67392 14.9902 10C14.9902 11.3261 14.4637 12.5979 13.5267 13.5355C12.5896 14.4732 11.3187 15 9.99345 15C8.66823 15 7.3973 14.4732 6.46023 13.5355C5.52316 12.5979 4.99672 11.3261 4.99672 10ZM15.4898 6C15.8874 6 16.2687 5.84196 16.5498 5.56066C16.8309 5.27936 16.9889 4.89782 16.9889 4.5C16.9889 4.10218 16.8309 3.72064 16.5498 3.43934C16.2687 3.15804 15.8874 3 15.4898 3C15.0923 3 14.711 3.15804 14.4299 3.43934C14.1488 3.72064 13.9908 4.10218 13.9908 4.5C13.9908 4.89782 14.1488 5.27936 14.4299 5.56066C14.711 5.84196 15.0923 6 15.4898 6Z" fill="black"/>
</svg>
