<svg width="510" height="115" viewBox="0 0 510 115" fill="none" xmlns="http://www.w3.org/2000/svg">
<g clip-path="url(#clip0)">
<path d="M170.373 62.7025L164.886 44.7035L149.411 49.4477V0H130.637V7.2904L121.983 3.60759L95.5943 65.9423L72.0923 73.1464L98.4171 10.9593L81.1386 3.60481L48.6598 80.3309L25.144 87.5405L57.5699 10.9621L40.2915 3.60759L0 98.7617L8.64619 102.442L11.3884 111.44L39.0857 102.949L37.1047 107.629L54.3832 114.983L62.5182 95.7669L86.0201 88.5629L77.949 107.629L95.2275 114.983L109.453 81.3784L130.637 74.8847V115H149.408V69.1293L170.373 62.7025ZM119.027 58.7606L130.637 31.3345V55.2003L119.027 58.7606Z" fill="white"/>
<path d="M229.456 53.769L220.215 44.5029L185.303 79.5088L194.544 88.7748L229.456 53.769Z" fill="white"/>
<path d="M220.216 88.7768L229.457 79.5107L194.545 44.5049L185.303 53.771L220.216 88.7768Z" fill="white"/>
<path d="M257.309 35.1025C256.073 35.1025 254.818 35.1025 253.51 35.1025C251.754 35.1054 249.998 35.1314 248.242 35.1515C248.242 35.1544 248.242 35.1573 248.245 35.1602C248.475 35.1602 248.719 35.1631 248.964 35.1602C251.033 35.14 253.102 35.1054 255.171 35.1025C255.895 35.1054 256.605 35.1054 257.309 35.1025Z" fill="white"/>
<path d="M245.432 101.36C245.343 101.449 245.265 101.547 245.248 101.686C245.354 101.677 245.403 101.68 245.449 101.671C251.03 100.556 256.643 99.7436 262.324 99.6514C256.631 99.5967 251.013 100.306 245.432 101.36Z" fill="white"/>
<path d="M266.15 35.1082C268.478 35.1082 270.835 35.1082 273.323 35.0995C273.289 35.0995 273.257 35.0938 273.22 35.0938C270.743 35.1024 268.426 35.1053 266.15 35.1082Z" fill="white"/>
<path d="M432.451 91.0505C430.635 90.6788 429.342 89.7682 428.81 87.8578C426.928 81.0862 425.002 74.329 423.077 67.5689C422.482 65.4798 421.166 64.0967 418.99 63.6558C417.749 63.4051 416.513 63.5982 415.28 63.8027C414.119 63.9958 412.952 64.1601 411.728 64.3474C411.851 63.9929 412.099 63.895 412.28 63.7422C416.202 60.4976 419.812 56.9591 422.516 52.5965C424.128 50.0002 425.318 47.2541 425.218 44.096C425.106 40.5718 423.238 38.1024 420.565 36.0565C416.001 39.8457 411.498 43.583 406.986 47.3319C409.679 50.2077 410.509 53.4725 409.458 57.1608C408.36 61.0105 405.906 63.9785 403.092 66.6872C403.072 66.7073 403.003 66.6756 402.914 66.6612C402.914 66.4941 402.914 66.3241 402.914 66.1512C402.914 52.8962 402.914 49.2914 402.914 36.0363C402.914 35.8865 402.911 35.7366 402.92 35.5868C403.095 32.5208 402.805 29.4981 401.942 26.5503C401.322 24.4324 400.33 22.5248 398.546 21.1158C398.028 20.7066 397.669 20.7123 397.143 21.1359C393.965 23.7149 390.758 26.2564 387.562 28.8123C386.366 29.769 385.177 30.7372 383.97 31.7083C386.464 33.7599 386.82 34.5264 386.82 37.7393C386.82 45.5684 386.82 43.7444 386.82 51.5735C386.82 60.002 386.815 68.4305 386.832 76.859C386.832 77.3834 386.703 77.7465 386.28 78.0692C385.427 78.7204 384.631 79.4437 383.774 80.0892C380.636 82.4434 377.437 84.6737 373.497 85.541C370.244 86.2556 367.445 85.6073 365.293 82.9736C363.996 81.3887 363.057 79.6483 363.226 77.4468C363.344 75.9081 363.215 74.3492 363.212 72.7989C363.195 65.8976 363.183 58.9935 363.175 52.0922C363.175 51.8617 363.08 51.5995 363.269 51.4006C363.315 51.3949 363.344 51.3805 363.364 51.3891C363.522 51.464 363.677 51.5418 363.833 51.6168C366.954 53.1324 370.204 53.8499 373.595 52.7838C378.596 51.2105 380.837 47.1043 382.685 42.6235C382.185 42.4564 381.823 42.684 381.452 42.7906C379.78 43.2776 378.087 43.4591 376.357 43.2315C373.506 42.8598 371.057 41.589 368.816 39.8543C367.373 38.7392 366.097 37.4483 364.87 36.0738C364.752 36.166 364.675 36.2207 364.603 36.2841C359.786 40.6352 355.021 45.0382 350.527 49.7294C349.213 51.0981 347.909 52.4783 346.845 54.0632C346.552 54.5012 346.337 54.9536 346.334 55.5183C346.259 63.82 346.449 72.1188 346.225 80.4205C346.11 84.6477 347.67 88.4341 350.081 91.8602C353.062 96.0961 357.062 99.1476 361.493 101.704C362.114 102.061 362.493 102.018 363.048 101.6C370.695 95.8281 378.36 90.0765 386.024 84.3308C386.246 84.1636 386.441 83.9187 386.82 83.8784C386.82 85.2298 386.855 86.5265 386.815 87.8203C386.717 91.0044 387.476 94.0098 388.671 96.9173C389.585 99.1418 390.872 101.11 392.87 102.542C393.289 102.842 393.58 102.896 394.028 102.533C398.181 99.1764 402.359 95.8483 406.523 92.5057C406.681 92.3789 406.931 92.304 406.92 91.9957C406.791 91.9812 406.67 91.9611 406.552 91.9524C404.624 91.7795 402.842 90.8776 402.894 87.9673C402.983 82.9419 402.92 77.9136 402.92 72.8853C402.92 71.9661 403.158 71.6376 404.029 71.3898C404.678 71.2054 405.319 71.2486 405.903 71.6002C406.963 72.237 407.759 73.1015 408.092 74.3261C409.604 79.8817 411.093 85.4431 412.63 90.99C413.383 93.6986 413.912 96.4851 415.174 99.0323C415.886 100.473 416.694 101.85 418.182 102.657C418.619 102.894 418.967 102.905 419.401 102.571C422.887 99.8593 426.396 97.1766 429.896 94.4853C431.273 93.4278 432.649 92.3702 434.204 91.1744C433.463 91.209 432.954 91.1514 432.451 91.0505Z" fill="white"/>
<path d="M509.929 42.3355C507.535 41.8889 505.541 40.6325 503.627 39.2119C502.385 38.2899 501.267 37.2237 500.121 36.1431C497.043 38.6472 493.999 41.1195 490.904 43.638C489.818 40.6527 488.263 38.1141 485.832 36.1172C480.969 39.9352 476.136 43.7302 471.262 47.5569C473.245 49.0553 474.023 50.8937 474.006 53.3228C473.92 64.702 473.969 76.0811 473.966 87.4632C473.966 88.5899 474.012 89.7079 474.219 90.8202C475.058 95.3269 477.466 98.8568 480.947 101.727C481.403 102.104 481.697 102.153 482.199 101.744C486.277 98.4101 490.384 95.1165 494.479 91.8028C494.658 91.6587 494.936 91.5722 494.933 91.2495C494.195 91.0968 493.479 90.8922 492.815 90.5464C491.6 89.9125 490.867 88.9875 490.867 87.5266C490.881 75.0467 490.873 62.5668 490.881 50.0868C490.881 49.8851 490.775 49.6402 491.028 49.4471C495.025 51.6025 499.19 53.0318 503.745 51.5074C508.297 49.986 510.958 46.4849 512.998 42.1137C511.855 42.445 510.898 42.5171 509.929 42.3355Z" fill="white"/>
<path d="M467.753 49.9222C464.684 45.5509 460.85 41.9173 456.772 38.5228C455.436 37.4106 454.088 36.3185 452.743 35.2148C452.548 35.3762 452.407 35.4828 452.281 35.601C449.065 38.5574 445.84 41.5023 442.639 44.4732C439.676 47.2251 436.702 49.9625 433.903 52.8844C433.457 53.3483 433.285 53.8382 433.285 54.4894C433.305 62.768 433.336 71.0467 433.276 79.3253C433.256 82.1521 433.704 84.8434 434.837 87.4138C437.808 94.1594 443.182 98.5307 449.341 102.136C449.519 102.012 449.665 101.917 449.8 101.81C456.045 96.9113 462.27 91.9925 468.546 87.1371C469.397 86.4773 469.814 85.8174 469.618 84.7772C469.61 84.7282 469.598 84.6792 469.57 84.5178C469.285 84.7051 469.061 84.8521 468.834 84.9962C466.552 86.483 464.213 87.8546 461.609 88.7076C460.273 89.1456 458.928 89.3876 457.505 89.0101C452.786 87.7567 450.013 83.8349 450.246 78.7404C450.275 78.1151 450.461 77.7895 451.008 77.4725C456.034 74.565 460.767 71.2541 464.842 67.0759C466.997 64.8629 468.868 62.4511 469.955 59.5033C470.754 57.3306 470.756 55.2271 469.644 53.1408C469.064 52.0372 468.472 50.9422 467.753 49.9222ZM450.303 74.6457C450.303 67.4937 450.303 60.4196 450.303 53.3426C452.962 53.8699 456.106 58.4947 456.795 62.4223C457.75 67.8395 453.45 72.7612 450.303 74.6457Z" fill="white"/>
<path d="M341.626 51.5048C339.73 48.3581 337.296 45.6553 334.703 43.0792C331.864 40.2553 328.72 37.7945 325.573 35.1953C322.99 37.5668 320.446 39.8922 317.917 42.2291C314.233 45.6351 310.54 49.0324 307.014 52.6026C306.465 53.1588 306.172 53.7236 306.175 54.5678C306.212 62.6217 306.198 70.6756 306.195 78.7295C306.195 79.4527 306.138 80.1789 306.166 80.9022C306.301 84.602 307.603 87.9129 309.6 90.9702C312.71 95.7276 317.047 99.1134 321.872 101.955C322.311 102.214 322.515 101.92 322.771 101.721C329.096 96.765 335.419 91.8059 341.741 86.8439C342.606 86.1667 342.718 85.7691 342.374 84.5559C342.092 84.7375 341.822 84.9075 341.557 85.0833C339.451 86.4722 337.255 87.6766 334.893 88.5843C331.427 89.9156 328.482 88.9474 325.915 86.5269C323.783 84.5156 323.151 81.8761 323.076 79.0349C323.056 78.2367 323.283 77.8103 323.993 77.4011C329.002 74.5109 333.7 71.1943 337.755 67.0276C339.733 64.9961 341.454 62.7773 342.578 60.135C343.632 57.654 343.753 55.2162 342.353 52.813C342.101 52.3836 341.882 51.9312 341.626 51.5048ZM323.197 74.6464C323.197 67.5146 323.197 60.4202 323.197 53.2049C327.093 55.3228 329.048 58.6452 329.683 62.8436C330.459 67.9814 326.435 72.5918 323.197 74.6464Z" fill="white"/>
<path d="M290.539 53.8731C289.004 53.5043 287.438 53.3833 285.806 53.3573C285.892 53.2738 285.915 53.2277 285.955 53.2133C286.159 53.1383 286.369 53.0663 286.579 52.9971C289.022 52.1846 291.154 50.9513 292.927 49.2483C295.841 46.4503 297.157 43.0732 297.56 39.3387C298.031 34.9732 297.132 30.8756 294.516 27.1441C291.611 22.9947 287.294 20.6577 281.849 20.5454C272.724 20.3581 264.836 20.4992 255.705 20.4848C255.188 20.4848 254.901 20.6347 254.636 21.0179C251.518 25.5448 248.38 30.0602 245.253 34.5813C245.144 34.7398 244.94 34.8781 245.055 35.1634C245.285 35.1634 245.529 35.1662 245.773 35.1634C247.843 35.1432 249.912 35.1086 251.981 35.1057C258.964 35.0971 264.706 35.123 271.69 35.0942C274.681 35.0827 276.69 36.3304 277.934 38.6673C279.259 41.1541 279.409 43.7763 278.966 46.4446C278.469 49.4586 277.193 52.1471 274.561 54.2074C272.121 56.1207 269.215 57.0198 266.017 57.2532C265.833 56.9621 265.907 56.6913 265.907 56.4319C265.902 50.6545 265.905 46.5829 265.905 40.8054C265.905 40.6498 265.884 40.4942 265.907 40.3415C265.994 39.817 265.709 39.673 265.175 39.7392C264.459 39.8257 263.735 39.866 263.025 39.9755C258.634 40.6556 254.901 42.3441 252.308 45.6752C250.231 48.3464 249.383 51.3893 249.366 54.5762C249.311 65.7105 249.343 75.1388 249.348 86.2731C249.348 87.1174 249.265 87.953 249.116 88.7829C248.271 93.4971 245.906 97.5687 242.44 101.173C242.296 101.323 242.089 101.447 242.055 101.689C242.161 101.681 242.21 101.684 242.256 101.675C249.966 100.133 257.734 99.1506 265.663 99.8854C268.827 100.176 271.902 100.799 274.71 102.185C275.242 102.447 275.653 102.433 276.164 102.243C280.343 100.684 284.257 98.7155 287.838 96.2489C295.994 90.6357 301.471 83.6077 302.362 74.2225C302.782 69.8167 302.201 65.5174 300.135 61.4544C298.215 57.6768 295.157 54.9883 290.539 53.8731ZM283.969 78.977C283.754 82.1121 283.317 85.2213 282.406 88.2642C282.041 89.4831 281.578 90.6703 280.912 91.7883C280.61 92.2955 280.274 92.7824 279.722 93.2176C277.926 91.6471 275.966 90.4225 273.713 89.5782C270.514 88.3795 267.252 88.5293 263.965 89.2007C262.462 89.5061 260.99 89.9067 259.553 90.4052C259.329 90.483 259.096 90.5406 258.99 90.6818C259.711 89.9643 260.424 89.241 261.154 88.5322C263.393 86.3566 265.06 83.9073 265.706 80.9797C265.838 80.3717 265.905 79.7579 265.905 79.1355C265.902 73.3609 265.91 67.5863 265.887 61.8118C265.884 61.2585 266.068 61.002 266.663 60.8119C269.376 59.956 272.135 59.4518 275.012 59.9445C279.199 60.6591 281.544 63.0854 282.693 66.5749C284.033 70.6292 284.26 74.7844 283.969 78.977Z" fill="white"/>
</g>
<defs>
<clipPath id="clip0">
<rect width="510" height="115" fill="white"/>
</clipPath>
</defs>
</svg>
