<svg width="311" height="60" viewBox="0 0 311 60" fill="none" xmlns="http://www.w3.org/2000/svg">
<path d="M14.4466 26.6425C12.469 25.4981 9.82229 24.8291 8.11458 24.0721C6.81178 23.4618 6.24254 22.4231 6.80004 21.2963C7.38689 20.105 9.43498 19.6356 12.064 20.4102C13.7365 20.909 15.1919 21.9242 16.348 23.0099V17.7342C13.9243 16.7131 11.2366 16.2729 8.408 16.3962C5.94325 16.4959 4.02427 17.2119 2.45153 18.5499C1.00789 19.7764 0.0689402 21.5487 0.00438731 23.7376C-0.0836393 26.7716 1.14873 28.5145 4.08296 30.0638C6.35991 31.2551 8.66621 31.7656 9.9514 32.5344C11.1838 33.2797 11.3187 34.2832 10.9608 35.1517C10.3035 36.7655 7.7566 37.1881 4.99843 36.2491C2.99142 35.586 1.20155 34.0661 0.280204 32.9745V39.0132C2.86819 40.1458 5.72025 40.6798 8.67208 40.6329C14.4994 40.539 17.8386 37.4404 18.044 33.4088C18.179 30.3865 17.2752 28.2856 14.4466 26.6425Z" fill="#0D060E"/>
<path d="M111.763 40.0935C110.895 38.1041 111.088 37.2004 111.61 35.7567C111.804 35.1992 112.168 34.272 112.168 34.272H120.701C120.701 34.272 121.153 35.2638 121.317 35.7567C121.845 37.2708 121.915 38.1804 121.094 40.0994H132.109C130.213 38.0278 129.873 37.0947 129.31 35.7567C128.782 34.4657 121.475 16.8721 121.475 16.8721H112.761C113.383 18.1279 113.688 19.1842 113.265 20.3403C113.265 20.3403 107.814 34.5713 107.291 35.7919C106.276 38.1745 106.077 38.4151 104.568 40.0994L111.763 40.0935ZM113.553 30.393L114.48 27.8343C115.261 25.8743 115.947 23.8849 116.188 22.6466C116.194 22.6173 116.217 22.6173 116.223 22.6408C116.605 24.1666 117.203 25.9975 118.066 27.9165L119.122 30.3754L113.553 30.393Z" fill="#0D060E"/>
<path d="M34.2936 40.0934C33.1199 37.881 32.891 37.1005 32.891 34.1135C32.891 34.1135 32.8734 21.2264 32.8793 20.7804C33.2431 20.7804 34.4872 20.7862 34.8041 20.8039C37.0518 20.9095 37.8264 21.3379 39.628 22.6817L39.1057 16.9248H19.2469L18.7246 22.6817C20.5262 21.3379 21.295 20.9154 23.5485 20.8039C23.8712 20.7862 25.1153 20.7804 25.4733 20.7804C25.4851 21.2264 25.4675 34.1135 25.4675 34.1135C25.4675 37.1005 25.2151 37.881 24.0473 40.0934H34.2936V40.0934Z" fill="#0D060E"/>
<path d="M56.7935 36.1323H50.2502V29.4775H53.067C55.2266 29.4775 56.3182 29.9469 57.9848 31.0971L57.4566 25.5984H50.2502V20.7863H55.8604C58.0141 20.7863 59.1115 21.244 60.784 22.3884L60.2559 16.8955H41.2832C42.4569 19.1079 42.7034 19.8767 42.7034 22.8637V34.1135C42.7034 37.1006 42.4569 37.8811 41.2832 40.0935H61.1948L61.723 34.5302C60.0564 35.6804 58.9531 36.1323 56.7935 36.1323Z" fill="#0D060E"/>
<path d="M72.3967 22.8637C72.3967 19.8767 72.6256 19.1079 73.7993 16.8955H63.4121C64.5799 19.1079 64.8381 19.8767 64.8381 22.8637V34.1135C64.8381 37.1006 64.5799 37.8811 63.4121 40.0935H82.5667L83.1418 34.2602C81.4693 35.4046 80.3308 36.1323 78.183 36.1323H72.3967V22.8637Z" fill="#0D060E"/>
<path d="M93.7697 22.8637C93.7697 19.8767 94.0045 19.1079 95.1782 16.8955H84.7852C85.953 19.1079 86.217 19.8767 86.217 22.8637V34.1135C86.217 37.1006 85.9588 37.8811 84.7852 40.0935H103.946L104.521 34.2602C102.848 35.4046 101.704 36.1323 99.5443 36.1323H93.7639L93.7697 22.8637Z" fill="#0D060E"/>
<path d="M307.387 26.8536C305.403 25.6975 302.745 25.0285 301.037 24.248C299.728 23.6671 299.165 22.6225 299.717 21.4957C300.303 20.3044 302.357 19.8115 304.992 20.592C306.671 21.1084 308.126 22.1178 309.288 23.1917V17.9277C306.859 16.9007 304.165 16.4665 301.33 16.5897C298.854 16.6836 296.935 17.3819 295.356 18.7434C293.913 19.9758 292.974 21.7363 292.903 23.937C292.809 26.9886 294.048 28.7139 296.994 30.2749C299.271 31.4721 301.589 31.9944 302.88 32.7573C304.112 33.4732 304.247 34.4885 303.883 35.3746C303.226 36.9649 300.667 37.4227 297.903 36.4779C295.896 35.7854 294.106 34.2889 293.179 33.1974V39.2126C295.773 40.351 298.637 40.9203 301.589 40.8733C307.428 40.7736 310.785 37.6633 310.984 33.6082C311.131 30.6094 310.221 28.4968 307.387 26.8536Z" fill="#0D060E"/>
<path d="M182.665 40.2748C181.797 38.2913 181.985 37.411 182.519 35.9439C182.712 35.404 183.076 34.4592 183.076 34.4592H191.615C191.615 34.4592 192.067 35.4685 192.231 35.9439C192.759 37.4814 192.835 38.3734 192.008 40.2748H203.017C201.122 38.215 200.781 37.2995 200.224 35.9439C199.696 34.6411 192.384 17.0651 192.384 17.0651C192.384 17.0651 186.58 17.0592 183.663 17.0651C184.285 18.321 184.596 19.3714 184.168 20.5334C184.168 20.5334 178.728 34.7526 178.205 35.9791C177.178 38.3675 176.985 38.6258 175.471 40.2748H182.665ZM184.467 30.5919L185.394 28.0332C186.175 26.079 186.861 24.0662 187.096 22.8338C187.102 22.8103 187.125 22.8103 187.137 22.8279C187.519 24.3478 188.123 26.1905 188.986 28.1213L190.036 30.586L184.467 30.5919Z" fill="#0D060E"/>
<path d="M243.862 40.2751C242.683 38.0568 242.46 37.3056 242.46 34.3245C242.46 34.3245 242.442 21.4315 242.454 20.9796C242.812 20.9796 244.197 20.9855 244.52 21.009C246.832 21.1205 247.618 21.5371 249.467 22.8692L248.933 17.1123H228.563L228.029 22.8692C229.878 21.5312 230.664 21.1205 232.976 21.009C233.305 20.9855 234.684 20.9796 235.042 20.9796C235.054 21.4315 235.036 34.3245 235.036 34.3245C235.036 37.3115 234.784 38.0568 233.61 40.2751H243.862Z" fill="#0D060E"/>
<path d="M288.457 23.0688C288.457 20.1169 288.686 19.3247 289.854 17.1123H279.607C280.775 19.3306 281.028 20.1169 281.028 23.0688V34.3186C281.028 37.3056 280.781 38.0568 279.607 40.2692H289.854C288.686 38.0509 288.457 37.2998 288.457 34.3186V23.0688Z" fill="#0D060E"/>
<path d="M227.171 37.1824C226.003 35.5216 225.358 34.4418 224.765 33.5616C223.034 31.0029 221.79 30.2107 220.287 29.5417C220.27 29.5299 220.276 29.5123 220.299 29.5065C223.533 29.213 225.763 26.7366 225.722 23.2566C225.704 21.4432 224.947 19.5125 223.192 18.3506C221.719 17.3764 220.006 17.1064 216.708 17.1064L203.645 17.1123C204.812 19.3306 205.071 20.117 205.071 23.0688V34.3186C205.071 37.3056 204.818 38.0568 203.645 40.2692H213.58C212.406 38.0509 212.183 37.2998 212.101 34.2364V31.0557H212.383C213.433 31.0557 214.049 31.2083 214.759 31.7658C215.37 32.2177 215.992 33.0158 216.948 34.4888C217.541 35.4219 218.069 36.2845 218.838 37.511C220.264 39.8056 221.549 40.2692 223.574 40.2692H230.393C228.791 39.1425 227.846 38.1331 227.171 37.1824ZM216.514 27.0535C215.334 27.6755 213.738 27.5581 212.107 27.5581V20.7156C214.707 20.7097 215.868 20.6099 216.895 21.4022C217.746 22.0301 218.093 22.8986 218.093 24.1192C218.093 25.6392 217.394 26.5546 216.514 27.0535Z" fill="#0D060E"/>
<path d="M263.997 16.3496C256.638 16.3496 250.658 21.2145 250.658 28.7085C250.658 36.226 256.638 41.0851 263.997 41.0851C271.362 41.0851 277.336 36.226 277.336 28.7085C277.33 21.2145 271.356 16.3496 263.997 16.3496ZM263.997 37.2295C260.728 37.2295 258.07 34.2953 258.07 28.7085C258.07 23.1218 260.728 20.2169 263.997 20.2169C267.272 20.2169 269.924 23.1218 269.924 28.7085C269.924 34.2953 267.272 37.2295 263.997 37.2295Z" fill="#0D060E"/>
<path d="M158.775 30.557L171.686 28.4854L158.775 26.4139L163.775 18.6851L156.117 23.6381L153.922 0L151.827 23.6381L144.168 18.6851L149.163 26.4139L136.258 28.4854L149.163 30.557L144.168 38.2916L151.827 33.3386L153.922 59.4649L156.117 33.3386L163.775 38.2916L158.775 30.557Z" fill="#ED1C25"/>
<path d="M14.4466 26.6425C12.469 25.4981 9.82229 24.8291 8.11458 24.0721C6.81178 23.4618 6.24254 22.4231 6.80004 21.2963C7.38689 20.105 9.43498 19.6356 12.064 20.4102C13.7365 20.909 15.1919 21.9242 16.348 23.0099V17.7342C13.9243 16.7131 11.2366 16.2729 8.408 16.3962C5.94325 16.4959 4.02427 17.2119 2.45153 18.5499C1.00789 19.7764 0.0689402 21.5487 0.00438731 23.7376C-0.0836393 26.7716 1.14873 28.5145 4.08296 30.0638C6.35991 31.2551 8.66621 31.7656 9.9514 32.5344C11.1838 33.2797 11.3187 34.2832 10.9608 35.1517C10.3035 36.7655 7.7566 37.1881 4.99843 36.2491C2.99142 35.586 1.20155 34.0661 0.280204 32.9745V39.0132C2.86819 40.1458 5.72025 40.6798 8.67208 40.6329C14.4994 40.539 17.8386 37.4404 18.044 33.4088C18.179 30.3865 17.2752 28.2856 14.4466 26.6425Z" fill="#0D060E"/>
<path d="M111.763 40.0935C110.895 38.1041 111.088 37.2004 111.61 35.7567C111.804 35.1992 112.168 34.272 112.168 34.272H120.701C120.701 34.272 121.153 35.2638 121.317 35.7567C121.845 37.2708 121.915 38.1804 121.094 40.0994H132.109C130.213 38.0278 129.873 37.0947 129.31 35.7567C128.782 34.4657 121.475 16.8721 121.475 16.8721H112.761C113.383 18.1279 113.688 19.1842 113.265 20.3403C113.265 20.3403 107.814 34.5713 107.291 35.7919C106.276 38.1745 106.077 38.4151 104.568 40.0994L111.763 40.0935ZM113.553 30.393L114.48 27.8343C115.261 25.8743 115.947 23.8849 116.188 22.6466C116.194 22.6173 116.217 22.6173 116.223 22.6408C116.605 24.1666 117.203 25.9975 118.066 27.9165L119.122 30.3754L113.553 30.393Z" fill="#0D060E"/>
<path d="M34.2936 40.0934C33.1199 37.881 32.891 37.1005 32.891 34.1135C32.891 34.1135 32.8734 21.2264 32.8793 20.7804C33.2431 20.7804 34.4872 20.7862 34.8041 20.8039C37.0518 20.9095 37.8264 21.3379 39.628 22.6817L39.1057 16.9248H19.2469L18.7246 22.6817C20.5262 21.3379 21.295 20.9154 23.5485 20.8039C23.8712 20.7862 25.1153 20.7804 25.4733 20.7804C25.4851 21.2264 25.4675 34.1135 25.4675 34.1135C25.4675 37.1005 25.2151 37.881 24.0473 40.0934H34.2936V40.0934Z" fill="#0D060E"/>
<path d="M56.7935 36.1323H50.2502V29.4775H53.067C55.2266 29.4775 56.3182 29.9469 57.9848 31.0971L57.4566 25.5984H50.2502V20.7863H55.8604C58.0141 20.7863 59.1115 21.244 60.784 22.3884L60.2559 16.8955H41.2832C42.4569 19.1079 42.7034 19.8767 42.7034 22.8637V34.1135C42.7034 37.1006 42.4569 37.8811 41.2832 40.0935H61.1948L61.723 34.5302C60.0564 35.6804 58.9531 36.1323 56.7935 36.1323Z" fill="#0D060E"/>
<path d="M72.3967 22.8637C72.3967 19.8767 72.6256 19.1079 73.7993 16.8955H63.4121C64.5799 19.1079 64.8381 19.8767 64.8381 22.8637V34.1135C64.8381 37.1006 64.5799 37.8811 63.4121 40.0935H82.5667L83.1418 34.2602C81.4693 35.4046 80.3308 36.1323 78.183 36.1323H72.3967V22.8637Z" fill="#0D060E"/>
<path d="M93.7697 22.8637C93.7697 19.8767 94.0045 19.1079 95.1782 16.8955H84.7852C85.953 19.1079 86.217 19.8767 86.217 22.8637V34.1135C86.217 37.1006 85.9588 37.8811 84.7852 40.0935H103.946L104.521 34.2602C102.848 35.4046 101.704 36.1323 99.5443 36.1323H93.7639L93.7697 22.8637Z" fill="#0D060E"/>
<path d="M307.387 26.8536C305.403 25.6975 302.745 25.0285 301.037 24.248C299.728 23.6671 299.165 22.6225 299.717 21.4957C300.303 20.3044 302.357 19.8115 304.992 20.592C306.671 21.1084 308.126 22.1178 309.288 23.1917V17.9277C306.859 16.9007 304.165 16.4665 301.33 16.5897C298.854 16.6836 296.935 17.3819 295.356 18.7434C293.913 19.9758 292.974 21.7363 292.903 23.937C292.809 26.9886 294.048 28.7139 296.994 30.2749C299.271 31.4721 301.589 31.9944 302.88 32.7573C304.112 33.4732 304.247 34.4885 303.883 35.3746C303.226 36.9649 300.667 37.4227 297.903 36.4779C295.896 35.7854 294.106 34.2889 293.179 33.1974V39.2126C295.773 40.351 298.637 40.9203 301.589 40.8733C307.428 40.7736 310.785 37.6633 310.984 33.6082C311.131 30.6094 310.221 28.4968 307.387 26.8536Z" fill="#0D060E"/>
<path d="M182.665 40.2748C181.797 38.2913 181.985 37.411 182.519 35.9439C182.712 35.404 183.076 34.4592 183.076 34.4592H191.615C191.615 34.4592 192.067 35.4685 192.231 35.9439C192.759 37.4814 192.835 38.3734 192.008 40.2748H203.017C201.122 38.215 200.781 37.2995 200.224 35.9439C199.696 34.6411 192.384 17.0651 192.384 17.0651C192.384 17.0651 186.58 17.0592 183.663 17.0651C184.285 18.321 184.596 19.3714 184.168 20.5334C184.168 20.5334 178.728 34.7526 178.205 35.9791C177.178 38.3675 176.985 38.6258 175.471 40.2748H182.665ZM184.467 30.5919L185.394 28.0332C186.175 26.079 186.861 24.0662 187.096 22.8338C187.102 22.8103 187.125 22.8103 187.137 22.8279C187.519 24.3478 188.123 26.1905 188.986 28.1213L190.036 30.586L184.467 30.5919Z" fill="#0D060E"/>
<path d="M243.862 40.2751C242.683 38.0568 242.46 37.3056 242.46 34.3245C242.46 34.3245 242.442 21.4315 242.454 20.9796C242.812 20.9796 244.197 20.9855 244.52 21.009C246.832 21.1205 247.618 21.5371 249.467 22.8692L248.933 17.1123H228.563L228.029 22.8692C229.878 21.5312 230.664 21.1205 232.976 21.009C233.305 20.9855 234.684 20.9796 235.042 20.9796C235.054 21.4315 235.036 34.3245 235.036 34.3245C235.036 37.3115 234.784 38.0568 233.61 40.2751H243.862Z" fill="#0D060E"/>
<path d="M288.457 23.0688C288.457 20.1169 288.686 19.3247 289.854 17.1123H279.607C280.775 19.3306 281.028 20.1169 281.028 23.0688V34.3186C281.028 37.3056 280.781 38.0568 279.607 40.2692H289.854C288.686 38.0509 288.457 37.2998 288.457 34.3186V23.0688Z" fill="#0D060E"/>
<path d="M227.171 37.1824C226.003 35.5216 225.358 34.4418 224.765 33.5616C223.034 31.0029 221.79 30.2107 220.287 29.5417C220.27 29.5299 220.276 29.5123 220.299 29.5065C223.533 29.213 225.763 26.7366 225.722 23.2566C225.704 21.4432 224.947 19.5125 223.192 18.3506C221.719 17.3764 220.006 17.1064 216.708 17.1064L203.645 17.1123C204.812 19.3306 205.071 20.117 205.071 23.0688V34.3186C205.071 37.3056 204.818 38.0568 203.645 40.2692H213.58C212.406 38.0509 212.183 37.2998 212.101 34.2364V31.0557H212.383C213.433 31.0557 214.049 31.2083 214.759 31.7658C215.37 32.2177 215.992 33.0158 216.948 34.4888C217.541 35.4219 218.069 36.2845 218.838 37.511C220.264 39.8056 221.549 40.2692 223.574 40.2692H230.393C228.791 39.1425 227.846 38.1331 227.171 37.1824ZM216.514 27.0535C215.334 27.6755 213.738 27.5581 212.107 27.5581V20.7156C214.707 20.7097 215.868 20.6099 216.895 21.4022C217.746 22.0301 218.093 22.8986 218.093 24.1192C218.093 25.6392 217.394 26.5546 216.514 27.0535Z" fill="#0D060E"/>
<path d="M263.997 16.3496C256.638 16.3496 250.658 21.2145 250.658 28.7085C250.658 36.226 256.638 41.0851 263.997 41.0851C271.362 41.0851 277.336 36.226 277.336 28.7085C277.33 21.2145 271.356 16.3496 263.997 16.3496ZM263.997 37.2295C260.728 37.2295 258.07 34.2953 258.07 28.7085C258.07 23.1218 260.728 20.2169 263.997 20.2169C267.272 20.2169 269.924 23.1218 269.924 28.7085C269.924 34.2953 267.272 37.2295 263.997 37.2295Z" fill="#0D060E"/>
<path d="M158.775 30.557L171.686 28.4854L158.775 26.4139L163.775 18.6851L156.117 23.6381L153.922 0L151.827 23.6381L144.168 18.6851L149.163 26.4139L136.258 28.4854L149.163 30.557L144.168 38.2916L151.827 33.3386L153.922 59.4649L156.117 33.3386L163.775 38.2916L158.775 30.557Z" fill="#ED1C25"/>
</svg>
