<svg width="134" height="22" viewBox="0 0 134 22" fill="none" xmlns="http://www.w3.org/2000/svg">
<path d="M1.47 21.33H12.81C13.74 21.33 14.28 20.82 14.28 19.89V18.75C14.28 17.82 13.74 17.31 12.81 17.31H4.77V1.77C4.77 0.84 4.26 0.329999 3.33 0.329999H1.47C0.54 0.329999 0 0.84 0 1.77V19.89C0 20.82 0.54 21.33 1.47 21.33Z" fill="#9F9A99"/>
<path d="M26.1877 21.66C32.7577 21.66 37.3177 16.74 37.3177 10.83C37.3177 4.92 32.7577 0 26.1877 0C19.6177 0 15.0577 4.92 15.0577 10.83C15.0577 16.74 19.6177 21.66 26.1877 21.66ZM26.1877 17.52C22.4677 17.52 19.8577 14.55 19.8577 10.83C19.8577 7.11 22.4677 4.14 26.1877 4.14C29.9077 4.14 32.5477 7.11 32.5477 10.83C32.5477 14.55 29.9077 17.52 26.1877 17.52Z" fill="#9F9A99"/>
<path d="M50.892 21.66C53.382 21.66 55.932 20.91 58.182 19.23C58.872 18.72 59.112 18.15 59.112 17.4V11.34C59.112 10.41 58.572 9.9 57.642 9.9H51.012C50.082 9.9 49.542 10.41 49.542 11.34V12C49.542 12.93 50.082 13.44 51.012 13.44H54.642V16.68C53.562 17.25 52.212 17.52 50.982 17.52C46.662 17.52 44.232 14.37 44.232 10.83C44.232 7.11 47.022 4.14 50.772 4.14C51.972 4.14 53.142 4.2 54.732 5.01C55.572 5.4 56.202 5.34 56.742 4.59L57.492 3.63C58.032 2.88 57.942 2.13 57.132 1.62C55.302 0.54 53.262 0 50.772 0C44.202 0 39.462 4.92 39.462 10.86C39.462 16.74 44.112 21.66 50.892 21.66Z" fill="#9F9A99"/>
<path d="M72.6232 21.66C79.1932 21.66 83.7532 16.74 83.7532 10.83C83.7532 4.92 79.1932 0 72.6232 0C66.0532 0 61.4932 4.92 61.4932 10.83C61.4932 16.74 66.0532 21.66 72.6232 21.66ZM72.6232 17.52C68.9032 17.52 66.2932 14.55 66.2932 10.83C66.2932 7.11 68.9032 4.14 72.6232 4.14C76.3432 4.14 78.9832 7.11 78.9832 10.83C78.9832 14.55 76.3432 17.52 72.6232 17.52Z" fill="#9F9A99"/>
<path d="M88.4344 2.373C89.0364 2.198 89.2884 1.757 89.2884 1.302C89.2884 0.49 88.5814 0 87.6084 0H86.0474C85.8584 0 85.7534 0.105 85.7534 0.294V4.606C85.7534 4.795 85.8584 4.9 86.0474 4.9H87.8254C88.8404 4.9 89.5194 4.368 89.5194 3.556C89.5194 3.003 89.1554 2.464 88.4344 2.373ZM87.5664 0.742C88.0074 0.742 88.3644 0.973 88.3644 1.393C88.3644 1.757 88.0774 2.114 87.3494 2.114H86.6774V0.742H87.5664ZM87.8044 4.144H86.6774V2.751H87.5104C88.2734 2.751 88.5954 3.122 88.5954 3.5C88.5954 3.878 88.2804 4.144 87.8044 4.144Z" fill="#191419"/>
<path d="M91.8224 4.9H92.1584C92.3474 4.9 92.4524 4.795 92.4524 4.606V2.891L94.1534 0.357C94.2934 0.154 94.2024 0 93.9644 0H93.5374C93.3764 0 93.2644 0.056 93.1804 0.196L91.9834 2.107L90.8004 0.196C90.7164 0.056 90.6044 0 90.4434 0H90.0164C89.7714 0 89.6874 0.154 89.8204 0.357L91.5284 2.898V4.606C91.5284 4.795 91.6334 4.9 91.8224 4.9Z" fill="#191419"/>
<path fill-rule="evenodd" clip-rule="evenodd" d="M124.48 1.66877C124.999 1.66877 125.246 1.3063 125.246 0.834387C125.246 0.363107 124.973 0 124.48 0C123.988 0 123.715 0.363107 123.715 0.834387C123.715 1.30567 123.961 1.66877 124.48 1.66877ZM122.971 2.86504C122.971 3.80824 122.478 4.53382 121.44 4.53382C120.402 4.53382 119.91 3.80824 119.91 2.86504C119.91 1.92185 120.456 1.19627 121.44 1.19627C122.426 1.19627 122.971 1.92185 122.971 2.86504ZM124.376 2.48795C124.118 2.48795 123.886 2.52338 123.678 2.5879C123.686 2.68279 123.691 2.77895 123.691 2.87763C123.691 3.93532 123.253 4.8026 122.34 5.13218C122.457 6.26831 123.171 7.10333 124.376 7.10333C125.698 7.10333 126.43 6.10004 126.43 4.79564C126.43 3.49124 125.769 2.48795 124.376 2.48795ZM122.921 7.58846C123.302 7.8339 123.911 7.9737 124.376 7.9737C124.906 7.9737 125.412 7.82947 125.796 7.57581V15.0448C125.796 15.3168 125.598 15.5369 125.354 15.5369H123.363C123.119 15.5369 122.921 15.3168 122.921 15.0448V7.58846ZM127.868 12.5454V9.34769H126.781C126.598 9.34769 126.45 9.18258 126.45 8.97826V7.26836C126.45 7.06467 126.598 6.89893 126.781 6.89893H127.85L127.867 5.47687C127.867 5.44714 127.869 5.4174 127.875 5.3883C127.945 5.0233 128.176 4.84048 128.517 4.84048H130.283C130.527 4.84048 130.725 5.06062 130.725 5.33264V6.89893H132.073C132.256 6.89893 132.405 7.06404 132.405 7.26836V8.97889C132.405 9.18258 132.257 9.34832 132.073 9.34832H130.725V12.579C130.725 12.9566 130.888 13.1046 131.094 13.1046C131.404 13.1046 131.508 12.7592 131.508 12.4474C131.508 12.3487 131.508 12.2665 131.493 12.1842C131.463 11.8388 131.567 11.6585 131.862 11.6585H132.954C133.19 11.6585 133.382 11.7572 133.456 12.0204C133.528 12.2285 133.557 12.4524 133.573 12.677C133.573 12.6884 133.574 12.7004 133.574 12.7118C133.566 15.1131 132.036 15.7185 130.71 15.7185C129.323 15.7172 127.868 15.0764 127.868 12.5454Z" fill="#FF5005"/>
<path fill-rule="evenodd" clip-rule="evenodd" d="M97.6936 12.5458V9.34803H96.5516C96.3686 9.34803 96.2197 9.18292 96.2197 8.97859V7.2687C96.2197 7.06501 96.368 6.89927 96.5516 6.89927H97.6749L97.6919 5.47721C97.6925 5.44747 97.6942 5.41774 97.6999 5.38864C97.7698 5.02364 98.001 4.84082 98.342 4.84082H100.108C100.352 4.84082 100.55 5.06096 100.55 5.33298V6.89927H101.898C102.081 6.89927 102.23 7.06438 102.23 7.2687V8.97923C102.23 9.18292 102.081 9.34866 101.898 9.34866H100.55V12.5793C100.55 12.957 100.712 13.105 100.919 13.105C101.229 13.105 101.332 12.7596 101.332 12.4477C101.332 12.349 101.332 12.2668 101.318 12.1846C101.288 11.8392 101.391 11.6589 101.686 11.6589H102.778C103.015 11.6589 103.206 11.7576 103.28 12.0207C103.352 12.2288 103.382 12.4528 103.397 12.6774C103.398 12.6887 103.398 12.7008 103.398 12.7121C103.391 15.1135 101.86 15.7188 100.535 15.7188C99.1477 15.7176 97.6936 15.0768 97.6936 12.5458ZM103.636 11.2148C103.636 13.8281 105.215 15.7176 107.282 15.7176C108.285 15.7176 109.083 15.2413 109.496 14.4524V15.0553C109.496 15.3273 109.694 15.5474 109.938 15.5474H111.929C112.174 15.5474 112.371 15.3273 112.371 15.0553V7.3845C112.371 7.11249 112.174 6.89235 111.929 6.89235H109.938C109.694 6.89235 109.496 7.11249 109.496 7.3845V7.96016C109.083 7.18777 108.285 6.71143 107.282 6.71143C105.215 6.71206 103.636 8.60161 103.636 11.2148ZM106.41 11.1718C106.41 10.2286 106.956 9.50305 107.941 9.50305C108.926 9.50305 109.471 10.2286 109.471 11.1718C109.471 12.115 108.979 12.8406 107.941 12.8406C106.903 12.8406 106.41 12.115 106.41 11.1718ZM116.293 7.96062C116.707 7.18822 117.504 6.71188 118.508 6.71188C120.574 6.71188 122.154 8.60143 122.154 11.2153C122.154 13.8279 120.574 15.7181 118.508 15.7181C117.504 15.7181 116.707 15.2417 116.293 14.4529V17.0864C116.293 17.3584 116.096 17.5785 115.851 17.5785H113.86C113.616 17.5785 113.418 17.3584 113.418 17.0864V7.38496C113.418 7.11295 113.616 6.8928 113.86 6.8928H115.851C116.096 6.8928 116.293 7.11295 116.293 7.38496V7.96062ZM116.318 11.1716C116.318 12.1148 116.81 12.8404 117.848 12.8404C118.887 12.8404 119.379 12.1148 119.379 11.1716C119.379 10.2285 118.833 9.50287 117.848 9.50287C116.864 9.50287 116.318 10.2285 116.318 11.1716Z" fill="#191419"/>
</svg>
