<svg width="99" height="61" viewBox="0 0 99 61" fill="none" xmlns="http://www.w3.org/2000/svg">
<path d="M49.3496 0L0 30.5L49.3496 61L99.0068 30.5L49.3496 0Z" fill="#EA0029"/>
<path d="M49.3496 0L0 30.5L49.3496 61L99.0068 30.5L49.3496 0ZM3.44586 30.5L49.3564 2.12376L95.561 30.5069L49.3564 58.8831L3.44586 30.5Z" fill="white"/>
<path d="M51.7495 18.7987H49.9103L49.2266 17.0723L48.5361 18.7987H46.6969L48.1942 20.2237L47.5584 22.1282L49.2266 20.9361L50.888 22.1282L50.2521 20.2237L51.7495 18.7987Z" fill="white"/>
<path d="M32.927 21.9979C33.1116 21.9979 33.1663 21.9431 33.1663 21.8198V20.3469C33.1663 20.2235 33.1184 20.1687 32.927 20.1687V20.0386H33.8705C34.479 20.0386 34.7251 20.614 34.7251 21.0799C34.7251 21.5458 34.479 22.1212 33.8705 22.1212H32.927V21.9979ZM33.597 21.8129C33.597 21.9431 33.6449 21.9979 33.809 21.9979C34.103 21.9979 34.2465 21.7033 34.2465 21.0799C34.2465 20.4633 34.1098 20.1619 33.809 20.1619C33.6449 20.1619 33.597 20.2235 33.597 20.3469V21.8129Z" fill="white"/>
<path d="M35.4567 22.1281V21.9979C35.6481 21.9979 35.696 21.9431 35.696 21.8198V20.3469C35.696 20.2235 35.6481 20.1687 35.4567 20.1687V20.0386H37.0223V20.8401H36.9198C36.8719 20.5524 36.7352 20.1687 36.3318 20.1687C36.1746 20.1687 36.1267 20.2235 36.1267 20.3469V20.9634C36.407 20.9634 36.4891 20.8744 36.5369 20.6003H36.6463V21.4567H36.5369C36.4822 21.1964 36.407 21.1073 36.1267 21.1073V21.8266C36.1267 21.95 36.1746 22.0048 36.3523 22.0048C36.783 22.0048 36.9198 21.5252 36.9608 21.2991H37.0702V22.1281H35.4567V22.1281Z" fill="white"/>
<path d="M39.176 20.8265H39.0666C39.0324 20.5114 38.8957 20.1209 38.588 20.1209C38.4171 20.1209 38.2872 20.2579 38.2872 20.4429C38.2872 20.9156 39.3059 20.7512 39.3059 21.4637C39.3059 21.8953 39.0529 22.1762 38.6222 22.1762C38.3692 22.1762 38.2393 22.0049 38.1709 22.0049C38.1162 22.0049 38.0889 22.0803 38.0684 22.1351H37.959V21.313H38.0684C38.1231 21.5185 38.2188 22.0254 38.6017 22.046C38.7931 22.0597 38.9572 21.9227 38.9572 21.6555C38.9572 21.1691 37.9385 21.2993 37.9385 20.621C37.9385 20.3744 38.0957 19.9839 38.547 19.9839C38.8136 19.9839 38.9572 20.1483 38.9777 20.1483C39.0051 20.1483 39.0256 20.1072 39.0803 20.0318H39.176V20.8265V20.8265Z" fill="white"/>
<path d="M40.0238 21.9979C40.2084 21.9979 40.2563 21.9431 40.2563 21.8198V20.3469C40.2563 20.2235 40.2084 20.1687 40.0238 20.1687V20.0386H40.9673C41.5758 20.0386 41.8219 20.614 41.8219 21.0799C41.8219 21.5458 41.5758 22.1212 40.9673 22.1212H40.0238V21.9979ZM40.6938 21.8129C40.6938 21.9431 40.7417 21.9979 40.9058 21.9979C41.2066 21.9979 41.3433 21.7033 41.3433 21.0799C41.3433 20.4633 41.2066 20.1619 40.9058 20.1619C40.7417 20.1619 40.6938 20.2235 40.6938 20.3469V21.8129Z" fill="white"/>
<path d="M42.5535 22.1281V21.9979C42.7381 21.9979 42.7928 21.9431 42.7928 21.8198V20.3469C42.7928 20.2235 42.7449 20.1687 42.5535 20.1687V20.0386H44.1191V20.8401H44.0098C43.9619 20.5524 43.8252 20.1687 43.4218 20.1687C43.2645 20.1687 43.2167 20.2235 43.2167 20.3469V20.9634C43.497 20.9634 43.579 20.8744 43.6269 20.6003H43.7363V21.4567H43.6269C43.5722 21.1964 43.497 21.1073 43.2167 21.1073V21.8266C43.2167 21.95 43.2645 22.0048 43.4423 22.0048C43.8662 22.0048 44.0098 21.5252 44.0508 21.2991H44.1602V22.1281H42.5535V22.1281Z" fill="white"/>
<path d="M55.0105 21.7993V20.0249H54.8943H54.8874C54.737 20.1345 54.5661 20.1825 54.3405 20.1825H54.3336V20.3263H54.3405C54.5798 20.3332 54.6139 20.3537 54.6139 20.4839V21.7924C54.6139 21.9226 54.5251 21.9774 54.2926 21.9774H54.2858V22.1213H55.3387V21.9774H55.3318C55.1336 21.9774 55.0105 21.95 55.0105 21.7993Z" fill="white"/>
<path d="M61.6836 21.7993V20.0249H61.5605C61.4101 20.1345 61.2392 20.1825 61.0136 20.1825H61.0067V20.3263H61.0136C61.2529 20.3332 61.287 20.3537 61.287 20.4839V21.7924C61.287 21.9226 61.205 21.9774 60.9725 21.9774H60.9657V22.1213H62.0186V21.9774H62.0118C61.8066 21.9774 61.6836 21.95 61.6836 21.7993Z" fill="white"/>
<path d="M58.1216 19.9907C57.766 19.9907 57.472 20.3127 57.472 20.7032C57.472 21.0321 57.6566 21.3814 57.9985 21.3814C58.1147 21.3814 58.2241 21.3335 58.3198 21.2376C58.3267 21.2992 58.3267 21.3472 58.3267 21.3814C58.3267 21.8336 58.2104 22.0391 57.9643 22.046C57.9301 22.046 57.8276 22.0597 57.7934 22.0186C57.9028 21.9912 57.9643 21.909 57.9643 21.7788C57.9643 21.6692 57.9028 21.5527 57.766 21.5527C57.6156 21.5527 57.5336 21.6486 57.5336 21.8199C57.5336 22.0186 57.684 22.183 57.9712 22.183C58.5318 22.183 58.7916 21.5664 58.7916 20.9909C58.7848 20.5319 58.607 19.9907 58.1216 19.9907ZM57.9301 20.7032C57.9301 20.3196 57.9917 20.1277 58.1284 20.1277C58.2515 20.1277 58.313 20.3127 58.313 20.7169C58.313 21.0458 58.2378 21.217 58.1011 21.217C57.978 21.217 57.9301 21.0732 57.9301 20.7032Z" fill="white"/>
<path d="M65.3412 21.3129V21.3266C65.3002 21.5253 65.2592 21.7308 65.0472 21.7308H64.4934C64.5413 21.6007 64.6507 21.4979 64.9652 21.265L64.9789 21.2581C65.2387 21.0663 65.4438 20.9224 65.4438 20.5936C65.4438 20.2373 65.2045 19.9976 64.8421 19.9976C64.4934 19.9976 64.2336 20.2373 64.2336 20.5662C64.2336 20.7649 64.3225 20.8813 64.4729 20.8813C64.596 20.8813 64.678 20.7786 64.678 20.6278C64.678 20.5182 64.6028 20.3949 64.4866 20.3949C64.4593 20.3949 64.4319 20.4018 64.4114 20.4086C64.4388 20.2647 64.5687 20.1551 64.7191 20.1551C64.9173 20.1551 64.9857 20.3675 64.9857 20.5593C64.9857 20.8334 64.8285 21.032 64.6233 21.2787C64.5413 21.3814 64.4524 21.491 64.3635 21.6212C64.2336 21.8199 64.2268 21.8815 64.2268 22.1145V22.1213H65.4233L65.4506 21.3198V21.3129H65.3412V21.3129Z" fill="white"/>
<path d="M26.4387 25.9304C25.6798 25.2658 24.6884 24.9438 23.492 24.9438H16.4088V25.2384V26.2592H17.7899C17.913 26.2592 17.9882 26.2935 18.0565 26.362C18.1181 26.4236 18.1454 26.4716 18.1454 26.6086V35.3982C18.1454 35.549 18.1181 35.6038 18.0634 35.6586C18.0155 35.7065 17.9061 35.7613 17.7147 35.7613H16.4088V37.0767H23.1364V35.7613H21.5366C21.393 35.7613 21.311 35.7202 21.2426 35.6586C21.1879 35.5969 21.1605 35.5421 21.1537 35.3982V31.9317H23.0476C23.7449 31.9317 24.4491 31.8084 25.1602 31.5755C25.8781 31.3357 26.4729 30.9383 26.9173 30.3903C27.3685 29.8354 27.601 29.164 27.5942 28.4172C27.601 27.4376 27.1976 26.5812 26.4387 25.9304ZM24.2919 29.6778C24.162 29.9176 23.9295 30.1436 23.5672 30.3423C23.2116 30.5341 22.8083 30.6369 22.3433 30.6369H21.1674V26.5332C21.1742 26.3962 21.1879 26.3894 21.2357 26.3483C21.2631 26.314 21.5981 26.2455 22.0972 26.2524C22.9723 26.2524 23.5672 26.3962 23.8612 26.6155C24.2782 26.9306 24.5038 27.465 24.5038 28.3487C24.5038 29.0064 24.4081 29.4586 24.2919 29.6778Z" fill="white"/>
<path d="M45.6918 37.0699V32.3222H44.4543C44.174 33.5828 43.7843 34.4254 43.292 34.9529C42.7793 35.501 42.2733 35.7476 41.7264 35.7476H40.5846C40.1949 35.7613 39.9624 35.6723 39.9624 35.6654C39.9624 35.6654 39.9487 35.6586 39.9282 35.5832C39.9077 35.5079 39.9009 35.3914 39.9009 35.2338V26.6566C39.9009 26.4579 39.9419 26.3894 39.9829 26.3551C40.0103 26.3209 40.1607 26.2592 40.4205 26.2592H41.6922V24.9438H35.1902V26.2592H35.4568H36.3798C36.6396 26.2524 36.8037 26.314 36.8311 26.3483C36.8653 26.3825 36.8994 26.4099 36.8994 26.5744V35.3914C36.8994 35.5421 36.8653 35.5969 36.8174 35.6517C36.7695 35.6997 36.667 35.7476 36.4824 35.7476H35.197V37.063H44.6936H45.6918V37.0699Z" fill="white"/>
<path d="M27.6696 25.2384V26.2592H28.8387C29.0575 26.2524 29.1874 26.314 29.2284 26.3483C29.2694 26.3894 29.3036 26.4373 29.3036 26.6018V35.4325C29.2968 35.5627 29.2763 35.5969 29.2216 35.6517C29.1806 35.6928 28.996 35.7545 28.7088 35.7545H27.5328V37.0699H34.028V35.7545H32.8042C32.5717 35.7545 32.4213 35.6997 32.3461 35.638C32.3187 35.6175 32.2982 35.5901 32.2914 35.4325V26.5058C32.2914 26.3894 32.3119 26.3688 32.3461 26.3346C32.3734 26.3072 32.4897 26.2592 32.6879 26.2592H34.028V24.9438H27.6696V25.2384Z" fill="white"/>
<path d="M77.2514 24.9439V26.2455L77.4976 26.2592C78.0172 26.2935 78.3864 26.4579 78.6325 26.7182C78.8786 26.9786 79.0017 27.3143 79.0085 27.7733V32.377L73.0808 24.9439H69.088V25.2384V26.2592H69.8674C70.3119 26.2661 70.6605 26.4236 70.9477 26.773V34.1034C70.9477 34.6173 70.811 34.9941 70.5511 35.3023C70.2845 35.6106 69.97 35.7545 69.5735 35.7545H69.2521H68.9923V37.0699H74.2158V35.7545H73.7577C73.3133 35.7545 72.9783 35.6175 72.6911 35.3366C72.4313 35.0831 72.2809 34.6515 72.2809 33.9801V28.4515L79.0701 37.0699H80.3623V27.7733C80.3623 27.2526 80.4785 26.9169 80.6699 26.6977C80.8614 26.4785 81.2237 26.314 81.7844 26.2524L82.0237 26.225V24.937H77.2514V24.9439Z" fill="white"/>
<path d="M67.1327 32.3428C66.9891 33.528 66.6336 34.3706 66.0866 34.9187C65.526 35.4736 64.8218 35.7545 63.9056 35.7545H62.504C62.2169 35.7545 62.0186 35.6997 61.916 35.6243C61.8955 35.6106 61.8819 35.6106 61.875 35.4805V31.507L62.1143 31.4864C62.7502 31.4864 63.3997 31.5138 63.6116 31.7399C63.8167 31.9523 63.9671 32.377 64.0013 33.0279L64.0082 33.2402H64.9448V28.6707H64.015L64.0013 28.8762C63.9535 29.4449 63.8099 29.8217 63.5979 30.0409C63.3792 30.267 62.7638 30.2464 62.21 30.2464L61.875 30.2122V26.5127C61.875 26.4099 61.8887 26.3894 61.9366 26.3414C61.9639 26.314 62.0938 26.2592 62.3057 26.2592H63.8988C64.5141 26.2592 64.9995 26.362 65.3414 26.5401C65.6969 26.7251 65.9704 26.9991 66.196 27.3759C66.408 27.7321 66.6131 28.3967 66.7703 29.3284L66.8113 29.5682H68.1787V24.9438H57.0959V25.2384V26.2592H58.2787C58.5796 26.2592 58.7642 26.314 58.7984 26.3483C58.8462 26.3894 58.8599 26.3962 58.8599 26.5127V35.3845C58.8599 35.5216 58.8325 35.5764 58.771 35.6449C58.7095 35.6997 58.6001 35.7545 58.4018 35.7545H57.0959V37.0699H68.1787V32.0893H67.16L67.1327 32.3428Z" fill="white"/>
<path d="M56.1182 31.3221C55.7421 30.774 55.1815 30.3493 54.4704 30.0341C53.9987 29.8286 53.2193 29.6231 52.0843 29.3902C51.1271 29.1983 50.4571 29.0065 50.1153 28.8352C49.7529 28.664 49.5204 28.4653 49.3837 28.2666C49.247 28.0542 49.1786 27.835 49.1786 27.5884C49.1854 27.1568 49.3427 26.8142 49.7324 26.4717C50.1152 26.1429 50.6144 25.9716 51.2775 25.9647C51.3254 25.9647 51.3733 25.9716 51.4211 25.9716C54.8396 25.9716 54.908 28.527 54.908 28.527H56.0635V24.9577H54.9353L54.3815 25.7455C53.438 25.033 52.3988 24.6699 51.2775 24.6699C50.04 24.6699 49.0145 25.0125 48.2487 25.7318C47.483 26.4443 47.0796 27.4034 47.0865 28.527C47.0865 29.1983 47.2232 29.7875 47.5172 30.2739C47.8112 30.7672 48.2487 31.1645 48.8299 31.4797C49.4179 31.8017 50.3477 32.0894 51.6399 32.3703C52.5903 32.569 53.1919 32.7265 53.397 32.8087C53.8072 32.9663 54.0876 33.1718 54.2516 33.3911C54.4157 33.6103 54.5046 33.8775 54.5046 34.2337C54.4978 34.727 54.32 35.1106 53.8961 35.4669C53.4791 35.8094 52.8706 35.9944 52.0501 35.9944C50.04 35.9807 48.7957 34.8914 48.112 32.5416L48.0573 32.336H46.9087V37.0837H47.9684L48.7137 36.1588C49.705 36.9261 50.8058 37.3166 51.9954 37.3166H52.0091C53.3628 37.3166 54.5251 36.9192 55.4686 36.1108C56.2686 35.4326 56.6856 34.4666 56.6788 33.3225C56.6856 32.5484 56.501 31.8702 56.1182 31.3221Z" fill="white"/>
</svg>
