<svg width="395" height="76" viewBox="0 0 395 76" fill="none" xmlns="http://www.w3.org/2000/svg">
<path d="M18.3486 33.8383C15.8368 32.3848 12.4753 31.5352 10.3063 30.5737C8.65162 29.7985 7.92863 28.4792 8.63671 27.0481C9.38206 25.5351 11.9833 24.9388 15.3225 25.9227C17.4467 26.5562 19.2952 27.8457 20.7635 29.2246V22.5239C17.6853 21.227 14.2716 20.668 10.679 20.8245C7.5485 20.9512 5.11121 21.8605 3.11368 23.5599C1.28012 25.1177 0.0875607 27.3687 0.0055723 30.1488C-0.10623 34.0023 1.459 36.2159 5.18575 38.1837C8.0777 39.6967 11.0069 40.3452 12.6392 41.3216C14.2045 42.2682 14.3759 43.5427 13.9212 44.6458C13.0864 46.6955 9.85163 47.2322 6.34849 46.0396C3.7994 45.1974 1.52608 43.2669 0.355886 41.8806V49.5502C3.64288 50.9888 7.26527 51.667 11.0144 51.6074C18.4157 51.4881 22.6567 47.5527 22.9176 42.4321C23.089 38.5936 21.9412 35.9252 18.3486 33.8383Z" fill="white"/>
<path d="M141.95 50.9222C140.847 48.3954 141.093 47.2476 141.757 45.414C142.003 44.706 142.465 43.5283 142.465 43.5283H153.302C153.302 43.5283 153.876 44.7879 154.085 45.414C154.756 47.337 154.845 48.4923 153.802 50.9296H167.792C165.384 48.2986 164.952 47.1134 164.236 45.414C163.566 43.7743 154.286 21.4287 154.286 21.4287H143.218C144.008 23.0238 144.395 24.3654 143.859 25.8337C143.859 25.8337 136.934 43.9085 136.271 45.4588C134.981 48.4849 134.728 48.7905 132.812 50.9296L141.95 50.9222ZM144.224 38.6016L145.401 35.3518C146.393 32.8624 147.265 30.3356 147.57 28.7629C147.578 28.7257 147.608 28.7257 147.615 28.7555C148.1 30.6934 148.86 33.0189 149.956 35.4562L151.297 38.5792L144.224 38.6016Z" fill="white"/>
<path d="M43.5554 50.9225C42.0647 48.1125 41.774 47.1212 41.774 43.3274C41.774 43.3274 41.7516 26.9595 41.7591 26.393C42.2212 26.393 43.8013 26.4005 44.2038 26.4229C47.0585 26.557 48.0424 27.1011 50.3306 28.808L49.6672 21.4961H24.4446L23.7812 28.808C26.0695 27.1011 27.0459 26.5645 29.908 26.4229C30.318 26.4005 31.8981 26.393 32.3528 26.393C32.3677 26.9595 32.3453 43.3274 32.3453 43.3274C32.3453 47.1212 32.0248 48.1125 30.5416 50.9225H43.5554V50.9225Z" fill="white"/>
<path d="M72.1332 45.8915H63.8225V37.4393H67.4002C70.1431 37.4393 71.5294 38.0356 73.6462 39.4964L72.9754 32.5125H63.8225V26.4007H70.9481C73.6835 26.4007 75.0773 26.982 77.2015 28.4354L76.5307 21.459H52.4336C53.9243 24.269 54.2373 25.2453 54.2373 29.0392V43.3275C54.2373 47.1213 53.9243 48.1127 52.4336 50.9226H77.7233L78.3941 43.8567C76.2773 45.3176 74.8761 45.8915 72.1332 45.8915Z" fill="white"/>
<path d="M91.9523 29.0392C91.9523 25.2453 92.243 24.269 93.7337 21.459H80.541C82.0243 24.269 82.3522 25.2453 82.3522 29.0392V43.3275C82.3522 47.1213 82.0243 48.1127 80.541 50.9226H104.869L105.6 43.5139C103.475 44.9673 102.029 45.8915 99.3015 45.8915H91.9523V29.0392Z" fill="white"/>
<path d="M119.097 29.0392C119.097 25.2453 119.395 24.269 120.886 21.459H107.686C109.169 24.269 109.504 25.2453 109.504 29.0392V43.3275C109.504 47.1213 109.176 48.1127 107.686 50.9226H132.021L132.752 43.5139C130.627 44.9673 129.174 45.8915 126.431 45.8915H119.089L119.097 29.0392Z" fill="white"/>
<path d="M390.411 34.107C387.892 32.6386 384.516 31.7889 382.347 30.7976C380.684 30.0597 379.969 28.733 380.67 27.3019C381.415 25.7889 384.024 25.1628 387.37 26.1541C389.502 26.81 391.35 28.092 392.826 29.456V22.7702C389.74 21.4658 386.319 20.9143 382.719 21.0708C379.574 21.1901 377.137 22.077 375.132 23.8062C373.298 25.3715 372.105 27.6075 372.016 30.4026C371.897 34.2784 373.469 36.4697 377.211 38.4523C380.103 39.9728 383.047 40.6362 384.687 41.6052C386.252 42.5145 386.424 43.8039 385.962 44.9294C385.127 46.9493 381.877 47.5307 378.366 46.3307C375.817 45.4512 373.544 43.5505 372.366 42.1642V49.804C375.661 51.25 379.298 51.973 383.047 51.9133C390.463 51.7866 394.727 47.8363 394.98 42.6859C395.167 38.8772 394.011 36.1939 390.411 34.107Z" fill="white"/>
<path d="M232.003 51.1537C230.9 48.6345 231.139 47.5164 231.817 45.6531C232.063 44.9673 232.525 43.7673 232.525 43.7673H243.37C243.37 43.7673 243.944 45.0493 244.152 45.6531C244.823 47.6059 244.92 48.7388 243.869 51.1537H257.852C255.444 48.5376 255.012 47.3748 254.304 45.6531C253.633 43.9984 244.346 21.6752 244.346 21.6752C244.346 21.6752 236.975 21.6677 233.27 21.6752C234.06 23.2702 234.455 24.6044 233.911 26.0802C233.911 26.0802 227.002 44.14 226.339 45.6978C225.034 48.7313 224.788 49.0593 222.865 51.1537H232.003ZM234.291 38.8555L235.469 35.6058C236.46 33.1237 237.332 30.5672 237.631 29.002C237.638 28.9721 237.668 28.9721 237.683 28.9945C238.167 30.925 238.935 33.2654 240.031 35.7176L241.365 38.848L234.291 38.8555Z" fill="white"/>
<path d="M309.729 51.1533C308.231 48.3359 307.947 47.3818 307.947 43.5955C307.947 43.5955 307.925 27.2201 307.94 26.6462C308.394 26.6462 310.154 26.6537 310.563 26.6835C313.5 26.8251 314.499 27.3543 316.847 29.0462L316.168 21.7344H290.297L289.619 29.0462C291.967 27.3469 292.966 26.8251 295.902 26.6835C296.32 26.6537 298.071 26.6462 298.526 26.6462C298.541 27.2201 298.519 43.5955 298.519 43.5955C298.519 47.3893 298.198 48.3359 296.707 51.1533H309.729Z" fill="white"/>
<path d="M366.367 29.2997C366.367 25.5506 366.657 24.5443 368.141 21.7344H355.127C356.61 24.5518 356.931 25.5506 356.931 29.2997V43.588C356.931 47.3818 356.618 48.3359 355.127 51.1458H368.141C366.657 48.3284 366.367 47.3744 366.367 43.588V29.2997Z" fill="white"/>
<path d="M288.529 47.225C287.046 45.1156 286.226 43.7442 285.474 42.6262C283.275 39.3764 281.695 38.3702 279.787 37.5205C279.764 37.5056 279.772 37.4832 279.801 37.4758C283.908 37.1031 286.741 33.9577 286.688 29.5378C286.666 27.2347 285.705 24.7825 283.476 23.3067C281.605 22.0694 279.429 21.7266 275.24 21.7266L258.648 21.734C260.132 24.5514 260.46 25.5502 260.46 29.2993V43.5877C260.46 47.3815 260.139 48.3355 258.648 51.1455H271.267C269.776 48.3281 269.493 47.374 269.389 43.4833V39.4435H269.747C271.081 39.4435 271.863 39.6373 272.765 40.3454C273.541 40.9193 274.331 41.933 275.546 43.8038C276.298 44.9889 276.969 46.0846 277.946 47.6424C279.757 50.5567 281.389 51.1455 283.96 51.1455H292.621C290.587 49.7144 289.387 48.4324 288.529 47.225ZM274.994 34.3602C273.496 35.1503 271.468 35.0012 269.396 35.0012V26.3105C272.698 26.303 274.174 26.1763 275.478 27.1825C276.559 27.98 276.999 29.0832 276.999 30.6335C276.999 32.5639 276.112 33.7267 274.994 34.3602Z" fill="white"/>
<path d="M335.301 20.7656C325.954 20.7656 318.359 26.9446 318.359 36.4627C318.359 46.0106 325.954 52.1821 335.301 52.1821C344.655 52.1821 352.243 46.0106 352.243 36.4627C352.235 26.9446 344.648 20.7656 335.301 20.7656ZM335.301 47.2851C331.15 47.2851 327.773 43.5584 327.773 36.4627C327.773 29.367 331.15 25.6775 335.301 25.6775C339.46 25.6775 342.829 29.367 342.829 36.4627C342.829 43.5584 339.46 47.2851 335.301 47.2851Z" fill="white"/>
<path d="M201.66 38.8103L218.057 36.1792L201.66 33.5482L208.01 23.7319L198.283 30.0227L195.496 0L192.835 30.0227L183.108 23.7319L189.451 33.5482L173.061 36.1792L189.451 38.8103L183.108 48.634L192.835 42.3433L195.496 75.5262L198.283 42.3433L208.01 48.634L201.66 38.8103Z" fill="white"/>
<path d="M18.3486 33.8383C15.8368 32.3848 12.4753 31.5352 10.3063 30.5737C8.65162 29.7985 7.92863 28.4792 8.63671 27.0481C9.38206 25.5351 11.9833 24.9388 15.3225 25.9227C17.4467 26.5562 19.2952 27.8457 20.7635 29.2246V22.5239C17.6853 21.227 14.2716 20.668 10.679 20.8245C7.5485 20.9512 5.11121 21.8605 3.11368 23.5599C1.28012 25.1177 0.0875607 27.3687 0.0055723 30.1488C-0.10623 34.0023 1.459 36.2159 5.18575 38.1837C8.0777 39.6967 11.0069 40.3452 12.6392 41.3216C14.2045 42.2682 14.3759 43.5427 13.9212 44.6458C13.0864 46.6955 9.85163 47.2322 6.34849 46.0396C3.7994 45.1974 1.52608 43.2669 0.355886 41.8806V49.5502C3.64288 50.9888 7.26527 51.667 11.0144 51.6074C18.4157 51.4881 22.6567 47.5527 22.9176 42.4321C23.089 38.5936 21.9412 35.9252 18.3486 33.8383Z" fill="white"/>
<path d="M141.95 50.9222C140.847 48.3954 141.093 47.2476 141.757 45.414C142.003 44.706 142.465 43.5283 142.465 43.5283H153.302C153.302 43.5283 153.876 44.7879 154.085 45.414C154.756 47.337 154.845 48.4923 153.802 50.9296H167.792C165.384 48.2986 164.952 47.1134 164.236 45.414C163.566 43.7743 154.286 21.4287 154.286 21.4287H143.218C144.008 23.0238 144.395 24.3654 143.859 25.8337C143.859 25.8337 136.934 43.9085 136.271 45.4588C134.981 48.4849 134.728 48.7905 132.812 50.9296L141.95 50.9222ZM144.224 38.6016L145.401 35.3518C146.393 32.8624 147.265 30.3356 147.57 28.7629C147.578 28.7257 147.608 28.7257 147.615 28.7555C148.1 30.6934 148.86 33.0189 149.956 35.4562L151.297 38.5792L144.224 38.6016Z" fill="white"/>
<path d="M43.5554 50.9225C42.0647 48.1125 41.774 47.1212 41.774 43.3274C41.774 43.3274 41.7516 26.9595 41.7591 26.393C42.2212 26.393 43.8013 26.4005 44.2038 26.4229C47.0585 26.557 48.0424 27.1011 50.3306 28.808L49.6672 21.4961H24.4446L23.7812 28.808C26.0695 27.1011 27.0459 26.5645 29.908 26.4229C30.318 26.4005 31.8981 26.393 32.3528 26.393C32.3677 26.9595 32.3453 43.3274 32.3453 43.3274C32.3453 47.1212 32.0248 48.1125 30.5416 50.9225H43.5554V50.9225Z" fill="white"/>
<path d="M72.1332 45.8915H63.8225V37.4393H67.4002C70.1431 37.4393 71.5294 38.0356 73.6462 39.4964L72.9754 32.5125H63.8225V26.4007H70.9481C73.6835 26.4007 75.0773 26.982 77.2015 28.4354L76.5307 21.459H52.4336C53.9243 24.269 54.2373 25.2453 54.2373 29.0392V43.3275C54.2373 47.1213 53.9243 48.1127 52.4336 50.9226H77.7233L78.3941 43.8567C76.2773 45.3176 74.8761 45.8915 72.1332 45.8915Z" fill="white"/>
<path d="M91.9523 29.0392C91.9523 25.2453 92.243 24.269 93.7337 21.459H80.541C82.0243 24.269 82.3522 25.2453 82.3522 29.0392V43.3275C82.3522 47.1213 82.0243 48.1127 80.541 50.9226H104.869L105.6 43.5139C103.475 44.9673 102.029 45.8915 99.3015 45.8915H91.9523V29.0392Z" fill="white"/>
<path d="M119.097 29.0392C119.097 25.2453 119.395 24.269 120.886 21.459H107.686C109.169 24.269 109.504 25.2453 109.504 29.0392V43.3275C109.504 47.1213 109.176 48.1127 107.686 50.9226H132.021L132.752 43.5139C130.627 44.9673 129.174 45.8915 126.431 45.8915H119.089L119.097 29.0392Z" fill="white"/>
<path d="M390.411 34.107C387.892 32.6386 384.516 31.7889 382.347 30.7976C380.684 30.0597 379.969 28.733 380.67 27.3019C381.415 25.7889 384.024 25.1628 387.37 26.1541C389.502 26.81 391.35 28.092 392.826 29.456V22.7702C389.74 21.4658 386.319 20.9143 382.719 21.0708C379.574 21.1901 377.137 22.077 375.132 23.8062C373.298 25.3715 372.105 27.6075 372.016 30.4026C371.897 34.2784 373.469 36.4697 377.211 38.4523C380.103 39.9728 383.047 40.6362 384.687 41.6052C386.252 42.5145 386.424 43.8039 385.962 44.9294C385.127 46.9493 381.877 47.5307 378.366 46.3307C375.817 45.4512 373.544 43.5505 372.366 42.1642V49.804C375.661 51.25 379.298 51.973 383.047 51.9133C390.463 51.7866 394.727 47.8363 394.98 42.6859C395.167 38.8772 394.011 36.1939 390.411 34.107Z" fill="white"/>
<path d="M232.003 51.1537C230.9 48.6345 231.139 47.5164 231.817 45.6531C232.063 44.9673 232.525 43.7673 232.525 43.7673H243.37C243.37 43.7673 243.944 45.0493 244.152 45.6531C244.823 47.6059 244.92 48.7388 243.869 51.1537H257.852C255.444 48.5376 255.012 47.3748 254.304 45.6531C253.633 43.9984 244.346 21.6752 244.346 21.6752C244.346 21.6752 236.975 21.6677 233.27 21.6752C234.06 23.2702 234.455 24.6044 233.911 26.0802C233.911 26.0802 227.002 44.14 226.339 45.6978C225.034 48.7313 224.788 49.0593 222.865 51.1537H232.003ZM234.291 38.8555L235.469 35.6058C236.46 33.1237 237.332 30.5672 237.631 29.002C237.638 28.9721 237.668 28.9721 237.683 28.9945C238.167 30.925 238.935 33.2654 240.031 35.7176L241.365 38.848L234.291 38.8555Z" fill="white"/>
<path d="M309.729 51.1533C308.231 48.3359 307.947 47.3818 307.947 43.5955C307.947 43.5955 307.925 27.2201 307.94 26.6462C308.394 26.6462 310.154 26.6537 310.563 26.6835C313.5 26.8251 314.499 27.3543 316.847 29.0462L316.168 21.7344H290.297L289.619 29.0462C291.967 27.3469 292.966 26.8251 295.902 26.6835C296.32 26.6537 298.071 26.6462 298.526 26.6462C298.541 27.2201 298.519 43.5955 298.519 43.5955C298.519 47.3893 298.198 48.3359 296.707 51.1533H309.729Z" fill="white"/>
<path d="M366.367 29.2997C366.367 25.5506 366.657 24.5443 368.141 21.7344H355.127C356.61 24.5518 356.931 25.5506 356.931 29.2997V43.588C356.931 47.3818 356.618 48.3359 355.127 51.1458H368.141C366.657 48.3284 366.367 47.3744 366.367 43.588V29.2997Z" fill="white"/>
<path d="M288.529 47.225C287.046 45.1156 286.226 43.7442 285.474 42.6262C283.275 39.3764 281.695 38.3702 279.787 37.5205C279.764 37.5056 279.772 37.4832 279.801 37.4758C283.908 37.1031 286.741 33.9577 286.688 29.5378C286.666 27.2347 285.705 24.7825 283.476 23.3067C281.605 22.0694 279.429 21.7266 275.24 21.7266L258.648 21.734C260.132 24.5514 260.46 25.5502 260.46 29.2993V43.5877C260.46 47.3815 260.139 48.3355 258.648 51.1455H271.267C269.776 48.3281 269.493 47.374 269.389 43.4833V39.4435H269.747C271.081 39.4435 271.863 39.6373 272.765 40.3454C273.541 40.9193 274.331 41.933 275.546 43.8038C276.298 44.9889 276.969 46.0846 277.946 47.6424C279.757 50.5567 281.389 51.1455 283.96 51.1455H292.621C290.587 49.7144 289.387 48.4324 288.529 47.225ZM274.994 34.3602C273.496 35.1503 271.468 35.0012 269.396 35.0012V26.3105C272.698 26.303 274.174 26.1763 275.478 27.1825C276.559 27.98 276.999 29.0832 276.999 30.6335C276.999 32.5639 276.112 33.7267 274.994 34.3602Z" fill="white"/>
<path d="M335.301 20.7656C325.954 20.7656 318.359 26.9446 318.359 36.4627C318.359 46.0106 325.954 52.1821 335.301 52.1821C344.655 52.1821 352.243 46.0106 352.243 36.4627C352.235 26.9446 344.648 20.7656 335.301 20.7656ZM335.301 47.2851C331.15 47.2851 327.773 43.5584 327.773 36.4627C327.773 29.367 331.15 25.6775 335.301 25.6775C339.46 25.6775 342.829 29.367 342.829 36.4627C342.829 43.5584 339.46 47.2851 335.301 47.2851Z" fill="white"/>
<path d="M201.66 38.8103L218.057 36.1792L201.66 33.5482L208.01 23.7319L198.283 30.0227L195.496 0L192.835 30.0227L183.108 23.7319L189.451 33.5482L173.061 36.1792L189.451 38.8103L183.108 48.634L192.835 42.3433L195.496 75.5262L198.283 42.3433L208.01 48.634L201.66 38.8103Z" fill="white"/>
</svg>
