<?xml version="1.0" encoding="utf-8"?>
<!-- Generator: Adobe Illustrator 24.0.3, SVG Export Plug-In . SVG Version: 6.00 Build 0)  -->
<svg version="1.1" id="Capa_1" xmlns="http://www.w3.org/2000/svg" xmlns:xlink="http://www.w3.org/1999/xlink" x="0px" y="0px"
	 viewBox="0 0 302 58.39" style="enable-background:new 0 0 302 58.39;" xml:space="preserve">
<style type="text/css">
	.st0{fill:#152342;}
</style>
<g>
	<path class="st0" d="M28.81,24.94c4.98-2.75,6.82-5.21,7.1-9.36C36.36,8.81,32.29,3.9,25.15,3.09C17.34,2.2,9.48,2.89,1.65,2.7
		C0.29,2.66,0,3.29,0.01,4.5C0.03,18.6,0.04,32.69,0,46.79c0,1.31,0.45,1.71,1.72,1.69c7.14-0.09,14.3,0.16,21.43-0.26
		c5.62-0.33,10.85-2.12,13.15-8.06C38.88,33.5,36.48,28.65,28.81,24.94 M12.14,16.01c0.07-5.14-0.65-4.49,3.63-4.53
		c5.46-0.04,7.65,1.23,7.71,4.36c0.06,3.32-2.7,5.02-8.29,4.97C11.53,20.79,12.21,21.33,12.14,16.01 M21.11,39.13
		c-2.49,0.81-5.07,0.6-7.63,0.59c-1.01,0-1.35-0.53-1.34-1.49c0.03-2.47-0.09-4.94,0.04-7.4c0.17-3.29,2.84-0.78,3.88-1.67
		c1.87,0.12,3.54,0.06,5.17,0.63c2.35,0.83,3.5,2.34,3.47,4.87C24.66,37.13,23.26,38.43,21.11,39.13"/>
	<path class="st0" d="M170.84,16.26c0.01-1.68-0.63-1.98-2.09-1.93c-2.58,0.1-5.17,0.13-7.75-0.01c-1.72-0.09-2.21,0.5-2.17,2.19
		c0.11,4.37,0.03,8.74,0.04,13.12c0,2.11-0.28,4.16-1.22,6.08c-1.27,2.59-3.89,4.06-6.57,3.63c-2.78-0.44-3.93-2.36-4.4-4.93
		c-0.65-3.56-0.16-7.14-0.34-10.7c-0.16-3.04,1.33-7.43-0.57-8.78c-2.2-1.56-6.27-0.44-9.53-0.59c-1.45-0.07-1.86,0.47-1.85,1.88
		c0.06,6.76-0.11,13.52,0.07,20.27c0.17,6.41,3.58,11.16,8.92,12.28c6.34,1.33,12.09,0.35,16.34-5.81c0.54,5.49,0.54,5.49,5.91,5.49
		c0.99,0,2-0.08,2.98,0.02c1.63,0.17,2.24-0.34,2.23-2.1C170.76,36.33,170.77,26.3,170.84,16.26"/>
	<path class="st0" d="M73.19,48.46c1,0.01,1.38-0.31,1.23-1.41c-0.88-6.43-0.26-12.9-0.43-19.35c-0.2-7.55-3.85-12.08-11.23-13.59
		c-4.03-0.82-8.1-0.66-12.14,0.1c-6.85,1.29-6.82,1.3-6.49,7.97c0.08,1.51,0.29,1.92,1.85,1.22c3.21-1.45,6.66-1.98,10.17-1.77
		c2.32,0.14,4.57,0.58,5.9,2.83c0.4,0.68,0.93,1.42,0.6,2.23c-0.46,1.12-1.4,0.29-2.07,0.26c-5.2-0.22-10.34-0.16-15.14,2.27
		c-4.1,2.07-5.85,5.55-5.63,10c0.22,4.53,2.57,7.6,6.85,9.16c6.36,2.32,11.6,0.98,16.56-4.47c0.48,4.38,0.48,4.49,1.92,4.53
		C67.82,48.51,70.5,48.44,73.19,48.46 M61.3,38.26c-1.72,2.6-4.23,3.48-7.24,2.91c-1.72-0.32-2.93-1.33-3.17-3.1
		c-0.24-1.79,0.74-3.06,2.27-3.83c1.82-0.93,3.82-0.94,6.08-0.87c0.95,0.33,2.77-0.57,3.32,0.51C63.3,35.34,62.17,36.94,61.3,38.26"
		/>
	<path class="st0" d="M203.02,38.23c0.08-5.56-2.28-8.45-8.41-10.23c-2.19-0.64-4.42-1.12-6.59-1.82c-1.11-0.36-2.41-0.92-2.32-2.37
		c0.1-1.63,1.59-1.94,2.83-2.13c2.07-0.33,4.13-0.09,6.21,0.2c1.84,0.25,4,2.31,5.11,1.18c1.11-1.14,0.66-3.75,1.04-5.69
		c0.29-1.46-0.11-2.13-1.6-2.54c-2.7-0.74-5.42-1.18-8.05-1.18c-2.26-0.44-4.35-0.1-6.38,0.26c-6.34,1.1-10.26,5.1-10.48,10.44
		c-0.21,5.16,2.65,8.24,9.39,10.15c1.81,0.51,3.63,1.02,5.39,1.66c1.32,0.48,2.16,1.46,1.87,2.99c-0.27,1.41-1.4,1.88-2.62,2.02
		c-2.48,0.29-4.93-0.06-7.4-0.44c-1.88-0.29-4.21-2.31-5.36-0.99c-1.11,1.28-0.51,3.98-0.83,6.03c-0.24,1.56,0.46,2.16,1.81,2.43
		c5.89,1.2,11.8,1.69,17.7,0.2C200.1,46.96,202.94,43.54,203.02,38.23"/>
	<path class="st0" d="M99.18,49.27c9.43-1.17,7.45,0.26,7.2-8.48c-0.01-0.47-0.14-0.94-0.23-1.5c-5.67,1.77-11.14,2.69-15.21-2.83
		c-2.24-3.04-1.96-7.9,0.6-10.83c4.09-4.67,9.01-3.42,14.03-1.56c0.24-2.2,0.43-4.37,0.72-6.52c0.21-1.52-0.3-2.28-1.84-2.8
		c-3.48-1.17-7.03-1.34-10.58-0.92c-6.68,0.8-12.27,3.58-15.06,10.07C76,30.47,76.4,37.01,80.96,42.7
		C85.59,48.49,92.24,50.14,99.18,49.27"/>
	<path class="st0" d="M148.5,53.68c-0.97-0.19-1.95-0.33-2.92-0.52c-6.1-1.18-10.86-4.15-13.49-10.01
		c-2.91-6.5-7.96-10.44-14.74-12.3l-13.48-0.01c0.09,0.13,0.29,0.22,0.67,0.25c5.02,1.78,9.21,4.46,11.28,9.73
		c3.96,10.03,12.21,13.73,22.18,14.77c3.77,0.4,7.49,0.23,11.07-1.51C148.8,53.88,148.66,53.71,148.5,53.68z"/>
	<path class="st0" d="M117.35,30.85c3.87-5.36,7.74-10.71,11.92-16.49c-4.52,0-8.55,0.01-12.58-0.01c-0.79,0-1.26,0.35-1.7,0.96
		c-3.58,4.88-7.2,9.74-10.8,14.61c-0.03,0.04-0.05,0.07-0.08,0.11c-0.01,0.01-0.02,0.02-0.02,0.03c-0.02,0.03-0.04,0.05-0.06,0.08
		c-0.01,0.01-0.02,0.02-0.02,0.04c-0.02,0.03-0.04,0.06-0.05,0.09c0,0.01-0.01,0.02-0.01,0.02c-0.02,0.04-0.04,0.07-0.05,0.11
		c0,0.01-0.01,0.02-0.01,0.03c-0.01,0.03-0.02,0.05-0.03,0.08c0,0.01-0.01,0.02-0.01,0.03c-0.01,0.03-0.01,0.05-0.01,0.07
		c0,0.01,0,0.02,0,0.03c0,0.03,0,0.06,0.01,0.09c0,0.01,0,0.01,0.01,0.01c0.01,0.02,0.02,0.05,0.03,0.07c0,0,0.01,0.01,0.01,0.01
		L117.35,30.85L117.35,30.85z"/>
	<path class="st0" d="M247.65,7.69c0,0.59-0.21,1.43-0.63,2.52c-0.42,1.09-1.15,2.59-2.18,4.52c-1.04,1.92-2.43,4.37-4.18,7.33
		c-1.75,2.96-3.96,6.59-6.63,10.88v14.95c-0.54,0.15-1.3,0.28-2.26,0.41c-0.96,0.12-1.96,0.19-3,0.19c-2.32,0-3.92-0.4-4.81-1.18
		c-0.89-0.79-1.33-2.17-1.33-4.15V32.86c-1.28-1.87-2.66-3.99-4.15-6.33c-1.48-2.34-2.94-4.71-4.37-7.11
		c-1.43-2.39-2.76-4.75-4-7.07c-1.23-2.32-2.22-4.39-2.96-6.22c0.54-0.84,1.32-1.6,2.33-2.29c1.01-0.69,2.26-1.04,3.74-1.04
		c1.73,0,3.13,0.36,4.22,1.07c1.08,0.72,2.12,2.06,3.11,4.03c0.1,0.15,0.34,0.6,0.74,1.37c0.39,0.77,0.85,1.65,1.37,2.67
		c0.52,1.01,1.07,2.11,1.67,3.29s1.15,2.28,1.67,3.29c0.52,1.01,0.97,1.89,1.37,2.63c0.39,0.74,0.64,1.18,0.74,1.33h0.37
		c0.79-1.63,1.52-3.18,2.18-4.66c0.67-1.48,1.32-2.95,1.96-4.4c0.64-1.45,1.3-2.94,1.96-4.44c0.67-1.5,1.37-3.15,2.11-4.92
		c0.79-0.39,1.67-0.7,2.63-0.93c0.96-0.22,1.86-0.33,2.7-0.33c1.58,0,2.91,0.42,4,1.26C247.11,4.9,247.65,6.11,247.65,7.69z"/>
	<path class="st0" d="M276.37,39.5l-0.38-0.44v0.58C276.12,39.58,276.24,39.54,276.37,39.5z"/>
	<path class="st0" d="M293.48,24.92c-0.56-0.65-1.38-1.07-2.23-1.13c-0.71-0.05-1.38,0.13-1.95,0.53c-0.64,0.45-1.08,1.12-1.25,1.87
		c-0.48-0.33-1.04-0.53-1.61-0.58c-0.71-0.05-1.38,0.13-1.95,0.53c-0.7,0.49-1.16,1.24-1.28,2.08c-0.37-0.18-0.77-0.29-1.18-0.32
		c-0.71-0.05-1.38,0.13-1.95,0.53c-0.6,0.42-1.03,1.04-1.22,1.75l-0.38-0.44v0l-4.64-5.38c-0.56-0.65-1.38-1.07-2.23-1.13
		c-0.71-0.05-1.38,0.13-1.94,0.53c-0.71,0.5-1.18,1.28-1.29,2.15c-0.11,0.87,0.15,1.74,0.72,2.4L280,40.92l-1.83-0.13
		c-1.62-0.11-3.1,1.01-3.36,2.54c-0.15,0.86,0.08,1.74,0.61,2.42c0.54,0.69,1.34,1.12,2.22,1.18l6.93,0.48
		c1.03,0.08,2.08,0.34,3.23,0.8c1.01,0.41,2.07,0.66,3.16,0.74l0,0c3.13,0.23,6.16-0.95,8.31-3.24c3.62-3.85,3.67-9.86,0.13-13.98
		L293.48,24.92z M298.28,44.81c-1.87,1.99-4.51,3.02-7.24,2.82c-0.95-0.07-1.88-0.29-2.75-0.64c-1.27-0.52-2.46-0.81-3.63-0.9
		l-6.94-0.48c-0.49-0.04-0.94-0.28-1.25-0.67c-0.31-0.39-0.43-0.88-0.35-1.37c0.15-0.87,1.01-1.5,1.96-1.44l3.44,0.24l1.74,0.1
		l-1.24-1.26c-0.02-0.02-0.03-0.03-0.05-0.05l-11.84-13.74c-0.32-0.37-0.47-0.87-0.41-1.36c0.06-0.5,0.32-0.93,0.73-1.22
		c0.71-0.5,1.8-0.31,2.4,0.38l6.68,7.75l0,0l2.05,2.38l1.01-0.87l-2.05-2.38c-0.32-0.37-0.47-0.87-0.41-1.36
		c0.06-0.5,0.32-0.93,0.73-1.22c0.71-0.5,1.8-0.31,2.4,0.38l0.67,0.78l1.01-0.87l0,0c-0.32-0.37-0.47-0.87-0.41-1.36
		c0.06-0.5,0.32-0.93,0.73-1.22c0.71-0.5,1.8-0.31,2.4,0.38l1.07,1.24c0,0,0,0,0,0l1.01-0.87c-0.32-0.37-0.47-0.87-0.41-1.36
		c0.06-0.5,0.32-0.93,0.73-1.22c0.71-0.5,1.8-0.31,2.4,0.38l5.9,6.84C301.46,36.22,301.43,41.46,298.28,44.81z"/>
	<path class="st0" d="M273.98,47.07c-0.84-1.06-1.2-2.44-0.98-3.77c0.28-1.68,1.46-3.04,3-3.66v-0.58l-8.54-9.77
		c-0.89-1.02-1.31-2.38-1.15-3.74c0.16-1.35,0.89-2.58,1.99-3.36c0.89-0.63,1.95-0.93,3.06-0.86c1.31,0.09,2.56,0.71,3.43,1.7
		l1.13,1.29c-0.15-1.44-0.5-2.74-1.06-3.89c-0.76-1.58-1.84-2.87-3.23-3.89c-1.39-1.02-3.07-1.77-5.04-2.26
		c-1.97-0.49-4.16-0.73-6.57-0.73c-1.72,0-3.47,0.13-5.25,0.38c-1.78,0.26-3.35,0.64-4.69,1.15c-2.13,0.88-3.2,2.34-3.2,4.38
		c0,0.88,0.2,1.7,0.59,2.47c0.39,0.76,0.87,1.33,1.43,1.7c1.34-0.56,2.86-1.04,4.55-1.46c1.69-0.42,3.42-0.63,5.18-0.63
		c2.27,0,4.01,0.35,5.21,1.04c1.2,0.7,1.81,1.78,1.81,3.27v0.76l-9.25,0.97c-3.94,0.42-6.86,1.46-8.76,3.13
		c-1.9,1.67-2.85,4.1-2.85,7.3c0,3.75,1.24,6.84,4.24,8.38c10.41,5.32,17.65-3.09,17.65-3.09v4.38h7.9
		C274.36,47.5,274.15,47.29,273.98,47.07z M257.83,40.46c-6.07,0-3.3-7.53,1.38-7.53c4.69,0,6.69-0.92,6.69-0.92
		S265.9,40.46,257.83,40.46z"/>
</g>
</svg>
