<svg width="22" height="22" viewBox="0 0 22 22" fill="none" xmlns="http://www.w3.org/2000/svg">
<path d="M11.0032 5.35594C14.1266 5.35594 16.6473 7.87664 16.6473 11C16.6473 14.1234 14.1266 16.6441 11.0032 16.6441C7.87988 16.6441 5.35917 14.1234 5.35917 11C5.35917 7.87664 7.87988 5.35594 11.0032 5.35594ZM11.0032 14.6682C13.0231 14.6682 14.6715 13.0199 14.6715 11C14.6715 8.98014 13.0231 7.33177 11.0032 7.33177C8.98337 7.33177 7.33501 8.98014 7.33501 11C7.33501 13.0199 8.98337 14.6682 11.0032 14.6682ZM5.12802 3.80939C5.85726 3.80939 6.44616 4.39829 6.44616 5.12753C6.44616 5.85678 5.85726 6.44567 5.12802 6.44567C4.39877 6.44567 3.80988 5.85953 3.80988 5.12753C3.80966 4.95437 3.84361 4.78287 3.90977 4.62284C3.97594 4.46282 4.07302 4.31743 4.19547 4.19498C4.31791 4.07254 4.46331 3.97545 4.62333 3.90929C4.78335 3.84312 4.95485 3.80917 5.12802 3.80939V3.80939ZM0.00130211 11C0.00130211 9.48097 -0.0124579 7.97571 0.0728498 6.45943C0.158157 4.69824 0.559929 3.13519 1.8478 1.84732C3.13842 0.556694 4.69873 0.157674 6.45992 0.0723668C7.97894 -0.0129408 9.48421 0.000818524 11.0005 0.000818524C12.5195 0.000818524 14.0248 -0.0129408 15.5411 0.0723668C17.3022 0.157674 18.8653 0.559446 20.1532 1.84732C21.4438 3.13794 21.8428 4.69824 21.9281 6.45943C22.0134 7.97846 21.9997 9.48373 21.9997 11C21.9997 12.5163 22.0134 14.0243 21.9281 15.5406C21.8428 17.3018 21.441 18.8648 20.1532 20.1527C18.8625 21.4433 17.3022 21.8423 15.5411 21.9276C14.022 22.0129 12.5168 21.9992 11.0005 21.9992C9.48146 21.9992 7.97619 22.0129 6.45992 21.9276C4.69873 21.8423 3.13567 21.4406 1.8478 20.1527C0.557177 18.8621 0.158157 17.3018 0.0728498 15.5406C-0.0152097 14.0243 0.00130211 12.519 0.00130211 11V11ZM2.42294 17.4889C2.62382 17.9897 2.86599 18.364 3.254 18.7492C3.64201 19.1372 4.01351 19.3794 4.51435 19.5803C5.96183 20.1554 9.3989 20.0261 11.0032 20.0261C12.6076 20.0261 16.0474 20.1554 17.4949 19.583C17.9957 19.3822 18.37 19.14 18.7552 18.752C19.1432 18.364 19.3854 17.9925 19.5863 17.4916C20.1587 16.0414 20.0293 12.6043 20.0293 11C20.0293 9.39567 20.1587 5.95584 19.5863 4.50836C19.3854 4.00753 19.1432 3.63327 18.7552 3.24801C18.3672 2.86275 17.9957 2.61784 17.4949 2.41695C16.0474 1.84456 12.6076 1.9739 11.0032 1.9739C9.3989 1.9739 5.95908 1.84456 4.5116 2.41695C4.01076 2.61784 3.63651 2.86 3.25125 3.24801C2.86324 3.63602 2.62107 4.00753 2.42019 4.50836C1.8478 5.95584 1.97714 9.39567 1.97714 11C1.97714 12.6043 1.8478 16.0414 2.42294 17.4889Z" fill="black"/>
</svg>
