<svg width="20" height="20" viewBox="0 0 20 20" fill="none" xmlns="http://www.w3.org/2000/svg">
<path d="M9.55355 14.233C9.57299 14.2601 9.59783 14.2821 9.62619 14.2972C9.65455 14.3123 9.68569 14.3202 9.71723 14.3202C9.74878 14.3202 9.77991 14.3123 9.80827 14.2972C9.83663 14.2821 9.86148 14.2601 9.88092 14.233L12.7909 10.2074C12.8974 10.0597 12.8013 9.84091 12.6272 9.84091H10.7019V0.227273C10.7019 0.102273 10.6084 0 10.4941 0H8.93518C8.82086 0 8.72732 0.102273 8.72732 0.227273V9.83807H6.80726C6.63318 9.83807 6.53705 10.0568 6.64357 10.2045L9.55355 14.233ZM19.2266 13.2386H17.6677C17.5534 13.2386 17.4598 13.3409 17.4598 13.4659V17.8409H1.97462V13.4659C1.97462 13.3409 1.88109 13.2386 1.76677 13.2386H0.207855C0.0935349 13.2386 0 13.3409 0 13.4659V19.0909C0 19.5938 0.371541 20 0.831421 20H18.603C19.0629 20 19.4345 19.5938 19.4345 19.0909V13.4659C19.4345 13.3409 19.3409 13.2386 19.2266 13.2386Z" fill="black"/>
</svg>
