<svg width="43" height="43" viewBox="0 0 43 43" fill="none" xmlns="http://www.w3.org/2000/svg">
<path d="M21.5 0C9.62769 0 0 9.62769 0 21.5C0 33.3723 9.62769 43 21.5 43C33.3723 43 43 33.3723 43 21.5C43 9.62769 33.3723 0 21.5 0ZM31.3167 16.7634C31.3262 16.975 31.3308 17.1876 31.3308 17.4012C31.3308 23.9221 26.3672 31.4417 17.29 31.442H17.2903H17.29C14.5031 31.442 11.9097 30.6251 9.72578 29.2253C10.1119 29.2709 10.5049 29.2935 10.9029 29.2935C13.2151 29.2935 15.3429 28.5048 17.0321 27.1811C14.8718 27.1411 13.0504 25.7143 12.4218 23.7535C12.7226 23.8112 13.032 23.8427 13.3493 23.8427C13.7997 23.8427 14.236 23.782 14.6507 23.6688C12.3926 23.2168 10.6916 21.2211 10.6916 18.8315C10.6916 18.8092 10.6916 18.7892 10.6923 18.7685C11.3572 19.1383 12.1177 19.3607 12.9274 19.3856C11.6023 18.5015 10.7313 16.9901 10.7313 15.2779C10.7313 14.3738 10.9757 13.5267 11.3996 12.7974C13.8331 15.7835 17.4701 17.7473 21.5715 17.9536C21.4869 17.5921 21.4432 17.2155 21.4432 16.8284C21.4432 14.1041 23.6534 11.894 26.3786 11.894C27.7982 11.894 29.0802 12.494 29.9808 13.4532C31.1051 13.2315 32.1608 12.8207 33.1144 12.2555C32.7454 13.4073 31.9633 14.3738 30.9443 14.985C31.9426 14.8656 32.894 14.6008 33.7781 14.2078C33.1177 15.1976 32.2802 16.0669 31.3167 16.7634V16.7634Z" fill="#322723"/>
</svg>
