<svg width="43" height="43" viewBox="0 0 43 43" fill="none" xmlns="http://www.w3.org/2000/svg">
<path d="M21.5 0C9.62769 0 0 9.62769 0 21.5C0 33.3723 9.62769 43 21.5 43C33.3723 43 43 33.3723 43 21.5C43 9.62769 33.3723 0 21.5 0ZM21.9557 34.0179C21.9554 34.0179 21.956 34.0179 21.9557 34.0179H21.9504C19.7967 34.017 17.6804 33.477 15.8009 32.4521L8.97944 34.241L10.8051 27.5748C9.67887 25.6241 9.08639 23.411 9.08737 21.1437C9.09032 14.051 14.8629 8.28066 21.9557 8.28066C25.3977 8.28197 28.6288 9.62179 31.0581 12.0531C33.4878 14.4847 34.825 17.7168 34.8237 21.1539C34.8207 28.247 29.0474 34.0179 21.9557 34.0179V34.0179Z" fill="#322723"/>
<path d="M21.9599 10.4534C16.0603 10.4534 11.2624 15.2494 11.2598 21.1447C11.2591 23.1649 11.8247 25.1323 12.8952 26.8347L13.1494 27.2392L12.0688 31.1848L16.1168 30.1232L16.5075 30.3548C18.1494 31.3291 20.0319 31.8445 21.9511 31.8452H21.9553C27.8503 31.8452 32.6482 27.0489 32.6509 21.1532C32.6518 18.2961 31.5404 15.6099 29.5211 13.5891C27.5019 11.5682 24.8164 10.4544 21.9599 10.4534V10.4534ZM28.2509 25.7415C27.9828 26.4922 26.6985 27.1775 26.0807 27.27C25.5266 27.3527 24.8259 27.3871 24.0556 27.1427C23.5884 26.9944 22.9897 26.7966 22.2224 26.4656C18.9972 25.0733 16.8907 21.8268 16.7299 21.6122C16.5692 21.3977 15.417 19.8692 15.417 18.2869C15.417 16.705 16.2477 15.9272 16.5423 15.6057C16.8372 15.2839 17.1856 15.2035 17.3998 15.2035C17.614 15.2035 17.8286 15.2054 18.0159 15.2146C18.2134 15.2245 18.4785 15.1395 18.7393 15.7664C19.0073 16.4101 19.6503 17.992 19.7307 18.1528C19.8111 18.3138 19.8646 18.5015 19.7576 18.7161C19.6503 18.9306 19.2941 19.3935 18.9539 19.8154C18.8111 19.9922 18.6251 20.1497 18.8128 20.4715C19.0001 20.793 19.6457 21.8458 20.6014 22.6981C21.8297 23.7932 22.8657 24.1324 23.1872 24.2935C23.5084 24.4542 23.696 24.4273 23.8837 24.2131C24.071 23.9985 24.6874 23.2745 24.9017 22.9527C25.1159 22.6308 25.3304 22.6846 25.625 22.7919C25.92 22.8989 27.5006 23.6767 27.8221 23.8375C28.1436 23.9985 28.3578 24.0789 28.4382 24.2131C28.5189 24.3473 28.5189 24.9906 28.2509 25.7415V25.7415Z" fill="#322723"/>
</svg>
