<svg width="43" height="43" viewBox="0 0 43 43" fill="none" xmlns="http://www.w3.org/2000/svg">
<path d="M18.8223 25.528L25.8159 21.5L18.8223 17.472V25.528Z" fill="#322723"/>
<path d="M21.5 0C9.62769 0 0 9.62769 0 21.5C0 33.3723 9.62769 43 21.5 43C33.3723 43 43 33.3723 43 21.5C43 9.62769 33.3723 0 21.5 0ZM34.9342 21.522C34.9342 21.522 34.9342 25.8823 34.3811 27.9848C34.0711 29.1357 33.1637 30.0431 32.0128 30.3528C29.9102 30.9063 21.5 30.9062 21.5 30.9062C21.5 30.9062 13.1117 30.9062 10.9872 30.3308C9.83634 30.0211 8.92892 29.1134 8.6189 27.9625C8.06545 25.8823 8.06545 21.5 8.06545 21.5C8.06545 21.5 8.06545 17.14 8.6189 15.0375C8.92859 13.8866 9.85832 12.9569 10.9872 12.6472C13.0898 12.0937 21.5 12.0938 21.5 12.0938C21.5 12.0938 29.9102 12.0938 32.0128 12.6692C33.1637 12.9789 34.0711 13.8866 34.3811 15.0375C34.9565 17.14 34.9342 21.522 34.9342 21.522V21.522Z" fill="#322723"/>
</svg>
