<svg width="292" height="73" viewBox="0 0 292 73" fill="none" xmlns="http://www.w3.org/2000/svg">
<path d="M17.2664 47.4342C25.8174 41.5143 13.7035 27.9752 6.57769 21.9456C40.1239 18.6568 70.4361 37.5677 81.3989 47.4342L78.1101 71.2783C69.6139 72.3746 50.4838 73.2516 41.9328 67.9895C33.3818 62.7273 10.4147 60.3155 0 59.7673C2.19256 58.1229 8.71544 53.3541 17.2664 47.4342Z" fill="#FE9D15"/>
<path d="M274.734 47.4342C266.183 41.5143 278.296 27.9752 285.422 21.9456C251.876 18.6568 221.564 37.5677 210.601 47.4342L213.89 71.2783C222.386 72.3746 241.516 73.2516 250.067 67.9895C258.618 62.7273 281.585 60.3155 292 59.7673C289.807 58.1229 283.285 53.3541 274.734 47.4342Z" fill="#FE9D15"/>
<path d="M80.5767 53.1899L78.1101 71.2786C78.1101 71.2786 67.4214 65.5231 59.1993 57.301C50.9771 49.0789 46.0449 40.8604 46.0449 40.8604L50.877 28.3398L80.5767 53.1899Z" fill="#E8542E"/>
<path d="M211.424 53.1899L213.891 71.2786C213.891 71.2786 224.58 65.5231 232.802 57.301C241.024 49.0789 245.956 40.8604 245.956 40.8604L241.124 28.3398L211.424 53.1899Z" fill="#E8542E"/>
<path fill-rule="evenodd" clip-rule="evenodd" d="M148.247 70.471C148.247 70.4699 148.248 70.469 148.249 70.469C166.566 70.2902 216.803 64.9683 244.889 41.7546C245.533 41.2216 245.756 40.3401 245.466 39.5558C240.201 25.3452 234.643 9.85552 231.88 2.06344C231.486 0.953672 230.227 0.426416 229.149 0.899904C208.42 10.004 181.456 15.1669 149.753 15.3071C118.105 15.1671 82.9443 9.58856 62.8543 0.903279C61.7694 0.434261 60.5046 0.961334 60.1095 2.07529C57.3448 9.87121 51.7902 25.3524 46.5277 39.5558C46.2371 40.3401 46.4584 41.2205 47.104 41.7525C75.2788 64.968 129.106 70.2902 147.423 70.469C147.424 70.469 147.425 70.4699 147.425 70.471C147.425 70.4722 147.426 70.4731 147.427 70.4731C147.562 70.4731 147.698 70.4727 147.836 70.472C147.974 70.4727 148.11 70.4731 148.245 70.4731C148.247 70.4731 148.247 70.4722 148.247 70.471Z" fill="#FF9D16"/>
<path d="M101.563 28.9705L103.603 26.9305H108.635L110.675 28.9705V34.7845H107.411V30.3305L106.731 29.6505H105.507L104.827 30.3305V49.3025L105.507 49.9825H106.731L107.411 49.3025V44.8825H110.675V50.7305L108.635 52.7705H103.603L101.563 50.7305V28.9705ZM115.517 46.1065L114.871 52.7705H111.607L114.701 26.9305H119.393L122.555 52.7705H119.155L118.509 46.1065H115.517ZM117.013 30.2965L115.755 43.3185H118.271L117.013 30.2965ZM123.978 26.9305H127.514L131.254 44.8485V26.9305H134.212V52.7705H130.676L126.936 35.1245V52.7705H123.978V26.9305ZM142.004 29.6505V52.7705H138.74V29.6505H135.646V26.9305H145.098V29.6505H142.004ZM146.523 26.9305H149.787V52.7705H146.523V26.9305ZM159.991 29.7185H155.299V38.5925H159.515V41.3805H155.299V52.7705H152.035V26.9305H159.991V29.7185ZM161.531 52.7705V26.9305H164.795V49.9825H169.113V52.7705H161.531ZM173.656 46.1065L173.01 52.7705H169.746L172.84 26.9305H177.532L180.694 52.7705H177.294L176.648 46.1065H173.656ZM175.152 30.2965L173.894 43.3185H176.41L175.152 30.2965ZM187.327 30.3305L186.647 29.6505H185.457L184.777 30.3305V37.6065L185.457 38.2865H188.653L190.693 40.3265V50.7305L188.653 52.7705H183.485L181.445 50.7305V45.3245H184.709V49.3705L185.389 50.0505H186.749L187.429 49.3705V41.7545L186.749 41.0745H183.553L181.513 39.0345V28.9705L183.553 26.9305H188.551L190.591 28.9705V34.4105H187.327V30.3305Z" fill="#942953"/>
</svg>
